<svg xmlns="http://www.w3.org/2000/svg" viewBox="0 0 375 667" preserveAspectRatio="none"><path fill="none" stroke="#60BD43" stroke-width="2.6" stroke-miterlimit="10" d="M38.8 26.5h71.6l9.1-6.8M38.8 163.3h30.6l8.7-4.8M22.5.9L11.1 6.2v357.5h24.2l6.7-5.1M198.5 1.4l-11.2 4.2V359h112.9l9.2-5.6M150.2 1.4L139 5.7v334.2c0 4.1-5.8 7.5-12.9 7.5"/><path fill="none" stroke="#60BD43" stroke-width="2.6" stroke-miterlimit="10" d="M96.9 34.5l-11.3 6.2V340c0 13.1 18.2 23.7 40.6 23.7s40.6-10.6 40.6-23.7M238 1.3l-11.4 4.1v320.8h73.6l9.3-5M354 1.4l-11.2 4.3v186.6c0 4.1-5.8 7.5-12.9 7.5"/><path fill="none" stroke="#60BD43" stroke-width="2.6" stroke-miterlimit="10" d="M300.4 1.4l-11.1 4.3v186.5c0 10.3 11.1 19.1 26.8 22.4V367h24.4l6.4-7.1M11.1 363.7l11.9-6.1"/><path fill="none" stroke="#60BD43" stroke-width="21.1" stroke-miterlimit="10" d="M32.3 359.6V10.3h88M32.3 148.4h46.9"/><path fill="none" stroke="#60BD43" stroke-width="20.9" stroke-miterlimit="10" d="M208.5.1V344h101.6"/><path fill="none" stroke="#60BD43" stroke-width="20.7" stroke-miterlimit="10" d="M247.8.1v312h62.3"/><path fill="none" stroke="#60BD43" stroke-width="21.1" stroke-miterlimit="10" d="M337.3 360.7V204.8"/><path fill="none" stroke="#60BD43" stroke-width="21.2" stroke-miterlimit="10" d="M364 .1v188c0 8.7-12 15.7-26.8 15.7s-26.8-7-26.8-15.7V.1M160.3.1v335.6c0 8.7-12 15.6-26.8 15.6s-26.8-7-26.8-15.6V33.3"/><path fill="none" stroke="#60BD43" stroke-width="2" stroke-miterlimit="10" d="M322.8 597.4l-7.5 3.5v48.6c0 4.1 1.9 8 5.3 11 4 3.4 9.6 5.4 15.6 5.4h14.6c6 0 11.6-2 15.6-5.4 3.4-3 5.3-6.9 5.3-11"/><path fill="none" stroke="#60BD43" stroke-width="2" stroke-miterlimit="10" d="M336.2 379.9c-6 0-11.6 2-15.6 5.4-3.4 3-5.3 6.9-5.3 11V514c0 4.1 1.9 8 5.3 11 4 3.4 9.6 5.4 15.6 5.4h14.6c.6.2 2 1.5 2 3.5v115.5c0 2-1.3 3.2-2 3.5"/><path fill="none" stroke="#60BD43" stroke-width="2" stroke-miterlimit="10" d="M336.3 392.8h14.5c.6.2 2 1.5 2 3.5v41.9h17.4l4.4-4"/><path fill="none" stroke="#60BD43" stroke-width="1.9" stroke-miterlimit="10" d="M8.3 598.9L1 602.3v47.6c0 4 1.9 7.8 5.3 10.8 4 3.4 9.6 5.3 15.6 5.3h14.6c6 0 11.6-1.9 15.6-5.3a18 18 0 0 0 3.2-3.6"/><path fill="none" stroke="#60BD43" stroke-width="1.9" stroke-miterlimit="10" d="M21.9 404.7c-6 0-11.6 1.9-15.6 5.3-3.4 3-5.3 6.8-5.3 10.8v96.6c0 4 1.9 7.8 5.3 10.8 4 3.4 9.6 5.3 15.6 5.3h14.6c.6.2 2 1.4 2 3.4v113c0 2-1.3 3.2-2 3.4"/><path fill="none" stroke="#60BD43" stroke-width="1.9" stroke-miterlimit="10" d="M22 417.4h14.5c.6.2 2 1.4 2 3.4v41h18.9l2.8-3.8"/><path fill="none" stroke="#60BD43" stroke-width="2" stroke-miterlimit="10" d="M85.8 395.9h64.7l5.8-5.4M6.5 376.2l-5.5 5v14.7h65.8v270.2H85l3.6-3.4M230.7 377.7l-7.2 3.5V666h18.4l3.3-3.2M167.5 376.2l-7.3 4.9V666h22.3c17.8 0 32.3-9.8 32.3-21.9m-32.4-251.5c7.3 0 13.2 4 13.2 9v242.7c0 4.9-5.9 9-13.2 9M269.6 380.5c-10.4 2.4-18 9.2-18 17.1v249.9c0 10 11.9 18.1 26.6 18.1h.1c15.4 0 27.9-8.5 27.9-19m-31.9-253.3c1.2-.5 2.6-.8 4-.8h.1c4.9 0 8.8 2.7 8.8 6v248.2c0 3.3-4 6-8.8 6h-.1M139.1 404.8l-7.2 3.5v238.8c0 3.3-4 5.9-8.9 5.9"/><path fill="none" stroke="#60BD43" stroke-width="2" stroke-miterlimit="10" d="M102.2 404.8l-7.3 3.5V647c0 10.5 12.5 18.9 28 18.9s28-8.5 28-18.9"/><path fill="none" stroke="#60BD43" stroke-width="15.5" stroke-miterlimit="10" d="M53.1 458.6v-41c0-5.4-5.1-9.8-11.4-9.8H27c-6.3 0-11.4 4.4-11.4 9.8v93.6c0 5.4 5.1 9.8 11.4 9.8h14.6c6.3 0 11.4 4.4 11.4 9.8v116c0 5.4-5.1 9.8-11.4 9.8H27c-6.3 0-11.4-4.4-11.4-9.8V598"/><path fill="none" stroke="#60BD43" stroke-width="15.7" stroke-miterlimit="10" d="M367.3 435v-41.9c0-5.5-5.1-10-11.4-10h-14.6c-6.3 0-11.4 4.4-11.4 10v114.7c0 5.5 5.1 10 11.4 10h14.6c6.3 0 11.4 4.4 11.4 10v118.5c0 5.5-5.1 10-11.4 10h-14.6c-6.3 0-11.4-4.4-11.4-10v-49.8M5.9 383.3H157M81.4 383.1v280.3M238.1 376.8v286.7M187.5 656.3h-12.7v-273h12.7c12.5 0 22.7 6.9 22.7 15.4V641c0 8.4-10.2 15.3-22.7 15.3zM283.5 655.9c-9.5 0-17.1-5.2-17.1-11.6V394.4c0-6.4 7.6-11.6 17-11.6h.1c10.1 0 18.3 5.6 18.3 12.5v248.1c0 6.9-8.2 12.5-18.3 12.5zM146.5 403.8v239.9c0 6.9-8.3 12.4-18.5 12.4s-18.5-5.6-18.5-12.4V403.8"/></svg>
