<svg xmlns="http://www.w3.org/2000/svg" viewBox="0 0 1440 900" preserveAspectRatio="none"><g fill="none" stroke="#60BD43" stroke-width="5" stroke-miterlimit="10"><path d="M1322.7 683.6l-12.4 11.8v150.8c0 12.7 4 24.9 11.2 34.2a41.5 41.5 0 0 0 32.7 16.8h30.7c12.5 0 24.4-6.1 32.7-16.8a56.5 56.5 0 0 0 11.2-34.2"/><path d="M1354.2 9.6a41.5 41.5 0 0 0-32.7 16.8 56.5 56.5 0 0 0-11.2 34.2v356c0 12.7 4 24.9 11.2 34.2a41.5 41.5 0 0 0 32.7 16.8h30.5c1.3.6 4.1 4.5 4.1 10.8v367.8c0 6.2-2.8 10.1-4.1 10.8"/><path d="M1354.4 49.8h30.3c1.3.6 4.1 4.5 4.1 10.8v129.9h36.5l12.5-11.8M50.3 50h103.6l12.6-12M50.3 392.8h44.3l12.5-11.9M21.1-.4l-10.8 10v887.1h36.4l12.4-11.9M277.6 1.8l-12.5 11.9v883.8h163.4l12.5-11.9M664.1 683.5l-12.5 11.8v150.8c0 12.7 4 24.9 11.2 34.2a41.5 41.5 0 0 0 32.7 16.8h30.7c12.5 0 24.4-6.1 32.7-16.8 2.7-3.5 4.9-7.3 6.6-11.4"/><path d="M695.5 68.7a41.5 41.5 0 0 0-32.7 16.8 56.5 56.5 0 0 0-11.2 34.2v296.9c0 12.7 4 24.9 11.2 34.2a41.5 41.5 0 0 0 32.7 16.8H726c1.3.6 4.1 4.5 4.1 10.8v367.8c0 6.2-2.8 10.1-4.1 10.8"/><path d="M695.7 109H726c1.3.6 4.1 4.5 4.1 10.8v129.9h39.5l9.2-11.7M829.5 49.9H965l11.9-11.4"/><path d="M663.7 1.9l-12.4 11.8v36.2h138.2v847.6h38.2l10.8-10.2M1130.3 1.9L1118 13.6v883.8h38.6l10.3-9.7M997.6 1.8l-12.4 11.9v883.9h46.7a67.9 67.9 0 0 0 67.6-68m-67.7-780.7a27.8 27.8 0 0 1 27.6 27.8v752.9a27.8 27.8 0 0 1-27.6 27.8M1214.7 11.6a56.1 56.1 0 0 0-37.6 53.1v775.5a56 56 0 0 0 55.7 56.1h.2a58.7 58.7 0 0 0 58.4-58.8m-67-786.1c2.4-1.6 5.4-2.5 8.5-2.5h.2c10.2 0 18.4 8.4 18.4 18.5v770c0 10.3-8.3 18.5-18.4 18.5h-.2M207.8 1.9l-12.5 11.8V838c0 10.2-8.4 18.4-18.7 18.4"/><path d="M130.4 60.9L118 72.5v765.4a58.7 58.7 0 0 0 117.4 0M334.3 1.8L322 13.5v824.9h106.4l12.6-11.9M502.5 1.8L490 13.6v460.2c0 10.2-8.4 18.5-18.7 18.5M425 1.8l-12.4 11.8v460.1a58.8 58.8 0 0 0 38.7 55.3v368.4h38.1l10.9-10.1M938.4 60.9L926 72.7v765.8c0 10.2-8.4 18.4-18.7 18.4"/><path d="M861.1 60.9l-12.5 11.9v765.7a58.7 58.7 0 1 0 117.4 0M10.3 896.7l13.7-13"/></g><g fill="none" stroke="#60BD43" stroke-width="40" stroke-miterlimit="10"><path d="M40.9 886.7V19.6h127.3M40.9 362.6h67.9M295.8 0v867.3h146.9"/><path d="M352.6 0v808.2h90.1M482.1 889.2V502.4M760.8 239.6V109.7c0-17-10.7-30.9-23.9-30.9h-30.7c-13.2 0-23.9 13.8-23.9 30.9v296.9c0 17 10.7 30.9 23.9 30.9h30.7c13.2 0 23.9 13.8 23.9 30.9v367.8c0 17-10.7 30.9-23.9 30.9h-30.7c-13.2 0-23.9-13.8-23.9-30.9V681.7M1419.5 180.5V50.6c0-17-10.7-30.9-23.9-30.9h-30.7c-13.2 0-23.9 13.8-23.9 30.9v356c0 17 10.7 30.9 23.9 30.9h30.7c13.2 0 23.9 13.8 23.9 30.9v367.8c0 17-10.7 30.9-23.9 30.9h-30.7c-13.2 0-23.9-13.8-23.9-30.9V681.7M661.9 20.2h316.7M820.2 19.7v869.4M1148.6 0v889.5M1042.6 867.4h-26.7V20.1h26.7a47.7 47.7 0 0 1 47.6 47.8v751.7a47.8 47.8 0 0 1-47.6 47.8zM1243.7 866h-.2a35.9 35.9 0 0 1-35.7-36V54.6a36 36 0 0 1 35.7-36h.2a38.5 38.5 0 0 1 38.4 38.7v769.9a38.6 38.6 0 0 1-38.4 38.8zM956.7 59.1v769.3a38.6 38.6 0 1 1-77.4 0V59.1M520.7 0v463.7a38.7 38.7 0 0 1-77.4 0V0M226.1 0v827.8a38.6 38.6 0 1 1-77.4 0V59.1"/></g></svg>
