<svg xmlns="http://www.w3.org/2000/svg" viewBox="0 0 495 438"><path fill="none" stroke="#EFF1C9" stroke-width="2" stroke-linecap="round" stroke-linejoin="round" stroke-miterlimit="10" d="M157.413 98.613C137.39 99.36 96.087 151 96.087 220.738c0 90.51-9.693 134.096-36.753 134.096-17.747 0-30.412-7.285-30.412-32.256 0-10.637 9.14-21.014 18.018-21.014 9.524 0 12.162 3.178 12.162 6.107"/><path fill="none" stroke="#EFF1C9" stroke-width="2" stroke-linecap="round" stroke-linejoin="round" stroke-miterlimit="10" d="M358.797 70.224c4.973.17 14.61 4.167 14.61 20.372 0 20.186-38.148 26.46-56.285 26.46-57.825 0-138.162-18.443-159.71-18.443-104.364 0-151.377 57.7-151.377 115.115 0 21.443 15.02 50.938 46.965 50.938m3.58-48.03c37.812-27.47 90.02-42.94 100.833-46.68"/><path fill="none" stroke="#EFF1C9" stroke-width="2" stroke-linecap="round" stroke-linejoin="round" stroke-miterlimit="10" d="M119.91 224.498c7.726 7.725 46.09-7.935 46.09-20.296 0-6.198-6.195-9.626-10.42-9.626-8.98 0-24.33 9.425-24.33 31.675 0 12.5 7.96 21.31 18.333 21.31 26.55 0 39.532-59.105 46.597-79.626 6.267-18.2 6.058-39.415.57-39.415-14.013 0-16.18 26.97-16.18 56.983 0 37.835 6.53 46.717 7.633 49.13-3.228-12.024-4.576-22.998-3.665-30.51.668-5.51 12.46-29.59 24.71-29.59 7.033 0 13.5 7.97 13.5 21.184 0 14.537-12 34.037-18.993 34.037-3.566 0-7.48-2.25-7.48-8.685 0-10.815 22.754-25.522 27.72-32.065 6.548-8.628 22.61-21.5 22.61-32.747 0-5.752-4.357-9.058-9.63-9.058-6.736 0-11.475 10.232-11.475 17.292 0 19.514 23.18 15.278 29.167 3.563-5.987 7.64-20.67 50.112-5.17 50.112 22.25 0 27.052-55.118 31.216-55.118 3.758 0-19.925 48.56 1.432 48.56 25.21 0 23.076-40.567 27.896-53.174-2.336 12.092-10.162 48.605-2.83 48.605 9.544 0 15.29-65.426 53.692-52.027C329.607 141.485 301.216 204 336.832 204c16.955 0 38.566-51.5 30.835-51.5-7.442 0-18.12 15.917-18.12 27.584 0 13.5 3.273 21.286 12.273 21.286 11.303 0 34.43-46.62 34.43-58.098 0-4.466-1.375-8.964-6.625-8.964-8.057 0-12.15 7.43-12.15 11.063 0 7.61 6.37 11.12 12.416 11.12 5.527 0 13.613-2.863 15.998-4.776-4.726 7.445-24.2 47.048-9.95 47.048 11.9 0 28.92-46.46 33.474-46.46 3.68 0-20.677 46.542-1.905 46.542 25.475 0 34.028-21.942 34.028-38.174 0-5.53-.938-6.753-2.354-6.752-9.04 0-42.646 122.835-4.543 122.835 9.766 0 20.81-7.25 20.81-18.573 0-6.86-5.38-16.176-14.67-16.176C410.25 242 356.75 264 318 264c-4.99 0-35 .5-25.375-27.375"/><circle fill="none" stroke="#EFF1C9" stroke-width="2" stroke-linecap="round" stroke-linejoin="round" stroke-miterlimit="10" cx="200.525" cy="55.84" r="14.938"/><path fill="none" stroke="#EFF1C9" stroke-width="2" stroke-linecap="round" stroke-linejoin="round" stroke-miterlimit="10" d="M222.913 41.33v28.894m0-29.024s16.017-3.438 16.017 7-16.017 8.472-16.017 8.472M273.03 41.205v29.24m0-29.24l20.028 29.24v-29.24"/><path fill="none" stroke="#EFF1C9" stroke-width="2" stroke-miterlimit="10" d="M320.307 42.714s-3.164-1.582-7.183-1.582c-4.992 0-8.522 2.312-8.522 6.938 0 7.428 15.705 6.774 15.705 15.297 0 5.29-3.676 7.247-7.183 7.247-2.804 0-5.99-.396-8.644-1.97"/><path fill="none" stroke="#EFF1C9" stroke-width="2" stroke-linecap="round" stroke-linejoin="round" stroke-miterlimit="10" d="M248.89 41.205v29.24h15.044m-15.043-15.45h12.018m-12.017-13.79h15.02"/><g><path fill="none" stroke="#EFF1C9" stroke-width="2" stroke-linecap="round" stroke-linejoin="round" stroke-miterlimit="10" d="M151.38 320.943c0-8.778 5.292-24.978 23.07-24.978 16.642 0 29.107 9.452 29.107 26.475 0 25.72-44.085 36.25-57.095 60.833h58.245m10.697-87.306h61.272l-55.99 105.523m-74.224 0h58.246m94.43-62h61.47m-64.006-43.523h30.803m-15.4 0v33.12m26.25-33.12v32.12m0-15.45h19.35m.002-16.67v32.12"/></g></svg>