<svg xmlns="http://www.w3.org/2000/svg" width="55.31" height="74.1" viewBox="0 0 55.31 74.1">
  <defs>
    <style>
      .a {
        fill: #092a4f;
      }
    </style>
  </defs>
  <title>Marker</title>
  <path class="a" d="M0,27.62A27.23,27.23,0,0,1,2.19,16.88,27.07,27.07,0,0,1,16.88,2.19,26.87,26.87,0,0,1,27.62,0,26.6,26.6,0,0,1,38.4,2.19,27.36,27.36,0,0,1,47.19,8a26.93,26.93,0,0,1,5.94,8.83,27.47,27.47,0,0,1,0,21.48,29.84,29.84,0,0,1-2.89,5.23L32,71.37q-1.8,2.73-4.3,2.73t-4.34-2.73L5.08,43.59a24.62,24.62,0,0,1-2.89-5.23A27.23,27.23,0,0,1,0,27.62Zm17.38,0A10.27,10.27,0,0,0,27.62,37.93a9.8,9.8,0,0,0,7.3-3,9.74,9.74,0,0,0,3-7.27,9.9,9.9,0,0,0-3-7.27,9.8,9.8,0,0,0-7.3-3,9.92,9.92,0,0,0-7.27,3A10.05,10.05,0,0,0,17.38,27.62Z"/>
</svg>
