<?xml version="1.0" encoding="UTF-8"?>
<svg width="248px" height="346px" viewBox="0 0 248 346" version="1.1" xmlns="http://www.w3.org/2000/svg" xmlns:xlink="http://www.w3.org/1999/xlink">
    <!-- Generator: Sketch 43.2 (39069) - http://www.bohemiancoding.com/sketch -->
    <title>Page 1</title>
    <desc>Created with Sketch.</desc>
    <defs>
        <polygon id="path-1" points="0 346 0 0 248 0 248 346"></polygon>
        <polygon id="path-3" points="0 346 248 346 248 0 0 0"></polygon>
    </defs>
    <g id="zรทรทรทรท" stroke="none" stroke-width="1" fill="none" fill-rule="evenodd">
        <g id="About" transform="translate(-713.000000, -1605.000000)">
            <g id="Page-1" transform="translate(713.000000, 1605.000000)">
                <g id="Group-3">
                    <mask id="mask-2" fill="white">
                        <use xlink:href="#path-1"></use>
                    </mask>
                    <g id="Clip-2"></g>
                    <path d="M230.1624,346 L17.8374,346 C7.9864,346 -0.0006,338.014 -0.0006,328.162 L-0.0006,17.838 C-0.0006,7.986 7.9864,0 17.8374,0 L230.1624,0 C240.0144,0 248.0004,7.986 248.0004,17.838 L248.0004,328.162 C248.0004,338.014 240.0144,346 230.1624,346" id="Fill-1" fill="#FFFFFF" mask="url(#mask-2)"></path>
                </g>
                <mask id="mask-4" fill="white">
                    <use xlink:href="#path-3"></use>
                </mask>
                <g id="Clip-5"></g>
                <polygon id="Fill-4" fill="#7BD85E" mask="url(#mask-4)" points="16.5 314 231.5 314 231.5 22 16.5 22"></polygon>
                <path d="M124.0003,336 L124.0003,336 C120.6863,336 118.0003,333.313 118.0003,330 C118.0003,326.687 120.6863,324 124.0003,324 C127.3133,324 130.0003,326.687 130.0003,330 C130.0003,333.313 127.3133,336 124.0003,336" id="Fill-6" fill="#7BD85E" mask="url(#mask-4)"></path>
            </g>
        </g>
    </g>
</svg>