<svg id="Lager_1" data-name="Lager 1" xmlns="http://www.w3.org/2000/svg" width="999.8" height="333.48" viewBox="0 0 999.8 333.48"><defs><style>.cls-1{fill:#ae5afd;}.cls-2{fill:#ffffff;}.cls-3{font-size:45.12px;fill:#ffffff;font-family:LILIRUN;}</style></defs><title>Namnlöst-1</title><rect class="cls-1" x="1.22" y="1.53" width="998" height="331"/><path class="cls-2" d="M998.93,332c0,1.4,0,.61,0-3.25l0-2.74Z" transform="translate(0.22 0.53)"/><path class="cls-2" d="M999,306.06c0-4.53-.09-9.76-0.14-6.83L999,309.65c0,3.86,0,6.73,0,6.08,0,1.37,0,6,0,8.07,0-5,0-11.38,0-18A2.4,2.4,0,1,1,999,306.06Z" transform="translate(0.22 0.53)"/><path class="cls-2" d="M927.12,0.63l2.43,0Z" transform="translate(0.22 0.53)"/><path class="cls-2" d="M693.57,0.36c1.78,0,2.52,0,2.61-.07A24.18,24.18,0,0,0,693.57.36Z" transform="translate(0.22 0.53)"/><path class="cls-2" d="M653.7,0l2.35,0C655.15,0,654.25,0,653.7,0Z" transform="translate(0.22 0.53)"/><path class="cls-2" d="M927.12,0.63l-6.24-.09C920.45,0.63,924.08.61,927.12,0.63Z" transform="translate(0.22 0.53)"/><path class="cls-2" d="M998.76,254.08l0,3.39,0-3.18Z" transform="translate(0.22 0.53)"/><path class="cls-2" d="M999.49,32.08V34l0.09,1.58Z" transform="translate(0.22 0.53)"/><path class="cls-2" d="M999.43,111.09a19.62,19.62,0,0,0-.21-3.09c0.06,1,.09,2.33.1,3.9A2.15,2.15,0,0,0,999.43,111.09Z" transform="translate(0.22 0.53)"/><path class="cls-2" d="M999.09,236.37v0Z" transform="translate(0.22 0.53)"/><path class="cls-2" d="M973.52,0.42A5.32,5.32,0,0,0,972.8.34,2.94,2.94,0,0,0,973.52.42Z" transform="translate(0.22 0.53)"/><path class="cls-2" d="M907.41,331.79c-0.06,0,0,0,0,0C907.88,331.79,908,331.79,907.41,331.79Z" transform="translate(0.22 0.53)"/><path class="cls-2" d="M999,332h-1.27l-0.27,0Z" transform="translate(0.22 0.53)"/><path class="cls-2" d="M580.73-.42H581C583-.45,581.88-0.44,580.73-0.42Z" transform="translate(0.22 0.53)"/><path class="cls-2" d="M0.11,91.2c0.19-7.59.25,12.35,0.46,0.93C0.49,93.19.23,81.74,0.11,91.2Z" transform="translate(0.22 0.53)"/><path class="cls-2" d="M998.76,252c0-1.07,0-2.15,0-3.24V252Z" transform="translate(0.22 0.53)"/><path class="cls-2" d="M0.57,92.12h0l0-1.18Z" transform="translate(0.22 0.53)"/><path class="cls-2" d="M412.58-.28c0.34,0.05,1,.09,1.71.13A11.81,11.81,0,0,0,412.58-.28Z" transform="translate(0.22 0.53)"/><path class="cls-2" d="M537.84,0.16l-3.1,0Z" transform="translate(0.22 0.53)"/><path class="cls-2" d="M347.54,0.15c-1.69,0-2.26-.06-4.56,0l0.7,0C344.52,0.12,345.62.1,347.54,0.15Z" transform="translate(0.22 0.53)"/><path class="cls-2" d="M279.85,0.16l1.25,0.06,2.15,0Z" transform="translate(0.22 0.53)"/><path class="cls-2" d="M701.68,331.65l3.13,0.08C703.76,331.67,713.71,331.66,701.68,331.65Z" transform="translate(0.22 0.53)"/><path class="cls-2" d="M998.8,254c0-.4,0-1,0-2v2.25A0.75,0.75,0,1,0,998.8,254Z" transform="translate(0.22 0.53)"/><path class="cls-2" d="M344.79,2.5L334,2.45Z" transform="translate(0.22 0.53)"/><path class="cls-2" d="M216,331.36l2.47,0C217.55,331.34,216.67,331.34,216,331.36Z" transform="translate(0.22 0.53)"/><path class="cls-2" d="M302.12,2.48c-1.92-.1-4-0.17-6.06-0.21-0.45,0-1,0-1.25.08Z" transform="translate(0.22 0.53)"/><path class="cls-2" d="M704.83,331.73h0Z" transform="translate(0.22 0.53)"/><path class="cls-2" d="M775.67,331.61c-10.25,0-4.81.09-7,.14-12.23,0-5.66-.07-9.82-0.12l-19.19.1a1.72,1.72,0,1,1-.23,0l-33.38.09-1.23,0c1.52,0.05,1.76.11,1.45,0.15-4.59,0-8.53.07-10.25,0,2.82,0,3.05,0,4.37,0l-4.81,0c-2.17-.05-0.52-0.06,1.66-0.07h4.45l0.46,0c-9.39,0-20.33.11-27.52,0.08-1.5-.11,16.82,0,7.22-0.12l11.13,0c-8.51-.17,6.76,0-1.05-0.16h-31c-3.29.06,1.09,0.09-2.2,0.15-20.77.1-16.35-.29-31.61-0.15-4,.07-5.48.22-16.36,0.14l3.71-.13c-14.18,0-8.1.19-22.95,0.09,2.64-.05,11.15,0,9-0.06-9.62-.11-6.81.07-14.2,0.07l-1.53-.12-48.45.11c0.93,0,3.79-.08-0.12-0.12-21.09.05-45,0-65.36-.15l-7.77.12c-1.81,0-3.35-.06-1.4-0.08-7.93-.05-0.41.08-4.22,0.13-4.51,0-6-.08-3.1-0.11-14,.1-39.85.22-54.59,0.07l2.87,0c-11.48-.06-13,0.27-23.6.14l2,0c-24.91-.07-52.44,0-71.45-0.19-3.61.22-24.66-.11-26.26,0.2-14.22-.16-10.15-0.21-30.18-0.33-5.35,0-8,.19-14.59.23l-0.16-.17-9,.17-4.78-.21-6.2,0c2.47,0,5.25.08,4.88,0.13-4.85,0-10.75,0-15.48,0l-5.92-.09c-1.49,0-2.41-.06-2.47-0.08l-22.93.14c0.51-.07,4.35-0.09,7.38-0.14-12.24.17-2.22-.19-13.44,0,1.5,0-.81.11-1.07,0.14-5.59-.11-18.32-0.12-27.73-0.08l1.81-.13-54.94,0c6.85,0.07,5.27.29-.32,0.31l-2.24-.2c-3.61.12,5.85,0.08-1.57,0.23-7.13,0-4.79-.23-0.7-0.3l-8.67.07a17.37,17.37,0,0,1,2.05-.17c-3.56.13-15-.22-20.09,0l-0.49-.06-43.27.05c-0.3.19-6.38,0.14-11,.29H1.7c-0.11,0-.09-0.06-0.09-0.14v-2.3l0-4.46,0.07-9.25,0.08-19.81c-0.09-9.67-.16-2.82-0.27-7.17,0.17-.71.17-14.46,0.29-7.33,0-16.52,0-21.1-.16-42-0.08,2.27-.11,4.82-0.17,3.5,0-3.79.08-8.62,0.17-8.08l0,1c-0.27-23.45.57-54.12,0.19-72.79l0,1-0.2-19.36c0-8.91.14,5.34,0.26-1.25-0.31-20.89.06-33-.15-50.2,0.59-13.31,0-47.24.37-65.21L2,28.63C1.9,24,2.12,23,2.15,19.59c-0.11.49-.13,5-0.2,2.15l0-19.83L51.3,2.16,101.8,2.5c14.75,0.07,8.37-.85,27-0.43l-5.28.31c29.77-.35,60.88.08,90-0.23-1.74.08-1.79,0.18-4.63,0.17,3.08,0.12,8.77.13,13.7,0.08,2.47,0,4.75-.06,6.41-0.11a22,22,0,0,0,2.75-.15c4.54,0,1.05.18,3.85,0.29,6.18,0.15,15.5-.3,18.78-0.06a27.76,27.76,0,0,1-2.87.1c4-.12,18.75,0,14.9-0.25,10.94,0.14,20.93-.12,29.65.06,5.69-.32,18.73.16,20.53-0.3-0.78.48,19.18,0.39,26.1,0.17-2.32.14,6,.15,3.3,0.35,7.89,0,15.13-.09,13.75-0.34,14.54,0.58,29.23-.46,37.42.28C420.6,2.18,442.3,2,463.39,1.89c-0.76.48-23.31,0.05-22.41,0.55,20-.2,31.55-0.61,51.39-0.5,5.14,0.06-2.92.21-4.65,0.29,20-.2,38.65,0,56.44-0.23a11.13,11.13,0,0,1-1.23.07l-2.55.06c3.51,0,8.15.07,7.76-.15L544.72,2c-5.6-.31,13.92-0.65,14.55-0.82-5.95.61,17.57,0.15,8.12,0.93,2.31,0,5.2-.14,4.67-0.29,3.42,0,4.51.12,1,.29,12.56-.12,8.1-0.34,19.47-0.34,0,0.1-2.34.14-3.51,0.26,5.76-.2,11.55-0.4,21.16-0.32-0.58.06,0.54,0.14-2.33,0.14,16.51,0,28.14-.53,46.25-0.35-5.34.44,6.16,0.14,7.12,0.51L671,1.95l-3.91-.18c8.53,0,16.07-.27,23.41-0.15l-6.34.15,16-.08-9-.14c8.63-.19-0.93-0.46,10.43-0.36-2.31,0,8.53,0,13,.22h0c4.22-.12,8.56-0.24,14.87-0.15,1.64,0.11-1.32.4-.25,0.47,4.16-.3,20-0.09,25.25-0.41-1.76.07-1.85,0.26-1.27,0.3l3.5-.24c4,0.08,4.53.11,3.89,0.26,11.89,0-3.78-.44,10.33-0.26-1.11,0-.58.05-2.89,0.09,14.17,0.09,27.38-.16,40.4,0,3.84,0.34-11.38.09-7,.37,18.77-.08,38.88-0.43,57-0.35l-3.39,0c2.52-.46,13.53.22,22.72,0-2.25,0-2.95.25-2.34,0.2,12.44,0.06,25.44-.13,44.29-0.27l-2.34.11c7.33,0.09,19.31,0,27.23.08,2.35-.11,6.88-0.09,4.13-0.24,12.21,0.29,23.86.2,35.16,0.1l8.42-.07,4.17,0h1.91a2.31,2.31,0,0,1,.37,0V2.57c0,5.51,0,11-.13,16.37,0-2.59-.09-6.18-0.09-4.11l0.1,18.46c0.15-1.46.09-2.42,0.21-6.3,0.09,2.34.16,7.55,0.16,12.12-0.1-8.3-.25.07-0.32,3.66,0-.6.1,0.63,0.14,0.32-0.26,9.64.3,1.62,0.13,14.78l-0.08-.7c0,4.93.14,9.47,0.12,14.78-0.16,2.2-.08-5.24-0.21-5.58,0,7.46.31,14.72,0.15,21.48l-0.09-10.9c-0.18,7.35-.13,8.21-0.16,13.67V90.08l-0.07,12.63,0-3.22c0.4,9.34.09,19,.33,31.59-0.23-12.23-.13-2-0.29-3,0,3.21-.08,8.1-0.13,6.7,0.13,5.94-.08,9.93.11,18.32,0,0.38,0,6.36-.11,5,0,7.73.08-1.83,0.14-1.18,0.16,11.91-.14,28,0.08,45.14L999,233.37c-0.05,4.63-.12-3.79-0.12-3.79,0,7.47,0,13.09,0,20.12,0-1.43,0,0-.08,2.19,0,5.65.1,3.78,0.07,11.22l-0.11-5.64,0.12,20.12c0,1.83-.07-4.16-0.1-6.59,0,7.74.07,20.06,0.12,22.45l0-5c0,2.82,0,1.45-.06-0.63-0.05-6.64,0-9.57,0-9.95l0,4.91c0.13-5,0-19.71,0-29.58l0.12,4.12-0.1-10.13c0-2.15.1-3.63,0.12,1.25,0.07-7.08,0-6.27,0-12.35a2.35,2.35,0,1,1,0,.25l0-6.92c0,1.36.1-1.15,0.08,3.1,0.1-12.42-.1-20,0-24.7v1c0-17.23-.11-1.67-0.26-14.59l0.31-8.7-0.13-1.69c0-1.78,0-5.29.07-4.64-0.09-6.61-.06,1.13-0.14-2.71,0.13-8.55-.06-23.59.17-25.52-0.11-3.07-.09,8.18-0.16-1,0.26-2.6,0-10.56.08-18.37,0.14,2.4.06,9.8,0.19,2-0.23-4.72.06-15.22,0-21.81-0.1-.15-0.12-3.74-0.12-8.67s0-11.2,0-16.73c0.07,0.7.13-20.82,0.22-31.11l0,0.3c-0.23-2-.18-12.61-0.23-20.34,0.15,0.3.2,1.69,0.26,5.88V34c-0.08-1.71-.12-4-0.14-8.69l0.18,1.83-0.08-14.92,0-8.12V0.73s0-.16,0-0.15h-1.65l-4.55,0c-0.7.19,9.9,0.51-3.26,0.63-0.49-.1-1-0.27,2.47-0.31-1.13,0-4,.08-6.29,0l5.26-.17c-5.67-.08-3,0.14-7.49.12,0.09-.14-3.35-0.1-2.7-0.22,1.16,0,4,.06,5.69,0-5.11,0-11.28-.12-13.33-0.23,0.45,0.08,0,.2-3.74.21-9.67,0-3.31-.18-9-0.26-2.34.1-8.51,0-8.67,0.21-2.83,0-3.35-.11-4.45-0.17-5,.1-23.38,0-17.74.26l1.28,0h-0.82c-16.4.23-34.08-.15-50.35-0.05l0-.08c-9.72.09-21.63,0-28.56,0.23-2.87,0-6.78-.16-5.55-0.26-7.43.06-8.26,0.16-19,0,7.47-.15-2.58-0.14,7.65-0.11-9.65-.08-11.84-0.23-22.2,0,3.53-.23-7.27-0.29-11.85-0.23l6.76,0.17c-5.16,0-9.67,0-14.25,0l2.48-.3c-19.75-.4-35.62.62-50.65,0C739.72,0.26,755.67.2,751,.46c-9.08,0-18.55-.51-21.39-0.51C717.16-.24,718,0.41,705,0.28c1.67,0.12,3.24.43-6.49,0.53-9.09,0-11.17-.49-5.44-0.58a23.84,23.84,0,0,1,3.14.07c2.94,0,6.79-.09,3.19-0.22l-1.18.12c-4.51-.12-17-0.12-14.08-0.31-6.87.11-2.94,0.19,2.15,0.25C674.61,0,668.05.13,656.05,0c1.91,0.07,3.67.21,1.77,0.21-17.6-.15-7.75.22-19.68,0.27C631.36,0.3,640.57,0,628.56.2c-7.33-.13-1.55-0.32,1.36-0.42C619,0,609.48-.38,603.23-0.43L609-.53c-3.45.06-6.27,0.05-9.14,0.05l3.29,0.25-4.38-.05a8.89,8.89,0,0,1-1.8-.1c-3.49.16,2.67,0.41-4.25,0.63C588.2,0.12,579,.38,577.42.05c14.19,0.12-1.57-.33,10.44-0.38-2.32,0-5.14,0-8.53,0-0.51,0,.48-0.07,1.41-0.09-13.57-.3-6.24.37-20.31,0.36,1.79-.18-3.26-0.35-5.56-0.31,5.67,0,2.71.31-2.49,0.45-9-.15-9.8.11-14.53,0.09l5.39,0.07c-1.83.19-6.34,0.16-12.63,0.22-0.54-.15,5.71-0.1,3.47-0.16-7,.33-15.78-0.34-25.51-0.12-4.51-.13-0.44-0.35-4.4-0.44-10.91.24-11.82-.26-23.29-0.06,3.3,0.25,3.88.19-4.19,0.44l18.85-.18-12.1.37c5.69,0,12-.16,15.42-0.11-5.76.21-5.17,0.14-2.45,0.35-7.79-.38-15.44.22-24.44,0l0.27-.63c-13.53-.28-24,0.32-41.61.16l5.65,0.11c-2.36.25-10.85,0-16.54,0.14,0.53-.21-3-0.29-5.46-0.42,0.29,0.16-12.86,0-14.46.41L392,0c-14.19-.11-16.19.6-29.83,0.53,4.11-.23-2.09-0.38,7-0.54h-6a15.3,15.3,0,0,0-2.68.11c-2.66-.13-12.63.28-16.81,0.09A76.4,76.4,0,0,1,336,.45c-0.56,0,0-.1,0-0.1s-8,.14-3.54.37c-14-.65-39.2,0-51.41-0.5l-30.93.16A5.78,5.78,0,0,1,251.9.3c-12.44-.18-7.65.58-21.81,0.38-7.23-.32,7.52-0.18,3-0.3-2-.66-17.09.09-26.62-0.28l2.31,0C201.51-.17,191,0.31,179.12.27c0,0,.58-0.06.07-0.1-8.14.33-23.55,0.44-35,.54,3.56-.25,5.2-0.13,3-0.38-5.13,0,1.5.4-8.74,0.47-3.33-.13-10.72-0.25-11.7-0.51l9.66,0c-4.95-.34-12.51,0-17.6,0l0.65-.15c-14.81.06-15,.43-30.93,0.41L90.21,0.6c-8.7.36-7.29-.19-16,0.07l-2.63-.35c-5.74.09-20.1,0.35-30.39,0.42C47.06,0.49,59.1.34,66.55,0.18c-5.69,0-19.33,0-22.3.22,2.29,0,5.18-.12,7.44-0.07-7,.28-16.16.41-27.5,0.41,0.66-.21-2.28-0.3-6.81-0.33l-17,0L0.29,9.5c0,2.53-.09,4.65-0.17,6.07C0.36,35.62,0,55.35.09,78.71c0.46-8.29,0,6.82.49,5.39,0,5.44,0,7.52,0,8L0.3,108.59c-0.13,3.91-.1-5.18-0.21-4.67,0,11.91-.19,5-0.31,12.88,0.16-1.62.24,4.14,0.18,10.93l0.21-9.56C0.42,134.82-.22,132.56,0,149.35L-0.11,144c0.09,8.61,0,31.77.38,40.21C0.22,185.77.1,187.79,0.06,184c0,20.58.4,45.82,0.19,61.81l-0.11-1.56c0,3.84.2,6.68,0.1,11.49,0-.25-0.1-1.55-0.11.23,0,2,.19,10.2.13,15.29l-0.12-4.35C0,287,.44,297.72.52,314.56a12.42,12.42,0,0,0-.19,2.57c-0.05,1.6-.09,3.82-0.12,6.28l-0.07,8v1.31a0.35,0.35,0,0,0,0,.2H3.91l3.28,0-0.27,0c23.38,0,39.71-.26,61.36-0.38,13.44,0.29,45.52.1,67.12,0.25-3.3,0,.54-0.21,4.38-0.23,5.07,0.05,14-.19,13.21.05h-1.81c3.82,0.23,14.24.16,22.37,0.16l1.34-.31c21.27,0.43,55.74-.18,67.35.19l16.58-.15-0.27.15h38.91l-3.58.11c9.92,0,12.52-.43,21.67-0.44l2.75,0.21c17.3,0,34.81.16,51.91,0a34.87,34.87,0,0,1-3.59.1c8.14,0,31.5.11,28.54-.16,0.05,0,1.19.07,3,.07l7.15,0,17-.13-1.45.13c7.89-.17,8.14-0.21,19.15-0.26,2.61,0,2.29.1-1.18,0.07,8.7,0.06,6.78-.12,17.32-0.06l-3.93.08c8.95,0,8.24,0,13.16-.13,5.63,0,17,0,18.29.13,1.21-.06,6.11-0.15,11.38-0.12a12.36,12.36,0,0,1-2.17.08c15,0.07,22.25-.14,32.54,0,0.21,0,.88.05,1.74,0.06H506.62c0,0.1,9.6.12,2,.26,7.71-.09,20.89-0.26,30.24-0.22l1.24,0h-1l5.92,0,7.75,0c1.11,0.08,11,0,15.8,0-0.4-.1,5.87-0.09,0-0.17,0.76,0-.9,0-4.09,0H550.85c3.78-.06,7.73-0.1,13,0l6.68-.17c6.55,0.14,19.18.21,20.94,0.3,14.62-.06,34.44-0.06,43.63-0.24,4.16,0,4.78,0,6.33.08l-6.55,0c8.31,0,24.62,0,26.6-.15,10.47,0-5.89.11,8.51,0.08l-1.94,0c28.31,0.16,46-.29,77.42-0.09-2.17,0-3.26,0-3.71,0H850.85c10,0,11.13,0,17.25-.07l2.17,0.06,10.47-.07c14.85,0,25.72.11,44.52,0l-2.43,0c6.75,0,21.39,0,20.26,0l4.85,0,0.21,0,16.59,0c12.86,0-2,.08,16.75.07,7,0,19.86-.06,17.25-0.07l-7.4,0h6.38c1.16,0,6.06-.09-9.6-0.14l-10.91,0-3.52,0h-3l-4.57,0-10.71,0c-1.3,0,4.81,0-2.39-.06-5,0,4.81.06-3.5,0.07-5.22,0-3.7-.06-9.82,0-0.86,0,.44,0,2.87,0l-17.25,0c-5.44,0-18.42,0-17.88-.07l-14.62.05c9.15-.08-18.75,0-16.33-0.12-6.77.08-24.47,0-36.47,0.06l3,0L830,331.7c-0.87.08-11.39,0.1-17.05,0.15-8.28-.09,5-0.1,2.43-0.18,0.42,0.07-14.38.06-11.57,0.12-6.33-.06-5.46,0-8.72-0.11-1.11.11-5.89,0-11.15,0.08-9.16-.06-2.36-0.11-12.42-0.08C766.72,331.64,775.67,331.61,775.67,331.61Zm-239.36.1h0Zm-20.12,0h8.73c0.71,0-.06.08-2.08,0.08C523.94,331.76,519.19,331.74,516.19,331.7Zm42.55,0.75c-3.18,0-4.25,0-4.69,0l5.57,0H560C559.7,332.42,559.35,332.44,558.74,332.45Z" transform="translate(0.22 0.53)"/><path class="cls-2" d="M564.47,332.31h1.31l-1.9,0-1.13,0h1.71Z" transform="translate(0.22 0.53)"/><path class="cls-2" d="M930,0.67h-0.42l0.89,0Z" transform="translate(0.22 0.53)"/><polygon class="cls-2" points="238.66 331.82 238.69 331.86 240.44 331.83 238.66 331.82"/><path class="cls-2" d="M998.64,42.76c0,0.21,0,.63,0,1.45C998.61,44.15,998.63,43.53,998.64,42.76Z" transform="translate(0.22 0.53)"/><path class="cls-2" d="M998.65,90.62l-0.05,6.77Z" transform="translate(0.22 0.53)"/><path class="cls-2" d="M998.61,127.41a6.91,6.91,0,0,0,.06.72v-0.07Z" transform="translate(0.22 0.53)"/><path class="cls-2" d="M540.38,2.13H539C535.63,2.21,537.89,2.18,540.38,2.13Z" transform="translate(0.22 0.53)"/><path class="cls-2" d="M714.48,1.41l-5.6.13A35.72,35.72,0,0,0,714.48,1.41Z" transform="translate(0.22 0.53)"/><path class="cls-2" d="M346,2.5h0Z" transform="translate(0.22 0.53)"/><path class="cls-2" d="M700.79,1.54c3.1,0.05,5.69,0,8.1,0C706.34,1.52,703.35,1.5,700.79,1.54Z" transform="translate(0.22 0.53)"/><path class="cls-2" d="M998.81,286.89v1.77a1.11,1.11,0,0,1,0,.21v-2Z" transform="translate(0.22 0.53)"/><path class="cls-2" d="M998.82,288.87v0Z" transform="translate(0.22 0.53)"/><path class="cls-2" d="M998.86,295l0-4.14Z" transform="translate(0.22 0.53)"/><path class="cls-2" d="M998.76,238.18l0-.56A4.09,4.09,0,0,0,998.76,238.18Z" transform="translate(0.22 0.53)"/><path class="cls-2" d="M998.73,223.38c0,3.53-.06,8.86,0,13.78l0,0.46C998.67,235.31,998.79,226.73,998.73,223.38Z" transform="translate(0.22 0.53)"/><path class="cls-2" d="M999.22,161.6l0,12.4c0-2.17.12-5,.12,0.62C999.47,159,999.19,177.85,999.22,161.6Z" transform="translate(0.22 0.53)"/><path class="cls-2" d="M999.34,123.13c0,6.66.08-.08,0.12,0.27C999.41,119.18,999.4,118.16,999.34,123.13Z" transform="translate(0.22 0.53)"/><path class="cls-2" d="M843.2,0.44l0.67-.22C838.73,0.24,843.82.3,843.2,0.44Z" transform="translate(0.22 0.53)"/><polygon class="cls-2" points="790.29 2.15 795.29 2.29 797.67 2.08 790.29 2.15"/><polygon class="cls-2" points="758.91 0.45 761.15 0.42 752.58 0.5 758.91 0.45"/><path class="cls-2" d="M291.89-.1l1.55,0.33C296.91,0.17,297.64-.2,291.89-0.1Z" transform="translate(0.22 0.53)"/><path class="cls-2" d="M90.37,0.33C88.18,0.19,82.51.1,79,.25,83.55,0.26,88.07.37,90.37,0.33Z" transform="translate(0.22 0.53)"/><polygon class="cls-2" points="185.21 333.24 181.16 333.3 188.8 333.25 185.21 333.24"/><line class="cls-1" x1="1.22" y1="332.53" x2="999.22" y2="1.53"/><path class="cls-2" d="M999,1.06c0.52-.18.22-0.1-1.23,0.38l-1,.38Z" transform="translate(0.22 0.53)"/><path class="cls-2" d="M989.26,4.24c-1.69.59-3.64,1.3-2.52,1l3.87-1.4c1.45-.49,2.53-0.83,2.29-0.73,0.51-.18,2.25-0.74,3-1-1.89.6-4.28,1.38-6.76,2.25C988.63,4.48,989.14,4.29,989.26,4.24Z" transform="translate(0.22 0.53)"/><path class="cls-2" d="M847.62,50.82l0.92-.27Z" transform="translate(0.22 0.53)"/><path class="cls-2" d="M759.84,79.65a4.15,4.15,0,0,0,1-.39A3.84,3.84,0,0,0,759.84,79.65Z" transform="translate(0.22 0.53)"/><path class="cls-2" d="M744.75,84.26l0.89-.27A5.45,5.45,0,0,0,744.75,84.26Z" transform="translate(0.22 0.53)"/><path class="cls-2" d="M847.62,50.82l-2.37.7A14.86,14.86,0,0,0,847.62,50.82Z" transform="translate(0.22 0.53)"/><path class="cls-2" d="M969.82,10.93l1.26-.45-1.19.41Z" transform="translate(0.22 0.53)"/><path class="cls-2" d="M886.23,37.89l0.71-.23,0.56-.28Z" transform="translate(0.22 0.53)"/><path class="cls-2" d="M915.92,28.1a3.24,3.24,0,0,0-1.09.59,11.66,11.66,0,0,1,1.43-.58A0.43,0.43,0,0,0,915.92,28.1Z" transform="translate(0.22 0.53)"/><path class="cls-2" d="M963.07,12.82l0.83-.29Z" transform="translate(0.22 0.53)"/><path class="cls-2" d="M865,44.84a0.92,0.92,0,0,0-.29,0A0.53,0.53,0,0,0,865,44.84Z" transform="translate(0.22 0.53)"/><path class="cls-2" d="M35.46,320.8s0,0,0,0C35.28,320.85,35.23,320.87,35.46,320.8Z" transform="translate(0.22 0.53)"/><path class="cls-2" d="M1,332l0.48-.16,0.1,0Z" transform="translate(0.22 0.53)"/><path class="cls-2" d="M717.22,93l0.12,0C718.06,92.66,717.65,92.8,717.22,93Z" transform="translate(0.22 0.53)"/><path class="cls-2" d="M465.85,176.89c2.91-.77-4.56,1.78-0.2.55C465.22,177.49,469.44,175.83,465.85,176.89Z" transform="translate(0.22 0.53)"/><path class="cls-2" d="M969,11.18l-1.21.41Z" transform="translate(0.22 0.53)"/><path class="cls-2" d="M465.65,177.44h0l0.45-.13Z" transform="translate(0.22 0.53)"/><path class="cls-2" d="M654.15,114.08a3.94,3.94,0,0,0,.68-0.09A2,2,0,0,0,654.15,114.08Z" transform="translate(0.22 0.53)"/><path class="cls-2" d="M701.31,98.86l-1.18.35C700.6,99.08,701,99,701.31,98.86Z" transform="translate(0.22 0.53)"/><path class="cls-2" d="M629.86,122.58a17.34,17.34,0,0,0-1.72.55l0.27-.05A8.63,8.63,0,0,1,629.86,122.58Z" transform="translate(0.22 0.53)"/><path class="cls-2" d="M604.46,131l0.49-.1,0.8-.28Z" transform="translate(0.22 0.53)"/><path class="cls-2" d="M112.74,295.3c-0.56.16-.92,0.25-1.2,0.32C112,295.55,108.23,296.8,112.74,295.3Z" transform="translate(0.22 0.53)"/><path class="cls-2" d="M969.79,10.9a7.47,7.47,0,0,1-.74.29l0.84-.29C970,10.86,970,10.84,969.79,10.9Z" transform="translate(0.22 0.53)"/><path class="cls-2" d="M629.53,125l-4.05,1.29C626.61,126,628.08,125.5,629.53,125Z" transform="translate(0.22 0.53)"/><path class="cls-2" d="M295.18,235.11l-0.92.32C294.62,235.32,294.95,235.2,295.18,235.11Z" transform="translate(0.22 0.53)"/><path class="cls-2" d="M613.49,130.3c-0.75.15-1.53,0.35-2.33,0.57a4.47,4.47,0,0,0-.45.22Z" transform="translate(0.22 0.53)"/><path class="cls-2" d="M111.54,295.62h0Z" transform="translate(0.22 0.53)"/><path class="cls-2" d="M85,304.56c3.85-1.26,1.78-.68,2.58-1a18.15,18.15,0,0,1,3.73-1.11c2.86-1,5-1.78,7.18-2.48,0.16,0,.58-0.17.1,0,3-1.08,9-3,12.51-4.24l0.47-.13c-0.59.14-.69,0.12-0.59,0,1.72-.57,3.18-1.12,3.85-1.27-1.06.35-1.14,0.4-1.63,0.59l1.8-.63c1.66-.44-2.46.85-2.43,0.92,3.52-1.19,7.6-2.64,10.31-3.5,0.6-.09-6.31,2.12-2.67,1L116,294.13c3.25-.9-2.54.83,0.45,0l11.64-3.86c1.22-.46-0.44.05,0.78-0.41,7.77-2.68,6.23-1.76,11.92-3.79a58.83,58.83,0,0,1,6.1-2.17l-1.35.59c5.33-1.74,3-1.19,8.59-2.94-1,.38-4.17,1.42-3.36,1.17,3.65-1.09,2.53-.92,5.31-1.83l0.61-.07,18.16-6.14c-0.34.15-1.4,0.55,0.08,0.1,7.9-2.68,16.92-5.57,24.59-8l2.88-1.08c0.68-.22,1.28-0.36.55-0.1,3-.94.13-0.13,1.54-0.65,1.69-.57,2.26-0.67,1.2-0.28,5.22-1.83,14.89-5.17,20.48-6.86l-1.07.39c4.33-1.37,4.78-1.87,8.82-3.07l-0.76.28c9.38-3,19.67-6.58,26.88-8.72,1.29-.66,9.29-3,9.8-3.46,5.39-1.62,3.88-1.06,11.44-3.44,2-.65,2.93-1.18,5.41-2l0.11,0.14,3.32-1.28,1.86-.4,2.32-.81a9,9,0,0,1-1.87.48c1.81-.64,4-1.34,5.83-1.88l2.25-.65a6.54,6.54,0,0,1,1-.23l8.57-3c-0.17.13-1.6,0.63-2.73,1.05,4.54-1.69.89-.1,5.06-1.64-0.58.15,0.27-.2,0.36-0.27,2.13-.59,6.92-2.16,10.44-3.38l-0.64.34,20.62-6.86c-2.59.79-2.07,0.38,0-.34L344,219c1.32-.57-2.22.65,0.52-0.41,2.69-.86,1.87-0.37.36,0.2l3.23-1.14a2.91,2.91,0,0,1-.72.42c1.3-.56,5.69-1.66,7.54-2.5h0.2l16.23-5.44a38.78,38.78,0,0,1,4-1.65c4.31-1.36,9.12-2.79,14.28-4.52,3.6-1.29,1-.5,2.61-1.15,0.32,0.08,5.48-1.64,2.84-.64,6.2-2.08,7.91-2.65,15.71-5.38-0.87.21-1.84,0.5-1.37,0.28a14.11,14.11,0,0,1,3.09-.85l-0.37.14c8.72-3.18,20.5-6.2,27.39-8.89l-0.39.15,7.21-2.6c3.36-1.07-2,.8.55,0.09,7.74-2.9,12.41-4,18.8-6.39,5.18-1.1,17.73-5.9,24.6-7.77H490a22.77,22.77,0,0,1,3.43-1c-0.22,0-1.93.5-.87,0.07,14.72-5,30.57-9.88,45.77-14.74,5.56-1.78,2.9-1.78,10-3.74l-1.89.92c11.08-4,22.88-7.52,33.73-11.41a10.07,10.07,0,0,1-1.69.72,58.63,58.63,0,0,0,8.54-3c1.71-.54.45,0,1.53-0.23,2.36-.64,5.73-2.19,7-2.38a4.82,4.82,0,0,1-1,.44c1.48-.6,7.05-2.29,5.52-2.07,4.15-1.23,7.82-2.7,11.15-3.63,2-1,7.08-2.18,7.63-2.81-0.16.52,7.32-2,9.85-3.09-0.83.42,2.3-.61,1.34-0.1,3-1,5.65-2,5.06-2,5.64-1.28,10.84-4,14.14-4.39,8.73-3.14,16.82-6,24.71-8.73-0.14.54-8.74,2.94-8.25,3.3,7.45-2.67,11.66-4.49,19.15-6.85,1.95-.58-1,0.56-1.66.85,7.44-2.67,14.53-4.77,21.12-7.23a9.89,9.89,0,0,1-1.38.59c1.31-.45,3.08-1,2.87-1.1l-1.26.48c-2.2.4,5-2.35,5.21-2.58-2,1.32,6.64-2,3.34-.14,0.85-.33,1.91-0.78,1.66-0.85,1.3-.39,1.73-0.44.48,0.14,4.68-1.68,2.93-1.33,7.2-2.75a9.61,9.61,0,0,1-1.24.69A67,67,0,0,1,729,91.35c-0.2.13,0.25,0.07-.83,0.42,6.19-2.09,10.4-4,17.26-6.09-1.87,1.08,2.36-.63,2.84-0.4L751.86,84l-1.52.32c3.2-1.06,5.95-2.26,8.74-3.06l-2.33.94,6-2.06-3.44,1c3.18-1.26-.49-0.33,3.8-1.64-0.85.32,3.21-1.06,4.94-1.41h0a50.53,50.53,0,0,1,5.54-2c0.65-.1-0.37.54,0.05,0.48,1.47-.8,7.47-2.58,9.35-3.53-0.64.29-.61,0.48-0.38,0.44l1.24-.66c1.51-.42,1.74-0.46,1.54-0.24,4.48-1.44-1.56,0,3.8-1.53-0.41.16-.2,0.12-1.05,0.45,5.35-1.68,10.23-3.56,15.15-5.08,1.55-.16-4.24,1.5-2.5,1.22,7-2.41,14.46-5.25,21.31-7.44l-1.28.39c0.8-.75,5.15-1.48,8.53-2.83-0.83.31-1,.6-0.82,0.48,4.69-1.49,9.51-3.29,16.55-5.77l-0.84.4c2.78-.83,7.26-2.36,10.25-3.31,0.85-.39,2.55-0.94,1.47-0.74,9.35-2.51,17.39-6.11,25.67-8.38-1,.33-2.29.85-1.52,0.59l6.9-2.39a16.84,16.84,0,0,0-2.43.59c0.85-.38,2.78-1.1,4.5-1.67-3.08,1.13.1,0.22,1.48-.15-0.24,0,.2-0.17.08-0.18,3.7-1,.51-0.49,5.51-2l-0.24.16c1.84-.65,3.51-1.31,5.51-2,0.88-.12-1.94.73-2,0.9,2.8-.95,5.43-2.13,8-2.82l-4.06,1.45c2.82-.74,3.12-0.9,5.18-1.55l-0.2.06L913,29.95l-1.22.36c3.38-1.54,7.11-2.45,11.76-4.25-4.52,1.74-.72.38-1,0.64a18.87,18.87,0,0,1,2.56-.71c2.19-.86,3.75-1.16,6.84-2.38,0.16,0,2.39-.8,1.92-0.52,2.89-1-.71.15-0.48,0,4.42-1.63,10.56-3.36,16.93-5.7,5.52-1.93,6.51-2.38,11.64-4.14,1.75-.53-1.39.59-1.39,0.59,2.82-.89,4.92-1.6,7.55-2.52-0.53.2,0,0,.85-0.2,2.12-.72,1.38-0.57,4.19-1.46-0.47.19-1.07,0.44-2.08,0.81l7.52-2.62a25.51,25.51,0,0,1-2.44.91c2.9-1,7.51-2.56,8.39-2.91l-1.87.6c1.06-.36.56-0.14-0.22,0.13-2.47.88-3.6,1.18-3.74,1.21l1.84-.63c-1.93.5-7.39,2.48-11.1,3.72l1.51-.63-3.77,1.36c-0.82.24-1.39,0.35,0.43-.27-2.68.82-2.34,0.82-4.65,1.51-0.26.07-.14,0,0.09-0.05l-2.59.9a2.17,2.17,0,0,1,1.14-.46c-4.69,1.46-7.49,2.59-9.28,3.06l0.39-.14c-6.46,2.19-.59.31-5.4,2.06L944,19l-0.6.33a11.44,11.44,0,0,1-1.77.51c-2.46.91,0.44-.09-1,0.47-3.25.94-8.84,3-9.64,3-1.12.49,3.1-.93-0.31,0.27-1.06.08-4,1.35-6.92,2.21,0.86-.43,3.66-1.28.69-0.43-1.7.81-5.73,1.83-8.2,2.69-0.05.23-5.36,1.86-9.49,3.29,0.24-.15-7.86,2.47-11.75,3.66l0.1-.07c-0.68.47-4.68,1.74-7.56,2.75,0.07-.18.57-0.4,2.13-1l-2.73.9c-0.62.29-1.46,0.61-3.22,1.22l0.63-.4c-3.63,1.2-7.25,2.62-12,4-0.2.26,3.88-.75-1,1-0.21,0-.45-0.13.83-0.6-0.42.15-1.48,0.58-2.35,0.82l1.92-.81c-2.15.63-1.07,0.5-2.78,1,0-.15-1.29.32-1.08,0.13,0.43-.16,1.5-0.43,2.14-0.7-1.93.61-4.27,1.29-5.08,1.44,0.19,0,.06.19-1.34,0.67-3.63,1.21-1.3.24-3.44,0.87-0.85.39-3.2,1-3.19,1.28a7.61,7.61,0,0,1-1.72.39c-1.85.71-8.77,2.92-6.58,2.46l0.49-.14-0.3.11h0c-6.09,2.26-12.84,4.1-18.92,6.22l0-.08c-3.62,1.3-8.11,2.74-10.65,3.77-1.08.36-2.6,0.69-2.17,0.44-2.77,1-3.05,1.18-7.13,2.37a13.14,13.14,0,0,1,2.84-1.06,81.23,81.23,0,0,0-8.33,2.78c1.25-.65-2.82.63-4.52,1.26l2.59-.68c-1.93.67-3.63,1.21-5.36,1.76l0.84-.6c-7.54,2.08-13.18,5-19,6.28-1.89.86,4.08-1.18,2.4-.36-3.42,1.09-7.12,1.83-8.19,2.18-4.73,1.37-4.21,1.88-9.14,3.39,0.66-.1,1.35,0-2.27,1.32-3.43,1.09-4.35.92-2.22,0.12a3.79,3.79,0,0,1,1.2-.33c1.09-.41,2.52-0.93,1.13-0.6l-0.41.26c-1.73.45-6.43,2-5.38,1.46-2.55,1-1,.55.89,0-4.43,1.28-6.84,2.25-11.39,3.63,0.74-.17,1.44-0.26.73,0-6.66,2-2.84,1.18-7.3,2.71-2.6.67,0.77-.72-3.69,0.92-2.79.79-.68-0.11,0.38-0.57-4,1.58-7.73,2.39-10.09,3.12l2.13-.81c-1.28.48-2.34,0.83-3.42,1.19l1.31-.18a11.92,11.92,0,0,1-2.37.63c-1.26.58,1.13,0.05-1.4,1.12-1.73.44-5.12,1.83-5.8,1.72,5.36-1.66-.69-0.12,3.8-1.66-0.86.32-1.92,0.67-3.21,1.05-0.2,0,.16-0.12.5-0.26-5.19,1.41-2.23,1.12-7.51,2.87,0.61-.4-1.33.07-2.18,0.4,2.13-.7,1.12,0-0.79.74-3.43,1-3.65,1.32-5.43,1.89l2-.61a38.16,38.16,0,0,1-4.67,1.78c-0.25-.07,2.11-0.8,1.25-0.59-2.52,1.18-6,1.64-9.62,3.06-1.73.44-.27-0.28-1.79,0.14-4,1.59-4.52,1.23-8.76,2.85,1.32-.18,1.52-0.31-1.44.93l7-2.52-4.43,1.85c2.14-.71,4.46-1.64,5.75-2-2.1.91-1.9,0.78-.81,0.63-3,.62-5.73,2.13-9.19,3l-0.09-.62c-5.17,1.43-8.93,3.3-15.57,5.34l2.15-.6c-0.81.52-4.06,1.39-6.17,2.19,0.13-.26-1.22.11-2.17,0.3,0.16,0.11-4.83,1.59-5.3,2.17l-3,.73c-5.36,1.67-5.9,2.56-11,4.2,1.47-.72-0.9-0.08,2.48-1.37a17.85,17.85,0,0,0-3.24,1.18c-1,.22-4.66,1.83-6.29,2.17a12.92,12.92,0,0,1-2.79,1.22c-0.22,0,0-.09,0-0.09s-3,1.12-1.22.77c-5.46,1.17-14.7,4.93-19.45,6l-11.57,4a1,1,0,0,1,.63-0.29c-4.72,1.39-2.7,1.46-8.08,3-2.81.62,2.77-1.09,1-.63-0.93-.33-6.39,2.21-10.07,3.07l0.85-.32c-2.8.72-6.6,2.44-11.08,3.88,0,0,.2-0.12,0-0.09-3,1.3-8.71,3.31-13,4.82,1.27-.65,1.92-0.76,1-0.7-1.92.67,0.68,0.16-3.15,1.49a34,34,0,0,1-4.54,1l3.62-1.22c-2,.33-4.69,1.57-6.62,2.16l0.2-.21c-5.54,1.89-5.52,2.24-11.5,4.2l0.65-.11c-3.16,1.39-2.79.74-6,2l-1.09,0c-2.13.79-7.45,2.81-11.29,4.15,2.11-1,6.6-2.57,9.35-3.64-2.14.71-7.25,2.44-8.31,3,0.85-.32,1.91-0.75,2.78-1q-3.81,1.67-10.21,3.78c0.56-.84-11.14,3.54-14.38,4.11-7.46,2.72-15,4.88-23.72,7.83,3.25-.6-2.56.86-1.87,1.13-2,.71-2.81,1-3,1l-6.28,1.79c-1.51.36,1.91-.74,1.69-0.78-4.48,1.46-1.94.44-4.94,1.31,0.66,0-1.48.74-4,1.53l3.66-1c-6.17,2.31-5.52,1.43-11.75,3.76l1.95-.8c-3.21,1.16-11.92,4-15,5.37-0.59.14-1.38,0.28,0-.23-7.74,2.53-17.08,6.08-23.15,7.88l0.55-.29c-1.43.51-2.45,1-4.28,1.52,0.08-.07.55-0.29-0.12-0.08s-3.77,1.45-5.7,2l1.6-.65c-7.58,2.38-11.47,4.12-17.77,6.28-0.08-.29-6,1.6-9,2.54l0.09-.07c-8.78,2.89-14.83,5.2-22.92,8-5.14,1.39-17.12,5.57-25.28,8.12,1.25-.37-0.14.26-1.57,0.77-1.92.58-5.2,1.92-5,1.6l0.68-.22c-1.51.25-5.4,1.62-8.45,2.63l-0.41.46c-8.12,2.24-20.87,7.12-25.35,8.2l-6.18,2.21,0.06-.18c-5.35,1.74-8,2.62-14.61,4.85l1.31-.55c-3.72,1.23-4.57,2-8,3.12l-1.1.14c-6.49,2.16-13.12,4.19-19.48,6.5a5.54,5.54,0,0,1,1.32-.54c-3.06,1-11.86,3.82-10.67,3.7a30,30,0,0,0-3.84,1.21l-6.35,2.25,0.51-.3c-2.91,1.14-3,1.21-7.11,2.63-1,.31-0.89.19,0.42-0.21-3.28,1-2.51,1-6.49,2.21l1.45-.56c-3.36,1.11-3.08,1.06-4.9,1.76-2.1.75-6.38,2.09-6.91,2.16s-2.24.9-4.23,1.53a2,2,0,0,1,.79-0.34c-5.64,1.8-8.31,2.9-12.21,4.08a3,3,0,0,0-.67.15l7.72-2.55c0-.1-3.64,1.09-0.82,0-2.87,1-7.76,2.85-11.29,4l-0.48.12,0.36-.13c-0.81.26-1.54,0.51-2.21,0.76l-2.92.94c-0.44.06-4.14,1.34-5.94,1.93,0.18,0-2.18.82,0.05,0.16-0.29.09,0.34-.12,1.53-0.53l0.76-.27-0.12,0,4.46-1.49c-1.4.52-2.87,1.06-4.88,1.67l-2.46,1c-2.51.68-7.27,2.19-8,2.32-5.47,1.88-12.91,4.34-16.31,5.66a23.37,23.37,0,0,1-2.4.72c0.9-.32,2-0.67,2.45-0.86-3.1,1.08-9.23,3.09-9.94,3.45-3.95,1.26,2.18-.84-3.22,1l0.72-.28c-10.68,3.38-17.19,6-29,9.72,0.82-.26,1.23-0.39,1.4-0.43-13.46,4.39-27.66,9.27-41,13.57-3.77,1.23-4.17,1.41-6.46,2.21l-0.83.22-3.91,1.37c-5.56,1.89-9.69,3.09-16.73,5.52l0.92-.27c-2.54.84-8,2.69-7.61,2.51-0.26.09-.82,0.3-1.82,0.62H20.06l-6.22,2.1c-4.83,1.59.73-.33-6.31,2-2.62.88-7.44,2.53-6.45,2.21s2.7-.89,2.79-0.9l-2.39.8c-0.42.19-2.25,0.84,3.65-1.07l4.09-1.38,1.33-.41-3.45,1.14c2-.62,3.2-1.05,4.58-1.52l1.73-.54,4-1.38c0.5-.14-1.79.64,0.92-0.24,1.88-.65-1.83.55,1.29-0.5,2-.62,1.41-0.41,3.7-1.19,0.33-.09-0.16.08-1.07,0.39,2-.69,5.42-1.8,6.47-2.18,2.06-.64,6.91-2.29,6.74-2.16l5.47-1.87c-3.41,1.22,7-2.32,6.17-1.92,2.52-.92,9.18-3.06,13.67-4.6-0.25.09-.74,0.27-1.14,0.39l4.92-1.56c0.3-.19,4.24-1.51,6.36-2.26,3.14-.95-1.86.72-0.85,0.48-0.18,0,5.38-1.85,4.3-1.56,2.4-.73,2.06-0.65,3.31-1,0.38-.25,2.21-0.75,4.16-1.47,3.46-1.08.92-.19,4.69-1.47C88.33,303.42,85,304.56,85,304.56Zm89.84-29.91h0l-1.85.62Zm7.56-2.5-3.28,1.08c-0.28.05,0-.08,0.76-0.33C179.45,273.07,181.24,272.5,182.37,272.16Zm-16.21,4.59a17.47,17.47,0,0,1,1.77-.56l-2.09.71-0.14.06A4.29,4.29,0,0,1,166.16,276.75Z" transform="translate(0.22 0.53)"/><path class="cls-2" d="M164.06,277.59l-0.49.17,0.72-.21,0.41-.17Z" transform="translate(0.22 0.53)"/><path class="cls-2" d="M848.7,50.5l-0.16,0,0.34-.08Z" transform="translate(0.22 0.53)"/><polygon class="cls-2" points="287.02 238.48 286.99 238.45 286.34 238.7 287.02 238.48"/><path class="cls-2" d="M890.51,37.36a4.58,4.58,0,0,0,.56-0.14S890.8,37.28,890.51,37.36Z" transform="translate(0.22 0.53)"/><path class="cls-2" d="M908.48,31.39L911,30.6Z" transform="translate(0.22 0.53)"/><path class="cls-2" d="M922.31,26.85a1.16,1.16,0,0,0,.25-0.15h0Z" transform="translate(0.22 0.53)"/><path class="cls-2" d="M702.87,100.4l-0.53.19C701.11,101.06,702,100.75,702.87,100.4Z" transform="translate(0.22 0.53)"/><path class="cls-2" d="M768,78c-0.68.28-1.35,0.55-2.06,0.82A5.69,5.69,0,0,0,768,78Z" transform="translate(0.22 0.53)"/><path class="cls-2" d="M630,124.88h0l-0.45.15Z" transform="translate(0.22 0.53)"/><path class="cls-2" d="M762.92,79.87c1.18-.33,2.15-0.67,3-1C765,79.16,763.87,79.51,762.92,79.87Z" transform="translate(0.22 0.53)"/><path class="cls-2" d="M982.12,6.79l0.67-.22,0.08,0Z" transform="translate(0.22 0.53)"/><path class="cls-2" d="M982.86,6.54l0.74-.26Z" transform="translate(0.22 0.53)"/><path class="cls-2" d="M985.15,5.75l-1.55.54C984.14,6.1,984.8,5.88,985.15,5.75Z" transform="translate(0.22 0.53)"/><path class="cls-2" d="M963.85,12.91l-0.2.1A0.67,0.67,0,0,0,963.85,12.91Z" transform="translate(0.22 0.53)"/><path class="cls-2" d="M958.3,14.78c1.33-.44,3.34-1,5.18-1.69l0.16-.08C962.8,13.35,959.54,14.31,958.3,14.78Z" transform="translate(0.22 0.53)"/><path class="cls-2" d="M934.95,22l4.67-1.5c-0.83.22-1.92,0.51,0.19-.19C933.89,22.1,941.06,20,934.95,22Z" transform="translate(0.22 0.53)"/><path class="cls-2" d="M920.47,26.69c2.5-.85-0.06-0.07.07-0.14C919,27.11,918.58,27.25,920.47,26.69Z" transform="translate(0.22 0.53)"/><path class="cls-2" d="M816,61.09l0.18-.3C814.31,61.46,816.23,60.88,816,61.09Z" transform="translate(0.22 0.53)"/><polygon class="cls-2" points="796.69 69.36 798.61 68.87 799.44 68.37 796.69 69.36"/><polygon class="cls-2" points="784.37 71.65 785.21 71.34 782.01 72.48 784.37 71.65"/><path class="cls-2" d="M608.9,129.31l0.68,0.09C610.87,128.92,611,128.51,608.9,129.31Z" transform="translate(0.22 0.53)"/><path class="cls-2" d="M533.36,154.79a24.61,24.61,0,0,0-4.29,1.34C530.78,155.57,532.51,155.11,533.36,154.79Z" transform="translate(0.22 0.53)"/><polygon class="cls-2" points="306.64 230.48 308.14 229.91 305.29 230.91 306.64 230.48"/><line class="cls-1" x1="1.38" y1="1.05" x2="999.07" y2="333"/><path class="cls-2" d="M998.82,332.54c0.53,0.17.24,0-1.21-.42l-1-.3Z" transform="translate(0.22 0.53)"/><path class="cls-2" d="M989.1,329.24c-1.71-.54-3.69-1.14-2.61-0.72l3.94,1.2c1.45,0.47,2.52.85,2.27,0.79,0.52,0.16,2.25.75,3,1-1.88-.65-4.26-1.45-6.77-2.24C988.45,329.05,989,329.21,989.1,329.24Z" transform="translate(0.22 0.53)"/><path class="cls-2" d="M847.74,281.81l0.9,0.33Z" transform="translate(0.22 0.53)"/><path class="cls-2" d="M760.16,252.39a4.15,4.15,0,0,0,1,.26A3.84,3.84,0,0,0,760.16,252.39Z" transform="translate(0.22 0.53)"/><path class="cls-2" d="M745.31,247l0.87,0.32A5.45,5.45,0,0,0,745.31,247Z" transform="translate(0.22 0.53)"/><path class="cls-2" d="M847.74,281.81l-2.31-.86A14.85,14.85,0,0,0,847.74,281.81Z" transform="translate(0.22 0.53)"/><path class="cls-2" d="M969.52,323l1.28,0.39-1.2-.38h-0.08Z" transform="translate(0.22 0.53)"/><path class="cls-2" d="M886.42,294.55l0.71,0.24,0.62,0.11Z" transform="translate(0.22 0.53)"/><path class="cls-2" d="M916.06,304.48a3.24,3.24,0,0,0-1.23-.18,11.67,11.67,0,0,1,1.5.39A0.43,0.43,0,0,0,916.06,304.48Z" transform="translate(0.22 0.53)"/><path class="cls-2" d="M963,320.44l0.84,0.27Z" transform="translate(0.22 0.53)"/><path class="cls-2" d="M865.22,287.4a0.91,0.91,0,0,0-.25-0.16A0.52,0.52,0,0,0,865.22,287.4Z" transform="translate(0.22 0.53)"/><path class="cls-2" d="M35.47,12.17s0,0,0,0C35.29,12.11,35.24,12.09,35.47,12.17Z" transform="translate(0.22 0.53)"/><path class="cls-2" d="M1.16,0.52L1.64,0.68l0.11,0Z" transform="translate(0.22 0.53)"/><path class="cls-2" d="M718,237.56l0.12,0C718.9,237.81,718.49,237.68,718,237.56Z" transform="translate(0.22 0.53)"/><path class="cls-2" d="M466.42,154.39c2.79,1.13-4.71-1.3-.49.32C465.56,154.5,469.94,155.69,466.42,154.39Z" transform="translate(0.22 0.53)"/><path class="cls-2" d="M968.75,322.71l-1.22-.4Z" transform="translate(0.22 0.53)"/><path class="cls-2" d="M465.93,154.71h0l0.44,0.17Z" transform="translate(0.22 0.53)"/><path class="cls-2" d="M654.88,216.73a4,4,0,0,0,.6.33A2,2,0,0,0,654.88,216.73Z" transform="translate(0.22 0.53)"/><path class="cls-2" d="M701.77,232.75l-1.15-.42C701.07,232.51,701.44,232.64,701.77,232.75Z" transform="translate(0.22 0.53)"/><path class="cls-2" d="M630.33,209a17.34,17.34,0,0,0-1.7-.59l0.25,0.12A8.63,8.63,0,0,1,630.33,209Z" transform="translate(0.22 0.53)"/><path class="cls-2" d="M604.91,200.59l0.45,0.21,0.81,0.25Z" transform="translate(0.22 0.53)"/><path class="cls-2" d="M112.65,38c-0.55-.21-0.89-0.35-1.15-0.46C111.87,37.71,108.13,36.48,112.65,38Z" transform="translate(0.22 0.53)"/><path class="cls-2" d="M969.52,322.93a7.46,7.46,0,0,1-.77-0.22L969.6,323C969.68,323,969.7,323,969.52,322.93Z" transform="translate(0.22 0.53)"/><path class="cls-2" d="M628.6,210.77l-4-1.39C625.7,209.78,627.16,210.29,628.6,210.77Z" transform="translate(0.22 0.53)"/><path class="cls-2" d="M294.84,98.92l-0.93-.29C294.27,98.75,294.6,98.85,294.84,98.92Z" transform="translate(0.22 0.53)"/><path class="cls-2" d="M612.59,205.41c-0.69-.33-1.44-0.64-2.21-0.94a4.46,4.46,0,0,0-.49-0.09Z" transform="translate(0.22 0.53)"/><path class="cls-2" d="M111.49,37.52h0Z" transform="translate(0.22 0.53)"/><path class="cls-2" d="M84.86,28.79c3.84,1.29,1.83.52,2.67,0.74a18.15,18.15,0,0,1,3.65,1.35c2.87,0.94,5.1,1.59,7.23,2.31,0.15,0.07.57,0.21,0.07,0.07,3.05,0.94,9,3,12.56,4.09l0.45,0.18c-0.55-.24-0.63-0.32-0.5-0.32,1.72,0.57,3.22,1,3.85,1.29-1.06-.35-1.15-0.36-1.65-0.5L115,38.56c1.59,0.64-2.48-.79-2.5-0.72,3.53,1.15,7.66,2.43,10.35,3.36,0.53,0.29-6.32-2.07-2.75-.78L115.94,39c3.14,1.22-2.53-.86.34,0.28l11.63,3.87c1.25,0.36-.38-0.22.87,0.14,7.83,2.5,6,2.32,11.82,4.09a58.83,58.83,0,0,1,6.18,1.91l-1.43-.34c5.32,1.79,3.1.83,8.64,2.78-1-.28-4.2-1.35-3.4-1.07,3.58,1.31,2.58.78,5.35,1.71l0.54,0.31,18.22,5.95c-0.36-.08-1.45-0.4,0,0.13,7.93,2.58,16.88,5.66,24.49,8.3l3,0.86c0.68,0.23,1.24.47,0.5,0.25,3,1,.18,0,1.62.41,1.69,0.56,2.21.82,1.13,0.49,5.28,1.66,15,4.77,20.51,6.76l-1.09-.32c4.29,1.49,4.95,1.36,8.9,2.81L233,78.07c9.33,3.18,19.7,6.5,26.76,9.1,1.42,0.25,9.22,3.19,9.92,3.09,5.29,1.93,3.74,1.47,11.22,4.09,2,0.69,3.05.81,5.55,1.61v0.18l3.43,1,1.73,0.79,2.34,0.74a9,9,0,0,1-1.79-.73c1.83,0.57,4,1.34,5.79,2l2.19,0.83a6.54,6.54,0,0,1,.9.39l8.65,2.73c-0.21,0-1.66-.45-2.82-0.79,4.65,1.36.77,0.46,5,1.71-0.55-.23.34,0,0.45,0,2.06,0.8,6.84,2.4,10.38,3.54l-0.72-.11L342.62,115c-2.55-.92-1.89-0.94.22-0.26l0.78,0.47c1.4,0.33-2.17-.81.66,0,2.67,0.92,1.73.82,0.17,0.37l3.27,1a2.91,2.91,0,0,1-.82-0.09c1.37,0.32,5.55,2.08,7.54,2.51l0.16,0.12,16.26,5.35a38.77,38.77,0,0,1,4.22,1.1c4.27,1.49,9,3.22,14.14,4.93,3.66,1.12,1.11.2,2.78,0.64,0.21,0.26,5.37,2,2.66,1.19,6.21,2,7.93,2.61,15.81,5.09-0.83-.35-1.77-0.7-1.26-0.6a14.11,14.11,0,0,1,3,1.17l-0.38-.11c8.89,2.67,20.13,7.29,27.26,9.27l-0.4-.11,7.33,2.23c3.33,1.15-2-.53.39,0.4,7.94,2.31,12.37,4.18,18.89,6.13,4.81,2.22,17.74,5.88,24.36,8.49L489.3,164a22.77,22.77,0,0,1,3.36,1.24c-0.15-.16-1.85-0.75-0.74-0.46,14.82,4.77,30.4,10.38,45.49,15.58,5.52,1.9,3.39.31,10.25,3l-2.07-.39c11.28,3.41,22.83,7.66,33.86,11a10.07,10.07,0,0,1-1.79-.43,58.63,58.63,0,0,0,8.63,2.71c1.7,0.59.34,0.29,1.36,0.73,2.27,0.9,5.9,1.68,7.06,2.3a4.82,4.82,0,0,1-1.1-.27c1.54,0.4,7,2.38,5.66,1.65,4.06,1.49,7.89,2.52,11.11,3.76,2.23,0.43,7,2.49,7.79,2.31-0.43.32,7.08,2.75,9.74,3.42-0.91-.16,2.21.89,1.13,0.73,3,1,5.7,1.81,5.26,1.42,5.28,2.34,11.11,3.24,14,4.94,8.88,2.7,17.07,5.26,25,7.79-0.43.35-8.76-2.87-8.58-2.29,7.57,2.32,12,3.38,19.44,6,1.91,0.7-1.16-.17-1.84-0.31,7.56,2.31,14.49,4.87,21.25,6.84a9.89,9.89,0,0,1-1.46-.35c1.32,0.42,3,1.08,3,.83l-1.3-.37c-2-1,5.43,1.12,5.72,1-2.43-.16,6.55,2.34,2.76,1.89,0.88,0.25,2,.52,1.84.31,1.27,0.47,1.65.68,0.3,0.4,4.75,1.45,3.15.69,7.42,2.11a9.61,9.61,0,0,1-1.4-.19,67,67,0,0,1,8,2.34c-0.24,0,.16.2-0.92-0.16,6.21,2,10.73,3,17.47,5.45-2.14-.25,2.27.9,2.51,1.38l3.69,1.11-1.41-.66c3.2,1.07,6.12,1.75,8.83,2.78l-2.43-.65,6,1.92-3.35-1.26c3.3,0.9-.2-0.56,4,1-0.88-.25,3.2,1.07,4.8,1.83h0a50.53,50.53,0,0,1,5.63,1.72c0.58,0.31-.62.21-0.24,0.42,1.66,0.23,7.53,2.41,9.61,2.77-0.68-.15-0.78,0-0.57.12l1.39,0.21c1.46,0.57,1.67.67,1.38,0.73,4.45,1.52-1.28-.89,4,1-0.42-.12-0.23,0-1.11-0.27,5.29,1.86,10.33,3.27,15.18,5,1.34,0.8-4.3-1.34-2.74-.52,7.07,2.27,14.73,4.45,21.52,6.79l-1.26-.46c1.09-.12,5,1.9,8.53,2.84-0.86-.25-1.19-0.13-0.94-0.1,4.65,1.61,9.59,3.05,16.71,5.27l-0.91-.19c2.72,1,7.23,2.45,10.19,3.48,0.92,0.19,2.61.77,1.63,0.29,9,3.58,17.59,5.51,25.58,8.64-1-.32-2.35-0.69-1.57-0.43l7,2.21a16.84,16.84,0,0,0-2.3-1c0.91,0.2,2.88.79,4.6,1.36-3.15-.94-0.05.24,1.27,0.77-0.21-.12.27,0,0.17-0.1,3.54,1.45.7-.08,5.59,1.73h-0.29c1.86,0.58,3.6,1,5.59,1.73,0.78,0.43-2-.58-2.16-0.49,2.81,0.92,5.62,1.54,8.11,2.54L903,300.81c2.7,1.09,3,1.15,5.08,1.86l-0.2-.07,4.72,1.64-1.19-.44c3.63,0.79,7.17,2.29,12,3.63-4.66-1.31-.8-0.13-1.2-0.1a18.88,18.88,0,0,1,2.48,1c2.27,0.62,3.7,1.31,6.91,2.19,0.13,0.09,2.39.79,1.85,0.73,2.92,0.92-.66-0.3-0.4-0.28,4.52,1.34,10.47,3.63,17,5.56,5.58,1.76,6.64,2,11.8,3.65,1.72,0.63-1.46-.36-1.46-0.36,2.79,1,4.9,1.66,7.56,2.5-0.54-.15,0,0,0.8.35,2.12,0.69,1.45.37,4.23,1.34-0.49-.13-1.12-0.29-2.15-0.6l7.59,2.4a25.5,25.5,0,0,1-2.5-.73c2.92,0.94,7.55,2.44,8.47,2.69l-1.86-.64c1.06,0.35.53,0.23-.26,0-2.51-.78-3.59-1.2-3.72-1.27l1.85,0.6c-1.85-.75-7.41-2.43-11.11-3.66l1.58,0.4L967,322c-0.8-.3-1.33-0.55.51,0-2.64-.95-2.37-0.74-4.63-1.57-0.25-.1-0.13-0.06.1,0l-2.61-.83a2.17,2.17,0,0,1,1.19.31c-4.63-1.64-7.55-2.41-9.26-3.1l0.39,0.12c-6.48-2.11-.66-0.1-5.56-1.58L944,314l-0.68-.09a11.45,11.45,0,0,1-1.72-.65c-2.51-.74.4,0.2-1.06-0.2-3.17-1.19-8.87-2.89-9.52-3.35-1.19-.28,3,1.11-0.41,0-0.9-.57-4-1.28-6.87-2.37,0.94,0.17,3.7,1.17.8,0.07-1.84-.37-5.69-2-8.18-2.75-0.18.15-5.4-1.72-9.58-3,0.28,0-7.77-2.72-11.6-4.1h0.13c-0.82,0-4.79-1.4-7.7-2.32,0.16-.1.7,0,2.29,0.49l-2.73-.91c-0.67-.14-1.53-0.39-3.31-1l0.74,0.05c-3.63-1.21-7.37-2.24-12-3.92-0.32.09,3.55,1.72-1.42,0.19-0.15-.15-0.28-0.38,1,0-0.43-.13-1.54-0.42-2.37-0.75l2,0.5c-2.1-.78-1.16-0.24-2.85-0.82,0.08-.12-1.23-0.52-0.95-0.54,0.44,0.13,1.46.55,2.13,0.72-1.91-.67-4.2-1.52-4.93-1.88,0.14,0.13-.06.19-1.47-0.27-3.63-1.2-1.19-.58-3.28-1.36-0.91-.2-3.19-1.07-3.32-0.88a7.62,7.62,0,0,1-1.61-.72c-1.91-.53-8.78-2.91-6.74-2l0.48,0.18-0.31-.09h0c-6.23-1.83-12.74-4.4-18.88-6.34l0-.08c-3.68-1.13-8.13-2.66-10.79-3.35-1.08-.36-2.5-1-2-0.94-2.81-.87-3.15-0.88-7.13-2.36a13.14,13.14,0,0,1,2.91.85,81.23,81.23,0,0,0-8.34-2.76c1.4,0.23-2.63-1.18-4.38-1.7l2.49,1c-1.95-.62-3.63-1.2-5.34-1.79l1,0c-7.29-2.84-13.56-3.86-19-6.35-2-.45,4,1.49,2.14,1.15-3.4-1.18-6.8-2.8-7.87-3.16-4.61-1.73-4.5-1-9.35-2.76,0.59,0.32,1.08.81-2.61-.3-3.4-1.18-4-1.86-1.86-1.23a3.79,3.79,0,0,1,1.16.46c1.12,0.33,2.58.76,1.27,0.19l-0.48,0c-1.65-.68-6.35-2.23-5.19-2-2.61-.76-1.16-0.19.73,0.51-4.32-1.62-6.83-2.29-11.3-3.9,0.7,0.3,1.31.65,0.6,0.42-6.56-2.34-3-.76-7.47-2.2-2.49-1,1-.11-3.5-1.47-2.71-1-.48-0.5.64-0.23-4.18-1.15-7.62-2.71-10-3.53l2.19,0.63c-1.31-.38-2.37-0.73-3.45-1.09l1.16,0.64a11.93,11.93,0,0,1-2.27-.91c-1.36-.28.87,0.72-1.79,0.06-1.65-.68-5.2-1.59-5.68-2.1,5.29,1.88-.48-0.51,4,0.95-0.88-.25-1.94-0.61-3.2-1.07-0.18-.1.2,0,0.55,0.09-5-2-2.46-.43-7.73-2.2,0.73,0-1.11-.74-2-1,2.13,0.71.92,0.63-1.08,0.11-3.34-1.26-3.71-1.12-5.48-1.73l2,0.74a38.16,38.16,0,0,1-4.81-1.37c-0.16-.2,2.17.62,1.35,0.28-2.72-.56-5.82-2.29-9.54-3.3-1.65-.68-0.05-0.38-1.51-1-4.17-1.13-4.35-1.72-8.72-3,1.16,0.65,1.4.66-1.71-.12l7.13,2.19-4.66-1.17c2.13,0.71,4.56,1.35,5.82,1.82-2.23-.53-2-0.51-1,0-2.8-1.33-5.86-1.72-9.16-3.08l0.3-.55c-5-1.95-9.12-2.7-15.67-5l2.09,0.8c-1-.06-4.08-1.32-6.25-1.94,0.26-.13-1-0.64-1.92-1.06,0.06,0.18-4.82-1.61-5.55-1.43l-2.86-1.23c-5.29-1.87-6.26-1.48-11.36-3.24,1.61,0.31-.67-0.6,2.81.39a17.85,17.85,0,0,0-3.31-1c-1-.45-4.82-1.32-6.34-2a12.92,12.92,0,0,1-3-.69c-0.2-.11,0-0.09,0-0.09s-3-.87-1.44-0.11c-5.07-2.32-14.73-4.85-19.15-6.85l-11.66-3.72a1,1,0,0,1,.67.15c-4.62-1.71-3-.45-8.3-2.4-2.62-1.18,2.87.79,1.22,0.12-0.55-.81-6.44-2-9.91-3.57l0.88,0.25c-2.67-1.09-6.74-2-11.2-3.52,0,0,.23,0,0.05-0.07-3.15-.73-9-2.56-13.29-3.91,1.41,0.23,2,.54,1.24.05-1.94-.61.45,0.53-3.42-0.69a34,34,0,0,1-4.25-1.9l3.63,1.19c-1.76-.91-4.7-1.55-6.59-2.23l0.29,0C539.16,178.71,539,179,533,177l0.59,0.3c-3.37-.77-2.68-1.08-6-1.94l-0.88-.64c-2.18-.64-7.65-2.2-11.53-3.43,2.26,0.5,6.82,1.88,9.67,2.67-2.14-.71-7.27-2.38-8.43-2.6,0.87,0.26,2,.54,2.81.87q-4.05-.94-10.44-3.08c0.95-.34-11-3.83-14-5.31-7.6-2.28-14.91-5-23.69-7.92,3,1.47-2.56-.84-2.17-0.21-2.05-.65-2.83-0.92-3-1l-6.1-2.32c-1.43-.61,2,0.55,1.82.39-4.46-1.52-1.81-.81-4.74-1.91,0.55,0.36-1.63-.29-4.16-1.2l3.52,1.39c-6.33-1.84-5.28-2.16-11.66-4l2,0.52c-3.26-1-11.93-4-15.21-4.66-0.56-.24-1.27-0.6.16-0.16-7.71-2.61-17.32-5.35-23.26-7.54l0.62,0.09c-1.45-.45-2.57-0.65-4.34-1.34,0.11,0,.61.09-0.05-0.13s-3.89-1.1-5.78-1.79l1.67,0.43c-7.5-2.62-11.66-3.57-18-5.6,0.11-.28-5.79-2.33-8.74-3.36h0.12c-8.77-2.94-15-4.71-23.15-7.3-5-2-17.05-5.78-25.11-8.62,1.22,0.46-.27.13-1.72-0.32-1.89-.68-5.32-1.57-4.94-1.7l0.68,0.23c-1.36-.7-5.29-1.93-8.34-2.95l-0.6.13c-7.85-3.06-21-6.79-25.22-8.59l-6.27-1.93,0.15-.11c-5.33-1.8-8-2.7-14.6-4.85l1.38,0.35c-3.72-1.24-4.84-1.16-8.27-2.29l-1-.55c-6.5-2.15-13-4.5-19.5-6.44a5.54,5.54,0,0,1,1.38.35c-3.06-1-11.79-4-10.76-3.42a30,30,0,0,0-3.8-1.33l-6.43-2,0.59,0.06c-3-.83-3.12-0.82-7.27-2.15-1-.34-0.83-0.38.46,0.08-3.25-1.14-2.58-.73-6.52-2.11l1.5,0.42c-3.36-1.12-3.1-1-5-1.52-2.13-.66-6.36-2.14-6.83-2.41-0.47-.09-2.34-0.62-4.31-1.3a2,2,0,0,1,.84.2c-5.59-1.93-8.39-2.65-12.22-4a3,3,0,0,0-.63-0.28l7.72,2.57c0-.1-3.57-1.31-0.65-0.5-2.92-.88-7.92-2.36-11.42-3.57l-0.45-.19,0.37,0.11c-0.81-.28-1.54-0.51-2.23-0.72l-2.9-1c-0.39-.21-4.12-1.41-5.92-2,0.12,0.15-2.23-.65-0.05.16-0.28-.1.34,0.1,1.54,0.49l0.77,0.24-0.13,0,4.47,1.47c-1.44-.42-2.94-0.87-4.9-1.58L162,53.93c-2.41-1-7.13-2.6-7.76-2.9-5.51-1.76-12.94-4.24-16.45-5.22a23.38,23.38,0,0,1-2.35-.86c0.91,0.28,2,.64,2.47.78-3.13-1-9.25-3-10-3.18-3.92-1.35,2.24.63-3.17-1.14l0.74,0.21c-10.58-3.68-17.37-5.47-29.09-9.58,0.81,0.28,1.22.42,1.38,0.49C84.34,28,70,23.39,56.81,18.89c-3.76-1.27-4.19-1.36-6.5-2.09l-0.8-.32-4-1.24c-5.59-1.81-9.62-3.32-16.7-5.59L29.76,10c-2.53-.85-8-2.65-7.6-2.54-0.26-.08-0.84-0.25-1.83-0.59l-0.07,0L14,4.76C9.2,3.15,14.8,4.94,7.76,2.61,5.13,1.75.28,0.18,1.26,0.52S4,1.42,4,1.47l-2.4-.79C1.19,0.58-.67,0,5.2,2L9.3,3.35l1.31,0.47L7.16,2.66c1.95,0.68,3.19,1.07,4.58,1.52l1.71,0.6,4,1.29c0.48,0.19-1.82-.56.88,0.36,1.89,0.6-1.79-.66,1.33.37,1.95,0.68,1.37.51,3.68,1.26,0.32,0.12-.17,0-1.09-0.33,2.05,0.67,5.42,1.81,6.49,2.12,2,0.72,6.91,2.3,6.69,2.3L41,13.94c-3.46-1.06,7,2.36,6.09,2.15,2.57,0.77,9.19,3,13.71,4.5-0.25-.08-0.75-0.23-1.15-0.37l4.88,1.69c0.35,0,4.3,1.33,6.45,2C74,25,69,23.37,70,23.78c-0.13-.12,5.42,1.74,4.38,1.33,2.36,0.85,2,.71,3.24,1.19,0.45,0,2.22.72,4.21,1.31,3.42,1.21.85,0.4,4.64,1.63C88.23,29.88,84.86,28.79,84.86,28.79Zm89.88,29.79h0L172.88,58Zm7.55,2.52L179,60c-0.25-.12,0-0.07.81,0.19C179.4,60.08,181.17,60.7,182.29,61.11Zm-15.73-6a17.45,17.45,0,0,1,1.75.61l-2.1-.68-0.15,0A4.29,4.29,0,0,1,166.55,55.08Z" transform="translate(0.22 0.53)"/><path class="cls-2" d="M164.36,54.5l-0.5-.16,0.71,0.26L165,54.71Z" transform="translate(0.22 0.53)"/><path class="cls-2" d="M848.8,282.2l-0.16-.06,0.32,0.14Z" transform="translate(0.22 0.53)"/><polygon class="cls-2" points="286.64 96.71 286.64 96.67 285.97 96.48 286.64 96.71"/><path class="cls-2" d="M890.16,296.69a4.58,4.58,0,0,0,.53.22S890.45,296.8,890.16,296.69Z" transform="translate(0.22 0.53)"/><path class="cls-2" d="M908.13,302.66l2.52,0.89Z" transform="translate(0.22 0.53)"/><path class="cls-2" d="M921.93,307.29a1.17,1.17,0,0,0,.29,0h0Z" transform="translate(0.22 0.53)"/><path class="cls-2" d="M702.1,234.93l-0.54-.16C700.3,234.4,701.15,234.66,702.1,234.93Z" transform="translate(0.22 0.53)"/><path class="cls-2" d="M767.68,256c-0.71-.18-1.41-0.36-2.14-0.57A5.69,5.69,0,0,0,767.68,256Z" transform="translate(0.22 0.53)"/><path class="cls-2" d="M629,210.92h0l-0.45-.15Z" transform="translate(0.22 0.53)"/><path class="cls-2" d="M762.5,254.41c1.15,0.44,2.12.75,3,1C764.59,255.08,763.47,254.68,762.5,254.41Z" transform="translate(0.22 0.53)"/><path class="cls-2" d="M981.85,327l0.67,0.22,0.08,0Z" transform="translate(0.22 0.53)"/><path class="cls-2" d="M982.6,327.25l0.74,0.24Z" transform="translate(0.22 0.53)"/><path class="cls-2" d="M984.9,328l-1.56-.5C983.88,327.67,984.55,327.88,984.9,328Z" transform="translate(0.22 0.53)"/><path class="cls-2" d="M963.55,321l-0.22,0A0.67,0.67,0,0,0,963.55,321Z" transform="translate(0.22 0.53)"/><path class="cls-2" d="M958,319.16c1.32,0.44,3.31,1.16,5.17,1.75l0.18,0C962.45,320.71,959.26,319.52,958,319.16Z" transform="translate(0.22 0.53)"/><path class="cls-2" d="M935,311l4.64,1.59c-0.8-.32-1.85-0.74.27,0C934,310.42,941,313,935,311Z" transform="translate(0.22 0.53)"/><path class="cls-2" d="M920.55,306.07c2.51,0.81,0-.09.14-0.08C919.09,305.51,918.7,305.39,920.55,306.07Z" transform="translate(0.22 0.53)"/><path class="cls-2" d="M816.3,271.15l0.32-.13C814.68,270.4,816.57,271.09,816.3,271.15Z" transform="translate(0.22 0.53)"/><polygon class="cls-2" points="796.21 266.16 798.04 266.92 799 267.01 796.21 266.16"/><polygon class="cls-2" points="784.96 260.63 785.81 260.88 782.57 259.88 784.96 260.63"/><path class="cls-2" d="M609.51,201.87l0.49,0.48C611.31,202.73,611.7,202.49,609.51,201.87Z" transform="translate(0.22 0.53)"/><path class="cls-2" d="M533.74,177.08a24.61,24.61,0,0,0-4.24-1.5C531.2,176.16,532.86,176.82,533.74,177.08Z" transform="translate(0.22 0.53)"/><polygon class="cls-2" points="307.15 102.03 308.69 102.48 305.81 101.58 307.15 102.03"/><rect class="cls-1" x="354.22" y="137.03" width="288" height="56.5"/><text class="cls-3" transform="translate(411.57 179.41)">Case image</text></svg>