<?xml version="1.0" encoding="utf-8"?>
<!-- Generator: Adobe Illustrator 19.2.0, SVG Export Plug-In . SVG Version: 6.00 Build 0)  -->
<svg version="1.1" id="Lager_1" xmlns="http://www.w3.org/2000/svg" xmlns:xlink="http://www.w3.org/1999/xlink" x="0px" y="0px"
	 width="99.3px" height="99.9px" viewBox="0 0 99.3 99.9" style="enable-background:new 0 0 99.3 99.9;" xml:space="preserve">
<style type="text/css">
	.st0{opacity:3.000000e-02;fill:#000F3C;enable-background:new    ;}
	.st1{opacity:5.000000e-02;fill:#001038;enable-background:new    ;}
	.st2{opacity:7.000000e-02;fill:#003A03;enable-background:new    ;}
	.st3{opacity:7.000000e-02;fill:#000438;enable-background:new    ;}
	.st4{opacity:6.000000e-02;fill:#000F3C;enable-background:new    ;}
</style>
<title>random_dots--large</title>
<g>
	<circle class="st0" cx="8" cy="62.4" r="1.1"/>
	<circle class="st1" cx="25.8" cy="51.1" r="1.1"/>
	<circle class="st2" cx="36.3" cy="74.9" r="1.1"/>
	<circle class="st1" cx="45.1" cy="72.6" r="1.1"/>
	<circle class="st1" cx="10.7" cy="91" r="1.1"/>
	<circle class="st2" cx="31.1" cy="96.4" r="1.1"/>
	<circle class="st0" cx="48.2" cy="53.8" r="1.1"/>
	<circle class="st1" cx="1.1" cy="81.8" r="1.1"/>
	<circle class="st1" cx="27.8" cy="62.9" r="1.1"/>
	<circle class="st0" cx="22.4" cy="86.8" r="1.1"/>
	<circle class="st1" cx="47.8" cy="88.9" r="1.1"/>
	<circle class="st3" cx="40.4" cy="66.3" r="1.1"/>
	<circle class="st3" cx="17.2" cy="69.8" r="1.7"/>
	<circle class="st1" cx="18.4" cy="75.9" r="0.5"/>
	<circle class="st1" cx="6.9" cy="75.4" r="0.5"/>
	<circle class="st1" cx="8.5" cy="55.7" r="0.5"/>
	<circle class="st1" cx="29.5" cy="54.8" r="0.5"/>
	<circle class="st1" cx="43.5" cy="78.8" r="0.5"/>
	<circle class="st4" cx="38.8" cy="91" r="0.5"/>
	<circle class="st1" cx="49.3" cy="60.5" r="0.5"/>
	<circle class="st1" cx="26.9" cy="88.9" r="0.5"/>
	<circle class="st1" cx="30" cy="83.2" r="1.7"/>
	<circle class="st1" cx="17.5" cy="57.6" r="1.7"/>
	<circle class="st4" cx="7.6" cy="87.8" r="1.7"/>
	<circle class="st1" cx="2.7" cy="70.7" r="1.7"/>
	<circle class="st2" cx="39" cy="54" r="1.7"/>
	<circle class="st3" cx="16.8" cy="98.2" r="1.7"/>
	<circle class="st1" cx="44" cy="95.8" r="1.7"/>
	<circle class="st2" cx="11.8" cy="78.4" r="1.7"/>
	<circle class="st1" cx="3.8" cy="95.1" r="1.7"/>
	<circle class="st1" cx="26.8" cy="74.9" r="1.7"/>
	<circle class="st3" cx="3.3" cy="51.9" r="1.7"/>
	<circle class="st0" cx="90.5" cy="38.8" r="1.1"/>
	<circle class="st1" cx="72.7" cy="50.1" r="1.1"/>
	<circle class="st2" cx="62.2" cy="26.3" r="1.1"/>
	<circle class="st1" cx="53.4" cy="28.6" r="1.1"/>
	<circle class="st1" cx="83.4" cy="10.2" r="1.1"/>
	<circle class="st2" cx="67.4" cy="10.2" r="1.1"/>
	<circle class="st0" cx="50.3" cy="47.4" r="1.1"/>
	<circle class="st1" cx="97.4" cy="19.4" r="1.1"/>
	<circle class="st1" cx="70.7" cy="31.1" r="1.1"/>
	<circle class="st0" cx="76.2" cy="14.4" r="1.1"/>
	<circle class="st1" cx="50.8" cy="12.3" r="1.1"/>
	<circle class="st3" cx="58.1" cy="34.9" r="1.1"/>
	<circle class="st3" cx="78.8" cy="35.6" r="1.7"/>
	<circle class="st1" cx="80.1" cy="25.2" r="0.5"/>
	<circle class="st1" cx="91.6" cy="25.7" r="0.5"/>
	<circle class="st1" cx="90" cy="45.5" r="0.5"/>
	<circle class="st1" cx="69" cy="46.4" r="0.5"/>
	<circle class="st1" cx="55" cy="22.3" r="0.5"/>
	<circle class="st4" cx="59.7" cy="10.2" r="0.5"/>
	<circle class="st1" cx="54" cy="41.9" r="0.5"/>
	<circle class="st1" cx="69" cy="14.4" r="0.5"/>
	<circle class="st1" cx="63.3" cy="18.3" r="1.7"/>
	<circle class="st1" cx="81" cy="43.6" r="1.7"/>
	<circle class="st4" cx="90.9" cy="15" r="1.7"/>
	<circle class="st1" cx="95.8" cy="30.5" r="1.7"/>
	<circle class="st2" cx="59.5" cy="47.2" r="1.7"/>
	<circle class="st3" cx="81.8" cy="3" r="1.7"/>
	<circle class="st1" cx="54.5" cy="5.4" r="1.7"/>
	<circle class="st2" cx="85.9" cy="21.8" r="1.7"/>
	<circle class="st1" cx="93.1" cy="3.3" r="1.7"/>
	<circle class="st1" cx="76.2" cy="19.4" r="1.7"/>
	<circle class="st3" cx="95.2" cy="49.3" r="1.7"/>
	<circle class="st0" cx="8.1" cy="12.4" r="1.1"/>
	<circle class="st1" cx="25.9" cy="1.1" r="1.1"/>
	<circle class="st2" cx="36.4" cy="24.9" r="1.1"/>
	<circle class="st1" cx="45.2" cy="22.5" r="1.1"/>
	<circle class="st1" cx="10.8" cy="41" r="1.1"/>
	<circle class="st2" cx="37" cy="46.8" r="1.1"/>
	<circle class="st0" cx="48.3" cy="3.8" r="1.1"/>
	<circle class="st1" cx="1.2" cy="31.8" r="1.1"/>
	<circle class="st1" cx="27.9" cy="12.9" r="1.1"/>
	<circle class="st0" cx="22.5" cy="36.8" r="1.1"/>
	<circle class="st1" cx="47.8" cy="38.9" r="1.1"/>
	<circle class="st3" cx="40.5" cy="16.3" r="1.1"/>
	<circle class="st3" cx="17.3" cy="17" r="1.7"/>
	<circle class="st1" cx="18.5" cy="25.9" r="0.5"/>
	<circle class="st1" cx="7.1" cy="25.4" r="0.5"/>
	<circle class="st1" cx="8.6" cy="5.7" r="0.5"/>
	<circle class="st1" cx="29.6" cy="4.8" r="0.5"/>
	<circle class="st1" cx="43.6" cy="28.9" r="0.5"/>
	<circle class="st4" cx="38.9" cy="41" r="0.5"/>
	<circle class="st1" cx="46.7" cy="9.3" r="0.5"/>
	<circle class="st1" cx="29.6" cy="40" r="0.5"/>
	<circle class="st1" cx="35.3" cy="32.9" r="1.7"/>
	<circle class="st1" cx="17.6" cy="7.6" r="1.7"/>
	<circle class="st4" cx="7.7" cy="37.8" r="1.7"/>
	<circle class="st1" cx="2.8" cy="20.7" r="1.7"/>
	<circle class="st2" cx="39.1" cy="4" r="1.7"/>
	<circle class="st3" cx="16.9" cy="48.2" r="1.7"/>
	<circle class="st1" cx="43.5" cy="43.4" r="1.7"/>
	<circle class="st2" cx="13.5" cy="31.5" r="1.7"/>
	<circle class="st1" cx="3.9" cy="45.1" r="1.7"/>
	<circle class="st1" cx="26.9" cy="24.9" r="1.7"/>
	<circle class="st3" cx="3.4" cy="1.9" r="1.7"/>
	<circle class="st0" cx="58.1" cy="62.5" r="1.1"/>
	<circle class="st1" cx="75.9" cy="51.1" r="1.1"/>
	<circle class="st2" cx="86.4" cy="74.9" r="1.1"/>
	<circle class="st1" cx="95.2" cy="72.6" r="1.1"/>
	<circle class="st1" cx="60.8" cy="91" r="1.1"/>
	<circle class="st2" cx="81.2" cy="96.4" r="1.1"/>
	<circle class="st0" cx="98.3" cy="53.8" r="1.1"/>
	<circle class="st1" cx="51.1" cy="81.8" r="1.1"/>
	<circle class="st1" cx="77.9" cy="62.9" r="1.1"/>
	<circle class="st0" cx="66.8" cy="87.8" r="1.1"/>
	<circle class="st1" cx="97.8" cy="88.9" r="1.1"/>
	<circle class="st3" cx="90.5" cy="66.3" r="1.1"/>
	<circle class="st3" cx="67.3" cy="69.9" r="1.7"/>
	<circle class="st1" cx="71.6" cy="77.9" r="0.5"/>
	<circle class="st1" cx="57" cy="75.5" r="0.5"/>
	<circle class="st1" cx="58.6" cy="55.7" r="0.5"/>
	<circle class="st1" cx="79.6" cy="54.8" r="0.5"/>
	<circle class="st1" cx="93.6" cy="78.9" r="0.5"/>
	<circle class="st4" cx="88.9" cy="91" r="0.5"/>
	<circle class="st1" cx="91.6" cy="58.8" r="0.5"/>
	<circle class="st1" cx="79.6" cy="86.8" r="0.5"/>
	<circle class="st1" cx="80.1" cy="85.7" r="1.7"/>
	<circle class="st1" cx="67.3" cy="60.9" r="1.7"/>
	<circle class="st4" cx="57.7" cy="87.9" r="1.7"/>
	<circle class="st1" cx="52.8" cy="70.7" r="1.7"/>
	<circle class="st2" cx="64.9" cy="1.7" r="1.7"/>
	<circle class="st3" cx="66.8" cy="98.2" r="1.7"/>
	<circle class="st1" cx="94.1" cy="95.8" r="1.7"/>
	<circle class="st2" cx="63.5" cy="81.5" r="1.7"/>
	<circle class="st1" cx="42.3" cy="84.8" r="1.7"/>
	<circle class="st1" cx="76.8" cy="74.9" r="1.7"/>
	<circle class="st3" cx="53.5" cy="54" r="1.7"/>
</g>
</svg>
