<svg id="574ab342-05ce-4f6a-90ae-eac3319121b0" data-name="Lager 1" xmlns="http://www.w3.org/2000/svg" width="527.98" height="605.9" viewBox="0 0 527.98 605.9"><defs><style>.\33 3cdcb80-6216-4998-a8a7-17e28a2196d7,.\38 b40b203-d701-48ad-9b56-2de31fb01d64{fill:none;stroke:#eef1c9;stroke-width:2px;}.\33 3cdcb80-6216-4998-a8a7-17e28a2196d7{stroke-linecap:round;stroke-linejoin:round;}.\38 b40b203-d701-48ad-9b56-2de31fb01d64{stroke-miterlimit:10;}</style></defs><title>june16</title><g id="5dfa68e2-faa2-4b3b-ae43-cf63d894758d" data-name="Lager 27"><path id="1f302ffe-13ea-4e25-9e3c-04a517a20bd7" data-name="O" class="33cdcb80-6216-4998-a8a7-17e28a2196d7" d="M222.3,34.8a14.9,14.9,0,1,1-14.9,14.9,14.94,14.94,0,0,1,14.9-14.9" transform="translate(-23.92 -17.1)"/></g><g id="32c983c1-a714-484d-b190-b343cfa207b6" data-name="Lager 26"><line id="c0851581-8b34-4abe-afc3-e5cb27ca51ab" data-name="P line" class="33cdcb80-6216-4998-a8a7-17e28a2196d7" x1="220.78" y1="15.2" x2="217.58" y2="45.3"/></g><g id="2d7b5ab5-0e9b-475d-816f-087c45851d1d" data-name="Lager 25"><path id="31bd463f-facf-4c24-a284-0e0484653d35" data-name="P bend" class="33cdcb80-6216-4998-a8a7-17e28a2196d7" d="M244.7,32.1s16-5.4,16,5-16,10.5-16,10.5" transform="translate(-23.92 -17.1)"/></g><g id="887390ae-4c2a-431b-811c-3cb2a212ab43" data-name="Lager 24"><polyline id="e8c99b09-8685-450d-934e-3ce15246437a" data-name="e bottom" class="33cdcb80-6216-4998-a8a7-17e28a2196d7" points="249.68 10.3 246.68 40.3 259.78 38.3"/></g><g id="0e16b041-8dbf-4061-9164-fc8ec5768efa" data-name="Lager 23"><line id="5caffac7-6f73-47d0-bbcc-f19ea58f8ce0" data-name="E top" class="33cdcb80-6216-4998-a8a7-17e28a2196d7" x1="249.68" y1="10.3" x2="262.78" y2="8.3"/></g><g id="f2c6828c-900f-4268-ac07-fef8c06be87c" data-name="Lager 22"><line id="3a290e93-156a-49a5-9ca1-83f90bbbfb35" data-name="e middle" class="33cdcb80-6216-4998-a8a7-17e28a2196d7" x1="248.78" y1="25.9" x2="259.78" y2="24.8"/></g><g id="54b322be-9209-440f-aab2-49480fb46635" data-name="Lager 21"><line id="439af9b4-71ee-4e07-bbe9-1a1893f5b234" data-name="N line" class="33cdcb80-6216-4998-a8a7-17e28a2196d7" x1="273.98" y1="6.5" x2="270.88" y2="37.3"/></g><g id="c3d9c0fb-9a3f-4bd7-8836-d52b06c69332" data-name="Lager 20"><polyline id="bdfda68a-4834-4795-972e-1312433045e9" data-name="n bend" class="33cdcb80-6216-4998-a8a7-17e28a2196d7" points="273.98 6.5 289.88 34.3 293.98 3.4"/></g><g id="71ee1af1-0669-4208-871c-eb025ff61dde" data-name="Lager 19"><path id="c3f0b802-e42c-4ff7-96c7-c2cf9f2e8725" data-name="s" class="8b40b203-d701-48ad-9b56-2de31fb01d64" d="M342,19.7a17.83,17.83,0,0,0-7.2-1.6c-5,0-8.5,2.3-8.5,6.9,0,7.4,13.8,5.6,13.8,14.1,0,5.3-5.1,8.8-9.3,9.4a9,9,0,0,1-7.6-3" transform="translate(-23.92 -17.1)"/></g><g id="c7f45721-9972-4087-9c87-3c047f40055e" data-name="Lager 18"><path id="003c29d2-1770-474a-a862-00351eeda950" data-name="1" class="33cdcb80-6216-4998-a8a7-17e28a2196d7" d="M153.7,301.8s25.4-9.8,30.1-38.8L162.2,439.2" transform="translate(-23.92 -17.1)"/></g><g id="9e2d05dd-3138-4551-9050-44956424b9d8" data-name="Lager 31"><path id="d7d93903-0374-49b6-ba1f-bccd790aafc3" data-name="1" class="33cdcb80-6216-4998-a8a7-17e28a2196d7" d="M193.9,260.9L172.3,437.1" transform="translate(-23.92 -17.1)"/></g><g id="3181978b-3d38-414b-831c-f9d0a239ff7d" data-name="Lager 17"><line id="74068db0-e56b-44b3-b755-7ef589caba44" data-name="1 underline top" class="33cdcb80-6216-4998-a8a7-17e28a2196d7" x1="125.38" y1="424.2" x2="175.08" y2="415.9"/></g><g id="bc608887-0052-4c78-a745-64804cc09592" data-name="Lager 16"><line id="9b38a35c-6adc-4443-8c2d-ead70c597718" data-name="1 underline bottom" class="33cdcb80-6216-4998-a8a7-17e28a2196d7" x1="122.48" y1="433.4" x2="183.08" y2="423.3"/></g><g id="690c877d-ad75-44c9-b96f-e61c0d9b8df4" data-name="Lager 15"><path class="33cdcb80-6216-4998-a8a7-17e28a2196d7" d="M331.6,242.8c-44.6,9-124.3,45.7-124.3,133.1,0,46.7,23.6,72.6,62.6,72.6,28.7,0,62.6-28,62.6-72.6,0-41-24.7-62-57.6-62-39,0-65.3,37.1-65.3,37.1" transform="translate(-23.92 -17.1)"/></g><g id="8c7a4eaf-dcd7-4462-8fff-89942e8fcb76" data-name="Lager 29"><path class="33cdcb80-6216-4998-a8a7-17e28a2196d7" d="M333.6,250.7s-78.5,15.9-107.5,74.2" transform="translate(-23.92 -17.1)"/></g><g id="e4f5b9ac-2393-4792-bc32-9bfaacd3c7b3" data-name="Lager 30"><path class="33cdcb80-6216-4998-a8a7-17e28a2196d7" d="M218.8,355s-15.2,70.6,43.8,84.3" transform="translate(-23.92 -17.1)"/></g><g id="ee9a8acd-8c5b-49f9-9e5c-bbc1302b3be2" data-name="Lager 13"><line id="eaa6b6c3-9e05-4b2f-9b75-ee2fc602db75" data-name="TH T top" class="33cdcb80-6216-4998-a8a7-17e28a2196d7" x1="321.48" y1="222.2" x2="338.88" y2="219.4"/></g><g id="8719f974-bd96-494f-8296-c36b1941d997" data-name="Lager 12"><line id="794bae08-bcc7-4735-a8ea-c001cbef8a60" data-name="TH T line" class="33cdcb80-6216-4998-a8a7-17e28a2196d7" x1="330.48" y1="221.1" x2="328.18" y2="244.1"/></g><g id="15e0b639-864c-4c9f-b223-f57c0ca13949" data-name="Lager 11"><line id="bc3439ec-f72f-4fec-a324-4320210a8ba1" data-name="H left stick" class="33cdcb80-6216-4998-a8a7-17e28a2196d7" x1="362.88" y1="215.8" x2="360.48" y2="238.8"/></g><g id="a67a5d0e-1e65-4558-b619-f758c9814bd7" data-name="Lager 10"><line id="ee35ec4f-b9cb-4af4-8e4e-863e4d8d41ec" data-name="H right stick" class="33cdcb80-6216-4998-a8a7-17e28a2196d7" x1="347.48" y1="218.1" x2="345.28" y2="240.7"/></g><g id="1ffe247a-97ed-469a-b95b-d5c2f45d8e26" data-name="Lager 9"><line id="32506b8a-54a3-4227-872b-a2d3da66ed85" data-name="H middle" class="33cdcb80-6216-4998-a8a7-17e28a2196d7" x1="346.48" y1="228.6" x2="361.88" y2="225.7"/></g><g id="1d50eb59-369f-4f72-a49d-783006ecce86" data-name="Lager 8"><line id="716dfbe4-3c4b-47f6-a59d-4d3a3215f735" data-name="TH underline top" class="33cdcb80-6216-4998-a8a7-17e28a2196d7" x1="323.78" y1="253.5" x2="362.48" y2="247.1"/></g><g id="91346a90-8fc2-4bbc-97ec-f2909c5b5d73" data-name="Lager 7"><line id="bc81525d-29df-41d5-8ccb-7262a3253b58" data-name="TH Underline bottom" class="33cdcb80-6216-4998-a8a7-17e28a2196d7" x1="323.78" y1="260.5" x2="362.48" y2="254"/></g><g id="b84807bd-75bf-4b11-bf32-d86cec1dfde8" data-name="Lager 6"><path class="33cdcb80-6216-4998-a8a7-17e28a2196d7" d="M269.5,522.5a6,6,0,0,1-3.9,1.1,4.53,4.53,0,0,1-4.3-4.6c0-1.8,1.2-6.4,7.4-6.4s8.7,4,8.7,7.8c0,10.5-17.1,20.1-24.5,20.1-6.6,0-10.9-3.1-10.9-6.6s3.3-6.6,7.3-6.6c14,0,15.7,13.2,32.6,13.2,9,0,13.2-5.6,13.2-9.4,0-2.1-2.1-4.6-5.6-4.6-14,0-27.6,17.6-27.6,24.1a5.9,5.9,0,0,0,5.5,5.9c2.8,0,6-1.7,6-4.5,0-2-1-3.1-3-3.1a2.83,2.83,0,0,0-2.6,2.8" transform="translate(-23.92 -17.1)"/></g><g id="76d0292c-3ef8-4c29-8be4-e3466c341016" data-name="Lager 5"><polyline class="33cdcb80-6216-4998-a8a7-17e28a2196d7" points="209.48 554.3 243.08 588 276.18 555"/></g><g id="63ed1e09-c424-4afc-a021-d50bf9aa7a34" data-name="Lager 4"><polyline class="33cdcb80-6216-4998-a8a7-17e28a2196d7" points="209.48 571.2 243.08 604.9 276.18 571.8"/></g><g id="73a0bd8c-7d8f-473c-9956-48f4c456f51f" data-name="Lager 3"><line class="33cdcb80-6216-4998-a8a7-17e28a2196d7" x1="183.38" y1="61.7" x2="318.68" y2="40.5"/></g><g id="9c50ac22-febd-410b-9646-56dd9b23138e" data-name="Lager 2"><path id="a603bbf4-5ab1-4e74-8e9d-83198516530a" data-name="June" class="33cdcb80-6216-4998-a8a7-17e28a2196d7" d="M92.2,24.8S64.8,28.2,64.8,58.9c0,26.7,19.3,36.4,31.3,36.4,29,0,49.2-45.4,49.2-45.4C137,133.6,125,215,124.9,262.2c0,89.7-39.3,112.8-66.1,113.7-14.3.4-37.1-8.5-33.5-38.5,7-58.5,132.4-117.3,152.8-214.4-5.9,26.9-12.7,56.5-12.3,70.6,0.4,17,16.5,20,23.7,19.3,22.6-2.3,35.1-14.6,45.9-98.9-7.2,55.9-16.1,91.2-7.6,89.4,15.6-3.2,29.2-93.2,39-93.8,4.3-.3,5.4,5.4,3.9,20.8-2.9,29.3-9.6,66.5-9.6,66.5,11.8-71.2,20-91.8,45.2-96.3,3.2-.6,12.7-1.1,17.2,4.4,15,18.3-19.3,72.1-2.5,87a14.13,14.13,0,0,0,6,3c32,9.9,89-45.3,89-82,0-10.7-10-19.4-23.3-19.4-20.2,0-42.1,21-42.1,49.7,0,49.2,43.6,68.7,75.3,68.7,72,0,125-42,125-116,0-43-31.5-75.4-63-75.4-33,0-49.2,16.4-54,22.5" transform="translate(-23.92 -17.1)"/></g></svg>