<svg id="Lager_1" xmlns="http://www.w3.org/2000/svg" viewBox="0 0 566.9 467.7">
  <style>
    .st0{fill:#0A2A4F;}
  </style>
  <path class="st0" d="M203.1 353.3c0-13.6-6.5-19.9-20.4-19.9-7.8 0-16.3 2.7-25.2 8v-6.6l-1.7-.9-18.9 2.5v5.4l10.7 1.7v58.3l-10.6 1.7v5.2h31.6v-5.2l-10.7-1.7v-54.3c7.5-3.6 13.9-5.3 20.1-5.3 10.7 0 14.8 3.8 14.8 13.5v46.1l-10.6 1.7v5.2h31.6v-5.2l-10.7-1.7v-48.5zM241.4 334.9l-1.7-.9-20.1 2.5v5.4l11.5 1.7v58.3l-10.8 1.7v5.2h32v-5.2l-10.9-1.7zM235.6 320.7c3.7 0 6.7-3.1 6.7-6.8 0-3.8-2.9-6.7-6.7-6.7-3.7 0-6.7 3-6.7 6.7 0 3.6 3.2 6.8 6.7 6.8M460.9 333.7c-9 0-15.8 5.8-19.4 9.8v-8.6l-1.7-.9-18.9 2.5v5.4l10.7 1.7v58.3l-10.6 1.7v5.2h32.6v-5.2l-11.7-1.7v-51.6c5.6-4.8 11.2-7 17.9-7 1.1 0 3.5.1 5 .4l.9.2v-9.3l-.5-.2c-.8-.4-3.2-.7-4.3-.7M403.9 402v-66.9l-1.7-1.1-19.1 1.8v5.4l10.5 1.7v53.2c-5.5 2.8-11.7 5.4-20.2 5.4-10.4 0-14.3-4-14.3-14.7v-51.7l-1.7-1.1-19.4 1.8v5.4l10.7 1.7v45.8c0 14 7.1 21.3 20.6 21.3 8.7 0 16.8-2.7 24.8-8.4v7.1h20.5v-5.2l-10.7-1.5zM323.8 398.8c-5.6 2.8-10.7 4-17.4 4-22.9 0-34-14.8-34-45.2 0-28.2 11.5-43 33.2-43 8.5 0 14.3 2.3 17.5 3.8l3.1 12.6h7.1l-.7-19.4-.5-.2c-4.7-1.8-11.9-4.2-25.7-4.2-13.4 0-24.6 4.2-32.4 12.1-8.8 9-13.3 22.5-13.3 40.1 0 33.5 15.5 51.2 44.7 51.2 14.4 0 22-2.8 27.6-5.2l.4-.2.7-20H327l-3.2 13.6zM516.1 401.9v-46.6c0-14.9-7-21.9-22-21.9-8.2 0-16.4 2.2-21.9 4.4v6c6-1.5 12.6-1.7 18.3-1.7 12.8 0 15.1 4.1 15.1 15.6v8.9l-18.5 3c-9.5 1.6-22.1 5.4-22.1 20.3 0 12.4 8.6 20.3 22 20.3 7.8 0 14.6-2.8 19.8-8.2v6.6h20.5v-5.2l-11.2-1.5zm-10.4-6.2c-3.6 4-9.8 6.6-15.8 6.6-9.3 0-14.3-4.6-14.3-13.3 0-8.4 4.3-12.4 14.5-13.3l15.6-1.2v21.2zM124.9 401.9l-33.2-94.7h-9.1l-33.8 94.7-9.3 1.7v5.2h30.1v-5.2l-11.8-1.7 9.1-25.9H104l8.9 25.9-11.7 1.7v5.2h32.9v-5.2l-9.2-1.7zm-55.4-33l16.3-46.3 15.9 46.3H69.5zM360.1 180.8h-43.6c-37.7 0-46.6-21.6-48-37.5V58.7c-11.7 3-20.7 12.5-23 24.5h-35.2a31.5 31.5 0 0 0-23-24.5V210c11.7 12 18.9 28.3 18.9 46.4v1.6h-18.8v.1c-10.7.2-19.2 8.9-19.2 19.6l19.2.1h69.1c1.6-23.7 22.7-25 22.7-25 .1 0 13.9-.1 31.4-.1-6-7.4-8.7-15-8.7-25.2 0-13.4 6.1-25.4 15.8-33.2 2.7-2.2 5.1-1.8 6-1.8h8a38.08 38.08 0 0 0-23.2 35.2c0 13.2 6.6 24.3 16.6 31.1h-45.7l-.4.1h.1c-9.1 1-16.1 9.6-16.1 18.9h134v-60.1c0-22.6-13.8-36.9-36.9-36.9m-154.3-65.7c-2.8 0-5-2.2-5-5s2.2-5 5-5 5 2.2 5 5c0 2.7-2.2 5-5 5m21.8-10.6s15.8 18.9 15.8 31.1a15.86 15.86 0 0 1-15.8 15.8 15.83 15.83 0 0 1-15.1-20.5c3-11.8 15.1-26.4 15.1-26.4m22.1 10.6c-2.8 0-5-2.2-5-5s2.2-5 5-5 5 2.2 5 5c0 2.7-2.3 5-5 5M454.1 135.8H428c-13.9 0-25.2 11.3-25.2 25.2l.3 106.8h9.9c13.9 0 24.8-11.3 24.8-25.2l.1-73.6c0-28.3 16.2-33.2 16.2-33.2"/>
  <path class="st0" d="M393.6 177.1c-7-6.2-16.5-9.6-27.9-9.8v-.1l-18.8-.4v-22.3s10.4-5.2 16.6-16.8c6.2-11.6 5.1-30.3 5.1-30.3s8.8-1.9 8.8-9.7c0-9.9.1-30.6.1-30.6-9.8.2-14.4 11.4-14.4 11.4h-16.8s-4.2-11.1-14-11.4c0 0 .1 20.7.1 30.6 0 6.9 7.7 9.3 7.7 9.3-.5 2.7-7.1 5.3-11.2 5.3h-14.6s-3.1-.2-4.6-.2c-19.8 0-35.8 16-35.8 35.8 0 19.8 16 36.2 35.8 36.2 1.4 0 13.6.5 31.8.2l23 .5v.1c15.4 0 26.4 6.6 31.9 18.6v-10.6a8.2 8.2 0 0 0-2.8-5.8M366 78.4c2.3 0 4.2 1.9 4.2 4.2 0 2.3-1.9 4.2-4.2 4.2-2.3 0-4.2-1.9-4.2-4.2 0-2.4 1.9-4.2 4.2-4.2m-23.8 0c.4-.1.8-.2 1.3-.2 2.3 0 4.2 1.9 4.2 4.2 0 2.3-1.9 4.2-4.2 4.2-1.1 0-2-.4-2.8-1.1a4.1 4.1 0 0 1-1.4-3.1c0-1.9 1.3-3.5 2.9-4M236.8 135.6c0 5.2-4.2 9.3-9.3 9.3-5.2 0-9.3-4.2-9.3-9.3 0-5.2 4.2-9.3 9.3-9.3 5.2-.1 9.3 4.1 9.3 9.3"/>
</svg>
