<?xml version="1.0" encoding="utf-8"?>
<!-- Generator: Adobe Illustrator 23.0.1, SVG Export Plug-In . SVG Version: 6.00 Build 0)  -->
<svg version="1.1" id="Layer_1" xmlns="http://www.w3.org/2000/svg" xmlns:xlink="http://www.w3.org/1999/xlink" x="0px" y="0px"
	 viewBox="0 0 195.1 62.9" style="enable-background:new 0 0 195.1 62.9;" xml:space="preserve">
<style type="text/css">
	.st0{fill:#0A2A4F;}
</style>
<g>
	<path class="st0" d="M115.9,22.2l-7.6,15.9c-0.8,1.7-2.4,2.6-4.5,2.6H85.3c-2.1,0-2.8-1.6-1.9-3.3l7.2-15.1H97l-6.7,13.9
		c-0.2,0.4,0,0.6,0.4,0.6h11.1c0.7,0,0.9-0.2,1.1-0.7l6.7-13.8C109.5,22.2,115.9,22.2,115.9,22.2z M141.8,22.2h-17.7
		c-2.3,0-3.6,1-4.5,2.9l-5.8,12c-1,2,0,3.6,2.1,3.6h18c2.1,0,3.7-0.9,4.5-2.7l0.6-1.1H121c-0.4,0-0.5-0.2-0.3-0.6l1-2.2
		c0.2-0.5,0.6-0.7,1-0.7h14.8c2.3,0,3.7-1.1,4.3-2.4l2.3-4.8c0.3-0.8,0.5-1.3,0.5-1.8C144.7,23,143.5,22.2,141.8,22.2L141.8,22.2z
		 M138,26.6l-1.1,2.4c-0.2,0.4-0.5,0.6-1,0.6h-12l1.4-3c0.2-0.4,0.5-0.6,1-0.6h11.3C138,26,138.1,26.4,138,26.6z M168.1,26.6
		l-1.2,2.5c-0.2,0.5-0.5,0.6-1,0.6h-12.3l1.5-3c0.2-0.5,0.5-0.7,1.1-0.7h11.5C168.1,26,168.2,26.4,168.1,26.6L168.1,26.6z
		 M174.4,26.1c0.3-0.8,0.5-1.3,0.5-1.8c0-1.4-1.1-2.1-2.9-2.1h-18.1c-2.3,0-3.6,1-4.5,2.9L142,40.7h6.3l3.1-6.5
		c0.2-0.5,0.6-0.7,1-0.7h7.8c0.5,0,0.8,0.1,0.9,0.6l2.6,6.6h6.1l-2.9-7.3l0.5,0c2.4-0.2,3.9-1.2,4.8-2.9L174.4,26.1L174.4,26.1z
		 M81.3,22.2H62.9c-2,0-3.4,0.8-4.2,2.7l-0.6,1.2h18.4c0.5,0,0.6,0.3,0.4,0.6l-1,2c-0.2,0.5-0.5,0.7-1,0.7H59.3
		c-1.7,0-3.2,0.9-3.9,2.4l-2.6,5.4c-0.9,2,0,3.5,2.1,3.5h18.6c2,0,3.6-0.9,4.5-2.6l5.8-12c0.3-0.8,0.5-1.3,0.5-1.8
		C84.1,23,83,22.2,81.3,22.2L81.3,22.2z M72.4,36.2c-0.2,0.4-0.4,0.6-1,0.6H59.8c-0.3,0-0.5-0.2-0.3-0.6l1.2-2.6
		c0.2-0.5,0.5-0.6,1-0.6H74L72.4,36.2L72.4,36.2z M51.1,22.2H32c-1.7,0-3.3,0.7-4.1,2.5l-7.7,16h23.2c2.3,0,3.7-1,4.4-2.5l1.6-3.3
		c0.3-0.6,0.5-1,0.5-1.6c0-1.2-0.9-1.9-2-2.1c0,0,0.7,0,1.3-0.2c1.5-0.4,2.4-1.1,3.1-2.5l1.1-2.4c0.3-0.8,0.5-1.3,0.5-1.8
		C53.9,23,52.8,22.2,51.1,22.2z M42.4,36.2c-0.2,0.4-0.5,0.6-1,0.6H29.1c-0.4,0-0.5-0.3-0.4-0.6l1.2-2.6c0.2-0.4,0.5-0.6,1-0.6h12.9
		L42.4,36.2L42.4,36.2z M47.1,26.5l-1,2.1c-0.2,0.4-0.5,0.6-1,0.6H32.1l1.3-2.8c0.2-0.4,0.5-0.6,1-0.6h12.3
		C47.2,25.9,47.2,26.2,47.1,26.5L47.1,26.5z"/>
</g>
</svg>
