<svg id="Layer_1" data-name="Layer 1" xmlns="http://www.w3.org/2000/svg" viewBox="0 0 271.51 299.39"><title>brooklyn</title><path d="M52.14,271.42a140.47,140.47,0,0,0,167.21-.24V53.27A140.45,140.45,0,0,0,52.14,53Z" fill="#fff"/><path d="M135.58,299.39a139.43,139.43,0,0,1-83.73-27.56l-.21-.15V52.77l.21-.15a140.93,140.93,0,0,1,167.8.25l.2.15V271.43l-.2.15A139.38,139.38,0,0,1,135.58,299.39ZM52.64,271.17a140,140,0,0,0,166.21-.24V53.52a140,140,0,0,0-166.21-.25Z" fill="#122b4e"/><path d="M54.94,269.55a134.1,134.1,0,0,0,161.61-.24V55.5a134.16,134.16,0,0,0-161.61-.25Z" fill="#122b4e"/><path d="M89.17,282.61l.6-2.76-2-.7-1.35,2.48-2-.71,7.1-12.65,2.37.85-2.62,14.27Zm2.33-10.38-2.78,5.21,1.46.53Z" fill="#fff"/><path d="M94.13,284.22l3.79-13.81,2.2.61-3.25,11.82,3.18.87-.55,2Z" fill="#fff"/><path d="M105.52,287.26a3.3,3.3,0,0,1-2.73-4l1.57-7.84a3.3,3.3,0,0,1,4.07-2.68,3,3,0,0,1,2.54,3.86l-.41,2-2-.4.41-2.06a1.18,1.18,0,0,0-2.31-.49L105,283.88a1.19,1.19,0,0,0,2.33.44l.41-2.09,2,.4-.41,2A3,3,0,0,1,105.52,287.26Z" fill="#fff"/><path d="M115.13,288.83a3.23,3.23,0,0,1-2.95-3.81l1-8a3.42,3.42,0,0,1,6.78.89l-1,8A3.23,3.23,0,0,1,115.13,288.83Zm2.61-11.36a1.12,1.12,0,1,0-2.21-.29l-1.09,8.31a1.12,1.12,0,1,0,2.22.29Z" fill="#fff"/><path d="M126.48,289.69l.44-6-2.4-.18-.44,6-2.27-.16,1-14.28,2.27.17-.45,6.19,2.4.18.45-6.2,2.27.17-1,14.28Z" fill="#fff"/><path d="M135.36,290.35a3.24,3.24,0,0,1-3.32-3.49l.22-8a3.42,3.42,0,0,1,6.84.19l-.23,8A3.22,3.22,0,0,1,135.36,290.35Zm1.44-11.57a1.12,1.12,0,1,0-2.23-.06l-.24,8.38a1.12,1.12,0,1,0,2.24.06Z" fill="#fff"/><path d="M142.33,290.09l-.9-14.29,2.27-.14.77,12.23,3.29-.21.13,2.06Z" fill="#fff"/><path d="M155.37,276.23l.74,4.06,2.44-.45.35,1.93-2.43.44,1.12,6.16-2.24.41-2.58-14.09,5.48-1,.36,1.94Z" fill="#fff"/><path d="M169.18,285.75c-.85.23-1.4-.52-1.69-1.6l-.79-3a.93.93,0,0,0-1.16-.78l-1.08.29,1.55,5.84-2.21.58-3.67-13.84,3.54-.94a2.58,2.58,0,0,1,3.44,2l.65,2.46a2,2,0,0,1-.79,2.3,2,2,0,0,1,1.86,1.55l.75,2.83a2.22,2.22,0,0,0,.79,1.3l.16.62ZM165,275c-.16-.58-.47-.84-1-.7l-1.14.31L164,279l1.06-.28c.54-.14.75-.53.57-1.2Z" fill="#fff"/><path d="M173.41,284.41l-4.68-13.53,5.4-1.87.66,1.91L171.54,272l1.3,3.74,2.25-.78.62,1.79-2.26.78,1.43,4.12,3.25-1.12.68,2Z" fill="#fff"/><path d="M181.72,281.4l-5.57-13.19,5.26-2.23.79,1.86L179,269.18l1.54,3.65,2.2-.93.74,1.74-2.2.93,1.7,4,3.17-1.34.81,1.92Z" fill="#fff"/><path d="M135.76,264.7A128.94,128.94,0,1,0,6.81,135.76a128.93,128.93,0,0,0,129,128.94" fill="#122b4e"/><path d="M135.76,226.37a90.61,90.61,0,1,0-90.62-90.61,90.6,90.6,0,0,0,90.62,90.61" fill="#00a76b"/><path d="M135.76,229.38a93.63,93.63,0,1,1,93.62-93.62A93.73,93.73,0,0,1,135.76,229.38Zm0-181.21a87.59,87.59,0,1,0,87.58,87.59A87.69,87.69,0,0,0,135.76,48.17Z" fill="#fff"/><path d="M24.32,156.22a19.39,19.39,0,1,0-19.39-19.4,19.4,19.4,0,0,0,19.39,19.4" fill="#9a8348"/><path d="M24.32,156.79a20,20,0,1,1,19.94-20A20,20,0,0,1,24.32,156.79Zm0-38.77a18.82,18.82,0,1,0,18.81,18.8A18.83,18.83,0,0,0,24.32,118Z" fill="#122b4e"/><path d="M247.12,156.22a19.39,19.39,0,1,0-19.4-19.4,19.39,19.39,0,0,0,19.4,19.4" fill="#9a8348"/><path d="M135.76,224.16a88.41,88.41,0,1,1,88.39-88.4A88.51,88.51,0,0,1,135.76,224.16Zm0-175.35a87,87,0,1,0,86.93,86.95A87,87,0,0,0,135.76,48.81Z" fill="#231f20"/><path d="M135.76,271.52C60.9,271.52,0,210.62,0,135.76S60.9,0,135.76,0,271.51,60.9,271.51,135.76,210.61,271.52,135.76,271.52Zm0-270c-74,0-134.25,60.22-134.25,134.25S61.73,270,135.76,270,270,209.78,270,135.76,209.78,1.51,135.76,1.51Z" fill="#231f20"/><path d="M135.76,270.76a135,135,0,1,0-135-135,135,135,0,0,0,135,135" fill="#fff"/><path d="M135.76,271.52C60.9,271.52,0,210.62,0,135.76S60.9,0,135.76,0,271.51,60.9,271.51,135.76,210.61,271.52,135.76,271.52Zm0-270c-74,0-134.25,60.22-134.25,134.25S61.73,270,135.76,270,270,209.78,270,135.76,209.78,1.51,135.76,1.51Z" fill="#122b4e"/><path d="M135.76,264.7A128.94,128.94,0,1,0,6.81,135.76a128.93,128.93,0,0,0,129,128.94" fill="#122b4e"/><path d="M135.76,226.37a90.61,90.61,0,1,0-90.62-90.61,90.6,90.6,0,0,0,90.62,90.61" fill="#122b4e"/><path d="M135.76,229.38a93.63,93.63,0,1,1,93.62-93.62A93.73,93.73,0,0,1,135.76,229.38Zm0-181.21a87.59,87.59,0,1,0,87.58,87.59A87.69,87.69,0,0,0,135.76,48.17Z" fill="#fff"/><path d="M24.32,156.22a19.39,19.39,0,1,0-19.39-19.4,19.4,19.4,0,0,0,19.39,19.4" fill="#fff"/><path d="M24.32,156.79a20,20,0,1,1,19.94-20A20,20,0,0,1,24.32,156.79Zm0-38.77a18.82,18.82,0,1,0,18.81,18.8A18.83,18.83,0,0,0,24.32,118Z" fill="#122b4e"/><path d="M215.68,171.76c-8.52,1.65-17.47,1-25.94-.1-2.86-.37-10.8-2.28-12.5-2.28-1.05,0-5.67,5.85-6.88,6.86-3.87,3.26-8.1,7-12.47,9.54-6.67,3.82-14.15,7.78-22,10.17-24,7.26-53,2.94-65.35-12.8-5.23-6.71-8-17.53-3.26-27.58.15-.3.71-1.15,1-1.63a19.92,19.92,0,0,1,1.32-2c11-15.44,36.18-17.07,60.07-13.13,2.86-4.87,4.51-10.71,6.58-16.41,3.92-10.82,9.09-20.7,16.59-28.06,2.4-2.39,6-5.34,9.68-6.39,4.21-1.23,9.09-.4,9,2.14-4.87,3.46-8.71,6.16-11.65,12.61-3.94,8.65,3.51,1.91,6.59,0,4.68-2.89,12-12.4,6.55-20-5.92-8.33-24.76-5.84-28.57,3.28-1.59,3.75,1.08,5.29,2.64,6.23l.85.52s-.32,1.43-.54,2c-2.54,7.68-12.44,19.39-22,11.89a12.48,12.48,0,0,1-4.58-7.57c-.94-6.15,1.67-10.45,3.46-13.94,9.29-18.14,41.2-28.13,61.5-12.65,12.52,9.52,9,29-1.93,37.76-4,3.16-9,5.27-13.79,7.53,9.67,7,19.16,15.56,15.44,33.16,0,.13-1.32,5.58-1.32,5.58,9.39,4.63,21.82,6.08,35.05,5.26Zm-64.05-46.69c-2.53,4.07-3.49,9.36-6,14.92-2.05,4.34-.2,3.54,3.44,4.77,3.9,1.29,9,2.85,13.12,3.93,6.75-11.54,2.21-21.91-10.51-23.62m-38.08,28.87c-4.6.25-8.81,1.18-11.81,3.26a15.26,15.26,0,0,0-4.26,4.62,6.73,6.73,0,0,0,1,7.23c9.5,10.4,22.13-6.67,23.65-14.77a59.38,59.38,0,0,0-8.54-.34m24.63,3.61c-3.63,5.1-5.76,9.51-10.35,13.63a87.87,87.87,0,0,1-7.39,5.74c11.69-.83,25.57-7.64,31.51-15.43-4.54-1.24-8.77-3.18-13.77-3.94" fill="#fff"/><path d="M31.91,71.17c-.36-.27-.69-.34-1.47.55L30,71.36,40.81,57.2c3.06-4,6.79-5.8,10.46-3,2.22,1.69,2.47,4.25,1.33,6.68l.08.05c2.56-2,5.28-2.79,8-.69,3,2.28,3.78,6.43-.26,11.72L49.52,86.29l-.45-.35c.63-1,.45-1.28.14-1.53Zm10.49-.8,3.86-5c2.43-3.21,2.84-4.19,1.36-5.33s-2.32-.48-4.77,2.71L39,67.78Zm8.25,6.3,4.81-6.32c2-2.57,2.2-4.06.55-5.31s-3-.68-5,1.91l-4.83,6.32Z" fill="#fff"/><path d="M71.8,58.74c.27.32.58.49,1.57-.12l.33.44L66,64.86l-.32-.43c.86-.78.75-1.13.52-1.48L53.09,45.59c-.25-.33-.57-.51-1.55.11l-.35-.43L64.83,35c5.52-4.18,9.33-4,12.55.23,2.59,3.43,1.74,7-.7,10.13l9,2.86a1.58,1.58,0,0,0,1.6-.13l.34.43-7.74,5.89-.35-.46c.51-.43.66-.83.32-1.28s-8.11-2.49-9.17-2.92l-3.67,2.77ZM64.1,48.5l6.25-4.7c2.19-1.67,2.14-3.16,1.31-4.24s-2.22-1.53-4.39.14L61,44.41Z" fill="#fff"/><path d="M108.7,27.18c3,7.57-1.57,14.1-9,17s-15.16,1.28-18.16-6.31,1.57-14.13,9-17.07,15.15-1.25,18.17,6.38M88,35.31c1.61,4.08,5.88,5.09,9.65,3.59s6.23-5.11,4.6-9.19-5.87-5.07-9.65-3.6-6.2,5.11-4.6,9.2" fill="#fff"/><path d="M138.91,23.88c.84,8.16-5.31,13.2-13.21,14s-15-2.89-15.8-11,5.34-13.17,13.22-14,15,2.89,15.79,11m-22.12,2.26c.45,4.38,4.27,6.5,8.3,6.06S132.47,29,132,24.61s-4.29-6.47-8.33-6.07-7.37,3.25-6.92,7.6" fill="#fff"/><path d="M157.64,39.39l.12-.56c.55.09.89.15,1-.45s-4.21-9.62-4.7-10.88l-5.21,3.27-.93,5.53c-.1.44,0,.76,1.13,1.08l-.07.53-9.5-1.61.08-.55c1.18.1,1.38-.2,1.44-.6l3.65-21.49c.08-.41,0-.76-1.15-1.06l.09-.54,9.51,1.61-.11.57c-1.16-.12-1.35.18-1.42.6l-1.43,8.28.35.06c4.28-3,10.38-6.46,10.47-7s-.23-.61-.73-.75l.1-.54,11.69,2-.09.57c-1.22-.11-1.5.24-2.83,1L160,24l7,15.65a1.43,1.43,0,0,0,1.33,1l-.07.53Z" fill="#fff"/><path d="M178.31,40.4l14.41,7.07c.48.22.76.11,1.34-.79l.5.22L191,54.3l-.51-.25c.32-.93.24-1.22-.22-1.45L168.32,41.87l.23-.5c1.12.42,1.36.2,1.56-.2l9.57-19.56c.21-.38.21-.73-.8-1.32l.26-.5L187.8,24l-.26.51c-1.1-.44-1.35-.2-1.56.15Z" fill="#fff"/><path d="M215.75,42l7,5.52-.34.43a1.73,1.73,0,0,0-1.43,0L206.1,52.28l-5.64,7.14c-.27.33-.37.67.49,1.48l-.34.44-7.55-6,.33-.43c1,.66,1.28.49,1.56.14L200,48.62,201,33.05c.12-1.75.09-1.95-.23-2.22l.33-.44,8.08,6.37-.35.44c-.44-.33-.95-.68-1.23-.26s-.62,6.6-.85,9.41c1-.42,8.86-2.48,9.17-2.83s-.15-.84-.48-1.1Z" fill="#fff"/><path d="M224.07,50.91c.31-.26.5-.56-.15-1.56l.44-.33L231.22,58l-.41.33c-.71-.81-1.06-.86-1.3-.66s-2.26,12-3.09,16.75l9.83-7.63c.47-.34.43-.77.08-1.27l.46-.33L242,71.89l-.44.34c-.79-.87-1.13-.79-1.47-.51L222.84,85c-.32.27-.49.57.16,1.56l-.46.35-5.44-7,.44-.33c.53.65.82.7,1.08.52.48-.37.24-1.65,3.63-19.86l-11.62,9c-.33.25-.51.56.14,1.54l-.44.34-5.45-7,.46-.35c.79.9,1.13.78,1.47.53Z" fill="#fff"/><path d="M50.72,190.58c.31-.29.47-.6-.21-1.56l.45-.37L62.3,202.38c3.27,3.9,4.14,7.91.59,10.88-2.19,1.8-4.69,1.47-6.79-.2l-.09.05c1.38,2.95,1.54,5.79-1.13,8-2.88,2.38-7.11,2.25-11.36-2.86L32,204.36l.42-.37c.83.83,1.18.75,1.5.48ZM49.12,201l4.09,4.91c2.53,3.09,3.42,3.71,4.85,2.53s1-2.19-1.57-5.29l-4.05-4.88Zm-8,6.63,5.08,6.12c2.12,2.52,3.5,3.05,5.07,1.74s1.34-2.79-.73-5.32L45.46,204Z" fill="#fff"/><path d="M62.75,233.93c-.26.35-.31.68.6,1.42l-.31.49-7.95-5.45.31-.48c1,.57,1.32.4,1.56,0l12.32-18c.25-.34.31-.68-.59-1.43l.3-.45,14.13,9.66c5.71,3.94,6.76,7.59,3.74,12-2.42,3.52-6.06,3.84-9.84,2.55l.15,9.51a1.49,1.49,0,0,0,.65,1.45l-.32.49-8-5.51.32-.46c.56.32,1,.35,1.32-.11S70.9,231.2,71,230l-3.78-2.58ZM70,223.37l6.51,4.43c2.26,1.56,3.65,1,4.41-.08s.76-2.59-1.5-4.15l-6.5-4.46Z" fill="#fff"/><path d="M105,246.47l-.53-.17a1.25,1.25,0,0,0-1-1.48L95.23,242l-1.42,4.09L108,251c.5.17.76,0,1.27-1l.53.18-2.66,7.7-.52-.2c.11-.79,0-1.08-.47-1.24l-22-7.65.16-.53c1.16.29,1.4,0,1.54-.37l7.12-20.58c.12-.4.11-.75-1-1.21l.16-.55,22.06,7.65c.5.17.73,0,1.24-1l.52.17-2.66,7.69-.53-.19c.22-1.06.11-1.34-.38-1.5l-14.18-4.92L97,237.12l8.19,2.84a1.26,1.26,0,0,0,1.67-.54l.52.16Z" fill="#fff"/><path d="M122.26,259.44v-.55c.51-.09.95-.2.95-.8,0-.33-7.13-21.3-7.37-22.15-.11-.38-.33-.51-.47-.51v-.55l8.55,0v.56c-.55.12-1,.2-1,.73s3.44,10.63,4.64,14.43h.08c1.12-3.52,4.31-14,4.31-14.47s-.6-.58-1-.7v-.55l11.1,0v.55c-.41.15-.77.23-.77.71,0,.27,3.3,11.37,4,14.45h.09c.55-2.25,4.52-13.79,4.52-14.39s-.49-.66-1-.78v-.58h7.9v.55a.9.9,0,0,0-.8.87c-.18.82-7.29,21.42-7.29,22s.54.61,1,.64v.55l-9.74,0v-.56c.64-.1.92-.28.92-.67,0-1.49-2.8-10.07-4.53-16.35h-.09c-1.55,5.43-4.92,15.53-4.91,16.41,0,.36.42.62,1,.62v.56Z" fill="#fff"/><path d="M179.52,242l-.52.18a1.32,1.32,0,0,0-1.71-.57l-8.21,2.82,1.42,4.11,14.18-4.83c.5-.18.59-.45.36-1.59l.51-.19,2.62,7.68-.51.18c-.4-.67-.65-.86-1.14-.67l-22.09,7.51-.16-.54c1.06-.47,1.06-.83,1-1.24l-7-20.62c-.14-.36-.38-.66-1.5-.35l-.17-.55,22.05-7.51c.51-.17.59-.45.41-1.49l.51-.19,2.61,7.69-.53.16c-.46-1-.73-1.11-1.2-1l-14.21,4.83,1.23,3.68,8.27-2.79a1.24,1.24,0,0,0,.94-1.48l.56-.18Z" fill="#fff"/><path d="M201.3,239.05c.23.39.54.55,1.55,0l.3.46-7.9,5.49-.31-.48c.91-.71.82-1.08.58-1.41l-12.36-17.91c-.25-.36-.56-.55-1.57,0l-.32-.47L195.33,215c5.7-3.94,9.49-3.63,12.53.75,2.47,3.57,1.44,7-1.13,10.13l9,3.25a1.53,1.53,0,0,0,1.57-.1l.34.46-8,5.54-.31-.47c.52-.4.69-.8.35-1.28s-8-2.82-9-3.28l-3.77,2.6ZM194,228.54l6.44-4.47c2.28-1.57,2.28-3,1.5-4.18s-2.17-1.6-4.42,0l-6.44,4.48Z" fill="#fff"/><path d="M215.23,195.08l5.67-6.8.43.33c-.29.35-.17.87-.06,1.39l4,15,7,5.82c.35.29.7.37,1.53-.48l.42.37-6.15,7.4-.43-.34c.66-1,.51-1.29.19-1.56L221.51,211l-15.57-1.32c-1.74-.16-1.95-.13-2.19.18l-.46-.37,6.58-7.91.43.35c-.34.44-.71.94-.31,1.25s6.6.77,9.4,1.08c-.41-1-2.29-8.95-2.64-9.22s-.83.1-1.09.43Z" fill="#fff"/><path d="M135.76,224.16a88.41,88.41,0,1,1,88.39-88.4A88.51,88.51,0,0,1,135.76,224.16Zm0-175.35a87,87,0,1,0,86.93,86.95A87,87,0,0,0,135.76,48.81Z" fill="#122b4e"/><path d="M183.39,179.92a3.34,3.34,0,1,1-3.32-3.54,3.35,3.35,0,0,1,3.32,3.54m-3.32,4.71a4.72,4.72,0,1,0-4.9-4.71,4.67,4.67,0,0,0,4.9,4.71m-.75-4.3h.4l1.16,2.14h1.18l-1.28-2.24c.87,0,1.4-.38,1.4-1.31,0-1.22-.78-1.56-2.13-1.56h-1.92v5.11h1.19Zm0-.93v-1.13H180c.38,0,.95,0,.95.51s-.26.62-.69.62Z" fill="#fff"/><path d="M247.12,156.22a19.39,19.39,0,1,0-19.4-19.4A19.39,19.39,0,0,0,247.12,156.22Z" fill="#fff"/><path d="M247.12,156.79a20,20,0,1,1,19.93-20A20,20,0,0,1,247.12,156.79Zm0-38.77a18.82,18.82,0,1,0,18.8,18.8A18.84,18.84,0,0,0,247.12,118Z" fill="#122b4e"/></svg>