<svg id="Lager_1" xmlns="http://www.w3.org/2000/svg" viewBox="0 0 269.8 238">
  <style>
    .st0{fill:#0A2A4F;}
  </style>
  <path class="st0" d="M57.4 205.1c-.3.7-.8 1.9-1.8 3.1a9.2 9.2 0 0 1-7.1 3.2c-5.5 0-9.6-4-9.6-10.9 0-7 4.5-10.8 9.8-10.8 6.4 0 7.9 4.9 8.4 6.4l-3.9 1c-.1-.4-.2-1.3-.8-2-.4-.6-1.6-1.8-3.7-1.8-3.4 0-5.7 2.8-5.7 7.2 0 4.7 2.5 7.3 5.7 7.3 1.9 0 3.1-.9 3.9-2 .7-.9.9-1.7 1.1-2.1l3.7 1.4zM73.2 206.8h-7.7l-1.2 4h-4.1l6.9-20.6h4.4l7 20.6h-4.1l-1.2-4zm-1-3.3l-2.8-9.5-2.9 9.5h5.7zM84.2 204.7c.5.8 2 3.1 6.4 3.1.7 0 1.5-.1 2.2-.3 1.5-.6 1.8-1.7 1.8-2.4 0-1.3-.9-1.8-1.5-2-.5-.2-.5-.2-2.4-.6l-2.5-.5c-1.3-.3-2-.5-2.6-.7-.9-.4-3.5-1.6-3.5-5.1 0-3.9 3.3-6.4 8.1-6.4 4.4 0 6.8 2.2 8.3 4.2l-3.2 2.4c-.7-1-2-3.1-5.3-3.1-2.1 0-3.9.9-3.9 2.5 0 1.8 1.9 2.1 3.8 2.5l2.1.5c2.8.6 6.7 1.7 6.7 6.1 0 4.7-4.4 6.6-8.8 6.6-1.1 0-2.4-.1-3.7-.5-1.4-.4-3.8-1.4-5.3-3.9l3.3-2.4zM117 193.7h-5.7v17.1h-3.9v-17.1h-5.6v-3.5H117v3.5zM125.1 193.7v4.8h9.9v3.3h-9.9v5.5h11.6v3.5h-15.4v-20.6H136v3.4h-10.9zM146.3 207.3h8.2v3.5h-12.1v-20.6h3.9v17.1zM162.4 207.3h8.2v3.5h-12.1v-20.6h3.9v17.1zM191.1 190.2v13c0 2.3 0 4.3-2.2 6.1-2.1 1.8-4.8 2-6.2 2-1.3 0-2.5-.1-3.6-.6-2.5-.8-3.8-2.6-4.2-4.2-.3-.9-.3-1.5-.3-4.1v-12.3h3.9v12.7c0 .9 0 1.7.3 2.5.8 2 2.9 2.2 4.2 2.2.6 0 2.2 0 3.3-1 1.1-1 1.1-2.2 1.1-3.9v-12.5h3.7zM217.5 190.2v20.6h-3.8l.4-16.9-4.4 16.9h-3.5l-4.5-16.9.4 16.9h-3.8v-20.6h5.6l4 15.3 3.9-15.3h5.7zM84.7 87.4s0-.1 0 0C83.4 82 85 76.1 90.5 70c.6-.7 1.3-1.4 2.1-2 18.2-17 60.6-16.9 84.9-8.1L196.7 34s-28.2-11-66-9.2C105.5 26 54.5 36.4 54.5 70c0 30.8 50.3 45.3 76.3 46.4 6 .3 20.5.9 28.5-.1-22.6.3-44.6-4.4-58.8-12.2-.5-.3-1-.5-1.4-.8-1.4-.8-2.8-1.7-4-2.6a7 7 0 0 1-1-.8c-1.2-.9-2.3-1.8-3.3-2.8l-.7-.7c-.8-.8-1.5-1.6-2.1-2.4-.2-.3-.4-.5-.6-.8-.5-.8-1-1.6-1.4-2.4 0-.1-.1-.1-.1-.2-.6-1-.9-2.1-1.2-3.2z"/>
  <path class="st0" d="M84.7 87.3s0 .1 0 0c.3 1.2.7 2.3 1.2 3.4 0 .1.1.1.1.2 5-15.5 39.3-33.1 91.6-17.5l19.2-26.1v-6.7l-19.2 26.1c-29.3-10.5-84.7-9.1-92.9 20.6z"/>
  <path class="st0" d="M90.3 96.7c11.4-12.8 42.6-23.4 87.2-10l19.2-26.1V54l-19.2 26c-26.9-9.7-76.1-9.8-89.9 13.5.2.3.4.5.6.8.5.8 1.3 1.6 2.1 2.4z"/>
  <path class="st0" d="M99 103.4c15.3-9.2 42.7-14.2 78.5-3.5l19.2-26.1v-6.7l-19.2 26.1C153.9 84.6 113 84.1 94 100c.3.3.7.5 1 .8 1.2.9 2.6 1.7 4 2.6z"/>
  <path class="st0" d="M140.7 125.4c-45.9 0-81.5-21.9-85.8-40.8-.3-1-.4-.7-.4-.3v7.1c0 15.9 32.8 42.3 86 42.3 27.3 0 41.1-3.9 56.2-7.7v-8.3c-14.8 3.6-29.9 7.7-56 7.7z"/>
  <path class="st0" d="M54.9 101.4c-.5-1.7-.4.2-.4.2v6.5c0 15.9 32.8 42.3 86 42.3 27.3 0 41.1-3.9 56.2-7.7v-8.3c-14.8 3.5-29.9 7.7-56 7.7-45.8 0-81.4-21.8-85.8-40.7z"/>
  <path class="st0" d="M54.9 118.1c-.3-1.1-.4-.8-.5-.4v7.1c0 15.9 32.8 42.3 86 42.3 27.3 0 41.1-3.9 56.2-7.7v-8.3c-14.8 3.6-29.9 7.7-56 7.7-45.7 0-81.3-21.8-85.7-40.7z"/>
</svg>
