<svg id="Lager_1" xmlns="http://www.w3.org/2000/svg" width="882" height="434">
  <style>
    .st0{fill:#0A2A4F;}
  </style>
  <path class="st0" d="M151.8 192c1.8-3.4 3.4-7.1 5.6-10.3 3.3-4.8 6.3-9.9 10.6-13.7 10-8.8 23.1-7.1 30.9 3.8 3.3 4.5 5.6 9.8 8.2 14.8 2.3 4.4 4.2 9.1 6.8 13.3 5.6 9.2 12.9 11.7 23.1 7.9 8.6-3.2 15.4-9.1 19.6-17 5.3-9.8 9.7-20.1 14.2-30.3 7.6-17.3 18.2-31.7 37.4-36.8 7.1-1.9 14.8-1.9 22.2-1.4 7.6.5 12.7 5.5 14.8 12.9 1.6 5.8 2.9 11.6 4.2 17.5 3.9 17.5 17.3 26.6 35.2 23.8 11.4-1.8 20.8-7.9 29.6-14.9 2.6-2.1 5.1-4.3 7.5-6.6 3.4-3.2 7.1-3.4 10.9-1.1 3.8 2.3 3.3 5.7 2.4 9.3l-6.6 23.9 1.2.6c3.1-4 6-8.2 9.4-11.9 4.7-5.1 9.2-10.6 14.8-14.7 16.5-11.9 34.9-5.8 41.5 13.3 1 2.8 1.7 5.7 2.8 8.5 2.4 6.6 4.8 13.1 7.3 19.7 4.1 11.2 16.1 14.9 25.7 13.9 15.8-1.7 28.1-10 38.3-21.6 7.7-8.7 14.4-18.1 19.1-29.1 5.7-13.4 14.3-25.2 28.2-31 6-2.5 13.2-3.2 19.8-3.1 9.3.2 15.3 6.1 19.5 14.2 6.2 12 13 23.7 19.5 35.4.5 1 1.4 1.7 3.1 3.7 2.2-2.6 4.1-5.1 6.3-7.3 12.8-12.9 27.2-22.9 45.6-26.1.9-.2 2-.6 2.6-1.3 10.5-12.8 24.9-20.5 38.5-29.1 5.7-3.6 11.8-7 18.1-9.4 10.9-4.2 22.1-.7 27.2 7.5 3.6 5.8 3.5 12-.7 16.8-4.6 5.3-10 10.5-16.1 13.6-15.6 7.9-32.7 11.2-50.2 12-8.5.4-11.3 5.3-7.3 13.1 5.2 10.2 14.3 15.2 25.1 17 15.5 2.6 30.4-.4 45.4-4.2 20-5.1 36.2-16.4 52-28.8 2.7-2.1 6.4-3.7 9.8-4 2.2-.2 5.5 1.9 6.6 3.9.9 1.7-.5 4.8-1.4 7.1-.5 1.3-2 2.2-3.2 3.1-30.4 24.9-65 38.1-104.6 36.8-15-.5-27.9-5.8-38.1-17.1-5.7-6.3-6.4-7.9-8.9-21.3-4.3 1.9-9 3-12.5 5.7-8 6.2-15.4 13.1-22.9 19.9-3.5 3.1-3.4 6.7-1.3 10.8 7.6 15.2 15.5 30.2 22.4 45.7 12.2 27.6 18.9 56.5 15.5 87-1.7 14.7-3.1 29.5-6.6 43.9-2.7 11-7.3 21.8-12.9 31.7-13.9 24.6-47.8 28.7-69.9 8.6-4.5-4-7.9-9.4-11-14.6-10.2-17.3-18-35.6-16.5-56.2.8-10.6 2.9-21.1 4.8-31.6 5.8-31.8 19.2-60.8 33.9-89.3 4.8-9.3 10.6-18.1 16.3-26.9 2.4-3.7 2.6-7 .3-10.6-3-4.8-6-9.5-9.6-15.3-1.3 3.1-2 5.2-3 7.2-3.4 7-7 14-10.5 21-7.9 16.1-36.1 21-50.4 3.7-2.1-2.5-4.1-5.2-5.9-7.6-6.1 5.5-11.6 11.5-18.2 16.2-14.3 10.3-30.6 14.8-48.1 12.7-14.8-1.8-24-11.3-29-25.1-3.3-9.2-6.3-18.6-9.5-27.9-2.6-7.6-7-9.7-14.2-6-4.2 2.2-8.4 5.2-11.2 8.9-11.5 14.9-22.5 30.1-33.7 45.3-.6.8-1.1 1.7-1.7 2.5-3.5 4.6-8 6.5-11.6 4.5-4.7-2.6-4.6-6.8-3.5-11.3 3.4-13.2 6.7-26.4 10-39.7-6.6 2.7-13.1 5.9-19.9 8.1-20.9 6.6-45 .5-56.3-21-.5-.9-1.1-1.7-2.2-3.4-1.3 2.3-2.3 4.1-3.2 5.9-5.4 10.9-13.4 19.5-24.1 25.3-12.5 6.8-23.7 5-35-5.1-2.6 4.1-5 8.1-7.7 12.1-8.9 12.9-21.3 19.7-37 20.4-14.2.7-23.7-6.6-30.3-18.2-3.9-6.9-6.9-14.4-10.9-21.3-4.9-8.6-8.9-8.9-14.8-.9-9.8 13.2-15.6 28.2-18 44.5-.3 2.1-.4 4.4-1.2 6.3-.9 2.2-2.5 5.7-4 5.8-2.8.2-6.6-1-8.3-3-2.2-2.6-3.4-6.6-3.7-10.1-1.2-12.8-1.8-25.7-3.4-40.5-1 1.9-1.8 4-3.2 5.6-10.8 12.3-24.2 20-39.9 24.2-16.6 4.5-33.2 7.7-50.2 3.5-15.1-3.8-27.4-11.8-36.3-24.8-3.9-5.7-5.6-12.1-4.9-19 1.6-14.4 6.9-27 18.6-36.3 11.8-9.3 24.4-16.2 40.1-15.2 9.1.6 14.7 6 18.4 13.4.9 1.7-.2 5.4-1.6 6.9-1.2 1.2-4.5 1-6.6.4-1.9-.6-3.8-2.2-5.1-3.9-4.9-6-11.3-5.9-17.3-3.5-16.4 6.3-27.7 17.4-30.9 35.5-1.4 8.1.8 14.9 6.5 20.5C33.1 203.3 46.2 208 61 207.3c31.7-1.4 56.9-15.6 75.3-41.1 6.2-8.6 9.8-19.2 14.1-29.1 14.2-32.3 27.4-65.2 46.4-95.1 7.5-11.8 16.5-22.6 25.2-33.5 3.9-4.8 9.2-8.3 16-7.8 5.9.4 10 3.9 8.9 9.6-2 10.2-4.3 20.6-8.2 30.1-14.8 35.7-36.1 67.4-60.9 96.9-6.1 7.3-11.7 15-17.7 22.3-7.5 9.2-8.8 20.1-9.5 31.3.3.7.8.9 1.2 1.1zm523.9 19.4c-2 2.7-3.3 4.3-4.4 6.1-18 31.7-33.4 64.5-41.7 100.1-2.8 11.9-4.9 24.3-4.9 36.5 0 20.7 8.6 38.8 20.7 55.2 6.4 8.7 15.3 12.7 26.1 11.8 12.1-1 19.6-8.6 24.9-18.6 12.6-23.9 16.5-49.7 16.1-76.4-.5-31.4-9.7-60.6-23.2-88.7-4.2-8.5-8.8-16.7-13.6-26zm-77.2-26.1c.3 2.9.3 5 .8 7.1 1.2 6.3 4.4 11.4 10.8 13.2 6.8 1.9 13.4.2 17.4-5.7 9.9-14.8 15.8-30.8 10.9-49-1.6-6-4.7-7.9-10.7-6.7-2.5.5-5.3 1.4-7.3 3-13.2 9.6-20.2 22.7-21.9 38.1zm-268.2-49.4c-21.3-3.7-44.1 12.4-47.3 33-1.1 6.9 1.1 12.6 5.7 15.4 5.5 3.2 11.3 2.5 17-2.4 2.3-1.9 4.5-4.1 6.2-6.4 7.6-10.2 13.8-21.2 17.3-33.5.6-1.9.8-3.8 1.1-6.1zM174 120.3c23.5-30.7 45.1-62.5 56.4-100.1-25.5 29.5-43 63.7-56.4 100.1zm585.3 25.8c.2.4.4.8.6 1.3 13.3-2.5 26.7-4.6 38.7-11.6 1.6-.9 3.3-2.1 4.1-3.6 1.2-2.3 1.6-5 2.4-7.6-2.6-.3-5.5-1.5-7.9-.8-4.1 1.2-8 3.3-11.7 5.6-8.8 5.4-17.5 11.1-26.2 16.7z"/>
</svg>
