<?xml version="1.0" encoding="utf-8"?>
<svg version="1.1" id="Lager_1" xmlns="http://www.w3.org/2000/svg" xmlns:xlink="http://www.w3.org/1999/xlink" x="0px" y="0px"
	 width="882px" height="434px" viewBox="0 0 882 434" style="enable-background:new 0 0 882 434;" xml:space="preserve">
<style type="text/css">
	.st0{fill:#0A2A4F;}
</style>
<g>
	<path class="st0" d="M151.8,192c1.8-3.4,3.4-7.1,5.6-10.3c3.3-4.8,6.3-9.9,10.6-13.7c10-8.8,23.1-7.1,30.9,3.8
		c3.3,4.5,5.6,9.8,8.2,14.8c2.3,4.4,4.2,9.1,6.8,13.3c5.6,9.2,12.9,11.7,23.1,7.9c8.6-3.2,15.4-9.1,19.6-17
		c5.3-9.8,9.7-20.1,14.2-30.3c7.6-17.3,18.2-31.7,37.4-36.8c7.1-1.9,14.8-1.9,22.2-1.4c7.6,0.5,12.7,5.5,14.8,12.9
		c1.6,5.8,2.9,11.6,4.2,17.5c3.9,17.5,17.3,26.6,35.2,23.8c11.4-1.8,20.8-7.9,29.6-14.9c2.6-2.1,5.1-4.3,7.5-6.6
		c3.4-3.2,7.1-3.4,10.9-1.1c3.8,2.3,3.3,5.7,2.4,9.3c-2.2,8-4.4,15.9-6.6,23.9c0.4,0.2,0.8,0.4,1.2,0.6c3.1-4,6-8.2,9.4-11.9
		c4.7-5.1,9.2-10.6,14.8-14.7c16.5-11.9,34.9-5.8,41.5,13.3c1,2.8,1.7,5.7,2.8,8.5c2.4,6.6,4.8,13.1,7.3,19.7
		c4.1,11.2,16.1,14.9,25.7,13.9c15.8-1.7,28.1-10,38.3-21.6c7.7-8.7,14.4-18.1,19.1-29.1c5.7-13.4,14.3-25.2,28.2-31
		c6-2.5,13.2-3.2,19.8-3.1c9.3,0.2,15.3,6.1,19.5,14.2c6.2,12,13,23.7,19.5,35.4c0.5,1,1.4,1.7,3.1,3.7c2.2-2.6,4.1-5.1,6.3-7.3
		c12.8-12.9,27.2-22.9,45.6-26.1c0.9-0.2,2-0.6,2.6-1.3c10.5-12.8,24.9-20.5,38.5-29.1c5.7-3.6,11.8-7,18.1-9.4
		c10.9-4.2,22.1-0.7,27.2,7.5c3.6,5.8,3.5,12-0.7,16.8c-4.6,5.3-10,10.5-16.1,13.6c-15.6,7.9-32.7,11.2-50.2,12
		c-8.5,0.4-11.3,5.3-7.3,13.1c5.2,10.2,14.3,15.2,25.1,17c15.5,2.6,30.4-0.4,45.4-4.2c20-5.1,36.2-16.4,52-28.8
		c2.7-2.1,6.4-3.7,9.8-4c2.2-0.2,5.5,1.9,6.6,3.9c0.9,1.7-0.5,4.8-1.4,7.1c-0.5,1.3-2,2.2-3.2,3.1c-30.4,24.9-65,38.1-104.6,36.8
		c-15-0.5-27.9-5.8-38.1-17.1c-5.7-6.3-6.4-7.9-8.9-21.3c-4.3,1.9-9,3-12.5,5.7c-8,6.2-15.4,13.1-22.9,19.9
		c-3.5,3.1-3.4,6.7-1.3,10.8c7.6,15.2,15.5,30.2,22.4,45.7c12.2,27.6,18.9,56.5,15.5,87c-1.7,14.7-3.1,29.5-6.6,43.9
		c-2.7,11-7.3,21.8-12.9,31.7c-13.9,24.6-47.8,28.7-69.9,8.6c-4.5-4-7.9-9.4-11-14.6c-10.2-17.3-18-35.6-16.5-56.2
		c0.8-10.6,2.9-21.1,4.8-31.6c5.8-31.8,19.2-60.8,33.9-89.3c4.8-9.3,10.6-18.1,16.3-26.9c2.4-3.7,2.6-7,0.3-10.6
		c-3-4.8-6-9.5-9.6-15.3c-1.3,3.1-2,5.2-3,7.2c-3.4,7-7,14-10.5,21c-7.9,16.1-36.1,21-50.4,3.7c-2.1-2.5-4.1-5.2-5.9-7.6
		c-6.1,5.5-11.6,11.5-18.2,16.2c-14.3,10.3-30.6,14.8-48.1,12.7c-14.8-1.8-24-11.3-29-25.1c-3.3-9.2-6.3-18.6-9.5-27.9
		c-2.6-7.6-7-9.7-14.2-6c-4.2,2.2-8.4,5.2-11.2,8.9c-11.5,14.9-22.5,30.1-33.7,45.3c-0.6,0.8-1.1,1.7-1.7,2.5
		c-3.5,4.6-8,6.5-11.6,4.5c-4.7-2.6-4.6-6.8-3.5-11.3c3.4-13.2,6.7-26.4,10-39.7c-6.6,2.7-13.1,5.9-19.9,8.1
		c-20.9,6.6-45,0.5-56.3-21c-0.5-0.9-1.1-1.7-2.2-3.4c-1.3,2.3-2.3,4.1-3.2,5.9c-5.4,10.9-13.4,19.5-24.1,25.3
		c-12.5,6.8-23.7,5-35-5.1c-2.6,4.1-5,8.1-7.7,12.1c-8.9,12.9-21.3,19.7-37,20.4c-14.2,0.7-23.7-6.6-30.3-18.2
		c-3.9-6.9-6.9-14.4-10.9-21.3c-4.9-8.6-8.9-8.9-14.8-0.9c-9.8,13.2-15.6,28.2-18,44.5c-0.3,2.1-0.4,4.4-1.2,6.3
		c-0.9,2.2-2.5,5.7-4,5.8c-2.8,0.2-6.6-1-8.3-3c-2.2-2.6-3.4-6.6-3.7-10.1c-1.2-12.8-1.8-25.7-3.4-40.5c-1,1.9-1.8,4-3.2,5.6
		c-10.8,12.3-24.2,20-39.9,24.2c-16.6,4.5-33.2,7.7-50.2,3.5c-15.1-3.8-27.4-11.8-36.3-24.8c-3.9-5.7-5.6-12.1-4.9-19
		c1.6-14.4,6.9-27,18.6-36.3c11.8-9.3,24.4-16.2,40.1-15.2c9.1,0.6,14.7,6,18.4,13.4c0.9,1.7-0.2,5.4-1.6,6.9
		c-1.2,1.2-4.5,1-6.6,0.4c-1.9-0.6-3.8-2.2-5.1-3.9c-4.9-6-11.3-5.9-17.3-3.5c-16.4,6.3-27.7,17.4-30.9,35.5
		c-1.4,8.1,0.8,14.9,6.5,20.5C33.1,203.3,46.2,208,61,207.3c31.7-1.4,56.9-15.6,75.3-41.1c6.2-8.6,9.8-19.2,14.1-29.1
		c14.2-32.3,27.4-65.2,46.4-95.1c7.5-11.8,16.5-22.6,25.2-33.5c3.9-4.8,9.2-8.3,16-7.8c5.9,0.4,10,3.9,8.9,9.6
		c-2,10.2-4.3,20.6-8.2,30.1c-14.8,35.7-36.1,67.4-60.9,96.9c-6.1,7.3-11.7,15-17.7,22.3c-7.5,9.2-8.8,20.1-9.5,31.3
		C150.9,191.6,151.4,191.8,151.8,192z M675.7,211.4c-2,2.7-3.3,4.3-4.4,6.1c-18,31.7-33.4,64.5-41.7,100.1
		c-2.8,11.9-4.9,24.3-4.9,36.5c0,20.7,8.6,38.8,20.7,55.2c6.4,8.7,15.3,12.7,26.1,11.8c12.1-1,19.6-8.6,24.9-18.6
		c12.6-23.9,16.5-49.7,16.1-76.4c-0.5-31.4-9.7-60.6-23.2-88.7C685.1,228.9,680.5,220.7,675.7,211.4z M598.5,185.3
		c0.3,2.9,0.3,5,0.8,7.1c1.2,6.3,4.4,11.4,10.8,13.2c6.8,1.9,13.4,0.2,17.4-5.7c9.9-14.8,15.8-30.8,10.9-49c-1.6-6-4.7-7.9-10.7-6.7
		c-2.5,0.5-5.3,1.4-7.3,3C607.2,156.8,600.2,169.9,598.5,185.3z M330.3,135.9c-21.3-3.7-44.1,12.4-47.3,33
		c-1.1,6.9,1.1,12.6,5.7,15.4c5.5,3.2,11.3,2.5,17-2.4c2.3-1.9,4.5-4.1,6.2-6.4c7.6-10.2,13.8-21.2,17.3-33.5
		C329.8,140.1,330,138.2,330.3,135.9z M174,120.3c23.5-30.7,45.1-62.5,56.4-100.1C204.9,49.7,187.4,83.9,174,120.3z M759.3,146.1
		c0.2,0.4,0.4,0.8,0.6,1.3c13.3-2.5,26.7-4.6,38.7-11.6c1.6-0.9,3.3-2.1,4.1-3.6c1.2-2.3,1.6-5,2.4-7.6c-2.6-0.3-5.5-1.5-7.9-0.8
		c-4.1,1.2-8,3.3-11.7,5.6C776.7,134.8,768,140.5,759.3,146.1z"/>
</g>
</svg>
