<?xml version="1.0" encoding="utf-8"?>
<svg width="210" height="37" viewBox="0 0 210 37" xmlns="http://www.w3.org/2000/svg"><title>Collector</title><g fill="#092A4F" fill-rule="evenodd"><path d="M44.736 31.847c-5.73 0-9.63-4.85-9.63-9.85 0-4.95 3.85-9.8 9.63-9.8 5.778 0 9.63 4.85 9.63 9.75 0 5.25-4.1 9.9-9.63 9.9m0-24.4c-8.495 0-14.767 6.85-14.767 14.4 0 7 5.58 14.75 14.766 14.75 9.285 0 14.767-7.9 14.767-14.65 0-7.9-6.47-14.5-14.767-14.5M64.52 35.897h5.136V0H64.52M77.197 35.897h5.136V0h-5.136M178.094 31.847c-5.73 0-9.63-4.85-9.63-9.85 0-4.95 3.852-9.8 9.63-9.8 5.78 0 9.63 4.85 9.63 9.75 0 5.25-4.098 9.9-9.63 9.9m0-24.4c-8.495 0-14.765 6.85-14.765 14.4 0 7 5.58 14.75 14.764 14.75 9.285 0 14.768-7.9 14.768-14.65 0-7.9-6.47-14.5-14.768-14.5M202.695 10.696h-.1v-2.5h-4.79v27.7h5.135v-15.15c0-3.95 1.385-6.05 3.013-6.95 1.235-.65 2.914-1 3.705-1v-5.35c-1.285.05-4.792.15-6.963 3.25M14.767 12.196c3.488 0 6.268 1.774 7.928 4.254l3.895-3.174c-2.67-3.515-6.92-5.83-11.823-5.83C6.272 7.447 0 14.297 0 21.847c0 7 5.58 14.752 14.767 14.752 5.22 0 9.238-2.498 11.756-5.884l-3.85-3.137c-1.703 2.538-4.535 4.27-7.906 4.27-5.73 0-9.63-4.85-9.63-9.85 0-4.95 3.85-9.8 9.63-9.8M133.152 12.196c3.488 0 6.268 1.774 7.928 4.254l3.895-3.174c-2.67-3.515-6.92-5.83-11.823-5.83-8.495 0-14.768 6.85-14.768 14.4 0 7 5.58 14.752 14.768 14.752 5.22 0 9.24-2.498 11.755-5.884l-3.848-3.137c-1.706 2.538-4.537 4.27-7.908 4.27-5.73 0-9.63-4.85-9.63-9.85 0-4.95 3.85-9.8 9.63-9.8M92.496 20.297c.247-4.05 3.903-8.1 8.842-8.1 4.94 0 8.594 4.05 8.84 8.1H92.497zm8.892-12.85c-7.706 0-14.028 6.25-14.028 14.55 0 7.85 6.174 14.6 13.927 14.6 4.01 0 9.816-2.013 12.66-8.25h-5.4c-1.44 1.92-3.88 3.5-7.062 3.5-3.455 0-7.704-2.2-8.99-7.55h22.672c.048-.35.147-1.75.147-2.65-.05-8.1-6.518-14.2-13.926-14.2zM157.56 0h-5.136v8.26h-4.494v4.75h4.494v22.887h5.137v-22.95h4.494v-4.75h-4.493"/></g></svg>