<?xml version="1.0" encoding="utf-8"?>
<svg width="119" height="61" viewBox="0 0 119 61" xmlns="http://www.w3.org/2000/svg"><title>ICA</title><g fill="#092A4F" fill-rule="evenodd"><path d="M.002 2.373l14.712.08.002 57.287-14.714-.002S-.002 2.36.002 2.373M21.91 21.91c2.15-6.186 6.652-12.452 12.763-15.98 6.39-3.975 14.82-5.633 22.62-3.69 2.927.606 5.296 1.476 8.17 3.254.146.102.138.05.235.212l-7.22 12.512c-3.158-1.76-7.066-2.666-10.935-1.883-2.487.39-4.658 1.543-6.732 2.927-3.527 3.015-5.537 6.876-5.752 11.352-.06 3.033.666 5.824 2.14 8.276 3.36 5.407 9.46 8.18 15.804 7.306 4.42-.578 8.528-3.36 10.856-7.26l1.593-2.773L85.365.4l33.612 59.335h-16.918c-1.197-2.125-3.694-6.35-3.694-6.35l-16.768.004 5.72-10.453 5.11-.038-6.977-12.254-1.663 2.895-5.682 10.114c-3.063 5.818-8.515 11.66-14.654 14.343-6.497 3.31-15.85 3.715-22.877 1.24-5.05-1.67-9.99-4.86-13.368-9.26-5.278-6.596-7.42-13.588-6.326-22.704.177-1.485.64-3.962 1.03-5.363"/></g></svg>