<?xml version="1.0" encoding="utf-8"?>
<svg class="kappahl-logo" width="195" height="49" viewBox="0 0 195 49" xmlns="http://www.w3.org/2000/svg"><title>KappAhl</title><g fill="#092A4F" fill-rule="evenodd"><path d="M52.118 24.862c0-5.82-4.764-10.557-10.618-10.557-5.402 0-10.868 3.642-10.868 10.608 0 6.033 4.57 10.414 10.868 10.414 5.953 0 10.618-4.596 10.618-10.465zm-.203-9.73v-3.98h4.312v27.37h-4.312v-4.007c-3.414 4.17-8.36 4.642-10.415 4.642-8.512 0-15.18-6.323-15.18-14.39 0-7.027 5.677-14.293 15.18-14.293 2.088 0 7.09.474 10.415 4.658zM86.61 25.244c0 6.17-4.573 10.652-10.87 10.652-5.954 0-10.617-4.7-10.617-10.704 0-5.955 4.762-10.8 10.617-10.8 5.4 0 10.87 3.727 10.87 10.852m-10.87-14.77c-2 0-6.85.49-10.416 4.827v-4.13h-4.312v37.548h4.312V35.046c3.604 4.408 8.83 4.768 10.416 4.768 8.513 0 15.18-6.468 15.18-14.72 0-7.187-5.678-14.62-15.18-14.62M108.005 35.96c-5.88 0-10.486-4.676-10.486-10.648 0-5.925 4.703-10.745 10.485-10.745 5.333 0 10.734 3.708 10.734 10.796 0 6.14-4.516 10.598-10.735 10.598m0-25.292c-1.976 0-6.765.487-10.288 4.803v-4.11H93.46v37.358h4.257v-13.6c3.56 4.383 8.722 4.74 10.288 4.74 8.406 0 14.99-6.434 14.99-14.643 0-7.152-5.606-14.547-14.99-14.547M147.06 21.698h-13.182l6.66-15.29 6.52 15.29zM138.18.913l-16.155 37.05h4.71l5.405-12.21h16.704l5.355 12.21h4.91L142.854.912h-4.674zM174.035 10.106c-3.818 0-6.593 1.684-8.147 3.5V1.245h-4.308v37.406h4.308V23.358c-.044-3.062.823-5.597 2.445-7.14 2.143-2.055 4.906-2.214 5.702-2.214.797 0 3.56.16 5.704 2.216 1.61 1.53 2.493 4.067 2.493 7.144v15.288h4.308V23.364c0-4.208-1.22-7.608-3.53-9.83-2.41-2.37-5.178-3.428-8.975-3.428M190.215 37.962H195V.912h-4.785"/><path d="M28.712.913H22.82L4.47 18.126V.913H0v37.05h4.472v-18.05l18.44 18.05h5.764L9.332 19.002"/></g></svg>