<svg xmlns="http://www.w3.org/2000/svg" viewBox="0 0 176.28 103.79"><title>Livsmedelsfoİˆretagen</title><g style="isolation:isolate"><g id="Layer_1" data-name="Layer 1"><path d="M77.18,72,88.87,51.8H65.5A2,2,0,0,1,63.72,51L77,74A2,2,0,0,1,77.18,72Z" fill="#0c131b" style="mix-blend-mode:multiply"/><path d="M111.47,11.76a.45.45,0,0,0-.17-.62L101.71,5.6,92.12.06a.46.46,0,0,0-.62.17L63.87,49a2,2,0,0,0-.22,1.93l.07.13a2,2,0,0,0,1.78.76H88.87Z" fill="#122b4e" style="mix-blend-mode:multiply"/><path d="M111.93,74.86a.47.47,0,0,0,.46-.46V52.25a.46.46,0,0,0-.46-.45H88.87L77.18,72A2,2,0,0,0,77,74l.07.13a2,2,0,0,0,1.78.76Z" fill="#122b4e"/><path d="M176.28,103.7V92.55H174.1v6.83l-4.42-6.83h-1.94V103.7h2.18V96.86l4.42,6.84Zm-10.75,0v-1.94h-5.17V99.05h4.41V97.11h-4.41V94.49h5.17V92.55h-7.34V103.7Zm-9.07-4.57V97.5h-4.21v1.81h2.05v.43a2.2,2.2,0,0,1-.5,1.49,2,2,0,0,1-1.55.63,1.71,1.71,0,0,1-1.4-.59c-.44-.51-.53-1-.53-3.15s.13-2.61.53-3.13a1.8,1.8,0,0,1,1.4-.59,1.91,1.91,0,0,1,2,1.63h2.19a4,4,0,0,0-4.2-3.58,4.09,4.09,0,0,0-3,1.23,3.21,3.21,0,0,0-.91,1.67,21.48,21.48,0,0,0,0,5.55,3.25,3.25,0,0,0,.91,1.67,4.08,4.08,0,0,0,3,1.22,4.21,4.21,0,0,0,3.15-1.26,4.5,4.5,0,0,0,1.06-3.4M144,99.9h-2.77l1.41-4.06Zm3.51,3.8L143.4,92.55h-1.71l-4.06,11.15h2.27l.68-2h4l.66,2ZM138,94.49V92.55h-8v1.94h2.92v9.21h2.17V94.49Zm-9.54,9.21v-1.94h-5.17V99.05h4.4V97.11h-4.4V94.49h5.17V92.55h-7.35V103.7ZM117.07,96a1.46,1.46,0,0,1-1.58,1.48h-2.06v-3h2.06A1.45,1.45,0,0,1,117.07,96m2.63,7.74-2.49-4.81a3,3,0,0,0,2-2.93,3.36,3.36,0,0,0-3.61-3.41h-4.37V103.7h2.17V99.25H115l2.18,4.45ZM104.6,89.48h-1.74v2h1.74Zm3.46,0h-1.74v2h1.74Zm-.66,8.64c0,2.15-.12,2.67-.54,3.14a1.83,1.83,0,0,1-1.4.6,1.85,1.85,0,0,1-1.41-.6c-.42-.47-.53-1-.53-3.14s.11-2.66.53-3.13a1.85,1.85,0,0,1,1.41-.59,1.82,1.82,0,0,1,1.4.59c.42.47.54,1,.54,3.13m2.18,0c0-1.92,0-3.32-1.11-4.44a4.31,4.31,0,0,0-6,0c-1.13,1.12-1.1,2.52-1.1,4.44s0,3.33,1.1,4.45a4.34,4.34,0,0,0,6,0c1.13-1.12,1.11-2.52,1.11-4.45M99.9,94.49V92.55H92.55V103.7h2.18V99.17h4.4V97.23h-4.4V94.49Zm-9.4,5.92a3.13,3.13,0,0,0-.86-2.36,3.67,3.67,0,0,0-2.13-.86L86.19,97a1.93,1.93,0,0,1-1-.44,1.06,1.06,0,0,1-.33-.8c0-.77.56-1.41,1.72-1.41a3.07,3.07,0,0,1,2.29.77l1.38-1.37a4.81,4.81,0,0,0-3.61-1.3c-2.41,0-3.88,1.4-3.88,3.39a3,3,0,0,0,.8,2.19,3.66,3.66,0,0,0,2.16.92l1.35.19a1.64,1.64,0,0,1,1,.39,1.23,1.23,0,0,1,.35.94c0,.9-.69,1.39-2,1.39a3.64,3.64,0,0,1-2.69-1l-1.41,1.41a5.21,5.21,0,0,0,4.07,1.47c2.34,0,4.14-1.22,4.14-3.38m-9.37,3.29v-1.94H76.07V92.55H73.89V103.7Zm-9.52,0v-1.94H66.44V99.05h4.4V97.11h-4.4V94.49h5.17V92.55H64.26V103.7ZM60.17,98.08c0,1.69-.06,2.49-.47,3a1.93,1.93,0,0,1-1.63.69H56.43V94.49h1.64a2,2,0,0,1,1.63.69c.41.5.47,1.2.47,2.9m2.18,0c0-1.68.12-3.21-1.13-4.47a4.09,4.09,0,0,0-2.94-1.06h-4V103.7h4a4.09,4.09,0,0,0,2.94-1.06c1.25-1.26,1.13-2.89,1.13-4.56M52.12,103.7v-1.94H47V99.05h4.4V97.11H47V94.49h5.17V92.55H44.77V103.7Zm-9.56,0V92.55H40.42l-2.9,6-2.92-6H32.46V103.7h2.17V97.2l2.15,4.23h1.48l2.13-4.23v6.5Zm-11.92-3.29a3.13,3.13,0,0,0-.86-2.36,3.67,3.67,0,0,0-2.13-.86L26.33,97a1.93,1.93,0,0,1-1-.44,1.06,1.06,0,0,1-.33-.8c0-.77.56-1.41,1.72-1.41a3.07,3.07,0,0,1,2.29.77l1.38-1.37a4.8,4.8,0,0,0-3.6-1.3c-2.42,0-3.89,1.4-3.89,3.39a3,3,0,0,0,.8,2.19,3.69,3.69,0,0,0,2.16.92l1.35.19a1.7,1.7,0,0,1,1,.39,1.26,1.26,0,0,1,.34.94c0,.9-.69,1.39-2,1.39a3.65,3.65,0,0,1-2.7-1l-1.41,1.41a5.22,5.22,0,0,0,4.08,1.47c2.33,0,4.13-1.22,4.13-3.38m-8.71-7.86H19.66l-2.24,7.27-2.24-7.27H12.92L16.6,103.7h1.63Zm-10.51,0H9.24V103.7h2.18ZM7.24,103.7v-1.94H2.18V92.55H0V103.7Z" fill="#122b4e"/></g></g></svg>