<svg id="Lager_1" data-name="Lager 1" xmlns="http://www.w3.org/2000/svg" viewBox="0 0 646.9 154.07"><title>Pinchos</title><path d="M65.42,34.43c-11,0-20,4.65-25,15.15h-.35V37H0V50.78H6.71c5,0,6.2,2.59,6.2,7.41V132.9c0,4.82-1.2,7.4-6.2,7.4H.17v13.77H54.74V140.3H47.68c-5,0-6.19-2.58-6.19-7.4V109l.34-.34c3.62,7.57,13.26,11.53,23.59,11.53,26,0,33.74-21.86,33.74-42.87S91.41,34.43,65.42,34.43ZM55.09,105.36c-9.64,0-13.6-10.51-13.6-27.38s4-27.54,13.6-27.54S68.69,61.11,68.69,78,64.73,105.36,55.09,105.36Zm97.81-1.55h7v13.77H104.52V103.81h7.4c5,0,6.2-2.59,6.2-7.41V58.19c0-4.82-1.2-7.41-6.2-7.41H104V37H146.7V96.4C146.7,101.22,147.9,103.81,152.9,103.81ZM116.74,15a15,15,0,1,1,30,0,15,15,0,0,1-30,0ZM233,96.4V66.79c0-10-1.55-16.87-13.25-16.87-7.92,0-12.91,7.41-12.91,14.64V96.4c0,4.82,1.2,7.41,6.19,7.41h4.13v13.77h-52V103.81h6.88c5,0,6.2-2.59,6.2-7.41V58.19c0-4.82-1.2-7.41-6.2-7.41H165V37h40.46V50.27h.34c7.58-11,15.67-15.84,29.61-15.84,19.63,0,26.17,11.36,26.17,29.27V96.4c0,4.82,1.2,7.41,6.2,7.41h6.54v13.77H223.18V103.81h3.61C231.79,103.81,233,101.22,233,96.4Zm43-19.11c0-28.74,20.65-42.86,42.69-42.86,18.42,0,35.63,9,35.63,27.89,0,9.12-5.68,16.87-15.32,16.87-8.26,0-15.15-3.44-15.15-12.57,0-7.92,5.51-12.56,13.26-12.56-3.1-3.79-8.44-5.86-13.77-5.86-8.78,0-16.87,8.78-16.87,28.58s5,28.58,16.87,28.58c8.95,0,13.08-7.75,13.94-15.67h17c-.69,22-16.35,30.47-35.63,30.47C293,120.16,276,106,276,77.29Zm88.6-60.07H357.5V3.44H398V50.27h.35c7.57-11,15.66-15.84,29.61-15.84,19.62,0,26.16,11.36,26.16,29.27V96.4c0,4.82,1.21,7.41,6.2,7.41h6.54v13.77H415.68V103.81h3.62c5,0,6.2-2.59,6.2-7.41V66.79c0-10-1.55-16.87-13.26-16.87-7.92,0-12.91,7.41-12.91,14.64V96.4c0,4.82,1.21,7.41,6.2,7.41h4.13v13.77h-52V103.81h6.89c5,0,6.19-2.59,6.19-7.41V24.62C370.75,19.8,369.55,17.22,364.56,17.22ZM512.34,120.16c25.65,0,44.41-15.32,44.41-42.87S538,34.43,512.34,34.43s-44.41,15.32-44.41,42.86S486.69,120.16,512.34,120.16Zm0-72c10.33,0,13.94,8.78,13.94,29.09s-3.61,29.1-13.94,29.1-14-8.78-14-29.1S502,48.2,512.34,48.2ZM646.9,92.1c0,20.83-19.11,28.06-36.84,28.06-10.67,0-21.34-1.55-30.3-7.75l-2.58,5.86H564.27V88.66h14.12c1.37,10.15,13.77,17.73,23.41,17.73,5,0,14.63,0,14.63-7.58,0-14.46-53.37-5.68-53.37-37.18,0-20.66,21.35-27.2,38.57-27.2a55.79,55.79,0,0,1,26.68,7.23l2.07-5.16h11.88V62.32H629.17a19.56,19.56,0,0,0-8.78-10.68,25.81,25.81,0,0,0-13.6-3.44c-4,0-13.25.86-13.25,6.71C593.54,69.72,646.9,58.53,646.9,92.1ZM243.6,135.9a.92.92,0,0,0-.25,0S243.6,135.9,243.6,135.9Z" fill="#122b4e"/></svg>