<?xml version="1.0" encoding="utf-8"?>
<svg class="qgroup-logo-svg" xmlns="http://www.w3.org/2000/svg" width="128.5" height="207.8" viewBox="0 0 128.5 207.8"><style>.qgroup-logo{fill:#0A2A4F;}</style><path class="qgroup-logo" d="M128.4 169.9c-42.8-.7-51.6-5-64-21.6-5.4-7-12-11.8-17.2-13.3C19.2 127.4 0 99 0 68.9 0 30.7 32.9 0 64.3 0c32.5 0 64.3 29.5 64.3 68.9 0 34.5-28.3 68.7-64.3 68.7-2.4 0-4.6-.2-7-.6l-.2.6c7.2 3.9 12.7 6.8 25.9 8.1 7.2.7 13.5 5.7 18.5 11.4 6.6 7.6 14.1 10.2 27.1 10.2v2.6zM64.3 135c31.8 0 43-21.8 43-66.1 0-34-7-66.3-43-66.3s-43 32.3-43 66.3c-.1 44.3 11.2 66.1 43 66.1zM24.9 192c-1.3-.9-2-2.1-2-3.6 0-3.2 3.4-5 6-5 2 0 3.5 1 4.2 1.7.5-.8 1.4-1.7 2.9-1.7.9 0 1.8.3 1.8 1.5 0 .8-.6 1.2-1.2 1.2-1.2 0-.9-1.7-1.9-1.7-.4 0-1 .5-1.3.9.4.4 1.2 1.5 1.2 3.2 0 2.7-2.9 4.7-6 4.7-1.5 0-2.8-.6-3.4-.9-1 .4-2.4 1.1-2.4 2.6 0 1.4 1.1 1.6 2.3 1.6h5.3c3.1 0 5.1 1.4 5.1 4.7 0 3.9-3.7 6.7-7.6 6.7-3.5 0-6-1.6-6-4s2.1-3.8 3.9-4.5v-.1c-3 0-4.3-.9-4.3-3.2.2-2.5 2.3-3.6 3.4-4.1zm1.9 7.2c-1.2.7-2.5 1.4-2.5 3.8 0 3.2 2.5 4.2 4.5 4.2 3.2 0 5.4-2.1 5.4-4.5 0-2.5-1.5-3.5-3.8-3.5h-3.6zm2.2-15.4c-2.3 0-3.5 1.3-3.5 4.5 0 2.7.7 4.4 3.5 4.4 2.3 0 3.2-1.4 3.2-4.4 0-2.1-.3-4.5-3.2-4.5zM40 197.7h2.6v-13.5H40v-.5h5.4v3.4h.1c.4-1.3 1.6-3.8 4.4-3.8 2.1 0 3 1.4 3 2.8 0 1.5-.8 1.8-1.7 1.8-1 0-1.5-.4-1.5-.9 0-.8.4-.8.4-1.9 0-.7-.4-1.1-1.2-1.1-1.4 0-3.5 2.2-3.5 5.9v7.7h2.9v.5H40v-.4zM62.1 183.3c3.6 0 7.8 3.2 7.8 7.7 0 4.2-3.9 7.7-7.8 7.7s-7.8-3.4-7.8-7.7c0-4.4 4.2-7.7 7.8-7.7zm0 14.9c2.4 0 4.5-.8 4.5-7.2 0-5.3-1.4-7.2-4.5-7.2-3 0-4.5 1.8-4.5 7.2 0 6.4 2.1 7.2 4.5 7.2zM88.6 198.2h-5.4v-3.4h-.1c-.8 1.8-2.2 3.9-5.1 3.9-1.8 0-2.9-.5-3.5-.9-.6-.5-1.6-1.2-1.6-3.9v-9.6h-2.6v-.5h5.5v10.3c0 2.3.6 4.1 2.9 4.1 1.9 0 4.5-2.4 4.5-6.2v-7.8h-2.6v-.5H86v14h2.6v.5zM89 207.1h2.6v-22.9H89v-.5h5.4v2.8h.1c.7-1.9 2.2-3.3 4.7-3.3 3.8 0 7.1 3.5 7.1 7.6s-3.4 7.8-7.3 7.8c-3.1 0-4.1-2.4-4.4-3.3h-.1V207H97v.5h-8v-.4zm10-23.3c-1.6 0-2.7.7-3.4 1.5-.9 1.2-1.2 2.8-1.2 6.3 0 3 .7 6.6 4.4 6.6s4-3 4-7.7c.1-4.1-.7-6.7-3.8-6.7z"/></svg>