<svg id="Lager_1" xmlns="http://www.w3.org/2000/svg" viewBox="0 0 784.7 805.9">
  <style>
    .st0{fill:#0A2A4F;}
  </style>
  <path class="st0" d="M48.6 387.8c-2.3.8-3.9-.5-4.3-2.9l-.6-3.1c-.4-2.3.6-3.4 2.8-4.4 3.6-1.7 6.5-5.8 6.9-11.4.5-7-2.4-11.5-7-11.8-3.8-.3-6.7 2.6-8.8 7.2l-3.6 8.2c-3.7 9.2-10.4 14.6-17.9 14-10.9-.8-16.9-10.7-16.1-22 .7-9.5 5.7-16 12.8-18.5 2.3-.9 4 .3 4.4 2.7l.6 2.8c.5 2.2-.4 3.6-2.5 4.5-3.4 1.5-5.3 4.6-5.6 9.1-.4 5 1.9 9.5 6.6 9.9 2.4.2 5.3-.6 8-6.5l3.8-8.3c4.4-10.8 11.4-14.9 18.4-14.5 11.4.8 17.4 10.8 16.4 23.7-.7 11.1-6.4 18.6-14.3 21.3zM71.1 298.7L14 300.8c-2.7.1-4-1.5-3.2-4.1l1.3-4.2c.6-2 2.1-3.1 4.2-3.1l45.7-.5-37.4-26.1a4.14 4.14 0 0 1-1.7-4.9l1.3-4.3c.8-2.5 2.8-3.1 4.9-1.5L75 286.2c1.8 1.3 2.2 2.9 1.6 4.9l-1.4 4.5c-.6 2-1.9 3-4.1 3.1zM59 203.1l14.5 8.5 10.8-18.4c1.2-2 3-2.6 5.1-1.4l1.5.9c2 1.2 2.5 3.1 1.3 5.1l-10.8 18.4 13.6 8 12.8-21.6c1.2-2 3.1-2.5 5.1-1.3l2 1.2c2 1.2 2.5 3 1.3 5L99.4 236c-1.2 2-3 2.5-5 1.3L48 209.9c-2-1.2-2.5-3-1.3-5l16.8-28.4c1.2-2 3-2.5 5-1.3l2 1.2c2 1.2 2.6 3 1.4 5.1L59 203.1zM135.6 174.8l-38.5-37.7c-1.7-1.7-1.7-3.5 0-5.2l1.6-1.6c1.3-1.4 2.9-1.9 4.8-1.7l46.8 6.7-26.2-25.7c-1.7-1.7-1.7-3.5 0-5.2l2.9-3c1.7-1.7 3.6-1.8 5.3-.1l38.5 37.7c1.7 1.7 1.6 3.6 0 5.3l-1.5 1.6a5.29 5.29 0 0 1-4.8 1.7l-47-6.8 26.3 25.8c1.7 1.7 1.7 3.5 0 5.2l-2.9 3c-1.7 1.7-3.6 1.7-5.3 0zM193.2 111.1c-2-1.4-1.8-3.5-.1-5.2l2.2-2.3c1.7-1.6 3.1-1.5 5.2-.4 3.5 1.9 8.5 1.8 13.3-1.1 6-3.7 7.9-8.7 5.5-12.6-2-3.3-6-3.9-11-2.9l-8.8 1.9c-9.6 2.4-17.9.2-21.8-6.2-5.7-9.3-1.2-20 8.4-25.9 8.1-5 16.3-4.8 22.5-.5 2 1.3 2.1 3.4.4 5.2l-2 2.1c-1.5 1.7-3.1 1.7-5.2.6-3.2-1.9-6.8-1.5-10.6.8-4.2 2.6-6.6 7.1-4.1 11.2 1.2 2 3.6 4 10 2.7l8.9-1.8c11.3-2.8 18.8.4 22.6 6.4 6 9.7 1.5 20.4-9.5 27.2-9.6 5.8-19.1 5.6-25.9.8zM284.9 66.2l-15.1-12.4 7.6 22.8c.7 2.2-.1 3.9-2.3 4.6l-4 1.3c-2.2.7-3.9-.1-4.6-2.3l-17-51.1c-.7-2.2.1-3.9 2.3-4.6l4-1.3c2.2-.7 3.9.1 4.6 2.3l7.9 23.9 8.8-30.8c.4-2 1.6-3.1 3.5-3.7l5.6-1.8c2.5-.8 3.5.7 2.8 3.3l-9.4 31.5 13.9 10.8c4 3.4 7.5 5.1 10.6 3.9.7-.3 1.9-.7 2.9-1.6 1.8-1.3 3.1-1.2 4.6.4l1.1 1.2c1.7 1.7 1.9 3.7-.1 5.5-2 2-4.8 3.3-6.9 4.1-8.3 2.7-15.6-1.2-20.8-6zM338.4 59.1L355 3.7c.6-2.1 2-3.1 4-3.3l5.7-.4c2.1-.2 3.6.7 4.5 2.6l25 52.2c1.2 2.5.2 4.3-2.6 4.5l-4.2.3c-2.2.2-3.6-.7-4.6-2.6l-4.1-8.7-26.3 2-2.7 9.2c-.5 2.1-1.9 3.1-4 3.3l-4.2.3c-2.6.3-3.9-1.4-3.1-4zm37-19.7l-12.6-27.5-8.4 29.1 21-1.6zM468.1 56.1c-.3-2.5 1.4-3.7 3.8-3.5l3.2.1c2.3.1 3.2 1.3 3.7 3.7.9 3.9 4.3 7.6 9.7 9.2 6.7 2 11.7.1 13.1-4.3 1.1-3.7-1.1-7.1-5.2-10.1l-7.3-5.3c-8.2-5.6-12-13.2-9.9-20.4 3.1-10.5 14.1-14.3 24.9-11.1 9.1 2.7 14.4 8.9 15.4 16.4.4 2.4-1.1 3.9-3.6 3.8H513c-2.3 0-3.4-1.2-3.9-3.4-.7-3.7-3.4-6.1-7.7-7.4-4.8-1.4-9.7-.1-11.1 4.4-.7 2.3-.6 5.3 4.7 9.2l7.3 5.5c9.6 6.6 12.2 14.3 10.3 21.1-3.3 11-14.2 14.7-26.6 11-10.8-3.4-17-10.6-17.9-18.9zM562.6 94.6l-.8-19.5-12 20.9c-1.2 2-3 2.5-5 1.4l-3.6-2.1c-2-1.2-2.5-3-1.4-5l26.8-46.7c1.2-2 3-2.5 5-1.4l3.6 2.1c2 1.2 2.5 3 1.4 5L564.1 71l28.8-14c1.8-1 3.4-.9 5.1.1l5.1 2.9c2.3 1.3 1.8 3-.6 4.3l-29.8 14 1.2 17.5c.1 5.2 1.2 9 4.1 10.5.7.3 1.8.9 3.1 1.1 2.2.4 3 1.5 2.7 3.7l-.1 1.6c-.1 2.3-1.5 3.9-4.2 3.6-2.8-.2-5.7-1.3-7.7-2.5-7.2-4.1-9.3-12.1-9.2-19.2zM619.7 108.5c12-12.5 31.8-13.2 45.1-.4 13.2 12.7 13.2 32.5 1.2 45s-31.8 13.2-45 .5c-13.3-12.8-13.3-32.6-1.3-45.1zm37.9 36.5c8.4-8.7 8.5-21.6.2-29.6-8.4-8.1-21.2-7.5-29.6 1.2-8.4 8.7-8.5 21.6-.1 29.6 8.3 8.1 21.1 7.5 29.5-1.2zM667.2 200.1l45.7-28.5c2-1.3 3.8-.8 5.1 1.2l2.2 3.6c1.3 2 .8 3.8-1.2 5.1l-40.6 25.3 12.8 20.5c1.3 2 .8 3.9-1.2 5.2l-1.9 1.2c-2 1.3-3.9.8-5.1-1.2l-17-27.1c-1.2-2.3-.8-4.1 1.2-5.3zM700.7 257.2l57.8 2.3c2.2.1 3.5 1.1 4.2 3.1l1.8 5.4c.7 2 .2 3.6-1.4 5l-44.4 37.2c-2.1 1.7-4.1 1.2-5-1.4l-1.3-4c-.7-2.1-.2-3.7 1.4-5.1l7.4-6.1-8.5-25-9.6-.3c-2.1 0-3.5-1-4.2-3l-1.3-4c-.9-2.5.4-4.2 3.1-4.1zm28.3 31l23.6-19-30.3-.8 6.7 19.8zM724.1 342.5l53.7-3.8c2.4-.2 3.8 1.1 3.9 3.4l.2 2.3c.1 1.9-.5 3.5-2 4.7l-36 30.6 36.6-2.6c2.4-.2 3.8 1.1 3.9 3.4l.3 4.2c.2 2.4-1 3.8-3.4 4l-53.7 3.8c-2.4.2-3.8-1.1-3.9-3.5l-.2-2.2c-.1-1.9.5-3.4 2-4.7l36.3-30.7L725 354c-2.4.2-3.8-1.1-3.9-3.4l-.3-4.2c-.3-2.4.9-3.8 3.3-3.9z"/>
  <g>
    <path class="st0" d="M136 712.6l31.9-43.4c1.4-1.9 3.2-2.2 5.1-.8l3.4 2.5c1.9 1.4 2.2 3.2.8 5.1l-28.3 38.6 19.5 14.3c1.9 1.4 2.2 3.4.8 5.3l-1.3 1.8c-1.4 1.9-3.3 2.1-5.2.7l-25.8-18.9c-2-1.5-2.3-3.3-.9-5.2zM208.6 729.7c7-15.9 25.3-23.4 42.2-16 16.8 7.4 23.7 26 16.7 41.8-7 15.9-25.3 23.4-42.1 16-16.9-7.3-23.7-25.9-16.8-41.8zm48.2 21.2c4.9-11.1.5-23.2-10.1-27.8-10.7-4.7-22.5.3-27.4 11.4-4.8 11.1-.5 23.2 10.1 27.8 10.7 4.6 22.5-.4 27.4-11.4zM300.2 792.2l8.7-53.2c.4-2.3 1.9-3.4 4.2-3l2.2.4c1.9.3 3.3 1.2 4.1 3l21.4 42.1 5.9-36.2c.4-2.3 1.9-3.4 4.2-3l4.1.7c2.3.4 3.5 1.9 3.1 4.2l-8.7 53.2c-.4 2.3-2 3.4-4.3 3l-2.2-.4c-1.9-.3-3.2-1.2-4.1-3l-21.5-42.3-6 36.4c-.4 2.3-1.9 3.4-4.2 3l-4.1-.7c-2.1-.3-3.2-1.9-2.8-4.2zM398.2 802.4l-4-53.7c-.2-2.4 1-3.8 3.4-3.9l18.5-1.4c19-1.4 32.3 11.4 33.6 28.2 1.3 16.8-10 31.4-29 32.9l-18.5 1.4c-2.4.1-3.8-1.1-4-3.5zm21.1-7.6c12.6-.9 19.6-10.6 18.8-22.4-.9-11.8-9.3-20.4-21.9-19.3l-9.9.7 3.1 41.7 9.9-.7zM483.5 765.3c-5.5-16.4 3-34.3 20.5-40.1 17.4-5.8 35 3.3 40.5 19.7s-3 34.3-20.4 40.1c-17.6 5.9-35.1-3.3-40.6-19.7zm49.8-16.7c-3.8-11.4-15.2-17.5-26.1-13.8-11 3.7-16.4 15.4-12.6 26.8 3.8 11.4 15.2 17.5 26.2 13.8 10.9-3.7 16.3-15.4 12.5-26.8zM593.2 750.1L564 704.8c-1.3-2-.9-3.8 1.1-5.1l1.9-1.2c1.6-1 3.2-1.3 5.1-.6l44.1 16.8-19.9-30.8c-1.3-2-.9-3.8 1.1-5.1l3.5-2.3c2-1.3 3.9-.9 5.2 1l29.2 45.3c1.3 2 .8 3.8-1.2 5.1l-1.8 1.2c-1.6 1-3.2 1.2-5.1.6l-44.4-17 20 31c1.3 2 .9 3.8-1.1 5.1l-3.5 2.3c-1.9 1.3-3.7 1-5-1z"/>
  </g>
  <g>
    <path class="st0" d="M394.6 591.5c-1.4.7-3.1.7-4.6 0l-1.8-.8c-.6-.3-62.5-29.3-174.2-16.5l-7.4.8c-1.5.2-2.8-1-2.8-2.5V353.1c0-1.4 1.1-2.6 2.6-2.6h34c4.5 0 8.6 3 9.4 7.4a9.32 9.32 0 0 1-9.1 11.1h-18.4v185.6c96.3-9.1 154.6 11.2 170 17.6 15.4-6.4 73.7-26.7 170-17.6V369.1h-18c-4.5 0-8.6-3-9.4-7.4a9.32 9.32 0 0 1 9.1-11.1h34.3c1.4 0 2.6 1.1 2.6 2.6v219.3c0 1.5-1.3 2.7-2.8 2.5l-7.4-.8c-111.7-12.7-173.6 16.3-174.2 16.6l-1.9.7z"/>
    <path class="st0" d="M544.8 303.7l-6.5-.2c-27.1-.9-60.1 7.1-98.2 23.6-16.3 7.1-29.9 14.1-38.5 18.9l-3.7 2.1c-.8.5-1.6.9-2.3 1.3l-3.2 1.9-3.4-1.9c-.6-.3-1.2-.7-1.8-1l-4-2.3c-8.7-4.8-22.2-11.9-38.5-18.9-38.1-16.5-71.1-24.5-98.2-23.6l-6.5.2c-1.4 0-2.5 1.2-2.5 2.6v216.1c0 1.3.9 2.4 2.2 2.5l5.8.8c1 .1 98.1 14.1 139.9 62.7 1.5 1.7 3.4 2.7 5.4 3l.2.2c.8.6 1.9.6 2.7 0l.2-.2c2-.4 3.9-1.4 5.4-3 41.9-48.6 138.9-62.6 139.9-62.7l5.8-.8c1.3-.2 2.2-1.3 2.2-2.5V306.2c.1-1.4-1-2.5-2.4-2.5zM256 508.6V322c54.3 2.6 120.1 41.1 127.2 45.3v193.3c-41.9-34.2-105-48-127.2-52zm272.8 0c-22.3 4-85.4 17.8-127.2 52V367.3c7.1-4.2 72.8-42.7 127.2-45.3v186.6z"/>
    <path class="st0" d="M388.3 590.7s2 1.4 4 1.4 4-1.4 4-1.4h-8zM388.7 172.4l-6.3 12.9c-.6 1.2-1.7 2-2.9 2.2l-14.2 2.2a3.9 3.9 0 0 0-2.1 6.7l10.3 9.9c.9.9 1.4 2.2 1.1 3.5l-2.3 14.2c-.5 3.2 2.8 5.6 5.7 4.1l12.7-6.8c1.1-.6 2.5-.6 3.6 0l12.7 6.6c2.9 1.5 6.2-1 5.6-4.2l-2.5-14.1c-.2-1.3.2-2.6 1.1-3.5l10.2-10.1c2.3-2.3 1-6.2-2.2-6.7l-14.2-2c-1.3-.2-2.4-1-3-2.1l-6.4-12.8c-1.3-2.9-5.5-2.9-6.9 0zM469.1 224.7l-7.7 12.1c-.7 1.1-1.9 1.8-3.2 1.8l-14.3.5c-3.2.1-4.9 3.9-2.9 6.4l9.1 11.1c.8 1 1.1 2.3.7 3.6l-4 13.8c-.9 3.1 2.2 5.9 5.2 4.7l13.4-5.2c1.2-.5 2.6-.3 3.6.4l11.9 8c2.7 1.8 6.3-.2 6.1-3.5l-.8-14.3c-.1-1.3.5-2.5 1.5-3.3L499 252c2.6-2 1.7-6.1-1.4-6.9l-13.9-3.6c-1.2-.3-2.3-1.2-2.7-2.5l-4.9-13.5a3.93 3.93 0 0 0-7-.8zM316.3 224.7l7.7 12.1c.7 1.1 1.9 1.8 3.2 1.8l14.3.5c3.2.1 4.9 3.9 2.9 6.4l-9.1 11.1c-.8 1-1.1 2.3-.7 3.6l4 13.8c.9 3.1-2.2 5.9-5.2 4.7l-13.4-5.2c-1.2-.5-2.6-.3-3.6.4l-11.9 8c-2.7 1.8-6.3-.2-6.1-3.5l.8-14.3c.1-1.3-.5-2.5-1.5-3.3l-11.3-8.8c-2.6-2-1.7-6.1 1.4-6.9l13.9-3.6c1.2-.3 2.3-1.2 2.7-2.5l4.9-13.5c1.1-3.1 5.3-3.5 7-.8z"/>
  </g>
</svg>
