<?xml version="1.0" encoding="utf-8"?>
<svg xmlns="http://www.w3.org/2000/svg" width="269.3" height="96.2" viewBox="0 0 269.3 96.2"><title>Stena Line</title><path fill="#092A4F" d="M28.1 60.1c-1.2-2.6-4-3.8-6.7-3.8-3.5 0-5.4 1.4-5.4 3.2 0 2.3 3.7 3.3 7.7 4.7 6 2.1 10.7 4.6 10.7 9.8 0 8.1-8.8 14.3-19.9 14.3-6.3 0-13.9-3-14.5-9.8L8.8 77c.6 2.7 4.4 3.9 6.8 3.9 2.7 0 7-.8 7-4.1 0-2.4-3.9-3.4-8-4.8-4.1-1.3-10.1-3.8-10.1-9.6 0-9.8 10.5-13.2 17.6-13.2 5.3 0 13.2 2.3 14.6 9.1l-8.6 1.8zM56.2 66.3H51l-2.3 10.1c-.2.6-.3 1.2-.3 1.8 0 1.8 1.7 1.9 3.2 1.9h1.3l-1.6 7.3c-2 .1-4 .2-6.1.2-3.4 0-8.1.2-8.1-4.4 0-1.5.3-3 .8-5.2l2.7-11.8h-3.9l1.3-5.8h4l2-8.4h10.2l-1.9 8.5h5.2l-1.3 5.8zM86.4 76.1H65.6c-.1.5-.2 1.1-.2 1.6 0 2.7 1.9 4.4 4.6 4.4 1.9 0 3.7-.8 4.8-2.4h9.9c-3.3 6.1-9.7 8.5-16.3 8.5-7.1 0-13.1-3.2-13.1-10.6 0-10.2 8.6-17.9 18.6-17.9C82 59.7 87 64.3 87 71.6c-.1 1.5-.4 3.4-.6 4.5zM73.1 65.9c-3.4 0-5.6 2-6.4 5.3h10.5c.1-.4.1-.7.1-1.1 0-2.7-1.8-4.2-4.2-4.2zM119.1 71.2l-3.7 16.2h-10.3l3.2-14.2c.2-.7.3-1.5.3-2.2 0-2.1-1.1-3.3-3.2-3.3-3.3 0-5.1 3-5.7 5.9l-3.2 13.7H86.1l6.1-26.9h9.4l-1.1 4.9c2.6-3 6.9-5.7 10.9-5.7 5 0 8.3 2.3 8.3 7.3-.1 1.6-.3 3-.6 4.3zM151.2 70.8l-3.7 16.6h-9.9l.7-3.2c-3.6 2.8-6.8 4-11.4 4-3.9 0-7.9-2.1-7.9-6.5 0-3 1.8-5.8 3.9-7.3 3.5-2.4 8.4-2.8 13.7-3.5 2.9-.4 4.9-1 4.9-3.1 0-1.7-2.1-2-3.3-2-2 0-3.9.6-4.6 2.7h-10c1.9-7.5 10.1-8.7 16.7-8.7 4.6 0 11.5.3 11.5 6.4 0 1.5-.3 3.1-.6 4.6zm-14.8 5.5c-3.4.7-6.5 1.4-6.5 3.7 0 2 1.7 2.6 3.2 2.6 4.2 0 6.1-3.7 6.7-7.4-1.1.4-2.2.8-3.4 1.1zM186.9 87.5h-28.8l8.4-37.1h11.8l-6.5 28.9h16.9l-1.8 8.2zM207 56.5h-10.4l1.6-7.2h10.4l-1.6 7.2zm-7 31h-10.4l6.1-26.9H206l-6 26.9zM236.4 71.2l-3.7 16.2h-10.4l3.2-14.2c.2-.7.2-1.5.2-2.2 0-2.1-1-3.3-3.2-3.3-3.4 0-5.1 3-5.7 5.9l-3.1 13.7h-10.4l6.1-26.9h9.4l-1.1 4.9c2.6-3 6.9-5.7 10.8-5.7 5 0 8.3 2.3 8.3 7.3.2 1.6 0 3-.4 4.3zM268.7 76.1h-20.8c-.1.5-.2 1.1-.2 1.6 0 2.7 1.9 4.4 4.6 4.4 1.9 0 3.7-.8 4.8-2.4h9.9c-3.3 6.1-9.7 8.5-16.3 8.5-7.1 0-13.1-3.2-13.1-10.6 0-10.2 8.6-17.9 18.6-17.9 8.1 0 13.1 4.6 13.1 11.9 0 1.5-.3 3.4-.6 4.5zm-13.3-10.2c-3.3 0-5.6 2-6.4 5.3h10.5c.1-.4.1-.7.1-1.1 0-2.7-1.8-4.2-4.2-4.2zM268.9 96.2v-1.9H.1l.1 1.9M96.1 2.6c2.3-.3 5-.3 6.2-.2 1 .1 2.8.5 4.6.6 2.7.1 6.4-.9 8.2-1 2.1-.1 4.3.6 6 .6 1.6-.1 4.4-.5 5.8-.3 1.8.3 4.2 1.5 6.7 1.9 2.4.3 5.4-.1 6.7-.2 2-.2 6.3-.4 7.7-.1 1.5.2 4.7.9 7 .9 3.3 0 5.2-.4 6-.7l-.3-2.1s-1.4.4-3.9.7c-3.7.4-5.7-.2-7.3-.6-1.9-.4-6.5-.3-10.4.1-4.2.5-5.3.1-6.3-.1-2.3-.4-4-1.7-7.4-1.6-1.1 0-3.2.2-4.1.2-1.6.1-4.2-.6-5.7-.6-.9 0-1.8.2-2.8.3-1 .2-2.6.5-4.8.6-2.3.1-3.2-.1-4.3-.2-1.2-.2-3.6-.4-5.8-.3-2.4.1-5.9.9-5.9.9s.3.8.6 1.9c.8-.2 2.1-.5 3.5-.7zM155.2 42.2c-3.5-.3-6.5-1-8.9-1.1-2.8-.1-5.6.3-7.2.5-1.8.2-2.8.2-4.5.2-2.1 0-3.4-1-5.7-1.5-1.7-.4-4.2 0-5.3.1-.8.1-2.6.2-3.5 0-1.8-.2-2.3-.3-4.3-.2-2.7.2-5 1-7.1 1-2.1 0-3.3-.5-4.9-.6-1.7-.1-4 .2-5.2.4-1.1.2-2.7.7-3.6 1-.2 1.2-.3 2.4-.3 2.4s1-.4 2-.7c1-.4 3.6-.9 6.1-.9 2.4 0 3.9.9 6.3.6 1.5-.2 4.5-1.1 7.3-1.1 3.2 0 3.6.6 6.3.2 2.5-.3 5.7-.7 8.4.7 2.6 1.3 5.8.6 7.3.5 1.5-.2 5.1-.6 7.6-.5 2.7.1 6.2 1 8.8 1.1 2.4.1 5.6-.2 6.3-.3.1-.6 0-1.3 0-2-.4 0-2.5.5-5.9.2z"/><path fill="#092A4F" d="M160 29c.1-1.2.7-7.7.8-8.9.2-1.3.7-6.5.5-11.3 0-1.2-.1-2.2-.1-3-.9.2-3 .7-5.8.7-2.3 0-5.7-.7-7.2-.9-1.3-.2-5.9-.2-7.3 0-1.8.2-4.9.5-7.2.3s-4.8-1.5-6.6-1.8c-1.4-.2-4.2.1-5.8.3-1.6.1-4.1-.6-6.2-.6-3.1 0-5.5 1-7.9 1-1.8 0-3.9-.3-4.9-.5-2.5-.4-4.1-.2-6.1 0-1.2.3-2.2.6-2.9.7.5 1.7 1.1 3.7 1.4 5.5.4 2.1 1.1 5.8 1.3 8.5.3 2.5.5 5.5.4 8.1 0 1-.1 2.3-.2 3.3-.2 2.3-.4 4.4-.6 5.9-.1.7-.2 2.1-.4 3.7.9-.3 2.6-.7 3.5-.9 1.3-.2 4-.6 5.3-.4 1 .1 2.4.6 4.5.6s4.9-.7 6.8-.9c2-.2 3.2-.1 5 .1.9.1 2.5 0 3.4-.1 1-.1 3.3-.5 5-.2 2.2.5 4.2 1.7 6.3 1.7 1.7 0 2.7 0 4.2-.2 1.6-.2 4.6-.7 7.3-.6 2.7.1 5.8.8 8.9 1.1 2.9.3 4.8 0 5.5-.2l-.3-1.8c-.5-3.1-.7-7.8-.6-9.2zm-25.1.2c-.1.8 0 1.9-.6 3.2-.8 1.8-2.3 2.3-3.6 2.4-1.2.2-2.1-.2-3.2-.2-.8 0-1.7.1-3.4.2s-2.6-.5-3.5-1.5c-.9-1-1-2.5-1.1-3 0-.5-.1-3.5-.1-3.5h5.7v1.8c0 .6.1 1.5 1 1.7.8.2 1.7.2 2.2-.1.5-.2.6-.8.7-1.7.1-1 0-3-.1-3.5 0-.6-.4-1.2-1.1-1.6-.7-.4-3.6-1.9-5-2.8-1.4-.9-2.2-1.4-2.8-2.4-.4-.8-.5-2-.5-2.5 0-.4-.1-2.6.3-3.9.4-1.2.9-1.7 1.5-2.1 1.3-.9 3.6-1.2 5.4-1.2 2.4 0 5 .4 6 1 1.3.8 1.5 2.3 1.6 2.7.1.4.1 2.9.1 2.9h-5.1V14c-.1-.3-.1-.7-.5-.9-.4-.3-1.7-.4-2.6-.1-.8.3-.7 1.1-.8 1.7 0 .5 0 1.3.6 1.8.9.9 5.8 3.3 7.5 4.7 1 .9 1.4 1.9 1.4 3.4v4.6z"/></svg>