<?xml version="1.0" encoding="utf-8"?>
<!-- Generator: Adobe Illustrator 21.1.0, SVG Export Plug-In . SVG Version: 6.00 Build 0)  -->
<svg version="1.1" id="Lager_1" xmlns="http://www.w3.org/2000/svg" xmlns:xlink="http://www.w3.org/1999/xlink" x="0px" y="0px"
	 width="184px" height="76px" viewBox="0 0 184 76" style="enable-background:new 0 0 184 76;" xml:space="preserve">
<style type="text/css">
	.st0{fill:#0A2A4F;}
</style>
<g>
	<g>
		<path class="st0" d="M17.3,12c-0.4-4.3-2.1-6.2-4.9-6.2c-2.2,0-4.4,1.2-4.4,3.7s2.2,3.3,4.1,4.1l4.7,1.9c4,1.6,7.3,3.7,7.3,9
			c0,6.6-5.1,10.1-11.5,10.1c-7,0-12-4.3-12-11.5l5.7-1.2c0.5,4.3,2.4,6.9,6.2,6.9c2.4,0,5.1-1.1,5.1-3.9c0-2.6-2.2-3.4-4.9-4.5
			l-4.4-1.8c-4.1-1.6-6.7-4-6.7-8.6c0-6.3,4.9-10,10.9-10C18.8,0,23,4,23,10.8L17.3,12z"/>
	</g>
	<g>
		<polygon class="st0" points="37.1,34.3 37.1,6.1 27.6,6.1 27.6,0.3 52.9,0.3 52.9,6.1 43.5,6.1 43.5,34.3 		"/>
	</g>
	<g>
		<path class="st0" d="M75.6,0.3h6.4v23.3c0,7.1-4.6,11-11.8,11c-7.2,0-11.8-4-11.8-11V0.3h6.4v22.9c0,3.5,1.8,5.5,5.5,5.5
			s5.5-2.1,5.5-5.5C75.6,23.2,75.6,0.3,75.6,0.3z"/>
	</g>
	<g>
		<path class="st0" d="M89.9,34.3v-34h10.8c6.5,0,13.6,4.5,13.6,17.1c0,12.3-6.8,17-13.1,17C101.2,34.3,89.9,34.3,89.9,34.3z
			 M100.7,28.5c3.2,0,7.1-2,7.1-11.1c0-9.4-4.2-11.4-7.5-11.4h-4.1v22.5H100.7z"/>
	</g>
	<g>
		<polygon class="st0" points="127.3,34.3 127.3,21.2 117.1,0.3 123.8,0.3 130.5,13.5 137.2,0.3 143.9,0.3 133.7,21.2 133.7,34.3 		
			"/>
	</g>
	<g>
		<path class="st0" d="M16.7,53.4c-0.4-4.3-2.1-6.2-4.9-6.2c-2.2,0-4.4,1.2-4.4,3.7c0,2.4,2.2,3.3,4.1,4.1l4.7,1.9
			c4,1.6,7.3,3.7,7.3,9C23.5,72.4,18.4,76,12,76C5,76,0,71.6,0,64.5l5.7-1.2c0.5,4.3,2.4,6.9,6.2,6.9c2.4,0,5.1-1.1,5.1-3.9
			c0-2.6-2.2-3.4-4.9-4.5L7.7,60C3.6,58.3,1,56,1,51.4c0-6.3,4.9-10,10.9-10c6.3,0,10.5,4,10.5,10.8L16.7,53.4z"/>
	</g>
	<g>
		<polygon class="st0" points="50.3,75.4 45.2,57.1 40.1,75.4 34.7,75.4 26.5,41.4 32.9,41.4 37.8,63.6 42.2,45.9 48.1,45.9 
			52.5,63.6 57.4,41.4 63.9,41.4 55.7,75.4 		"/>
	</g>
	<g>
		<polygon class="st0" points="69.1,75.4 69.1,41.4 90.9,41.4 90.9,47.2 75.4,47.2 75.4,55.4 85,55.4 85,61.2 75.4,61.2 75.4,69.6 
			90.9,69.6 90.9,75.4 		"/>
	</g>
	<g>
		<path class="st0" d="M98.8,75.4v-34h10.8c6.5,0,13.6,4.5,13.6,17.1c0,12.3-6.8,17-13.1,17H98.8z M109.6,69.6c3.2,0,7.1-2,7.1-11.1
			c0-9.4-4.2-11.4-7.5-11.4h-4.1v22.5H109.6z"/>
	</g>
	<g>
		<polygon class="st0" points="129.3,75.4 129.3,41.4 151.1,41.4 151.1,47.2 135.7,47.2 135.7,55.4 145.2,55.4 145.2,61.2 
			135.7,61.2 135.7,69.6 151.1,69.6 151.1,75.4 		"/>
	</g>
	<g>
		<polygon class="st0" points="177.7,75.4 164,53.3 164,75.4 157.7,75.4 157.7,41.4 163.8,41.4 177.5,63.4 177.5,41.4 183.8,41.4 
			183.8,75.4 		"/>
	</g>
	<g>
		<path class="st0" d="M183.9,0.3H150v33.8h24.8l9.1-9.1V0.3z M163,11.4h-2.7v10.6h2.7v2.2h-8.1v-2.2h2.7V11.4h-2.7V9.1h8.1V11.4z
			 M175.4,24.2l-6.1-9.8v9.8h-2.8v-15h2.7l6,9.7V9.1h2.8v15L175.4,24.2L175.4,24.2z"/>
	</g>
</g>
</svg>
