<?xml version="1.0" encoding="utf-8"?>
<!-- Generator: Adobe Illustrator 23.0.1, SVG Export Plug-In . SVG Version: 6.00 Build 0)  -->
<svg version="1.1" id="VCC_x5F_Ironmark_x5F_Print_x5F_Lineart_x5F_BLACK"
	 xmlns="http://www.w3.org/2000/svg" xmlns:xlink="http://www.w3.org/1999/xlink" x="0px" y="0px" viewBox="0 0 720 720"
	 style="enable-background:new 0 0 720 720;" xml:space="preserve">
<style type="text/css">
	.st0{fill:#0A2A4F;}
</style>
<g>
	<path class="st0" d="M587.3,190.6l13.4-13.4c9.5,12.6,18.1,25.9,25.7,39.9H637V83.2H503.2v10.5c13.9,7.5,27.1,16,39.6,25.5
		l-13.4,13.4C482.1,97.4,423.5,76.5,360,76.5C203.4,76.5,76.5,203.4,76.5,360S203.4,643.5,360,643.5
		c156.6,0,283.5-126.9,283.5-283.5C643.5,296.5,622.6,237.9,587.3,190.6L587.3,190.6z M567.3,411.3c-23,93.1-107,162.2-207.3,162.2
		c-100.2,0-184.3-69.1-207.3-162.2H567.3L567.3,411.3z M152.7,308.7c23-93.1,107-162.2,207.3-162.2c100.2,0,184.3,69.1,207.3,162.2
		H152.7L152.7,308.7z M511.9,359.8c0.2-10.2,5.1-19.1,13.5-19c8.4,0.1,12.8,9.2,12.7,19.4c-0.2,9.6-4.2,19.6-13.4,19.5
		C515.7,379.6,511.8,369.6,511.9,359.8L511.9,359.8z M276.5,359.8c0.2-10.2,5.1-19.1,13.5-19c8.4,0.1,12.8,9.2,12.7,19.4
		c-0.2,9.6-4.1,19.6-13.4,19.5C280.3,379.6,276.4,369.6,276.5,359.8L276.5,359.8z M289.6,332.5c24.6,0,37.8,12.3,37.8,27.7
		c0,15.6-12.4,28-37.6,28c-25.2,0-37.8-12.4-37.8-28C251.9,344.7,265,332.5,289.6,332.5L289.6,332.5z M213.1,374.4l17.7-32.7h-10.6
		v-8.1h36.6v8.1l-12.2,0l-24.3,44.9l-28.6,0l-24.7-44.9h-12.1l0-8.1H208l0,8.1l-12.8,0L213.1,374.4L213.1,374.4z M525,332.5
		c24.6,0,37.8,12.3,37.8,27.7c0,15.6-12.4,28-37.6,28c-25.2,0-37.8-12.4-37.8-28C487.3,344.7,500.4,332.5,525,332.5L525,332.5z
		 M402.6,341.7h-12.2l0-8.1h53.1l0,8.1l-12.8,0l17.9,32.7l17.7-32.7h-10.6v-8.1h36.6v8.1l-12.2,0l-24.3,44.9l-28.6,0L402.6,341.7
		L402.6,341.7z M342.7,341.7h-12.3l0-8.1l48.9,0v8.1h-12.2v36.6h11.3c10.5,0,17.3-6.9,17.3-16.3h8.1v24.5l-73.5,0v-8.2h12.3
		L342.7,341.7L342.7,341.7z"/>
</g>
</svg>
