<svg id="Lager_1" data-name="Lager 1" xmlns="http://www.w3.org/2000/svg" viewBox="0 0 285.49 74.63"><title>weibulls</title><path d="M14.43,6.91.25,58.87s-2.74,12.57,9.83,15.54c0,0,10.9,2.33,20-8.09,0,0,3.47,9.92,15.8,8.09,0,0,11.65-.23,23.42-14.62,0,0,7.54-10.17,10.4-20.68,0,0,6.4-20.07,2.11-39.11L67,9.92s4.36,15.6,1.27,30.79c0,0-1.37,9.71-7.19,16.68,0,0-4.92,6.74-9.6,5.82,0,0-4.23.35-2.17-6.51L62.63,6.91h-20L29.38,55.67S27.67,63,22.87,62.53c0,0-3.37.4-1.48-5.31L35,6.91Z" fill="#122b4e"/><path d="M121.18,11.65h17.25s-6.35,7.43-5.87,20.87C132.56,32.52,118.91,29.6,121.18,11.65Z" fill="#122b4e"/><path d="M93.58,62.47c7.43,3.08,16.91-5.37,16.91-5.37l5.77-21.65h15.65l-3.18,11.69c-4,12.42-3.12,13.33-3.12,13.33.53,2.44,3.5,1.14,3.5,1.14,3.27-.76,4.75-5.46,4.75-5.46l12-44.5h15.07L148.36,58.59c-1.09,3.77,1.54,3.25,1.54,3.25,5.2-1.25,8.7-10.26,8.7-10.26-4.54-3.19-4-10.53-4-10.53.69-6.22,4.57-7.77,4.57-7.77a4.71,4.71,0,0,1,5.77,2.06c3.54,4.85.57,12.17.57,12.17a4.06,4.06,0,0,0,1.77.24c2.44.23,2.9-2.36,2.9-2.36l2.75-10h15.22L182,57.73c-1.45,5.48,1.75,4,1.75,4,4.42-.69,5.18-5.64,5.18-5.64l5.67-20.68h15.27l-6.24,23.42c-.54,4.34,2.89,2.74,2.89,2.74,4.49-1.29,5.56-6.77,5.56-6.77l11.8-43.19H239.1l-11.52,43c-3.14,9.36,1.6,6.89,1.6,6.89,5.1-1.22,6.4-8.46,6.4-8.46l11.27-41.43h15.09L249.86,56.93c-1.77,5.43.84,5,.84,5a5.6,5.6,0,0,0,3.44-1.8c.86-.63,9.93-10.54,9.93-10.54-2.13-4-.33-9.62-.33-9.62,1.37-4.29,6.05-7.09,6.05-7.09a14.75,14.75,0,0,1,11.44-1c-9.64,5,.44,17.07.44,17.07a28.19,28.19,0,0,1,3.54,8.91c1.54,9.08-3.83,13.2-3.83,13.2C273.67,77.61,265.33,73,265.33,73c-5.42-3.25-4.73-10.41-4.73-10.41,7.78,3.94,9.3-.5,9.3-.5,1.83-2.86-3-7.59-3-7.59L251.45,70.35c-6.16,5.26-11.65,4.12-11.65,4.12-6.11-.69-8.05-6.8-8.05-6.8A27.82,27.82,0,0,1,224.5,73a12.26,12.26,0,0,1-8.69,1.2c-5.19-1.2-6.51-7-6.51-7a26.41,26.41,0,0,1-8.79,6.11C194.39,75.66,191,74,191,74c-4.11-1.43-4.56-6.63-4.56-6.63a27.25,27.25,0,0,1-8.29,6c-3.65,2-8.11,1-8.11,1a6.78,6.78,0,0,1-4.62-4.11c-1.26-3.54.23-8.11.23-8.11L168,53.5a5.86,5.86,0,0,1-4.6.15C157.43,66.58,149.21,72,149.21,72a12,12,0,0,1-10.28,2.23A7.53,7.53,0,0,1,133,67.18c-1.6,1.75-7.48,5.23-7.48,5.23-5.88,3.25-10.68,1.77-10.68,1.77-6.74-1.49-5.71-9.42-5.71-9.42C98.61,74,91.41,74.35,91.41,74.35a14.11,14.11,0,0,1-12.68-3.94c-5.71-5.77-3.2-15.19-3.2-15.19A28.52,28.52,0,0,1,83,41.91a27.81,27.81,0,0,1,12.91-7.48c10.56-1.83,13.65,3.88,13.65,3.88a8.7,8.7,0,0,1-1.09,10.62c-5.14,5.94-18,10-18,10A6,6,0,0,0,93.58,62.47Zm5.94-18.22c.12-3.14-2.68-2.34-2.68-2.34-6.63,2.4-6.89,11-6.89,11C99.86,48.64,99.52,44.25,99.52,44.25Z" fill="#122b4e"/></svg>