<?xml version="1.0" encoding="utf-8"?>
<!-- Generator: Adobe Illustrator 19.2.1, SVG Export Plug-In . SVG Version: 6.00 Build 0)  -->
<svg version="1.1" id="Lager_1" xmlns="http://www.w3.org/2000/svg" xmlns:xlink="http://www.w3.org/1999/xlink" x="0px" y="0px"
	 viewBox="0 0 415 398" style="enable-background:new 0 0 415 398;" xml:space="preserve">
<style type="text/css">
	.st0{fill:none;stroke:#EFF1C9;stroke-width:2;stroke-linecap:round;stroke-linejoin:round;stroke-miterlimit:10;}
</style>
<g>
	<circle class="st0" cx="47.2" cy="33.8" r="14.9"/>
	<g>
		<path class="st0" d="M69.6,19.3v28.9 M69.6,19.2c0,0,16-3.4,16,7s-16,8.5-16,8.5"/>
	</g>
	<g>
		<path class="st0" d="M95.6,19.2v29.2h15 M95.6,33h12 M95.6,19.2h15"/>
	</g>
	<path class="st0" d="M119.7,19.2v29.2 M119.7,19.2l20,29.2V19.2"/>
	<path class="st0" d="M167,20.7c0,0-3.2-1.6-7.2-1.6c-5,0-8.5,2.3-8.5,6.9c0,7.4,15.7,6.8,15.7,15.3c0,5.3-3.7,7.2-7.2,7.2
		c-2.8,0-6-0.4-8.6-2"/>
</g>
<path class="st0" d="M188.2,124.1c-62.6,4-94.7,15.8-107.8,22.4C15.3,179,7.2,210.3,7.2,227.2c0,15.3,10.5,25.6,21.8,25.6
	c11.5,0,27.7-14.3,27.7-34.6c0-24.9-24.4-55.6-24.4-80c0-39.9,31.4-65.8,55.7-65.8c24.7,0,46.3,15,46.3,56.6
	c0,40.4-35.7,94.6-8.3,94.6c11,0,31.2-41.3,32-61.1c0.1-2.7-0.6-9.6-5.8-9.6c-7.3,0-9.6,7.5-9.6,12.6c0,13.4,24.3,22.2,24.3,56.8
	c0,13.7-5.5,46.5-19.2,47.2c-24.7,0,14-122.8,38.9-122.8c28,0-18,62.4-2.9,62.4c9.4,0,30.1-48.9,35.1-68.9
	c2.1-8.2,7.3-23.7-2.1-23.7c-8.8,0-13.7,11.8-13.5,18.6c0.3,10.1,3.8,13.5,11.5,13.5c7.5,0,19.6-13.7,22.6-13.7
	c15.5,0-28.2,62.2-5.8,62.2c10.9,0,25.2-62.8,34.5-62.8c12.5,0-7.6,33.7-7.6,48.4c0,0,0.2,9.5,9,9.5c30.2,0,77.9-132.4,55.3-132.4
	c-17.3,0-36.9,75.7-40.4,100.1c-3.8,26.4,4.2,49.9,22,58.2c40.5,18.8,82.3-9.7,97-56.3C413.1,124.3,419,54.1,362,21.1
	c-29.3-17-64.7-20.1-92.5-1.2c-15.7,10.6-28.1,27.1-30.7,45.9c-2.9,20.2,7.3,42.6,26.7,50.1c1.9,0.7,3.9,1.1,5.9,1.1
	c5.4,0,9.8-4.4,9.8-9.8s-4.4-9.8-9.8-9.8s-9.8,4.4-9.8,9.8s4.4,9.8,9.8,9.8"/>
<path class="st0" d="M271.4,111.8c-2.5,0-4.6-2-4.6-4.6s2-4.6,4.6-4.6s4.6,2,4.6,4.6S273.9,111.8,271.4,111.8"/>
<polyline class="st0" points="257.7,241.7 278.4,230.5 278.4,357.5 "/>
<path class="st0" d="M183.2,282.2c0-10.6,9.4-31.2,30.9-31.2c20.1,0,32.2,12.5,32.2,33c0,31.1-53.3,43.7-69,73.5h67.8"/>
<path class="st0" d="M318.2,258.3c0-4.2-4.7-7.9-8.8-7.9s-8.8,2.8-8.8,9.5c0,9.7,17.6,5.5,17.6,16.7c0,6.7-4.7,9.5-8.8,9.5
	s-8.8-3.7-8.8-7.9"/>
<line class="st0" x1="300.5" y1="295.5" x2="346.7" y2="295.5"/>
<line class="st0" x1="323.9" y1="252" x2="346.7" y2="252"/>
<line class="st0" x1="335.3" y1="252" x2="335.3" y2="285.1"/>
<line class="st0" x1="282.9" y1="230.5" x2="282.9" y2="357.5"/>
<line class="st0" x1="300.5" y1="299.8" x2="346.7" y2="299.8"/>
</svg>
