<?xml version="1.0" encoding="utf-8"?>
<!-- Generator: Adobe Illustrator 21.1.0, SVG Export Plug-In . SVG Version: 6.00 Build 0)  -->
<svg version="1.1" id="Lager_1" xmlns="http://www.w3.org/2000/svg" xmlns:xlink="http://www.w3.org/1999/xlink" x="0px" y="0px"
	 width="971px" height="971px" viewBox="0 0 971 971" style="enable-background:new 0 0 971 971;" xml:space="preserve">
<style type="text/css">
	.st0{fill:#FFFFFF;}
	.st1{fill:#1B2B34;}
	.st2{fill:none;stroke:#CDCCCC;stroke-width:2;stroke-linecap:round;stroke-miterlimit:10;}
	.st3{opacity:0.59;}
	.st4{fill:#DDDDDD;}
	.st5{fill:none;stroke:#CDCCCC;stroke-width:2;stroke-miterlimit:10;}
</style>
<rect class="st0" width="971" height="971"/>
<g>
	<path class="st1" d="M439.4,610.4h-31.6c-15.5,0-19.5-3.3-20.4-12.8l-3-21.9h-66l-10.6,21.9c-4.6,9.4-9.1,12.8-24.3,12.8H250
		c-9.4,0-10.3-4.3-5.8-12.5l104-192.8c4.6-8.8,8.8-10.6,17.6-10.6h34.4c8.8,0,12.8,2.1,14.3,10L450.6,598
		C452.2,606.2,448.8,610.4,439.4,610.4z M374.9,449.9h-2.7c0,0-4,21.9-13.7,42.3L341.2,528h37.7l-4.9-35.6
		C371.6,471.8,374.9,449.9,374.9,449.9z"/>
	<path class="st1" d="M662.3,454.2c-4,20.4-12.5,31.9-29.8,42.6l-0.3,1.2c17.9,8.5,25.5,28.3,21,54.7c-7,39.2-41,57.8-83.9,57.8H478
		c-9.7,0-12.5-3.3-10.6-12.8l33.4-190.3c1.8-9.7,5.5-13.1,15.2-13.1h89.1C647.4,394.3,668.6,418,662.3,454.2z M575.3,525.6h-35
		l-6.4,35.6h35.3c12.8,0,20.4-5.2,22.5-17.9C594.1,531.1,588.4,525.6,575.3,525.6z M583.8,443.2h-29.2l-5.8,33.4H578
		c12.2,0,19.5-4.6,21.6-16.4C601.8,448.4,596.3,443.2,583.8,443.2z"/>
	<path class="st1" d="M792.1,390c46.8,0,69.3,20.1,75.7,54.1c1.8,8.8-0.6,13.4-10.3,16.4l-31.3,10.6c-9.7,3-13.1,1.2-15.2-8.2
		c-2.7-13.7-10.6-19.8-27.7-19.8c-24,0-35.3,10.3-38.9,31.6l-10,55.3c-3.6,21.3,4,31.6,28,31.6c17,0,27.7-6.7,35-19.8
		c5.5-9.4,9.4-11.6,17.9-8.2l31.6,12.2c8.5,3,10,7.6,5.2,16.4c-18.5,34.1-51.4,52.6-98.2,52.6c-59.9,0-87.9-35.6-79.1-87.9l10-56.2
		C693.9,418.6,732.2,390,792.1,390z"/>
	<line class="st2" x1="372.6" y1="450" x2="206.6" y2="360"/>
	<g>
		<circle class="st0" cx="206.6" cy="360" r="96"/>
	</g>
	<g>
		<path class="st1" d="M206.6,264c-53,0-96,43-96,96c0,36.3,20.1,67.8,49.8,84.2l11.4-23.6c20-41.9,28.2-87,28.2-87h5.6
			c0,0-6.9,45.1-1.9,87.6l4.8,34.8c52.1-1,94.1-43.6,94.1-96C302.6,307,259.7,264,206.6,264z"/>
	</g>
	<g class="st3">
		<path class="st4" d="M206.6,264c53,0,96,43,96,96s-43,96-96,96c-53,0-96-43-96-96S153.6,264,206.6,264 M206.6,256
			c-57.3,0-104,46.7-104,104s46.7,104,104,104s104-46.7,104-104S264,256,206.6,256L206.6,256z"/>
	</g>
	<circle class="st5" cx="206.6" cy="360" r="104"/>
</g>
</svg>
