<svg xmlns="http://www.w3.org/2000/svg" viewBox="0 0 910 668" width="910" height="668" preserveAspectRatio="xMidYMid meet" style="width: 100%; height: 100%;"><defs><clipPath id="animationMask_YeCjkLjgPI"><rect width="910" height="668" x="0" y="0"></rect></clipPath></defs><g clip-path="url(#animationMask_YeCjkLjgPI)"><g transform="matrix(1,0,0,1,730,318)" opacity="1" style="-webkit-user-select: none;"><g opacity="1" transform="matrix(1,0,0,1,0,0)"><path fill="rgb(187,226,23)" fill-opacity="1" d="M0 0 M-83.36,-71.325 C-83.36,-71.325 -108.657,-67.652 -108.657,-67.652 C-108.657,-67.652 -115.919,-82.276 -115.919,-82.276 C-115.919,-82.276 -115.919,-82.276 -115.919,-82.276 C-115.919,-82.276 -83.36,-71.325 -83.36,-71.325z"></path></g><g opacity="1" transform="matrix(1,0,0,1,0,0)"><path fill="rgb(179,206,17)" fill-opacity="1" d="M0 0 M-83.36,-71.325 C-83.36,-71.325 -115.919,-82.276 -115.919,-82.276 C-115.919,-82.276 -115.919,-82.276 -115.919,-82.276 C-115.919,-82.276 -101.295,-89.539 -101.295,-89.539 C-101.295,-89.539 -83.36,-71.325 -83.36,-71.325z"></path></g></g><g transform="matrix(1,0,0,1,730,318)" opacity="1" style="-webkit-user-select: none;"><g opacity="1" transform="matrix(1,0,0,1,0,0)"><path fill="rgb(187,226,23)" fill-opacity="1" d="M0 0 M-96.391,-138.352 C-96.391,-138.352 -111.853,-90.188 -111.853,-90.188 C-111.853,-90.188 -111.853,-90.188 -111.853,-90.188 C-111.853,-90.188 -90.468,-101.179 -90.468,-101.179 C-90.468,-101.179 -96.391,-138.352 -96.391,-138.352z"></path></g><g opacity="1" transform="matrix(1,0,0,1,0,0)"><path fill="rgb(179,206,17)" fill-opacity="1" d="M0 0 M-96.391,-138.352 C-96.391,-138.352 -111.853,-90.188 -111.853,-90.188 C-111.853,-90.188 -111.853,-90.188 -111.853,-90.188 C-111.853,-90.188 -122.866,-111.728 -122.866,-111.728 C-122.866,-111.728 -96.391,-138.352 -96.391,-138.352z"></path></g></g><g transform="matrix(0.9983,0.0591,-0.0591,0.9983,724.6577,324.8512)" opacity="1" style="-webkit-user-select: none;"><g opacity="1" transform="matrix(1,0,0,1,0,0)"><path fill="rgb(187,226,23)" fill-opacity="1" d="M0 0 M-157.139,-54.233 C-157.139,-54.233 -118.554,-86.945 -118.554,-86.945 C-118.554,-86.945 -118.554,-86.945 -118.554,-86.945 C-118.554,-86.945 -142.517,-88.919 -142.517,-88.919 C-142.517,-88.919 -157.139,-54.233 -157.139,-54.233z"></path></g><g opacity="1" transform="matrix(1,0,0,1,0,0)"><path fill="rgb(179,206,17)" fill-opacity="1" d="M0 0 M-157.139,-54.233 C-157.139,-54.233 -118.554,-86.945 -118.554,-86.945 C-118.554,-86.945 -118.554,-86.945 -118.554,-86.945 C-118.554,-86.945 -120.591,-62.839 -120.591,-62.839 C-120.591,-62.839 -157.139,-54.233 -157.139,-54.233z"></path></g></g><g></g><g transform="matrix(1,0,0,1,730,318)" opacity="1" style="-webkit-user-select: none;"><g opacity="1" transform="matrix(1,0,0,1,0,0)"><path fill="rgb(187,226,23)" fill-opacity="1" d="M0 0 M-69.994,3.536 C-69.994,3.536 -91.458,-42.27 -91.458,-42.27 C-91.458,-42.27 -91.458,-42.27 -91.458,-42.27 C-91.458,-42.27 -99.639,-19.661 -99.639,-19.661 C-99.639,-19.661 -69.994,3.536 -69.994,3.536z"></path></g><g opacity="1" transform="matrix(1,0,0,1,0,0)"><path fill="rgb(179,206,17)" fill-opacity="1" d="M0 0 M-69.994,3.536 C-69.994,3.536 -91.458,-42.27 -91.458,-42.27 C-91.458,-42.27 -91.458,-42.27 -91.458,-42.27 C-91.458,-42.27 -68.728,-33.99 -68.728,-33.99 C-68.728,-33.99 -69.994,3.536 -69.994,3.536z"></path></g></g><g transform="matrix(1,0,0,1,730,318)" opacity="1" style="-webkit-user-select: none;"><g opacity="1" transform="matrix(1,0,0,1,0,0)"><path fill="rgb(187,226,23)" fill-opacity="1" d="M0 0 M-46.358,-121.688 C-46.358,-121.688 -20.227,-165.001 -20.227,-165.001 C-20.227,-165.001 -20.227,-165.001 -20.227,-165.001 C-20.227,-165.001 -43.567,-159.226 -43.567,-159.226 C-43.567,-159.226 -46.358,-121.688 -46.358,-121.688z"></path></g><g opacity="1" transform="matrix(1,0,0,1,0,0)"><path fill="rgb(179,206,17)" fill-opacity="1" d="M0 0 M-46.358,-121.688 C-46.358,-121.688 -20.227,-165.001 -20.227,-165.001 C-20.227,-165.001 -20.227,-165.001 -20.227,-165.001 C-20.227,-165.001 -14.467,-141.505 -14.467,-141.505 C-14.467,-141.505 -46.358,-121.688 -46.358,-121.688z"></path></g></g><g transform="matrix(1,0,0,1,730,318)" opacity="1" style="-webkit-user-select: none;"><g opacity="1" transform="matrix(1,0,0,1,0,0)"><path fill="rgb(187,226,23)" fill-opacity="1" d="M0 0 M132.019,-114.27 C132.019,-114.27 88.705,-88.139 88.705,-88.139 C88.705,-88.139 88.705,-88.139 88.705,-88.139 C88.705,-88.139 94.48,-111.479 94.48,-111.479 C94.48,-111.479 132.019,-114.27 132.019,-114.27z"></path></g></g><g transform="matrix(1,0,0,1,730,318)" opacity="1" style="-webkit-user-select: none;"><g opacity="1" transform="matrix(1,0,0,1,0,0)"><path fill="rgb(187,226,23)" fill-opacity="1" d="M0 0 M-14.87,-203.847 C-14.87,-203.847 -14.618,-178.286 -14.618,-178.286 C-14.618,-178.286 0.947,-173.353 0.947,-173.353 C0.947,-173.353 0.947,-173.353 0.947,-173.353 C0.947,-173.353 -14.87,-203.847 -14.87,-203.847z"></path></g><g opacity="1" transform="matrix(1,0,0,1,0,0)"><path fill="rgb(179,206,17)" fill-opacity="1" d="M0 0 M-14.87,-203.847 C-14.87,-203.847 0.947,-173.353 0.947,-173.353 C0.947,-173.353 0.947,-173.353 0.947,-173.353 C0.947,-173.353 5.88,-188.918 5.88,-188.918 C5.88,-188.918 -14.87,-203.847 -14.87,-203.847z"></path></g></g><g transform="matrix(1,0,0,1,730,318)" opacity="1" style="-webkit-user-select: none;"><g opacity="1" transform="matrix(1,0,0,1,0,0)"><path stroke-linecap="round" stroke-linejoin="miter" fill-opacity="0" stroke-miterlimit="10" stroke="rgb(163,12,56)" stroke-opacity="1" stroke-width="13" d="M0 0 M-28.568,-41.87 C-28.568,-41.87 51.97299999999999,-41.87 85.46,-41.87"></path></g></g><g transform="matrix(1,0,0,1,730,318)" opacity="1" style="-webkit-user-select: none;"><g opacity="1" transform="matrix(1,0,0,1,0,0)"><path stroke-linecap="round" stroke-linejoin="miter" fill-opacity="0" stroke-miterlimit="10" stroke="rgb(163,12,56)" stroke-opacity="1" stroke-width="13" d="M0 0 M-114.616,-105.475 C-114.616,-105.475 -114.616,-120.56899999999999 -114.616,-87.082 C-114.616,-53.59499999999999 -100.69,-41.87 -69.405,-41.87 C-38.120000000000005,-41.87 -8.122,-41.87 -8.122,-41.87"></path></g></g><g transform="matrix(1,0,0,1,730,318)" opacity="1" style="-webkit-user-select: none;"><g opacity="1" transform="matrix(1,0,0,1,0,0)"><path stroke-linecap="round" stroke-linejoin="miter" fill-opacity="0" stroke-miterlimit="10" stroke="rgb(163,12,56)" stroke-opacity="1" stroke-width="13" d="M0 0 M85.46,-68.5 C85.46,-68.5 85.46,-89.548 85.46,-123.035 C85.46,-156.522 71.534,-168.246 40.249,-168.246 C8.964000000000002,-168.246 -21.035,-168.246 -21.035,-168.246"></path></g></g><g transform="matrix(1,0,0,1,730,318)" opacity="1" style="-webkit-user-select: none;"><g opacity="1" transform="matrix(1,0,0,1,0,0)"><path fill="rgb(187,226,23)" fill-opacity="1" d="M0 0 M-139.928,-125.253 C-139.928,-125.253 -117.208,-113.537 -117.208,-113.537 C-117.208,-113.537 -119.799,-97.416 -119.799,-97.416 C-119.799,-97.416 -119.799,-97.416 -119.799,-97.416 C-119.799,-97.416 -139.928,-125.253 -139.928,-125.253z"></path></g><g opacity="1" transform="matrix(1,0,0,1,0,0)"><path fill="rgb(179,206,17)" fill-opacity="1" d="M0 0 M-139.928,-125.253 C-139.928,-125.253 -119.799,-97.416 -119.799,-97.416 C-119.799,-97.416 -119.799,-97.416 -119.799,-97.416 C-119.799,-97.416 -135.92,-100.007 -135.92,-100.007 C-135.92,-100.007 -139.928,-125.253 -139.928,-125.253z"></path></g></g><g transform="matrix(1,0,0,1,730,318)" opacity="1" style="-webkit-user-select: none;"><g opacity="1" transform="matrix(1,0,0,1,0,0)"><path fill="rgb(187,226,23)" fill-opacity="1" d="M0 0 M49.859,-82.782 C49.859,-82.782 75.42,-82.53 75.42,-82.53 C75.42,-82.53 80.353,-66.965 80.353,-66.965 C80.353,-66.965 80.353,-66.965 80.353,-66.965 C80.353,-66.965 49.859,-82.782 49.859,-82.782z"></path></g><g opacity="1" transform="matrix(1,0,0,1,0,0)"><path fill="rgb(179,206,17)" fill-opacity="1" d="M0 0 M49.859,-82.782 C49.859,-82.782 80.353,-66.965 80.353,-66.965 C80.353,-66.965 80.353,-66.965 80.353,-66.965 C80.353,-66.965 64.789,-62.032 64.789,-62.032 C64.789,-62.032 49.859,-82.782 49.859,-82.782z"></path></g></g><g transform="matrix(1,0,0,1,730,318)" opacity="1" style="-webkit-user-select: none;"><g opacity="1" transform="matrix(1,0,0,1,0,0)"><path stroke-linecap="round" stroke-linejoin="miter" fill-opacity="0" stroke-miterlimit="10" stroke="rgb(163,12,56)" stroke-opacity="1" stroke-width="13" d="M0 0 M185.206,17.548 C185.206,17.548 164.158,17.548 130.671,17.548 C97.184,17.548 85.46,3.622 85.46,-27.663 C85.46,-58.948 85.46,-88.947 85.46,-88.947"></path></g></g><g transform="matrix(1,0,0,1,730,314)" opacity="1" style="-webkit-user-select: none;"><g opacity="1" transform="matrix(1,0,0,1,0,0)"><path stroke-linecap="butt" stroke-linejoin="miter" fill-opacity="0" stroke-miterlimit="10" stroke="rgb(249,157,133)" stroke-opacity="1" stroke-width="15" d="M0 0 M-209.885,116.97 C-190.237,116.399 -170.923,113.185 -162.985,130.993 C-158.061,142.04 -157.51500000000001,161.17899999999997 -163.983,194.057"></path></g></g><g></g><g transform="matrix(1,0,0,1,730,318)" opacity="1" style="-webkit-user-select: none;"><g opacity="1" transform="matrix(1,0,0,1,0,0)"><path fill="rgb(51,2,18)" fill-opacity="1" d="M0 0 M-606.583,21.75 C-606.583,21.75 -523.9300000000001,143.633 -412,176 C-351.483,193.5 -121.793,153.173 2.701,80.6 C2.701,80.6 -1.25,78.875 -1.25,78.875 C-37.125,88.923 -174.095,122.99000000000001 -325.728,112.048 C-421.176,105.16 -518.188,80.945 -602.083,18.75 C-604.173,17.201 -606.583,21.75 -606.583,21.75z"></path></g></g><g transform="matrix(1,0,0,1,730,324)" opacity="1" style="-webkit-user-select: none;"><g opacity="1" transform="matrix(1,0,0,1,0,0)"><path stroke-linecap="butt" stroke-linejoin="miter" fill-opacity="0" stroke-miterlimit="10" stroke="rgb(56,114,160)" stroke-opacity="1" stroke-width="15" d="M0 0 M-244,126 C-244,126 -211.074,107.87 -179.866,106.964"></path></g></g><g transform="matrix(1,0,0,1,710,323.5)" opacity="1" style="-webkit-user-select: none;"><g opacity="1" transform="matrix(1,0,0,1,0,0)"><path stroke-linecap="butt" stroke-linejoin="miter" fill-opacity="0" stroke-miterlimit="10" stroke="rgb(41,85,119)" stroke-opacity="1" stroke-width="15" d="M0 0 M-244,126 C-244,126 -211.074,107.87 -179.866,106.964"></path></g></g><g transform="matrix(1,0,0,1,730,321.5)" opacity="1" style="-webkit-user-select: none;"><g opacity="1" transform="matrix(1,0,0,1,0,0)"><path fill="rgb(16,23,81)" fill-opacity="1" d="M0 0 M-349.481,73.028 C-349.481,73.028 -352.664,73.87 -352.664,73.87 C-354.96799999999996,74.48 -357.352,73.09400000000001 -357.962,70.79 C-357.962,70.79 -371.573,19.369 -371.573,19.369 C-372.183,17.065 -370.796,14.681 -368.492,14.071 C-368.492,14.071 -365.309,13.229 -365.309,13.229 C-363.00500000000005,12.619 -360.62100000000004,14.005 -360.011,16.309 C-360.011,16.309 -346.401,67.73 -346.401,67.73 C-345.791,70.034 -347.177,72.418 -349.481,73.028z"></path></g></g><g transform="matrix(1,0,0,1,730,321.5)" opacity="1" style="-webkit-user-select: none;"><g opacity="1" transform="matrix(1,0,0,1,0,0)"><path fill="rgb(226,230,247)" fill-opacity="1" d="M0 0 M-353.569,69.421 C-353.569,69.421 -354.76,69.737 -354.76,69.737 C-355.762,70.002 -356.798,69.399 -357.063,68.397 C-357.063,68.397 -369.71,20.619 -369.71,20.619 C-369.97499999999997,19.617 -369.373,18.581 -368.371,18.316 C-368.371,18.316 -367.18,18 -367.18,18 C-366.178,17.735 -365.14099999999996,18.338 -364.876,19.34 C-364.876,19.34 -352.23,67.118 -352.23,67.118 C-351.96500000000003,68.11999999999999 -352.567,69.156 -353.569,69.421z"></path></g></g><g transform="matrix(0.9903,-0.1392,0.1392,0.9903,418.968,328.581)" opacity="1" style="-webkit-user-select: none;"><g opacity="1" transform="matrix(1,0,0,1,0,0)"><path fill="rgb(205,16,192)" fill-opacity="1" d="M0 0"></path><path stroke-linecap="butt" stroke-linejoin="miter" fill-opacity="0" stroke-miterlimit="4" stroke="rgb(233,21,21)" stroke-opacity="1" stroke-width="0" d="M0 0"></path></g></g><g transform="matrix(0.9903,-0.1392,0.1392,0.9903,418.968,328.581)" opacity="1" style="-webkit-user-select: none;"><g opacity="1" transform="matrix(1,0,0,1,0,0)"><path fill="rgb(205,16,192)" fill-opacity="1" d="M0 0"></path><path stroke-linecap="butt" stroke-linejoin="miter" fill-opacity="0" stroke-miterlimit="4" stroke="rgb(255,255,255)" stroke-opacity="1" stroke-width="0" d="M0 0"></path></g></g><g transform="matrix(1,0,0,1,733,314)" opacity="1" style="-webkit-user-select: none;"><g opacity="1" transform="matrix(1,0,0,1,0,0)"><path stroke-linecap="round" stroke-linejoin="miter" fill-opacity="0" stroke-miterlimit="10" stroke="rgb(255,169,146)" stroke-opacity="1" stroke-width="7" d="M0 0 M-411.504,39 C-411.504,39 -397.053,39.432 -397.053,39.432 C-397.053,39.432 -383.513,39.836 -383.513,39.836"></path></g></g><g transform="matrix(1,0,0,1,733,314)" opacity="1" style="-webkit-user-select: none;"><g opacity="1" transform="matrix(1,0,0,1,0,0)"><path stroke-linecap="round" stroke-linejoin="miter" fill-opacity="0" stroke-miterlimit="10" stroke="rgb(255,169,146)" stroke-opacity="1" stroke-width="15" d="M0 0 M-407.06,43.128 C-407.06,43.128 -408.567,42.975 -411.079,42.909 C-427.355,42.482 -485.807,45.717 -449.572,117.984"></path></g></g><g></g><g transform="matrix(1,0,0,1,730,321.5)" opacity="1" style="-webkit-user-select: none;"><g opacity="1" transform="matrix(1,0,0,1,0,0)"><path stroke-linecap="butt" stroke-linejoin="miter" fill-opacity="0" stroke-miterlimit="10" stroke="rgb(255,177,153)" stroke-opacity="1" stroke-width="15" d="M0 0 M-356.203,45.91 C-356.203,45.91 -333.72299999999996,62.55 -335.222,89.116 C-337.303,126 -373.304,141 -417.304,126"></path></g></g><g></g><g transform="matrix(1,0,0,1,730,321.5)" opacity="1" style="-webkit-user-select: none;"><g opacity="1" transform="matrix(1,0,0,1,0,0)"><path stroke-linecap="butt" stroke-linejoin="miter" fill-opacity="0" stroke-miterlimit="10" stroke="rgb(56,114,160)" stroke-opacity="1" stroke-width="15" d="M0 0 M-244,126 C-244,126 -211.074,107.87 -179.866,106.964"></path></g></g><g></g><g transform="matrix(1,0,0,1,734,313.5)" opacity="1" style="-webkit-user-select: none;"><g opacity="1" transform="matrix(1,0,0,1,0,0)"><path fill="rgb(255,177,153)" fill-opacity="1" d="M0 0 M-481.385,70.764 C-481.385,92.078 -503.98699999999997,123.449 -519.978,109.357 C-534,97 -558.57,92.078 -558.57,70.764 C-558.57,49.449999999999996 -541.2919999999999,32.172 -519.978,32.172 C-498.66399999999993,32.172 -481.385,49.449999999999996 -481.385,70.764z"></path></g></g><g></g><g transform="matrix(1,0,0,1,734,313.5)" opacity="1" style="-webkit-user-select: none;"><g opacity="1" transform="matrix(1,0,0,1,0,0)"><path fill="rgb(198,94,0)" fill-opacity="1" d="M0 0 M-551.896,73.3 C-551.896,73.3 -479.5,52.010999999999996 -506.23,8.651 C-506.23,8.651 -507.99,15.261 -516.5,20 C-521.988,23.056 -532.315,23.584 -540,26.913 C-559.601,35.405 -562.515,57.544 -551.896,73.3z"></path></g></g><g transform="matrix(1,0,0,1,734,313.5)" opacity="1" style="-webkit-user-select: none;"><g opacity="1" transform="matrix(1,0,0,1,0,0)"><path stroke-linecap="round" stroke-linejoin="miter" fill-opacity="0" stroke-miterlimit="10" stroke="rgb(16,23,81)" stroke-opacity="1" stroke-width="3" d="M0 0 M-494.09,59.333 C-494.09,59.333 -495.71,56.556 -495.71,56.556"></path></g></g><g transform="matrix(1,0,0,1,730,318)" opacity="1" style="-webkit-user-select: none;"><g opacity="1" transform="matrix(1,0,0,1,0,0)"><path fill="rgb(94,4,34)" fill-opacity="1" d="M0 0 M-606.583,21.75 C-606.583,21.75 -523.9300000000001,143.633 -412,176 C-351.483,193.5 -121.793,153.173 2.701,80.6 C2.701,80.6 -1.25,78.875 -1.25,78.875 C-37.125,88.923 -174.095,132.99 -325.728,122.048 C-421.176,115.16 -518.188,80.945 -602.083,18.75 C-604.173,17.201 -606.583,21.75 -606.583,21.75z"></path></g></g><g transform="matrix(0.9997,-0.0262,0.0262,0.9997,733.728,298.829)" opacity="1" style="-webkit-user-select: none;"><g opacity="1" transform="matrix(1,0,0,1,0,0)"><path stroke-linecap="round" stroke-linejoin="miter" fill-opacity="0" stroke-miterlimit="10" stroke="rgb(249,245,202)" stroke-opacity="1" stroke-width="6" d="M0 0 M-608.018,24.162 C-608.018,24.162 -730.373,-151.975 -730.373,-151.975"></path></g></g><g transform="matrix(0.9997,0.0262,-0.0262,0.9997,730.4863,314.8515)" opacity="1" style="-webkit-user-select: none;"><g opacity="1" transform="matrix(1,0,0,1,0,0)"><path stroke-linecap="round" stroke-linejoin="miter" fill-opacity="0" stroke-miterlimit="10" stroke="rgb(249,245,202)" stroke-opacity="1" stroke-width="6" d="M0 0 M2.95,81.724 C2.95,81.724 122.084,15.547 122.084,15.547 C122.084,15.547 122.084,8.589 122.084,8.589"></path></g></g><g transform="matrix(1,0,0,1,730,318)" opacity="1" style="-webkit-user-select: none;"><g opacity="1" transform="matrix(1,0,0,1,0,0)"><path stroke-linecap="round" stroke-linejoin="miter" fill-opacity="0" stroke-miterlimit="10" stroke="rgb(249,245,202)" stroke-opacity="1" stroke-width="6" d="M0 0 M115,8 C115,8 126.5,26.913 126.5,26.913"></path></g></g><g transform="matrix(1,0,0,1,730,321.5)" opacity="1" style="-webkit-user-select: none;"><g opacity="1" transform="matrix(1,0,0,1,0,0)"><path stroke-linecap="butt" stroke-linejoin="miter" fill-opacity="0" stroke-miterlimit="10" stroke="rgb(255,177,153)" stroke-opacity="1" stroke-width="15" d="M0 0 M-179.866,106.964 C-168.45800000000003,106.633 -156.49300000000002,107.954 -146.604,114.939 C-128.895,127.448 -133.5,164.5 -128.568,230"></path></g></g><g transform="matrix(0.9997,0.0262,-0.0262,0.9997,730.4863,314.8515)" opacity="1" style="-webkit-user-select: none;"><g opacity="1" transform="matrix(1,0,0,1,0,0)"><path stroke-linecap="round" stroke-linejoin="miter" fill-opacity="0" stroke-miterlimit="10" stroke="rgb(249,245,202)" stroke-opacity="1" stroke-width="6" d="M0 0 M-1.001,80.501 C-1.001,80.501 1.95,85.833 1.95,85.833"></path></g></g><g transform="matrix(0.9997,-0.0262,0.0262,0.9997,733.728,298.829)" opacity="1" style="-webkit-user-select: none;"><g opacity="1" transform="matrix(1,0,0,1,0,0)"><path stroke-linecap="round" stroke-linejoin="miter" fill-opacity="0" stroke-miterlimit="10" stroke="rgb(249,245,202)" stroke-opacity="1" stroke-width="6" d="M0 0 M-604.833,21.499 C-604.833,21.499 -610.999,26.913 -610.999,26.913"></path></g></g><g></g></g></svg>