<svg xmlns="http://www.w3.org/2000/svg" width="510" height="444" style="width:100%;height:100%"><defs><clipPath id="a"><path d="M0 0h510v444H0z"/></clipPath></defs><g clip-path="url(#a)"><path fill="#7A5858" d="M123 446a132 132 0 1 1 265 0"/><path fill="#424649" d="M248 363c20-1 58 4 79-2 4-1 12-12 13-17a132 132 0 0 0-207 50c29-15 83-29 115-31z"/><path stroke-linecap="round" stroke-linejoin="round" stroke="#CE9061" stroke-width="11.99952" d="M130 288c1 8 12 6 12 6 78-8 83-81 89-91s13-6 13-6" fill="none"/><path fill="#587A3D" d="M294 257s-4-17-32-19c-29-2-35 15-35 15l-12 80s13 9 40 11 40-6 40-6l-1-81z"/><path fill="#281F44" d="M215 333s13 9 40 11 40-6 40-6v-34s-18-5-38-6c-19-1-37 1-37 1l-5 34z"/><path stroke-linecap="round" stroke-miterlimit="10" stroke="#C57640" stroke-width="17.9991" d="M280 321l80-11" fill="none"/><path stroke-linecap="round" stroke-miterlimit="10" stroke="#CE8B55" stroke-width="18" d="M232 319l-85-13" fill="none"/><path stroke-linecap="round" stroke-miterlimit="10" stroke="#CE8B55" stroke-width="17.9991" d="M360 310s-75 38-179 36" fill="none"/><path stroke-linecap="round" stroke-miterlimit="10" stroke="#CE9D75" stroke-width="18" d="M147 306s73 40 177 39" fill="none"/><path stroke-linecap="round" stroke-linejoin="round" stroke="#CE9061" stroke-width="11.99964" d="M376 292c-2 8-13 5-13 5-77-11-62-80-68-90-6-11-12-7-12-7" fill="none"/><path fill="#587A3D" d="M242 189l-5 2-10 62a117 117 0 0 0 67 4l-2-62-6-3"/><path fill="#CE9061" d="M286 194s-11-3-22-3h-22c9 19 1 37 20 38s15-17 24-35z"/><path stroke-linecap="round" stroke-miterlimit="10" stroke="#C57640" stroke-width="13" d="M264 190l7-36" fill="none"/><path fill="#CE8B55" d="M305 132a38 38 0 1 0-76 1 38 38 0 0 0 76-1z"/><path stroke-linecap="round" stroke-miterlimit="10" stroke="#292222" stroke-width="4.00008" d="M277 128h12M247 128h11" fill="none"/><path fill="#401708" d="M253 97s17 28 51 25c3 0 9-17-10-28-18-11-37-13-41 3z"/><path fill="#401708" d="M327 128a15 15 0 1 1-30 0 15 15 0 0 1 30 0z"/><path stroke-linecap="round" stroke-miterlimit="10" stroke="#940E0E" stroke-width="4.00008" d="M260 151l15-1" fill="none"/><path fill="#CE8B55" d="M225 145h10c4 0 7-3 7-8v-2c0-4-3-8-7-8l-10 1c-4 0-8 3-7 7v3c0 4 3 7 7 7z"/><path fill="#CEC400" d="M232 154l-14 1 7-15 7 14zM230 162a5 5 0 1 1-10 1 5 5 0 0 1 10-1z"/><path stroke-miterlimit="10" stroke="#CEC400" d="M225 163v-27" fill="none" stroke-width="1.00002"/></g></svg>