<svg xmlns="http://www.w3.org/2000/svg" width="1284" height="1287" style="width:100%;height:100%"><defs><clipPath id="a"><path d="M0 0h1284v1287H0z"/></clipPath></defs><g clip-path="url(#a)"><path stroke-miterlimit="10" stroke="#EFB07D" stroke-width="13" d="M490.02 587s47.51 75.65 128.86 108.58" fill="none"/><path fill="#4F575B" d="M627.7 678.98l-12.5 70.9a4 4 0 0 1-4.63 3.25l-13.8-2.43a4 4 0 0 1-3.24-4.63l12.5-70.91a4 4 0 0 1 4.64-3.25l13.78 2.44a4 4 0 0 1 3.25 4.63z"/><g style="-webkit-user-select:none"><path fill="#E1E5F6" d="M624.74 678.46l-12.5 70.9-13.78-2.43 12.5-70.9 13.78 2.43z"/><path d="M616.7900000000001 712.09l-.53 2.95-9.84-1.74.52-2.95 9.85 1.74z"/></g><path stroke-miterlimit="10" stroke="#FFC999" stroke-width="13" d="M486.1300000000001 601.87s27.54 88.8 124.2 101.94" fill="none"/><path fill="#D31900" d="M699.3299999999999 792.84h-17.39v35.05h17.39v-35.05z"/><path fill="#D31900" d="M690.6400000000001 785.12a2.54 2.54 0 0 0-2.53 2.53v10.39c0 1.39 1.13 2.53 2.53 2.53 1.39 0 2.53-1.14 2.53-2.53v-10.39c0-1.4-1.14-2.53-2.53-2.53z"/><path fill="#A30C38" d="M699.3299999999999 792.31h-17.39l-2.37 6.46h22.13l-2.37-6.46z"/><g style="-webkit-user-select:none"><path stroke-miterlimit="10" stroke="#9E671E" stroke-width="15.36" d="M326.84000000000015 275.89s31.47 66.65 96.32 49.12c20.29-5.49 33.73-28.84 38.43-40.26 4.69-11.42 9.6-39.78 9.6-39.78" fill="none"/><path stroke-miterlimit="10" stroke="#7B1515" stroke-width="16" d="M465.9200000000001 270.35c2.96-12.06 5.27-25.38 5.27-25.38" fill="none"/></g><path fill="#EFEFED" d="M575.72 386H221.75c-2.75 0-5 2.25-5 5v106.55c0 2.75 2.25 5 5 5h353.97c2.75 0 5-2.25 5-5V391c0-2.75-2.25-5-5-5z"/><path fill="#4F1948" d="M235.54999999999995 1287h-58.1c-11 0-20-9-20-20v-99.5c0-11 9-20 20-20h58.1c11 0 20 9 20 20v99.5c0 11-9 20-20 20z"/><path fill="#4F1948" d="M555.79 1202.97H244.2c-11 0-20-9-20-20v-7.35c0-11 9-20 20-20H555.8c11 0 20 9 20 20v7.35c0 11-9 20-20 20z"/><path fill="#4F1948" d="M620.02 1287h-58.1c-11 0-20-9-20-20v-99.5c0-11 9-20 20-20h58.1c11 0 20 9 20 20v99.5c0 11-9 20-20 20z"/><path fill="#7596A0" d="M125.38000000000011 973.08h549.24v194.25H125.38V973.09z"/><path fill="#B2B5AE" d="M125.38000000000011 1146.5h549.24v28.36H125.38v-28.35z"/><path fill="#A6BFC9" d="M232.1300000000001 1146.5h442.49v28.36h-442.5v-28.35z"/><path fill="#727E84" d="M125.38000000000011 1146.5h312.86v28.36H125.38v-28.35z"/><path fill="#576E96" d="M629.5999999999999 1088.63a15.8 15.8 0 0 1-15.74-15.75v-24a15.8 15.8 0 0 1 15.75-15.75 15.8 15.8 0 0 1 15.75 15.75v24a15.8 15.8 0 0 1-15.75 15.75zM161.8699999999999 1088.63a15.8 15.8 0 0 1-15.75-15.75v-24a15.8 15.8 0 0 1 15.75-15.75 15.8 15.8 0 0 1 15.75 15.75v24a15.8 15.8 0 0 1-15.75 15.75zM125.38000000000011 973.08l549.24 28.57-15.01 17.5H125.38v-46.07z"/><path fill="#576E96" d="M299.47 986.98h214.82l-43.02 50.42H256.44l43.03-50.42zM299.47 1108.74h201.06L466.5 1148H265.43l34.04-39.26z"/><path stroke-miterlimit="10" stroke="#4F1948" stroke-width="16" d="M706.76 576.3L659 639.03" fill="none"/><path stroke-miterlimit="10" stroke="#4F1948" stroke-width="7" d="M741 531.3l-82 107.74M715.6199999999999 834.82l-82 107.74" fill="none"/><path fill="#7A7972" d="M625.8900000000001 484l290.7 76.67-4.72 17.93-290.71-76.68 4.73-17.92z"/><path fill="#D3F752" d="M635.8900000000001 482l290.7 76.67-2.36 8.96-290.7-76.67 2.36-8.96z"/><path fill="#8D759E" d="M186.42000000000007 827.89h549.23v13.06H186.42v-13.06z"/><path fill="#23E5D2" d="M125.38000000000011 422.1h549.24v579.55H125.38V422.09z"/><path fill="#24A8E2" d="M297.9000000000001 488.44h184.3L408.88 613.9H194.05L297.9 488.44z"/><path fill="#4F1948" d="M500.53 484H299.47v517.65h201.06V484z"/><path fill="#727E84" d="M500.53 699.52H299.47v302.13h201.06V699.52z"/><path stroke-linecap="round" stroke-miterlimit="10" stroke="#4F1948" stroke-width="7" d="M281.79999999999995 557.03l19.67 28.14M518.5999999999999 557.03l-19.65 28.14" fill="none"/><path fill="#939FA3" d="M530.55 549.99h-261.1v14.08h261.1V550z"/><path fill="#D3F752" d="M500.53 483.14H299.47L269.45 550h261.1l-30.02-66.85z"/><path fill="#A6BFC9" d="M459.3699999999999 819.06h23.8c3.3 0 6-2.7 6-6s-2.7-6-6-6h-23.8c-3.3 0-6 2.7-6 6s2.7 6 6 6z"/><path fill="#DFE2C5" d="M225.1199999999999 517h-50.74a16.98 16.98 0 0 1-16.93-16.93c0-9.31 7.62-16.93 16.93-16.93h50.74c9.31 0 16.93 7.62 16.93 16.93 0 9.32-7.62 16.94-16.93 16.94zM623.0899999999999 517h-50.74a16.98 16.98 0 0 1-16.93-16.93c0-9.31 7.61-16.93 16.93-16.93h50.74c9.31 0 16.93 7.62 16.93 16.93 0 9.32-7.62 16.94-16.93 16.94z"/><path fill="#A6BFC9" d="M299.47 1108.74h201.06v41.52H299.47v-41.52z"/><path fill="#939FA3" d="M216.52999999999997 1146.5h366.94v28.36H216.53v-28.35z"/><path fill="#24A8E2" d="M286.95000000000005 1001.65h201.07l12.51-14.67H299.47l-12.52 14.67z"/><path fill="#939FA3" d="M299.47 986.98h201.06v14.67H299.47v-14.67z"/><path fill="#A30C38" d="M632.4000000000001 1085.3a15.8 15.8 0 0 1-15.75-15.75v-24a15.8 15.8 0 0 1 15.75-15.75 15.8 15.8 0 0 1 15.75 15.75v24a15.8 15.8 0 0 1-15.75 15.75zM164.67000000000007 1085.3a15.8 15.8 0 0 1-15.75-15.75v-24a15.8 15.8 0 0 1 15.75-15.75 15.8 15.8 0 0 1 15.75 15.75v24a15.8 15.8 0 0 1-15.75 15.75z"/><path fill="#E5E5E5" d="M473.25 1094.63h-146.5c-2.75 0-5-2.26-5-5v-31.1c0-2.75 2.25-5 5-5h146.5c2.75 0 5 2.25 5 5v31.1c0 2.74-2.25 5-5 5z"/><path fill="#3D2538" d="M369.5999999999999 1076.8600000000001c0-4.06.05-9.11.12-11.85h-.04a1512.5 1512.5 0 0 1-2.9 20.74h-3.48c-.77-6.2-2.1-16.4-2.65-20.77h-.07c.07 2.78.18 8.19.18 12.3v8.47h-3.34v-23.9h5.5c.92 6.08 1.88 12.89 2.2 16.24h.04c.39-3.4 1.68-10.5 2.64-16.23h5.3v23.9h-3.5v-8.9zM378.79999999999995 1061.8600000000001h3.69v20.6h6l-.3 3.3h-9.38v-23.9zM392.48 1061.8600000000001h4.9c4.14 0 5.73 1.93 5.73 5.44v.88c0 3.39-1.18 4.37-2.22 4.8 1.06.42 2.66 1.31 2.66 4.8v1.8c0 4.04-1.69 6.17-5.84 6.17h-5.23v-23.9zM396.97 1071.59c2.06 0 2.67-.64 2.67-3v-.94c0-1.98-.7-2.75-2.47-2.75h-1.13v6.69h.93zM396.04 1082.74h1.23c2.12 0 2.65-.94 2.65-3.25v-1.6c0-2.32-.59-3.32-2.94-3.32h-.94v8.17zM415.02 1080.17v-2.28c0-2.86 1.22-3.8 2.35-4.52-1.28-.83-2.02-2-2.02-4.52v-.92c0-3.91 2.08-5.68 5.34-5.68 2.84 0 5.1 1.44 5.1 5.76v.81c0 2.85-.94 3.85-2.01 4.52 1.4.73 2.32 1.94 2.32 4.57v2c0 4.6-2.13 6.13-5.62 6.13-2.87 0-5.46-1.12-5.46-5.87zM422.42 1080.4v-2.98c0-1.83-.7-2.45-1.9-2.45s-1.85.8-1.85 2.41v3.04c0 1.51.57 2.49 1.88 2.49 1.27 0 1.87-.73 1.87-2.51zM418.82 1067.68v1.82c0 1.46.65 2.32 1.77 2.32 1.1 0 1.7-.69 1.7-2.38v-1.77c0-1.33-.37-2.32-1.74-2.32-1.3 0-1.73 1.03-1.73 2.33zM436.95000000000005 1085.75v-5.8h-6.55v-2.72l4.98-14.73h4.94v14.45h1.74l-.27 3h-1.47v5.8h-3.37zM436.95 1072.82c0-2.33.1-4.69.14-7h-.04c-1 3.8-2.03 7.33-3.18 11.13h3.08v-4.13zM449.54999999999995 1079.3600000000001l-.83 6.4h-3.75l3.85-23.9h5.2l4 23.9h-3.85l-.94-6.4h-3.68zM452.8 1075.97c-.55-4.06-1.08-7.9-1.35-10.61h-.13c-.1 1.97-.82 7.09-1.3 10.61h2.77z"/><path fill="#0037A6" d="M338.5 1053.53h-11.75c-2.75 0-5 2.25-5 5v31.1c0 2.74 2.25 5 5 5h11.75v-41.1z"/><path fill="#4F1948" d="M590.97 1223.5H206.5V1211h384.47v12.5z"/><path fill="#4F1948" d="M466.27 1231.54H331.2c-2.75 0-5-2.25-5-5v-18.57c0-2.75 2.25-5 5-5h135.07c2.75 0 5 2.25 5 5v18.57c0 2.75-2.25 5-5 5zM621.6600000000001 1231.54h-81.88c-2.75 0-5-2.25-5-5v-18.57c0-2.75 2.25-5 5-5h81.88c2.75 0 5 2.25 5 5v18.57c0 2.75-2.25 5-5 5zM257.47 1232.79H175.6c-2.75 0-5-2.25-5-5v-18.57c0-2.75 2.25-5 5-5h81.88c2.75 0 5 2.25 5 5v18.57c0 2.75-2.25 5-5 5z"/><path fill="#576E96" d="M125.38000000000011 432.74l549.24 12.56-9 10.5H125.37v-23.06z"/><path fill="#D3F752" d="M125.38000000000011 422.1h549.24v23.82H125.38V422.1z"/><path fill="#727E84" d="M642.3 480.14h-89.17v8.03h89.17v-8.03zM636.1300000000001 869.67v-167.2h-16.48v167.2h16.48zM180.42000000000007 869.67v-167.2h-16.48v167.2h16.48zM244.32999999999993 480.14h-89.17v8.03h89.17v-8.03z"/><g style="-webkit-user-select:none"><path stroke-linecap="round" stroke-miterlimit="10" stroke="#D1158A" stroke-width="3" d="M245.56999999999994 674.87h-5.59" fill="none"/><path fill="#F4EDF2" d="M224.3900000000001 687.55c-.95.2-1.89-.42-2.08-1.37l-1.83-8.88c-.2-.94.42-1.88 1.37-2.07.94-.2 1.88.42 2.07 1.36l1.83 8.88c.2.95-.42 1.89-1.36 2.08z"/><path fill="#F4EDF2" d="M227.3800000000001 671.1a5 5 0 0 0-4.6-1.45l-.55.11a5.01 5.01 0 0 0-3.88 5.9l.1.55a5.01 5.01 0 0 0 5.91 3.88l.54-.1a5 5 0 0 0 3.66-3.16l-1.18-5.73z"/></g><path stroke-linecap="round" stroke-miterlimit="10" stroke="#513535" stroke-width="22.88" d="M397.56999999999994 377.39l30.11 3.15" fill="none"/><path stroke-linecap="round" stroke-linejoin="round" stroke="#1F0E54" stroke-width="22.88" d="M341.5999999999999 366.6c34.9-16.56 98.28-16.56 98.28-16.56l-55.02 24.06" fill="none"/><path fill="#795CBF" d="M316.3299999999999 387.12s-48 6.18-44.89-28.07c3.1-34.25 70.16-18.87 70.16-18.87l12.68 10.9s-.85 12.52-8.74 15.8"/><path fill="#7C1616" d="M315.1400000000001 260.93l22.01 5.81 7.25-27.5-22.01-5.8-7.25 27.5z"/><path stroke-linecap="round" stroke-linejoin="round" stroke="#3D217F" stroke-width="22.88" d="M439.8800000000001 350.03999999999996l-55.02 24.06" fill="none"/><path stroke-linecap="round" stroke-linejoin="round" stroke="#533FA8" stroke-width="22.88" d="M416 376.63l4.89-35.27" fill="none"/><path stroke-linecap="round" stroke-linejoin="round" stroke="#795CBF" stroke-width="22.88" d="M420.8900000000001 341.36s-61.7 34.2-89.68 34.34c-38.33.18-47.4-14.65-47.4-14.65" fill="none"/><path fill="#F4D553" d="M342.23 266.55s3.02 38.52 5.38 41.94c2.77 4 8.95 14.35 12.09 23.38 5.22 15.02-5.42 19.2-5.42 19.2l-83.63 7.98s-4.95-25.56 5.22-55.22 36.51-47.53 36.51-47.53l29.85 10.25z"/><path fill="#EFEFED" d="M356.71000000000004 386H262.6v29.5h94.12V386zM471.8800000000001 386h-94.13v29.5h94.13V386z"/><path stroke-linecap="round" stroke-miterlimit="10" stroke="#938282" stroke-width="22.88" d="M367.70000000000005 378.97h30.1" fill="none"/><path fill="#AF2E2E" d="M382.6600000000001 257.91l2.75-13.43 11-53.94a20.06 20.06 0 0 0-15.6-23.6l-24.86-5.06a20.06 20.06 0 0 0-23.59 15.6l-11 53.94a20.06 20.06 0 0 0 15.6 23.6l9.96 2.02a18.23 18.23 0 0 0 14.3 15.05c9.8 2 19.45-4.38 21.45-14.18z"/><path fill="#163C49" d="M342.27 199.12a18.7 18.7 0 0 1-14.54-22l2.5-12.27a11.5 11.5 0 0 1 13.52-8.94l7.04 1.44a18.7 18.7 0 0 1 14.55 22l-1.07 5.23a18.7 18.7 0 0 1-22 14.54z"/><path fill="#163C49" d="M327.07000000000016 229.09000000000003a9.77 9.77 0 0 1-7.6-11.49l9.6-47.08a9.77 9.77 0 0 1 11.5-7.6 9.77 9.77 0 0 1 7.6 11.5l-9.6 47.07a9.77 9.77 0 0 1-11.5 7.6zM395.3700000000001 247.74l-32.2-6.57 7.73-10.42 21.44 4.37 3.03 12.62zM390.0600000000002 205.79000000000002l-22.2-4.52.9-4.43 22.2 4.53-.9 4.42zM399.45000000000005 207.71000000000004l-6.28-1.28.9-4.43 6.28 1.28-.9 4.43z"/><g style="-webkit-user-select:none"><path stroke-miterlimit="10" stroke="#46C67F" stroke-width="3.37" d="M372.6300000000001 209.58000000000004l-19.32-3.94s-6.29-2.48-8.17 6.73" fill="none"/><path fill="#CFF5FF" d="M402.47 219.51000000000005c-1.76 8.61-5.35 11.15-9 10.4-3.65-.74-5.97-4.48-4.2-13.09 1.75-8.6 5.19-10.38 8.83-9.63 3.65.74 6.13 3.71 4.37 12.32z"/><path stroke-miterlimit="10" stroke="#31AF64" stroke-width="3.37" d="M402.47 219.51000000000005c-1.76 8.61-5.35 11.15-9 10.4-3.65-.74-5.97-4.48-4.2-13.09 1.75-8.6 5.19-10.38 8.83-9.63 3.65.74 6.13 3.71 4.37 12.32z" fill="none"/><path fill="#CFF5FF" d="M385.08000000000015 215.97000000000003c-1.75 8.6-5.35 11.14-9 10.4-3.65-.74-5.96-4.49-4.2-13.1 1.75-8.6 5.19-10.37 8.84-9.63 3.65.75 6.12 3.72 4.36 12.33z"/><path stroke-miterlimit="10" stroke="#31AF64" stroke-width="3.37" d="M385.08000000000015 215.97000000000003c-1.75 8.6-5.35 11.14-9 10.4-3.65-.74-5.96-4.49-4.2-13.1 1.75-8.6 5.19-10.37 8.84-9.63 3.65.75 6.12 3.72 4.36 12.33z" fill="none"/><g><path fill="#CFF5FF" d="M386.6700000000001 208.18l5.56 1.13"/><path stroke-miterlimit="10" stroke="#31AF64" stroke-width="3.37" d="M386.6700000000001 208.18l5.56 1.13" fill="none"/></g></g><path fill="#3A0F36" d="M446.95000000000005 253.96000000000004l-43.87-20.92 10.15-21.3 43.87 20.92-10.15 21.3z"/><path fill="#3A0F36" d="M411.03999999999996 223.82000000000005c-2.79 5.87-6.32 10.03-7.9 9.29-1.56-.75-2-6.8.8-12.67 2.8-5.88 7.74-9.36 9.32-8.62 1.57.75.58 6.12-2.22 12z"/><path fill="#4F1948" d="M488.6299999999999 280.8600000000001l-67.62-32.26 15.65-32.83 67.63 32.25-15.66 32.83z"/><path fill="#A0D9F2" d="M492.0899999999999 262.32000000000005c-4.3 9.06-9.75 15.48-12.17 14.33-2.42-1.15-.9-9.43 3.4-18.49 4.31-9.06 9.76-15.48 12.18-14.33 2.43 1.15.9 9.43-3.4 18.5z"/><path fill="#A0D9F2" d="M500.8599999999999 266.4900000000001c-4.3 9.06-9.76 15.47-12.18 14.32-2.42-1.15-.89-9.43 3.41-18.49 4.3-9.06 9.76-15.47 12.18-14.32 2.42 1.15.9 9.43-3.41 18.49z"/><path fill="#4F1948" d="M433.28999999999996 234.3900000000001c-4.3 9.06-9.76 15.47-12.18 14.32-2.42-1.15-.9-9.42 3.41-18.48 4.3-9.07 9.76-15.48 12.18-14.33 2.42 1.15.89 9.43-3.41 18.49z"/><g style="-webkit-user-select:none"><path stroke-miterlimit="10" stroke="#EDAB4A" stroke-width="15.36" d="M317.8299999999999 277.42999999999995s24.18 65.12 76.92 51.68c22.81-5.81 39.65-34.63 45.98-48.64 6.34-14 10.52-33.76 10.52-33.76" fill="none"/><path stroke-miterlimit="10" stroke="#AE2D2D" stroke-width="16" d="M444.6299999999999 270.52c4.1-11.89 6.62-23.81 6.62-23.81" fill="none"/></g><path fill="#EDAB4A" d="M324.75 281.30999999999995a7.6 7.6 0 1 1-13.56-6.9 7.6 7.6 0 0 1 13.56 6.9z"/><g style="-webkit-user-select:none"><path stroke-miterlimit="10" stroke="#7C087C" stroke-width="15.5495335" d="M1076.48 865.3s-68.21 1.94-70.53 46.26c-1.2 22.7 9.67 52.96 36.69 42.26" fill="none"/><path stroke-miterlimit="10" stroke="#FF9898" stroke-width="16.5495035" d="M1014.28 946.05c5.98 8.53 15.27 12.95 28.36 7.77" fill="none"/></g><path stroke-linecap="round" stroke-miterlimit="10" stroke="#1C153F" stroke-width="18.66" d="M1050.26 979.26s11.35 55.44 11.1 132.74c-.14 46.98-4.57 102.03-18.44 157.6l-.17 15.4" fill="none"/><path fill="#A00D9C" d="M1034.74 956.52l57.2-.12s22.4-87.54 14.09-98.9c-8.32-11.37-37-6.69-42.71 3.08-5.72 9.77-28.58 95.94-28.58 95.94z"/><path fill="#383054" d="M1037.58 981.56c4.53 6.47 52.4 12.1 52.4 12.1s12.65-3.47 13.43-18.42c.76-14.38-11.47-18.84-11.47-18.84l-57.2.12s-1.69 18.57 2.84 25.04z"/><path stroke-linecap="round" stroke-miterlimit="10" stroke="#383054" stroke-width="18.66" d="M1083.42 985.48s15.21 52.44 21.38 125.45c3.99 47.17 4.2 102.92-5.9 158.68l.1 15.89" fill="none"/><path stroke-miterlimit="10" stroke="#F9AA6E" stroke-width="18.66" d="M-821.53 1079v-16.4" fill="none" transform="matrix(1.01 0 0 1 1928.65 208)"/><path stroke-miterlimit="10" stroke="#F9AA6E" stroke-width="18.66" d="M-877.7 1079v-16.4" fill="none" transform="matrix(1.01 0 0 1 1929.35 208)"/><path fill="#FFA298" d="M1093.65 851.76s-.34 4.63-7.4 7.73c-7.07 3.1-11.48-.4-11.48-.4l-16.36-43.53 18.87-7.33 16.37 43.53z"/><path fill="#FFA399" d="M1062.28 823.6300000000001l-19.4.77c-11 .43-20.35-8.2-20.78-19.2l-1.67-41.99c-.44-10.99 8.2-20.34 19.19-20.77l19.4-.77c11-.44 20.34 8.2 20.78 19.19l1.67 41.99c.43 10.99-8.2 20.34-19.2 20.78z"/><path fill="#5E0B0B" d="M1065.1799999999998 820.0999999999999c.45 11.4-9.89 36.03-41.01 37.26-17.88.71-25.51-15.08-23.32-37.9 1.74-18.11 12.79-29.74 30.67-30.45a32.4 32.4 0 0 1 33.66 31.1z"/><path fill="#3D2538" d="M1047.55 778.8499999999999v.1a1.5 1.5 0 0 1-1.44 1.57l-4.25.17a1.5 1.5 0 0 1-1.56-1.44v-.11a1.5 1.5 0 0 1 1.44-1.56l4.25-.17a1.5 1.5 0 0 1 1.56 1.44zM1032 779.47v.1a1.5 1.5 0 0 1-1.43 1.56l-4.26.17a1.5 1.5 0 0 1-1.55-1.44v-.1a1.5 1.5 0 0 1 1.43-1.56l4.25-.17a1.5 1.5 0 0 1 1.56 1.44z"/><path stroke-miterlimit="10" stroke="#5E0B0B" stroke-width="10.99967" d="M1074.78 738.96l2.51 63.32a20.8 20.8 0 0 1-19.9 21.54l-17.93.71" fill="none"/><path fill="#5E0B0B" d="M1080.47 741.74l-.62-15.8-53.57 2.13 5.41 15.6 27.15-1.08c.84 8.07 3.65 21.78 13.19 21.75l1.88-22.34 6.56-.26z"/><path stroke-linecap="round" stroke-miterlimit="10" stroke="#5E0B0B" stroke-width="6.99979" d="M1041.9 771.8l9.66-2.16M1019.92 770.6500000000001l9.45 1.84" fill="none"/><path fill="#FFA399" d="M1078.4099999999999 791.06l-8.66-.45a8.78 8.78 0 0 1-8.28-9.2l.2-4.01a8.78 8.78 0 0 1 9.2-8.28l8.67.45a8.78 8.78 0 0 1 8.28 9.2l-.21 4.01a8.78 8.78 0 0 1-9.2 8.28z"/><g style="-webkit-user-select:none"><path fill="#F4EDF2" d="M1075.04 795.44l.78-.02a1.76 1.76 0 0 0 1.72-1.8l-.25-11.85a1.76 1.76 0 0 0-1.8-1.72l-.78.01c-.97.03-1.74.83-1.72 1.8l.25 11.86c.02.96.83 1.74 1.8 1.72z"/><path fill="#F4EDF2" d="M1067.3899999999999 776.6400000000001a6.1 6.1 0 0 1 5.09-2.97l.67-.02a6.13 6.13 0 0 1 6.24 5.98l.01.67a6.13 6.13 0 0 1-5.97 6.24l-.68.01a6.1 6.1 0 0 1-5.21-2.76l-.15-7.15z"/></g><path fill="#FFA399" d="M1069.12 789.29l-3.78-.2a8.78 8.78 0 0 1-8.28-9.2 8.77 8.77 0 0 1 9.2-8.27l3.78.2"/><g style="-webkit-user-select:none"><path stroke-miterlimit="10" stroke="#7C087C" stroke-width="15.5495335" d="M1098.63 867.5s70.26 18.54 67.93 62.86c-1.18 22.7-23.38 38.92-50.72 27.3-9.48-4.04-18.47-7.13-29.17-.67" fill="none"/><path stroke-miterlimit="10" stroke="#FF9898" stroke-width="16.5495035" d="M1120.69 959.44a53.1 53.1 0 0 1-4.85-1.79c-9.48-4.03-18.47-7.12-29.17-.66" fill="none"/></g><path fill="#7C087C" d="M1106.33 867.9000000000001a7.72 7.72 0 1 1-15.41-.8 7.72 7.72 0 0 1 15.41.8z"/><g style="-webkit-user-select:none"><path stroke-miterlimit="10" stroke="#F1AC7C" stroke-width="8.99991" d="M905.47 933.9000000000001s.07 10.43-1.84 24.38c-2.88 20.95-5.57 41.79-10.48 62.01-9.75 40.18-16.2 51.46-20.5 64.13" fill="none"/><path stroke-miterlimit="10" stroke="#6EA753" stroke-width="9.9999" d="M905.47 933.9000000000001s.07 10.43-1.84 24.38l-1.73 12.56" fill="none"/></g><path fill="#DD5C14" d="M894.0999999999999 849.83s-27.97 29.14-6.76 51.64c19.51 20.71 37.3 7.12 37.3 7.12s-21.99-8.08-15.24-23.27c7.26-16.3 5.5-28.08-15.3-35.5z"/><g style="-webkit-user-select:none"><path stroke-miterlimit="10" stroke="#00555E" stroke-width="11" d="M861.6099999999999 1044s6.28 58 10.65 123.34c4.36 65.18 2.71 119.5 2.71 119.5" fill="none"/><path stroke-miterlimit="10" stroke="#5D0321" stroke-width="14" d="M874.8 1223.5700000000002c.96 37.43.17 63.28.17 63.28" fill="none"/></g><g style="-webkit-user-select:none"><path stroke-miterlimit="10" stroke="#008196" stroke-width="11" d="M887 1044s-.34 63.54 1.66 130.86c1.94 65.3 23.34 109.99 23.34 109.99" fill="none"/><path stroke-miterlimit="10" stroke="#860631" stroke-width="14" d="M893.94 1224.19c6.94 37.43 18.06 60.66 18.06 60.66" fill="none"/></g><path fill="#EDB283" d="M901.71 925.73l-4.03 22.55-7.28-3.97 1.36-19.29 3.25-39.65 9.95.71-3.25 39.65z"/><path fill="#FFC999" d="M930.24 870.52a34.35 34.35 0 1 1-63.55-26.1 34.35 34.35 0 0 1 63.55 26.1z"/><path stroke-miterlimit="10" stroke="#3D2538" stroke-width="2" d="M894.73 862.18s2.23-3.25 5.93-1.73c3.08 1.27 2.7 5.27 2.7 5.27M870.54 852.25s2.23-3.25 5.93-1.73c3.09 1.27 2.7 5.27 2.7 5.27" fill="none"/><path fill="#FFAD1D" d="M913.66 828.07s-28.12 34.88-55.88 14.73c-25.55-18.55-13.1-40.05-13.1-40.05s12 23.06 27.75 13.49c16.92-10.29 30.12-10.02 41.23 11.83zM924.75 855.68s-37.44 24.62-20.07 54.2c16 27.22 38.6 16.91 38.6 16.91s-21.8-14.18-10.74-28.93c11.88-15.85 12.89-29.01-7.79-42.18z"/><path fill="#FFAD1D" d="M928.34 840.33s-27.96 29.15-6.76 51.65c19.52 20.71 37.31 7.12 37.31 7.12s-22-8.09-15.24-23.27c7.25-16.3 5.5-28.08-15.31-35.5z"/><path fill="#FFAD1D" d="M898.78 820.47s20.31-7.31 31.93 3.87c11.62 11.18 17.7 29.05 16.81 36.08-.51 4.08-13.9 4.33-27.86 1.34-23.07-4.94-23.96-22.83-23.96-22.83l3.08-18.46z"/><path stroke-miterlimit="10" stroke="#FF3F1F" stroke-width="2" d="M877.94 862l1.55 5 4.93-2.34" fill="none"/><path fill="#008196" d="M924.55 1033.3a39.99 39.99 0 1 1-79.63-7.31 39.99 39.99 0 0 1 79.63 7.32z"/><path fill="#008196" d="M912.2 973.08l10 42.57-73.44-3.46 21.67-39.1"/><path fill="#A7E293" d="M909.13 928.86c-1.02-1.48-3.93-2.7-7.4-3.46l-.02.33-9.05 18.58-.9-19.29.04-.45c-2.94.2-5.36.86-6.37 2.11-3.25 4.02-1.15 7.38-5.53 14.07-4 6.1-11.22 11.31-12.67 16.54-3.03 10.95 3.2 15.8 3.2 15.8l42.97 3.36s-1.4-43.45-4.27-47.6z"/><path stroke-miterlimit="10" stroke="#FFC999" stroke-width="9" d="M905.42 937.43s1.53 10.33 1.57 24.4c.07 21.16.3 42.16-1.75 62.87-4.06 41.15-8.88 53.22-11.38 66.37" fill="none"/><path stroke-miterlimit="10" stroke="#81C167" stroke-width="10.0004" d="M905.5 937.45s1.83 10.37 1.15 24.42" fill="none"/><path fill="#81C167" d="M903.7 942.1999999999999a5.07 5.07 0 1 1 3.3-9.6 5.07 5.07 0 0 1-3.3 9.6z"/><path fill="#A30C38" d="M893.6800000000001 135.42000000000002H1022a5.7 5.7 0 0 0 5.68-5.67 5.7 5.7 0 0 0-5.68-5.68H893.68a5.7 5.7 0 0 0-5.68 5.68 5.7 5.7 0 0 0 5.68 5.67z"/><path fill="#BBE217" d="M951.52 185.14l-46-20.92 3.55-32.08 42.45 53z"/><path fill="#B3CE11" d="M951.52 185.14l-42.45-53 32.08 3.55 10.37 49.45z"/><g style="-webkit-user-select:none"><path fill="#BBE217" d="M867.1600000000001 169.4l4.86-37.33 23.63-4.48-28.49 41.8z"/><path fill="#B3CE11" d="M867.1600000000001 169.4l28.49-41.81 4.47 23.62-32.96 18.18z"/></g><path stroke-miterlimit="10" stroke="#F4D553" stroke-width="3" d="M926.7 101.53v22.54M940.04 101.53v22.54" fill="none"/><path fill="#2C273F" d="M957.84 79.44a24.42 24.42 0 1 1-48.84 0 24.42 24.42 0 0 1 48.84 0z"/><path fill="#413D63" d="M933.42 80.09s-.62 12.67 10.43 21.44c11.05 8.76 25.12 2.33 25.12 2.33l-18-28.94-17.55 5.17z"/><g style="-webkit-user-select:none"><path fill="#F4D553" d="M915.25 70.83000000000001L892 80.55s15.37 10.1 23.25 6.88c4.81-1.97 8.36-7.48 0-16.6z"/><path stroke-miterlimit="10" stroke="#D8763F" stroke-width="1.75" d="M913.46 74.94999999999999l-5.03 2.19" fill="none"/></g><path fill="#FFF" d="M933.5 69.5a5 5 0 0 1-10 0 5 5 0 0 1 10 0z"/></g></svg>