<svg xmlns="http://www.w3.org/2000/svg" width="1596" height="846" style="width:100%;height:100%"><defs><clipPath id="c"><path d="M0 0h1596v846H0z"/></clipPath><linearGradient id="d" gradientUnits="userSpaceOnUse" x1="552" y1="572" x2="751.49" y2="1029.48"><stop offset="0%" stop-color="#FFF"/><stop offset="50%" stop-color="#FFF"/><stop offset="100%" stop-color="#FFF"/></linearGradient><linearGradient id="a" gradientUnits="userSpaceOnUse" x1="552" y1="572" x2="751.49" y2="1029.48"><stop stop-color="#FFF" offset="0%" stop-opacity=".3"/><stop stop-color="#FFF" offset="50%" stop-opacity=".15"/><stop stop-color="#FFF" offset="100%" stop-opacity="0"/></linearGradient><mask id="e"><path fill="url(#a)" d="M685.36 441.78a121.63 121.63 0 0 0-103.46-60.02l-.53-.02h-.95c-67.2 0-121.7 54.48-121.7 121.7v274.69h.95l103.22 606.62 601.1 13.5v-210.9L685.36 441.79z"/></mask><linearGradient id="f" gradientUnits="userSpaceOnUse" x1="1228" y1="612" x2="1632.98" y2="995.98"><stop offset="0%" stop-color="#FFF"/><stop offset="50%" stop-color="#FFF"/><stop offset="100%" stop-color="#FFF"/></linearGradient><linearGradient id="b" gradientUnits="userSpaceOnUse" x1="1228" y1="612" x2="1632.98" y2="995.98"><stop stop-color="#FFF" offset="0%" stop-opacity=".3"/><stop stop-color="#FFF" offset="50%" stop-opacity=".15"/><stop stop-color="#FFF" offset="100%" stop-opacity="0"/></linearGradient><mask id="g"><path fill="url(#b)" d="M1319.1 409.88a121.2 121.2 0 0 0-77.82-28.14c-67.21 0-121.7 54.48-121.7 121.7v274.69l303.48 402.92 601.1 13.5v-210.9l-705.05-573.77z"/></mask></defs><g clip-path="url(#c)"><path fill="#CC1759" d="M1604 855.75L-8.93 856-9.85-6.25l1612.92-.24.93 862.24z"/><g style="-webkit-user-select:none"><path fill="#E2E096" d="M368.62 269.44c0-67.22-54.49-121.7-121.7-121.7-67.2 0-121.7 54.48-121.7 121.7v274.69h244.2v-274.7h-.8z"/><path stroke-miterlimit="10" stroke="#CC1759" stroke-width="16.71" d="M247.32000000000005 559.92V129.76" fill="none"/><path stroke-miterlimit="10" stroke="#CC1759" stroke-width="9" d="M32.24000000000001 257.76H462.4M32.24000000000001 402.85H462.4" fill="none"/><path fill="url(#d)" mask="url(#e)" d="M685.36 441.78a121.63 121.63 0 0 0-103.46-60.02l-.53-.02h-.95c-67.2 0-121.7 54.48-121.7 121.7v274.69h.95l103.22 606.62 601.1 13.5v-210.9L685.36 441.79z" transform="translate(-333.5 -234)"/></g><g style="-webkit-user-select:none"><path stroke-miterlimit="10" stroke="#CC1759" stroke-width="9" d="M705.22 257.76h430.16M705.22 402.85h430.16" fill="none"/><path fill="#E2E096" d="M1038.97 269.44c0-67.22-54.48-121.7-121.7-121.7-67.2 0-121.7 54.48-121.7 121.7v274.69h244.2v-274.7h-.8z"/><path stroke-miterlimit="10" stroke="#CC1759" stroke-width="16.71" d="M917.6700000000001 559.92V129.76" fill="none"/><path stroke-miterlimit="10" stroke="#CC1759" stroke-width="9" d="M702.5999999999999 257.76h430.15M702.5999999999999 402.85h430.15" fill="none"/><path fill="url(#f)" mask="url(#g)" d="M1319.1 409.88a121.2 121.2 0 0 0-77.82-28.14c-67.21 0-121.7 54.48-121.7 121.7v274.69l303.48 402.92 601.1 13.5v-210.9l-705.05-573.77z" transform="translate(-324 -234)"/></g><path fill="#364E4F" d="M882.6700000000001 843.77h-69l3-11.44h62l4 11.44z"/><path fill="#3A4049" d="M808.26 837.3499999999999a8.84 8.84 0 1 1-17.68 0 8.84 8.84 0 0 1 17.68 0zM906.01 837.3499999999999a8.84 8.84 0 1 1-17.68 0 8.84 8.84 0 0 1 17.68 0z"/><path fill="#677B93" d="M788.6199999999999 841.99h119.05c7.97 0 14.5-6.52 14.5-14.5H774.12c0 7.98 6.52 14.5 14.5 14.5z"/><path fill="#8DC9CC" d="M907.6700000000001 813H788.62c-7.97 0-14.5 6.52-14.5 14.5h148.04c0-7.98-6.52-14.5-14.5-14.5z"/><path fill="#5B403B" d="M164.18 825.1300000000001H18.01V723h146.17v102.14z"/><path fill="#5B403B" d="M30.839999999999975 846H18.01V743.85h12.83V846zM164.18 846h-12.83V743.85h12.83V846z"/><path fill="#442D2A" d="M174 726H18v-11.9h156V726z"/><path stroke-miterlimit="10" stroke="#303333" stroke-width="2" d="M28.5 708.24S2 713 8 740.5s9.03 69.65 2.88 79.4C5.6 828.3.58 825 .58 825" fill="none"/><path fill="#303333" d="M-.4300000000000068 828.97h3.6c1.28 0 2.33-1.42 2.33-3.15 0-1.74-1.05-3.15-2.33-3.15h-3.6"/><path fill="#9B9B9B" d="M2.5400000000000205 835.6700000000001H-.43V820h2.97v15.67z"/><path fill="#080F3A" d="M155.07 714.1H24.26v-11.72h120.21l10.6 11.72z"/><path fill="#111C49" d="M150.93 702.38H24.26v-11.72h116.07l10.6 11.72z"/><path fill="#192756" d="M146.8 690.66H24.26l4.13-11.72h107.8l10.6 11.72z"/><g style="-webkit-user-select:none"><path stroke-miterlimit="10" stroke="#8692A3" stroke-width="7.29" d="M904.44 564.68l118.41 280.1M1009.4100000000001 651.41c-1.36 1.83-89.55 193.36-89.55 193.36" fill="none"/><path stroke-miterlimit="10" stroke="#B5B5B5" stroke-width="7.29" d="M931.31 647.57h66.04s19.58 1.82 20.04 16.17M900.3399999999999 558.76s9.88-.91 12.23 5.92c2.34 6.83 15.1 37.34 15.1 37.34" fill="none"/><path stroke-linecap="round" stroke-miterlimit="10" stroke="#8692A3" stroke-width="7.29" d="M1002.7 797.0999999999999l14.69-5.58" fill="none"/></g><path fill="#C47965" d="M1227.16 581.13H1098.5v-10.46h128.66v10.46z"/><path fill="#484D51" d="M1184.79 684.19h-64.99l-10-17.1h85l-10.01 17.1z"/><path fill="#484D51" d="M1236.8 675.97h-56.5v-6.33h56.5v6.33z"/><path fill="#91A1BA" d="M1098.25 694.9V684.2h138.55v10.71h-138.55zM1103.61 796.8800000000001v-10.72h119.93v10.72h-119.93z"/><path fill="#D8CCCB" d="M1106.6 791.52v11.14H964.11v-11.14h142.49zM1231.9 590.3v19.85H964.1v-19.84h267.78z"/><path fill="#D8CCCB" d="M1231.9 791.52v11.14H1103.6v-11.14h128.28z"/><path fill="#D8CCCB" d="M1103.61 794.5999999999999h-10.72V584.5h10.72v210.1zM1240.24 846h-16.7V587h16.7v259zM972.46 846h-16.7V587h16.7v259z"/><path fill="#8492A0" d="M1189.66 777.64h-67.33l-3-51.33h73.33l-3 51.33z"/><path fill="#7A8999" d="M1189.66 786.16h-67.33v-8.52h67.33v8.52z"/><path fill="#95A1AF" d="M1197.33 729.64h-82.67v-6.67s18.08-3 41.33-3 41.34 3 41.34 3v6.67z"/><path stroke-linejoin="round" stroke="#8692A3" stroke-width="3" d="M1140.9 720.6v-5.75h33.24v5.75" fill="none"/><path fill="#931B12" d="M1247.82 590.87H948.68v-10.74h299.14v10.74z"/><path fill="#48AA7D" d="M1137.94 751.78l-36.15-5.1 15.86-151.72 7.43-1.56 12.86 158.38z"/><path fill="#59C194" d="M1141.86 759l-30.14-5.1 8.48-160.22 6.15-.44L1141.86 759z"/><path fill="#898989" d="M1153.16 605.8h-3.56a2.78 2.78 0 0 1-2.77-2.78 2.78 2.78 0 0 1 2.78-2.78h3.56a2.78 2.78 0 0 1 2.77 2.77 2.78 2.78 0 0 1-2.78 2.78z"/><path fill="#A5A5A5" d="M1151.38 603.66c-.7 0-1.28-.58-1.28-1.28v-6.43a1.29 1.29 0 1 1 2.56 0v6.43c0 .7-.57 1.28-1.28 1.28z"/><path fill="#898989" d="M1183.18 605.8h-3.56a2.78 2.78 0 0 1-2.77-2.78 2.78 2.78 0 0 1 2.77-2.78h3.56a2.78 2.78 0 0 1 2.78 2.77 2.78 2.78 0 0 1-2.78 2.78z"/><path fill="#A5A5A5" d="M1181.4 603.66c-.7 0-1.28-.58-1.28-1.28v-6.43c0-.7.58-1.28 1.28-1.28.7 0 1.29.58 1.29 1.28v6.42c0 .71-.58 1.29-1.29 1.29z"/><path fill="#898989" d="M1213.2 605.8h-3.56a2.78 2.78 0 0 1-2.77-2.78 2.78 2.78 0 0 1 2.77-2.78h3.56a2.78 2.78 0 0 1 2.78 2.77 2.78 2.78 0 0 1-2.78 2.78z"/><path fill="#A5A5A5" d="M1211.42 603.66c-.7 0-1.28-.58-1.28-1.28v-6.43c0-.7.58-1.28 1.28-1.28.7 0 1.28.58 1.28 1.28v6.42c0 .71-.57 1.29-1.28 1.29z"/><path fill="#3E473B" d="M1014.3399999999999 489.84000000000003v-22.17h-11.89v22.17c-.01 13.83-10.26 12.77-10.26 31.27v59.02h32.41V521.1c0-18.5-10.25-17.44-10.26-31.27z"/><path fill="#A8B2A4" d="M1001.9100000000001 563.43h22.7v-33.68h-22.7v33.68zM1014.3399999999999 479.5h-11.89v-7.56h11.89v7.56z"/><path fill="#72C1C1" d="M1068.12 576.52v-22.9c8.64-1.18 15.38-10.57 15.38-21.98 0-3.08-.5-6-1.38-8.66h-31.7a27.5 27.5 0 0 0-1.37 8.66c0 11.4 6.74 20.8 15.39 21.98v22.9c-6.43.24-11.37 1.72-11.37 3.52h26.42c0-1.8-4.95-3.28-11.37-3.52z"/><path fill="#771835" d="M1051.97 538.36c1.93 7.55 7.6 13.03 14.3 13.03 6.71 0 12.38-5.48 14.32-13.03h-28.62z"/><path stroke-linecap="round" stroke-miterlimit="10" stroke="#ED8E8E" stroke-width="17" d="M1192.07 562.63c-5.38 0-13.57 1.26-18.5-3.82-7.83-8.06-17.58-7.8-17.58-7.8" fill="none"/><path stroke-miterlimit="10" stroke="#CCC397" stroke-width="18" d="M1332.93 442.87s1.6 75.2-55.93 106.38c-27.25 14.77-69.2 15.47-87.93 13.38" fill="none"/><path stroke-miterlimit="10" stroke="#3D3838" stroke-width="20" d="M1370.1 559.18s-14.44 106.49-14.44 155.82c0 32.97 9.32 79.94 15.5 107.46a797.08 797.08 0 0 0 5.37 22.54" fill="none"/><path stroke-miterlimit="10" stroke="#302C2C" stroke-width="20" d="M1336.33 569.67s-25.51 64.66-26.75 132c-.85 45.72 6.87 95.44 11.91 122.65a572.88 572.88 0 0 0 4.17 20.68" fill="none"/><path fill="#3D3838" d="M1318.54 557.6l.54 25.88 44.51 4.18 9.33.45 7.54-27.48-61.92-3.03z"/><path fill="#EF7878" d="M1335.38 435.44000000000005l-.8.68a5.98 5.98 0 0 1-8.4-.71l-25.31-29.98a5.98 5.98 0 0 1 .7-8.4l.81-.68a5.98 5.98 0 0 1 8.4.7l25.3 29.99a5.98 5.98 0 0 1-.7 8.4z"/><path fill="#420505" d="M1298.1200000000001 475.6l-33.55-6.14-5.54-89.97 34.59-14.77 4.5 110.88z"/><path fill="#F99" d="M1301.8500000000001 415.05000000000007l-4.02 3.98a32.1 32.1 0 0 1-45.25-.23l-21.23-21.44a32.1 32.1 0 0 1 .22-45.25l4.02-3.98a32.1 32.1 0 0 1 45.26.22l21.23 21.44a32.1 32.1 0 0 1-.23 45.26z"/><path fill="#3D2538" d="M1254.3600000000001 388.35l-.17.18a1.4 1.4 0 0 1-1.99-.01l-3.04-3.07a1.4 1.4 0 0 1 0-2l.18-.17a1.4 1.4 0 0 1 2 .01l3.03 3.08a1.4 1.4 0 0 1 0 1.98zM1244.3 398.32000000000005l-.17.17a1.4 1.4 0 0 1-1.99-.01l-3.04-3.07a1.4 1.4 0 0 1 0-1.99l.18-.17a1.4 1.4 0 0 1 1.99 0l3.04 3.08a1.4 1.4 0 0 1 0 1.99z"/><path stroke-linecap="round" stroke-miterlimit="10" stroke="#892121" stroke-width="6.529934700000001" d="M1240.1100000000001 377.4200000000001l10.5-6.52M1227.73 395.4200000000001l4.1-11.67" fill="none"/><path fill="#892121" d="M1248.45 403.35s2.72-8.07 11.48-8.54c6.6-.35 8.87-12.67 5.03-21.18 0 0 17.5 15.08-4.55 34.07-19.44 16.72-34.01 2.77-36.66.36 0 0 20.38 8.18 24.7-4.71z"/><path fill="#E2DDB7" d="M1380.46 560.62l-61.92-3.02s-5.92-21.5 2.97-50.6c10.6-34.69.09-71.02.09-71.02l15.5-13.57s38.86 30.28 45.03 63.03c7.95 42.19-1.67 75.19-1.67 75.19z"/><path fill="#D6276E" d="M1274.54 401.0400000000001l2.48 2.46a3.26 3.26 0 0 1 .03 4.6 3.26 3.26 0 0 1-4.6.02l-2.49-2.46"/><path stroke-linecap="round" stroke-miterlimit="10" stroke="#3D2538" stroke-width="1.99998" d="M1266.99 408.72l7.94-8.87" fill="none"/><path fill="#26592D" d="M1134.1 570.98h39.83c4.01 0 7.3-3.3 7.3-7.31v-1.54c0-4.02-3.29-7.31-7.3-7.31h-39.83a7.33 7.33 0 0 0-7.31 7.3v1.55c0 4.02 3.29 7.3 7.3 7.3z"/><path fill="#307F3B" d="M1182.43 562.94a8.12 8.12 0 1 1-16.24 0 8.12 8.12 0 0 1 16.24 0z"/><path fill="#5AA36D" d="M1180.22 562.94a5.9 5.9 0 1 1-11.81 0 5.9 5.9 0 0 1 11.81 0z"/><path fill="#BCBCBC" d="M1199.01 411.1200000000001l31.93 105.85-10.43 2.94-9.44-30.74-14.07 5.88s-19.04-61.95 2-83.93z"/><path fill="#307F3B" d="M1195.01 551.9599999999999c-.33 1.68-4.16 2.34-8.56 1.48-4.4-.85-7.71-2.9-7.39-4.57.33-1.68 4.16-2.34 8.56-1.48 4.4.85 7.71 2.9 7.39 4.57z"/><path fill="#5AA36D" d="M1192.83 551.54c-.23 1.22-3.02 1.7-6.22 1.08-3.2-.62-5.6-2.11-5.37-3.33.23-1.22 3.02-1.7 6.22-1.08 3.2.62 5.61 2.11 5.37 3.33z"/><path stroke-linecap="round" stroke-miterlimit="10" stroke="#FFABAB" stroke-width="16.99915" d="M1241.53 509.80999999999995c-12.38-11.3-25.01-8.48-25.01-8.48" fill="none"/><path stroke-miterlimit="10" stroke="#F7F4D0" stroke-width="17.9991" d="M1344.59 450.02s16.83 59.72-14.49 85.66c-28.22 23.36-71.23-10.15-88.57-25.87" fill="none"/><path fill="#F7F4D0" d="M1353.71 450.17999999999995a9.13 9.13 0 1 1-18.24-.31 9.13 9.13 0 0 1 18.24.31z"/><path fill="#892121" d="M1273.53 359.56000000000006l-27.56-4.3-25.34 25.09a37.3 37.3 0 0 1 10.9-30.99c14.39-14.24 37.36-14.58 51.06-.75l8.76 8.86 14.4 16.13s7.2 7.29 6.54 21.02c-.67 13.73-10.27 65.93-10.27 65.93l-32.22-6.27 12.02-82.97"/><path fill="#F99" d="M1285.81 367.36l-3.99 3.95a6.64 6.64 0 0 1-9.36-.05l-.83-.83a6.64 6.64 0 0 1 .05-9.37l3.99-3.95a6.64 6.64 0 0 1 9.37.05l.82.83a6.64 6.64 0 0 1-.05 9.37z"/><path fill="#26592D" d="M1201.38 567.85h-15.88v2.82h15.88v-2.82z"/><path fill="#396D3B" d="M1203.63 565.03h-15.88v2.82h15.88v-2.82z"/><path fill="#26592D" d="M1216.97 565.98l-14.38-6.7-1.2 2.57 14.38 6.7 1.2-2.57z"/><path fill="#26592D" d="M1221.25 567.85h-15.87v2.82h15.87v-2.82zM1203 562.22h-15.87v2.81h15.88v-2.81z"/><path stroke-miterlimit="10" stroke="#E5D3D3" stroke-width="20" d="M1371.16 822.46a797.08 797.08 0 0 0 5.37 22.54" fill="none"/><path stroke-miterlimit="10" stroke="#D1C1C1" stroke-width="20" d="M1321.5 824.3199999999999a572.88 572.88 0 0 0 4.16 20.68" fill="none"/><path stroke-miterlimit="10" stroke="#303333" stroke-width="2" d="M333.74 375.02s-15.44 14.23-.25 70.14c20.04 73.75 46.34 399.38-26.49 400.61-30.47.51-35.63 2.07-49.82-7.36-14.01-9.3-14.13-26.41 4.09-28.34 18.14-1.93 17.34 23.18-2.51 29.83-18.75 6.29-14.4 5.76-42.25 5.76-61.5 0 35.5-143.28-71.5-137.42" fill="none"/><path fill="#350903" d="M416.24 308.9a20.94 20.94 0 1 1-41.82 2.14 20.94 20.94 0 0 1 41.82-2.14z"/><path fill="#383054" d="M396.26 612.3l93.53-16.16s-2.28-13.41-8.08-25.03c-4.32-8.63-8.35-14.82-8.35-14.82l-75 12.95s-2.4 5.42-3.01 15.29c-.68 10.8.9 27.77.9 27.77z"/><path stroke-linecap="round" stroke-miterlimit="10" stroke="#842828" stroke-width="16.99915" d="M393.44000000000005 462.55s-37.25 26-72.8 6.6c-28.87-15.75-56.21-57.52-80.55-86.52" fill="none"/><path stroke-linecap="round" stroke-miterlimit="10" stroke="#842828" stroke-width="16.99983" d="M415.86 455.31999999999994s16.76-4.31 28.25 7.57c22.75 23.54 65.62 65.53 98.07 29.78 21.02-23.15 17.88-48.02 11.6-64.76" fill="none"/><path stroke-linecap="round" stroke-miterlimit="10" stroke="#701D1D" stroke-width="13.99986" d="M397.25 400.98l8.47 49.04" fill="none"/><path fill="#842828" d="M378.38 420.23l12.09-.62a24.32 24.32 0 0 0 22.98-25.46l-2.94-57.44a24.32 24.32 0 0 0-25.45-22.98l-12.08.62a24.32 24.32 0 0 0-22.99 25.45l2.94 57.45a24.32 24.32 0 0 0 25.46 22.98z"/><path fill="#080F3A" d="M579.2900000000001 448.96000000000004l-44.11-10.45a6.85 6.85 0 0 1-5.07-8.23 6.85 6.85 0 0 1 8.22-5.07l44.11 10.46a6.85 6.85 0 0 1 5.07 8.22 6.85 6.85 0 0 1-8.22 5.07zM268.41999999999996 378.1l-35.26 28.5a6.85 6.85 0 0 1-9.6-1.01 6.85 6.85 0 0 1 1.01-9.6l35.26-28.51a6.85 6.85 0 0 1 9.6 1.02 6.85 6.85 0 0 1-1.01 9.6z"/><path stroke-linecap="round" stroke-miterlimit="10" stroke="#842828" stroke-width="8" d="M252.5 395.5s-1-7.25-9.5-16.5M553.14 444.71l-1-18.5" fill="none"/><path fill="#471209" d="M385.15999999999997 313.4l-12.32.63a24.82 24.82 0 0 0-23.45 25.98l.36 7.05 61.75-3.15-.36-7.05a24.82 24.82 0 0 0-25.98-23.46z"/><path fill="#303333" d="M337.61 377.99l-.38-7.4-7.4.38.37 7.4 7.4-.38z"/><path fill="#080F3A" d="M413.57000000000005 390.94000000000005l-61.1 3.13a16.91 16.91 0 0 1-17.7-15.98l-.29-5.67a16.91 16.91 0 0 1 15.98-17.7l61.1-3.13a16.91 16.91 0 0 1 17.7 15.98l.29 5.68a16.91 16.91 0 0 1-15.98 17.7z"/><path stroke-miterlimit="10" stroke="#383054" stroke-width="24.64" d="M407.32000000000005 605.64s7.15 83.9 12.18 126c3.25 27.23 6.42 90.68 6.82 114.35" fill="none"/><path stroke-miterlimit="10" stroke="#832727" stroke-width="24.64" d="M425.22 814.6500000000001c.58 12.77.98 23.98 1.1 31.34" fill="none"/><path stroke-miterlimit="10" stroke="#383054" stroke-width="24.64" d="M477.17999999999995 593.65s-2.91 69.9 0 117.66c1.67 27.3 39.31 74.42 57.54 89.21" fill="none"/><path stroke-miterlimit="10" stroke="#832727" stroke-width="24.64" d="M509.98 774.3c9.04 11.32 18.15 20.88 24.74 26.22" fill="none"/><path fill="#E5D00E" d="M423.62 445.64l-37.24 5.69 11.98 117.9 75-12.94-49.74-110.65z"/></g></svg>