<svg xmlns="http://www.w3.org/2000/svg" viewBox="0 0 1284 1287" width="1284" height="1287" preserveAspectRatio="xMidYMid meet" style="width: 100%; height: 100%;"><defs><clipPath id="animationMask_ex1xm99DJe"><rect width="1284" height="1287" x="0" y="0"></rect></clipPath></defs><g clip-path="url(#animationMask_ex1xm99DJe)"><g transform="matrix(1,0,0,1,1770,97)" opacity="1" style="-webkit-user-select: none;"><g opacity="1" transform="matrix(1,0,0,1,0,0)"><path stroke-linecap="butt" stroke-linejoin="miter" fill-opacity="0" stroke-miterlimit="10" stroke="rgb(239,176,125)" stroke-opacity="1" stroke-width="13" d="M0 0 M-1279.981,489.992 C-1279.981,489.992 -1232.4660000000001,565.648 -1151.123,598.576"></path></g></g><g transform="matrix(0.9848,0.1736,-0.1736,0.9848,610.616,712.522)" opacity="1" style="-webkit-user-select: none;"><path fill="rgb(79,87,91)" fill-opacity="1" d="M0 0 M11,-36 C11,-36 11,36 11,36 C11,38.2076 9.2076,40 7,40 C7,40 -7,40 -7,40 C-9.2076,40 -11,38.2076 -11,36 C-11,36 -11,-36 -11,-36 C-11,-38.2076 -9.2076,-40 -7,-40 C-7,-40 7,-40 7,-40 C9.2076,-40 11,-38.2076 11,-36z"></path></g><g transform="matrix(0.9848,0.1736,-0.1736,0.9848,611.6008,712.6956)" opacity="1" style="-webkit-user-select: none;"><g opacity="1" transform="matrix(1,0,0,1,0,0)"><path fill="rgb(225,229,246)" fill-opacity="1" d="M0 0 M7,-36 C7,-36 7,36 7,36 C7,36 -7,36 -7,36 C-7,36 -7,-36 -7,-36 C-7,-36 7,-36 7,-36z"></path></g><g opacity="1" transform="matrix(1,0,0,1,0,0)"><path fill="rgb(0,0,0)" fill-opacity="1" d="M0 0 M5,-1.5 C5,-1.5 5,1.5 5,1.5 C5,1.5 -5,1.5 -5,1.5 C-5,1.5 -5,-1.5 -5,-1.5 C-5,-1.5 5,-1.5 5,-1.5z"></path></g></g><g transform="matrix(1,0,0,1,1770,97)" opacity="1" style="-webkit-user-select: none;"><g opacity="1" transform="matrix(1,0,0,1,0,0)"><path stroke-linecap="butt" stroke-linejoin="miter" fill-opacity="0" stroke-miterlimit="10" stroke="rgb(255,201,153)" stroke-opacity="1" stroke-width="13" d="M0 0 M-1283.868,504.87 C-1283.868,504.87 -1256.3339999999998,593.666 -1159.667,606.806"></path></g></g><g transform="matrix(1,0,0,1,1920.001,207)" opacity="1" style="-webkit-user-select: none;"><g opacity="1" transform="matrix(1,0,0,1,0,0)"><path fill="rgb(211,25,0)" fill-opacity="1" d="M0 0 M-1220.672,585.844 C-1220.672,585.844 -1238.056,585.844 -1238.056,585.844 C-1238.056,585.844 -1238.056,620.887 -1238.056,620.887 C-1238.056,620.887 -1220.672,620.887 -1220.672,620.887 C-1220.672,620.887 -1220.672,585.844 -1220.672,585.844z"></path></g></g><g></g><g transform="matrix(1,0,0,1,1920.001,207)" opacity="1" style="-webkit-user-select: none;"><g opacity="1" transform="matrix(1,0,0,1,0,0)"><path fill="rgb(211,25,0)" fill-opacity="1" d="M0 0 M-1229.364,578.12 C-1229.364,578.12 -1229.364,578.12 -1229.364,578.12 C-1230.756,578.12 -1231.895,579.2579999999999 -1231.895,580.65 C-1231.895,580.65 -1231.895,591.038 -1231.895,591.038 C-1231.895,592.4300000000001 -1230.756,593.569 -1229.364,593.569 C-1229.364,593.569 -1229.364,593.569 -1229.364,593.569 C-1227.972,593.569 -1226.833,592.4300000000001 -1226.833,591.038 C-1226.833,591.038 -1226.833,580.65 -1226.833,580.65 C-1226.833,579.2579999999999 -1227.972,578.12 -1229.364,578.12z"></path></g></g><g transform="matrix(1,0,0,1,1920.001,207)" opacity="1" style="-webkit-user-select: none;"><g opacity="1" transform="matrix(1,0,0,1,0,0)"><path fill="rgb(163,12,56)" fill-opacity="1" d="M0 0 M-1220.672,585.311 C-1220.672,585.311 -1238.056,585.311 -1238.056,585.311 C-1238.056,585.311 -1240.432,591.77 -1240.432,591.77 C-1240.432,591.77 -1218.296,591.77 -1218.296,591.77 C-1218.296,591.77 -1220.672,585.311 -1220.672,585.311z"></path></g></g><g transform="matrix(0.891,0.454,-0.454,0.891,1777.1757,939.6054)" opacity="1" style="-webkit-user-select: none;"><g opacity="1" transform="matrix(1,0,0,1,0,0)"><path stroke-linecap="butt" stroke-linejoin="miter" fill-opacity="0" stroke-miterlimit="10" stroke="rgb(158,103,30)" stroke-opacity="1" stroke-width="15.359" d="M0 0 M-1593.579,67.078 C-1593.579,67.078 -1535.286,112.178 -1485.46,67.115 C-1469.872,53.016999999999996 -1468.498,26.106 -1469.499,13.803 C-1470.5,1.5 -1479,-26 -1479,-26"></path></g><g opacity="1" transform="matrix(1,0,0,1,0,0)"><path stroke-linecap="butt" stroke-linejoin="miter" fill-opacity="0" stroke-miterlimit="10" stroke="rgb(123,21,21)" stroke-opacity="1" stroke-width="16" d="M0 0 M-1472.174,-1 C-1475.009,-13.088 -1479,-26 -1479,-26"></path></g></g><g transform="matrix(1,0,0,1,1920,207)" opacity="1" style="-webkit-user-select: none;"><g opacity="1" transform="matrix(1,0,0,1,0,0)"><path fill="rgb(239,239,237)" fill-opacity="1" d="M0 0 M-1344.282,179 C-1344.282,179 -1698.251,179 -1698.251,179 C-1701.001,179 -1703.251,181.25 -1703.251,184 C-1703.251,184 -1703.251,290.548 -1703.251,290.548 C-1703.251,293.298 -1701.001,295.548 -1698.251,295.548 C-1698.251,295.548 -1344.282,295.548 -1344.282,295.548 C-1341.532,295.548 -1339.282,293.298 -1339.282,290.548 C-1339.282,290.548 -1339.282,184 -1339.282,184 C-1339.282,181.25 -1341.532,179 -1344.282,179z"></path></g></g><g transform="matrix(1,0,0,1,1920,207)" opacity="1" style="-webkit-user-select: none;"><g opacity="1" transform="matrix(1,0,0,1,0,0)"><path fill="rgb(79,25,72)" fill-opacity="1" d="M0 0 M-1684.45,1080 C-1684.45,1080 -1742.552,1080 -1742.552,1080 C-1753.552,1080 -1762.552,1071 -1762.552,1060 C-1762.552,1060 -1762.552,960.507 -1762.552,960.507 C-1762.552,949.507 -1753.552,940.507 -1742.552,940.507 C-1742.552,940.507 -1684.45,940.507 -1684.45,940.507 C-1673.45,940.507 -1664.45,949.507 -1664.45,960.507 C-1664.45,960.507 -1664.45,1060 -1664.45,1060 C-1664.45,1071 -1673.45,1080 -1684.45,1080z"></path></g></g><g transform="matrix(1,0,0,1,1920,207)" opacity="1" style="-webkit-user-select: none;"><g opacity="1" transform="matrix(1,0,0,1,0,0)"><path fill="rgb(79,25,72)" fill-opacity="1" d="M0 0 M-1364.211,995.968 C-1364.211,995.968 -1675.789,995.968 -1675.789,995.968 C-1686.789,995.968 -1695.789,986.968 -1695.789,975.968 C-1695.789,975.968 -1695.789,968.623 -1695.789,968.623 C-1695.789,957.623 -1686.789,948.623 -1675.789,948.623 C-1675.789,948.623 -1364.211,948.623 -1364.211,948.623 C-1353.211,948.623 -1344.211,957.623 -1344.211,968.623 C-1344.211,968.623 -1344.211,975.968 -1344.211,975.968 C-1344.211,986.968 -1353.211,995.968 -1364.211,995.968z"></path></g></g><g transform="matrix(1,0,0,1,1920,207)" opacity="1" style="-webkit-user-select: none;"><g opacity="1" transform="matrix(1,0,0,1,0,0)"><path fill="rgb(79,25,72)" fill-opacity="1" d="M0 0 M-1299.981,1080 C-1299.981,1080 -1358.083,1080 -1358.083,1080 C-1369.083,1080 -1378.083,1071 -1378.083,1060 C-1378.083,1060 -1378.083,960.507 -1378.083,960.507 C-1378.083,949.507 -1369.083,940.507 -1358.083,940.507 C-1358.083,940.507 -1299.981,940.507 -1299.981,940.507 C-1288.981,940.507 -1279.981,949.507 -1279.981,960.507 C-1279.981,960.507 -1279.981,1060 -1279.981,1060 C-1279.981,1071 -1288.981,1080 -1299.981,1080z"></path></g></g><g transform="matrix(1,0,0,1,1920,207)" opacity="1" style="-webkit-user-select: none;"><g opacity="1" transform="matrix(1,0,0,1,0,0)"><path fill="rgb(117,150,160)" fill-opacity="1" d="M0 0 M-1794.617,766.084 C-1794.617,766.084 -1245.383,766.084 -1245.383,766.084 C-1245.383,766.084 -1245.383,960.335 -1245.383,960.335 C-1245.383,960.335 -1794.617,960.335 -1794.617,960.335 C-1794.617,960.335 -1794.617,766.084 -1794.617,766.084z"></path></g></g><g transform="matrix(1,0,0,1,1920,207)" opacity="1" style="-webkit-user-select: none;"><g opacity="1" transform="matrix(1,0,0,1,0,0)"><path fill="rgb(178,181,174)" fill-opacity="1" d="M0 0 M-1794.617,939.506 C-1794.617,939.506 -1245.383,939.506 -1245.383,939.506 C-1245.383,939.506 -1245.383,967.864 -1245.383,967.864 C-1245.383,967.864 -1794.617,967.864 -1794.617,967.864 C-1794.617,967.864 -1794.617,939.506 -1794.617,939.506z"></path></g></g><g transform="matrix(1,0,0,1,1920,207)" opacity="1" style="-webkit-user-select: none;"><g opacity="1" transform="matrix(1,0,0,1,0,0)"><path fill="rgb(166,191,201)" fill-opacity="1" d="M0 0 M-1687.872,939.506 C-1687.872,939.506 -1245.383,939.506 -1245.383,939.506 C-1245.383,939.506 -1245.383,967.864 -1245.383,967.864 C-1245.383,967.864 -1687.872,967.864 -1687.872,967.864 C-1687.872,967.864 -1687.872,939.506 -1687.872,939.506z"></path></g></g><g transform="matrix(1,0,0,1,1920,207)" opacity="1" style="-webkit-user-select: none;"><g opacity="1" transform="matrix(1,0,0,1,0,0)"><path fill="rgb(114,126,132)" fill-opacity="1" d="M0 0 M-1794.617,939.506 C-1794.617,939.506 -1481.764,939.506 -1481.764,939.506 C-1481.764,939.506 -1481.764,967.864 -1481.764,967.864 C-1481.764,967.864 -1794.617,967.864 -1794.617,967.864 C-1794.617,967.864 -1794.617,939.506 -1794.617,939.506z"></path></g></g><g transform="matrix(1,0,0,1,1920,207)" opacity="1" style="-webkit-user-select: none;"><g opacity="1" transform="matrix(1,0,0,1,0,0)"><path fill="rgb(87,110,150)" fill-opacity="1" d="M0 0 M-1290.391,881.63 C-1290.391,881.63 -1290.391,881.63 -1290.391,881.63 C-1299.053,881.63 -1306.14,874.543 -1306.14,865.881 C-1306.14,865.881 -1306.14,841.882 -1306.14,841.882 C-1306.14,833.2199999999999 -1299.053,826.133 -1290.391,826.133 C-1290.391,826.133 -1290.391,826.133 -1290.391,826.133 C-1281.729,826.133 -1274.642,833.2199999999999 -1274.642,841.882 C-1274.642,841.882 -1274.642,865.881 -1274.642,865.881 C-1274.642,874.543 -1281.729,881.63 -1290.391,881.63z"></path></g></g><g transform="matrix(1,0,0,1,1920,207)" opacity="1" style="-webkit-user-select: none;"><g opacity="1" transform="matrix(1,0,0,1,0,0)"><path fill="rgb(87,110,150)" fill-opacity="1" d="M0 0 M-1758.126,881.63 C-1758.126,881.63 -1758.126,881.63 -1758.126,881.63 C-1766.788,881.63 -1773.875,874.543 -1773.875,865.881 C-1773.875,865.881 -1773.875,841.882 -1773.875,841.882 C-1773.875,833.2199999999999 -1766.788,826.133 -1758.126,826.133 C-1758.126,826.133 -1758.126,826.133 -1758.126,826.133 C-1749.464,826.133 -1742.377,833.2199999999999 -1742.377,841.882 C-1742.377,841.882 -1742.377,865.881 -1742.377,865.881 C-1742.377,874.543 -1749.464,881.63 -1758.126,881.63z"></path></g></g><g transform="matrix(1,0,0,1,1920,207)" opacity="1" style="-webkit-user-select: none;"><g opacity="1" transform="matrix(1,0,0,1,0,0)"><path fill="rgb(87,110,150)" fill-opacity="1" d="M0 0 M-1794.617,766.084 C-1794.617,766.084 -1245.383,794.647 -1245.383,794.647 C-1245.383,794.647 -1260.392,812.159 -1260.392,812.159 C-1260.392,812.159 -1794.617,812.159 -1794.617,812.159 C-1794.617,812.159 -1794.617,766.084 -1794.617,766.084z"></path></g></g><g transform="matrix(1,0,0,1,1920,207)" opacity="1" style="-webkit-user-select: none;"><g opacity="1" transform="matrix(1,0,0,1,0,0)"><path fill="rgb(87,110,150)" fill-opacity="1" d="M0 0 M-1620.534,779.975 C-1620.534,779.975 -1405.706,779.975 -1405.706,779.975 C-1405.706,779.975 -1448.733,830.398 -1448.733,830.398 C-1448.733,830.398 -1663.562,830.398 -1663.562,830.398 C-1663.562,830.398 -1620.534,779.975 -1620.534,779.975z"></path></g></g><g transform="matrix(1,0,0,1,1920,207)" opacity="1" style="-webkit-user-select: none;"><g opacity="1" transform="matrix(1,0,0,1,0,0)"><path fill="rgb(87,110,150)" fill-opacity="1" d="M0 0 M-1620.534,901.736 C-1620.534,901.736 -1419.466,901.736 -1419.466,901.736 C-1419.466,901.736 -1453.5,941 -1453.5,941 C-1453.5,941 -1654.569,941 -1654.569,941 C-1654.569,941 -1620.534,901.736 -1620.534,901.736z"></path></g></g><g transform="matrix(1,0,0,1,1920,207)" opacity="1" style="-webkit-user-select: none;"><g opacity="1" transform="matrix(1,0,0,1,0,0)"><path stroke-linecap="butt" stroke-linejoin="miter" fill-opacity="0" stroke-miterlimit="10" stroke="rgb(79,25,72)" stroke-opacity="1" stroke-width="16" d="M0 0 M-1213.244,369.292 C-1213.244,369.292 -1261,432.038 -1261,432.038"></path></g></g><g transform="matrix(1,0,0,1,1920,207)" opacity="1" style="-webkit-user-select: none;"><g opacity="1" transform="matrix(1,0,0,1,0,0)"><path stroke-linecap="butt" stroke-linejoin="miter" fill-opacity="0" stroke-miterlimit="10" stroke="rgb(79,25,72)" stroke-opacity="1" stroke-width="7" d="M0 0 M-1179,324.298 C-1179,324.298 -1261,432.038 -1261,432.038"></path></g></g><g transform="matrix(1,0,0,1,1920,207)" opacity="1" style="-webkit-user-select: none;"><g opacity="1" transform="matrix(1,0,0,1,0,0)"><path stroke-linecap="butt" stroke-linejoin="miter" fill-opacity="0" stroke-miterlimit="10" stroke="rgb(79,25,72)" stroke-opacity="1" stroke-width="7" d="M0 0 M-1204.383,627.818 C-1204.383,627.818 -1286.383,735.559 -1286.383,735.559"></path></g></g><g transform="matrix(1,0,0,1,1920,207)" opacity="1" style="-webkit-user-select: none;"><g opacity="1" transform="matrix(1,0,0,1,0,0)"><path fill="rgb(122,121,114)" fill-opacity="1" d="M0 0 M-1294.112,277 C-1294.112,277 -1003.406,353.672 -1003.406,353.672 C-1003.406,353.672 -1008.134,371.596 -1008.134,371.596 C-1008.134,371.596 -1298.84,294.924 -1298.84,294.924 C-1298.84,294.924 -1294.112,277 -1294.112,277z"></path></g></g><g transform="matrix(1,0,0,1,1920,207)" opacity="1" style="-webkit-user-select: none;"><g opacity="1" transform="matrix(1,0,0,1,0,0)"><path fill="rgb(211,247,82)" fill-opacity="1" d="M0 0 M-1284.112,275 C-1284.112,275 -993.406,351.672 -993.406,351.672 C-993.406,351.672 -995.77,360.634 -995.77,360.634 C-995.77,360.634 -1286.476,283.962 -1286.476,283.962 C-1286.476,283.962 -1284.112,275 -1284.112,275z"></path></g></g><g transform="matrix(1,0,0,1,1920,207)" opacity="1" style="-webkit-user-select: none;"><g opacity="1" transform="matrix(1,0,0,1,0,0)"><path fill="rgb(141,117,158)" fill-opacity="1" d="M0 0 M-1733.584,620.887 C-1733.584,620.887 -1184.35,620.887 -1184.35,620.887 C-1184.35,620.887 -1184.35,633.95 -1184.35,633.95 C-1184.35,633.95 -1733.584,633.95 -1733.584,633.95 C-1733.584,633.95 -1733.584,620.887 -1733.584,620.887z"></path></g></g><g transform="matrix(1,0,0,1,1920,207)" opacity="1" style="-webkit-user-select: none;"><g opacity="1" transform="matrix(1,0,0,1,0,0)"><path fill="rgb(35,229,210)" fill-opacity="1" d="M0 0 M-1794.617,215.094 C-1794.617,215.094 -1245.383,215.094 -1245.383,215.094 C-1245.383,215.094 -1245.383,794.647 -1245.383,794.647 C-1245.383,794.647 -1794.617,794.647 -1794.617,794.647 C-1794.617,794.647 -1794.617,215.094 -1794.617,215.094z"></path></g></g><g transform="matrix(1,0,0,1,1920,207)" opacity="1" style="-webkit-user-select: none;"><g opacity="1" transform="matrix(1,0,0,1,0,0)"><path fill="rgb(36,168,226)" fill-opacity="1" d="M0 0 M-1622.099,281.436 C-1622.099,281.436 -1437.795,281.436 -1437.795,281.436 C-1437.795,281.436 -1511.119,406.908 -1511.119,406.908 C-1511.119,406.908 -1725.948,406.908 -1725.948,406.908 C-1725.948,406.908 -1622.099,281.436 -1622.099,281.436z"></path></g></g><g transform="matrix(1,0,0,1,1920,207)" opacity="1" style="-webkit-user-select: none;"><g opacity="1" transform="matrix(1,0,0,1,0,0)"><path fill="rgb(79,25,72)" fill-opacity="1" d="M0 0 M-1419.466,277 C-1419.466,277 -1620.534,277 -1620.534,277 C-1620.534,277 -1620.534,794.647 -1620.534,794.647 C-1620.534,794.647 -1419.466,794.647 -1419.466,794.647 C-1419.466,794.647 -1419.466,277 -1419.466,277z"></path></g></g><g transform="matrix(1,0,0,1,1920,207)" opacity="1" style="-webkit-user-select: none;"><g opacity="1" transform="matrix(1,0,0,1,0,0)"><path fill="rgb(114,126,132)" fill-opacity="1" d="M0 0 M-1419.466,492.523 C-1419.466,492.523 -1620.534,492.523 -1620.534,492.523 C-1620.534,492.523 -1620.534,794.647 -1620.534,794.647 C-1620.534,794.647 -1419.466,794.647 -1419.466,794.647 C-1419.466,794.647 -1419.466,492.523 -1419.466,492.523z"></path></g></g><g transform="matrix(1,0,0,1,1920,207)" opacity="1" style="-webkit-user-select: none;"><g opacity="1" transform="matrix(1,0,0,1,0,0)"><path stroke-linecap="round" stroke-linejoin="miter" fill-opacity="0" stroke-miterlimit="10" stroke="rgb(79,25,72)" stroke-opacity="1" stroke-width="7" d="M0 0 M-1638.191,350.03 C-1638.191,350.03 -1618.533,378.168 -1618.533,378.168"></path></g></g><g transform="matrix(1,0,0,1,1920,207)" opacity="1" style="-webkit-user-select: none;"><g opacity="1" transform="matrix(1,0,0,1,0,0)"><path stroke-linecap="round" stroke-linejoin="miter" fill-opacity="0" stroke-miterlimit="10" stroke="rgb(79,25,72)" stroke-opacity="1" stroke-width="7" d="M0 0 M-1401.396,350.03 C-1401.396,350.03 -1421.054,378.168 -1421.054,378.168"></path></g></g><g transform="matrix(1,0,0,1,1920,207)" opacity="1" style="-webkit-user-select: none;"><g opacity="1" transform="matrix(1,0,0,1,0,0)"><path fill="rgb(147,159,163)" fill-opacity="1" d="M0 0 M-1389.447,342.987 C-1389.447,342.987 -1650.553,342.987 -1650.553,342.987 C-1650.553,342.987 -1650.553,357.073 -1650.553,357.073 C-1650.553,357.073 -1389.447,357.073 -1389.447,357.073 C-1389.447,357.073 -1389.447,342.987 -1389.447,342.987z"></path></g></g><g transform="matrix(1,0,0,1,1920,207)" opacity="1" style="-webkit-user-select: none;"><g opacity="1" transform="matrix(1,0,0,1,0,0)"><path fill="rgb(211,247,82)" fill-opacity="1" d="M0 0 M-1419.466,276.141 C-1419.466,276.141 -1620.534,276.141 -1620.534,276.141 C-1620.534,276.141 -1650.553,342.987 -1650.553,342.987 C-1650.553,342.987 -1389.447,342.987 -1389.447,342.987 C-1389.447,342.987 -1419.466,276.141 -1419.466,276.141z"></path></g></g><g transform="matrix(1,0,0,1,1920,207)" opacity="1" style="-webkit-user-select: none;"><g opacity="1" transform="matrix(1,0,0,1,0,0)"><path fill="rgb(166,191,201)" fill-opacity="1" d="M0 0 M-1460.628,612.06 C-1460.628,612.06 -1436.838,612.06 -1436.838,612.06 C-1433.538,612.06 -1430.838,609.3599999999999 -1430.838,606.06 C-1430.838,606.06 -1430.838,606.06 -1430.838,606.06 C-1430.838,602.76 -1433.538,600.06 -1436.838,600.06 C-1436.838,600.06 -1460.628,600.06 -1460.628,600.06 C-1463.9279999999999,600.06 -1466.628,602.76 -1466.628,606.06 C-1466.628,606.06 -1466.628,606.06 -1466.628,606.06 C-1466.628,609.3599999999999 -1463.9279999999999,612.06 -1460.628,612.06z"></path></g></g><g transform="matrix(1,0,0,1,1920,207)" opacity="1" style="-webkit-user-select: none;"><g opacity="1" transform="matrix(1,0,0,1,0,0)"><path fill="rgb(223,226,197)" fill-opacity="1" d="M0 0 M-1694.881,310.005 C-1694.881,310.005 -1745.62,310.005 -1745.62,310.005 C-1754.933,310.005 -1762.552,302.38599999999997 -1762.552,293.073 C-1762.552,293.073 -1762.552,293.073 -1762.552,293.073 C-1762.552,283.76 -1754.933,276.141 -1745.62,276.141 C-1745.62,276.141 -1694.881,276.141 -1694.881,276.141 C-1685.568,276.141 -1677.949,283.76 -1677.949,293.073 C-1677.949,293.073 -1677.949,293.073 -1677.949,293.073 C-1677.949,302.38599999999997 -1685.568,310.005 -1694.881,310.005z"></path></g></g><g transform="matrix(1,0,0,1,1920,207)" opacity="1" style="-webkit-user-select: none;"><g opacity="1" transform="matrix(1,0,0,1,0,0)"><path fill="rgb(223,226,197)" fill-opacity="1" d="M0 0 M-1296.913,310.005 C-1296.913,310.005 -1347.652,310.005 -1347.652,310.005 C-1356.9650000000001,310.005 -1364.583,302.38599999999997 -1364.583,293.073 C-1364.583,293.073 -1364.583,293.073 -1364.583,293.073 C-1364.583,283.76 -1356.9650000000001,276.141 -1347.652,276.141 C-1347.652,276.141 -1296.913,276.141 -1296.913,276.141 C-1287.6,276.141 -1279.981,283.76 -1279.981,293.073 C-1279.981,293.073 -1279.981,293.073 -1279.981,293.073 C-1279.981,302.38599999999997 -1287.6,310.005 -1296.913,310.005z"></path></g></g><g transform="matrix(1,0,0,1,1920,207)" opacity="1" style="-webkit-user-select: none;"><g opacity="1" transform="matrix(1,0,0,1,0,0)"><path fill="rgb(166,191,201)" fill-opacity="1" d="M0 0 M-1620.534,901.736 C-1620.534,901.736 -1419.466,901.736 -1419.466,901.736 C-1419.466,901.736 -1419.466,943.258 -1419.466,943.258 C-1419.466,943.258 -1620.534,943.258 -1620.534,943.258 C-1620.534,943.258 -1620.534,901.736 -1620.534,901.736z"></path></g></g><g transform="matrix(1,0,0,1,1920,207)" opacity="1" style="-webkit-user-select: none;"><g opacity="1" transform="matrix(1,0,0,1,0,0)"><path fill="rgb(147,159,163)" fill-opacity="1" d="M0 0 M-1703.468,939.506 C-1703.468,939.506 -1336.532,939.506 -1336.532,939.506 C-1336.532,939.506 -1336.532,967.864 -1336.532,967.864 C-1336.532,967.864 -1703.468,967.864 -1703.468,967.864 C-1703.468,967.864 -1703.468,939.506 -1703.468,939.506z"></path></g></g><g transform="matrix(1,0,0,1,1920,207)" opacity="1" style="-webkit-user-select: none;"><g opacity="1" transform="matrix(1,0,0,1,0,0)"><path fill="rgb(36,168,226)" fill-opacity="1" d="M0 0 M-1633.054,794.647 C-1633.054,794.647 -1431.985,794.647 -1431.985,794.647 C-1431.985,794.647 -1419.466,779.975 -1419.466,779.975 C-1419.466,779.975 -1620.534,779.975 -1620.534,779.975 C-1620.534,779.975 -1633.054,794.647 -1633.054,794.647z"></path></g></g><g transform="matrix(1,0,0,1,1920,207)" opacity="1" style="-webkit-user-select: none;"><g opacity="1" transform="matrix(1,0,0,1,0,0)"><path fill="rgb(147,159,163)" fill-opacity="1" d="M0 0 M-1620.534,779.975 C-1620.534,779.975 -1419.466,779.975 -1419.466,779.975 C-1419.466,779.975 -1419.466,794.647 -1419.466,794.647 C-1419.466,794.647 -1620.534,794.647 -1620.534,794.647 C-1620.534,794.647 -1620.534,779.975 -1620.534,779.975z"></path></g></g><g transform="matrix(1,0,0,1,1920,207)" opacity="1" style="-webkit-user-select: none;"><g opacity="1" transform="matrix(1,0,0,1,0,0)"><path fill="rgb(163,12,56)" fill-opacity="1" d="M0 0 M-1287.597,878.297 C-1287.597,878.297 -1287.597,878.297 -1287.597,878.297 C-1296.259,878.297 -1303.346,871.2090000000001 -1303.346,862.547 C-1303.346,862.547 -1303.346,838.549 -1303.346,838.549 C-1303.346,829.887 -1296.259,822.799 -1287.597,822.799 C-1287.597,822.799 -1287.597,822.799 -1287.597,822.799 C-1278.935,822.799 -1271.848,829.887 -1271.848,838.549 C-1271.848,838.549 -1271.848,862.547 -1271.848,862.547 C-1271.848,871.2090000000001 -1278.935,878.297 -1287.597,878.297z"></path></g></g><g transform="matrix(1,0,0,1,1920,207)" opacity="1" style="-webkit-user-select: none;"><g opacity="1" transform="matrix(1,0,0,1,0,0)"><path fill="rgb(163,12,56)" fill-opacity="1" d="M0 0 M-1755.332,878.297 C-1755.332,878.297 -1755.332,878.297 -1755.332,878.297 C-1763.9940000000001,878.297 -1771.081,871.2090000000001 -1771.081,862.547 C-1771.081,862.547 -1771.081,838.549 -1771.081,838.549 C-1771.081,829.887 -1763.9940000000001,822.799 -1755.332,822.799 C-1755.332,822.799 -1755.332,822.799 -1755.332,822.799 C-1746.67,822.799 -1739.583,829.887 -1739.583,838.549 C-1739.583,838.549 -1739.583,862.547 -1739.583,862.547 C-1739.583,871.2090000000001 -1746.67,878.297 -1755.332,878.297z"></path></g></g><g transform="matrix(1,0,0,1,1920,207)" opacity="1" style="-webkit-user-select: none;"><g opacity="1" transform="matrix(1,0,0,1,0,0)"><path fill="rgb(229,229,229)" fill-opacity="1" d="M0 0 M-1446.754,887.625 C-1446.754,887.625 -1593.246,887.625 -1593.246,887.625 C-1595.996,887.625 -1598.246,885.375 -1598.246,882.625 C-1598.246,882.625 -1598.246,851.528 -1598.246,851.528 C-1598.246,848.778 -1595.996,846.528 -1593.246,846.528 C-1593.246,846.528 -1446.754,846.528 -1446.754,846.528 C-1444.004,846.528 -1441.754,848.778 -1441.754,851.528 C-1441.754,851.528 -1441.754,882.625 -1441.754,882.625 C-1441.754,885.375 -1444.004,887.625 -1446.754,887.625z"></path></g></g><g transform="matrix(1,0,0,1,1920,207)" opacity="1" style="-webkit-user-select: none;"><g opacity="1" transform="matrix(1,0,0,1,0,0)"><path fill="rgb(61,37,56)" fill-opacity="1" d="M0 0 M-1550.396,869.863 C-1550.396,865.802 -1550.3519999999999,860.7470000000001 -1550.28,858.009 C-1550.28,858.009 -1550.316,858.009 -1550.316,858.009 C-1550.865,862.155 -1552.187,871.832 -1553.221,878.751 C-1553.221,878.751 -1556.698,878.751 -1556.698,878.751 C-1557.469,872.545 -1558.8039999999999,862.347 -1559.349,857.977 C-1559.349,857.977 -1559.42,857.977 -1559.42,857.977 C-1559.3490000000002,860.7629999999999 -1559.237,866.168 -1559.237,870.276 C-1559.237,870.276 -1559.237,878.751 -1559.237,878.751 C-1559.237,878.751 -1562.575,878.751 -1562.575,878.751 C-1562.575,878.751 -1562.575,854.859 -1562.575,854.859 C-1562.575,854.859 -1557.086,854.859 -1557.086,854.859 C-1556.156,860.931 -1555.1979999999999,867.738 -1554.876,871.086 C-1554.876,871.086 -1554.841,871.086 -1554.841,871.086 C-1554.452,867.696 -1553.1570000000002,860.5880000000001 -1552.2,854.859 C-1552.2,854.859 -1546.896,854.859 -1546.896,854.859 C-1546.896,854.859 -1546.896,878.751 -1546.896,878.751 C-1546.896,878.751 -1550.396,878.751 -1550.396,878.751 C-1550.396,878.751 -1550.396,869.863 -1550.396,869.863z"></path></g></g><g transform="matrix(1,0,0,1,1920,207)" opacity="1" style="-webkit-user-select: none;"><g opacity="1" transform="matrix(1,0,0,1,0,0)"><path fill="rgb(61,37,56)" fill-opacity="1" d="M0 0 M-1541.195,854.859 C-1541.195,854.859 -1537.51,854.859 -1537.51,854.859 C-1537.51,854.859 -1537.51,875.457 -1537.51,875.457 C-1537.51,875.457 -1531.501,875.457 -1531.501,875.457 C-1531.501,875.457 -1531.815,878.751 -1531.815,878.751 C-1531.815,878.751 -1541.195,878.751 -1541.195,878.751 C-1541.195,878.751 -1541.195,854.859 -1541.195,854.859z"></path></g></g><g transform="matrix(1,0,0,1,1920,207)" opacity="1" style="-webkit-user-select: none;"><g opacity="1" transform="matrix(1,0,0,1,0,0)"><path fill="rgb(61,37,56)" fill-opacity="1" d="M0 0 M-1527.524,854.859 C-1527.524,854.859 -1522.619,854.859 -1522.619,854.859 C-1518.483,854.859 -1516.893,856.795 -1516.893,860.299 C-1516.893,860.299 -1516.893,861.177 -1516.893,861.177 C-1516.893,864.567 -1518.067,865.545 -1519.111,865.978 C-1518.045,866.404 -1516.451,867.294 -1516.451,870.771 C-1516.451,870.771 -1516.451,872.582 -1516.451,872.582 C-1516.451,876.622 -1518.135,878.751 -1522.294,878.751 C-1522.294,878.751 -1527.524,878.751 -1527.524,878.751 C-1527.524,878.751 -1527.524,854.859 -1527.524,854.859zM0 0 M-1523.034,864.587 C-1520.9740000000002,864.587 -1520.357,863.95 -1520.357,861.582 C-1520.357,861.582 -1520.357,860.649 -1520.357,860.649 C-1520.357,858.666 -1521.063,857.901 -1522.825,857.901 C-1522.825,857.901 -1523.965,857.901 -1523.965,857.901 C-1523.965,857.901 -1523.965,864.587 -1523.965,864.587 C-1523.965,864.587 -1523.034,864.587 -1523.034,864.587zM0 0 M-1523.965,875.74 C-1523.965,875.74 -1522.735,875.74 -1522.735,875.74 C-1520.608,875.74 -1520.077,874.8 -1520.077,872.487 C-1520.077,872.487 -1520.077,870.896 -1520.077,870.896 C-1520.077,868.5659999999999 -1520.6680000000001,867.566 -1523.016,867.566 C-1523.016,867.566 -1523.965,867.566 -1523.965,867.566 C-1523.965,867.566 -1523.965,875.74 -1523.965,875.74z"></path></g></g><g transform="matrix(1,0,0,1,1920,207)" opacity="1" style="-webkit-user-select: none;"><g opacity="1" transform="matrix(1,0,0,1,0,0)"><path fill="rgb(61,37,56)" fill-opacity="1" d="M0 0 M-1504.979,873.173 C-1504.979,873.173 -1504.979,870.893 -1504.979,870.893 C-1504.979,868.029 -1503.759,867.0980000000001 -1502.627,866.369 C-1503.906,865.5360000000001 -1504.653,864.379 -1504.653,861.847 C-1504.653,861.847 -1504.653,860.927 -1504.653,860.927 C-1504.653,857.017 -1502.572,855.248 -1499.312,855.248 C-1496.4679999999998,855.248 -1494.212,856.691 -1494.212,861.013 C-1494.212,861.013 -1494.212,861.82 -1494.212,861.82 C-1494.212,864.668 -1495.147,865.675 -1496.224,866.337 C-1494.829,867.067 -1493.899,868.2779999999999 -1493.899,870.911 C-1493.899,870.911 -1493.899,872.916 -1493.899,872.916 C-1493.899,877.513 -1496.034,879.037 -1499.518,879.037 C-1502.391,879.037 -1504.979,877.917 -1504.979,873.173zM0 0 M-1497.58,873.389 C-1497.58,873.389 -1497.58,870.411 -1497.58,870.411 C-1497.58,868.583 -1498.285,867.961 -1499.482,867.961 C-1500.6789999999999,867.961 -1501.326,868.76 -1501.326,870.374 C-1501.326,870.374 -1501.326,873.407 -1501.326,873.407 C-1501.326,874.922 -1500.759,875.9 -1499.455,875.9 C-1498.1789999999999,875.9 -1497.58,875.17 -1497.58,873.389zM0 0 M-1501.184,860.679 C-1501.184,860.679 -1501.184,862.502 -1501.184,862.502 C-1501.184,863.9609999999999 -1500.532,864.824 -1499.415,864.824 C-1498.319,864.824 -1497.713,864.1339999999999 -1497.713,862.435 C-1497.713,862.435 -1497.713,860.675 -1497.713,860.675 C-1497.713,859.342 -1498.079,858.354 -1499.446,858.354 C-1500.7569999999998,858.354 -1501.184,859.3829999999999 -1501.184,860.679z"></path></g></g><g transform="matrix(1,0,0,1,1920,207)" opacity="1" style="-webkit-user-select: none;"><g opacity="1" transform="matrix(1,0,0,1,0,0)"><path fill="rgb(61,37,56)" fill-opacity="1" d="M0 0 M-1483.051,878.751 C-1483.051,878.751 -1483.051,872.959 -1483.051,872.959 C-1483.051,872.959 -1489.604,872.959 -1489.604,872.959 C-1489.604,872.959 -1489.604,870.229 -1489.604,870.229 C-1489.604,870.229 -1484.624,855.503 -1484.624,855.503 C-1484.624,855.503 -1479.681,855.503 -1479.681,855.503 C-1479.681,855.503 -1479.681,869.948 -1479.681,869.948 C-1479.681,869.948 -1477.938,869.948 -1477.938,869.948 C-1477.938,869.948 -1478.212,872.959 -1478.212,872.959 C-1478.212,872.959 -1479.681,872.959 -1479.681,872.959 C-1479.681,872.959 -1479.681,878.751 -1479.681,878.751 C-1479.681,878.751 -1483.051,878.751 -1483.051,878.751zM0 0 M-1483.051,865.817 C-1483.051,863.491 -1482.952,861.133 -1482.912,858.811 C-1482.912,858.811 -1482.948,858.811 -1482.948,858.811 C-1483.9550000000002,862.6260000000001 -1484.981,866.145 -1486.127,869.948 C-1486.127,869.948 -1483.051,869.948 -1483.051,869.948 C-1483.051,869.948 -1483.051,865.817 -1483.051,865.817z"></path></g></g><g transform="matrix(1,0,0,1,1920,207)" opacity="1" style="-webkit-user-select: none;"><g opacity="1" transform="matrix(1,0,0,1,0,0)"><path fill="rgb(61,37,56)" fill-opacity="1" d="M0 0 M-1470.447,872.359 C-1470.447,872.359 -1471.284,878.751 -1471.284,878.751 C-1471.284,878.751 -1475.031,878.751 -1475.031,878.751 C-1475.031,878.751 -1471.183,854.859 -1471.183,854.859 C-1471.183,854.859 -1465.977,854.859 -1465.977,854.859 C-1465.977,854.859 -1461.981,878.751 -1461.981,878.751 C-1461.981,878.751 -1465.832,878.751 -1465.832,878.751 C-1465.832,878.751 -1466.772,872.359 -1466.772,872.359 C-1466.772,872.359 -1470.447,872.359 -1470.447,872.359zM0 0 M-1467.207,868.971 C-1467.7530000000002,864.913 -1468.275,861.062 -1468.548,858.36 C-1468.548,858.36 -1468.683,858.36 -1468.683,858.36 C-1468.786,860.3290000000001 -1469.504,865.446 -1469.98,868.971 C-1469.98,868.971 -1467.207,868.971 -1467.207,868.971z"></path></g></g><g transform="matrix(1,0,0,1,1920,207)" opacity="1" style="-webkit-user-select: none;"><g opacity="1" transform="matrix(1,0,0,1,0,0)"><path fill="rgb(0,55,166)" fill-opacity="1" d="M0 0 M-1581.5,846.528 C-1581.5,846.528 -1593.246,846.528 -1593.246,846.528 C-1595.996,846.528 -1598.246,848.778 -1598.246,851.528 C-1598.246,851.528 -1598.246,882.625 -1598.246,882.625 C-1598.246,885.375 -1595.996,887.625 -1593.246,887.625 C-1593.246,887.625 -1581.5,887.625 -1581.5,887.625 C-1581.5,887.625 -1581.5,846.528 -1581.5,846.528z"></path></g></g><g transform="matrix(1,0,0,1,1920,207)" opacity="1" style="-webkit-user-select: none;"><g opacity="1" transform="matrix(1,0,0,1,0,0)"><path fill="rgb(79,25,72)" fill-opacity="1" d="M0 0 M-1329.032,1016.506 C-1329.032,1016.506 -1713.501,1016.506 -1713.501,1016.506 C-1713.501,1016.506 -1713.501,1004.001 -1713.501,1004.001 C-1713.501,1004.001 -1329.032,1004.001 -1329.032,1004.001 C-1329.032,1004.001 -1329.032,1016.506 -1329.032,1016.506z"></path></g></g><g transform="matrix(1,0,0,1,1920,207)" opacity="1" style="-webkit-user-select: none;"><g opacity="1" transform="matrix(1,0,0,1,0,0)"><path fill="rgb(79,25,72)" fill-opacity="1" d="M0 0 M-1453.733,1024.539 C-1453.733,1024.539 -1588.8,1024.539 -1588.8,1024.539 C-1591.55,1024.539 -1593.8,1022.289 -1593.8,1019.539 C-1593.8,1019.539 -1593.8,1000.968 -1593.8,1000.968 C-1593.8,998.218 -1591.55,995.968 -1588.8,995.968 C-1588.8,995.968 -1453.733,995.968 -1453.733,995.968 C-1450.983,995.968 -1448.733,998.218 -1448.733,1000.968 C-1448.733,1000.968 -1448.733,1019.539 -1448.733,1019.539 C-1448.733,1022.289 -1450.983,1024.539 -1453.733,1024.539z"></path></g></g><g transform="matrix(1,0,0,1,1920,207)" opacity="1" style="-webkit-user-select: none;"><g opacity="1" transform="matrix(1,0,0,1,0,0)"><path fill="rgb(79,25,72)" fill-opacity="1" d="M0 0 M-1298.34,1024.539 C-1298.34,1024.539 -1380.224,1024.539 -1380.224,1024.539 C-1382.974,1024.539 -1385.224,1022.289 -1385.224,1019.539 C-1385.224,1019.539 -1385.224,1000.968 -1385.224,1000.968 C-1385.224,998.218 -1382.974,995.968 -1380.224,995.968 C-1380.224,995.968 -1298.34,995.968 -1298.34,995.968 C-1295.59,995.968 -1293.34,998.218 -1293.34,1000.968 C-1293.34,1000.968 -1293.34,1019.539 -1293.34,1019.539 C-1293.34,1022.289 -1295.59,1024.539 -1298.34,1024.539z"></path></g></g><g transform="matrix(1,0,0,1,1920,207)" opacity="1" style="-webkit-user-select: none;"><g opacity="1" transform="matrix(1,0,0,1,0,0)"><path fill="rgb(79,25,72)" fill-opacity="1" d="M0 0 M-1662.527,1025.789 C-1662.527,1025.789 -1744.41,1025.789 -1744.41,1025.789 C-1747.16,1025.789 -1749.41,1023.539 -1749.41,1020.789 C-1749.41,1020.789 -1749.41,1002.217 -1749.41,1002.217 C-1749.41,999.467 -1747.16,997.217 -1744.41,997.217 C-1744.41,997.217 -1662.527,997.217 -1662.527,997.217 C-1659.777,997.217 -1657.527,999.467 -1657.527,1002.217 C-1657.527,1002.217 -1657.527,1020.789 -1657.527,1020.789 C-1657.527,1023.539 -1659.777,1025.789 -1662.527,1025.789z"></path></g></g><g transform="matrix(1,0,0,1,1920,207)" opacity="1" style="-webkit-user-select: none;"><g opacity="1" transform="matrix(1,0,0,1,0,0)"><path fill="rgb(87,110,150)" fill-opacity="1" d="M0 0 M-1794.617,225.744 C-1794.617,225.744 -1245.383,238.297 -1245.383,238.297 C-1245.383,238.297 -1254.388,248.805 -1254.388,248.805 C-1254.388,248.805 -1794.617,248.805 -1794.617,248.805 C-1794.617,248.805 -1794.617,225.744 -1794.617,225.744z"></path></g></g><g transform="matrix(1,0,0,1,1920,207)" opacity="1" style="-webkit-user-select: none;"><g opacity="1" transform="matrix(1,0,0,1,0,0)"><path fill="rgb(211,247,82)" fill-opacity="1" d="M0 0 M-1794.617,215.094 C-1794.617,215.094 -1245.383,215.094 -1245.383,215.094 C-1245.383,215.094 -1245.383,238.924 -1245.383,238.924 C-1245.383,238.924 -1794.617,238.924 -1794.617,238.924 C-1794.617,238.924 -1794.617,215.094 -1794.617,215.094z"></path></g></g><g transform="matrix(1,0,0,1,1920,207)" opacity="1" style="-webkit-user-select: none;"><g opacity="1" transform="matrix(1,0,0,1,0,0)"><path fill="rgb(114,126,132)" fill-opacity="1" d="M0 0 M-1277.697,273.139 C-1277.697,273.139 -1366.867,273.139 -1366.867,273.139 C-1366.867,273.139 -1366.867,281.167 -1366.867,281.167 C-1366.867,281.167 -1277.697,281.167 -1277.697,281.167 C-1277.697,281.167 -1277.697,273.139 -1277.697,273.139z"></path></g></g><g transform="matrix(1,0,0,1,1920,207)" opacity="1" style="-webkit-user-select: none;"><g opacity="1" transform="matrix(1,0,0,1,0,0)"><path fill="rgb(114,126,132)" fill-opacity="1" d="M0 0 M-1283.868,662.669 C-1283.868,662.669 -1283.868,495.474 -1283.868,495.474 C-1283.868,495.474 -1300.346,495.474 -1300.346,495.474 C-1300.346,495.474 -1300.346,662.669 -1300.346,662.669 C-1300.346,662.669 -1283.868,662.669 -1283.868,662.669z"></path></g></g><g transform="matrix(1,0,0,1,1920,207)" opacity="1" style="-webkit-user-select: none;"><g opacity="1" transform="matrix(1,0,0,1,0,0)"><path fill="rgb(114,126,132)" fill-opacity="1" d="M0 0 M-1739.584,662.669 C-1739.584,662.669 -1739.584,495.474 -1739.584,495.474 C-1739.584,495.474 -1756.062,495.474 -1756.062,495.474 C-1756.062,495.474 -1756.062,662.669 -1756.062,662.669 C-1756.062,662.669 -1739.584,662.669 -1739.584,662.669z"></path></g></g><g transform="matrix(1,0,0,1,1920,207)" opacity="1" style="-webkit-user-select: none;"><g opacity="1" transform="matrix(1,0,0,1,0,0)"><path fill="rgb(114,126,132)" fill-opacity="1" d="M0 0 M-1675.666,273.139 C-1675.666,273.139 -1764.836,273.139 -1764.836,273.139 C-1764.836,273.139 -1764.836,281.167 -1764.836,281.167 C-1764.836,281.167 -1675.666,281.167 -1675.666,281.167 C-1675.666,281.167 -1675.666,273.139 -1675.666,273.139z"></path></g></g><g transform="matrix(1,0,0,1,1920,207)" opacity="1" style="-webkit-user-select: none;"><g opacity="1" transform="matrix(1,0,0,1,0,0)"><path stroke-linecap="round" stroke-linejoin="miter" fill-opacity="0" stroke-miterlimit="10" stroke="rgb(209,21,138)" stroke-opacity="1" stroke-width="3" d="M0 0 M-1674.43,467.872 C-1674.43,467.872 -1680.019,467.872 -1680.019,467.872"></path></g><g opacity="1" transform="matrix(1,0,0,1,0,0)"><g opacity="1" transform="matrix(1,0,0,1,0,0)"><path fill="rgb(244,237,242)" fill-opacity="1" d="M0 0 M-1695.614,480.552 C-1695.614,480.552 -1695.614,480.552 -1695.614,480.552 C-1696.561,480.747 -1697.497,480.13100000000003 -1697.692,479.184 C-1697.692,479.184 -1699.521,470.304 -1699.521,470.304 C-1699.716,469.35699999999997 -1699.1,468.421 -1698.153,468.226 C-1698.153,468.226 -1698.153,468.226 -1698.153,468.226 C-1697.2060000000001,468.031 -1696.271,468.647 -1696.076,469.594 C-1696.076,469.594 -1694.246,478.475 -1694.246,478.475 C-1694.0510000000002,479.422 -1694.6670000000001,480.357 -1695.614,480.552z"></path></g><g opacity="1" transform="matrix(1,0,0,1,0,0)"><path fill="rgb(244,237,242)" fill-opacity="1" d="M0 0 M-1692.619,464.098 C-1693.772,462.901 -1695.4859999999999,462.291 -1697.225,462.649 C-1697.225,462.649 -1697.765,462.76 -1697.765,462.76 C-1700.458,463.315 -1702.208,465.973 -1701.653,468.666 C-1701.653,468.666 -1701.542,469.206 -1701.542,469.206 C-1700.9869999999999,471.899 -1698.329,473.649 -1695.636,473.094 C-1695.636,473.094 -1695.096,472.983 -1695.096,472.983 C-1693.357,472.625 -1692.0240000000001,471.386 -1691.438,469.831 C-1691.438,469.831 -1692.619,464.098 -1692.619,464.098z"></path></g></g></g><g transform="matrix(1,0,0,1,1920,207)" opacity="1" style="-webkit-user-select: none;"><g opacity="1" transform="matrix(1,0,0,1,0,0)"><path stroke-linecap="round" stroke-linejoin="miter" fill-opacity="0" stroke-miterlimit="10" stroke="rgb(81,53,53)" stroke-opacity="1" stroke-width="22.877" d="M0 0 M-1522.432,170.387 C-1522.432,170.387 -1492.319,173.543 -1492.319,173.543"></path></g></g><g transform="matrix(1,0,0,1,1920,207)" opacity="1" style="-webkit-user-select: none;"><g opacity="1" transform="matrix(1,0,0,1,0,0)"><path stroke-linecap="round" stroke-linejoin="round" fill-opacity="0" stroke="rgb(31,14,84)" stroke-opacity="1" stroke-width="22.877" d="M0 0 M-1578.4,159.606 C-1543.491,143.04 -1480.122,143.04 -1480.122,143.04 C-1480.122,143.04 -1535.139,167.1 -1535.139,167.1"></path></g></g><g transform="matrix(1,0,0,1,1920,207)" opacity="1" style="-webkit-user-select: none;"><g opacity="1" transform="matrix(1,0,0,1,0,0)"><path fill="rgb(121,92,191)" fill-opacity="1" d="M0 0 M-1603.67,180.116 C-1603.67,180.116 -1651.667,186.30100000000002 -1648.56,152.049 C-1645.453,117.797 -1578.4,133.18 -1578.4,133.18 C-1578.4,133.18 -1565.719,144.074 -1565.719,144.074 C-1565.719,144.074 -1566.567,156.598 -1574.456,159.877"></path></g></g><g transform="matrix(1,0,0,1,1920,207)" opacity="1" style="-webkit-user-select: none;"><g opacity="1" transform="matrix(1,0,0,1,0,0)"><path fill="rgb(124,22,22)" fill-opacity="1" d="M0 0 M-1604.862,53.934 C-1604.862,53.934 -1582.849,59.74 -1582.849,59.74 C-1582.849,59.74 -1575.597,32.243 -1575.597,32.243 C-1575.597,32.243 -1597.61,26.437 -1597.61,26.437 C-1597.61,26.437 -1604.862,53.934 -1604.862,53.934z"></path></g></g><g transform="matrix(1,0,0,1,1920,207)" opacity="1" style="-webkit-user-select: none;"><g opacity="1" transform="matrix(1,0,0,1,0,0)"><path stroke-linecap="round" stroke-linejoin="round" fill-opacity="0" stroke="rgb(61,33,127)" stroke-opacity="1" stroke-width="22.877" d="M0 0 M-1480.122,143.04 C-1480.122,143.04 -1535.139,167.1 -1535.139,167.1"></path></g></g><g transform="matrix(1,0,0,1,1920,207)" opacity="1" style="-webkit-user-select: none;"><g opacity="1" transform="matrix(1,0,0,1,0,0)"><path stroke-linecap="round" stroke-linejoin="round" fill-opacity="0" stroke="rgb(83,63,168)" stroke-opacity="1" stroke-width="22.877" d="M0 0 M-1503.997,169.632 C-1503.997,169.632 -1499.112,134.363 -1499.112,134.363"></path></g></g><g transform="matrix(1,0,0,1,1920,207)" opacity="1" style="-webkit-user-select: none;"><g opacity="1" transform="matrix(1,0,0,1,0,0)"><path stroke-linecap="round" stroke-linejoin="round" fill-opacity="0" stroke="rgb(121,92,191)" stroke-opacity="1" stroke-width="22.877" d="M0 0 M-1499.112,134.363 C-1499.112,134.363 -1560.803,168.565 -1588.787,168.696 C-1627.123,168.876 -1636.187,154.052 -1636.187,154.052"></path></g></g><g transform="matrix(1,0,0,1,1920,207)" opacity="1" style="-webkit-user-select: none;"><g opacity="1" transform="matrix(1,0,0,1,0,0)"><path fill="rgb(244,213,83)" fill-opacity="1" d="M0 0 M-1577.769,59.55 C-1577.769,59.55 -1574.749,98.074 -1572.387,101.489 C-1569.615,105.497 -1563.441,115.836 -1560.3,124.865 C-1555.075,139.885 -1565.719,144.074 -1565.719,144.074 C-1565.719,144.074 -1649.349,152.049 -1649.349,152.049 C-1649.349,152.049 -1654.2990000000002,126.49 -1644.13,96.83 C-1633.961,67.17 -1607.616,49.301 -1607.616,49.301 C-1607.616,49.301 -1577.769,59.55 -1577.769,59.55z"></path></g></g><g transform="matrix(1,0,0,1,1920,207)" opacity="1" style="-webkit-user-select: none;"><g opacity="1" transform="matrix(1,0,0,1,0,0)"><path fill="rgb(239,239,237)" fill-opacity="1" d="M0 0 M-1563.286,179 C-1563.286,179 -1657.409,179 -1657.409,179 C-1657.409,179 -1657.409,208.5 -1657.409,208.5 C-1657.409,208.5 -1563.286,208.5 -1563.286,208.5 C-1563.286,208.5 -1563.286,179 -1563.286,179z"></path></g></g><g transform="matrix(1,0,0,1,1920,207)" opacity="1" style="-webkit-user-select: none;"><g opacity="1" transform="matrix(1,0,0,1,0,0)"><path fill="rgb(239,239,237)" fill-opacity="1" d="M0 0 M-1448.124,179 C-1448.124,179 -1542.247,179 -1542.247,179 C-1542.247,179 -1542.247,208.5 -1542.247,208.5 C-1542.247,208.5 -1448.124,208.5 -1448.124,208.5 C-1448.124,208.5 -1448.124,179 -1448.124,179z"></path></g></g><g transform="matrix(1,0,0,1,1920,207)" opacity="1" style="-webkit-user-select: none;"><g opacity="1" transform="matrix(1,0,0,1,0,0)"><path stroke-linecap="round" stroke-linejoin="miter" fill-opacity="0" stroke-miterlimit="10" stroke="rgb(147,130,130)" stroke-opacity="1" stroke-width="22.877" d="M0 0 M-1552.306,171.965 C-1552.306,171.965 -1522.193,171.963 -1522.193,171.963"></path></g></g><g transform="matrix(0.9563,0.2924,-0.2924,0.9563,1860.6551,673.0861)" opacity="1" style="-webkit-user-select: none;"><g opacity="1" transform="matrix(1,0,0,1,0,0)"><path fill="rgb(175,46,46)" fill-opacity="1" d="M0 0 M-1534.785,35.135 C-1534.785,35.135 -1536.093,21.489 -1536.093,21.489 C-1536.093,21.489 -1536.093,21.489 -1536.093,21.489 C-1536.093,21.489 -1541.345,-33.312 -1541.345,-33.312 C-1542.394,-44.262 -1552.212,-52.362 -1563.162,-51.313 C-1563.162,-51.313 -1588.41,-48.893 -1588.41,-48.893 C-1599.3600000000001,-47.844 -1607.46,-38.025999999999996 -1606.411,-27.076 C-1606.411,-27.076 -1601.159,27.725 -1601.159,27.725 C-1600.1100000000001,38.675 -1590.2920000000001,46.775 -1579.342,45.726 C-1579.342,45.726 -1569.226,44.756 -1569.226,44.756 C-1566.0020000000002,51.395 -1558.896,55.706 -1551.146,54.963 C-1551.146,54.963 -1551.145,54.963 -1551.145,54.963 C-1541.193,54.009 -1533.8310000000001,45.086999999999996 -1534.785,35.135z"></path></g></g><g transform="matrix(0.9563,0.2924,-0.2924,0.9563,1860.6551,673.0861)" opacity="1" style="-webkit-user-select: none;"><g opacity="1" transform="matrix(1,0,0,1,0,0)"><path fill="rgb(22,60,73)" fill-opacity="1" d="M0 0 M-1590.605,-9.277 C-1590.605,-9.277 -1590.605,-9.277 -1590.605,-9.277 C-1600.814,-8.299 -1609.9679999999998,-15.850999999999999 -1610.946,-26.06 C-1610.946,-26.06 -1612.141,-38.528 -1612.141,-38.528 C-1612.7420000000002,-44.802 -1608.1009999999999,-50.427 -1601.827,-51.028 C-1601.827,-51.028 -1594.672,-51.714 -1594.672,-51.714 C-1584.463,-52.692 -1575.3100000000002,-45.14 -1574.332,-34.931 C-1574.332,-34.931 -1573.823,-29.617 -1573.823,-29.617 C-1572.845,-19.408 -1580.396,-10.254999999999999 -1590.605,-9.277z"></path></g></g><g transform="matrix(0.9563,0.2924,-0.2924,0.9563,1860.6551,673.0861)" opacity="1" style="-webkit-user-select: none;"><g opacity="1" transform="matrix(1,0,0,1,0,0)"><path fill="rgb(22,60,73)" fill-opacity="1" d="M0 0 M-1596.378,23.828 C-1596.378,23.828 -1596.378,23.828 -1596.378,23.828 C-1601.711,24.339 -1606.4940000000001,20.393 -1607.005,15.06 C-1607.005,15.06 -1611.588,-32.767 -1611.588,-32.767 C-1612.099,-38.1 -1608.153,-42.882 -1602.82,-43.393 C-1602.82,-43.393 -1602.82,-43.393 -1602.82,-43.393 C-1597.4869999999999,-43.904 -1592.705,-39.958999999999996 -1592.194,-34.626 C-1592.194,-34.626 -1587.61,13.202 -1587.61,13.202 C-1587.099,18.535 -1591.0449999999998,23.317 -1596.378,23.828z"></path></g></g><g transform="matrix(0.9563,0.2924,-0.2924,0.9563,1860.6551,673.0861)" opacity="1" style="-webkit-user-select: none;"><g opacity="1" transform="matrix(1,0,0,1,0,0)"><path fill="rgb(22,60,73)" fill-opacity="1" d="M0 0 M-1525.611,21.686 C-1525.611,21.686 -1558.32,24.821 -1558.32,24.821 C-1558.32,24.821 -1553.978,12.599 -1553.978,12.599 C-1553.978,12.599 -1532.195,10.511 -1532.195,10.511 C-1532.195,10.511 -1525.611,21.686 -1525.611,21.686z"></path></g></g><g transform="matrix(0.9563,0.2924,-0.2924,0.9563,1860.6551,673.0861)" opacity="1" style="-webkit-user-select: none;"><g opacity="1" transform="matrix(1,0,0,1,0,0)"><path fill="rgb(22,60,73)" fill-opacity="1" d="M0 0 M-1542.962,-16.867 C-1542.962,-16.867 -1565.512,-14.706 -1565.512,-14.706 C-1565.512,-14.706 -1565.943,-19.205 -1565.943,-19.205 C-1565.943,-19.205 -1543.393,-21.366 -1543.393,-21.366 C-1543.393,-21.366 -1542.962,-16.867 -1542.962,-16.867z"></path></g></g><g transform="matrix(0.9563,0.2924,-0.2924,0.9563,1860.6551,673.0861)" opacity="1" style="-webkit-user-select: none;"><g opacity="1" transform="matrix(1,0,0,1,0,0)"><path fill="rgb(22,60,73)" fill-opacity="1" d="M0 0 M-1533.419,-17.781 C-1533.419,-17.781 -1539.798,-17.17 -1539.798,-17.17 C-1539.798,-17.17 -1540.229,-21.669 -1540.229,-21.669 C-1540.229,-21.669 -1533.85,-22.28 -1533.85,-22.28 C-1533.85,-22.28 -1533.419,-17.781 -1533.419,-17.781z"></path></g></g><g></g><g transform="matrix(0.9563,0.2924,-0.2924,0.9563,1860.6551,673.0861)" opacity="1" style="-webkit-user-select: none;"><g opacity="1" transform="matrix(1,0,0,1,0,0)"><path stroke-linecap="butt" stroke-linejoin="miter" fill-opacity="0" stroke-miterlimit="10" stroke="rgb(70,198,127)" stroke-opacity="1" stroke-width="3.37" d="M0 0 M-1558.519,-8.154 C-1558.519,-8.154 -1578.143,-6.273 -1578.143,-6.273 C-1578.143,-6.273 -1584.884,-6.808 -1583.987,2.551"></path></g><g opacity="1" transform="matrix(1,0,0,1,0,0)"><path fill="rgb(207,245,255)" fill-opacity="1" d="M0 0 M-1527.075,-7.377 C-1526.237,1.37 -1528.9350000000002,4.8469999999999995 -1532.641,5.202 C-1536.347,5.557 -1539.657,2.6559999999999997 -1540.495,-6.091 C-1541.3329999999999,-14.838000000000001 -1538.56,-17.534 -1534.854,-17.889 C-1531.1480000000001,-18.244 -1527.913,-16.124 -1527.075,-7.377z"></path><path stroke-linecap="butt" stroke-linejoin="miter" fill-opacity="0" stroke-miterlimit="10" stroke="rgb(49,175,100)" stroke-opacity="1" stroke-width="3.37" d="M0 0 M-1527.075,-7.377 C-1526.237,1.37 -1528.9350000000002,4.8469999999999995 -1532.641,5.202 C-1536.347,5.557 -1539.657,2.6559999999999997 -1540.495,-6.091 C-1541.3329999999999,-14.838000000000001 -1538.56,-17.534 -1534.854,-17.889 C-1531.1480000000001,-18.244 -1527.913,-16.124 -1527.075,-7.377z"></path></g><g opacity="1" transform="matrix(1,0,0,1,0,0)"><path fill="rgb(207,245,255)" fill-opacity="1" d="M0 0 M-1544.739,-5.684 C-1543.901,3.0629999999999997 -1546.5990000000002,6.539 -1550.305,6.894 C-1554.011,7.2490000000000006 -1557.3210000000001,4.349 -1558.159,-4.398 C-1558.997,-13.145 -1556.224,-15.841000000000001 -1552.518,-16.196 C-1548.8120000000001,-16.551000000000002 -1545.577,-14.431000000000001 -1544.739,-5.684z"></path><path stroke-linecap="butt" stroke-linejoin="miter" fill-opacity="0" stroke-miterlimit="10" stroke="rgb(49,175,100)" stroke-opacity="1" stroke-width="3.37" d="M0 0 M-1544.739,-5.684 C-1543.901,3.0629999999999997 -1546.5990000000002,6.539 -1550.305,6.894 C-1554.011,7.2490000000000006 -1557.3210000000001,4.349 -1558.159,-4.398 C-1558.997,-13.145 -1556.224,-15.841000000000001 -1552.518,-16.196 C-1548.8120000000001,-16.551000000000002 -1545.577,-14.431000000000001 -1544.739,-5.684z"></path></g><g opacity="1" transform="matrix(1,0,0,1,0,0)"><path fill="rgb(207,245,255)" fill-opacity="1" d="M0 0 M-1545.498,-13.6 C-1545.498,-13.6 -1539.852,-14.141 -1539.852,-14.141"></path><path stroke-linecap="butt" stroke-linejoin="miter" fill-opacity="0" stroke-miterlimit="10" stroke="rgb(49,175,100)" stroke-opacity="1" stroke-width="3.37" d="M0 0 M-1545.498,-13.6 C-1545.498,-13.6 -1539.852,-14.141 -1539.852,-14.141"></path></g></g><g></g><g></g><g transform="matrix(0.7771,0.6293,-0.6293,0.7771,1604.8111,1198.1629)" opacity="1" style="-webkit-user-select: none;"><g opacity="1" transform="matrix(1,0,0,1,0,0)"><path fill="rgb(58,15,54)" fill-opacity="1" d="M0 0 M-1494.113,-5.101 C-1494.113,-5.101 -1541.371,6.25 -1541.371,6.25 C-1541.371,6.25 -1546.881,-16.69 -1546.881,-16.69 C-1546.881,-16.69 -1499.624,-28.041 -1499.624,-28.041 C-1499.624,-28.041 -1494.113,-5.101 -1494.113,-5.101z"></path></g></g><g transform="matrix(0.7771,0.6293,-0.6293,0.7771,1604.8111,1198.1629)" opacity="1" style="-webkit-user-select: none;"><g opacity="1" transform="matrix(1,0,0,1,0,0)"><path fill="rgb(58,15,54)" fill-opacity="1" d="M0 0 M-1540.984,-5.928 C-1539.455,0.39700000000000024 -1539.5849999999998,5.855 -1541.274,6.264 C-1542.963,6.673 -1547.097,2.245 -1548.626,-4.08 C-1550.155,-10.405000000000001 -1548.502,-16.232 -1546.812,-16.641 C-1545.1219999999998,-17.049999999999997 -1542.513,-12.253 -1540.984,-5.928z"></path></g></g><g transform="matrix(0.7771,0.6293,-0.6293,0.7771,1604.8111,1198.1629)" opacity="1" style="-webkit-user-select: none;"><g opacity="1" transform="matrix(1,0,0,1,0,0)"><path fill="rgb(79,25,72)" fill-opacity="1" d="M0 0 M-1444.786,-10.434 C-1444.786,-10.434 -1517.64,7.065 -1517.64,7.065 C-1517.64,7.065 -1526.134,-28.3 -1526.134,-28.3 C-1526.134,-28.3 -1453.281,-45.799 -1453.281,-45.799 C-1453.281,-45.799 -1444.786,-10.434 -1444.786,-10.434z"></path></g></g><g transform="matrix(0.7771,0.6293,-0.6293,0.7771,1604.8111,1198.1629)" opacity="1" style="-webkit-user-select: none;"><g opacity="1" transform="matrix(1,0,0,1,0,0)"><path fill="rgb(160,217,242)" fill-opacity="1" d="M0 0 M-1453.758,-27.011 C-1451.4,-17.259999999999998 -1451.6,-8.845 -1454.205,-8.215 C-1456.81,-7.585 -1460.832,-14.979000000000001 -1463.19,-24.73 C-1465.548,-34.481 -1465.348,-42.896 -1462.743,-43.526 C-1460.138,-44.156000000000006 -1456.116,-36.762 -1453.758,-27.011z"></path></g></g><g transform="matrix(0.7771,0.6293,-0.6293,0.7771,1604.8111,1198.1629)" opacity="1" style="-webkit-user-select: none;"><g opacity="1" transform="matrix(1,0,0,1,0,0)"><path fill="rgb(160,217,242)" fill-opacity="1" d="M0 0 M-1444.326,-29.291 C-1441.968,-19.54 -1442.168,-11.126000000000001 -1444.773,-10.496 C-1447.378,-9.866 -1451.4,-17.259999999999998 -1453.758,-27.011 C-1456.116,-36.762 -1455.916,-45.177 -1453.311,-45.807 C-1450.706,-46.437000000000005 -1446.684,-39.042 -1444.326,-29.291z"></path></g></g><g transform="matrix(0.7771,0.6293,-0.6293,0.7771,1604.8111,1198.1629)" opacity="1" style="-webkit-user-select: none;"><g opacity="1" transform="matrix(1,0,0,1,0,0)"><path fill="rgb(79,25,72)" fill-opacity="1" d="M0 0 M-1517.043,-11.709 C-1514.685,-1.9580000000000002 -1514.885,6.457 -1517.49,7.087 C-1520.095,7.717 -1524.117,0.3229999999999986 -1526.475,-9.428 C-1528.8329999999999,-19.179000000000002 -1528.633,-27.594 -1526.028,-28.224 C-1523.423,-28.854 -1519.4009999999998,-21.46 -1517.043,-11.709z"></path></g></g><g></g><g transform="matrix(0.891,0.454,-0.454,0.891,1777.3526,942.0512)" opacity="1" style="-webkit-user-select: none;"><g opacity="1" transform="matrix(1,0,0,1,0,0)"><path stroke-linecap="butt" stroke-linejoin="miter" fill-opacity="0" stroke-miterlimit="10" stroke="rgb(237,171,74)" stroke-opacity="1" stroke-width="15.359" d="M0 0 M-1602.178,70.441 C-1602.178,70.441 -1551.0720000000001,117.493 -1510.181,81.573 C-1492.491,66.03399999999999 -1490.576,32.714 -1491.288,17.357 C-1492,2 -1497.25,-17.5 -1497.25,-17.5"></path></g><g opacity="1" transform="matrix(1,0,0,1,0,0)"><path stroke-linecap="butt" stroke-linejoin="miter" fill-opacity="0" stroke-miterlimit="10" stroke="rgb(174,45,45)" stroke-opacity="1" stroke-width="16" d="M0 0 M-1492.334,6.721 C-1494.081,-5.731 -1497.25,-17.5 -1497.25,-17.5"></path></g></g><g transform="matrix(0.891,0.454,-0.454,0.891,1777.3526,942.0512)" opacity="1" style="-webkit-user-select: none;"><g opacity="1" transform="matrix(1,0,0,1,0,0)"><path fill="rgb(237,171,74)" fill-opacity="1" d="M0 0 M-1594.245,70.764 C-1594.245,74.967 -1597.651,78.374 -1601.854,78.374 C-1606.057,78.374 -1609.464,74.967 -1609.464,70.764 C-1609.464,66.56099999999999 -1606.057,63.155 -1601.854,63.155 C-1597.651,63.155 -1594.245,66.56099999999999 -1594.245,70.764z"></path></g></g><g transform="matrix(0.9986,0.0523,-0.0523,0.9986,1954.4912,253.6754)" opacity="1" style="-webkit-user-select: none;"><g opacity="1" transform="matrix(1,0,0,1,0,0)"><path stroke-linecap="butt" stroke-linejoin="miter" fill-opacity="0" stroke-miterlimit="10" stroke="rgb(124,8,124)" stroke-opacity="1" stroke-width="15.551" d="M0 0 M-844.842,656.73 C-844.842,656.73 -912.865,662.236 -912.865,706.616 C-912.865,729.35 -900.431,759.002 -874.013,746.9"></path></g><g opacity="1" transform="matrix(1,0,0,1,0,0)"><path stroke-linecap="butt" stroke-linejoin="miter" fill-opacity="0" stroke-miterlimit="10" stroke="rgb(255,152,152)" stroke-opacity="1" stroke-width="16.551" d="M0 0 M-902.738,740.625 C-896.327,748.826 -886.811,752.763 -874.013,746.9"></path></g></g><g transform="matrix(1,0,0,1,1920,207)" opacity="1" style="-webkit-user-select: none;"><g opacity="1" transform="matrix(1,0,0,1,0,0)"><path stroke-linecap="round" stroke-linejoin="miter" fill-opacity="0" stroke-miterlimit="10" stroke="rgb(28,21,63)" stroke-opacity="1" stroke-width="18.661" d="M0 0 M-869.74,772.256 C-869.74,772.256 -858.387,827.703 -858.632,905.001 C-858.781,951.9789999999999 -863.2139999999999,1007.029 -877.084,1062.606 C-877.084,1062.606 -877.25,1078 -877.25,1078"></path></g></g><g transform="matrix(0.9986,0.0523,-0.0523,0.9986,1954.4912,253.6754)" opacity="1" style="-webkit-user-select: none;"><g opacity="1" transform="matrix(1,0,0,1,0,0)"><path fill="rgb(160,13,156)" fill-opacity="1" d="M0 0 M-881.76,750.012 C-881.76,750.012 -824.647,746.9 -824.647,746.9 C-824.647,746.9 -806.849,658.3009999999999 -815.748,647.386 C-824.647,636.471 -853.043,642.649 -858.239,652.705 C-863.4350000000001,662.7610000000001 -881.76,750.012 -881.76,750.012z"></path></g></g><g transform="matrix(0.9986,0.0523,-0.0523,0.9986,1954.4912,253.6754)" opacity="1" style="-webkit-user-select: none;"><g opacity="1" transform="matrix(1,0,0,1,0,0)"><path fill="rgb(56,48,84)" fill-opacity="1" d="M0 0 M-877.61,774.872 C-872.747,781.096 -824.647,784.208 -824.647,784.208 C-824.647,784.208 -812.199,780.082 -812.199,765.117 C-812.199,750.709 -824.647,746.9 -824.647,746.9 C-824.647,746.9 -881.76,750.012 -881.76,750.012 C-881.76,750.012 -882.4730000000001,768.6479999999999 -877.61,774.872z"></path></g></g><g transform="matrix(1,0,0,1,1920,207)" opacity="1" style="-webkit-user-select: none;"><g opacity="1" transform="matrix(1,0,0,1,0,0)"><path stroke-linecap="round" stroke-linejoin="miter" fill-opacity="0" stroke-miterlimit="10" stroke="rgb(56,48,84)" stroke-opacity="1" stroke-width="18.661" d="M0 0 M-836.575,778.48 C-836.575,778.48 -821.367,830.916 -815.199,903.932 C-811.2139999999999,951.098 -811.002,1006.852 -821.097,1062.606 C-821.097,1062.606 -821,1078.5 -821,1078.5"></path></g></g><g transform="matrix(1.01,0,0,1,1928.65,208)" opacity="1" style="-webkit-user-select: none;"><g opacity="1" transform="matrix(1,0,0,1,0,0)"><path stroke-linecap="butt" stroke-linejoin="miter" fill-opacity="0" stroke-miterlimit="10" stroke="rgb(249,170,110)" stroke-opacity="1" stroke-width="18.661" d="M0 0 M-821.535,1079.001 C-821.535,1079.001 -821.535,1062.606 -821.535,1062.606"></path></g></g><g transform="matrix(1.01,0,0,1,1929.35,208)" opacity="1" style="-webkit-user-select: none;"><g opacity="1" transform="matrix(1,0,0,1,0,0)"><path stroke-linecap="butt" stroke-linejoin="miter" fill-opacity="0" stroke-miterlimit="10" stroke="rgb(249,170,110)" stroke-opacity="1" stroke-width="18.661" d="M0 0 M-877.692,1079.001 C-877.692,1079.001 -877.692,1062.606 -877.692,1062.606"></path></g></g><g transform="matrix(0.9986,0.0523,-0.0523,0.9986,1954.4912,253.6754)" opacity="1" style="-webkit-user-select: none;"><g opacity="1" transform="matrix(1,0,0,1,0,0)"><path fill="rgb(255,162,152)" fill-opacity="1" d="M0 0 M-828.41,642.307 C-828.41,642.307 -828.505,646.95 -835.401,650.417 C-842.2969999999999,653.884 -846.877,650.615 -846.877,650.615 C-846.877,650.615 -865.496,607.997 -865.496,607.997 C-865.496,607.997 -847.03,599.689 -847.03,599.689 C-847.03,599.689 -828.41,642.307 -828.41,642.307z"></path></g></g><g transform="matrix(0.9986,0.0523,-0.0523,0.9986,1954.4912,253.6754)" opacity="1" style="-webkit-user-select: none;"><g opacity="1" transform="matrix(1,0,0,1,0,0)"><path fill="rgb(255,163,153)" fill-opacity="1" d="M0 0 M-861.212,615.855 C-861.212,615.855 -880.549,617.639 -880.549,617.639 C-891.502,618.65 -901.291,610.514 -902.302,599.561 C-902.302,599.561 -906.164,557.711 -906.164,557.711 C-907.175,546.758 -899.039,536.9689999999999 -888.086,535.958 C-888.086,535.958 -868.748,534.173 -868.748,534.173 C-857.7950000000001,533.162 -848.006,541.298 -846.995,552.251 C-846.995,552.251 -843.134,594.102 -843.134,594.102 C-842.123,605.055 -850.259,614.844 -861.212,615.855z"></path></g></g><g></g><g transform="matrix(0.9986,0.0523,-0.0523,0.9986,1954.4912,253.6754)" opacity="1" style="-webkit-user-select: none;"><g opacity="1" transform="matrix(1,0,0,1,0,0)"><path fill="rgb(94,11,11)" fill-opacity="1" d="M0 0 M-858.498,612.182 C-857.45,623.54 -866.486,648.676 -897.506,651.538 C-915.3249999999999,653.182 -923.7719999999999,637.8069999999999 -922.775,614.911 C-921.983,596.7289999999999 -911.557,584.539 -893.738,582.895 C-875.9190000000001,581.251 -860.142,594.363 -858.498,612.182z"></path></g></g><g transform="matrix(0.9986,0.0523,-0.0523,0.9986,1954.4912,253.6754)" opacity="1" style="-webkit-user-select: none;"><g opacity="1" transform="matrix(1,0,0,1,0,0)"><path fill="rgb(61,37,56)" fill-opacity="1" d="M0 0 M-878.26,571.907 C-878.26,571.907 -878.25,572.017 -878.25,572.017 C-878.174,572.8380000000001 -878.785,573.572 -879.606,573.648 C-879.606,573.648 -883.845,574.039 -883.845,574.039 C-884.667,574.115 -885.4,573.505 -885.476,572.684 C-885.476,572.684 -885.487,572.574 -885.487,572.574 C-885.563,571.752 -884.953,571.019 -884.131,570.943 C-884.131,570.943 -879.892,570.551 -879.892,570.551 C-879.07,570.475 -878.336,571.085 -878.26,571.907z"></path></g></g><g transform="matrix(0.9986,0.0523,-0.0523,0.9986,1954.4912,253.6754)" opacity="1" style="-webkit-user-select: none;"><g opacity="1" transform="matrix(1,0,0,1,0,0)"><path fill="rgb(61,37,56)" fill-opacity="1" d="M0 0 M-893.755,573.337 C-893.755,573.337 -893.745,573.447 -893.745,573.447 C-893.669,574.269 -894.28,575.002 -895.101,575.078 C-895.101,575.078 -899.34,575.469 -899.34,575.469 C-900.162,575.5450000000001 -900.895,574.9350000000001 -900.971,574.113 C-900.971,574.113 -900.981,574.004 -900.981,574.004 C-901.057,573.182 -900.447,572.448 -899.625,572.372 C-899.625,572.372 -895.386,571.981 -895.386,571.981 C-894.564,571.905 -893.831,572.515 -893.755,573.337z"></path></g></g><g transform="matrix(0.9986,0.0523,-0.0523,0.9986,1954.4912,253.6754)" opacity="1" style="-webkit-user-select: none;"><g opacity="1" transform="matrix(1,0,0,1,0,0)"><path stroke-linecap="butt" stroke-linejoin="miter" fill-opacity="0" stroke-miterlimit="10" stroke="rgb(94,11,11)" stroke-opacity="1" stroke-width="11" d="M0 0 M-853.155,530.652 C-853.155,530.652 -847.333,593.752 -847.333,593.752 C-846.285,605.108 -854.719,615.256 -866.075,616.304 C-866.075,616.304 -883.95,617.953 -883.95,617.953"></path></g></g><g transform="matrix(0.9986,0.0523,-0.0523,0.9986,1954.4912,253.6754)" opacity="1" style="-webkit-user-select: none;"><g opacity="1" transform="matrix(1,0,0,1,0,0)"><path fill="rgb(94,11,11)" fill-opacity="1" d="M0 0 M-847.322,533.121 C-847.322,533.121 -848.774,517.382 -848.774,517.382 C-848.774,517.382 -902.155,522.308 -902.155,522.308 C-902.155,522.308 -895.935,537.607 -895.935,537.607 C-895.935,537.607 -868.877,535.11 -868.877,535.11 C-867.625,543.118 -864.0980000000001,556.664 -854.571,556.14 C-854.571,556.14 -853.859,533.725 -853.859,533.725 C-853.859,533.725 -847.322,533.121 -847.322,533.121z"></path></g></g><g transform="matrix(0.9986,0.0523,-0.0523,0.9986,1954.4912,253.6754)" opacity="1" style="-webkit-user-select: none;"><g opacity="1" transform="matrix(1,0,0,1,0,0)"><path stroke-linecap="round" stroke-linejoin="miter" fill-opacity="0" stroke-miterlimit="10" stroke="rgb(94,11,11)" stroke-opacity="1" stroke-width="7" d="M0 0 M-884.274,565.161 C-884.274,565.161 -874.739,562.503 -874.739,562.503"></path></g></g><g transform="matrix(0.9986,0.0523,-0.0523,0.9986,1954.4912,253.6754)" opacity="1" style="-webkit-user-select: none;"><g opacity="1" transform="matrix(1,0,0,1,0,0)"><path stroke-linecap="round" stroke-linejoin="miter" fill-opacity="0" stroke-miterlimit="10" stroke="rgb(94,11,11)" stroke-opacity="1" stroke-width="7" d="M0 0 M-906.287,565.161 C-906.287,565.161 -896.753,566.505 -896.753,566.505"></path></g></g><g transform="matrix(0.9986,0.0523,-0.0523,0.9986,1954.4912,253.6754)" opacity="1" style="-webkit-user-select: none;"><g opacity="1" transform="matrix(1,0,0,1,0,0)"><path fill="rgb(255,163,153)" fill-opacity="1" d="M0 0 M-846.799,582.489 C-846.799,582.489 -855.476,582.489 -855.476,582.489 C-860.288,582.489 -864.226,578.551 -864.226,573.739 C-864.226,573.739 -864.226,569.718 -864.226,569.718 C-864.226,564.906 -860.288,560.968 -855.476,560.968 C-855.476,560.968 -846.799,560.968 -846.799,560.968 C-841.987,560.968 -838.049,564.906 -838.049,569.718 C-838.049,569.718 -838.049,573.739 -838.049,573.739 C-838.049,578.551 -841.987,582.489 -846.799,582.489z"></path></g></g><g transform="matrix(0.9986,0.0523,-0.0523,0.9986,1954.4912,253.6754)" opacity="1" style="-webkit-user-select: none;"><g opacity="1" transform="matrix(1,0,0,1,0,0)"><path fill="rgb(244,237,242)" fill-opacity="1" d="M0 0 M-849.944,587.035 C-849.944,587.035 -849.166,586.977 -849.166,586.977 C-848.201,586.906 -847.47,586.0590000000001 -847.541,585.094 C-847.541,585.094 -848.411,573.269 -848.411,573.269 C-848.482,572.304 -849.329,571.573 -850.294,571.644 C-850.294,571.644 -851.072,571.701 -851.072,571.701 C-852.037,571.772 -852.768,572.62 -852.697,573.585 C-852.697,573.585 -851.827,585.41 -851.827,585.41 C-851.756,586.375 -850.909,587.106 -849.944,587.035z"></path></g><g opacity="1" transform="matrix(1,0,0,1,0,0)"><path fill="rgb(244,237,242)" fill-opacity="1" d="M0 0 M-858.564,568.668 C-857.608,566.877 -855.797,565.586 -853.634,565.427 C-853.634,565.427 -852.963,565.378 -852.963,565.378 C-849.612,565.1320000000001 -846.668,567.671 -846.422,571.022 C-846.422,571.022 -846.373,571.694 -846.373,571.694 C-846.1270000000001,575.045 -848.666,577.988 -852.017,578.234 C-852.017,578.234 -852.689,578.283 -852.689,578.283 C-854.852,578.442 -856.833,577.4309999999999 -858.04,575.799 C-858.04,575.799 -858.564,568.668 -858.564,568.668z"></path></g></g><g transform="matrix(0.9986,0.0523,-0.0523,0.9986,1954.4912,253.6754)" opacity="1" style="-webkit-user-select: none;"><g opacity="1" transform="matrix(1,0,0,1,0,0)"><path fill="rgb(255,163,153)" fill-opacity="1" d="M0 0 M-856.168,581.207 C-856.168,581.207 -859.954,581.207 -859.954,581.207 C-864.766,581.207 -868.703,577.269 -868.703,572.457 C-868.703,572.457 -868.703,572.457 -868.703,572.457 C-868.703,567.645 -864.766,563.708 -859.954,563.708 C-859.954,563.708 -856.168,563.708 -856.168,563.708"></path></g></g><g transform="matrix(0.9986,0.0523,-0.0523,0.9986,1954.4912,253.6754)" opacity="1" style="-webkit-user-select: none;"><g opacity="1" transform="matrix(1,0,0,1,0,0)"><path stroke-linecap="butt" stroke-linejoin="miter" fill-opacity="0" stroke-miterlimit="10" stroke="rgb(124,8,124)" stroke-opacity="1" stroke-width="15.551" d="M0 0 M-822.615,657.767 C-822.615,657.767 -751.48,672.61 -751.48,716.99 C-751.48,739.724 -772.7950000000001,757.078 -800.705,746.9 C-810.3860000000001,743.37 -819.532,740.75 -829.879,747.763"></path></g><g opacity="1" transform="matrix(1,0,0,1,0,0)"><path stroke-linecap="butt" stroke-linejoin="miter" fill-opacity="0" stroke-miterlimit="10" stroke="rgb(255,152,152)" stroke-opacity="1" stroke-width="16.551" d="M0 0 M-795.774,748.435 C-797.392,748.018 -799.037,747.508 -800.705,746.9 C-810.3860000000001,743.37 -819.532,740.75 -829.879,747.763"></path></g></g><g transform="matrix(0.9986,0.0523,-0.0523,0.9986,1954.4912,253.6754)" opacity="1" style="-webkit-user-select: none;"><g opacity="1" transform="matrix(1,0,0,1,0,0)"><path fill="rgb(124,8,124)" fill-opacity="1" d="M0 0 M-814.897,657.767 C-814.897,662.029 -818.3530000000001,665.484 -822.615,665.484 C-826.877,665.484 -830.332,662.029 -830.332,657.767 C-830.332,653.5050000000001 -826.877,650.05 -822.615,650.05 C-818.3530000000001,650.05 -814.897,653.5050000000001 -814.897,657.767z"></path></g></g><g transform="matrix(0.4226,-0.9063,0.9063,0.4226,672.2356,-294.2608)" opacity="1" style="-webkit-user-select: none;"><g opacity="1" transform="matrix(1,0,0,1,0,0)"><path stroke-linecap="butt" stroke-linejoin="miter" fill-opacity="0" stroke-miterlimit="10" stroke="rgb(241,172,124)" stroke-opacity="1" stroke-width="9" d="M0 0 M-1014.546,730.418 C-1014.546,730.418 -1023.9750000000001,734.896 -1037.419,739.053 C-1057.63,745.302 -1077.6490000000001,751.6659999999999 -1098.054,755.766 C-1138.5880000000002,763.91 -1151.539,762.831 -1164.844,764.283"></path></g><g opacity="1" transform="matrix(1,0,0,1,0,0)"><path stroke-linecap="butt" stroke-linejoin="miter" fill-opacity="0" stroke-miterlimit="10" stroke="rgb(110,167,83)" stroke-opacity="1" stroke-width="10" d="M0 0 M-1014.546,730.418 C-1014.546,730.418 -1023.9750000000001,734.896 -1037.419,739.053 C-1041.465,740.304 -1045.503,741.559 -1049.538,742.8"></path></g></g><g></g><g transform="matrix(1,0,0,1,1920,207)" opacity="1" style="-webkit-user-select: none;"><g opacity="1" transform="matrix(1,0,0,1,0,0)"><path fill="rgb(221,92,20)" fill-opacity="1" d="M0 0 M-1025.909,642.825 C-1025.909,642.825 -1053.868,671.968 -1032.664,694.472 C-1013.1469999999999,715.185 -995.356,701.59 -995.356,701.59 C-995.356,701.59 -1017.3480000000001,693.5070000000001 -1010.595,678.321 C-1003.3430000000001,662.014 -1005.0960000000001,650.2420000000001 -1025.909,642.825z"></path></g></g><g transform="matrix(1,0,0,1,1920,207)" opacity="1" style="-webkit-user-select: none;"><g opacity="1" transform="matrix(1,0,0,1,0,0)"><path stroke-linecap="butt" stroke-linejoin="miter" fill-opacity="0" stroke-miterlimit="10" stroke="rgb(0,85,94)" stroke-opacity="1" stroke-width="11" d="M0 0 M-1058.39,837 C-1058.39,837 -1052.109,895 -1047.742,960.335 C-1043.385,1025.52 -1045.026,1079.846 -1045.026,1079.846"></path></g><g opacity="1" transform="matrix(1,0,0,1,0,0)"><path stroke-linecap="butt" stroke-linejoin="miter" fill-opacity="0" stroke-miterlimit="10" stroke="rgb(93,3,33)" stroke-opacity="1" stroke-width="14" d="M0 0 M-1045.191,1016.574 C-1044.245,1054.001 -1045.026,1079.846 -1045.026,1079.846"></path></g></g><g transform="matrix(1,0,0,1,1920,207)" opacity="1" style="-webkit-user-select: none;"><g opacity="1" transform="matrix(1,0,0,1,0,0)"><path stroke-linecap="butt" stroke-linejoin="miter" fill-opacity="0" stroke-miterlimit="10" stroke="rgb(0,129,150)" stroke-opacity="1" stroke-width="11" d="M0 0 M-1032.995,837 C-1032.995,837 -1033.337,900.541 -1031.337,967.864 C-1029.397,1033.166 -1008,1077.845 -1008,1077.845"></path></g><g opacity="1" transform="matrix(1,0,0,1,0,0)"><path stroke-linecap="butt" stroke-linejoin="miter" fill-opacity="0" stroke-miterlimit="10" stroke="rgb(134,6,49)" stroke-opacity="1" stroke-width="14" d="M0 0 M-1026.056,1017.186 C-1019.122,1054.62 -1008,1077.845 -1008,1077.845"></path></g></g><g transform="matrix(1,0,0,1,1920,207)" opacity="1" style="-webkit-user-select: none;"><g opacity="1" transform="matrix(1,0,0,1,0,0)"><path fill="rgb(237,178,131)" fill-opacity="1" d="M0 0 M-1018.29,718.73 C-1018.29,718.73 -1022.317,741.283 -1022.317,741.283 C-1022.317,741.283 -1029.599,737.311 -1029.599,737.311 C-1029.599,737.311 -1028.242,718.021 -1028.242,718.021 C-1028.242,718.021 -1024.988,678.374 -1024.988,678.374 C-1024.988,678.374 -1015.036,679.083 -1015.036,679.083 C-1015.036,679.083 -1018.29,718.73 -1018.29,718.73z"></path></g></g><g transform="matrix(1,0,0,1,1920,207)" opacity="1" style="-webkit-user-select: none;"><g opacity="1" transform="matrix(1,0,0,1,0,0)"><path fill="rgb(255,201,153)" fill-opacity="1" d="M0 0 M-989.764,663.516 C-996.97,681.0649999999999 -1017.037,689.45 -1034.586,682.244 C-1052.135,675.038 -1060.521,654.97 -1053.315,637.421 C-1046.1090000000002,619.8720000000001 -1026.041,611.487 -1008.492,618.693 C-990.943,625.899 -982.558,645.967 -989.764,663.516z"></path></g></g><g transform="matrix(1,0,0,1,1920,207)" opacity="1" style="-webkit-user-select: none;"><g opacity="1" transform="matrix(1,0,0,1,0,0)"><path stroke-linecap="butt" stroke-linejoin="miter" fill-opacity="0" stroke-miterlimit="10" stroke="rgb(61,37,56)" stroke-opacity="1" stroke-width="2" d="M0 0 M-1025.272,655.178 C-1025.272,655.178 -1023.0400000000001,651.934 -1019.34,653.453 C-1016.2570000000001,654.7189999999999 -1016.639,658.723 -1016.639,658.723"></path></g></g><g transform="matrix(1,0,0,1,1920,207)" opacity="1" style="-webkit-user-select: none;"><g opacity="1" transform="matrix(1,0,0,1,0,0)"><path stroke-linecap="butt" stroke-linejoin="miter" fill-opacity="0" stroke-miterlimit="10" stroke="rgb(61,37,56)" stroke-opacity="1" stroke-width="2" d="M0 0 M-1049.459,645.246 C-1049.459,645.246 -1047.227,642.003 -1043.527,643.522 C-1040.444,644.788 -1040.826,648.791 -1040.826,648.791"></path></g></g><g transform="matrix(1,0,0,1,1920,207)" opacity="1" style="-webkit-user-select: none;"><g opacity="1" transform="matrix(1,0,0,1,0,0)"><path fill="rgb(255,173,29)" fill-opacity="1" d="M0 0 M-1006.344,621.072 C-1006.344,621.072 -1034.464,655.955 -1062.222,635.801 C-1087.772,617.25 -1075.325,595.752 -1075.325,595.752 C-1075.325,595.752 -1063.324,618.812 -1047.567,609.235 C-1030.647,598.951 -1017.446,599.217 -1006.344,621.072z"></path></g></g><g transform="matrix(1,0,0,1,1920,207)" opacity="1" style="-webkit-user-select: none;"><g opacity="1" transform="matrix(1,0,0,1,0,0)"><path fill="rgb(255,173,29)" fill-opacity="1" d="M0 0 M-995.25,648.683 C-995.25,648.683 -1032.69,673.297 -1015.315,702.875 C-999.322,730.099 -976.721,719.79 -976.721,719.79 C-976.721,719.79 -998.5120000000001,705.6149999999999 -987.456,690.858 C-975.5840000000001,675.012 -974.571,661.847 -995.25,648.683z"></path></g></g><g transform="matrix(1,0,0,1,1920,207)" opacity="1" style="-webkit-user-select: none;"><g opacity="1" transform="matrix(1,0,0,1,0,0)"><path fill="rgb(255,173,29)" fill-opacity="1" d="M0 0 M-991.661,633.333 C-991.661,633.333 -1019.621,662.477 -998.417,684.98 C-978.9,705.693 -961.109,692.098 -961.109,692.098 C-961.109,692.098 -983.101,684.015 -976.348,668.829 C-969.096,652.5219999999999 -970.848,640.75 -991.661,633.333z"></path></g></g><g transform="matrix(1,0,0,1,1920,207)" opacity="1" style="-webkit-user-select: none;"><g opacity="1" transform="matrix(1,0,0,1,0,0)"><path fill="rgb(255,173,29)" fill-opacity="1" d="M0 0 M-1021.221,613.466 C-1021.221,613.466 -1000.9100000000001,606.159 -989.292,617.338 C-977.674,628.5169999999999 -971.5899999999999,646.393 -972.478,653.417 C-972.9939999999999,657.5 -986.383,657.75 -1000.341,654.76 C-1023.412,649.818 -1024.295,631.926 -1024.295,631.926 C-1024.295,631.926 -1021.221,613.466 -1021.221,613.466z"></path></g></g><g transform="matrix(1,0,0,1,1920,207)" opacity="1" style="-webkit-user-select: none;"><g opacity="1" transform="matrix(1,0,0,1,0,0)"><path stroke-linecap="butt" stroke-linejoin="miter" fill-opacity="0" stroke-miterlimit="10" stroke="rgb(255,63,31)" stroke-opacity="1" stroke-width="2" d="M0 0 M-1042.057,654.997 C-1042.057,654.997 -1040.511,660.006 -1040.511,660.006 C-1040.511,660.006 -1035.582,657.656 -1035.582,657.656"></path></g></g><g transform="matrix(1,0,0,1,1920,207)" opacity="1" style="-webkit-user-select: none;"><g opacity="1" transform="matrix(1,0,0,1,0,0)"><path fill="rgb(0,129,150)" fill-opacity="1" d="M0 0 M-995.447,826.308 C-997.468,848.298 -1016.933,864.487 -1038.923,862.466 C-1060.913,860.445 -1077.1019999999999,840.981 -1075.081,818.991 C-1073.06,797.001 -1053.595,780.812 -1031.605,782.833 C-1009.615,784.8539999999999 -993.426,804.318 -995.447,826.308z"></path></g></g><g transform="matrix(1,0,0,1,1920,207)" opacity="1" style="-webkit-user-select: none;"><g opacity="1" transform="matrix(1,0,0,1,0,0)"><path fill="rgb(0,129,150)" fill-opacity="1" d="M0 0 M-1007.798,766.084 C-1007.798,766.084 -997.8,808.654 -997.8,808.654 C-997.8,808.654 -1071.237,805.187 -1071.237,805.187 C-1071.237,805.187 -1049.569,766.084 -1049.569,766.084"></path></g></g><g transform="matrix(1,0,0,1,1920,207)" opacity="1" style="-webkit-user-select: none;"><g opacity="1" transform="matrix(1,0,0,1,0,0)"><path fill="rgb(167,226,147)" fill-opacity="1" d="M0 0 M-1010.866,721.859 C-1011.891,720.379 -1014.802,719.169 -1018.263,718.404 C-1018.263,718.404 -1018.29,718.73 -1018.29,718.73 C-1018.29,718.73 -1027.335,737.311 -1027.335,737.311 C-1027.335,737.311 -1028.242,718.021 -1028.242,718.021 C-1028.242,718.021 -1028.205,717.573 -1028.205,717.573 C-1031.1399999999999,717.763 -1033.5600000000002,718.4250000000001 -1034.574,719.681 C-1037.815,723.695 -1035.7150000000001,727.056 -1040.102,733.75 C-1044.106,739.858 -1051.315,745.064 -1052.765,750.288 C-1055.804,761.237 -1049.569,766.084 -1049.569,766.084 C-1049.569,766.084 -1006.598,769.45 -1006.598,769.45 C-1006.598,769.45 -1008,726 -1010.866,721.859z"></path></g></g><g transform="matrix(0.2924,-0.9563,0.9563,0.2924,503.5763,-246.3507)" opacity="1" style="-webkit-user-select: none;"><g opacity="1" transform="matrix(1,0,0,1,0,0)"><path stroke-linecap="butt" stroke-linejoin="miter" fill-opacity="0" stroke-miterlimit="10" stroke="rgb(255,201,153)" stroke-opacity="1" stroke-width="9" d="M0 0 M-1014.546,730.418 C-1014.546,730.418 -1023.9750000000001,734.896 -1037.419,739.053 C-1057.63,745.302 -1077.6490000000001,751.6659999999999 -1098.054,755.766 C-1138.5880000000002,763.91 -1151.539,762.831 -1164.844,764.283"></path></g></g><g transform="matrix(0.309,-0.9511,0.9511,0.309,524.2972,-253.1842)" opacity="1" style="-webkit-user-select: none;"><g opacity="1" transform="matrix(1,0,0,1,0,0)"><path stroke-linecap="butt" stroke-linejoin="miter" fill-opacity="0" stroke-miterlimit="10" stroke="rgb(129,193,103)" stroke-opacity="1" stroke-width="10" d="M0 0 M-1014.546,730.418 C-1014.546,730.418 -1023.8400000000001,735.361 -1037.419,739.053"></path></g></g><g transform="matrix(0.3256,-0.9455,0.9455,0.3256,545.1341,-259.6549)" opacity="1" style="-webkit-user-select: none;"><g opacity="1" transform="matrix(1,0,0,1,0,0)"><path fill="rgb(129,193,103)" fill-opacity="1" d="M0 0 M-1019.618,730.359 C-1019.618,727.558 -1017.3470000000001,725.287 -1014.546,725.287 C-1011.745,725.287 -1009.474,727.558 -1009.474,730.359 C-1009.474,733.1600000000001 -1011.745,735.431 -1014.546,735.431 C-1017.3470000000001,735.431 -1019.618,733.1600000000001 -1019.618,730.359z"></path></g></g><g transform="matrix(1,0,0,1,1920,207)" opacity="1" style="-webkit-user-select: none;"><g opacity="1" transform="matrix(1,0,0,1,0,0)"><path fill="rgb(163,12,56)" fill-opacity="1" d="M0 0 M-1026.321,-71.576 C-1026.321,-71.576 -898.003,-71.576 -898.003,-71.576 C-894.88,-71.576 -892.324,-74.13199999999999 -892.324,-77.255 C-892.324,-77.255 -892.324,-77.255 -892.324,-77.255 C-892.324,-80.378 -894.88,-82.933 -898.003,-82.933 C-898.003,-82.933 -1026.321,-82.933 -1026.321,-82.933 C-1029.444,-82.933 -1032,-80.378 -1032,-77.255 C-1032,-77.255 -1032,-77.255 -1032,-77.255 C-1032,-74.13199999999999 -1029.444,-71.576 -1026.321,-71.576z"></path></g></g><g transform="matrix(1,0,0,1,1920,207)" opacity="1" style="-webkit-user-select: none;"><g opacity="1" transform="matrix(1,0,0,1,0,0)"><path fill="rgb(187,226,23)" fill-opacity="1" d="M0 0 M-968.482,-21.863 C-968.482,-21.863 -1014.477,-42.78 -1014.477,-42.78 C-1014.477,-42.78 -1010.932,-74.86 -1010.932,-74.86 C-1010.932,-74.86 -1010.932,-74.86 -1010.932,-74.86 C-1010.932,-74.86 -968.482,-21.863 -968.482,-21.863z"></path></g></g><g transform="matrix(1,0,0,1,1920,207)" opacity="1" style="-webkit-user-select: none;"><g opacity="1" transform="matrix(1,0,0,1,0,0)"><path fill="rgb(179,206,17)" fill-opacity="1" d="M0 0 M-968.482,-21.863 C-968.482,-21.863 -1010.932,-74.86 -1010.932,-74.86 C-1010.932,-74.86 -1010.932,-74.86 -1010.932,-74.86 C-1010.932,-74.86 -978.852,-71.315 -978.852,-71.315 C-978.852,-71.315 -968.482,-21.863 -968.482,-21.863z"></path></g></g><g transform="matrix(1,0,0,1,1920,207)" opacity="1" style="-webkit-user-select: none;"><g opacity="1" transform="matrix(1,0,0,1,0,0)"><path fill="rgb(187,226,23)" fill-opacity="1" d="M0 0 M-1052.838,-37.607 C-1052.838,-37.607 -1047.978,-74.934 -1047.978,-74.934 C-1047.978,-74.934 -1024.355,-79.411 -1024.355,-79.411 C-1024.355,-79.411 -1024.355,-79.411 -1024.355,-79.411 C-1024.355,-79.411 -1052.838,-37.607 -1052.838,-37.607z"></path></g><g opacity="1" transform="matrix(1,0,0,1,0,0)"><path fill="rgb(179,206,17)" fill-opacity="1" d="M0 0 M-1052.838,-37.607 C-1052.838,-37.607 -1024.355,-79.411 -1024.355,-79.411 C-1024.355,-79.411 -1024.355,-79.411 -1024.355,-79.411 C-1024.355,-79.411 -1019.878,-55.788 -1019.878,-55.788 C-1019.878,-55.788 -1052.838,-37.607 -1052.838,-37.607z"></path></g></g><g transform="matrix(1,0,0,1,1920,207)" opacity="1" style="-webkit-user-select: none;"><g opacity="1" transform="matrix(1,0,0,1,0,0)"><path stroke-linecap="butt" stroke-linejoin="miter" fill-opacity="0" stroke-miterlimit="10" stroke="rgb(244,213,83)" stroke-opacity="1" stroke-width="3" d="M0 0 M-993.291,-105.475 C-993.291,-105.475 -993.291,-82.933 -993.291,-82.933"></path></g></g><g transform="matrix(1,0,0,1,1920,207)" opacity="1" style="-webkit-user-select: none;"><g opacity="1" transform="matrix(1,0,0,1,0,0)"><path stroke-linecap="butt" stroke-linejoin="miter" fill-opacity="0" stroke-miterlimit="10" stroke="rgb(244,213,83)" stroke-opacity="1" stroke-width="3" d="M0 0 M-979.958,-105.475 C-979.958,-105.475 -979.958,-82.933 -979.958,-82.933"></path></g></g><g transform="matrix(1,0,0,1,1920,207)" opacity="1" style="-webkit-user-select: none;"><g opacity="1" transform="matrix(1,0,0,1,0,0)"><path fill="rgb(44,39,63)" fill-opacity="1" d="M0 0 M-962.162,-127.556 C-962.162,-114.07 -973.095,-103.138 -986.581,-103.138 C-1000.067,-103.138 -1011,-114.07 -1011,-127.556 C-1011,-141.042 -1000.067,-151.975 -986.581,-151.975 C-973.095,-151.975 -962.162,-141.042 -962.162,-127.556z"></path></g></g><g transform="matrix(1,0,0,1,1920,207)" opacity="1" style="-webkit-user-select: none;"><g opacity="1" transform="matrix(1,0,0,1,0,0)"><path fill="rgb(65,61,99)" fill-opacity="1" d="M0 0 M-986.581,-126.91 C-986.581,-126.91 -987.196,-114.23599999999999 -976.149,-105.475 C-965.102,-96.714 -951.027,-103.138 -951.027,-103.138 C-951.027,-103.138 -969.036,-132.082 -969.036,-132.082 C-969.036,-132.082 -986.581,-126.91 -986.581,-126.91z"></path></g></g><g transform="matrix(1,0,0,1,1920,207)" opacity="0" style="-webkit-user-select: none; display: block;"><g opacity="1" transform="matrix(1,0,0,1,0,0)"><path fill="rgb(65,61,99)" fill-opacity="1" d="M0 0 M-986.581,-126.91 C-986.581,-126.91 -987.196,-114.23599999999999 -976.149,-105.475 C-965.102,-96.714 -951.027,-103.138 -951.027,-103.138 C-951.027,-103.138 -960.899,-119.004 -960.899,-119.004 C-960.899,-119.004 -969.036,-132.082 -969.036,-132.082 C-969.036,-132.082 -986.581,-126.91 -986.581,-126.91z" style="display: block;"></path></g></g><g transform="matrix(1,0,0,1,1920,207)" opacity="1" style="-webkit-user-select: none;"><g opacity="1" transform="matrix(1,0,0,1,0,0)"><path fill="rgb(244,213,83)" fill-opacity="1" d="M0 0 M-1004.752,-136.174 C-1004.752,-136.174 -1028,-126.453 -1028,-126.453 C-1028,-126.453 -1012.6339999999999,-116.354 -1004.752,-119.573 C-999.9399999999999,-121.538 -996.39,-127.052 -1004.752,-136.174z"></path></g><g opacity="1" transform="matrix(1,0,0,1,0,0)"><path stroke-linecap="butt" stroke-linejoin="miter" fill-opacity="0" stroke-miterlimit="10" stroke="rgb(216,118,63)" stroke-opacity="1" stroke-width="1.752" d="M0 0 M-1006.536,-132.051 C-1006.536,-132.051 -1011.574,-129.861 -1011.574,-129.861"></path></g></g><g transform="matrix(1,0,0,1,928.5,69.5)" opacity="1" style="-webkit-user-select: none;"><path fill="rgb(255,255,255)" fill-opacity="1" d="M0 0 M5,0 C5,0 5,0 5,0 C5,2.7594999999999996 2.7594999999999996,5 0,5 C0,5 0,5 0,5 C-2.7594999999999996,5 -5,2.7594999999999996 -5,0 C-5,0 -5,0 -5,0 C-5,-2.7594999999999996 -2.7594999999999996,-5 0,-5 C0,-5 0,-5 0,-5 C2.7594999999999996,-5 5,-2.7594999999999996 5,0z"></path></g><g></g></g></svg>