<svg xmlns="http://www.w3.org/2000/svg" viewBox="0 0 510 444" width="510" height="444" preserveAspectRatio="xMidYMid meet" style="width: 100%; height: 100%;"><defs><clipPath id="animationMask_OrKfKsRTMv"><rect width="510" height="444" x="0" y="0"></rect></clipPath></defs><g clip-path="url(#animationMask_OrKfKsRTMv)"><g transform="matrix(1,0,0,1,408,-632)" opacity="1" style="-webkit-user-select: none;"><g opacity="1" transform="matrix(1,0,0,1,0,0)"><path fill="rgb(122,88,88)" fill-opacity="1" d="M0 0 M-285.119,1077.845 C-285.119,1004.738 -225.854,945.472 -152.747,945.472 C-79.64000000000001,945.472 -20.375,1004.738 -20.375,1077.845"></path></g></g><g transform="matrix(1,0,0,1,408,-632)" opacity="1" style="-webkit-user-select: none;"><g opacity="1" transform="matrix(1,0,0,1,0,0)"><path fill="rgb(66,70,73)" fill-opacity="1" d="M0 0 M-160.079,995 C-139.98700000000002,993.749 -102.074,998.577 -80.871,993 C-76.795,991.928 -68.83500000000001,980.865 -67.652,976.455 C-90.659,957.125 -120.33499999999998,945.475 -152.736,945.472 C-152.73999999999998,945.472 -152.74300000000002,945.472 -152.747,945.472 C-152.75,945.472 -152.75300000000001,945.472 -152.756,945.472 C-207.79,945.476 -254.97299999999998,979.0670000000001 -274.938,1026.862 C-245.63899999999998,1011.0930000000001 -192.375,997.011 -160.079,995z"></path></g></g><g transform="matrix(0.9995,0.0303,-0.0303,0.9995,442.1865,-627.7249)" opacity="1" style="-webkit-user-select: none;"><g opacity="1" transform="matrix(1,0,0,1,0,0)"><path stroke-linecap="round" stroke-linejoin="round" fill-opacity="0" stroke="rgb(206,144,97)" stroke-opacity="1" stroke-width="11.692" d="M0 0 M-284.57,925.099 C-282.825,932.7220000000001 -271.711,930.399 -271.711,930.399 C-194.55100000000002,920.42 -192.11399999999998,846.6410000000001 -186.069,836.546 C-180.024,826.451 -173.181,830.273 -173.181,830.273"></path></g></g><g transform="matrix(0.9981,0.061,-0.061,0.9981,467.237,-620.841)" opacity="1" style="-webkit-user-select: none;"><g opacity="1" transform="matrix(1,0,0,1,0,0)"><path fill="rgb(88,122,61)" fill-opacity="1" d="M0 0 M-119.576,887.104 C-119.576,887.104 -124.05199999999999,869.992 -152.909,869.992 C-181.766,869.992 -186.681,887.104 -186.681,887.104 C-186.681,887.104 -193.252,967.952 -193.252,967.952 C-193.252,967.952 -180.392,976.141 -153.128,976.141 C-125.86399999999999,976.141 -113.005,967.952 -113.005,967.952 C-113.005,967.952 -119.576,887.104 -119.576,887.104z"></path></g></g><g transform="matrix(0.9981,0.061,-0.061,0.9981,467.237,-620.841)" opacity="1" style="-webkit-user-select: none;"><g opacity="1" transform="matrix(1,0,0,1,0,0)"><path fill="rgb(40,31,68)" fill-opacity="1" d="M0 0 M-193.252,967.952 C-193.252,967.952 -180.392,976.141 -153.128,976.141 C-125.86399999999999,976.141 -113.005,967.952 -113.005,967.952 C-113.005,967.952 -115.79,933.688 -115.79,933.688 C-115.79,933.688 -133.453,930.178 -153.317,930.178 C-173.181,930.178 -190.467,933.688 -190.467,933.688 C-190.467,933.688 -193.252,967.952 -193.252,967.952z"></path></g></g><g transform="matrix(0.9998,0.0175,-0.0175,0.9998,425.9664,-628.4008)" opacity="1" style="-webkit-user-select: none;"><g opacity="1" transform="matrix(1,0,0,1,0,0)"><path stroke-linecap="round" stroke-linejoin="miter" fill-opacity="0" stroke-miterlimit="10" stroke="rgb(197,118,64)" stroke-opacity="1" stroke-width="17.538" d="M0 0 M-129.288,952.009 C-129.288,952.009 -49.844,939.12 -49.844,939.12"></path></g></g><g transform="matrix(1,-0.0017,0.0017,1,407.6596,-633.6707)" opacity="1" style="-webkit-user-select: none;"><g opacity="1" transform="matrix(1,0,0,1,0,0)"><path stroke-linecap="round" stroke-linejoin="miter" fill-opacity="0" stroke-miterlimit="10" stroke="rgb(206,139,85)" stroke-opacity="1" stroke-width="17.538" d="M0 0 M-177.311,952.009 C-177.311,952.009 -262.66,939.12 -262.66,939.12"></path></g></g><g transform="matrix(0.9998,0.0175,-0.0175,0.9998,425.9664,-628.4008)" opacity="1" style="-webkit-user-select: none;"><g opacity="1" transform="matrix(1,0,0,1,0,0)"><path stroke-linecap="round" stroke-linejoin="miter" fill-opacity="0" stroke-miterlimit="10" stroke="rgb(206,139,85)" stroke-opacity="1" stroke-width="17.538" d="M0 0 M-49.844,939.12 C-49.844,939.12 -123.504,978.924 -227.562,978.924"></path></g></g><g transform="matrix(1,-0.0017,0.0017,1,407.6596,-633.6707)" opacity="1" style="-webkit-user-select: none;"><g opacity="1" transform="matrix(1,0,0,1,0,0)"><path stroke-linecap="round" stroke-linejoin="miter" fill-opacity="0" stroke-miterlimit="10" stroke="rgb(206,157,117)" stroke-opacity="1" stroke-width="17.538" d="M0 0 M-262.66,939.12 C-262.66,939.12 -189,978.924 -84.942,978.924"></path></g></g><g transform="matrix(0.9999,0.0122,-0.0122,0.9999,426.7396,-628.4451)" opacity="1" style="-webkit-user-select: none;"><g opacity="1" transform="matrix(1,0,0,1,0,0)"><path stroke-linecap="round" stroke-linejoin="round" fill-opacity="0" stroke="rgb(206,144,97)" stroke-opacity="1" stroke-width="11.692" d="M0 0 M-39.696,921.095 C-41.440999999999995,928.7180000000001 -52.556,926.394 -52.556,926.394 C-129.716,916.415 -115.14999999999999,846.6410000000001 -121.195,836.546 C-127.24,826.451 -134.083,830.273 -134.083,830.273"></path></g></g><g transform="matrix(0.9981,0.061,-0.061,0.9981,467.237,-620.841)" opacity="1" style="-webkit-user-select: none;"><g opacity="1" transform="matrix(1,0,0,1,0,0)"><path fill="rgb(88,122,61)" fill-opacity="1" d="M0 0 M-175.157,821.91 C-177.36800000000002,822.904 -180.423,824.388 -180.423,824.388 C-180.423,824.388 -186.681,887.104 -186.681,887.104 C-186.681,887.104 -172.55200000000002,891.784 -153.317,891.784 C-134.082,891.784 -119.576,887.104 -119.576,887.104 C-119.576,887.104 -124.704,825.408 -124.704,825.408 C-124.704,825.408 -129.47500000000002,823.029 -131.478,822.029"></path></g></g><g transform="matrix(0.9981,0.061,-0.061,0.9981,466.9933,-618.8562)" opacity="1" style="-webkit-user-select: none;"><g opacity="1" transform="matrix(1,0,0,1,0,0)"><path fill="rgb(206,144,97)" fill-opacity="1" d="M0 0 M-131.478,822.029 C-131.478,822.029 -142.327,820.276 -153.128,820.276 C-164.273,820.276 -175.157,821.91 -175.157,821.91 C-165.05,840.631 -172.339,858.86 -153.128,858.86 C-134.048,858.86 -139.273,841.353 -131.478,822.029z"></path></g></g><g transform="matrix(0.9845,0.1754,-0.1754,0.9845,559.1072,-592.0308)" opacity="1" style="-webkit-user-select: none;"><g opacity="1" transform="matrix(1,0,0,1,0,0)"><path stroke-linecap="round" stroke-linejoin="miter" fill-opacity="0" stroke-miterlimit="10" stroke="rgb(197,118,64)" stroke-opacity="1" stroke-width="12.861" d="M0 0 M-153.128,821.446 C-153.128,821.446 -153.128,784.813 -153.128,784.813"></path></g></g><g transform="matrix(0.9999,-0.0157,0.0157,0.9999,408.2026,-633.4036)" opacity="1" style="-webkit-user-select: none;"><g opacity="1" transform="matrix(1,0,0,1,0,0)"><path fill="rgb(206,139,85)" fill-opacity="1" d="M0 0 M-114.748,763.478 C-114.748,742.281 -131.93099999999998,725.098 -153.128,725.098 C-174.325,725.098 -191.509,742.281 -191.509,763.478 C-191.509,784.675 -174.325,801.859 -153.128,801.859 C-131.93099999999998,801.859 -114.748,784.675 -114.748,763.478z"></path></g></g><g transform="matrix(0.9999,-0.0157,0.0157,0.9999,408.2026,-633.4036)" opacity="1" style="-webkit-user-select: none;"><g opacity="1" transform="matrix(1,0,0,1,0,0)"><path stroke-linecap="round" stroke-linejoin="miter" fill-opacity="0" stroke-miterlimit="10" stroke="rgb(41,34,34)" stroke-opacity="1" stroke-width="3.508" d="M0 0 M-142.817,759.089 C-142.817,759.089 -131.627,759.089 -131.627,759.089"></path></g></g><g transform="matrix(0.9999,-0.0157,0.0157,0.9999,408.2026,-633.4036)" opacity="1" style="-webkit-user-select: none;"><g opacity="1" transform="matrix(1,0,0,1,0,0)"><path stroke-linecap="round" stroke-linejoin="miter" fill-opacity="0" stroke-miterlimit="10" stroke="rgb(41,34,34)" stroke-opacity="1" stroke-width="3.508" d="M0 0 M-173.609,759.089 C-173.609,759.089 -162.419,759.089 -162.419,759.089"></path></g></g><g transform="matrix(0.9999,-0.0157,0.0157,0.9999,408.2026,-633.4036)" opacity="1" style="-webkit-user-select: none;"><g opacity="1" transform="matrix(1,0,0,1,0,0)"><path fill="rgb(64,23,8)" fill-opacity="1" d="M0 0 M-166.551,727.515 C-166.551,727.515 -150.028,756.36 -115.899,754.121 C-113.011,753.932 -106.768,737.007 -125.997,725.098 C-143.464,714.281 -162.41899999999998,712.321 -166.551,727.515z"></path></g></g><g transform="matrix(0.9999,-0.0157,0.0157,0.9999,408.2026,-633.4036)" opacity="1" style="-webkit-user-select: none;"><g opacity="1" transform="matrix(1,0,0,1,0,0)"><path fill="rgb(64,23,8)" fill-opacity="1" d="M0 0 M-93.624,759.87 C-93.624,767.991 -100.20700000000001,774.574 -108.328,774.574 C-116.449,774.574 -123.033,767.991 -123.033,759.87 C-123.033,751.749 -116.449,745.165 -108.328,745.165 C-100.20700000000001,745.165 -93.624,751.749 -93.624,759.87z"></path></g></g><g transform="matrix(0.9999,-0.0157,0.0157,0.9999,408.2026,-633.4036)" opacity="1" style="-webkit-user-select: none;"><g opacity="1" transform="matrix(1,0,0,1,0,0)"><path stroke-linecap="round" stroke-linejoin="miter" fill-opacity="0" stroke-miterlimit="10" stroke="rgb(148,14,14)" stroke-opacity="1" stroke-width="3.508" d="M0 0 M-160.079,781.693 C-160.079,781.693 -145.739,781.693 -145.739,781.693"></path></g></g><g transform="matrix(0.9999,-0.0157,0.0157,0.9999,408.2026,-633.4036)" opacity="1" style="-webkit-user-select: none;"><g opacity="1" transform="matrix(1,0,0,1,0,0)"><path fill="rgb(206,139,85)" fill-opacity="1" d="M0 0 M-195.141,775.642 C-195.141,775.642 -185.596,775.642 -185.596,775.642 C-181.427,775.642 -178.017,772.232 -178.017,768.063 C-178.017,768.063 -178.017,765.498 -178.017,765.498 C-178.017,761.3290000000001 -181.427,757.919 -185.596,757.919 C-185.596,757.919 -195.141,757.919 -195.141,757.919 C-199.31,757.919 -202.721,761.3290000000001 -202.721,765.498 C-202.721,765.498 -202.721,768.063 -202.721,768.063 C-202.721,772.232 -199.31,775.642 -195.141,775.642z"></path></g></g><g transform="matrix(0.9999,-0.0157,0.0157,0.9999,408.2026,-633.4036)" opacity="1" style="-webkit-user-select: none;"><g opacity="1" transform="matrix(1,0,0,1,0,0)"><path fill="rgb(206,196,0)" fill-opacity="1" d="M0 0 M-188.204,784.813 C-188.204,784.813 -202.721,784.813 -202.721,784.813 C-202.721,784.813 -195.462,770.296 -195.462,770.296 C-195.462,770.296 -195.462,770.296 -195.462,770.296 C-195.462,770.296 -188.204,784.813 -188.204,784.813z"></path></g></g><g transform="matrix(0.9999,-0.0157,0.0157,0.9999,408.2026,-633.4036)" opacity="1" style="-webkit-user-select: none;"><g opacity="1" transform="matrix(1,0,0,1,0,0)"><path fill="rgb(206,196,0)" fill-opacity="1" d="M0 0 M-190.369,792.968 C-190.369,795.781 -192.649,798.062 -195.462,798.062 C-198.27499999999998,798.062 -200.556,795.781 -200.556,792.968 C-200.556,790.155 -198.27499999999998,787.875 -195.462,787.875 C-192.649,787.875 -190.369,790.155 -190.369,792.968z"></path></g></g><g transform="matrix(0.9999,-0.0157,0.0157,0.9999,408.2026,-633.4036)" opacity="1" style="-webkit-user-select: none;"><g opacity="1" transform="matrix(1,0,0,1,0,0)"><path stroke-linecap="butt" stroke-linejoin="miter" fill-opacity="0" stroke-miterlimit="10" stroke="rgb(206,196,0)" stroke-opacity="1" stroke-width="1.169" d="M0 0 M-195.462,792.968 C-195.462,792.968 -195.462,766.78 -195.462,766.78"></path></g></g></g></svg>