<svg id="Layer_1" data-name="Layer 1" xmlns="http://www.w3.org/2000/svg" width="1592" height="1284"><defs><style>.cls-3{fill:#41074f}.cls-4{fill:#ccd4ed}.cls-6{fill:#00090f}.cls-7{fill:#7f0b6f}.cls-10{fill:#99148c}.cls-12{fill:#5a0a6b}.cls-14{fill:#8599c9}.cls-101,.cls-25,.cls-48,.cls-49,.cls-55,.cls-61,.cls-63,.cls-70,.cls-72,.cls-74,.cls-75,.cls-90,.cls-91,.cls-97{fill-opacity:0}.cls-101,.cls-25,.cls-48,.cls-49,.cls-61,.cls-63,.cls-70,.cls-72,.cls-74,.cls-75,.cls-90,.cls-91,.cls-97{stroke-miterlimit:10}.cls-17{fill:#063651}.cls-25{stroke:#113156;stroke-width:5.58px}.cls-26{fill:#313142}.cls-33{fill:#0a7954}.cls-34{fill:#1ea671}.cls-35{fill:#2eb57f}.cls-37{fill:#06c38f}.cls-39{fill:#159668}.cls-41{fill:#045a3e}.cls-42{fill:#08ae61}.cls-43{fill:#046f4d}.cls-46{fill:#7f0b7a}.cls-48{stroke:#ffabab}.cls-101,.cls-48,.cls-55,.cls-70,.cls-72,.cls-74{stroke-linecap:round}.cls-48{stroke-width:15px}.cls-49{stroke:#c3a7d8;stroke-width:16px}.cls-50{fill:#e6d5ef}.cls-52{fill:#ffabab}.cls-53{fill:#3d2538}.cls-54{fill:#fff}.cls-55{stroke:#dc4c49;stroke-width:2px}.cls-61{stroke:#f9f993;stroke-width:1.58px}.cls-63,.cls-90,.cls-91{stroke-width:17px}.cls-63{stroke:#fff5f5}.cls-67{fill:#efefef}.cls-68{fill:#266e8e}.cls-70{stroke:#a85038;stroke-width:4.25px}.cls-72,.cls-75{stroke:#f99}.cls-72,.cls-74{stroke-width:20.56px}.cls-74{stroke:#f28181}.cls-75{stroke-width:14.55px}.cls-78{fill:#bc4b31}.cls-80{fill:#d36442}.cls-85{fill:#8066b5}.cls-87{fill:#31354c}.cls-90{stroke:#31717c}.cls-91{stroke:#fff4f4}.cls-97{stroke-width:14px;stroke:#f38f8f}.cls-99{fill:#101751}.cls-101{stroke:#31354c;stroke-width:4px}</style></defs><title>fallback-scene3_3</title><path fill="none" d="M0 0h1592v1284H0z"/><path d="M1604-70H-11v1359.8h1615z" fill="#010a1d"/><path class="cls-3" d="M1014.3 652.2v-12.8h122.5v12.8z"/><path class="cls-4" d="M1107.4 676.6H333.2a29.4 29.4 0 0 1-29.3-29.4v-57.1a29.4 29.4 0 0 1 29.3-29.4h774.2a29.4 29.4 0 0 1 29.4 29.4v57.1a29.4 29.4 0 0 1-29.4 29.4z"/><path d="M839.2 1258.2H474.4a50.1 50.1 0 0 1-50-50v-117.4a50.1 50.1 0 0 1 50-50h364.8a50.1 50.1 0 0 1 50 50v117.4a50.1 50.1 0 0 1-50 50z" fill="#66065d"/><path class="cls-6" d="M440.1 1283.9h-30.5v-30.5H440zM904 1283.9h-30.5v-30.5H904z"/><path class="cls-7" d="M604.5 1184.4h-130a50.1 50.1 0 0 1-50-50v-49.5a50.1 50.1 0 0 1 50-50h130a50.1 50.1 0 0 1 50 50v49.5a50.1 50.1 0 0 1-50 50zM839.2 1184.4h-130a50.1 50.1 0 0 1-50-50v-49.5a50.1 50.1 0 0 1 50-50h130a50.1 50.1 0 0 1 50 50v49.5a50.1 50.1 0 0 1-50 50z"/><path d="M888.8 1106.5l-90.5 72.6 90.9 36z" fill="#600557" opacity=".6"/><path class="cls-10" d="M422.3 1229.6v-15a35.6 35.6 0 0 1 35.5-35.5h395.8a35.6 35.6 0 0 1 35.6 35.6v14.9a35.6 35.6 0 0 1-35.6 35.5H457.8a35.6 35.6 0 0 1-35.5-35.5z"/><path class="cls-10" d="M374.4 1265.1H372a50.1 50.1 0 0 1-50-50V1132a50.1 50.1 0 0 1 50-50h2.5a50.1 50.1 0 0 1 50 50v83.2a50.1 50.1 0 0 1-50 50zM941.7 1265.1h-2.5a50.1 50.1 0 0 1-50-50V1132a50.1 50.1 0 0 1 50-50h2.5a50.1 50.1 0 0 1 50 50v83.2a50.1 50.1 0 0 1-50 50z"/><path d="M1136.8 619.5v84.8H278.4v-84.8z" fill="#460556"/><path class="cls-10" d="M940.4 1199.8H373.2v65.3h567.2z"/><path class="cls-4" d="M300.4 472.6c-13.1 12.6-6.6 90 76.7 88 0 0 45.2 4.2 51.8-6.8C437 540 420.7 532 399 525c-54.8-17.7-70.6-79.4-98.6-52.4z"/><path class="cls-12" d="M301.4 1283.9h-25.5V498h25.5z"/><path d="M752.8 770H488.5a27.9 27.9 0 0 1-27.9-27.8V560.4a27.9 27.9 0 0 1 27.8-27.8h264.4a27.9 27.9 0 0 1 27.8 27.8v181.8a27.9 27.9 0 0 1-27.8 27.9z" fill="#b197d3"/><path class="cls-14" d="M876 619.8s-6-50.8 27.3-61.3l-24-4.3-19.8 17.9-1.7 47.1zM969 560.7h15.5s8.5 17.7-5 58.5l-21.2.7z"/><path class="cls-3" d="M1014.3 1152.5v-12.8h122.5v12.8zM1014.3 1052.4v-12.7h122.5v12.7zM1014.3 1252.5v-12.7h122.5v12.8zM1014.3 952.4v-12.8h122.5v12.8zM1014.3 852.3v-12.8h122.5v12.8zM1014.3 752.2v-12.7h122.5v12.7z"/><path class="cls-12" d="M1162.3 1283.9h-25.5V498h25.5zM1034.3 1283.9h-25.5V619.4h25.5z"/><path d="M1425.5 1283.9v-548a50.1 50.1 0 0 0-50-50h-28a50.1 50.1 0 0 0-50 50" stroke-miterlimit="10" stroke="#273f66" stroke-width="12" fill-opacity="0"/><path d="M1378.5 1293.2h94a9.8 9.8 0 0 0 9.7-9.7 9.8 9.8 0 0 0-9.8-9.7h-93.9a9.8 9.8 0 0 0-9.7 9.7 9.8 9.8 0 0 0 9.7 9.7z" fill="#0a3f5d"/><path class="cls-17" d="M1282.4 721.3a14.9 14.9 0 1 0 15-14.9 14.9 14.9 0 0 0-15 14.9z"/><path d="M1193.4 738.7a74 74 0 0 1 122.7 82.8l-63.1-45z" fill="#093d5a"/><path d="M1247.6 791.2c33.9 22.7 64.7 36.1 68.8 30s-20-29.6-53.8-52.3-64.7-36.2-68.8-30 20 29.5 53.8 52.3z" fill="#14141e"/><path d="M-1 379h72.6v62.4H-.9z" fill="#0c512f"/><path d="M4.3 358.3H63v83.1H4.3z" fill="#b1baba"/><path d="M12 379l11.3 1 36 55.2-3.7 13.6H-4v-75.6h8.3z" fill="#0e4563" opacity=".6"/><path d="M.3 369.9l15.5-1.7 7.8 71.5-15.5 1.7z" fill="#963b6f"/><path class="cls-25" d="M51.3 456L.4 534.9"/><path class="cls-26" d="M84.5 456H-7.2v-14.6h91.7z"/><path d="M72.2 432l-13.8 9.2-42.1-62.8 13.8-9.2z" fill="#a2a519"/><path d="M-1 668.6h56.4v62.5H-.9z" fill="#0c494f"/><path d="M-1.3 731v-69.4H49v69.5z" fill="#b272a3"/><path class="cls-25" d="M51.3 745.7L.4 824.4"/><path class="cls-26" d="M84.5 745.7H-7.2v-14.6h91.7z"/><path d="M62.4 722a8.3 8.3 0 1 0 8.3-8.3 8.3 8.3 0 0 0-8.3 8.3z" fill="#8e2859"/><path d="M738.3 247V-3" stroke-width="6" stroke="#113156" stroke-miterlimit="10" fill-opacity="0"/><path d="M865.5 217A127.2 127.2 0 1 1 738.3 89.6a127.2 127.2 0 0 1 127.2 127.2z" fill="#363c49"/><path class="cls-33" d="M251 1139.2s-17.2 30.3 28.2 49.2c0 0 15.4-30.4-28.3-49.2z"/><path class="cls-34" d="M226 1104s19.3-17.4 39-6.3 25.6 35.2 43.9 34.8c0 0-37.9 24-57.7 10.2s-9.3-31.7-25.1-38.8zM210.4 999.4s14.9-13.4 30.2-4.8 25.7 22.4 39.9 22c0 0-35.3 23.5-50.7 12.8s-7.1-24.5-19.4-30z"/><path class="cls-33" d="M202.6 1107.7s14.8-13.5 30.1-4.8 19.8 27.2 34 27c0 0-29.4 18.5-44.7 7.8s-7.2-24.5-19.4-30z"/><path class="cls-34" d="M233.7 1133.2s-32.6 36.7 24.4 76.2c0 0 30.2-37.3-24.4-76.2zM215.2 1019s19.2-17.4 39-6.2 32.7 33.1 40 49.2c0 0-34 9.6-53.9-4.2s-9.2-31.7-25-38.8z"/><path class="cls-17" d="M242.9 1283.9h-118l-10-124h138z"/><path class="cls-34" d="M222.8 1112.5s28.5-7.8 34.6 33.5c0 0-28.2 6.3-34.6-33.5z"/><path class="cls-33" d="M210.7 1079.7s-32.7 36.7 24.3 76.2c0 0 30.2-37.3-24.3-76.2z"/><path class="cls-35" d="M207.6 1049.7s27.6-17.4 49.7.8 24 49.2 46.9 52.7c0 0-52.3 21.6-74 .1s-4.5-41.3-22.6-53.6z"/><path class="cls-34" d="M188.6 953.1s19.2-17.3 39-6.2 25.5 35.2 43.8 34.8c0 0-37.8 24-57.7 10.2s-9.2-31.7-25-38.8z"/><path class="cls-35" d="M207.7 961s19.2-17.3 39-6.2 25.5 35.2 43.8 34.8c0 0-37.9 24-57.7 10.2s-9.3-31.6-25.1-38.8z"/><path d="M178.8 983s-7.5 42.3 53 45.5c0 0 5.4-41.5-53-45.4z" fill="#28a60a"/><path class="cls-37" d="M232.5 996.3s-17.1 30.3 28.3 49.2c0 0 15.3-30.4-28.3-49.2z"/><path d="M182.8 924.3s37.2 3.2 44.8 30.8-13.5 52.7 3.2 68.7c0 0-41.3-10.3-46.6-40.2s6.3-38.7-1.4-59.3z" fill="#26b179"/><path class="cls-39" d="M228.2 979.5s-28 16.6-22 44.6 32.7 43.9 25.3 65.8c0 0 43.1-36.6 34-65.6s-34.7-23-37.3-44.8z"/><path d="M205.3 1021.7s25.1 20.8 14.7 47.5-39.3 38.1-35.5 60.9c0 0-36.8-43-23.1-70.2s37.9-17.2 44-38.2z" fill="#26900d"/><path class="cls-41" d="M146 1139s-28.5-15.9-49.6 3.4-21.5 50.5-44 55.1c0 0 53.2 18.8 73.7-3.7s2.4-41.5 19.9-54.7z"/><path class="cls-33" d="M218 1119.5s-31.7 8-33.8 36.6 19.2 51.3 6 70.2c0 0 51.6-23 51-53.4s-26.9-31.8-23.3-53.5z"/><path class="cls-37" d="M191.7 1052.9s-15.1-21-36.8-14.3-32.3 29.1-50.1 24.8c0 0 32 31.5 54.3 22.2s15.6-29 32.6-32.7z"/><path class="cls-41" d="M159.2 1126.4s19.3-5.3 29.2 9.2 5.4 33.3 18.2 39.3c0 0-34.5 3.5-43.5-13s4.7-25-3.9-35.5z"/><path class="cls-33" d="M157.2 1136.1s-29.6-1-26 40.6c0 0 29-.3 26-40.6z"/><path class="cls-33" d="M153.8 1137.5s-37.8-17.3-57.7 30.2c0 0 37.6 15.4 57.7-30.2z"/><path class="cls-42" d="M166.9 1076.8s-24.6-16.6-43.5 20.7c0 0 24.7 15 43.5-20.8z"/><path class="cls-37" d="M218.5 1123.7s-25.6-34.4-69.5 7.5c0 0 26.6 32.3 69.5-7.5z"/><path class="cls-41" d="M180.2 1128.2s-7.4 42.3 53 45.5c0 0 5.4-41.5-53-45.5z"/><path class="cls-43" d="M176.1 1073.5s29.3 14.5 25.3 42.9-29.5 46.2-20.6 67.4c0 0-45.6-33.3-38.6-63s32.9-25.4 34-47.3z"/><path class="cls-41" d="M171.4 1056.6s-15.1-21-36.8-14.2-32.3 29-50.1 24.8c0 0 32 31.4 54.3 22.1s15.6-29 32.6-32.7z"/><path class="cls-42" d="M196.9 1069s-11.7-16.3-28.5-11-25 22.5-38.9 19.2c0 0 24.8 24.3 42 17.1s12.2-22.5 25.4-25.3z"/><path class="cls-33" d="M232 1092.7s-17.7-9.3-30.4 2.9-12.3 31.3-26 34.5c0 0 33 10.7 45.2-3.5s.7-25.5 11.3-34zM211.9 1037.8s27.5-11 38.2 29.3c0 0-27.3 9.5-38.2-29.3z"/><path class="cls-34" d="M174.6 1077.6s32.4-28.3 66.4 21.8c0 0-32.8 26.1-66.4-21.8z"/><path class="cls-41" d="M195 1084.2s-1.6 43-61.4 33.3c0 0 3.5-41.7 61.4-33.3z"/><path class="cls-41" d="M139.7 1085.9s10.4 33.2-38 42.1c0 0-8.6-32.9 38-42.1z"/><path class="cls-33" d="M174.9 1102.9s-7 48.6-74 30.4c0 0 9.1-47 74-30.4z"/><path class="cls-41" d="M223.4 1016.2s-32.6 1.8-40.1 29.5 9 54-7.7 70c0 0 55.1-12.6 60.3-42.6s-20.2-36.4-12.5-57z"/><path class="cls-41" d="M190.9 1013.6s-32.6 1.9-40 29.5 8.9 54-7.8 70.1c0 0 55.2-12.7 60.4-42.7s-20.3-36.3-12.6-56.9z"/><path class="cls-43" d="M149 1012.7s29.2 14.5 25.3 42.9-29.6 46.1-20.6 67.4c0 0-45.7-33.3-38.7-63s33-25.4 34-47.3z"/><path class="cls-41" d="M144.3 995.8s-15.1-21-36.8-14.2-32.3 29-50.1 24.8c0 0 32 31.4 54.2 22s15.7-29 32.7-32.6z"/><path class="cls-34" d="M180.1 923.8s-.5-20-17.3-25.2-33.4 4.4-42.9-6c0 0 6.7 34 25 37.8s22.7-11.7 35.2-6.6z"/><path class="cls-33" d="M169.8 1008.2s-11.8-16.3-28.5-11-25 22.5-38.9 19.2c0 0 24.8 24.3 42 17s12.2-22.4 25.4-25.2z"/><path class="cls-41" d="M205 1031.8s-17.8-9.3-30.5 3-12.3 31.3-26.1 34.5c0 0 33 10.7 45.2-3.5s.8-25.6 11.3-34z"/><path class="cls-34" d="M207.9 981.7s27.4-11 38.1 29.3c0 0-27.2 9.5-38.1-29.3z"/><path class="cls-41" d="M147.5 1016.8s32.4-28.3 66.4 21.8c0 0-32.8 26-66.4-21.8zM112.6 1025s10.4 33.3-38 42.1c0 0-8.6-32.8 38-42.1z"/><path class="cls-33" d="M130.7 1022.8s24.2 42.7-39.9 69.3c0 0-21.6-42.7 39.9-69.3z"/><path class="cls-41" d="M174.4 927.2s-15.1-21-36.8-14.3-32.3 29.1-50.1 24.8c0 0 32 31.5 54.2 22.1s15.7-29 32.7-32.6z"/><path class="cls-41" d="M194.4 951.9s-12-16.6-29.2-11.3-25.6 23-39.7 19.7c0 0 25.3 24.9 43 17.5s12.4-23 25.9-26z"/><path class="cls-34" d="M196.8 934.1s-12-16.6-29.2-11.3-25.6 23-39.8 19.7c0 0 25.4 24.9 43 17.5s12.5-23 26-25.9zM207.8 938.6s5-13.7 17.8-13.3 21.9 11 30.9 6c0 0-12.6 21.8-26.1 20s-12.8-13.3-22.6-12.7zM178.9 973s10.1-17.3 27.3-13.7 27 20 40.5 15.5c0 0-22.4 26.5-40.2 21s-14.2-21.3-27.6-22.8z"/><path class="cls-33" d="M140.8 983.5s19.3-5.3 29.2 9.2 5.4 33.2 18.3 39.3c0 0-34.6 3.5-43.6-13s4.6-25-3.9-35.5z"/><path class="cls-33" d="M146.2 1001.1s-32.7-17-51 31.7c0 0 32.7 15.1 51-31.7zM154.2 968.8s-17.5-24-48 4.6c0 0 18.1 22.5 48-4.6z"/><path class="cls-43" d="M192.4 978.4s-25.7-34.4-69.5 7.4c0 0 26.6 32.4 69.5-7.4z"/><path class="cls-39" d="M202.1 996.8s-3.4 49 65.9 45.3c0 0 1-47.9-65.9-45.3z"/><path class="cls-43" d="M203.7 943.4s-31.6 8-33.7 36.6 19.1 51.3 6 70.3c0 0 51.6-23 51-53.5s-27-31.8-23.3-53.4z"/><path d="M454.1 1179.1h266L691 1037.7l-11.8 4.6-15.2 6.4-43.3-9-3-2.7-12-1.5s-22.6 5.7-12.1 5.2 2.8 6.2 36.7 11.8c15 2.5-16 3.1.8 3.4l-67.1 23.8z" fill="#54044c" opacity=".5"/><path class="cls-46" d="M684.7 1179.1s-17.6 20.4-10.6 86h18.6l14.3-81.3v-4.7h-22.3M610.9 1179.1s-16 20.7 2.3 86h20v-86h-22.3"/><path d="M710.8 1032.6l61.4-19.7a28.5 28.5 0 0 0 18.4-35.8l-4.2-13.1a28.5 28.5 0 0 0-35.8-18.4l-61.4 19.7a28.5 28.5 0 0 0-18.4 35.8l4.2 13a28.5 28.5 0 0 0 35.8 18.5z" fill="#e26259"/><path class="cls-48" d="M658 916.5l14.5-13.6"/><path class="cls-49" d="M710.5 1026.9s-39.6-6.2-53.7-38.8c-16.4-37.8 1.4-72.3 1.4-72.3"/><path class="cls-50" d="M761.2 1049.4c-.6-22.8-11-38-32.5-39.4s-31.2 15.6-32.6 37.1l-9.1 96 77.8 5z"/><path d="M735.7 1019.2l-13.8 15.2-2.4-16.2 1.9-30.5 16.1 1z" fill="#f79f9f"/><path class="cls-52" d="M734.3 996.7l7-2.5A27.6 27.6 0 0 0 758 959l-7.5-21.2a27.6 27.6 0 0 0-35.2-16.8l-7 2.5a27.6 27.6 0 0 0-16.7 35.1l7.6 21.3a27.6 27.6 0 0 0 35.1 16.7z"/><path class="cls-53" d="M746.5 962.2l.2-.4a2.9 2.9 0 0 0 1.4-2.6l-1.1-2.5c-.3-.7-2.6-.8-3.3-.5a3.4 3.4 0 0 0-1.8 3.8l1 2c.3.8 3 .5 3.6.2zM724.8 971.6l.1-.4a2.8 2.8 0 0 0 1.3-2.5l-1-2.4c-.3-.7-2.5-.8-3.2-.5a3.3 3.3 0 0 0-1.7 3.7l1 2c.2.6 2.8.3 3.5.1z"/><path class="cls-54" d="M725.9 964l-9-2.3"/><path class="cls-55" d="M725.9 964l-9-2.3"/><path class="cls-54" d="M748 948.5l-6.6 6.6"/><path class="cls-55" d="M748 948.5l-6.6 6.6"/><path d="M718.8 920.2a27.6 27.6 0 0 1 31.7 17.7l2.5 7c-18.8 8.6-32.8-22.3-34.2-24.7z" fill="#ea5e5e"/><path d="M708.4 923.6l7-2.5a27.3 27.3 0 0 1 14-1.1c11.3 13.5 7 40.9-30 43-2.2.1-4 1.3-5.8 1.3l-2-5.6a27.6 27.6 0 0 1 16.8-35z" fill="#f46a67"/><g fill-opacity="0"><path d="M737 981.8c0-3.8 2.2-4.4 4.1-5.3 2.6-1 3.6.1 5.4 2.1" stroke="#f24c4c" stroke-width="2" stroke-linecap="round" stroke-miterlimit="10"/><path d="M740.7 974.4a3.6 3.6 0 1 0 5 1.3 3.6 3.6 0 0 0-5-1.3z" fill="#3c2437"/></g><path d="M744.2 1179.7l-59.5-1.1 2.6-40.4 77.5 10-.4 22.3c-2 9.3-10 10-20.2 9.2z" fill="#09273f"/><path class="cls-61" d="M691.3 985.8a7 7 0 1 0 1.5-9.9 7 7 0 0 0-1.5 9.9z"/><path class="cls-52" d="M701.3 979.4l.5-.2a8.3 8.3 0 0 0 5-10.6 8.3 8.3 0 0 0-10.6-5.1l-.5.2a8.3 8.3 0 0 0-5 10.6 8.3 8.3 0 0 0 10.6 5z"/><path class="cls-61" d="M691.3 985.8a7 7 0 1 0 6.1-11.2"/><path d="M688.8 1171.8s-42.9-21.5-57 12.6c-6 14.7-1.9 47.7 2.4 71.6" stroke-width="17" stroke="#09273f" stroke-miterlimit="10" fill-opacity="0"/><path class="cls-63" d="M634.2 1256c2.9 15.8 5.8 27.7 5.8 27.7"/><path d="M729 1170.8s-12.9-19.8-22 13c-4.4 16-7.5 50.5-9.3 74.4" stroke="#113a56" stroke-width="17" stroke-miterlimit="10" fill-opacity="0"/><path d="M736.8 1168.8a8.3 8.3 0 1 1-8.3-8.4 8.3 8.3 0 0 1 8.3 8.4z" fill="#113a56"/><path class="cls-63" d="M697.7 1258.2l-1.6 25.5"/><path d="M610.9 1081a29.5 29.5 0 1 1-34-24.1 29.5 29.5 0 0 1 34 24.1z" fill="#f99"/><path class="cls-67" d="M594.8 1083.5a4.9 4.9 0 1 1-5.6-4 4.9 4.9 0 0 1 5.6 4z"/><path class="cls-68" d="M593.3 1084.2a3.4 3.4 0 1 1-4-2.7 3.4 3.4 0 0 1 4 2.7z"/><path class="cls-67" d="M576.7 1086a4.9 4.9 0 1 1-5.7-4 4.9 4.9 0 0 1 5.7 4z"/><path class="cls-68" d="M576.2 1087.2a3.4 3.4 0 1 1-4-2.8 3.4 3.4 0 0 1 4 2.8z"/><path d="M579.3 1091.7l1.3 7.4-13 2.2-1.2-7.4z" fill="#ff9898"/><path class="cls-70" d="M583.7 1070.7l6.5.3M567.4 1077l6.4-1"/><path d="M575.3 1057.2l10.3-14.8s-16.6 2.8-10.3 14.8z" fill="#dd7564"/><path class="cls-50" d="M560.6 1148.5v9.6s5.6 21 14.5 21h30.5s.8-15.3.1-21.7a83.3 83.3 0 0 1 0-13.8z"/><path class="cls-72" d="M600.6 1169.2h20M563.9 1169.2h-40.6"/><path d="M621.4 1156.3l-68.4 5a10 10 0 0 1-10.7-9.3l-3-41.3a10 10 0 0 1 9.3-10.7l68.4-5a10 10 0 0 1 10.7 9.3l3 41.3a10 10 0 0 1-9.3 10.7z" fill="#080f3a"/><path class="cls-74" d="M523.3 1155.5v13.6M622 1155.5v13.6"/><path class="cls-75" d="M533.7 1118.8l12.7 7.9M634.8 1118.7l-13.1 6.1"/><path d="M828.6 929L822 920" stroke-width="7" stroke-linecap="round" stroke="#ffabab" stroke-miterlimit="10" fill-opacity="0"/><path class="cls-48" d="M827.5 934l-5.2-9.5"/><path class="cls-49" d="M749 1027.7s28 16.8 52.7-12.5c19.3-22.8 22-46.7 25.6-77"/><path d="M756.9 1029.8a7.8 7.8 0 1 1-6-9.3 7.8 7.8 0 0 1 6 9.3z" fill="#c3a7d8"/><path class="cls-78" d="M678.6 504.1h-81.2a10 10 0 0 0-10 10v3.7a10 10 0 0 0 10 10h81.2a10 10 0 0 0 9.9-10V514a10 10 0 0 0-10-9.9z"/><path class="cls-78" d="M649 532.7h75.5a3.7 3.7 0 0 0 3.7-3.8v-1.8a3.7 3.7 0 0 0-3.7-3.7H649a3.7 3.7 0 0 0-3.7 3.7v1.8a3.7 3.7 0 0 0 3.7 3.8z"/><path d="M690.3 519.9v16.3" stroke="#ef4868" stroke-width="13" stroke-linecap="round" stroke-miterlimit="10" fill-opacity="0"/><path class="cls-80" d="M729 499.7h-58.4a10 10 0 0 0-10 10v3.8a10 10 0 0 0 10 9.9H729a10 10 0 0 0 9.9-10v-3.8a10 10 0 0 0-10-9.9z"/><path d="M651 532.6a70.8 70.8 0 0 0-141.6 0z" fill="#d65d49"/><path d="M517.8 500.1s-15.8 25.4-29.4 32.5" stroke="#1b2d47" stroke-width="7" stroke-linecap="round" stroke-miterlimit="10" fill-opacity="0"/><path class="cls-80" d="M675.4 472h16.3a22 22 0 0 1 21.8 21.9v7.6a22 22 0 0 1-21.8 21.9h-16.3a22 22 0 0 1-21.9-21.9V494a22 22 0 0 1 21.9-21.9z"/><path class="cls-17" d="M747.7 505.3a6.2 6.2 0 1 1-6.2-6.2 6.2 6.2 0 0 1 6.2 6.2z"/><path d="M692.8 495.5a5.8 5.8 0 0 1 11 0" stroke-width="3" stroke="#1b2d47" stroke-linecap="round" stroke-miterlimit="10" fill-opacity="0"/><path d="M664.5 521a15.8 15.8 0 0 0 15.7-15.8V495a15.8 15.8 0 0 0-15.7-15.8 15.8 15.8 0 0 0-15.8 15.8v10.1a15.8 15.8 0 0 0 15.8 15.8z" fill="#1b2d47"/><path class="cls-85" d="M517.3 540.7v54s0 9 10.2 9c8.7 0 9-9 9-9v-31.3h21a17 17 0 0 0 17-17v-10.3a16.9 16.9 0 0 0-.4-3.5h-56.7c-.2 2.3-.1 4.8-.1 8z"/><path class="cls-78" d="M563.2 512H536s-6.3 0-9.5 4.7c-4 5.8-3.4 9.3-3.4 16.8v54s0 9 10.2 9c8.7 0 9-9 9-9v-31.3h21a17 17 0 0 0 17-17v-10.3a17 17 0 0 0-17-17z"/><path class="cls-85" d="M614.1 532.6v68.9a9.5 9.5 0 0 0 19 0v-68.9z"/><path d="M630.2 518.4v75.1" stroke="#bc4b31" stroke-width="20" stroke-linecap="round" stroke-miterlimit="10" fill-opacity="0"/><path class="cls-87" d="M983 425.4a32.2 32.2 0 1 1-34.8-29.5 32.2 32.2 0 0 1 34.7 29.5z"/><path class="cls-87" d="M996.3 454.5a38.3 38.3 0 1 1-41.3-35 38.3 38.3 0 0 1 41.3 35z"/><path class="cls-87" d="M993.6 423.1a10.3 10.3 0 1 1-11.1-9.4 10.3 10.3 0 0 1 11.1 9.4z"/><path class="cls-87" d="M995.7 437.6a6.2 6.2 0 1 1-6.6-5.6 6.2 6.2 0 0 1 6.6 5.6z"/><path class="cls-87" d="M998.5 447.4a6.2 6.2 0 1 1-6.7-5.6 6.2 6.2 0 0 1 6.7 5.6z"/><path class="cls-87" d="M1001.4 458a6.2 6.2 0 1 1-6.6-5.6 6.2 6.2 0 0 1 6.6 5.6z"/><path class="cls-87" d="M1000.6 467.1a6.2 6.2 0 1 1-6.6-5.6 6.2 6.2 0 0 1 6.6 5.6z"/><path class="cls-87" d="M996.4 475.7a6.2 6.2 0 1 1-6.7-5.6 6.2 6.2 0 0 1 6.6 5.6z"/><path class="cls-87" d="M990 484.9a6.2 6.2 0 1 1-6.6-5.7 6.2 6.2 0 0 1 6.6 5.7z"/><path class="cls-87" d="M981.8 492a6.2 6.2 0 1 1-6.7-5.7 6.2 6.2 0 0 1 6.7 5.6z"/><path d="M942.6 559L882.4 547l23.9-86.6 42 1.7z" fill="#474799"/><path d="M883 561.4h62v-17.3h-62z" fill="#31717c"/><path class="cls-90" d="M933.1 552.9s25.3-3 32.6 19.2c3.7 11.3-10 41.7-15.6 71.3"/><path class="cls-91" d="M954.5 624.7c-1.7 6.2-3.2 12.5-4.4 18.7"/><path d="M957.1 472.3c11.8 4.7 26.6 14.2 15 30-11 15-25.8-11-39.5-7.5" stroke-width="14" stroke="#f49090" stroke-miterlimit="10" fill-opacity="0"/><path d="M945 468.6s27 5.6 30.8 19.5" stroke="#464698" stroke-width="16" stroke-miterlimit="10" fill-opacity="0"/><path d="M928.5 443.4l11.5 3.5-6 19.5-11.4-3.5z" fill="#e57a7a"/><path d="M970.5 433.7a31 31 0 1 0-33.6 28 31 31 0 0 0 33.6-28z" fill="#f49090"/><path d="M907 467.4s-45.4-2.4-58.4 19c-14 23.1 10.3 36.6 31.4 16.5" stroke="#474799" stroke-width="14" stroke-miterlimit="10" fill-opacity="0"/><path class="cls-97" d="M857 477.9a27.7 27.7 0 0 0-8.4 8.4C834.6 509.5 859 523 880 503"/><path d="M937.5 491.4s-12.2-6-15.6-3.3" stroke="#f49090" stroke-linecap="round" stroke-width="6" stroke-miterlimit="10" fill-opacity="0"/><path class="cls-99" d="M882.4 531.8L898 528a9 9 0 0 0 6.6-11l-11.2-45a9 9 0 0 0-11-6.6l-15.7 4a9 9 0 0 0-6.5 11l11.2 45a9 9 0 0 0 11 6.5z"/><path class="cls-90" d="M892 552.9s-25.2-2.9-32.5 19.2c-3.5 10.6-3.5 42.9-4.4 71.9"/><path class="cls-91" d="M855.6 625l-.5 19"/><path class="cls-97" d="M846.2 491.1c-8.2 20.1 14.2 30.4 33.8 11.8"/><path class="cls-99" d="M937.5 440.4a2.8 2.8 0 1 1-2.6-3 2.8 2.8 0 0 1 2.6 3zM927 438.9a2.8 2.8 0 1 1-2.5-3 2.8 2.8 0 0 1 2.6 3z"/><path class="cls-87" d="M944.3 398.6a14.4 14.4 0 1 1-13-15.6 14.4 14.4 0 0 1 13 15.6zM977 419a8.7 8.7 0 1 1-8-9.5 8.7 8.7 0 0 1 8 9.5z"/><path class="cls-87" d="M989.5 410.1a13 13 0 1 1-11.8-14.1 13 13 0 0 1 11.8 14.1z"/><path class="cls-87" d="M972.1 401.4a18.3 18.3 0 1 1-16.5-19.9 18.3 18.3 0 0 1 16.5 19.9zM927 405.7a12 12 0 1 1-11-13 12 12 0 0 1 11 13z"/><path d="M935.3 448.6h-5.4l-4.6-1" stroke="#9e5643" stroke-width="3" stroke-linecap="round" stroke-miterlimit="10" fill-opacity="0"/><path class="cls-101" d="M937.4 429.2l9.3 3.6M919.6 428.6h10"/><g opacity=".4"><path fill="#112c9d" d="M0 0h1592v1284H0z"/></g></svg>