<svg xmlns="http://www.w3.org/2000/svg" viewBox="0 0 1004 720" width="1004" height="720" preserveAspectRatio="xMidYMid meet" style="width: 100%; height: 100%;"><defs><clipPath id="animationMask_aOrq96byt6"><rect width="1004" height="720" x="0" y="0"></rect></clipPath><linearGradient id="gr_Jbnv2zT6YQ" spreadMethod="pad" gradientUnits="userSpaceOnUse" x1="-1420" y1="-406" x2="-1420" y2="-1067.839"><stop offset="0%" stop-color="rgb(209,38,112)"></stop><stop offset="50%" stop-color="rgb(184,19,114)"></stop><stop offset="100%" stop-color="rgb(158,0,116)"></stop></linearGradient><linearGradient id="gr_Kfg5xofNLh" spreadMethod="pad" gradientUnits="userSpaceOnUse" x1="-991" y1="-721" x2="-1464.429" y2="-721"><stop offset="0%" stop-color="rgb(255,255,255)"></stop><stop offset="50%" stop-color="rgb(255,255,255)"></stop><stop offset="100%" stop-color="rgb(255,255,255)"></stop></linearGradient><linearGradient id="op_pQv6p9wfZP" spreadMethod="pad" gradientUnits="userSpaceOnUse" x1="-991" y1="-721" x2="-1464.429" y2="-721"><stop stop-color="rgb(255,255,255)" offset="0%" stop-opacity="0.3"></stop><stop stop-color="rgb(255,255,255)" offset="50%" stop-opacity="0.15"></stop><stop stop-color="rgb(255,255,255)" offset="100%" stop-opacity="0"></stop></linearGradient><mask id="mk_tdpdk8WkMb"><path fill="url(#op_pQv6p9wfZP)" d="M0 0 M-974.82,-866.99 C-974.82,-866.99 -1271.303,-1080 -1271.303,-1080 C-1271.303,-1080 -1920.373,-1080 -1920.373,-1080 C-1920.373,-1080 -1920,-360.798 -1920,-360.798 C-1920,-360.798 -1324.347,-360.798 -1324.347,-360.798 C-1324.347,-360.798 -974.82,-553.397 -974.82,-553.397"></path></mask></defs><g clip-path="url(#animationMask_aOrq96byt6)"><g transform="matrix(1.0019,0,0,1.0019,1921,1080)" opacity="1" style="-webkit-user-select: none;"><g opacity="1" transform="matrix(1,0,0,1,0,0)"><path fill="url(#gr_Jbnv2zT6YQ)" fill-rule="evenodd" fill-opacity="1" d="M0 0 M-912.976,-1080.481 C-912.976,-1080.481 -1920.373,-1080 -1920.373,-1080 C-1920.373,-1080 -1920.378,-354.809 -1920.378,-354.809 C-1920.378,-354.809 -912.981,-355.29 -912.981,-355.29 C-912.981,-355.29 -912.976,-1080.481 -912.976,-1080.481z"></path></g></g><g transform="matrix(1,0,0,1,1921,1081)" opacity="1" style="-webkit-user-select: none;"><g opacity="1" transform="matrix(1,0,0,1,0,0)"><path fill="rgb(73,73,73)" fill-opacity="1" d="M0 0 M-1549,-360.798 C-1549,-360.798 -1567.871,-360.798 -1567.871,-360.798 C-1567.871,-360.798 -1567.871,-391.331 -1567.871,-391.331 C-1567.871,-391.331 -1549,-391.331 -1549,-391.331 C-1549,-391.331 -1549,-360.798 -1549,-360.798z"></path></g></g><g transform="matrix(1,0,0,1,1921,1081)" opacity="1" style="-webkit-user-select: none;"><g opacity="1" transform="matrix(1,0,0,1,0,0)"><path fill="rgb(73,73,73)" fill-opacity="1" d="M0 0 M-1689.5,-360.798 C-1689.5,-360.798 -1708.371,-360.798 -1708.371,-360.798 C-1708.371,-360.798 -1708.371,-391.331 -1708.371,-391.331 C-1708.371,-391.331 -1689.5,-391.331 -1689.5,-391.331 C-1689.5,-391.331 -1689.5,-360.798 -1689.5,-360.798z"></path></g></g><g transform="matrix(1,0,0,1,1921,1081)" opacity="1" style="-webkit-user-select: none;"><g opacity="1" transform="matrix(1,0,0,1,0,0)"><path fill="rgb(40,40,40)" fill-opacity="1" d="M0 0 M-1619.451,-360.798 C-1619.451,-360.798 -1638.322,-360.798 -1638.322,-360.798 C-1638.322,-360.798 -1638.322,-391.331 -1638.322,-391.331 C-1638.322,-391.331 -1619.451,-391.331 -1619.451,-391.331 C-1619.451,-391.331 -1619.451,-360.798 -1619.451,-360.798z"></path></g></g><g transform="matrix(1,0,0,1,1921,1081)" opacity="1" style="-webkit-user-select: none;"><g opacity="1" transform="matrix(1,0,0,1,0,0)"><path fill="rgb(206,146,13)" fill-opacity="1" d="M0 0 M-1664.499,-519.256 C-1664.499,-519.256 -1664.499,-519.256 -1664.499,-519.256 C-1678.509,-512.687 -1695.346,-518.775 -1701.915,-532.785 C-1701.915,-532.785 -1725.092,-582.214 -1725.092,-582.214 C-1731.661,-596.224 -1725.573,-613.062 -1711.563,-619.631 C-1711.563,-619.631 -1711.563,-619.631 -1711.563,-619.631 C-1697.553,-626.1999999999999 -1680.716,-620.112 -1674.147,-606.102 C-1674.147,-606.102 -1650.97,-556.672 -1650.97,-556.672 C-1644.401,-542.662 -1650.489,-525.8249999999999 -1664.499,-519.256z"></path></g></g><g transform="matrix(1,0,0,1,1921,1081)" opacity="1" style="-webkit-user-select: none;"><g opacity="1" transform="matrix(1,0,0,1,0,0)"><path fill="rgb(226,166,16)" fill-opacity="1" d="M0 0 M-1685.667,-480.333 C-1685.667,-480.333 -1714.523,-466.138 -1714.523,-466.138 C-1718.318,-464.359 -1752.538,-467.87199999999996 -1754.317,-471.667 C-1754.317,-471.667 -1755.791,-564.892 -1755.791,-564.892 C-1755.791,-570.8330000000001 -1754.5120000000002,-573.701 -1750.717,-575.48 C-1750.717,-575.48 -1732.731,-580.708 -1732.731,-580.708 C-1728.936,-582.487 -1724.375,-580.8389999999999 -1722.596,-577.044 C-1722.596,-577.044 -1682.002,-490.468 -1682.002,-490.468 C-1680.223,-486.673 -1681.8719999999998,-482.112 -1685.667,-480.333z"></path></g></g><g transform="matrix(1,0,0,1,1921,1081)" opacity="1" style="-webkit-user-select: none;"><g opacity="1" transform="matrix(1,0,0,1,0,0)"><path fill="rgb(204,118,14)" fill-opacity="1" d="M0 0 M-1485.259,-379.58 C-1485.259,-379.58 -1630.262,-379.58 -1630.262,-379.58 C-1657.762,-379.58 -1680.262,-402.08 -1680.262,-429.58 C-1680.262,-429.58 -1680.262,-512.777 -1680.262,-512.777 C-1680.262,-540.277 -1657.762,-562.777 -1630.262,-562.777 C-1630.262,-562.777 -1485.259,-562.777 -1485.259,-562.777 C-1457.759,-562.777 -1435.259,-540.277 -1435.259,-512.777 C-1435.259,-512.777 -1435.259,-429.58 -1435.259,-429.58 C-1435.259,-402.08 -1457.759,-379.58 -1485.259,-379.58z"></path></g></g><g transform="matrix(1,0,0,1,1921,1081)" opacity="1" style="-webkit-user-select: none;"><g opacity="1" transform="matrix(1,0,0,1,0,0)"><path fill="rgb(149,211,144)" fill-opacity="1" d="M0 0 M-1481.298,-562.777 C-1481.298,-562.777 -1497.03,-562.777 -1497.03,-562.777 C-1480.833,-562.777 -1446.509,-544.991 -1446.509,-507.773 C-1446.509,-507.773 -1446.509,-429.58 -1446.509,-429.58 C-1446.509,-399.667 -1480.8329999999999,-379.58 -1497.822,-379.58 C-1497.822,-379.58 -1481.298,-379.58 -1481.298,-379.58 C-1453.798,-379.58 -1431.298,-402.08 -1431.298,-429.58 C-1431.298,-429.58 -1431.298,-512.777 -1431.298,-512.777 C-1431.298,-540.277 -1453.798,-562.777 -1481.298,-562.777z"></path></g></g><g transform="matrix(1,0,0,1,1921,1081)" opacity="1" style="-webkit-user-select: none;"><g opacity="1" transform="matrix(1,0,0,1,0,0)"><path fill="rgb(40,40,40)" fill-opacity="1" d="M0 0 M-1478.951,-360.798 C-1478.951,-360.798 -1497.822,-360.798 -1497.822,-360.798 C-1497.822,-360.798 -1497.822,-391.331 -1497.822,-391.331 C-1497.822,-391.331 -1478.951,-391.331 -1478.951,-391.331 C-1478.951,-391.331 -1478.951,-360.798 -1478.951,-360.798z"></path></g></g><g transform="matrix(1,0,0,1,1921,1081)" opacity="1" style="-webkit-user-select: none;"><g opacity="1" transform="matrix(1,0,0,1,0,0)"><path fill="rgb(116,178,109)" fill-opacity="1" d="M0 0 M-1480.191,-379.58 C-1480.191,-379.58 -1625.193,-379.58 -1625.193,-379.58 C-1652.693,-379.58 -1675.193,-402.08 -1675.193,-429.58 C-1675.193,-429.58 -1675.193,-429.58 -1675.193,-429.58 C-1675.193,-457.08 -1652.693,-479.58 -1625.193,-479.58 C-1625.193,-479.58 -1480.191,-479.58 -1480.191,-479.58 C-1452.691,-479.58 -1430.191,-457.08 -1430.191,-429.58 C-1430.191,-429.58 -1430.191,-429.58 -1430.191,-429.58 C-1430.191,-402.08 -1452.691,-379.58 -1480.191,-379.58z"></path></g></g><g transform="matrix(1,0,0,1,1921,1081)" opacity="1" style="-webkit-user-select: none;"><g opacity="1" transform="matrix(1,0,0,1,0,0)"><path fill="rgb(149,211,144)" fill-opacity="1" d="M0 0 M-1638.73,-622.258 C-1627.776,-622.6600000000001 -1617.0739999999998,-616.6089999999999 -1612.147,-606.102 C-1612.147,-606.102 -1588.97,-556.672 -1588.97,-556.672 C-1582.401,-542.662 -1588.489,-525.8249999999999 -1602.499,-519.256 C-1602.499,-519.256 -1602.499,-519.256 -1602.499,-519.256 C-1616.509,-512.687 -1663.7640000000001,-489.657 -1670.333,-503.667 C-1670.333,-503.667 -1678.333,-569.443 -1678.333,-569.443 C-1684.902,-583.453 -1714.01,-615.7080000000001 -1700,-622.277"></path></g></g><g transform="matrix(1,0,0,1,1921.75,1082)" opacity="1" style="-webkit-user-select: none;"><g opacity="1" transform="matrix(1,0,0,1,0,0)"><path fill="rgb(155,155,155)" fill-opacity="1" d="M0 0 M-948.246,-494.667 C-948.246,-494.667 -1047.093,-494.667 -1047.093,-494.667 C-1047.093,-494.667 -1047.093,-512.667 -1047.093,-512.667 C-1047.093,-512.667 -948.246,-512.667 -948.246,-512.667 C-948.246,-512.667 -948.246,-494.667 -948.246,-494.667z"></path></g></g><g transform="matrix(1,0,0,1,1923,1081)" opacity="1" style="-webkit-user-select: none;"><g opacity="1" transform="matrix(1,0,0,1,0,0)"><path fill="rgb(13,38,45)" fill-opacity="1" d="M0 0 M-957.76,-553.397 C-957.76,-553.397 -974.82,-553.397 -974.82,-553.397 C-974.82,-553.397 -974.82,-866.99 -974.82,-866.99 C-974.82,-866.99 -957.76,-866.99 -957.76,-866.99 C-957.76,-866.99 -957.76,-553.397 -957.76,-553.397z"></path></g></g><g transform="matrix(1,0,0,1,1923,1081)" opacity="1" style="-webkit-user-select: none;"><g opacity="1" transform="matrix(1,0,0,1,0,0)"><path fill="rgb(86,92,94)" fill-opacity="1" d="M0 0 M-932.242,-600.206 C-932.242,-600.206 -957.76,-590.199 -957.76,-590.199 C-957.76,-590.199 -957.76,-830.187 -957.76,-830.187 C-957.76,-830.187 -932.242,-820.181 -932.242,-820.181 C-932.242,-820.181 -932.242,-600.206 -932.242,-600.206z"></path></g></g><g transform="matrix(1,0,0,1,1923,1081)" opacity="1" style="-webkit-user-select: none;"><g opacity="1" transform="matrix(1,0,0,1,0,0)"><path fill="rgb(53,53,53)" fill-opacity="1" d="M0 0 M-917.967,-765.213 C-917.967,-765.213 -932.242,-765.213 -932.242,-765.213 C-932.242,-765.213 -932.242,-791.988 -932.242,-791.988 C-932.242,-791.988 -917.967,-791.988 -917.967,-791.988 C-917.967,-791.988 -917.967,-765.213 -917.967,-765.213z"></path></g></g><g transform="matrix(1,0,0,1,1923,1081)" opacity="1" style="-webkit-user-select: none;"><g opacity="1" transform="matrix(1,0,0,1,0,0)"><path fill="rgb(53,53,53)" fill-opacity="1" d="M0 0 M-917.967,-636.013 C-917.967,-636.013 -932.242,-636.013 -932.242,-636.013 C-932.242,-636.013 -932.242,-662.788 -932.242,-662.788 C-932.242,-662.788 -917.967,-662.788 -917.967,-662.788 C-917.967,-662.788 -917.967,-636.013 -917.967,-636.013z"></path></g></g><g transform="matrix(1,0,0,1,1921.75,1081)" opacity="1" style="-webkit-user-select: none;"><g opacity="1" transform="matrix(1,0,0,1,0,0)"><path fill="rgb(196,156,108)" fill-opacity="1" d="M0 0 M-1083.93,-383.388 C-1083.93,-383.388 -937.753,-383.388 -937.753,-383.388 C-937.753,-383.388 -937.753,-485.534 -937.753,-485.534 C-937.753,-485.534 -1083.93,-485.534 -1083.93,-485.534 C-1083.93,-485.534 -1083.93,-383.388 -1083.93,-383.388z"></path></g></g><g transform="matrix(1,0,0,1,1921.75,1081)" opacity="1" style="-webkit-user-select: none;"><g opacity="1" transform="matrix(1,0,0,1,0,0)"><path fill="rgb(196,156,108)" fill-opacity="1" d="M0 0 M-950.586,-360.798 C-950.586,-360.798 -937.753,-360.798 -937.753,-360.798 C-937.753,-360.798 -937.753,-462.944 -937.753,-462.944 C-937.753,-462.944 -950.586,-462.944 -950.586,-462.944 C-950.586,-462.944 -950.586,-360.798 -950.586,-360.798z"></path></g></g><g transform="matrix(1,0,0,1,1921.75,1081)" opacity="1" style="-webkit-user-select: none;"><g opacity="1" transform="matrix(1,0,0,1,0,0)"><path fill="rgb(196,156,108)" fill-opacity="1" d="M0 0 M-1083.93,-360.798 C-1083.93,-360.798 -1071.096,-360.798 -1071.096,-360.798 C-1071.096,-360.798 -1071.096,-462.944 -1071.096,-462.944 C-1071.096,-462.944 -1083.93,-462.944 -1083.93,-462.944 C-1083.93,-462.944 -1083.93,-360.798 -1083.93,-360.798z"></path></g></g><g transform="matrix(1,0,0,1,1921.75,1081)" opacity="1" style="-webkit-user-select: none;"><g opacity="1" transform="matrix(1,0,0,1,0,0)"><path fill="rgb(174,131,70)" fill-opacity="1" d="M0 0 M-1093.753,-482.523 C-1093.753,-482.523 -937.753,-482.523 -937.753,-482.523 C-937.753,-482.523 -937.753,-494.419 -937.753,-494.419 C-937.753,-494.419 -1093.753,-494.419 -1093.753,-494.419 C-1093.753,-494.419 -1093.753,-482.523 -1093.753,-482.523z"></path></g></g><g transform="matrix(1,0,0,1,1921.75,1081)" opacity="1" style="-webkit-user-select: none;"><g opacity="1" transform="matrix(1,0,0,1,0,0)"><path stroke-linecap="butt" stroke-linejoin="miter" fill-opacity="0" stroke-miterlimit="10" stroke="rgb(48,51,51)" stroke-opacity="1" stroke-width="2" d="M0 0 M-948.246,-500.279 C-948.246,-500.279 -932.2410000000001,-503.331 -926.868,-472.664 C-922.0100000000001,-444.93899999999996 -928.654,-351.927 -932.242,-364.333 C-937.7529999999999,-383.387 -920.321,-383.523 -920.321,-383.523"></path></g></g><g transform="matrix(1,0,0,1,1921.75,1081)" opacity="1" style="-webkit-user-select: none;"><g opacity="1" transform="matrix(1,0,0,1,0,0)"><path fill="rgb(48,51,51)" fill-opacity="1" d="M0 0 M-919.32,-379.552 C-919.32,-379.552 -922.913,-379.552 -922.913,-379.552 C-924.196,-379.552 -925.246,-380.97 -925.246,-382.704 C-925.246,-382.704 -925.246,-382.704 -925.246,-382.704 C-925.246,-384.438 -924.196,-385.856 -922.913,-385.856 C-922.913,-385.856 -919.32,-385.856 -919.32,-385.856"></path></g></g><g transform="matrix(1,0,0,1,1921.75,1081)" opacity="1" style="-webkit-user-select: none;"><g opacity="1" transform="matrix(1,0,0,1,0,0)"><path fill="rgb(155,155,155)" fill-opacity="1" d="M0 0 M-920.802,-372.856 C-920.802,-372.856 -917.839,-372.856 -917.839,-372.856 C-917.839,-372.856 -917.839,-388.523 -917.839,-388.523 C-917.839,-388.523 -920.802,-388.523 -920.802,-388.523 C-920.802,-388.523 -920.802,-372.856 -920.802,-372.856z"></path></g></g><g transform="matrix(1,0,0,1,1921.75,1082)" opacity="1" style="-webkit-user-select: none;"><g opacity="1" transform="matrix(1,0,0,1,0,0)"><path fill="rgb(234,234,234)" fill-opacity="1" d="M0 0 M-948.246,-503.667 C-948.246,-503.667 -1050.939,-503.667 -1050.939,-503.667 C-1050.939,-503.667 -1050.939,-521.667 -1050.939,-521.667 C-1050.939,-521.667 -948.246,-521.667 -948.246,-521.667 C-948.246,-521.667 -948.246,-503.667 -948.246,-503.667z"></path></g></g><g transform="matrix(1,0,0,1,1921.75,1081)" opacity="1" style="-webkit-user-select: none;"><g opacity="1" transform="matrix(1,0,0,1,0,0)"><path stroke-linecap="butt" stroke-linejoin="miter" fill-opacity="0" stroke-miterlimit="10" stroke="rgb(48,51,51)" stroke-opacity="1" stroke-width="2" d="M0 0 M-948.246,-508.333 C-948.246,-508.333 -928.817,-500.33400000000006 -932.242,-521.667 C-935.6669999999999,-543 -945.338,-582.724 -944.169,-595.529"></path></g></g><g transform="matrix(1,0,0,1,1921,1081)" opacity="1" style="-webkit-user-select: none;"><g opacity="1" transform="matrix(1,0,0,1,0,0)"><path fill="rgb(105,128,42)" fill-opacity="1" d="M0 0 M-1821.795,-1019.16 C-1821.795,-1019.16 -1848.295,-1002 -1848.295,-1002 C-1848.295,-1002 -1856.795,-956 -1856.795,-956 C-1856.795,-956 -1852.795,-941.982 -1852.795,-941.982 C-1852.795,-941.982 -1821.795,-1019.16 -1821.795,-1019.16z"></path></g></g><g transform="matrix(1,0,0,1,1921,1081)" opacity="1" style="-webkit-user-select: none;"><g opacity="1" transform="matrix(1,0,0,1,0,0)"><path fill="rgb(72,84,30)" fill-opacity="1" d="M0 0 M-1853.742,-987.844 C-1853.742,-987.844 -1875.476,-1001.061 -1875.476,-1001.061 C-1875.476,-1001.061 -1861.631,-941.73 -1861.631,-941.73 C-1861.631,-941.73 -1847.786,-937.379 -1847.786,-937.379 C-1847.786,-937.379 -1853.742,-987.844 -1853.742,-987.844z"></path></g></g><g transform="matrix(1,0,0,1,1921,1081)" opacity="1" style="-webkit-user-select: none;"><g opacity="1" transform="matrix(1,0,0,1,0,0)"><path fill="rgb(72,84,30)" fill-opacity="1" d="M0 0 M-1875.476,-976.556 C-1875.476,-976.556 -1908.048,-996.363 -1908.048,-996.363 C-1908.048,-996.363 -1893.059,-950.627 -1893.059,-950.627 C-1893.059,-950.627 -1875.476,-941.982 -1875.476,-941.982 C-1875.476,-941.982 -1875.476,-976.556 -1875.476,-976.556z"></path></g></g><g transform="matrix(1,0,0,1,1921,1081)" opacity="1" style="-webkit-user-select: none;"><g opacity="1" transform="matrix(1,0,0,1,0,0)"><path fill="rgb(87,104,38)" fill-opacity="1" d="M0 0 M-1868.261,-1019.16 C-1868.261,-1019.16 -1887,-996.363 -1887,-996.363 C-1887,-996.363 -1872.76,-944.328 -1872.76,-944.328 C-1872.76,-944.328 -1861.631,-941.73 -1861.631,-941.73 C-1861.631,-941.73 -1868.261,-1019.16 -1868.261,-1019.16z"></path></g></g><g transform="matrix(1,0,0,1,1921,1081)" opacity="1" style="-webkit-user-select: none;"><g opacity="1" transform="matrix(1,0,0,1,0,0)"><path fill="rgb(193,138,193)" fill-opacity="1" d="M0 0 M-1816.149,-360.798 C-1816.149,-360.798 -1920.373,-360.798 -1920.373,-360.798 C-1920.373,-360.798 -1920.373,-887.792 -1920.373,-887.792 C-1920.373,-887.792 -1816.149,-887.792 -1816.149,-887.792 C-1816.149,-887.792 -1816.149,-360.798 -1816.149,-360.798z"></path></g></g><g transform="matrix(1,0,0,1,1921,1081)" opacity="1" style="-webkit-user-select: none;"><g opacity="1" transform="matrix(1,0,0,1,0,0)"><path fill="rgb(102,48,87)" fill-opacity="1" d="M0 0 M-1841.327,-951.666 C-1841.327,-951.666 -1905.201,-951.666 -1905.201,-951.666 C-1905.201,-951.666 -1905.201,-887.792 -1905.201,-887.792 C-1905.201,-887.792 -1841.327,-887.792 -1841.327,-887.792 C-1841.327,-887.792 -1841.327,-951.666 -1841.327,-951.666z"></path></g></g><g transform="matrix(1,0,0,1,1921,1074)" opacity="1" style="-webkit-user-select: none;"><g opacity="1" transform="matrix(1,0,0,1,0,0)"><path fill="rgb(94,25,91)" fill-opacity="1" d="M0 0 M-1525.611,-1080 C-1525.611,-1080 -1532.911,-1080 -1532.911,-1080 C-1532.911,-1080 -1532.911,-906.356 -1532.911,-906.356 C-1532.911,-906.356 -1525.611,-906.356 -1525.611,-906.356 C-1525.611,-906.356 -1525.611,-1080 -1525.611,-1080z"></path></g></g><g transform="matrix(1,0,0,1,1921,1081)" opacity="1" style="-webkit-user-select: none;"><g opacity="1" transform="matrix(1,0,0,1,0,0)"><path fill="rgb(111,24,114)" fill-opacity="1" d="M0 0 M-1435.708,-860.907 C-1435.708,-860.907 -1622.813,-860.907 -1622.813,-860.907 C-1622.813,-860.907 -1602.801,-947.982 -1602.801,-947.982 C-1602.801,-947.982 -1455.721,-947.982 -1455.721,-947.982 C-1455.721,-947.982 -1435.708,-860.907 -1435.708,-860.907z"></path></g></g><g transform="matrix(1,0,0,1,1923,1081)" opacity="1" style="-webkit-user-select: none;"><g opacity="1" transform="matrix(1,0,0,1,0,0)"><path fill="url(#gr_Kfg5xofNLh)" mask="url(#mk_tdpdk8WkMb)" fill-opacity="1" d="M0 0 M-974.82,-866.99 C-974.82,-866.99 -1271.303,-1080 -1271.303,-1080 C-1271.303,-1080 -1920.373,-1080 -1920.373,-1080 C-1920.373,-1080 -1920,-360.798 -1920,-360.798 C-1920,-360.798 -1324.347,-360.798 -1324.347,-360.798 C-1324.347,-360.798 -974.82,-553.397 -974.82,-553.397"></path></g></g><g transform="matrix(1,0,0,1,1921,1081)" opacity="1" style="-webkit-user-select: none;"><g opacity="1" transform="matrix(1,0,0,1,0,0)"><path fill="rgb(186,186,186)" fill-opacity="1" d="M0 0 M-1460.18,-590.59 C-1460.18,-584.61 -1465.027,-579.762 -1471.007,-579.762 C-1476.987,-579.762 -1481.835,-584.61 -1481.835,-590.59 C-1481.835,-596.57 -1476.987,-601.418 -1471.007,-601.418 C-1465.027,-601.418 -1460.18,-596.57 -1460.18,-590.59z"></path></g></g><g transform="matrix(1,0,0,1,1913.481,1068.762)" opacity="1" style="-webkit-user-select: none;"><g opacity="1" transform="matrix(1,0,0,1,0,0)"><path fill="rgb(186,186,186)" fill-opacity="1" d="M0 0 M-1452.58,-595.132 C-1452.58,-589.1519999999999 -1457.4279999999999,-584.304 -1463.408,-584.304 C-1469.388,-584.304 -1474.235,-589.1519999999999 -1474.235,-595.132 C-1474.235,-601.112 -1469.388,-605.959 -1463.408,-605.959 C-1457.4279999999999,-605.959 -1452.58,-601.112 -1452.58,-595.132z"></path></g></g><g transform="matrix(1,0,0,1,1921,1081)" opacity="1" style="-webkit-user-select: none;"><g opacity="1" transform="matrix(1,0,0,1,0,0)"><path fill="rgb(186,186,186)" fill-opacity="1" d="M0 0 M-1434.279,-598.873 C-1434.279,-592.893 -1439.126,-588.045 -1445.106,-588.045 C-1451.086,-588.045 -1455.934,-592.893 -1455.934,-598.873 C-1455.934,-604.8530000000001 -1451.086,-609.7 -1445.106,-609.7 C-1439.126,-609.7 -1434.279,-604.8530000000001 -1434.279,-598.873z"></path></g></g><g transform="matrix(1,0,0,1,1921,1081)" opacity="1" style="-webkit-user-select: none;"><g opacity="1" transform="matrix(1,0,0,1,0,0)"><path fill="rgb(186,186,186)" fill-opacity="1" d="M0 0 M-1443.477,-590.943 C-1443.477,-584.963 -1448.325,-580.115 -1454.305,-580.115 C-1460.285,-580.115 -1465.132,-584.963 -1465.132,-590.943 C-1465.132,-596.923 -1460.285,-601.77 -1454.305,-601.77 C-1448.325,-601.77 -1443.477,-596.923 -1443.477,-590.943z"></path></g></g><g transform="matrix(1,0,0,1,1921,1063.5)" opacity="1" style="-webkit-user-select: none;"><g opacity="1" transform="matrix(1,0,0,1,0,0)"><path fill="rgb(186,186,186)" fill-opacity="1" d="M0 0 M-1443.477,-590.943 C-1443.477,-584.963 -1448.325,-580.115 -1454.305,-580.115 C-1460.285,-580.115 -1465.132,-584.963 -1465.132,-590.943 C-1465.132,-596.923 -1460.285,-601.77 -1454.305,-601.77 C-1448.325,-601.77 -1443.477,-596.923 -1443.477,-590.943z"></path></g></g><g transform="matrix(1,0,0,1,1920.999,1081)" opacity="1" style="-webkit-user-select: none;"><g opacity="1" transform="matrix(1,0,0,1,0,0)"><path fill="rgb(186,186,186)" fill-opacity="1" d="M0 0 M-1425.292,-594.192 C-1425.292,-588.212 -1430.139,-583.365 -1436.119,-583.365 C-1442.099,-583.365 -1446.947,-588.212 -1446.947,-594.192 C-1446.947,-600.172 -1442.099,-605.02 -1436.119,-605.02 C-1430.139,-605.02 -1425.292,-600.172 -1425.292,-594.192z"></path></g></g><g transform="matrix(1,0,0,1,1921.773,1063.517)" opacity="1" style="-webkit-user-select: none;"><g opacity="1" transform="matrix(1,0,0,1,0,0)"><path fill="rgb(186,186,186)" fill-opacity="1" d="M0 0 M-1425.292,-594.192 C-1425.292,-588.212 -1430.139,-583.365 -1436.119,-583.365 C-1442.099,-583.365 -1446.947,-588.212 -1446.947,-594.192 C-1446.947,-600.172 -1442.099,-605.02 -1436.119,-605.02 C-1430.139,-605.02 -1425.292,-600.172 -1425.292,-594.192z"></path></g></g><g transform="matrix(1,0,0,1,1955.996,1081.003)" opacity="1" style="-webkit-user-select: none;"><g opacity="1" transform="matrix(1,0,0,1,0,0)"><path stroke-linecap="round" stroke-linejoin="miter" fill-opacity="0" stroke-miterlimit="10" stroke="rgb(228,119,117)" stroke-opacity="1" stroke-width="16.367" d="M0 0 M-1383.762,-588.293 C-1381.94,-600.015 -1378.588,-604.498 -1367.399,-603.493"></path></g><g opacity="1" transform="matrix(1,0,0,1,0,0)"><path stroke-linecap="butt" stroke-linejoin="miter" fill-opacity="0" stroke-miterlimit="10" stroke="rgb(255,4,0)" stroke-opacity="1" stroke-width="16.367" d="M0 0 M-1383.762,-588.293 C-1383.623,-589.184 -1383.476,-590.034 -1383.317,-590.842"></path></g></g><g transform="matrix(1,0,0,1,1955.996,1086.003)" opacity="1" style="-webkit-user-select: none;"><g opacity="1" transform="matrix(1,0,0,1,0,0)"><path stroke-linecap="butt" stroke-linejoin="miter" fill-opacity="0" stroke-miterlimit="10" stroke="rgb(108,28,93)" stroke-opacity="1" stroke-width="16.367" d="M0 0 M-1514.234,-594.582 C-1514.234,-594.582 -1497.309,-530.0409999999999 -1447.25,-527.91 C-1397.191,-525.779 -1385.5839999999998,-580.946 -1383.762,-592.668"></path></g></g><g transform="matrix(1,0,0,1,1955.996,1086.003)" opacity="1" style="-webkit-user-select: none;"><g opacity="1" transform="matrix(1,0,0,1,0,0)"><path fill="rgb(108,28,93)" fill-opacity="1" d="M0 0 M-1506.155,-594.582 C-1506.155,-590.12 -1509.772,-586.503 -1514.234,-586.503 C-1518.696,-586.503 -1522.313,-590.12 -1522.313,-594.582 C-1522.313,-599.044 -1518.696,-602.661 -1514.234,-602.661 C-1509.772,-602.661 -1506.155,-599.044 -1506.155,-594.582z"></path></g></g><g></g><g transform="matrix(1,0,0,1,1921,1081)" opacity="1" style="-webkit-user-select: none;"><g opacity="1" transform="matrix(1,0,0,1,0,0)"><path fill="rgb(137,41,105)" fill-opacity="1" d="M0 0 M-1530.721,-488.572 C-1530.721,-488.572 -1540.244,-491.103 -1540.244,-491.103 C-1554.7079999999999,-494.947 -1565.144,-505.705 -1561.3,-520.169 C-1561.3,-520.169 -1547.4460000000001,-566.223 -1541.585,-582.981 C-1535.724,-599.739 -1521.673,-632.608 -1494.455,-622.9 C-1494.455,-622.9 -1494.455,-622.9 -1494.455,-622.9 C-1479.991,-619.0559999999999 -1471.302,-604.076 -1475.146,-589.612 C-1475.146,-589.612 -1480.98,-560.786 -1477.114,-537.752 C-1472.146,-508.155 -1497.188,-499.922 -1497.188,-499.922 C-1509.182,-489.165 -1516.257,-484.728 -1530.721,-488.572z"></path></g></g><g></g><g transform="matrix(1,0,0,1,1921,1081)" opacity="1" style="-webkit-user-select: none;"><g opacity="1" transform="matrix(1,0,0,1,0,0)"><path stroke-linecap="butt" stroke-linejoin="miter" fill-opacity="0" stroke-miterlimit="10" stroke="rgb(229,118,115)" stroke-opacity="1" stroke-width="18" d="M0 0 M-1499.372,-496.694 C-1499.372,-496.694 -1439.856,-500.741 -1415.483,-464.578 C-1404.2,-447.837 -1403.91,-401.825 -1410.631,-363.983"></path></g><g opacity="1" transform="matrix(1,0,0,1,0,0)"><path stroke-linecap="butt" stroke-linejoin="miter" fill-opacity="0" stroke-miterlimit="10" stroke="rgb(203,203,203)" stroke-opacity="1" stroke-width="18" d="M0 0 M-1407.673,-385.321 C-1408.409,-378.088 -1409.403,-370.899 -1410.631,-363.983"></path></g></g><g transform="matrix(1,0,0,1,1921,1081)" opacity="1" style="-webkit-user-select: none;"><g opacity="1" transform="matrix(1,0,0,1,0,0)"><path stroke-linecap="butt" stroke-linejoin="miter" fill-opacity="0" stroke-miterlimit="10" stroke="rgb(247,141,134)" stroke-opacity="1" stroke-width="18" d="M0 0 M-1531.995,-496.694 C-1531.995,-496.694 -1470.898,-503.296 -1447.29,-464.8 C-1437.316,-448.536 -1444.5,-403 -1457.209,-364.972"></path></g><g opacity="1" transform="matrix(1,0,0,1,0,0)"><path stroke-linecap="butt" stroke-linejoin="miter" fill-opacity="0" stroke-miterlimit="10" stroke="rgb(228,228,228)" stroke-opacity="1" stroke-width="18" d="M0 0 M-1451.018,-385.767 C-1452.863,-378.736 -1454.949,-371.735 -1457.209,-364.972"></path></g></g><g transform="matrix(1,0,0,1,1921,1081)" opacity="1" style="-webkit-user-select: none;"><g opacity="1" transform="matrix(1,0,0,1,0,0)"><path fill="rgb(224,113,108)" fill-opacity="1" d="M0 0 M-1490.265,-604.862 C-1490.265,-604.862 -1493.309,-606.807 -1493.309,-606.807 C-1497.663,-609.589 -1498.9489999999998,-615.428 -1496.167,-619.782 C-1496.167,-619.782 -1464.725,-668.99 -1464.725,-668.99 C-1461.943,-673.344 -1456.104,-674.63 -1451.75,-671.848 C-1451.75,-671.848 -1448.706,-669.902 -1448.706,-669.902 C-1444.3519999999999,-667.12 -1443.066,-661.2810000000001 -1445.848,-656.927 C-1445.848,-656.927 -1477.29,-607.72 -1477.29,-607.72 C-1480.072,-603.366 -1485.911,-602.0799999999999 -1490.265,-604.862z"></path></g></g><g transform="matrix(1,0,0,1,1921,1081)" opacity="1" style="-webkit-user-select: none;"><g opacity="1" transform="matrix(1,0,0,1,0,0)"><path fill="rgb(247,141,134)" fill-opacity="1" d="M0 0 M-1442.907,-592.391 C-1442.907,-592.391 -1447.305,-592.391 -1447.305,-592.391 C-1465.728,-592.391 -1480.801,-607.4639999999999 -1480.801,-625.887 C-1480.801,-625.887 -1480.801,-658.024 -1480.801,-658.024 C-1480.801,-676.447 -1465.728,-691.52 -1447.305,-691.52 C-1447.305,-691.52 -1442.907,-691.52 -1442.907,-691.52 C-1424.484,-691.52 -1409.411,-676.447 -1409.411,-658.024 C-1409.411,-658.024 -1409.411,-625.887 -1409.411,-625.887 C-1409.411,-607.4639999999999 -1424.484,-592.391 -1442.907,-592.391z"></path></g></g><g transform="matrix(1,0,0,1,1921,1081)" opacity="1" style="-webkit-user-select: none;"><g opacity="1" transform="matrix(1,0,0,1,0,0)"><path fill="rgb(229,174,202)" fill-opacity="1" d="M0 0 M-1488.743,-509.367 C-1488.743,-509.367 -1410.6490000000001,-509.334 -1395.306,-455.342 C-1395.306,-455.342 -1441.259,-433.284 -1467.088,-440.406 C-1467.088,-440.406 -1471.76,-479.58 -1532.405,-479.58 C-1532.405,-479.58 -1532.405,-509.367 -1532.405,-509.367 C-1532.405,-509.367 -1488.743,-509.367 -1488.743,-509.367z"></path></g></g><g transform="matrix(1,0,0,1,504,433.25)" opacity="0" style="-webkit-user-select: none; display: block;"><g opacity="1" transform="matrix(1,0,0,1,0,0)"><path fill="rgb(255,255,255)" fill-opacity="1" d="M0 0 M5,0 C5,0 5,0 5,0 C5,2.7594999999999996 2.7594999999999996,5 0,5 C0,5 0,5 0,5 C-2.7594999999999996,5 -5,2.7594999999999996 -5,0 C-5,0 -5,0 -5,0 C-5,-2.7594999999999996 -2.7594999999999996,-5 0,-5 C0,-5 0,-5 0,-5 C2.7594999999999996,-5 5,-2.7594999999999996 5,0z" style="display: block;"></path></g><g opacity="1" transform="matrix(1,0,0,1,0,0)"><path fill="rgb(0,0,0)" fill-opacity="1" d="M0 0 M1.5,0 C1.5,0 1.5,0 1.5,0 C1.5,0.82785 0.82785,1.5 0,1.5 C0,1.5 0,1.5 0,1.5 C-0.82785,1.5 -1.5,0.82785 -1.5,0 C-1.5,0 -1.5,0 -1.5,0 C-1.5,-0.82785 -0.82785,-1.5 0,-1.5 C0,-1.5 0,-1.5 0,-1.5 C0.82785,-1.5 1.5,-0.82785 1.5,0z" style="display: block;"></path></g></g><g transform="matrix(1,0,0,1,484,433.25)" opacity="0" style="-webkit-user-select: none; display: block;"><g opacity="1" transform="matrix(1,0,0,1,0,0)"><path fill="rgb(255,255,255)" fill-opacity="1" d="M0 0 M5,0 C5,0 5,0 5,0 C5,2.7594999999999996 2.7594999999999996,5 0,5 C0,5 0,5 0,5 C-2.7594999999999996,5 -5,2.7594999999999996 -5,0 C-5,0 -5,0 -5,0 C-5,-2.7594999999999996 -2.7594999999999996,-5 0,-5 C0,-5 0,-5 0,-5 C2.7594999999999996,-5 5,-2.7594999999999996 5,0z" style="display: block;"></path></g><g opacity="1" transform="matrix(1,0,0,1,0,0)"><path fill="rgb(0,0,0)" fill-opacity="1" d="M0 0 M1.5,0 C1.5,0 1.5,0 1.5,0 C1.5,0.82785 0.82785,1.5 0,1.5 C0,1.5 0,1.5 0,1.5 C-0.82785,1.5 -1.5,0.82785 -1.5,0 C-1.5,0 -1.5,0 -1.5,0 C-1.5,-0.82785 -0.82785,-1.5 0,-1.5 C0,-1.5 0,-1.5 0,-1.5 C0.82785,-1.5 1.5,-0.82785 1.5,0z" style="display: block;"></path></g></g><g transform="matrix(1,0,0,1,1921,1081)" opacity="1" style="-webkit-user-select: none;"><g opacity="1" transform="matrix(1,0,0,1,0,0)"><path stroke-linecap="round" stroke-linejoin="miter" fill-opacity="0" stroke-miterlimit="10" stroke="rgb(41,34,34)" stroke-opacity="1" stroke-width="2.131" d="M0 0 M-1421.327,-649.057 C-1421.327,-649.057 -1420.268,-652.256 -1416.964,-652.256 C-1413.519,-652.256 -1412.601,-649.057 -1412.601,-649.057"></path></g></g><g transform="matrix(1,0,0,1,1921,1081)" opacity="1" style="-webkit-user-select: none;"><g opacity="1" transform="matrix(1,0,0,1,0,0)"><path stroke-linecap="round" stroke-linejoin="miter" fill-opacity="0" stroke-miterlimit="10" stroke="rgb(41,34,34)" stroke-opacity="1" stroke-width="2.131" d="M0 0 M-1441.389,-649.057 C-1441.389,-649.057 -1440.3310000000001,-652.256 -1437.027,-652.256 C-1433.582,-652.256 -1432.664,-649.057 -1432.664,-649.057"></path></g></g><g transform="matrix(1,0,0,1,1921,1081)" opacity="1" style="-webkit-user-select: none;"><g opacity="1" transform="matrix(1,0,0,1,0,0)"><path fill="rgb(234,234,234)" fill-opacity="1" d="M0 0 M-1413.324,-659.122 C-1413.324,-659.122 -1421.869,-659.122 -1421.869,-659.122 C-1422.8529999999998,-659.122 -1423.658,-659.9269999999999 -1423.658,-660.911 C-1423.658,-660.911 -1423.658,-661.145 -1423.658,-661.145 C-1423.658,-662.129 -1422.8529999999998,-662.934 -1421.869,-662.934 C-1421.869,-662.934 -1413.324,-662.934 -1413.324,-662.934 C-1412.3400000000001,-662.934 -1411.535,-662.129 -1411.535,-661.145 C-1411.535,-661.145 -1411.535,-660.911 -1411.535,-660.911 C-1411.535,-659.9269999999999 -1412.3400000000001,-659.122 -1413.324,-659.122z"></path></g></g><g transform="matrix(1,0,0,1,1921,1081)" opacity="1" style="-webkit-user-select: none;"><g opacity="1" transform="matrix(1,0,0,1,0,0)"><path fill="rgb(234,234,234)" fill-opacity="1" d="M0 0 M-1433.083,-659.122 C-1433.083,-659.122 -1441.629,-659.122 -1441.629,-659.122 C-1442.6129999999998,-659.122 -1443.417,-659.9269999999999 -1443.417,-660.911 C-1443.417,-660.911 -1443.417,-661.145 -1443.417,-661.145 C-1443.417,-662.129 -1442.6129999999998,-662.934 -1441.629,-662.934 C-1441.629,-662.934 -1433.083,-662.934 -1433.083,-662.934 C-1432.0990000000002,-662.934 -1431.294,-662.129 -1431.294,-661.145 C-1431.294,-661.145 -1431.294,-660.911 -1431.294,-660.911 C-1431.294,-659.9269999999999 -1432.0990000000002,-659.122 -1433.083,-659.122z"></path></g></g><g transform="matrix(1,0,0,1,1921,1081)" opacity="1" style="-webkit-user-select: none;"><g opacity="1" transform="matrix(1,0,0,1,0,0)"><path stroke-linecap="butt" stroke-linejoin="miter" fill-opacity="0" stroke-miterlimit="10" stroke="rgb(201,35,35)" stroke-opacity="1" stroke-width="2.131" d="M0 0 M-1427.803,-634.913 C-1427.803,-634.913 -1421.327,-629.033 -1421.327,-629.033 C-1421.327,-629.033 -1414.851,-635.109 -1414.851,-635.109"></path></g></g><g transform="matrix(1,0,0,1,1921,1081)" opacity="1" style="-webkit-user-select: none;"><g opacity="1" transform="matrix(1,0,0,1,0,0)"><path fill="rgb(234,234,234)" fill-opacity="1" d="M0 0 M-1339.467,-602.466 C-1339.467,-602.466 -1359.567,-602.466 -1359.567,-602.466 C-1364.394,-602.466 -1368.344,-606.415 -1368.344,-611.242 C-1368.344,-611.242 -1368.344,-612.394 -1368.344,-612.394 C-1368.344,-617.221 -1364.394,-621.171 -1359.567,-621.171 C-1359.567,-621.171 -1339.467,-621.171 -1339.467,-621.171 C-1334.64,-621.171 -1330.691,-617.221 -1330.691,-612.394 C-1330.691,-612.394 -1330.691,-611.242 -1330.691,-611.242 C-1330.691,-606.415 -1334.64,-602.466 -1339.467,-602.466z"></path></g></g><g transform="matrix(1,0,0,1,1921,1081)" opacity="1" style="-webkit-user-select: none;"><g opacity="1" transform="matrix(1,0,0,1,0,0)"><path fill="rgb(234,234,234)" fill-opacity="1" d="M0 0 M-1368.873,-587.067 C-1368.873,-587.067 -1368,-586.794 -1368,-586.794 C-1364.345,-585.649 -1360.4189999999999,-587.702 -1359.274,-591.357 C-1359.274,-591.357 -1353.704,-609.137 -1353.704,-609.137 C-1352.559,-612.7919999999999 -1354.612,-616.719 -1358.267,-617.864 C-1358.267,-617.864 -1359.14,-618.137 -1359.14,-618.137 C-1362.795,-619.2819999999999 -1366.721,-617.2289999999999 -1367.866,-613.574 C-1367.866,-613.574 -1373.436,-595.794 -1373.436,-595.794 C-1374.581,-592.139 -1372.528,-588.212 -1368.873,-587.067z"></path></g></g><g transform="matrix(1,0,0,1,1921,1081)" opacity="1" style="-webkit-user-select: none;"><g opacity="1" transform="matrix(1,0,0,1,0,0)"><path fill="rgb(234,234,234)" fill-opacity="1" d="M0 0 M-1333.944,-586.297 C-1333.944,-586.297 -1333.04,-586.432 -1333.04,-586.432 C-1329.252,-586.998 -1326.616,-590.56 -1327.182,-594.348 C-1327.182,-594.348 -1329.935,-612.776 -1329.935,-612.776 C-1330.501,-616.564 -1334.063,-619.2 -1337.851,-618.634 C-1337.851,-618.634 -1338.755,-618.499 -1338.755,-618.499 C-1342.5430000000001,-617.933 -1345.179,-614.371 -1344.613,-610.583 C-1344.613,-610.583 -1341.86,-592.156 -1341.86,-592.156 C-1341.2939999999999,-588.3679999999999 -1337.732,-585.731 -1333.944,-586.297z"></path></g></g><g transform="matrix(1,0,0,1,1921,1081)" opacity="1" style="-webkit-user-select: none;"><g opacity="1" transform="matrix(1,0,0,1,0,0)"><path fill="rgb(247,141,134)" fill-opacity="1" d="M0 0 M-1328.406,-596.107 C-1328.406,-596.107 -1329.374,-596.107 -1329.374,-596.107 C-1333.428,-596.107 -1336.744,-599.423 -1336.744,-603.477 C-1336.744,-603.477 -1336.744,-604.445 -1336.744,-604.445 C-1336.744,-608.499 -1333.428,-611.815 -1329.374,-611.815 C-1329.374,-611.815 -1328.406,-611.815 -1328.406,-611.815 C-1324.3519999999999,-611.815 -1321.036,-608.499 -1321.036,-604.445 C-1321.036,-604.445 -1321.036,-603.477 -1321.036,-603.477 C-1321.036,-599.423 -1324.3519999999999,-596.107 -1328.406,-596.107z"></path></g></g><g transform="matrix(1,0,0,1,1921,1081)" opacity="1" style="-webkit-user-select: none;"><g opacity="1" transform="matrix(1,0,0,1,0,0)"><path stroke-linecap="round" stroke-linejoin="miter" fill-opacity="0" stroke-miterlimit="10" stroke="rgb(247,141,134)" stroke-opacity="1" stroke-width="16.367" d="M0 0 M-1383.762,-588.293 C-1381.94,-600.015 -1378.588,-604.498 -1367.399,-603.493"></path></g><g opacity="1" transform="matrix(1,0,0,1,0,0)"><path stroke-linecap="butt" stroke-linejoin="miter" fill-opacity="0" stroke-miterlimit="10" stroke="rgb(255,0,0)" stroke-opacity="1" stroke-width="17.367" d="M0 0 M-1383.762,-588.293 C-1383.638,-589.091 -1383.507,-589.856 -1383.366,-590.588"></path></g></g><g transform="matrix(1,0,0,1,1921,1081)" opacity="1" style="-webkit-user-select: none;"><g opacity="1" transform="matrix(1,0,0,1,0,0)"><path stroke-linecap="butt" stroke-linejoin="miter" fill-opacity="0" stroke-miterlimit="10" stroke="rgb(158,56,129)" stroke-opacity="1" stroke-width="16.367" d="M0 0 M-1514.234,-594.582 C-1514.234,-594.582 -1497.309,-530.0409999999999 -1447.25,-527.91 C-1397.191,-525.779 -1385.5839999999998,-576.571 -1383.762,-588.293"></path></g></g><g transform="matrix(1,0,0,1,1921,1081)" opacity="1" style="-webkit-user-select: none;"><g opacity="1" transform="matrix(1,0,0,1,0,0)"><path fill="rgb(158,56,129)" fill-opacity="1" d="M0 0 M-1506.155,-594.582 C-1506.155,-590.12 -1509.772,-586.503 -1514.234,-586.503 C-1518.696,-586.503 -1522.313,-590.12 -1522.313,-594.582 C-1522.313,-599.044 -1518.696,-602.661 -1514.234,-602.661 C-1509.772,-602.661 -1506.155,-599.044 -1506.155,-594.582z"></path></g></g><g transform="matrix(1,0,0,1,1921,1081)" opacity="1" style="-webkit-user-select: none;"><g opacity="1" transform="matrix(1,0,0,1,0,0)"><path fill="rgb(234,234,234)" fill-opacity="1" d="M0 0 M-1423.908,-693.789 C-1423.908,-687.045 -1429.375,-681.578 -1436.119,-681.578 C-1442.8629999999998,-681.578 -1448.33,-687.045 -1448.33,-693.789 C-1448.33,-700.533 -1442.8629999999998,-706 -1436.119,-706 C-1429.375,-706 -1423.908,-700.533 -1423.908,-693.789z"></path></g></g><g transform="matrix(1,0,0,1,1921,1081)" opacity="1" style="-webkit-user-select: none;"><g opacity="1" transform="matrix(1,0,0,1,0,0)"><path fill="rgb(234,234,234)" fill-opacity="1" d="M0 0 M-1446.572,-692.955 C-1446.572,-686.975 -1451.42,-682.128 -1457.4,-682.128 C-1463.38,-682.128 -1468.227,-686.975 -1468.227,-692.955 C-1468.227,-698.9350000000001 -1463.38,-703.783 -1457.4,-703.783 C-1451.42,-703.783 -1446.572,-698.9350000000001 -1446.572,-692.955z"></path></g></g><g transform="matrix(1,0,0,1,1921,1081)" opacity="1" style="-webkit-user-select: none;"><g opacity="1" transform="matrix(1,0,0,1,0,0)"><path fill="rgb(234,234,234)" fill-opacity="1" d="M0 0 M-1463.408,-685.543 C-1463.408,-679.563 -1468.2549999999999,-674.715 -1474.235,-674.715 C-1480.215,-674.715 -1485.063,-679.563 -1485.063,-685.543 C-1485.063,-691.523 -1480.215,-696.371 -1474.235,-696.371 C-1468.2549999999999,-696.371 -1463.408,-691.523 -1463.408,-685.543z"></path></g></g><g transform="matrix(1,0,0,1,1921,1081)" opacity="1" style="-webkit-user-select: none;"><g opacity="1" transform="matrix(1,0,0,1,0,0)"><path fill="rgb(234,234,234)" fill-opacity="1" d="M0 0 M-1474.223,-668.187 C-1474.223,-662.207 -1479.07,-657.359 -1485.05,-657.359 C-1491.03,-657.359 -1495.878,-662.207 -1495.878,-668.187 C-1495.878,-674.167 -1491.03,-679.014 -1485.05,-679.014 C-1479.07,-679.014 -1474.223,-674.167 -1474.223,-668.187z"></path></g></g><g transform="matrix(1,0,0,1,1921,1081)" opacity="1" style="-webkit-user-select: none;"><g opacity="1" transform="matrix(1,0,0,1,0,0)"><path fill="rgb(234,234,234)" fill-opacity="1" d="M0 0 M-1467.088,-662.934 C-1467.088,-656.954 -1471.935,-652.106 -1477.915,-652.106 C-1483.895,-652.106 -1488.743,-656.954 -1488.743,-662.934 C-1488.743,-668.914 -1483.895,-673.762 -1477.915,-673.762 C-1471.935,-673.762 -1467.088,-668.914 -1467.088,-662.934z"></path></g></g><g transform="matrix(1,0,0,1,1921,1081)" opacity="1" style="-webkit-user-select: none;"><g opacity="1" transform="matrix(1,0,0,1,0,0)"><path fill="rgb(234,234,234)" fill-opacity="1" d="M0 0 M-1457.4,-673.762 C-1457.4,-667.7819999999999 -1462.247,-662.934 -1468.227,-662.934 C-1474.207,-662.934 -1479.055,-667.7819999999999 -1479.055,-673.762 C-1479.055,-679.742 -1474.207,-684.589 -1468.227,-684.589 C-1462.247,-684.589 -1457.4,-679.742 -1457.4,-673.762z"></path></g></g><g transform="matrix(1,0,0,1,1921,1081)" opacity="1" style="-webkit-user-select: none;"><g opacity="1" transform="matrix(1,0,0,1,0,0)"><path fill="rgb(234,234,234)" fill-opacity="1" d="M0 0 M-1443.477,-682.128 C-1443.477,-676.148 -1448.325,-671.3 -1454.305,-671.3 C-1460.285,-671.3 -1465.132,-676.148 -1465.132,-682.128 C-1465.132,-688.1080000000001 -1460.285,-692.955 -1454.305,-692.955 C-1448.325,-692.955 -1443.477,-688.1080000000001 -1443.477,-682.128z"></path></g></g><g transform="matrix(1,0,0,1,1921.499,1080.991)" opacity="1" style="-webkit-user-select: none;"><g opacity="1" transform="matrix(1,0,0,1,0,0)"><path fill="rgb(234,234,234)" fill-opacity="1" d="M0 0 M-1466.889,-598.873 C-1466.889,-592.893 -1471.7359999999999,-588.045 -1477.716,-588.045 C-1483.696,-588.045 -1488.544,-592.893 -1488.544,-598.873 C-1488.544,-604.8530000000001 -1483.696,-609.7 -1477.716,-609.7 C-1471.7359999999999,-609.7 -1466.889,-604.8530000000001 -1466.889,-598.873z"></path></g></g><g transform="matrix(1,0,0,1,1921,1081)" opacity="1" style="-webkit-user-select: none;"><g opacity="1" transform="matrix(1,0,0,1,0,0)"><path fill="rgb(234,234,234)" fill-opacity="1" d="M0 0 M-1466.889,-615.29 C-1466.889,-609.31 -1471.7359999999999,-604.463 -1477.716,-604.463 C-1483.696,-604.463 -1488.544,-609.31 -1488.544,-615.29 C-1488.544,-621.27 -1483.696,-626.118 -1477.716,-626.118 C-1471.7359999999999,-626.118 -1466.889,-621.27 -1466.889,-615.29z"></path></g></g><g transform="matrix(1,0,0,1,1921,1081)" opacity="1" style="-webkit-user-select: none;"><g opacity="1" transform="matrix(1,0,0,1,0,0)"><path fill="rgb(234,234,234)" fill-opacity="1" d="M0 0 M-1467.398,-629.002 C-1467.398,-623.0219999999999 -1472.246,-618.175 -1478.226,-618.175 C-1484.2060000000001,-618.175 -1489.053,-623.0219999999999 -1489.053,-629.002 C-1489.053,-634.982 -1484.2060000000001,-639.83 -1478.226,-639.83 C-1472.246,-639.83 -1467.398,-634.982 -1467.398,-629.002z"></path></g></g><g transform="matrix(1,0,0,1,1921,1081)" opacity="1" style="-webkit-user-select: none;"><g opacity="1" transform="matrix(1,0,0,1,0,0)"><path fill="rgb(234,234,234)" fill-opacity="1" d="M0 0 M-1471.007,-618.175 C-1471.007,-612.1949999999999 -1475.855,-607.347 -1481.835,-607.347 C-1487.815,-607.347 -1492.663,-612.1949999999999 -1492.663,-618.175 C-1492.663,-624.155 -1487.815,-629.002 -1481.835,-629.002 C-1475.855,-629.002 -1471.007,-624.155 -1471.007,-618.175z"></path></g></g><g transform="matrix(0.9717,0.2362,-0.2362,0.9717,1734.5446,1393.8262)" opacity="1" style="-webkit-user-select: none;"><g opacity="1" transform="matrix(1,0,0,1,0,0)"><path fill="rgb(234,234,234)" fill-opacity="1" d="M0 0 M-1471.007,-618.175 C-1471.007,-612.1949999999999 -1475.855,-607.347 -1481.835,-607.347 C-1487.815,-607.347 -1492.663,-612.1949999999999 -1492.663,-618.175 C-1492.663,-624.155 -1487.815,-629.002 -1481.835,-629.002 C-1475.855,-629.002 -1471.007,-624.155 -1471.007,-618.175z"></path></g></g><g transform="matrix(1,0,0,1,1921.014,1079.5)" opacity="1" style="-webkit-user-select: none;"><g opacity="1" transform="matrix(1,0,0,1,0,0)"><path fill="rgb(234,234,234)" fill-opacity="1" d="M0 0 M-1483.167,-589.753 C-1483.167,-583.773 -1488.0149999999999,-578.925 -1493.995,-578.925 C-1499.975,-578.925 -1504.823,-583.773 -1504.823,-589.753 C-1504.823,-595.7330000000001 -1499.975,-600.58 -1493.995,-600.58 C-1488.0149999999999,-600.58 -1483.167,-595.7330000000001 -1483.167,-589.753z"></path></g></g><g transform="matrix(1,0,0,1,1921,1081)" opacity="1" style="-webkit-user-select: none;"><g opacity="1" transform="matrix(1,0,0,1,0,0)"><path fill="rgb(234,234,234)" fill-opacity="1" d="M0 0 M-1481.835,-609.7 C-1481.835,-603.72 -1486.683,-598.873 -1492.663,-598.873 C-1498.643,-598.873 -1503.49,-603.72 -1503.49,-609.7 C-1503.49,-615.6800000000001 -1498.643,-620.528 -1492.663,-620.528 C-1486.683,-620.528 -1481.835,-615.6800000000001 -1481.835,-609.7z"></path></g></g><g transform="matrix(1,0,0,1,1921,1081)" opacity="1" style="-webkit-user-select: none;"><g opacity="1" transform="matrix(1,0,0,1,0,0)"><path fill="rgb(234,234,234)" fill-opacity="1" d="M0 0 M-1481.835,-631.128 C-1481.835,-625.148 -1486.683,-620.3 -1492.663,-620.3 C-1498.643,-620.3 -1503.49,-625.148 -1503.49,-631.128 C-1503.49,-637.1080000000001 -1498.643,-641.956 -1492.663,-641.956 C-1486.683,-641.956 -1481.835,-637.1080000000001 -1481.835,-631.128z"></path></g></g><g transform="matrix(1,0,0,1,1921,1081)" opacity="1" style="-webkit-user-select: none;"><g opacity="1" transform="matrix(1,0,0,1,0,0)"><path fill="rgb(234,234,234)" fill-opacity="1" d="M0 0 M-1477.915,-649.687 C-1477.915,-643.707 -1482.763,-638.86 -1488.743,-638.86 C-1494.723,-638.86 -1499.57,-643.707 -1499.57,-649.687 C-1499.57,-655.667 -1494.723,-660.515 -1488.743,-660.515 C-1482.763,-660.515 -1477.915,-655.667 -1477.915,-649.687z"></path></g></g><g transform="matrix(1,0,0,1,1921,1081)" opacity="1" style="-webkit-user-select: none;"><g opacity="1" transform="matrix(1,0,0,1,0,0)"><path fill="rgb(247,141,134)" fill-opacity="1" d="M0 0 M-1468.252,-635.449 C-1468.252,-635.449 -1478.647,-635.449 -1478.647,-635.449 C-1483.4589999999998,-635.449 -1487.397,-639.387 -1487.397,-644.199 C-1487.397,-644.199 -1487.397,-649.633 -1487.397,-649.633 C-1487.397,-654.445 -1483.4589999999998,-658.383 -1478.647,-658.383 C-1478.647,-658.383 -1468.252,-658.383 -1468.252,-658.383 C-1463.44,-658.383 -1459.502,-654.445 -1459.502,-649.633 C-1459.502,-649.633 -1459.502,-644.199 -1459.502,-644.199 C-1459.502,-639.387 -1463.44,-635.449 -1468.252,-635.449z"></path></g></g><g transform="matrix(1,0,0,1,1921,1081)" opacity="1" style="-webkit-user-select: none;"><g opacity="1" transform="matrix(1,0,0,1,0,0)"><path fill="rgb(229,208,14)" fill-opacity="1" d="M0 0 M-1559.315,-379.58 C-1559.315,-379.58 -1704.317,-379.58 -1704.317,-379.58 C-1731.817,-379.58 -1754.317,-402.08 -1754.317,-429.58 C-1754.317,-429.58 -1754.317,-512.777 -1754.317,-512.777 C-1754.317,-540.277 -1731.817,-562.777 -1704.317,-562.777 C-1704.317,-562.777 -1559.315,-562.777 -1559.315,-562.777 C-1531.815,-562.777 -1509.315,-540.277 -1509.315,-512.777 C-1509.315,-512.777 -1509.315,-429.58 -1509.315,-429.58 C-1509.315,-402.08 -1531.815,-379.58 -1559.315,-379.58z"></path></g></g><g transform="matrix(1,0,0,1,1921,1081)" opacity="1" style="-webkit-user-select: none;"><g opacity="1" transform="matrix(1,0,0,1,0,0)"><path fill="rgb(149,211,144)" fill-opacity="1" d="M0 0 M-1559.315,-562.777 C-1559.315,-562.777 -1575.047,-562.777 -1575.047,-562.777 C-1558.8500000000001,-562.777 -1524.525,-544.991 -1524.525,-507.773 C-1524.525,-507.773 -1524.525,-429.58 -1524.525,-429.58 C-1524.525,-399.667 -1558.85,-379.58 -1575.839,-379.58 C-1575.839,-379.58 -1559.315,-379.58 -1559.315,-379.58 C-1531.815,-379.58 -1509.315,-402.08 -1509.315,-429.58 C-1509.315,-429.58 -1509.315,-512.777 -1509.315,-512.777 C-1509.315,-540.277 -1531.815,-562.777 -1559.315,-562.777z"></path></g></g></g></svg>