<svg xmlns="http://www.w3.org/2000/svg" width="1004" height="720" style="width:100%;height:100%"><defs><clipPath id="b"><path d="M0 0h1004v720H0z"/></clipPath><linearGradient id="c" gradientUnits="userSpaceOnUse" x1="-1420" y1="-406" x2="-1420" y2="-1067.84"><stop offset="0%" stop-color="#D12670"/><stop offset="50%" stop-color="#B81372"/><stop offset="100%" stop-color="#9E0074"/></linearGradient><linearGradient id="d" gradientUnits="userSpaceOnUse" x1="-991" y1="-721" x2="-1464.43" y2="-721"><stop offset="0%" stop-color="#FFF"/><stop offset="50%" stop-color="#FFF"/><stop offset="100%" stop-color="#FFF"/></linearGradient><linearGradient id="a" gradientUnits="userSpaceOnUse" x1="-991" y1="-721" x2="-1464.43" y2="-721"><stop stop-color="#FFF" offset="0%" stop-opacity=".3"/><stop stop-color="#FFF" offset="50%" stop-opacity=".15"/><stop stop-color="#FFF" offset="100%" stop-opacity="0"/></linearGradient><mask id="e"><path fill="url(#a)" d="M-974.82-866.99L-1271.3-1080h-649.07l.37 719.2h595.65l349.53-192.6"/></mask></defs><g clip-path="url(#b)"><path fill="url(#c)" fill-rule="evenodd" d="M-912.98-1080.48l-1007.4.48v725.2l1007.4-.49v-725.2z" transform="translate(1921 1080) scale(1.0019)"/><path fill="#494949" d="M372 720.2h-18.87v-30.53H372v30.53zm-140.5 0h-18.87v-30.53h18.87v30.53z"/><path fill="#282828" d="M301.55 720.2h-18.87v-30.53h18.87v30.53z"/><path fill="#CE920D" d="M256.5 561.74a28.22 28.22 0 0 1-37.42-13.52l-23.17-49.43a28.22 28.22 0 0 1 13.53-37.42 28.22 28.22 0 0 1 37.41 13.53l23.18 49.43a28.22 28.22 0 0 1-13.53 37.41z"/><path fill="#E2A610" d="M235.33 600.67l-28.85 14.2c-3.8 1.77-38.02-1.74-39.8-5.54l-1.47-93.22c0-5.94 1.28-8.81 5.07-10.59l17.99-5.23a7.64 7.64 0 0 1 10.13 3.67l40.6 86.57a7.64 7.64 0 0 1-3.67 10.14z"/><path fill="#CC760E" d="M435.74 701.42h-145c-27.5 0-50-22.5-50-50v-83.2c0-27.5 22.5-50 50-50h145c27.5 0 50 22.5 50 50v83.2c0 27.5-22.5 50-50 50z"/><path fill="#95D390" d="M439.7 518.22h-15.73c16.2 0 50.52 17.79 50.52 55v78.2c0 29.91-34.32 50-51.31 50h16.52c27.5 0 50-22.5 50-50v-83.2c0-27.5-22.5-50-50-50z"/><path fill="#282828" d="M442.05 720.2h-18.87v-30.53h18.87v30.53z"/><path fill="#74B26D" d="M440.8 701.42h-145c-27.5 0-50-22.5-50-50s22.5-50 50-50h145c27.5 0 50 22.5 50 50s-22.5 50-50 50z"/><path fill="#95D390" d="M282.27 458.74a28.23 28.23 0 0 1 26.58 16.16l23.18 49.43a28.22 28.22 0 0 1-13.53 37.41c-14 6.57-61.26 29.6-67.83 15.6l-8-65.78c-6.57-14.01-35.68-46.27-21.67-52.84"/><path fill="#9B9B9B" d="M973.5 587.33h-98.84v-18h98.84v18z"/><path fill="#0D262D" d="M965.24 527.6h-17.06V214.01h17.06v313.6z"/><path fill="#565C5E" d="M990.76 480.8l-25.52 10V250.81l25.52 10V480.8z"/><path fill="#353535" d="M1005.03 315.79h-14.27V289h14.27v26.78zm0 129.2h-14.27V418.2h14.27V445z"/><path fill="#C49C6C" d="M837.82 697.61H984V595.47H837.82V697.6z"/><path fill="#C49C6C" d="M971.16 720.2H984V618.06h-12.84V720.2zm-133.34 0h12.83V618.06h-12.83V720.2z"/><path fill="#AE8346" d="M828 598.48h156v-11.9H828v11.9z"/><path stroke-miterlimit="10" stroke="#303333" stroke-width="2" d="M973.5 580.72s16-3.05 21.38 27.62c4.86 27.72-1.78 120.73-5.37 108.33-5.51-19.06 11.92-19.2 11.92-19.2" fill="none"/><path fill="#303333" d="M1002.43 701.45h-3.6c-1.28 0-2.33-1.42-2.33-3.15 0-1.74 1.05-3.16 2.34-3.16h3.59"/><path fill="#9B9B9B" d="M1000.95 708.14h2.96v-15.66h-2.96v15.66z"/><path fill="#EAEAEA" d="M973.5 578.33H870.81v-18h102.7v18z"/><path stroke-miterlimit="10" stroke="#303333" stroke-width="2" d="M973.5 572.67s19.43 8 16-13.34c-3.42-21.33-13.09-61.05-11.92-73.86" fill="none"/><path fill="#69802A" d="M99.2 61.84L72.7 79l-8.5 46 4 14.02 31-77.18z"/><path fill="#48541E" d="M67.26 93.16L45.52 79.94l13.85 59.33 13.84 4.35-5.95-50.46zm-21.74 11.28l-32.57-19.8 15 45.73 17.57 8.65v-34.58z"/><path fill="#576826" d="M52.74 61.84L34 84.64l14.24 52.03 11.13 2.6-6.63-77.43z"/><path fill="#C18AC1" d="M104.85 720.2H.63v-527h104.22v527z"/><path fill="#663057" d="M79.67 129.33H15.8v63.88h63.87v-63.88z"/><path fill="#5E195B" d="M395.39-6h-7.3v173.64h7.3V-6z"/><path fill="#6F1872" d="M485.3 220.1H298.18l20-87.08h147.09l20.01 87.07z"/><path fill="url(#d)" mask="url(#e)" d="M-974.82-866.99L-1271.3-1080h-649.07l.37 719.2h595.65l349.53-192.6" transform="translate(1923 1081)"/><path fill="#BABABA" d="M460.82 490.41a10.83 10.83 0 1 1-21.65 0 10.83 10.83 0 0 1 21.65 0z"/><path fill="#BABABA" d="M460.9 473.63a10.83 10.83 0 1 1-21.66 0 10.83 10.83 0 0 1 21.66 0zm25.82 8.5a10.83 10.83 0 1 1-21.65 0 10.83 10.83 0 0 1 21.65 0z"/><path fill="#BABABA" d="M477.52 490.06a10.83 10.83 0 1 1-21.65 0 10.83 10.83 0 0 1 21.65 0z"/><path fill="#BABABA" d="M477.52 472.56a10.83 10.83 0 1 1-21.65 0 10.83 10.83 0 0 1 21.65 0zm18.19 14.25a10.83 10.83 0 1 1-21.66 0 10.83 10.83 0 0 1 21.66 0z"/><path fill="#BABABA" d="M496.48 469.33a10.83 10.83 0 1 1-21.65 0 10.83 10.83 0 0 1 21.65 0z"/><g style="-webkit-user-select:none" stroke-miterlimit="10" stroke-width="16.37" fill="none"><path stroke-linecap="round" stroke="#E47775" d="M572.23 492.71c1.83-11.72 5.18-16.2 16.37-15.2"/><path stroke="#FF0400" d="M572.23 492.71c.14-.9.29-1.74.45-2.55"/></g><path stroke-miterlimit="10" stroke="#6C1C5D" stroke-width="16.37" d="M441.76 491.42s16.93 64.54 66.99 66.67c50.06 2.13 61.66-53.03 63.48-64.76" fill="none"/><path fill="#6C1C5D" d="M449.84 491.42a8.08 8.08 0 1 1-16.16 0 8.08 8.08 0 0 1 16.16 0z"/><path fill="#892969" d="M390.28 592.43l-9.52-2.53c-14.47-3.85-24.9-14.6-21.06-29.07 0 0 13.85-46.05 19.71-62.81 5.87-16.76 19.92-49.63 47.13-39.92a27.3 27.3 0 0 1 19.31 33.29s-5.83 28.82-1.96 51.86c4.96 29.6-20.08 37.83-20.08 37.83-12 10.76-19.07 15.2-33.53 11.35z"/><g style="-webkit-user-select:none" stroke-miterlimit="10" stroke-width="18" fill="none"><path stroke="#E57673" d="M421.63 584.3s59.51-4.04 83.89 32.12c11.28 16.74 11.57 62.76 4.85 100.6"/><path stroke="#CBCBCB" d="M513.33 695.68a291.46 291.46 0 0 1-2.96 21.34"/></g><g style="-webkit-user-select:none" stroke-miterlimit="10" stroke-width="18" fill="none"><path stroke="#F78D86" d="M389 584.3s61.1-6.6 84.71 31.9c9.97 16.26 2.79 61.8-9.92 99.83"/><path stroke="#E4E4E4" d="M469.98 695.23a330.98 330.98 0 0 1-6.19 20.8"/></g><path fill="#E0716C" d="M430.73 476.14l-3.04-1.95a9.42 9.42 0 0 1-2.86-12.97L456.27 412a9.42 9.42 0 0 1 12.98-2.86l3.04 1.95a9.42 9.42 0 0 1 2.86 12.97l-31.44 49.21a9.42 9.42 0 0 1-12.97 2.86z"/><path fill="#F78D86" d="M478.1 488.6h-4.4a33.6 33.6 0 0 1-33.5-33.49v-32.13a33.6 33.6 0 0 1 33.5-33.5h4.4a33.6 33.6 0 0 1 33.49 33.5v32.13a33.6 33.6 0 0 1-33.5 33.5z"/><path fill="#E5AECA" d="M432.26 571.63s78.1.04 93.43 54.03c0 0-45.95 22.06-71.78 14.93 0 0-4.67-39.17-65.31-39.17v-29.79h43.66z"/><path stroke-linecap="round" stroke-miterlimit="10" stroke="#292222" stroke-width="2.13" d="M499.67 431.94s1.06-3.2 4.37-3.2c3.44 0 4.36 3.2 4.36 3.2m-28.79 0s1.06-3.2 4.36-3.2c3.45 0 4.37 3.2 4.37 3.2" fill="none"/><path fill="#EAEAEA" d="M507.68 421.88h-8.55a1.8 1.8 0 0 1-1.79-1.8v-.22c0-.99.8-1.8 1.8-1.8h8.54c.98 0 1.78.81 1.78 1.8v.23c0 .98-.8 1.79-1.78 1.79zm-19.76 0h-8.55a1.8 1.8 0 0 1-1.79-1.8v-.22c0-.99.8-1.8 1.8-1.8h8.54c.98 0 1.79.81 1.79 1.8v.23c0 .98-.8 1.79-1.8 1.79z"/><path stroke-miterlimit="10" stroke="#C92323" stroke-width="2.13" d="M493.2 446.09l6.47 5.88 6.48-6.08" fill="none"/><path fill="#EAEAEA" d="M581.53 478.53h-20.1a8.8 8.8 0 0 1-8.77-8.77v-1.15a8.8 8.8 0 0 1 8.77-8.78h20.1a8.8 8.8 0 0 1 8.78 8.78v1.15a8.8 8.8 0 0 1-8.78 8.77z"/><path fill="#EAEAEA" d="M552.13 493.93l.87.28a6.98 6.98 0 0 0 8.73-4.57l5.57-17.78a6.98 6.98 0 0 0-4.57-8.72l-.87-.28a6.98 6.98 0 0 0-8.73 4.57l-5.57 17.78a6.98 6.98 0 0 0 4.57 8.72zm34.93.77l.9-.13a6.98 6.98 0 0 0 5.86-7.92l-2.76-18.43a6.98 6.98 0 0 0-7.91-5.85l-.9.13a6.98 6.98 0 0 0-5.86 7.92l2.75 18.42a6.98 6.98 0 0 0 7.92 5.86z"/><path fill="#F78D86" d="M592.6 484.9h-.97a7.4 7.4 0 0 1-7.37-7.38v-.96a7.4 7.4 0 0 1 7.37-7.37h.96a7.4 7.4 0 0 1 7.37 7.37v.96a7.4 7.4 0 0 1-7.37 7.37z"/><g style="-webkit-user-select:none" stroke-miterlimit="10" fill="none"><path stroke-linecap="round" stroke="#F78D86" stroke-width="16.37" d="M537.24 492.7c1.82-11.71 5.17-16.2 16.36-15.2"/><path stroke="red" stroke-width="17.37" d="M537.24 492.7c.12-.8.25-1.56.4-2.29"/></g><path stroke-miterlimit="10" stroke="#9E3881" stroke-width="16.37" d="M406.77 486.42s16.92 64.54 66.98 66.67c50.06 2.13 61.67-48.66 63.49-60.38" fill="none"/><path fill="#9E3881" d="M414.85 486.42a8.08 8.08 0 1 1-16.16 0 8.08 8.08 0 0 1 16.16 0z"/><path fill="#EAEAEA" d="M497.1 387.21a12.21 12.21 0 1 1-24.43 0 12.21 12.21 0 0 1 24.42 0z"/><path fill="#EAEAEA" d="M474.43 388.04a10.83 10.83 0 1 1-21.66 0 10.83 10.83 0 0 1 21.66 0z"/><path fill="#EAEAEA" d="M457.6 395.46a10.83 10.83 0 1 1-21.66 0 10.83 10.83 0 0 1 21.65 0z"/><path fill="#EAEAEA" d="M446.78 412.81a10.83 10.83 0 1 1-21.66 0 10.83 10.83 0 0 1 21.66 0z"/><path fill="#EAEAEA" d="M453.91 418.07a10.83 10.83 0 1 1-21.65 0 10.83 10.83 0 0 1 21.65 0z"/><path fill="#EAEAEA" d="M463.6 407.24a10.83 10.83 0 1 1-21.65 0 10.83 10.83 0 0 1 21.65 0z"/><path fill="#EAEAEA" d="M477.52 398.87a10.83 10.83 0 1 1-21.65 0 10.83 10.83 0 0 1 21.65 0zm-22.91 83.25a10.83 10.83 0 1 1-21.65 0 10.83 10.83 0 0 1 21.65 0z"/><path fill="#EAEAEA" d="M454.11 465.71a10.83 10.83 0 1 1-21.65 0 10.83 10.83 0 0 1 21.65 0z"/><path fill="#EAEAEA" d="M453.6 452a10.83 10.83 0 1 1-21.65 0 10.83 10.83 0 0 1 21.65 0z"/><path fill="#EAEAEA" d="M450 462.83a10.83 10.83 0 1 1-21.66 0 10.83 10.83 0 0 1 21.65 0z"/><path fill="#EAEAEA" d="M451.18 445.7a10.83 10.83 0 1 1-21.04-5.12 10.83 10.83 0 0 1 21.04 5.11zm-13.33 44.05a10.83 10.83 0 1 1-21.66 0 10.83 10.83 0 0 1 21.66 0z"/><path fill="#EAEAEA" d="M439.16 471.3a10.83 10.83 0 1 1-21.65 0 10.83 10.83 0 0 1 21.65 0z"/><path fill="#EAEAEA" d="M439.16 449.87a10.83 10.83 0 1 1-21.65 0 10.83 10.83 0 0 1 21.65 0z"/><path fill="#EAEAEA" d="M443.09 431.31a10.83 10.83 0 1 1-21.66 0 10.83 10.83 0 0 1 21.66 0z"/><path fill="#F78D86" d="M452.75 445.55h-10.4a8.78 8.78 0 0 1-8.75-8.75v-5.43a8.78 8.78 0 0 1 8.75-8.75h10.4a8.78 8.78 0 0 1 8.75 8.75v5.43a8.78 8.78 0 0 1-8.75 8.75z"/><path fill="#E5D00E" d="M361.68 701.42h-145c-27.5 0-50-22.5-50-50v-83.2c0-27.5 22.5-50 50-50h145c27.5 0 50 22.5 50 50v83.2c0 27.5-22.5 50-50 50z"/><path fill="#95D390" d="M361.68 518.22h-15.73c16.2 0 50.52 17.79 50.52 55v78.2c0 29.91-34.32 50-51.3 50h16.51c27.5 0 50-22.5 50-50v-83.2c0-27.5-22.5-50-50-50z"/></g></svg>