<svg xmlns="http://www.w3.org/2000/svg" width="910" height="668" style="width:100%;height:100%"><defs><clipPath id="a"><path d="M0 0h910v668H0z"/></clipPath></defs><g clip-path="url(#a)"><g style="-webkit-user-select:none"><path fill="#BBE217" d="M646.64 246.67000000000002l-25.3 3.68-7.26-14.63 32.56 10.96z"/><path fill="#B3CE11" d="M646.64 246.67000000000002l-32.56-10.95 14.62-7.26 17.94 18.22z"/></g><g style="-webkit-user-select:none"><path fill="#BBE217" d="M633.6 179.65l-15.45 48.16 21.38-10.99-5.92-37.17z"/><path fill="#B3CE11" d="M633.6 179.65l-15.45 48.16-11.02-21.54 26.48-26.62z"/></g><g style="-webkit-user-select:none"><path fill="#BBE217" d="M570.99 261.42l40.45-30.37-23.8-3.39-16.65 33.76z"/><path fill="#B3CE11" d="M570.99 261.42l40.45-30.37-3.45 23.94-37 6.43z"/></g><g style="-webkit-user-select:none"><path fill="#BBE217" d="M660 321.54l-21.46-45.81-8.18 22.6 29.65 23.2z"/><path fill="#B3CE11" d="M660 321.54l-21.46-45.81 22.73 8.28-1.26 37.53z"/></g><g style="-webkit-user-select:none"><path fill="#BBE217" d="M683.64 196.31L709.77 153l-23.34 5.77-2.79 37.54z"/><path fill="#B3CE11" d="M683.64 196.31L709.77 153l5.76 23.5-31.89 19.81z"/></g><path fill="#BBE217" d="M862.02 203.73000000000002l-43.31 26.13 5.77-23.34 37.54-2.79z"/><g style="-webkit-user-select:none"><path fill="#BBE217" d="M715.13 114.15l.25 25.56 15.57 4.94-15.82-30.5z"/><path fill="#B3CE11" d="M715.13 114.15l15.82 30.5 4.93-15.57-20.75-14.93z"/></g><path stroke-linecap="round" stroke-miterlimit="10" stroke="#A30C38" stroke-width="13" d="M701.43 276.13h114.03M615.38 212.53v18.39c0 33.49 13.93 45.21 45.22 45.21h61.28M815.46 249.5v-54.53c0-33.5-13.93-45.22-45.21-45.22h-61.28" fill="none"/><g style="-webkit-user-select:none"><path fill="#BBE217" d="M590.0699999999999 192.75l22.72 11.71-2.59 16.12-20.13-27.83z"/><path fill="#B3CE11" d="M590.0699999999999 192.75l20.13 27.83-16.12-2.59-4-25.24z"/></g><g style="-webkit-user-select:none"><path fill="#BBE217" d="M779.86 235.22l25.56.25 4.93 15.57-30.5-15.82z"/><path fill="#B3CE11" d="M779.86 235.22l30.5 15.82-15.57 4.93-14.93-20.75z"/></g><path stroke-linecap="round" stroke-miterlimit="10" stroke="#A30C38" stroke-width="13" d="M915.2 335.55h-54.53c-33.49 0-45.21-13.93-45.21-45.21v-61.29" fill="none"/><path stroke-miterlimit="10" stroke="#F99D85" stroke-width="15" d="M520.12 430.97c19.64-.57 38.96-3.78 46.9 14.02 4.92 11.05 5.47 30.19-1 63.07" fill="none"/><path fill="#330212" d="M123.41999999999996 339.75S206.07 461.63 318 494c60.52 17.5 290.2-22.83 414.7-95.4l-3.95-1.72c-35.88 10.04-172.84 44.11-324.48 33.17-95.45-6.89-192.46-31.1-276.35-93.3-2.1-1.55-4.5 3-4.5 3z"/><path stroke-miterlimit="10" stroke="#3872A0" stroke-width="15" d="M486 450s32.93-18.13 64.13-19.04" fill="none"/><path stroke-miterlimit="10" stroke="#295577" stroke-width="15" d="M466 449.5s32.93-18.13 64.13-19.04" fill="none"/><path fill="#101751" d="M380.52 394.53l-3.18.84a4.35 4.35 0 0 1-5.3-3.08l-13.61-51.42a4.35 4.35 0 0 1 3.08-5.3l3.18-.84c2.3-.61 4.69.78 5.3 3.08l13.6 51.42a4.35 4.35 0 0 1-3.07 5.3z"/><path fill="#E2E6F7" d="M376.43 390.92l-1.19.32c-1 .26-2.04-.34-2.3-1.34l-12.65-47.78c-.26-1 .34-2.04 1.34-2.3l1.19-.32c1-.27 2.04.34 2.3 1.34l12.65 47.78c.26 1-.34 2.04-1.34 2.3z"/><path stroke-linecap="round" stroke-miterlimit="10" stroke="#FFA992" stroke-width="7" d="M321.5 353l14.45.43 13.54.4" fill="none"/><path stroke-linecap="round" stroke-miterlimit="10" stroke="#FFA992" stroke-width="15" d="M325.94 357.13s-1.5-.16-4.02-.22c-16.28-.43-74.73 2.8-38.5 75.07" fill="none"/><path stroke-miterlimit="10" stroke="#FFB199" stroke-width="15" d="M373.8 367.40999999999997s22.48 16.64 20.98 43.2c-2.08 36.89-38.08 51.89-82.08 36.89" fill="none"/><path stroke-miterlimit="10" stroke="#3872A0" stroke-width="15" d="M486 447.5s32.93-18.13 64.13-19.04" fill="none"/><path fill="#FFB199" d="M252.62 384.26c0 21.32-22.6 52.69-38.6 38.6-14.02-12.36-38.59-17.28-38.59-38.6a38.6 38.6 0 1 1 77.19 0z"/><path fill="#C65E00" d="M182.10000000000002 386.8s72.4-21.29 45.67-64.65c0 0-1.76 6.61-10.27 11.35-5.49 3.06-15.82 3.58-23.5 6.91-19.6 8.5-22.51 30.63-11.9 46.39z"/><path stroke-linecap="round" stroke-miterlimit="10" stroke="#101751" stroke-width="3" d="M239.91000000000003 372.83l-1.62-2.77" fill="none"/><path fill="#5E0422" d="M123.41999999999996 339.75S206.07 461.63 318 494c60.52 17.5 290.2-22.83 414.7-95.4l-3.95-1.72c-35.88 10.04-172.84 54.11-324.48 43.17-95.45-6.89-192.46-41.1-276.35-103.3-2.1-1.55-4.5 3-4.5 3z"/><path stroke-linecap="round" stroke-miterlimit="10" stroke="#F9F5CA" stroke-width="6.00024" d="M126.52999999999997 338.90999999999997L-.41 166.04M731.29 396.63l120.84-63.04.18-6.95" fill="none"/><path stroke-linecap="round" stroke-miterlimit="10" stroke="#F9F5CA" stroke-width="6" d="M845 326l11.5 18.91" fill="none"/><path stroke-miterlimit="10" stroke="#FFB199" stroke-width="15" d="M550.13 428.46c11.41-.33 23.38 1 33.27 7.98 17.7 12.5 13.1 49.56 18.03 115.06" fill="none"/><path stroke-linecap="round" stroke-miterlimit="10" stroke="#F9F5CA" stroke-width="6.00024" d="M727.38 395.3l2.8 5.41M129.64 336.16999999999996l-6.02 5.57" fill="none"/></g></svg>