<svg xmlns="http://www.w3.org/2000/svg" width="1592" height="1284" style="width:100%;height:100%"><defs><clipPath id="b"><path d="M0 0h1592v1284H0z"/></clipPath><linearGradient id="c" gradientUnits="userSpaceOnUse" x1="1126" y1="118" x2="1126" y2="-1056.2"><stop offset="0%" stop-color="#D12670"/><stop offset="50%" stop-color="#B81372"/><stop offset="100%" stop-color="#9E0074"/></linearGradient><linearGradient id="d" gradientUnits="userSpaceOnUse" x1="1111" y1="253" x2="1612" y2="-258.5"><stop offset="0%" stop-color="#E8EFB6"/><stop offset="50%" stop-color="#E8EFB6"/><stop offset="100%" stop-color="#E8EFB6"/></linearGradient><linearGradient id="a" gradientUnits="userSpaceOnUse" x1="1111" y1="253" x2="1612" y2="-258.5"><stop stop-color="#FFF" offset="0%" stop-opacity="0"/><stop stop-color="#FFF" offset="50%" stop-opacity=".5"/><stop stop-color="#FFF" offset="100%"/></linearGradient><mask id="e"><path fill="url(#a)" d="M1521.8-348.1L768.1 219.4l744 10.6 132.3-495.8V-324l-61.3-32.7-61.3 8.6"/></mask></defs><g clip-path="url(#b)"><path fill="url(#c)" fill-rule="evenodd" d="M1932-1084.2H317v1282h1615v-1282z" transform="matrix(1 0 0 1.0607 -328 1080)"/><path fill="url(#d)" mask="url(#e)" d="M1521.8-348.1L768.1 219.4l744 10.6 132.3-495.8V-324l-61.3-32.7-61.3 8.6" transform="translate(-328 1080)" opacity=".4"/><path fill="#FFFFB6" d="M1103.2 269.70000000000005a364.9 364.9 0 1 1-729.8 0 364.9 364.9 0 0 1 729.8 0z" opacity=".1"/><path fill="#41074F" d="M1014.3 652.2v-12.8h122.5v12.8h-122.5z"/><path fill="#CCD4ED" d="M1107.4 676.6H333.2a29.4 29.4 0 0 1-29.3-29.4v-57.1a29.4 29.4 0 0 1 29.3-29.4h774.2a29.4 29.4 0 0 1 29.4 29.4v57.1a29.4 29.4 0 0 1-29.4 29.4z"/><path fill="#66065D" d="M839.2 1258.2H474.4c-27.5 0-50-22.5-50-50v-117.4c0-27.5 22.5-50 50-50h364.8c27.5 0 50 22.5 50 50v117.4c0 27.5-22.5 50-50 50z"/><path fill="#09273F" d="M440.1 1283.9h-30.5v-30.5H440v30.5zM904 1283.9h-30.5v-30.5H904v30.5z"/><path fill="#7F0B6F" d="M604.5 1184.4h-130c-27.6 0-50-22.5-50-50v-49.5c0-27.5 22.4-50 50-50h130c27.5 0 50 22.5 50 50v49.5c0 27.5-22.5 50-50 50zM839.2 1184.4h-130c-27.5 0-50-22.5-50-50v-49.5c0-27.5 22.5-50 50-50h130c27.5 0 50 22.5 50 50v49.5c0 27.5-22.5 50-50 50z"/><path fill="#600557" d="M888.8 1106.5l-90.5 72.6 90.9 36-.4-108.6z" opacity=".6"/><path fill="#99148C" d="M422.29999999999995 1229.6v-15c0-19.5 16-35.5 35.5-35.5h395.8c19.6 0 35.6 16 35.6 35.6v14.9c0 19.5-16 35.5-35.6 35.5H457.8c-19.5 0-35.5-16-35.5-35.5z"/><path fill="#99148C" d="M374.4 1265.1H372c-27.5 0-50-22.5-50-50V1132c0-27.5 22.5-50 50-50h2.4c27.5 0 50 22.5 50 50v83.2c0 27.5-22.5 50-50 50zM941.7 1265.1h-2.5c-27.5 0-50-22.5-50-50V1132c0-27.5 22.5-50 50-50h2.5c27.5 0 50 22.5 50 50v83.2c0 27.5-22.5 50-50 50z"/><path fill="#460556" d="M1136.8 619.4v85H278.4v-85h858.4z"/><path fill="#99148C" d="M940.4000000000001 1199.8H373.2v65.3h567.2v-65.3z"/><path fill="#CCD4ED" d="M300.4 472.6c-13.2 12.6-6.6 90 76.7 88 0 0 45.1 4.2 51.8-6.8C437 540 420.7 532 399 525c-54.8-17.7-70.6-79.4-98.6-52.4z"/><path fill="#5A0A6B" d="M301.4 1283.9h-25.5V498h25.5v785.8z"/><path fill="#B197D3" d="M752.8 770H488.5a27.9 27.9 0 0 1-27.9-27.8V560.4a27.9 27.9 0 0 1 27.9-27.8h264.3a27.9 27.9 0 0 1 27.8 27.8v181.8a27.9 27.9 0 0 1-27.8 27.9z"/><path fill="#8599C9" d="M881 619.4s-11-50.4 22.3-60.9l-24-4.3-19.8 18 4.3 47.2H881zM969 560.7h15.5s13 14.2-2 58.7h-18.2l4.6-58.7z"/><path fill="#41074F" d="M1014.3 1152.5v-12.8h122.5v12.8h-122.5zM1014.3 1052.4v-12.7h122.5v12.7h-122.5zM1014.3 1252.5v-12.7h122.5v12.7h-122.5zM1014.3 952.4v-12.8h122.5v12.8h-122.5zM1014.3 852.3v-12.8h122.5v12.8h-122.5zM1014.3 752.2v-12.7h122.5v12.7h-122.5z"/><path fill="#5A0A6B" d="M1162.3 1283.9h-25.5V498h25.5v785.8zM1034.3 1283.9h-25.5V619.4h25.5V1284z"/><path stroke-miterlimit="10" stroke="#354E77" stroke-width="12" d="M1425.5 1283.9v-548c0-27.5-22.5-50-50-50h-28c-27.5 0-50 22.5-50 50" fill="none"/><path fill="#063651" d="M1378.5 1293.2h94c5.3 0 9.7-4.3 9.7-9.7 0-5.3-4.4-9.7-9.8-9.7h-93.9a9.7 9.7 0 0 0-9.7 9.7c0 5.4 4.4 9.7 9.7 9.7zM1282.4 721.3a14.9 14.9 0 1 0 29.8 0 14.9 14.9 0 0 0-29.8 0z"/><path fill="#063651" d="M1193.4 738.7a74 74 0 0 1 122.7 82.8l-63.1-45-59.6-37.8z"/><path fill="#E8EFB6" d="M1247.6 791.2c33.9 22.7 64.7 36.1 68.8 30 4.1-6.2-20-29.6-53.8-52.3-33.9-22.7-64.7-36.1-68.8-30-4.1 6.1 20 29.5 53.8 52.3z"/><path fill="#0C512F" d="M-1 379h72.6v62.4H-.9V379z"/><path fill="#B1BABA" d="M4.300000000000011 358.29999999999995H63v83.1H4.3v-83.1z"/><path fill="#0E4563" d="M12 379l11.3 1 36 55.1-3.7 13.6H-4v-75.6h8.3l7.6 5.9z" opacity=".6"/><path fill="#963B6F" d="M.30000000000001137 369.9l15.5-1.7 7.8 71.5-15.5 1.7L.3 370z"/><path stroke-miterlimit="10" stroke="#113156" stroke-width="5.6" d="M51.30000000000001 456L.4 534.9" fill="none"/><path fill="#313142" d="M84.5 456H-7.1v-14.6h91.6v14.7z"/><path fill="#A2A519" d="M72.19999999999999 432l-13.8 9.2-42.1-62.8 13.8-9.2 42.1 62.7z"/><path fill="#0C494F" d="M-1 668.6h56.4v62.5H-.9v-62.5z"/><path fill="#B272A3" d="M-1.3000000000000114 731v-69.4H49v69.5H-1.3z"/><path stroke-miterlimit="10" stroke="#113156" stroke-width="5.6" d="M51.30000000000001 745.7L.4 824.4" fill="none"/><path fill="#313142" d="M84.5 745.7H-7.1v-14.6h91.6v14.6z"/><path fill="#8E2859" d="M62.39999999999998 722a8.3 8.3 0 1 0 16.7 0 8.3 8.3 0 0 0-16.7 0z"/><path stroke-miterlimit="10" stroke="#113156" stroke-width="6" d="M738.3 247V-3" fill="none"/><path fill="#FFFFB6" d="M865.5 217a127.2 127.2 0 1 1-254.4 0 127.2 127.2 0 0 1 254.4 0z"/><path fill="#0A7954" d="M251 1139.2s-17.2 30.3 28.2 49.2c0 0 15.4-30.4-28.3-49.2z"/><path fill="#1EA671" d="M226 1104s19.3-17.4 39-6.3c19.8 11.2 25.5 35.2 43.9 34.8 0 0-38 24-57.8 10.2-19.8-13.7-9.2-31.6-25-38.8zM210.39999999999998 999.4s14.9-13.4 30.2-4.8c15.3 8.7 25.7 22.4 39.9 22 0 0-35.3 23.5-50.7 12.9-15.3-10.7-7.1-24.6-19.4-30.1z"/><path fill="#0A7954" d="M202.60000000000002 1107.6s14.8-13.4 30.1-4.7c15.3 8.6 19.8 27.2 34 26.9 0 0-29.4 18.6-44.7 8-15.4-10.8-7.2-24.6-19.4-30.2z"/><path fill="#1EA671" d="M233.70000000000005 1133.2s-32.6 36.7 24.4 76.1c0 0 30.2-37.2-24.4-76.1zM215.20000000000005 1019s19.2-17.3 39-6.2c19.7 11.2 32.7 33.1 39.9 49.3 0 0-34 9.5-53.8-4.3-19.9-13.8-9.2-31.7-25-38.8z"/><path fill="#063651" d="M242.89999999999998 1283.9h-118l-10-124h138l-10 124z"/><path fill="#1EA671" d="M222.70000000000005 1112.5s28.6-7.8 34.7 33.5c0 0-28.2 6.4-34.7-33.5z"/><path fill="#0A7954" d="M210.60000000000002 1079.7s-32.6 36.7 24.4 76.2c0 0 30.2-37.3-24.4-76.2z"/><path fill="#2EB57F" d="M207.60000000000002 1049.6s27.6-17.3 49.7.9c22.2 18.1 24 49.2 46.9 52.7 0 0-52.3 21.5-74 .1-21.5-21.4-4.5-41.3-22.6-53.7z"/><path fill="#1EA671" d="M188.60000000000002 953.1s19.2-17.3 39-6.2c19.8 11.2 25.5 35.2 43.8 34.8 0 0-37.9 24-57.7 10.2-19.8-13.8-9.2-31.7-25-38.8z"/><path fill="#2EB57F" d="M207.70000000000005 961s19.2-17.3 39-6.2c19.7 11.2 25.4 35.2 43.8 34.8 0 0-38 24-57.8 10.2-19.8-13.7-9.2-31.6-25-38.8z"/><path fill="#28A60A" d="M178.8 983s-7.5 42.3 53 45.5c0 0 5.4-41.5-53-45.4z"/><path fill="#06C38F" d="M232.5 996.3s-17.1 30.3 28.3 49.2c0 0 15.4-30.4-28.3-49.2z"/><path fill="#26B179" d="M182.8 924.3s37.2 3.2 44.8 30.8c7.5 27.6-13.5 52.7 3.2 68.7 0 0-41.3-10.3-46.6-40.2-5.3-30 6.3-38.7-1.4-59.3z"/><path fill="#159668" d="M228.20000000000005 979.5s-28 16.6-22 44.6 32.7 43.9 25.3 65.8c0 0 43.1-36.6 34-65.6-9.1-29-34.7-23-37.3-44.8z"/><path fill="#26900D" d="M205.29999999999995 1021.7s25.1 20.8 14.7 47.5c-10.4 26.7-39.3 38.1-35.5 60.9 0 0-36.8-43-23.1-70.2 13.6-27.2 37.9-17.2 44-38.2z"/><path fill="#045A3E" d="M146 1139s-28.5-15.9-49.6 3.4c-21.2 19.3-21.5 50.4-44.1 55 0 0 53.3 19 73.8-3.6 20.5-22.5 2.4-41.5 19.9-54.7z"/><path fill="#0A7954" d="M218 1119.5s-31.7 8-33.8 36.6c-2 28.5 19.2 51.3 6 70.2 0 0 51.6-23 51-53.4-.6-30.5-26.9-31.8-23.3-53.4z"/><path fill="#06C38F" d="M191.70000000000005 1052.9s-15.1-21-36.8-14.3c-21.7 6.8-32.3 29.1-50.1 24.9 0 0 32 31.4 54.3 22 22.2-9.3 15.6-29 32.6-32.6z"/><path fill="#045A3E" d="M159.2 1126.4s19.3-5.3 29.2 9.2c9.8 14.6 5.4 33.3 18.3 39.3 0 0-34.6 3.5-43.6-13-9-16.3 4.6-25-3.9-35.5z"/><path fill="#0A7954" d="M157.2 1136.1s-29.6-1-26 40.6c0 0 29-.3 26-40.6z"/><path fill="#0A7954" d="M153.8 1137.5s-37.8-17.2-57.7 30.2c0 0 37.6 15.4 57.7-30.2z"/><path fill="#08AE61" d="M166.89999999999998 1076.8s-24.6-16.6-43.5 20.7c0 0 24.7 15 43.5-20.7z"/><path fill="#06C38F" d="M218.5 1123.7s-25.6-34.4-69.5 7.5c0 0 26.6 32.3 69.5-7.5z"/><path fill="#045A3E" d="M180.2 1128.2s-7.4 42.3 53 45.5c0 0 5.4-41.6-53-45.5z"/><path fill="#046F4D" d="M176.10000000000002 1073.5s29.2 14.5 25.3 42.9c-4 28.3-29.5 46.2-20.6 67.4 0 0-45.6-33.3-38.6-63 7-29.6 32.9-25.4 34-47.3z"/><path fill="#045A3E" d="M171.39999999999998 1056.6s-15.1-21-36.8-14.2c-21.7 6.8-32.3 29-50.1 24.8 0 0 32 31.4 54.3 22.1 22.2-9.3 15.6-29 32.6-32.7z"/><path fill="#08AE61" d="M196.89999999999998 1069s-11.7-16.3-28.5-11c-16.8 5.2-25 22.5-38.8 19.2 0 0 24.7 24.3 42 17.1 17.2-7.2 12.1-22.5 25.3-25.3z"/><path fill="#0A7954" d="M232 1092.7s-17.7-9.3-30.4 2.9c-12.6 12.1-12.3 31.3-26 34.5 0 0 33 10.7 45.2-3.5 12.2-14.2.7-25.5 11.3-34zM211.89999999999998 1037.8s27.5-11 38.2 29.3c0 0-27.3 9.5-38.2-29.3z"/><path fill="#1EA671" d="M174.60000000000002 1077.6s32.4-28.3 66.4 21.8c0 0-32.8 26.1-66.4-21.8z"/><path fill="#045A3E" d="M195 1084.2s-1.6 43-61.4 33.4c0 0 3.5-41.8 61.4-33.4z"/><path fill="#045A3E" d="M139.7 1085.9s10.4 33.2-38 42.1c0 0-8.6-32.9 38-42.1z"/><path fill="#0A7954" d="M174.89999999999998 1102.9s-7 48.6-74 30.4c0 0 9-47 74-30.4z"/><path fill="#045A3E" d="M223.39999999999998 1016.2s-32.6 1.8-40.1 29.5c-7.5 27.6 9 54-7.7 70 0 0 55.1-12.6 60.3-42.6 5.3-30-20.2-36.4-12.5-57z"/><path fill="#045A3E" d="M190.89999999999998 1013.6s-32.6 1.9-40 29.5c-7.6 27.6 8.9 54-7.7 70.1 0 0 55-12.7 60.3-42.7 5.2-30-20.3-36.3-12.6-56.9z"/><path fill="#046F4D" d="M149 1012.7s29.2 14.5 25.3 42.9c-4 28.3-29.5 46.1-20.6 67.4 0 0-45.7-33.3-38.6-63 7-29.6 32.9-25.4 34-47.3z"/><path fill="#045A3E" d="M144.3 995.8s-15.1-21-36.8-14.2c-21.7 6.7-32.3 29-50.1 24.8 0 0 32 31.4 54.2 22 22.3-9.2 15.7-29 32.7-32.6z"/><path fill="#1EA671" d="M180.10000000000002 923.8s-.5-20-17.3-25.2c-16.8-5.1-33.4 4.4-42.9-6 0 0 6.7 34 25 37.8 18.3 3.8 22.7-11.7 35.2-6.6z"/><path fill="#0A7954" d="M169.8 1008.2s-11.8-16.3-28.5-11c-16.8 5.2-25 22.4-38.9 19.2 0 0 24.8 24.3 42 17 17.3-7.1 12.2-22.4 25.4-25.2z"/><path fill="#045A3E" d="M205 1031.8s-17.8-9.3-30.5 3c-12.6 12.1-12.3 31.3-26.1 34.5 0 0 33 10.7 45.2-3.5 12.2-14.2.8-25.6 11.3-34z"/><path fill="#1EA671" d="M207.89999999999998 981.7s27.5-11 38.1 29.3c0 0-27.2 9.5-38.1-29.3z"/><path fill="#045A3E" d="M147.5 1016.8s32.3-28.3 66.4 21.8c0 0-32.8 26-66.4-21.8zM112.60000000000002 1025s10.4 33.3-38 42.2c0 0-8.6-32.9 38-42.2z"/><path fill="#0A7954" d="M130.7 1022.8s24.2 42.7-39.8 69.3c0 0-21.7-42.7 39.8-69.3z"/><path fill="#045A3E" d="M174.39999999999998 927.2s-15.1-21-36.8-14.3c-21.7 6.8-32.3 29-50.1 24.8 0 0 32 31.5 54.2 22.1 22.3-9.3 15.7-29 32.7-32.6z"/><path fill="#045A3E" d="M194.39999999999998 951.9s-12-16.6-29.2-11.3c-17.2 5.4-25.6 23-39.7 19.7 0 0 25.3 24.9 43 17.5 17.6-7.4 12.4-23 25.9-26z"/><path fill="#1EA671" d="M196.79999999999995 934.1s-12-16.6-29.2-11.3c-17.2 5.4-25.6 23-39.8 19.7 0 0 25.4 24.9 43 17.5 17.7-7.4 12.5-23 26-25.9zM207.79999999999995 938.6s5-13.7 17.8-13.3c12.8.4 21.9 11 30.9 6 0 0-12.6 21.8-26.1 20-13.5-1.6-12.8-13.3-22.6-12.7zM178.89999999999998 973s10.1-17.3 27.3-13.7c17.2 3.6 27 20 40.5 15.5 0 0-22.4 26.5-40.2 21-17.9-5.6-14.2-21.3-27.6-22.8z"/><path fill="#0A7954" d="M140.8 983.5s19.3-5.3 29.2 9.2c9.8 14.6 5.4 33.3 18.3 39.3 0 0-34.6 3.5-43.6-12.9s4.6-25.1-3.9-35.6z"/><path fill="#0A7954" d="M146.2 1001.1s-32.7-17-51 31.7c0 0 32.7 15.1 51-31.7zM154.2 968.8s-17.5-24-48 4.6c0 0 18.1 22.5 48-4.6z"/><path fill="#046F4D" d="M192.39999999999998 978.4s-25.7-34.4-69.5 7.4c0 0 26.6 32.4 69.5-7.4z"/><path fill="#159668" d="M202.10000000000002 996.8s-3.4 49 65.9 45.3c0 0 1-47.9-65.9-45.3z"/><path fill="#046F4D" d="M203.70000000000005 943.4s-31.6 8-33.7 36.6c-2 28.6 19.1 51.4 6 70.3 0 0 51.6-23 51-53.5-.7-30.4-27-31.8-23.3-53.4z"/><path fill="#54044C" d="M454.1 1179.1h266l-37.6-141.4-5.2 1.8-14.3 10.1-42.4-10-53-3.9-24-2s-22.6 7.6-12.1 7.1c10.5-.4 14.8 5.9 48.8 11.5a372 372 0 0 0 50.7 3.6l-67.1 23.8L454 1179z" opacity=".5"/><path fill="#7F0B7A" d="M684.7 1179.1s-17.5 20.4-10.6 86h18.6l14.3-81.3v-4.7h-22.3M610.9 1179.1s-16 20.7 2.3 86h20v-81.3-4.7h-22.3"/><path fill="#E26259" d="M746.4 1024.2l-64.3 5.1a28.5 28.5 0 0 1-30.6-26.1l-1-13.7a28.5 28.5 0 0 1 26-30.7l64.3-5a28.5 28.5 0 0 1 30.6 26l1 13.8a28.5 28.5 0 0 1-26 30.6z"/><path stroke-linecap="round" stroke-miterlimit="10" stroke="#FFABAB" stroke-width="15.000150000000001" d="M567.3 1032.9h-19.8" fill="none"/><path stroke-miterlimit="10" stroke="#C3A7D8" stroke-width="16.00016" d="M691 1033.6000000000001s-27.8 2.9-54.4 2.7c-26.6-.1-69.3-3.4-69.3-3.4" fill="none"/><path fill="#E6D5EF" d="M747.6 1046.1c-3-22.6-15-36.7-36.5-35.8-21.5 1-29.3 18.9-28.4 40.4l1.1 96.5 78-3.3-14.1-97.8z"/><path fill="#F79F9F" d="M719.1 1018.6999999999999l-12 16.6-4.2-15.8-1.4-30.6 16.2-.7 1.4 30.5z"/><path fill="#FFABAB" d="M703.6 999.6l-7.4.6a27.6 27.6 0 0 1-29.6-25.2l-1.8-22.5a27.6 27.6 0 0 1 25.3-29.6l7.4-.5a27.6 27.6 0 0 1 29.6 25.2l1.8 22.4a27.6 27.6 0 0 1-25.3 29.6z"/><path fill="#3D2538" d="M677.8000000000001 974.6999999999999c-.7 0-1.4-.5-1.5-1.3l-.3-3.7c0-.8.6-1.5 1.3-1.5.8-.1 1.5.5 1.5 1.3l.3 3.7c0 .8-.5 1.4-1.3 1.5zM702.8000000000001 972.6999999999999c-.8 0-1.5-.5-1.5-1.3l-.3-3.7c0-.8.5-1.5 1.3-1.5.7 0 1.4.5 1.5 1.3l.3 3.7c0 .8-.5 1.5-1.3 1.5z"/><path fill="#EA5E5E" d="M686.6 923.4a27.6 27.6 0 0 0-21.8 29.1l.6 7.4c20.7.3 20.9-33.7 21.2-36.4z"/><path fill="#F46A67" d="M697.5 922.4l-7.4.5c-5 .4-9.5 2.1-13.3 4.8-4.8 16.8 10.3 40.2 44.9 27 2.1-.8 4.2-.5 5.9-1.2l-.5-6a27.6 27.6 0 0 0-29.6-25.1z"/><g style="-webkit-user-select:none"><path stroke-linecap="round" stroke-miterlimit="10" stroke="#F24C4C" stroke-width="2" d="M693.6 983.6999999999999a7.2 7.2 0 0 1-11.2.3" fill="none"/><g fill="none"><path d="M688.7 981.8a3.6 3.6 0 1 1-.7 7.3 3.6 3.6 0 0 1 .7-7.2z"/><path stroke="#F14B4B" stroke-width="2" d="M688.7 981.8a3.6 3.6 0 1 1-.7 7.3 3.6 3.6 0 0 1 .7-7.2z"/></g></g><path fill="#09273F" d="M744.9 1179.9l-60.5-.7-.8-37 78.1 1.7 2 22.2c-.9 9.5-9.4 14.8-18.8 13.8z"/><path stroke-miterlimit="10" stroke="#F9F993" stroke-width="1.6" d="M740.6 969.1999999999999a7 7 0 1 1-14.1 1.2 7 7 0 0 1 14-1.2z" fill="none"/><path fill="#FFABAB" d="M726.8000000000001 970.4h-.6a8.4 8.4 0 1 1-1.3-16.6h.5c4.6-.4 8.6 3 9 7.6.4 4.5-3 8.6-7.6 9z"/><path stroke-miterlimit="10" stroke="#F9F993" stroke-width="1.6" d="M740.6 969.1999999999999a7 7 0 1 1-12-4.4" fill="none"/><path stroke-miterlimit="10" stroke="#09273F" stroke-width="17" d="M688.8 1171.8s-42.9-21.5-57 12.6c-6.1 14.7-2 47.7 2.4 71.6" fill="none"/><path stroke-miterlimit="10" stroke="#FFF5F5" stroke-width="17" d="M634.2 1256c2.9 15.8 5.8 27.7 5.8 27.7" fill="none"/><path stroke-miterlimit="10" stroke="#113A56" stroke-width="17" d="M729 1170.8s-13-19.8-22 13c-4.4 16-7.5 50.5-9.3 74.4" fill="none"/><path fill="#113A56" d="M736.8 1168.8a8.3 8.3 0 1 1-16.7 0 8.3 8.3 0 0 1 16.7 0z"/><path stroke-miterlimit="10" stroke="#FFF5F5" stroke-width="17" d="M697.7 1258.2l-1.6 25.5" fill="none"/><path fill="#F99" d="M616 1095.7a29.5 29.5 0 1 1-59 0 29.5 29.5 0 0 1 59 0z"/><path fill="#EFEFEF" d="M599.8 1094.9a4.9 4.9 0 1 1-9.7 0 4.9 4.9 0 0 1 9.7 0z"/><path fill="#266E8E" d="M598 1095.9a3.4 3.4 0 1 1-6.8 0 3.4 3.4 0 0 1 6.8 0z"/><g style="-webkit-user-select:none"><path fill="#FF9898" d="M601 1080.8999999999999v7.5h-13.1v-7.5h13z"/><path stroke="#FFF" stroke-width="2" d="M601 1080.8999999999999v7.5h-13.1v-7.5h13z" fill="none"/></g><g style="-webkit-user-select:none"><path fill="#FF9898" d="M601 1100.8999999999999v7.5h-13.1v-7.5h13z"/><path stroke="#FFF" stroke-width="2" d="M601 1100.8999999999999v7.5h-13.1v-7.5h13z" fill="none"/></g><path fill="#EFEFEF" d="M581.4 1094.9a4.9 4.9 0 1 1-9.8 0 4.9 4.9 0 0 1 9.8 0z"/><path fill="#266E8E" d="M580.7 1095.9a3.4 3.4 0 1 1-6.8 0 3.4 3.4 0 0 1 6.8 0z"/><g style="-webkit-user-select:none"><path fill="#FF9898" d="M583 1080.8999999999999v7.5h-13.1v-7.5h13z"/><path stroke="#FFF" stroke-width="2" d="M583 1080.8999999999999v7.5h-13.1v-7.5h13z" fill="none"/></g><g style="-webkit-user-select:none"><path fill="#FF9898" d="M583 1100.8999999999999v7.5h-13.1v-7.5h13z"/><path stroke="#FFF" stroke-width="2" d="M583 1100.8999999999999v7.5h-13.1v-7.5h13z" fill="none"/></g><path stroke-linecap="round" stroke-miterlimit="10" stroke="#A85038" stroke-width="4.3" d="M590.8 1085.5l6.4 1.3M573.7 1085.5h6.6" fill="none"/><path fill="#DD7564" d="M584.9 1066.2l12.6-13s-16.9 0-12.6 13z"/><path fill="#E6D5EF" d="M560.6 1148.5v9.6s5.6 21 14.5 21h30.5s.8-15.4.1-21.7c-.6-6.4 0-13.8 0-13.8l-45 5z"/><path stroke-linecap="round" stroke-miterlimit="10" stroke="#F99" stroke-width="20.6" d="M600.6 1169.2h20M563.9 1169.2h-40.6" fill="none"/><path fill="#080F3A" d="M619.4 1158.8h-68.6a10 10 0 0 1-10-10v-41.4a10 10 0 0 1 10-10h68.6a10 10 0 0 1 10 10v41.4a10 10 0 0 1-10 10z"/><path stroke-linecap="round" stroke-miterlimit="10" stroke="#F28181" stroke-width="20.6" d="M523.3 1155.5v13.6M622 1155.5v13.6" fill="none"/><path stroke-miterlimit="10" stroke="#F99" stroke-width="14.5" d="M534.6 1115.2l12 8.7M635.4 1122.3l-13.5 5.2" fill="none"/><path stroke-linecap="round" stroke-miterlimit="10" stroke="#FFABAB" stroke-width="7.000139999999999" d="M686.1999999999999 1159.1999999999998l-5.2 9.6" fill="none"/><path stroke-linecap="round" stroke-miterlimit="10" stroke="#FFABAB" stroke-width="15.0003" d="M690.8 1158.3999999999999l-6.3 8.8" fill="none"/><path stroke-miterlimit="10" stroke="#C3A7D8" stroke-width="16" d="M733.9 1035.3s21.1 52.7 1.3 87.6c-13.7 24.1-30.2 29.1-41.3 34.7" fill="none"/><path fill="#C3A7D8" d="M741.6 1036.1a7.8 7.8 0 1 1-15.5-1.6 7.8 7.8 0 0 1 15.6 1.6z"/><path fill="#BC4B31" d="M678.6 504.1h-81.2a10 10 0 0 0-10 10v3.7a10 10 0 0 0 10 10h81.2a10 10 0 0 0 9.9-10V514a10 10 0 0 0-10-9.9z"/><path fill="#BC4B31" d="M649 532.7h75.5c2 0 3.8-1.7 3.8-3.8v-1.8c0-2-1.7-3.7-3.8-3.7H649c-2 0-3.7 1.6-3.7 3.7v1.8c0 2 1.7 3.8 3.7 3.8z"/><path stroke-linecap="round" stroke-miterlimit="10" stroke="#EF4868" stroke-width="13" d="M690.3 519.9v16.3" fill="none"/><path fill="#D36442" d="M729 499.70000000000005h-58.4a10 10 0 0 0-10 10v3.7a10 10 0 0 0 10 10H729a10 10 0 0 0 9.9-10v-3.8a10 10 0 0 0-10-9.9z"/><path fill="#D65D49" d="M651 532.6a70.8 70.8 0 0 0-141.6 0H651z"/><path stroke-linecap="round" stroke-miterlimit="10" stroke="#1B2D47" stroke-width="7" d="M517.8 500.1s-15.8 25.4-29.3 32.5" fill="none"/><path fill="#D36442" d="M675.4 472h16.3a22 22 0 0 1 21.8 21.9v7.6a22 22 0 0 1-21.8 21.9h-16.3a22 22 0 0 1-21.9-21.9V494a22 22 0 0 1 21.9-21.9z"/><path fill="#063651" d="M747.7 505.29999999999995a6.2 6.2 0 1 1-12.4 0 6.2 6.2 0 0 1 12.4 0z"/><path stroke-linecap="round" stroke-miterlimit="10" stroke="#1B2D47" stroke-width="3" d="M692.8 495.5s1-4 5.5-4c4.4 0 5.4 4 5.4 4" fill="none"/><path fill="#1B2D47" d="M664.5 521c8.6 0 15.7-7.2 15.7-15.8V495c0-8.6-7-15.7-15.7-15.7s-15.8 7-15.8 15.7v10.2c0 8.6 7.1 15.7 15.8 15.7z"/><path fill="#8066B5" d="M517.3 540.7v54s0 9 10.2 9c8.7 0 9-9 9-9v-31.3h21a17 17 0 0 0 17-17v-5.7-4.6c0-1.2-.2-2.4-.4-3.5h-56.7c-.2 2.3-.1 4.8-.1 8z"/><path fill="#BC4B31" d="M563.2 512h-21-6.3s-6.3 0-9.5 4.7c-4 5.8-3.4 9.3-3.4 16.8v54s0 9 10.2 9c8.7 0 9-9 9-9v-31.3h21a17 17 0 0 0 17-17v-5.7-4.6a17 17 0 0 0-17-17z"/><path fill="#8066B5" d="M614.1 532.6v68.9a9.5 9.5 0 1 0 19 0v-68.9h-19z"/><path stroke-linecap="round" stroke-miterlimit="10" stroke="#BC4B31" stroke-width="20" d="M630.2 518.4v75.1" fill="none"/><path fill="#31354C" d="M954.3 412a32.2 32.2 0 1 1-64 6.8 32.2 32.2 0 0 1 64-6.8z"/><path fill="#31354C" d="M968.3 441a38.3 38.3 0 1 1-76 8 38.3 38.3 0 0 1 76-8z"/><path fill="#31354C" d="M965 409.5a10.3 10.3 0 1 1-20.5 2.2 10.3 10.3 0 0 1 20.5-2.2z"/><path fill="#31354C" d="M967.4000000000001 424a6.1 6.1 0 1 1-12.2 1.3 6.1 6.1 0 0 1 12.2-1.3z"/><path fill="#31354C" d="M970.4000000000001 433.79999999999995A6.1 6.1 0 1 1 958 435a6.1 6.1 0 0 1 12.3-1.2z"/><path fill="#31354C" d="M973.5999999999999 444.29999999999995a6.1 6.1 0 1 1-12.3 1.3 6.1 6.1 0 0 1 12.3-1.3z"/><path fill="#31354C" d="M973 453.4a6.1 6.1 0 1 1-12.3 1.3 6.1 6.1 0 0 1 12.3-1.3z"/><path fill="#31354C" d="M968.9000000000001 462a6.1 6.1 0 1 1-12.2 1.3 6.1 6.1 0 0 1 12.2-1.2z"/><path fill="#31354C" d="M962.7 471.4a6.1 6.1 0 1 1-12.2 1.2 6.1 6.1 0 0 1 12.2-1.2z"/><path fill="#31354C" d="M954.7 478.6a6.1 6.1 0 1 1-12.3 1.3 6.1 6.1 0 0 1 12.3-1.3z"/><path fill="#474799" d="M943 558l-60.5-10 20.5-87.3h42l-2 97.3z"/><path fill="#31717C" d="M883 561.4h62v-17.3h-62v17.3z"/><path stroke-miterlimit="10" stroke="#31717C" stroke-width="17" d="M933.0999999999999 552.9s25.3-2.9 32.6 19.2c3.7 11.3-6 42.7-11.6 72.3" fill="none"/><path stroke-miterlimit="10" stroke="#FFF4F4" stroke-width="17" d="M958 625.6l-3.9 18.8" fill="none"/><path stroke-miterlimit="10" stroke="#F49090" stroke-width="14" d="M947 476.70000000000005c10 16 24.2 44.7 12.3 62.4-10.3 15.3-20.8 17.4-20.8 17.4" fill="none"/><path stroke-miterlimit="10" stroke="#464698" stroke-width="16" d="M939.2 465s13.4 17.4 20.4 37" fill="none"/><path fill="#E57A7A" d="M914 445.4l11.5-3.2L931 462l-11.6 3.2-5.4-19.7z"/><path fill="#F49090" d="M942.8 422.5A31 31 0 1 0 881 429a31 31 0 0 0 61.7-6.5z"/><path stroke-miterlimit="10" stroke="#474799" stroke-width="14" d="M907 467.20000000000005s-22 17.3-30.5 41.8c-8.9 25.7-6 32-2.6 45" fill="none"/><path stroke-miterlimit="10" stroke="#F38F8F" stroke-width="14" d="M880.9000000000001 499a74 74 0 0 0-4.4 10c-8.9 25.7-6 32-2.6 45" fill="none"/><path fill="#101751" d="M863.7 557v-1.5c-.6-2.7-2.6-4.8-7.6-4.8l-45.8-.2c-5 0-8.2 2.1-7.5 4.7l-.1 1.5c.7 2.6 2.5 4.8 7.5 4.8l45.8.2c4.9 0 8.3-2.1 7.7-4.8z"/><path stroke-miterlimit="10" stroke="#31717C" stroke-width="17" d="M892 552.9s-25.2-2.9-32.5 19.2C856 582.7 853 616 859 647" fill="none"/><path stroke-miterlimit="10" stroke="#FFF4F4" stroke-width="17" d="M856.4000000000001 627.6c.5 6.4 1.4 13 2.7 19.4" fill="none"/><path stroke-miterlimit="10" stroke="#F38F8F" stroke-width="14" d="M870.7 533.7c-.5 7.7 1.3 13 3.2 20.3" fill="none"/><path fill="#101751" d="M912.7 433.1a2.8 2.8 0 1 1-5.6.6 2.8 2.8 0 0 1 5.6-.6zM902.2 433.70000000000005a2.8 2.8 0 1 1-5.6.5 2.8 2.8 0 0 1 5.6-.6z"/><path fill="#31354C" d="M910.2 393.20000000000005a14.4 14.4 0 1 1-28.6 3 14.4 14.4 0 0 1 28.6-3zM946.2 406.9a8.7 8.7 0 1 1-17.4 1.8 8.7 8.7 0 0 1 17.4-1.8z"/><path fill="#31354C" d="M956.8 395.70000000000005a13 13 0 1 1-26 2.8 13 13 0 0 1 26-2.8z"/><path fill="#31354C" d="M938 390.5a18.3 18.3 0 1 1-36.3 3.8 18.3 18.3 0 0 1 36.4-3.8zM894.5999999999999 403.5a12 12 0 1 1-24 2.6 12 12 0 0 1 24-2.6z"/><path stroke-linecap="round" stroke-miterlimit="10" stroke="#9E5643" stroke-width="3" d="M911 444l-5.2 1h-4.7" fill="none"/><path stroke-linecap="round" stroke-miterlimit="10" stroke="#31354C" stroke-width="4" d="M909 424.20000000000005l9.7-2.2M892.0999999999999 424.5l9.6 3" fill="none"/></g></svg>