<svg id="Layer_1" xmlns="http://www.w3.org/2000/svg" xmlns:xlink="http://www.w3.org/1999/xlink" viewBox="0 0 910 668"><style>.st2{fill:#bbe217}.st3{fill:#b3ce11}.st13,.st18,.st4,.st7{fill:none;stroke-miterlimit:10}.st4{stroke-linecap:round;stroke:#a30c38;stroke-width:13}.st13,.st18,.st7{stroke:#3872a0;stroke-width:15}.st13,.st18{stroke:#ffb199}.st18{stroke:#f9f5ca;stroke-width:6.0002;stroke-linecap:round}</style><linearGradient id="SVGID_1_" gradientUnits="userSpaceOnUse" x1="455" x2="455" y2="668"><stop offset="0" stop-color="#f2b090"/><stop offset="1" stop-color="#f07991"/></linearGradient><path fill="url(#SVGID_1_)" d="M0 0h910v668H0z"/><defs><path id="SVGID_2_" d="M0 0h910v668H0z"/></defs><clipPath id="SVGID_3_"><use xlink:href="#SVGID_2_" overflow="visible"/></clipPath><g clip-path="url(#SVGID_3_)"><path class="st2" d="M646.6 246.7l-25.3 3.7-7.3-14.6 32.6 10.9z"/><path class="st3" d="M646.6 246.7L614 235.8l14.6-7.3 18 18.2z"/><path class="st2" d="M633.6 179.6l-15.5 48.2 21.4-11-5.9-37.2z"/><path class="st3" d="M633.6 179.6l-15.5 48.2-11-21.5 26.5-26.7z"/><path class="st2" d="M571 261.4l40.5-30.4-23.8-3.4-16.7 33.8z"/><path class="st3" d="M571 261.4l40.5-30.4-3.5 24-37 6.4z"/><path class="st2" d="M660 321.5l-21.5-45.8-8.2 22.6 29.7 23.2z"/><path class="st3" d="M660 321.5l-21.5-45.8 22.7 8.3-1.2 37.5z"/><path class="st2" d="M683.6 196.3l26.1-43.3-23.3 5.8-2.8 37.5z"/><path class="st3" d="M683.6 196.3l26.1-43.3 5.8 23.5-31.9 19.8z"/><path class="st2" d="M862 203.7l-43.3 26.1 5.8-23.3 37.5-2.8zM715.1 114.2l.2 25.6 15.6 4.9-15.8-30.5z"/><path class="st3" d="M715.1 114.2l15.8 30.5 4.9-15.6-20.7-14.9z"/><path class="st4" d="M701.4 276.1h114m-200-63.6v18.4c0 33.5 13.9 45.2 45.2 45.2h61.3m93.6-26.6V195c0-33.5-13.9-45.2-45.2-45.2H709"/><path class="st2" d="M590.1 192.8l22.7 11.7-2.6 16.1-20.1-27.8z"/><path class="st3" d="M590.1 192.8l20.1 27.8-16.1-2.6-4-25.2z"/><path class="st2" d="M779.9 235.2l25.6.2 4.9 15.6-30.5-15.8z"/><path class="st3" d="M779.9 235.2l30.5 15.8-15.6 4.9-14.9-20.7z"/><path class="st4" d="M915.2 335.5h-54.5c-33.5 0-45.2-13.9-45.2-45.2V229"/><path d="M520.1 431c19.6-.6 39-3.8 46.9 14 4.9 11 5.5 30.2-1 63.1" fill="none" stroke="#f99d85" stroke-width="15" stroke-miterlimit="10"/><path d="M123.4 339.8S206.1 461.7 318 494c60.5 17.5 290.2-22.8 414.7-95.4l-4-1.7c-35.9 10-172.8 44.1-324.5 33.2-95.4-6.9-192.5-31.1-276.4-93.3-2-1.6-4.4 3-4.4 3z" fill="#330212"/><path class="st7" d="M486 450s32.9-18.1 64.1-19"/><path d="M466 449.5s32.9-18.1 64.1-19" fill="none" stroke="#295577" stroke-width="15" stroke-miterlimit="10"/><path d="M380.5 394.5l-3.2.8c-2.3.6-4.7-.8-5.3-3.1l-13.6-51.4c-.6-2.3.8-4.7 3.1-5.3l3.2-.8c2.3-.6 4.7.8 5.3 3.1l13.6 51.4c.6 2.3-.8 4.7-3.1 5.3z" fill="#101751"/><path d="M376.4 390.9l-1.2.3c-1 .3-2-.3-2.3-1.3l-12.6-47.8c-.3-1 .3-2 1.3-2.3l1.2-.3c1-.3 2 .3 2.3 1.3l12.6 47.8c.3 1-.3 2.1-1.3 2.3z" fill="#e2e6f7"/><path d="M321.5 353l14.5.4 13.5.4" fill="none" stroke="#ffa992" stroke-width="7" stroke-linecap="round" stroke-miterlimit="10"/><path d="M325.9 357.1s-1.5-.2-4-.2c-16.3-.4-74.7 2.8-38.5 75.1" fill="none" stroke="#ffa992" stroke-width="15" stroke-linecap="round" stroke-miterlimit="10"/><path class="st13" d="M373.8 367.4s22.5 16.6 21 43.2c-2.1 36.9-38.1 51.9-82.1 36.9"/><path class="st7" d="M486 447.5s32.9-18.1 64.1-19"/><path d="M252.6 384.3c0 21.3-22.6 52.7-38.6 38.6-14-12.4-38.6-17.3-38.6-38.6a38.6 38.6 0 0 1 77.2-1.2v1.2z" fill="#ffb199"/><path d="M182.1 386.8s72.4-21.3 45.7-64.6c0 0-1.8 6.6-10.3 11.4-5.5 3.1-15.8 3.6-23.5 6.9-19.6 8.4-22.5 30.5-11.9 46.3z" fill="#c65e00"/><path d="M239.9 372.8l-1.6-2.8" fill="none" stroke="#101751" stroke-width="3" stroke-linecap="round" stroke-miterlimit="10"/><path d="M123.4 339.8S206.1 461.7 318 494c60.5 17.5 290.2-22.8 414.7-95.4l-4-1.7c-35.9 10-172.8 54.1-324.5 43.2a530.1 530.1 0 0 1-276.4-103.3c-2-1.6-4.4 3-4.4 3z" fill="#5e0422"/><path class="st18" d="M126.5 338.9L-.4 166m731.7 230.6l120.8-63 .2-7"/><path d="M845 326l11.5 18.9" fill="none" stroke="#f9f5ca" stroke-width="6" stroke-linecap="round" stroke-miterlimit="10"/><path class="st13" d="M550.1 428.5c11.4-.3 23.4 1 33.3 8 17.7 12.5 13.1 49.6 18 115.1"/><path class="st18" d="M727.4 395.3l2.8 5.4m-600.6-64.5l-6 5.6"/></g></svg>