<svg xmlns="http://www.w3.org/2000/svg" viewBox="0 0 1596 846" width="1596" height="846" preserveAspectRatio="xMidYMid meet" style="width: 100%; height: 100%;"><defs><clipPath id="animationMask_nVaGPo5TSC"><rect width="1596" height="846" x="0" y="0"></rect></clipPath><linearGradient id="gr_vVV4WiaBFN" spreadMethod="pad" gradientUnits="userSpaceOnUse" x1="552" y1="572" x2="751.49" y2="1029.477"><stop offset="0%" stop-color="rgb(255,255,255)"></stop><stop offset="50%" stop-color="rgb(255,255,255)"></stop><stop offset="100%" stop-color="rgb(255,255,255)"></stop></linearGradient><linearGradient id="op_9nDZ2ifRXj" spreadMethod="pad" gradientUnits="userSpaceOnUse" x1="552" y1="572" x2="751.49" y2="1029.477"><stop stop-color="rgb(255,255,255)" offset="0%" stop-opacity="0.3"></stop><stop stop-color="rgb(255,255,255)" offset="50%" stop-opacity="0.15"></stop><stop stop-color="rgb(255,255,255)" offset="100%" stop-opacity="0"></stop></linearGradient><mask id="mk_G6lFrmpzec"><path fill="url(#op_9nDZ2ifRXj)" d="M0 0 M685.361,441.782 C664.4399999999999,406.251 625.994,382.283 581.903,381.757 C581.7280000000001,381.755 581.5459999999999,381.738 581.372,381.738 C581.213,381.738 581.056,381.74300000000005 580.898,381.744 C580.74,381.74300000000005 580.581,381.738 580.423,381.738 C513.211,381.738 458.725,436.224 458.725,503.436 C458.725,503.436 458.725,778.128 458.725,778.128 C458.725,778.128 459.674,778.128 459.674,778.128 C459.674,778.128 562.891,1384.75 562.891,1384.75 C562.891,1384.75 1163.991,1398.25 1163.991,1398.25 C1163.991,1398.25 1163.991,1187.358 1163.991,1187.358 C1163.991,1187.358 685.361,441.782 685.361,441.782z"></path></mask><linearGradient id="gr_v3n1suOQU1" spreadMethod="pad" gradientUnits="userSpaceOnUse" x1="1228" y1="612" x2="1632.98" y2="995.981"><stop offset="0%" stop-color="rgb(255,255,255)"></stop><stop offset="50%" stop-color="rgb(255,255,255)"></stop><stop offset="100%" stop-color="rgb(255,255,255)"></stop></linearGradient><linearGradient id="op_SqyYtYm9WQ" spreadMethod="pad" gradientUnits="userSpaceOnUse" x1="1228" y1="612" x2="1632.98" y2="995.981"><stop stop-color="rgb(255,255,255)" offset="0%" stop-opacity="0.3"></stop><stop stop-color="rgb(255,255,255)" offset="50%" stop-opacity="0.15"></stop><stop stop-color="rgb(255,255,255)" offset="100%" stop-opacity="0"></stop></linearGradient><mask id="mk_ioS3BpyJOt"><path fill="url(#op_SqyYtYm9WQ)" d="M0 0 M1319.107,409.882 C1298.009,392.311 1270.8790000000001,381.738 1241.277,381.738 C1174.065,381.738 1119.578,436.224 1119.578,503.436 C1119.578,503.436 1119.578,778.128 1119.578,778.128 C1119.578,778.128 1423.062,1181.045 1423.062,1181.045 C1423.062,1181.045 2024.162,1194.544 2024.162,1194.544 C2024.162,1194.544 2024.162,983.653 2024.162,983.653 C2024.162,983.653 1319.107,409.882 1319.107,409.882z"></path></mask></defs><g clip-path="url(#animationMask_nVaGPo5TSC)"><g transform="matrix(1,0,0,1,-324,-234)" opacity="1" style="-webkit-user-select: none;"><g opacity="1" transform="matrix(1,0,0,1,0,0)"><path fill="rgb(204,23,89)" fill-opacity="1" d="M0 0 M1928,1089.753 C1928,1089.753 315.074,1090 315.074,1090 C315.074,1090 314.148,227.753 314.148,227.753 C314.148,227.753 1927.074,227.507 1927.074,227.507 C1927.074,227.507 1928,1089.753 1928,1089.753z"></path></g></g><g transform="matrix(1,0,0,1,-333.5,-234)" opacity="1" style="-webkit-user-select: none;"><g opacity="1" transform="matrix(1,0,0,1,0,0)"><path fill="rgb(226,224,150)" fill-opacity="1" d="M0 0 M702.122,503.436 C702.122,436.224 647.635,381.738 580.423,381.738 C513.211,381.738 458.725,436.224 458.725,503.436 C458.725,503.436 458.725,778.128 458.725,778.128 C458.725,778.128 702.914,778.128 702.914,778.128 C702.914,778.128 702.914,503.436 702.914,503.436 C702.914,503.436 702.122,503.436 702.122,503.436z"></path></g><g opacity="1" transform="matrix(1,0,0,1,0,0)"><path stroke-linecap="butt" stroke-linejoin="miter" fill-opacity="0" stroke-miterlimit="10" stroke="rgb(204,23,89)" stroke-opacity="1" stroke-width="16.714" d="M0 0 M580.819,793.921 C580.819,793.921 580.819,363.758 580.819,363.758"></path></g><g opacity="1" transform="matrix(1,0,0,1,0,0)"><path stroke-linecap="butt" stroke-linejoin="miter" fill-opacity="0" stroke-miterlimit="10" stroke="rgb(204,23,89)" stroke-opacity="1" stroke-width="9" d="M0 0 M365.738,491.756 C365.738,491.756 795.901,491.756 795.901,491.756"></path></g><g opacity="1" transform="matrix(1,0,0,1,0,0)"><path stroke-linecap="butt" stroke-linejoin="miter" fill-opacity="0" stroke-miterlimit="10" stroke="rgb(204,23,89)" stroke-opacity="1" stroke-width="9" d="M0 0 M365.738,636.848 C365.738,636.848 795.901,636.848 795.901,636.848"></path></g><g opacity="1" transform="matrix(1,0,0,1,0,0)"><path fill="url(#gr_vVV4WiaBFN)" mask="url(#mk_G6lFrmpzec)" fill-opacity="1" d="M0 0 M685.361,441.782 C664.4399999999999,406.251 625.994,382.283 581.903,381.757 C581.7280000000001,381.755 581.5459999999999,381.738 581.372,381.738 C581.213,381.738 581.056,381.74300000000005 580.898,381.744 C580.74,381.74300000000005 580.581,381.738 580.423,381.738 C513.211,381.738 458.725,436.224 458.725,503.436 C458.725,503.436 458.725,778.128 458.725,778.128 C458.725,778.128 459.674,778.128 459.674,778.128 C459.674,778.128 562.891,1384.75 562.891,1384.75 C562.891,1384.75 1163.991,1398.25 1163.991,1398.25 C1163.991,1398.25 1163.991,1187.358 1163.991,1187.358 C1163.991,1187.358 685.361,441.782 685.361,441.782z"></path></g></g><g transform="matrix(1,0,0,1,-324,-234)" opacity="1" style="-webkit-user-select: none;"><g opacity="1" transform="matrix(1,0,0,1,0,0)"><path stroke-linecap="butt" stroke-linejoin="miter" fill-opacity="0" stroke-miterlimit="10" stroke="rgb(204,23,89)" stroke-opacity="1" stroke-width="9" d="M0 0 M1029.219,491.756 C1029.219,491.756 1459.382,491.756 1459.382,491.756"></path></g><g opacity="1" transform="matrix(1,0,0,1,0,0)"><path stroke-linecap="butt" stroke-linejoin="miter" fill-opacity="0" stroke-miterlimit="10" stroke="rgb(204,23,89)" stroke-opacity="1" stroke-width="9" d="M0 0 M1029.219,636.848 C1029.219,636.848 1459.382,636.848 1459.382,636.848"></path></g><g opacity="1" transform="matrix(1,0,0,1,0,0)"><path fill="rgb(226,224,150)" fill-opacity="1" d="M0 0 M1362.975,503.436 C1362.975,436.224 1308.489,381.738 1241.277,381.738 C1174.065,381.738 1119.578,436.224 1119.578,503.436 C1119.578,503.436 1119.578,778.128 1119.578,778.128 C1119.578,778.128 1363.767,778.128 1363.767,778.128 C1363.767,778.128 1363.767,503.436 1363.767,503.436 C1363.767,503.436 1362.975,503.436 1362.975,503.436z"></path></g><g opacity="1" transform="matrix(1,0,0,1,0,0)"><path stroke-linecap="butt" stroke-linejoin="miter" fill-opacity="0" stroke-miterlimit="10" stroke="rgb(204,23,89)" stroke-opacity="1" stroke-width="16.714" d="M0 0 M1241.673,793.921 C1241.673,793.921 1241.673,363.758 1241.673,363.758"></path></g><g opacity="1" transform="matrix(1,0,0,1,0,0)"><path stroke-linecap="butt" stroke-linejoin="miter" fill-opacity="0" stroke-miterlimit="10" stroke="rgb(204,23,89)" stroke-opacity="1" stroke-width="9" d="M0 0 M1026.592,491.756 C1026.592,491.756 1456.754,491.756 1456.754,491.756"></path></g><g opacity="1" transform="matrix(1,0,0,1,0,0)"><path stroke-linecap="butt" stroke-linejoin="miter" fill-opacity="0" stroke-miterlimit="10" stroke="rgb(204,23,89)" stroke-opacity="1" stroke-width="9" d="M0 0 M1026.592,636.848 C1026.592,636.848 1456.754,636.848 1456.754,636.848"></path></g><g opacity="1" transform="matrix(1,0,0,1,0,0)"><path fill="url(#gr_v3n1suOQU1)" mask="url(#mk_ioS3BpyJOt)" fill-opacity="1" d="M0 0 M1319.107,409.882 C1298.009,392.311 1270.8790000000001,381.738 1241.277,381.738 C1174.065,381.738 1119.578,436.224 1119.578,503.436 C1119.578,503.436 1119.578,778.128 1119.578,778.128 C1119.578,778.128 1423.062,1181.045 1423.062,1181.045 C1423.062,1181.045 2024.162,1194.544 2024.162,1194.544 C2024.162,1194.544 2024.162,983.653 2024.162,983.653 C2024.162,983.653 1319.107,409.882 1319.107,409.882z"></path></g></g><g transform="matrix(1,0,0,1,-243,-234)" opacity="1" style="-webkit-user-select: none;"><g opacity="1" transform="matrix(1,0,0,1,0,0)"><path fill="rgb(54,78,79)" fill-opacity="1" d="M0 0 M1125.669,1077.77 C1125.669,1077.77 1056.665,1077.77 1056.665,1077.77 C1056.665,1077.77 1059.667,1066.333 1059.667,1066.333 C1059.667,1066.333 1121.667,1066.333 1121.667,1066.333 C1121.667,1066.333 1125.669,1077.77 1125.669,1077.77z"></path></g></g><g transform="matrix(1,0,0,1,-243,-234)" opacity="1" style="-webkit-user-select: none;"><g opacity="1" transform="matrix(1,0,0,1,0,0)"><path fill="rgb(58,64,73)" fill-opacity="1" d="M0 0 M1051.261,1071.352 C1051.261,1076.2330000000002 1047.304,1080.19 1042.423,1080.19 C1037.542,1080.19 1033.585,1076.2330000000002 1033.585,1071.352 C1033.585,1066.471 1037.542,1062.514 1042.423,1062.514 C1047.304,1062.514 1051.261,1066.471 1051.261,1071.352z"></path></g></g><g transform="matrix(1,0,0,1,-243,-234)" opacity="1" style="-webkit-user-select: none;"><g opacity="1" transform="matrix(1,0,0,1,0,0)"><path fill="rgb(58,64,73)" fill-opacity="1" d="M0 0 M1149.01,1071.352 C1149.01,1076.2330000000002 1145.053,1080.19 1140.172,1080.19 C1135.291,1080.19 1131.334,1076.2330000000002 1131.334,1071.352 C1131.334,1066.471 1135.291,1062.514 1140.172,1062.514 C1145.053,1062.514 1149.01,1066.471 1149.01,1071.352z"></path></g></g><g transform="matrix(1,0,0,1,-243,-234)" opacity="1" style="-webkit-user-select: none;"><g opacity="1" transform="matrix(1,0,0,1,0,0)"><path fill="rgb(103,123,147)" fill-opacity="1" d="M0 0 M1031.623,1075.99 C1031.623,1075.99 1150.669,1075.99 1150.669,1075.99 C1158.641,1075.99 1165.163,1069.468 1165.163,1061.496 C1165.163,1061.496 1165.163,1061.496 1165.163,1061.496 C1165.163,1061.496 1017.129,1061.496 1017.129,1061.496 C1017.129,1061.496 1017.129,1061.496 1017.129,1061.496 C1017.129,1069.468 1023.6510000000001,1075.99 1031.623,1075.99z"></path></g></g><g transform="matrix(1,0,0,1,-243,-234)" opacity="1" style="-webkit-user-select: none;"><g opacity="1" transform="matrix(1,0,0,1,0,0)"><path fill="rgb(141,201,204)" fill-opacity="1" d="M0 0 M1150.669,1047.002 C1150.669,1047.002 1031.623,1047.002 1031.623,1047.002 C1023.6510000000001,1047.002 1017.129,1053.5240000000001 1017.129,1061.496 C1017.129,1061.496 1165.163,1061.496 1165.163,1061.496 C1165.163,1053.5240000000001 1158.641,1047.002 1150.669,1047.002z"></path></g></g><g transform="matrix(1,0,0,1,-333.5,-234)" opacity="1" style="-webkit-user-select: none;"><g opacity="1" transform="matrix(1,0,0,1,0,0)"><path fill="rgb(91,64,59)" fill-opacity="1" d="M0 0 M497.683,1059.135 C497.683,1059.135 351.506,1059.135 351.506,1059.135 C351.506,1059.135 351.506,956.99 351.506,956.99 C351.506,956.99 497.683,956.99 497.683,956.99 C497.683,956.99 497.683,1059.135 497.683,1059.135z"></path></g></g><g transform="matrix(1,0,0,1,-333.5,-234)" opacity="1" style="-webkit-user-select: none;"><g opacity="1" transform="matrix(1,0,0,1,0,0)"><path fill="rgb(91,64,59)" fill-opacity="1" d="M0 0 M364.34,1080 C364.34,1080 351.506,1080 351.506,1080 C351.506,1080 351.506,977.854 351.506,977.854 C351.506,977.854 364.34,977.854 364.34,977.854 C364.34,977.854 364.34,1080 364.34,1080z"></path></g></g><g transform="matrix(1,0,0,1,-333.5,-234)" opacity="1" style="-webkit-user-select: none;"><g opacity="1" transform="matrix(1,0,0,1,0,0)"><path fill="rgb(91,64,59)" fill-opacity="1" d="M0 0 M497.683,1080 C497.683,1080 484.85,1080 484.85,1080 C484.85,1080 484.85,977.854 484.85,977.854 C484.85,977.854 497.683,977.854 497.683,977.854 C497.683,977.854 497.683,1080 497.683,1080z"></path></g></g><g transform="matrix(1,0,0,1,-333.5,-234)" opacity="1" style="-webkit-user-select: none;"><g opacity="1" transform="matrix(1,0,0,1,0,0)"><path fill="rgb(68,45,42)" fill-opacity="1" d="M0 0 M507.506,960 C507.506,960 351.506,960 351.506,960 C351.506,960 351.506,948.104 351.506,948.104 C351.506,948.104 507.506,948.104 507.506,948.104 C507.506,948.104 507.506,960 507.506,960z"></path></g></g><g transform="matrix(1,0,0,1,-333.5,-234)" opacity="1" style="-webkit-user-select: none;"><g opacity="1" transform="matrix(1,0,0,1,0,0)"><path stroke-linecap="butt" stroke-linejoin="miter" fill-opacity="0" stroke-miterlimit="10" stroke="rgb(48,51,51)" stroke-opacity="1" stroke-width="2" d="M0 0 M362,942.244 C362,942.244 335.501,947.005 341.501,974.505 C347.501,1002.005 350.53,1044.147 344.385,1053.897 C339.092,1062.2949999999998 334.074,1059 334.074,1059"></path></g></g><g transform="matrix(1,0,0,1,-333.5,-234)" opacity="1" style="-webkit-user-select: none;"><g opacity="1" transform="matrix(1,0,0,1,0,0)"><path fill="rgb(48,51,51)" fill-opacity="1" d="M0 0 M333.074,1062.971 C333.074,1062.971 336.667,1062.971 336.667,1062.971 C337.95,1062.971 339,1061.5529999999999 339,1059.819 C339,1059.819 339,1059.819 339,1059.819 C339,1058.085 337.95,1056.667 336.667,1056.667 C336.667,1056.667 333.074,1056.667 333.074,1056.667"></path></g></g><g transform="matrix(1,0,0,1,-333.5,-234)" opacity="1" style="-webkit-user-select: none;"><g opacity="1" transform="matrix(1,0,0,1,0,0)"><path fill="rgb(155,155,155)" fill-opacity="1" d="M0 0 M336.037,1069.667 C336.037,1069.667 333.074,1069.667 333.074,1069.667 C333.074,1069.667 333.074,1054.001 333.074,1054.001 C333.074,1054.001 336.037,1054.001 336.037,1054.001 C336.037,1054.001 336.037,1069.667 336.037,1069.667z"></path></g></g><g transform="matrix(1,0,0,1,-333.5,-234)" opacity="1" style="-webkit-user-select: none;"><g opacity="1" transform="matrix(1,0,0,1,0,0)"><path fill="rgb(8,15,58)" fill-opacity="1" d="M0 0 M488.573,948.104 C488.573,948.104 357.756,948.104 357.756,948.104 C357.756,948.104 357.756,936.384 357.756,936.384 C357.756,936.384 477.97,936.384 477.97,936.384 C477.97,936.384 488.573,948.104 488.573,948.104z"></path></g></g><g transform="matrix(1,0,0,1,-333.5,-234)" opacity="1" style="-webkit-user-select: none;"><g opacity="1" transform="matrix(1,0,0,1,0,0)"><path fill="rgb(17,28,73)" fill-opacity="1" d="M0 0 M484.434,936.384 C484.434,936.384 357.756,936.384 357.756,936.384 C357.756,936.384 357.756,924.664 357.756,924.664 C357.756,924.664 473.831,924.664 473.831,924.664 C473.831,924.664 484.434,936.384 484.434,936.384z"></path></g></g><g transform="matrix(1,0,0,1,-333.5,-234)" opacity="1" style="-webkit-user-select: none;"><g opacity="1" transform="matrix(1,0,0,1,0,0)"><path fill="rgb(25,39,86)" fill-opacity="1" d="M0 0 M480.295,924.664 C480.295,924.664 357.756,924.664 357.756,924.664 C357.756,924.664 361.895,912.944 361.895,912.944 C361.895,912.944 469.692,912.944 469.692,912.944 C469.692,912.944 480.295,924.664 480.295,924.664z"></path></g></g><g transform="matrix(1,0,0,1,-324,-234)" opacity="1" style="-webkit-user-select: none;"><g opacity="1" transform="matrix(1,0,0,1,0,0)"><path stroke-linecap="butt" stroke-linejoin="miter" fill-opacity="0" stroke-miterlimit="10" stroke="rgb(134,146,163)" stroke-opacity="1" stroke-width="7.287" d="M0 0 M1228.438,798.677 C1228.438,798.677 1346.852,1078.771 1346.852,1078.771"></path></g><g opacity="1" transform="matrix(1,0,0,1,0,0)"><path stroke-linecap="butt" stroke-linejoin="miter" fill-opacity="0" stroke-miterlimit="10" stroke="rgb(134,146,163)" stroke-opacity="1" stroke-width="7.287" d="M0 0 M1333.411,885.414 C1332.045,887.236 1243.856,1078.771 1243.856,1078.771"></path></g><g opacity="1" transform="matrix(1,0,0,1,0,0)"><path stroke-linecap="butt" stroke-linejoin="miter" fill-opacity="0" stroke-miterlimit="10" stroke="rgb(181,181,181)" stroke-opacity="1" stroke-width="7.287" d="M0 0 M1255.311,881.571 C1255.311,881.571 1321.348,881.571 1321.348,881.571 C1321.348,881.571 1340.932,883.395 1341.387,897.74"></path></g><g opacity="1" transform="matrix(1,0,0,1,0,0)"><path stroke-linecap="butt" stroke-linejoin="miter" fill-opacity="0" stroke-miterlimit="10" stroke="rgb(181,181,181)" stroke-opacity="1" stroke-width="7.287" d="M0 0 M1224.338,792.757 C1224.338,792.757 1234.219,791.845 1236.565,798.677 C1238.911,805.509 1251.662,836.022 1251.662,836.022"></path></g><g opacity="1" transform="matrix(1,0,0,1,0,0)"><path stroke-linecap="round" stroke-linejoin="miter" fill-opacity="0" stroke-miterlimit="10" stroke="rgb(134,146,163)" stroke-opacity="1" stroke-width="7.287" d="M0 0 M1326.695,1031.091 C1326.695,1031.091 1341.387,1025.52 1341.387,1025.52"></path></g></g><g transform="matrix(1,0,0,1,-324,-234)" opacity="1" style="-webkit-user-select: none;"><g opacity="1" transform="matrix(1,0,0,1,0,0)"><path fill="rgb(196,121,101)" fill-opacity="1" d="M0 0 M1551.164,815.129 C1551.164,815.129 1422.503,815.129 1422.503,815.129 C1422.503,815.129 1422.503,804.667 1422.503,804.667 C1422.503,804.667 1551.164,804.667 1551.164,804.667 C1551.164,804.667 1551.164,815.129 1551.164,815.129z"></path></g></g><g transform="matrix(1,0,0,1,-324,-234)" opacity="1" style="-webkit-user-select: none;"><g opacity="1" transform="matrix(1,0,0,1,0,0)"><path fill="rgb(72,77,81)" fill-opacity="1" d="M0 0 M1508.789,918.186 C1508.789,918.186 1443.802,918.186 1443.802,918.186 C1443.802,918.186 1433.795,901.099 1433.795,901.099 C1433.795,901.099 1518.795,901.099 1518.795,901.099 C1518.795,901.099 1508.789,918.186 1508.789,918.186z"></path></g></g><g transform="matrix(1,0,0,1,-324,-234)" opacity="1" style="-webkit-user-select: none;"><g opacity="1" transform="matrix(1,0,0,1,0,0)"><path fill="rgb(72,77,81)" fill-opacity="1" d="M0 0 M1560.795,909.971 C1560.795,909.971 1504.295,909.971 1504.295,909.971 C1504.295,909.971 1504.295,903.639 1504.295,903.639 C1504.295,903.639 1560.795,903.639 1560.795,903.639 C1560.795,903.639 1560.795,909.971 1560.795,909.971z"></path></g></g><g transform="matrix(1,0,0,1,-324,-234)" opacity="1" style="-webkit-user-select: none;"><g opacity="1" transform="matrix(1,0,0,1,0,0)"><path fill="rgb(145,161,186)" fill-opacity="1" d="M0 0 M1422.25,928.905 C1422.25,928.905 1422.25,918.186 1422.25,918.186 C1422.25,918.186 1560.795,918.186 1560.795,918.186 C1560.795,918.186 1560.795,928.905 1560.795,928.905 C1560.795,928.905 1422.25,928.905 1422.25,928.905z"></path></g></g><g transform="matrix(1,0,0,1,-324,-234)" opacity="1" style="-webkit-user-select: none;"><g opacity="1" transform="matrix(1,0,0,1,0,0)"><path fill="rgb(145,161,186)" fill-opacity="1" d="M0 0 M1427.61,1030.879 C1427.61,1030.879 1427.61,1020.16 1427.61,1020.16 C1427.61,1020.16 1547.544,1020.16 1547.544,1020.16 C1547.544,1020.16 1547.544,1030.879 1547.544,1030.879 C1547.544,1030.879 1427.61,1030.879 1427.61,1030.879z"></path></g></g><g transform="matrix(1,0,0,1,-324,-234)" opacity="1" style="-webkit-user-select: none;"><g opacity="1" transform="matrix(1,0,0,1,0,0)"><path fill="rgb(216,204,203)" fill-opacity="1" d="M0 0 M1430.6,1025.52 C1430.6,1025.52 1430.6,1036.662 1430.6,1036.662 C1430.6,1036.662 1288.11,1036.662 1288.11,1036.662 C1288.11,1036.662 1288.11,1025.52 1288.11,1025.52 C1288.11,1025.52 1430.6,1025.52 1430.6,1025.52z"></path></g></g><g transform="matrix(1,0,0,1,-324,-234)" opacity="1" style="-webkit-user-select: none;"><g opacity="1" transform="matrix(1,0,0,1,0,0)"><path fill="rgb(216,204,203)" fill-opacity="1" d="M0 0 M1555.894,824.307 C1555.894,824.307 1555.894,844.154 1555.894,844.154 C1555.894,844.154 1288.11,844.154 1288.11,844.154 C1288.11,844.154 1288.11,824.307 1288.11,824.307 C1288.11,824.307 1555.894,824.307 1555.894,824.307z"></path></g></g><g transform="matrix(1,0,0,1,-324,-234)" opacity="1" style="-webkit-user-select: none;"><g opacity="1" transform="matrix(1,0,0,1,0,0)"><path fill="rgb(216,204,203)" fill-opacity="1" d="M0 0 M1555.894,1025.52 C1555.894,1025.52 1555.894,1036.662 1555.894,1036.662 C1555.894,1036.662 1427.61,1036.662 1427.61,1036.662 C1427.61,1036.662 1427.61,1025.52 1427.61,1025.52 C1427.61,1025.52 1555.894,1025.52 1555.894,1025.52z"></path></g></g><g transform="matrix(1,0,0,1,-324,-234)" opacity="1" style="-webkit-user-select: none;"><g opacity="1" transform="matrix(1,0,0,1,0,0)"><path fill="rgb(216,204,203)" fill-opacity="1" d="M0 0 M1427.61,1028.591 C1427.61,1028.591 1416.89,1028.591 1416.89,1028.591 C1416.89,1028.591 1416.89,818.5 1416.89,818.5 C1416.89,818.5 1427.61,818.5 1427.61,818.5 C1427.61,818.5 1427.61,1028.591 1427.61,1028.591z"></path></g></g><g transform="matrix(1,0,0,1,-324,-234)" opacity="1" style="-webkit-user-select: none;"><g opacity="1" transform="matrix(1,0,0,1,0,0)"><path fill="rgb(216,204,203)" fill-opacity="1" d="M0 0 M1564.244,1080 C1564.244,1080 1547.544,1080 1547.544,1080 C1547.544,1080 1547.544,821 1547.544,821 C1547.544,821 1564.244,821 1564.244,821 C1564.244,821 1564.244,1080 1564.244,1080z"></path></g></g><g transform="matrix(1,0,0,1,-324,-234)" opacity="1" style="-webkit-user-select: none;"><g opacity="1" transform="matrix(1,0,0,1,0,0)"><path fill="rgb(216,204,203)" fill-opacity="1" d="M0 0 M1296.46,1080 C1296.46,1080 1279.759,1080 1279.759,1080 C1279.759,1080 1279.759,821 1279.759,821 C1279.759,821 1296.46,821 1296.46,821 C1296.46,821 1296.46,1080 1296.46,1080z"></path></g></g><g transform="matrix(1,0,0,1,-324,-234)" opacity="1" style="-webkit-user-select: none;"><g opacity="1" transform="matrix(1,0,0,1,0,0)"><path fill="rgb(132,146,160)" fill-opacity="1" d="M0 0 M1513.66,1011.641 C1513.66,1011.641 1446.327,1011.641 1446.327,1011.641 C1446.327,1011.641 1443.325,960.307 1443.325,960.307 C1443.325,960.307 1516.662,960.307 1516.662,960.307 C1516.662,960.307 1513.66,1011.641 1513.66,1011.641z"></path></g></g><g transform="matrix(1,0,0,1,-324,-234)" opacity="1" style="-webkit-user-select: none;"><g opacity="1" transform="matrix(1,0,0,1,0,0)"><path fill="rgb(122,137,153)" fill-opacity="1" d="M0 0 M1513.66,1020.16 C1513.66,1020.16 1446.327,1020.16 1446.327,1020.16 C1446.327,1020.16 1446.327,1011.641 1446.327,1011.641 C1446.327,1011.641 1513.66,1011.641 1513.66,1011.641 C1513.66,1011.641 1513.66,1020.16 1513.66,1020.16z"></path></g></g><g transform="matrix(1,0,0,1,-324,-234)" opacity="1" style="-webkit-user-select: none;"><g opacity="1" transform="matrix(1,0,0,1,0,0)"><path fill="rgb(149,161,175)" fill-opacity="1" d="M0 0 M1521.325,963.641 C1521.325,963.641 1438.662,963.641 1438.662,963.641 C1438.662,963.641 1438.662,956.974 1438.662,956.974 C1438.662,956.974 1456.744,953.972 1479.994,953.972 C1503.244,953.972 1521.325,956.974 1521.325,956.974 C1521.325,956.974 1521.325,963.641 1521.325,963.641z"></path></g></g><g transform="matrix(1,0,0,1,-324,-234)" opacity="1" style="-webkit-user-select: none;"><g opacity="1" transform="matrix(1,0,0,1,0,0)"><path stroke-linecap="butt" stroke-linejoin="round" fill-opacity="0" stroke="rgb(134,146,163)" stroke-opacity="1" stroke-width="3" d="M0 0 M1464.891,954.6 C1464.891,954.6 1464.891,948.85 1464.891,948.85 C1464.891,948.85 1498.141,948.85 1498.141,948.85 C1498.141,948.85 1498.141,954.6 1498.141,954.6"></path></g></g><g transform="matrix(1,0,0,1,-324,-234)" opacity="1" style="-webkit-user-select: none;"><g opacity="1" transform="matrix(1,0,0,1,0,0)"><path fill="rgb(147,27,18)" fill-opacity="1" d="M0 0 M1571.824,824.873 C1571.824,824.873 1272.676,824.873 1272.676,824.873 C1272.676,824.873 1272.676,814.128 1272.676,814.128 C1272.676,814.128 1571.824,814.128 1571.824,814.128 C1571.824,814.128 1571.824,824.873 1571.824,824.873z"></path></g></g><g transform="matrix(1,0,0,1,-324,-234)" opacity="1" style="-webkit-user-select: none;"><g opacity="1" transform="matrix(1,0,0,1,0,0)"><path fill="rgb(72,170,125)" fill-opacity="1" d="M0 0 M1461.941,985.78 C1461.941,985.78 1425.79,980.677 1425.79,980.677 C1425.79,980.677 1441.65,828.956 1441.65,828.956 C1441.65,828.956 1449.083,827.405 1449.083,827.405 C1449.083,827.405 1461.941,985.78 1461.941,985.78z"></path></g></g><g transform="matrix(1,0,0,1,-324,-234)" opacity="1" style="-webkit-user-select: none;"><g opacity="1" transform="matrix(1,0,0,1,0,0)"><path fill="rgb(89,193,148)" fill-opacity="1" d="M0 0 M1465.863,992.996 C1465.863,992.996 1435.716,987.893 1435.716,987.893 C1435.716,987.893 1444.202,827.68 1444.202,827.68 C1444.202,827.68 1450.353,827.242 1450.353,827.242 C1450.353,827.242 1465.863,992.996 1465.863,992.996z"></path></g></g><g transform="matrix(1,0,0,1,-324,-234)" opacity="1" style="-webkit-user-select: none;"><g opacity="1" transform="matrix(1,0,0,1,0,0)"><path fill="rgb(137,137,137)" fill-opacity="1" d="M0 0 M1477.165,839.791 C1477.165,839.791 1473.605,839.791 1473.605,839.791 C1472.078,839.791 1470.829,838.542 1470.829,837.015 C1470.829,837.015 1470.829,837.015 1470.829,837.015 C1470.829,835.4879999999999 1472.078,834.239 1473.605,834.239 C1473.605,834.239 1477.165,834.239 1477.165,834.239 C1478.692,834.239 1479.941,835.4879999999999 1479.941,837.015 C1479.941,837.015 1479.941,837.015 1479.941,837.015 C1479.941,838.542 1478.692,839.791 1477.165,839.791z"></path></g></g><g transform="matrix(1,0,0,1,-324,-234)" opacity="1" style="-webkit-user-select: none;"><g opacity="1" transform="matrix(1,0,0,1,0,0)"><path fill="rgb(165,165,165)" fill-opacity="1" d="M0 0 M1475.385,837.656 C1475.385,837.656 1475.385,837.656 1475.385,837.656 C1474.68,837.656 1474.104,837.08 1474.104,836.375 C1474.104,836.375 1474.104,829.952 1474.104,829.952 C1474.104,829.247 1474.68,828.671 1475.385,828.671 C1475.385,828.671 1475.385,828.671 1475.385,828.671 C1476.09,828.671 1476.667,829.247 1476.667,829.952 C1476.667,829.952 1476.667,836.375 1476.667,836.375 C1476.667,837.08 1476.09,837.656 1475.385,837.656z"></path></g></g><g transform="matrix(1,0,0,1,-324,-234)" opacity="1" style="-webkit-user-select: none;"><g opacity="1" transform="matrix(1,0,0,1,0,0)"><path fill="rgb(137,137,137)" fill-opacity="1" d="M0 0 M1507.184,839.791 C1507.184,839.791 1503.624,839.791 1503.624,839.791 C1502.097,839.791 1500.848,838.542 1500.848,837.015 C1500.848,837.015 1500.848,837.015 1500.848,837.015 C1500.848,835.4879999999999 1502.097,834.239 1503.624,834.239 C1503.624,834.239 1507.184,834.239 1507.184,834.239 C1508.711,834.239 1509.96,835.4879999999999 1509.96,837.015 C1509.96,837.015 1509.96,837.015 1509.96,837.015 C1509.96,838.542 1508.711,839.791 1507.184,839.791z"></path></g></g><g transform="matrix(1,0,0,1,-324,-234)" opacity="1" style="-webkit-user-select: none;"><g opacity="1" transform="matrix(1,0,0,1,0,0)"><path fill="rgb(165,165,165)" fill-opacity="1" d="M0 0 M1505.404,837.656 C1505.404,837.656 1505.404,837.656 1505.404,837.656 C1504.699,837.656 1504.123,837.08 1504.123,836.375 C1504.123,836.375 1504.123,829.952 1504.123,829.952 C1504.123,829.247 1504.699,828.671 1505.404,828.671 C1505.404,828.671 1505.404,828.671 1505.404,828.671 C1506.109,828.671 1506.686,829.247 1506.686,829.952 C1506.686,829.952 1506.686,836.375 1506.686,836.375 C1506.686,837.08 1506.109,837.656 1505.404,837.656z"></path></g></g><g transform="matrix(1,0,0,1,-324,-234)" opacity="1" style="-webkit-user-select: none;"><g opacity="1" transform="matrix(1,0,0,1,0,0)"><path fill="rgb(137,137,137)" fill-opacity="1" d="M0 0 M1537.203,839.791 C1537.203,839.791 1533.643,839.791 1533.643,839.791 C1532.116,839.791 1530.867,838.542 1530.867,837.015 C1530.867,837.015 1530.867,837.015 1530.867,837.015 C1530.867,835.4879999999999 1532.116,834.239 1533.643,834.239 C1533.643,834.239 1537.203,834.239 1537.203,834.239 C1538.73,834.239 1539.979,835.4879999999999 1539.979,837.015 C1539.979,837.015 1539.979,837.015 1539.979,837.015 C1539.979,838.542 1538.73,839.791 1537.203,839.791z"></path></g></g><g transform="matrix(1,0,0,1,-324,-234)" opacity="1" style="-webkit-user-select: none;"><g opacity="1" transform="matrix(1,0,0,1,0,0)"><path fill="rgb(165,165,165)" fill-opacity="1" d="M0 0 M1535.423,837.656 C1535.423,837.656 1535.423,837.656 1535.423,837.656 C1534.718,837.656 1534.142,837.08 1534.142,836.375 C1534.142,836.375 1534.142,829.952 1534.142,829.952 C1534.142,829.247 1534.718,828.671 1535.423,828.671 C1535.423,828.671 1535.423,828.671 1535.423,828.671 C1536.128,828.671 1536.704,829.247 1536.704,829.952 C1536.704,829.952 1536.704,836.375 1536.704,836.375 C1536.704,837.08 1536.128,837.656 1535.423,837.656z"></path></g></g><g transform="matrix(1,0,0,1,-324,-234)" opacity="1" style="-webkit-user-select: none;"><g opacity="1" transform="matrix(1,0,0,1,0,0)"><path fill="rgb(62,71,59)" fill-opacity="1" d="M0 0 M1338.338,723.841 C1338.338,723.841 1338.338,701.667 1338.338,701.667 C1338.338,701.667 1338.337,701.667 1338.337,701.667 C1338.337,701.667 1326.452,701.667 1326.452,701.667 C1326.452,701.667 1326.451,701.667 1326.451,701.667 C1326.451,701.667 1326.451,723.841 1326.451,723.841 C1326.4370000000001,737.675 1316.187,736.6089999999999 1316.187,755.107 C1316.187,770.504 1316.187,814.128 1316.187,814.128 C1316.187,814.128 1328.342,814.128 1328.342,814.128 C1328.342,814.128 1336.447,814.128 1336.447,814.128 C1336.447,814.128 1348.602,814.128 1348.602,814.128 C1348.602,814.128 1348.602,770.504 1348.602,755.107 C1348.602,736.6089999999999 1338.353,737.675 1338.338,723.841z"></path></g></g><g transform="matrix(1,0,0,1,-324,-234)" opacity="1" style="-webkit-user-select: none;"><g opacity="1" transform="matrix(1,0,0,1,0,0)"><path fill="rgb(168,178,164)" fill-opacity="1" d="M0 0 M1325.911,797.432 C1325.911,797.432 1348.602,797.432 1348.602,797.432 C1348.602,797.432 1348.602,763.745 1348.602,763.745 C1348.602,763.745 1325.911,763.745 1325.911,763.745 C1325.911,763.745 1325.911,797.432 1325.911,797.432z"></path></g></g><g transform="matrix(1,0,0,1,-324,-234)" opacity="1" style="-webkit-user-select: none;"><g opacity="1" transform="matrix(1,0,0,1,0,0)"><path fill="rgb(168,178,164)" fill-opacity="1" d="M0 0 M1338.338,713.5 C1338.338,713.5 1326.451,713.5 1326.451,713.5 C1326.451,713.5 1326.451,705.936 1326.451,705.936 C1326.451,705.936 1338.338,705.936 1338.338,705.936 C1338.338,705.936 1338.338,713.5 1338.338,713.5z"></path></g></g><g transform="matrix(1,0,0,1,-324,-234)" opacity="1" style="-webkit-user-select: none;"><g opacity="1" transform="matrix(1,0,0,1,0,0)"><path fill="rgb(114,193,193)" fill-opacity="1" d="M0 0 M1392.116,810.521 C1392.116,810.521 1392.116,787.615 1392.116,787.615 C1400.763,786.436 1407.5,777.049 1407.5,765.638 C1407.5,762.563 1407.009,759.637 1406.125,756.976 C1406.125,756.976 1374.428,756.976 1374.428,756.976 C1373.544,759.637 1373.052,762.563 1373.052,765.638 C1373.052,777.049 1379.79,786.436 1388.437,787.615 C1388.437,787.615 1388.437,810.521 1388.437,810.521 C1382.014,810.762 1377.066,812.242 1377.066,814.036 C1377.066,814.036 1403.487,814.036 1403.487,814.036 C1403.487,812.242 1398.539,810.762 1392.116,810.521z"></path></g></g><g transform="matrix(1,0,0,1,-324,-234)" opacity="1" style="-webkit-user-select: none;"><g opacity="1" transform="matrix(1,0,0,1,0,0)"><path fill="rgb(119,24,53)" fill-opacity="1" d="M0 0 M1375.966,772.36 C1377.898,779.913 1383.5720000000001,785.387 1390.276,785.387 C1396.98,785.387 1402.654,779.913 1404.586,772.36 C1404.586,772.36 1375.966,772.36 1375.966,772.36z"></path></g></g><g transform="matrix(1,0,0,1,-324,-234)" opacity="1" style="-webkit-user-select: none;"><g opacity="1" transform="matrix(1,0,0,1,0,0)"><path stroke-linecap="round" stroke-linejoin="miter" fill-opacity="0" stroke-miterlimit="10" stroke="rgb(237,142,142)" stroke-opacity="1" stroke-width="17" d="M0 0 M1516.073,796.635 C1510.688,796.635 1502.496,797.886 1497.563,792.808 C1489.736,784.751 1479.99,785.003 1479.99,785.003"></path></g></g><g transform="matrix(1,0,0,1,-324,-234)" opacity="1" style="-webkit-user-select: none;"><g opacity="1" transform="matrix(1,0,0,1,0,0)"><path stroke-linecap="butt" stroke-linejoin="miter" fill-opacity="0" stroke-miterlimit="10" stroke="rgb(204,195,151)" stroke-opacity="1" stroke-width="18" d="M0 0 M1656.927,676.872 C1656.927,676.872 1658.521,752.076 1601,783.25 C1573.75,798.018 1531.793,798.72 1513.071,796.635"></path></g></g><g transform="matrix(1,0,0,1,-324,-234)" opacity="1" style="-webkit-user-select: none;"><g opacity="1" transform="matrix(1,0,0,1,0,0)"><path stroke-linecap="butt" stroke-linejoin="miter" fill-opacity="0" stroke-miterlimit="10" stroke="rgb(61,56,56)" stroke-opacity="1" stroke-width="20" d="M0 0 M1694.097,793.179 C1694.097,793.179 1679.664,899.667 1679.664,949 C1679.664,981.97 1688.982,1028.936 1695.163,1056.464 C1698.231,1070.127 1700.526,1079.001 1700.526,1079.001"></path></g></g><g transform="matrix(1,0,0,1,-324,-234)" opacity="1" style="-webkit-user-select: none;"><g opacity="1" transform="matrix(1,0,0,1,0,0)"><path stroke-linecap="butt" stroke-linejoin="miter" fill-opacity="0" stroke-miterlimit="10" stroke="rgb(48,44,44)" stroke-opacity="1" stroke-width="20" d="M0 0 M1660.333,803.667 C1660.333,803.667 1634.82,868.3340000000001 1633.575,935.667 C1632.729,981.3910000000001 1640.4509999999998,1031.111 1645.495,1058.315 C1647.879,1071.171 1649.664,1078.999 1649.664,1078.999"></path></g></g><g transform="matrix(0.9988,0.0488,-0.0488,0.9988,-283.3137,-314.7801)" opacity="1" style="-webkit-user-select: none;"><g opacity="1" transform="matrix(1,0,0,1,0,0)"><path fill="rgb(61,56,56)" fill-opacity="1" d="M0 0 M1642.528,793.179 C1642.528,793.179 1644.332,819.001 1644.332,819.001 C1644.332,819.001 1689,821 1689,821 C1689,821 1698.333,821 1698.333,821 C1698.333,821 1704.528,793.179 1704.528,793.179 C1704.528,793.179 1642.528,793.179 1642.528,793.179z"></path></g></g><g transform="matrix(0.9988,0.0488,-0.0488,0.9988,-283.3137,-314.7801)" opacity="1" style="-webkit-user-select: none;"><g opacity="1" transform="matrix(1,0,0,1,0,0)"><path fill="rgb(239,120,120)" fill-opacity="1" d="M0 0 M1653.389,670.335 C1653.389,670.335 1652.618,671.053 1652.618,671.053 C1650.22,673.287 1646.4299999999998,673.152 1644.196,670.754 C1644.196,670.754 1617.453,642.044 1617.453,642.044 C1615.219,639.646 1615.354,635.856 1617.752,633.622 C1617.752,633.622 1618.522,632.904 1618.522,632.904 C1620.9199999999998,630.67 1624.71,630.805 1626.944,633.203 C1626.944,633.203 1653.688,661.913 1653.688,661.913 C1655.922,664.311 1655.7869999999998,668.101 1653.389,670.335z"></path></g></g><g transform="matrix(0.9988,0.0488,-0.0488,0.9988,-283.3137,-314.7801)" opacity="1" style="-webkit-user-select: none;"><g opacity="1" transform="matrix(1,0,0,1,0,0)"><path fill="rgb(66,5,5)" fill-opacity="1" d="M0 0 M1618.135,712.265 C1618.135,712.265 1584.321,707.774 1584.321,707.774 C1584.321,707.774 1574.399,618.178 1574.399,618.178 C1574.399,618.178 1608.225,601.737 1608.225,601.737 C1608.225,601.737 1618.135,712.265 1618.135,712.265z"></path></g></g><g transform="matrix(0.9988,0.0488,-0.0488,0.9988,-283.3137,-314.7801)" opacity="1" style="-webkit-user-select: none;"><g opacity="1" transform="matrix(1,0,0,1,0,0)"><path fill="rgb(255,153,153)" fill-opacity="1" d="M0 0 M1618.907,651.607 C1618.907,651.607 1615.086,655.778 1615.086,655.778 C1603.199,668.7570000000001 1582.854,669.6500000000001 1569.875,657.763 C1569.875,657.763 1547.623,637.382 1547.623,637.382 C1534.644,625.4949999999999 1533.752,605.1500000000001 1545.639,592.171 C1545.639,592.171 1549.46,587.999 1549.46,587.999 C1561.347,575.02 1581.692,574.1279999999999 1594.671,586.015 C1594.671,586.015 1616.923,606.396 1616.923,606.396 C1629.902,618.2829999999999 1630.7939999999999,638.6279999999999 1618.907,651.607z"></path></g></g><g transform="matrix(0.9988,0.0488,-0.0488,0.9988,-283.3137,-314.7801)" opacity="1" style="-webkit-user-select: none;"><g opacity="1" transform="matrix(1,0,0,1,0,0)"><path fill="rgb(61,37,56)" fill-opacity="1" d="M0 0 M1570.172,627.262 C1570.172,627.262 1570.004,627.445 1570.004,627.445 C1569.482,628.0150000000001 1568.59,628.0540000000001 1568.02,627.532 C1568.02,627.532 1564.831,624.611 1564.831,624.611 C1564.261,624.0889999999999 1564.222,623.197 1564.744,622.627 C1564.744,622.627 1564.911,622.444 1564.911,622.444 C1565.433,621.8739999999999 1566.326,621.8349999999999 1566.896,622.357 C1566.896,622.357 1570.085,625.278 1570.085,625.278 C1570.655,625.8000000000001 1570.694,626.6919999999999 1570.172,627.262z"></path></g></g><g transform="matrix(0.9988,0.0488,-0.0488,0.9988,-283.3137,-314.7801)" opacity="1" style="-webkit-user-select: none;"><g opacity="1" transform="matrix(1,0,0,1,0,0)"><path fill="rgb(61,37,56)" fill-opacity="1" d="M0 0 M1560.609,637.703 C1560.609,637.703 1560.442,637.886 1560.442,637.886 C1559.92,638.456 1559.027,638.495 1558.457,637.973 C1558.457,637.973 1555.268,635.052 1555.268,635.052 C1554.698,634.53 1554.659,633.638 1555.181,633.068 C1555.181,633.068 1555.349,632.884 1555.349,632.884 C1555.8709999999999,632.314 1556.7630000000001,632.275 1557.333,632.797 C1557.333,632.797 1560.522,635.718 1560.522,635.718 C1561.0919999999999,636.24 1561.1309999999999,637.1329999999999 1560.609,637.703z"></path></g></g><g transform="matrix(0.9988,0.0488,-0.0488,0.9988,-283.3137,-314.7801)" opacity="1" style="-webkit-user-select: none;"><g opacity="1" transform="matrix(1,0,0,1,0,0)"><path stroke-linecap="round" stroke-linejoin="miter" fill-opacity="0" stroke-miterlimit="10" stroke="rgb(137,33,33)" stroke-opacity="1" stroke-width="6.53" d="M0 0 M1555.398,617.041 C1555.398,617.041 1565.563,610.015 1565.563,610.015"></path></g></g><g transform="matrix(0.9988,0.0488,-0.0488,0.9988,-283.3137,-314.7801)" opacity="1" style="-webkit-user-select: none;"><g opacity="1" transform="matrix(1,0,0,1,0,0)"><path stroke-linecap="round" stroke-linejoin="miter" fill-opacity="0" stroke-miterlimit="10" stroke="rgb(137,33,33)" stroke-opacity="1" stroke-width="6.53" d="M0 0 M1543.919,635.614 C1543.919,635.614 1547.434,623.768 1547.434,623.768"></path></g></g><g transform="matrix(0.9988,0.0488,-0.0488,0.9988,-283.3137,-314.7801)" opacity="1" style="-webkit-user-select: none;"><g opacity="1" transform="matrix(1,0,0,1,0,0)"><path fill="rgb(137,33,33)" fill-opacity="1" d="M0 0 M1565,642.526 C1565,642.526 1567.325,634.336 1576.046,633.444 C1582.6190000000001,632.7719999999999 1584.2839999999999,620.35 1580.039,612.035 C1580.039,612.035 1598.261,626.246 1577.152,646.289 C1558.559,663.943 1543.316,650.7189999999999 1540.557,648.438 C1540.557,648.438 1561.307,655.6129999999999 1565,642.526z"></path></g></g><g transform="matrix(0.9988,0.0488,-0.0488,0.9988,-283.3137,-314.7801)" opacity="1" style="-webkit-user-select: none;"><g opacity="1" transform="matrix(1,0,0,1,0,0)"><path fill="rgb(226,221,183)" fill-opacity="1" d="M0 0 M1704.528,793.179 C1704.528,793.179 1642.528,793.179 1642.528,793.179 C1642.528,793.179 1635.57,771.996 1643.028,742.496 C1651.9180000000001,707.3299999999999 1639.651,671.551 1639.651,671.551 C1639.651,671.551 1654.472,657.245 1654.472,657.245 C1654.472,657.245 1694.766,685.588 1702.528,717.996 C1712.528,759.746 1704.528,793.179 1704.528,793.179z"></path></g></g><g transform="matrix(0.9988,0.0488,-0.0488,0.9988,-283.3137,-314.7801)" opacity="1" style="-webkit-user-select: none;"><g opacity="1" transform="matrix(1,0,0,1,0,0)"><path fill="rgb(214,39,110)" fill-opacity="1" d="M0 0 M1590.94,638.948 C1590.94,638.948 1593.544,641.286 1593.544,641.286 C1594.874,642.4799999999999 1594.984,644.5459999999999 1593.79,645.876 C1593.79,645.876 1593.79,645.876 1593.79,645.876 C1592.596,647.206 1590.531,647.3159999999999 1589.201,646.122 C1589.201,646.122 1586.597,643.784 1586.597,643.784"></path></g></g><g transform="matrix(0.9988,0.0488,-0.0488,0.9988,-283.3137,-314.7801)" opacity="1" style="-webkit-user-select: none;"><g opacity="1" transform="matrix(1,0,0,1,0,0)"><path stroke-linecap="round" stroke-linejoin="miter" fill-opacity="0" stroke-miterlimit="10" stroke="rgb(61,37,56)" stroke-opacity="1" stroke-width="2" d="M0 0 M1583.778,646.996 C1583.778,646.996 1591.279,637.744 1591.279,637.744"></path></g></g><g transform="matrix(1,0,0,1,-324,-234)" opacity="1" style="-webkit-user-select: none;"><g opacity="1" transform="matrix(1,0,0,1,0,0)"><path fill="rgb(38,89,45)" fill-opacity="1" d="M0 0 M1458.097,804.975 C1458.097,804.975 1497.926,804.975 1497.926,804.975 C1501.945,804.975 1505.234,801.686 1505.234,797.667 C1505.234,797.667 1505.234,796.128 1505.234,796.128 C1505.234,792.109 1501.945,788.82 1497.926,788.82 C1497.926,788.82 1458.097,788.82 1458.097,788.82 C1454.078,788.82 1450.789,792.109 1450.789,796.128 C1450.789,796.128 1450.789,797.667 1450.789,797.667 C1450.789,801.686 1454.078,804.975 1458.097,804.975z"></path></g></g><g transform="matrix(1,0,0,1,-324,-234)" opacity="1" style="-webkit-user-select: none;"><g opacity="1" transform="matrix(1,0,0,1,0,0)"><path fill="rgb(48,127,59)" fill-opacity="1" d="M0 0 M1506.435,796.943 C1506.435,801.429 1502.7990000000002,805.065 1498.313,805.065 C1493.827,805.065 1490.19,801.429 1490.19,796.943 C1490.19,792.457 1493.827,788.82 1498.313,788.82 C1502.7990000000002,788.82 1506.435,792.457 1506.435,796.943z"></path></g></g><g transform="matrix(1,0,0,1,-324,-234)" opacity="1" style="-webkit-user-select: none;"><g opacity="1" transform="matrix(1,0,0,1,0,0)"><path fill="rgb(90,163,109)" fill-opacity="1" d="M0 0 M1504.22,796.943 C1504.22,800.206 1501.575,802.85 1498.313,802.85 C1495.0510000000002,802.85 1492.406,800.206 1492.406,796.943 C1492.406,793.68 1495.0510000000002,791.036 1498.313,791.036 C1501.575,791.036 1504.22,793.68 1504.22,796.943z"></path></g></g><g transform="matrix(0.9336,0.3584,-0.3584,0.9336,45.4481,-742.0495)" opacity="1" style="-webkit-user-select: none;"><g opacity="1" transform="matrix(1,0,0,1,0,0)"><path fill="rgb(188,188,188)" fill-opacity="1" d="M0 0 M1490.167,663.121 C1490.167,663.121 1557.917,750.499 1557.917,750.499 C1557.917,750.499 1549.231,756.976 1549.231,756.976 C1549.231,756.976 1529.409,731.667 1529.409,731.667 C1529.409,731.667 1518.381,742.198 1518.381,742.198 C1518.381,742.198 1478.398,691.182 1490.167,663.121z"></path></g></g><g transform="matrix(0.9816,0.1908,-0.0725,0.373,-225.9299,-32.7229)" opacity="1" style="-webkit-user-select: none;"><g opacity="1" transform="matrix(1,0,0,1,0,0)"><path fill="rgb(48,127,59)" fill-opacity="1" d="M0 0 M1506.435,796.943 C1506.435,801.429 1502.7990000000002,805.065 1498.313,805.065 C1493.827,805.065 1490.19,801.429 1490.19,796.943 C1490.19,792.457 1493.827,788.82 1498.313,788.82 C1502.7990000000002,788.82 1506.435,792.457 1506.435,796.943z"></path></g></g><g transform="matrix(0.9816,0.1908,-0.0725,0.373,-225.9299,-32.7229)" opacity="1" style="-webkit-user-select: none;"><g opacity="1" transform="matrix(1,0,0,1,0,0)"><path fill="rgb(90,163,109)" fill-opacity="1" d="M0 0 M1504.22,796.943 C1504.22,800.206 1501.575,802.85 1498.313,802.85 C1495.0510000000002,802.85 1492.406,800.206 1492.406,796.943 C1492.406,793.68 1495.0510000000002,791.036 1498.313,791.036 C1501.575,791.036 1504.22,793.68 1504.22,796.943z"></path></g></g><g transform="matrix(0.9998,0.0175,-0.0175,0.9998,-308.7389,-264.9884)" opacity="1" style="-webkit-user-select: none;"><g opacity="1" transform="matrix(1,0,0,1,0,0)"><path stroke-linecap="round" stroke-linejoin="miter" fill-opacity="0" stroke-miterlimit="10" stroke="rgb(255,171,171)" stroke-opacity="1" stroke-width="17" d="M0 0 M1563.662,747.588 C1551.084,736.502 1538.507,739.544 1538.507,739.544"></path></g></g><g transform="matrix(0.9998,0.0175,-0.0175,0.9998,-308.7389,-264.9884)" opacity="1" style="-webkit-user-select: none;"><g opacity="1" transform="matrix(1,0,0,1,0,0)"><path stroke-linecap="butt" stroke-linejoin="miter" fill-opacity="0" stroke-miterlimit="10" stroke="rgb(247,244,208)" stroke-opacity="1" stroke-width="18" d="M0 0 M1665.667,685.999 C1665.667,685.999 1683.544,745.413 1652.678,771.896 C1624.874,795.751 1581.2730000000001,763 1563.662,747.588"></path></g></g><g transform="matrix(0.9998,0.0175,-0.0175,0.9998,-308.7389,-264.9884)" opacity="1" style="-webkit-user-select: none;"><g opacity="1" transform="matrix(1,0,0,1,0,0)"><path fill="rgb(247,244,208)" fill-opacity="1" d="M0 0 M1674.793,685.999 C1674.793,691.0400000000001 1670.7079999999999,695.126 1665.667,695.126 C1660.626,695.126 1656.54,691.0400000000001 1656.54,685.999 C1656.54,680.958 1660.626,676.873 1665.667,676.873 C1670.7079999999999,676.873 1674.793,680.958 1674.793,685.999z"></path></g></g><g transform="matrix(0.9988,0.0488,-0.0488,0.9988,-283.3137,-314.7801)" opacity="1" style="-webkit-user-select: none;"><g opacity="1" transform="matrix(1,0,0,1,0,0)"><path fill="rgb(137,33,33)" fill-opacity="1" d="M0 0 M1587.909,597.563 C1587.909,597.563 1560.173,594.619 1560.173,594.619 C1560.173,594.619 1536.091,620.912 1536.091,620.912 C1534.222,610.0830000000001 1537.3139999999999,598.3290000000001 1545.464,589.431 C1545.464,589.431 1545.464,589.431 1545.464,589.431 C1559.138,574.5020000000001 1582.069,573.044 1596.423,586.191 C1596.423,586.191 1605.609,594.605 1605.609,594.605 C1605.609,594.605 1605.609,594.605 1605.609,594.605 C1605.609,594.605 1620.778,610.015 1620.778,610.015 C1620.778,610.015 1628.333,616.944 1628.333,630.692 C1628.333,644.44 1621.293,697.051 1621.293,697.051 C1621.293,697.051 1588.807,692.354 1588.807,692.354 C1588.807,692.354 1596.769,608.899 1596.769,608.899"></path></g></g><g transform="matrix(0.9988,0.0488,-0.0488,0.9988,-283.3137,-314.7801)" opacity="1" style="-webkit-user-select: none;"><g opacity="1" transform="matrix(1,0,0,1,0,0)"><path fill="rgb(255,153,153)" fill-opacity="1" d="M0 0 M1600.559,604.76 C1600.559,604.76 1596.769,608.899 1596.769,608.899 C1594.308,611.586 1590.096,611.771 1587.409,609.31 C1587.409,609.31 1586.545,608.519 1586.545,608.519 C1583.8580000000002,606.058 1583.673,601.846 1586.134,599.159 C1586.134,599.159 1589.925,595.02 1589.925,595.02 C1592.386,592.333 1596.5980000000002,592.148 1599.285,594.609 C1599.285,594.609 1600.149,595.4 1600.149,595.4 C1602.8359999999998,597.861 1603.02,602.073 1600.559,604.76z"></path></g></g><g transform="matrix(1,0,0,1,-324,-234)" opacity="1" style="-webkit-user-select: none;"><g opacity="1" transform="matrix(1,0,0,1,0,0)"><path fill="rgb(38,89,45)" fill-opacity="1" d="M0 0 M1525.377,801.851 C1525.377,801.851 1509.503,801.851 1509.503,801.851 C1509.503,801.851 1509.503,804.667 1509.503,804.667 C1509.503,804.667 1525.377,804.667 1525.377,804.667 C1525.377,804.667 1525.377,801.851 1525.377,801.851z"></path></g></g><g transform="matrix(1,0,0,1,-324,-234)" opacity="1" style="-webkit-user-select: none;"><g opacity="1" transform="matrix(1,0,0,1,0,0)"><path fill="rgb(57,109,59)" fill-opacity="1" d="M0 0 M1527.628,799.034 C1527.628,799.034 1511.755,799.034 1511.755,799.034 C1511.755,799.034 1511.755,801.851 1511.755,801.851 C1511.755,801.851 1527.628,801.851 1527.628,801.851 C1527.628,801.851 1527.628,799.034 1527.628,799.034z"></path></g></g><g transform="matrix(1,0,0,1,-324,-234)" opacity="1" style="-webkit-user-select: none;"><g opacity="1" transform="matrix(1,0,0,1,0,0)"><path fill="rgb(38,89,45)" fill-opacity="1" d="M0 0 M1540.973,799.981 C1540.973,799.981 1526.585,793.277 1526.585,793.277 C1526.585,793.277 1525.385,795.851 1525.385,795.851 C1525.385,795.851 1539.774,802.555 1539.774,802.555 C1539.774,802.555 1540.973,799.981 1540.973,799.981z"></path></g></g><g transform="matrix(1,0,0,1,-324,-234)" opacity="1" style="-webkit-user-select: none;"><g opacity="1" transform="matrix(1,0,0,1,0,0)"><path fill="rgb(38,89,45)" fill-opacity="1" d="M0 0 M1545.25,801.851 C1545.25,801.851 1529.376,801.851 1529.376,801.851 C1529.376,801.851 1529.376,804.667 1529.376,804.667 C1529.376,804.667 1545.25,804.667 1545.25,804.667 C1545.25,804.667 1545.25,801.851 1545.25,801.851z"></path></g></g><g transform="matrix(1,0,0,1,-324,-234)" opacity="1" style="-webkit-user-select: none;"><g opacity="1" transform="matrix(1,0,0,1,0,0)"><path fill="rgb(38,89,45)" fill-opacity="1" d="M0 0 M1527.009,796.218 C1527.009,796.218 1511.135,796.218 1511.135,796.218 C1511.135,796.218 1511.135,799.034 1511.135,799.034 C1511.135,799.034 1527.009,799.034 1527.009,799.034 C1527.009,799.034 1527.009,796.218 1527.009,796.218z"></path></g></g><g transform="matrix(1,0,0,1,-324,-234)" opacity="1" style="-webkit-user-select: none;"><g opacity="1" transform="matrix(1,0,0,1,0,0)"><path stroke-linecap="butt" stroke-linejoin="miter" fill-opacity="0" stroke-miterlimit="10" stroke="rgb(229,211,211)" stroke-opacity="1" stroke-width="20" d="M0 0 M1695.163,1056.464 C1698.231,1070.127 1700.526,1079.001 1700.526,1079.001"></path></g></g><g transform="matrix(1,0,0,1,-324,-234)" opacity="1" style="-webkit-user-select: none;"><g opacity="1" transform="matrix(1,0,0,1,0,0)"><path stroke-linecap="butt" stroke-linejoin="miter" fill-opacity="0" stroke-miterlimit="10" stroke="rgb(209,193,193)" stroke-opacity="1" stroke-width="20" d="M0 0 M1645.495,1058.315 C1647.879,1071.171 1649.664,1078.999 1649.664,1078.999"></path></g></g><g transform="matrix(1,0,0,1,-333.5,-234)" opacity="1" style="-webkit-user-select: none;"><g opacity="1" transform="matrix(1,0,0,1,0,0)"><path stroke-linecap="butt" stroke-linejoin="miter" fill-opacity="0" stroke-miterlimit="10" stroke="rgb(48,51,51)" stroke-opacity="1" stroke-width="2" d="M0 0 M667.244,609.023 C667.244,609.023 651.804,623.25 666.994,679.162 C687.029,752.9060000000001 713.3340000000001,1078.542 640.5,1079.771 C610.026,1080.2849999999999 604.874,1081.837 590.676,1072.406 C576.667,1063.1009999999999 576.548,1046 594.77,1044.066 C612.913,1042.14 612.111,1067.247 592.256,1073.904 C573.506,1080.19 577.865,1079.664 550.006,1079.664 C488.50899999999996,1079.664 585.506,936.384 478.506,942.244"></path></g></g><g transform="matrix(0.9854,-0.1702,0.1702,0.9854,-475.6237,-96.6623)" opacity="1" style="-webkit-user-select: none;"><g opacity="1" transform="matrix(1,0,0,1,0,0)"><path fill="rgb(53,9,3)" fill-opacity="1" d="M0 0 M809.828,551.447 C808.444,562.927 798.015,571.111 786.535,569.727 C775.055,568.343 766.871,557.915 768.255,546.435 C769.639,534.9549999999999 780.067,526.77 791.547,528.154 C803.027,529.538 811.212,539.967 809.828,551.447z"></path></g></g><g transform="matrix(0.9854,-0.1702,0.1702,0.9854,-465.7696,-98.3644)" opacity="1" style="-webkit-user-select: none;"><g opacity="1" transform="matrix(1,0,0,1,0,0)"><path fill="rgb(56,48,84)" fill-opacity="1" d="M0 0 M728.5,847.019 C728.5,847.019 823.414,847.019 823.414,847.019 C823.414,847.019 823.459,833.4110000000001 819.713,820.98 C816.9259999999999,811.7330000000001 814.01,804.947 814.01,804.947 C814.01,804.947 737.903,804.947 737.903,804.947 C737.903,804.947 734.622,809.878 732.329,819.5 C729.819,830.035 728.5,847.019 728.5,847.019z"></path></g></g><g transform="matrix(0.7869,-0.617,0.617,0.7869,-629.3004,380.688)" opacity="1" style="-webkit-user-select: none;"><g opacity="1" transform="matrix(1,0,0,1,0,0)"><path stroke-linecap="round" stroke-linejoin="miter" fill-opacity="0" stroke-miterlimit="10" stroke="rgb(132,40,40)" stroke-opacity="1" stroke-width="17" d="M0 0 M754.361,695.52 C754.361,695.52 709.0070000000001,692.993 692.994,655.788 C679.994,625.583 684.251,575.8340000000001 682.994,538"></path></g></g><g transform="matrix(0.9854,-0.1702,0.1702,0.9854,-465.7696,-98.3644)" opacity="1" style="-webkit-user-select: none;"><g opacity="1" transform="matrix(1,0,0,1,0,0)"><path stroke-linecap="round" stroke-linejoin="miter" fill-opacity="0" stroke-miterlimit="10" stroke="rgb(132,40,40)" stroke-opacity="1" stroke-width="17" d="M0 0 M774.538,695.663 C774.538,695.663 791.788,694.27 801.086,707.936 C819.5,735 854.591,783.676 892.652,753.976 C917.308,734.736 918.452,709.695 915.105,692.133"></path></g></g><g transform="matrix(0.9854,-0.1702,0.1702,0.9854,-466.2623,-98.2792)" opacity="1" style="-webkit-user-select: none;"><g opacity="1" transform="matrix(1,0,0,1,0,0)"><path stroke-linecap="round" stroke-linejoin="miter" fill-opacity="0" stroke-miterlimit="10" stroke="rgb(112,29,29)" stroke-opacity="1" stroke-width="14" d="M0 0 M765.946,638.948 C765.946,638.948 765.946,688.716 765.946,688.716"></path></g></g><g transform="matrix(0.9854,-0.1702,0.1702,0.9854,-475.6237,-96.6623)" opacity="1" style="-webkit-user-select: none;"><g opacity="1" transform="matrix(1,0,0,1,0,0)"><path fill="rgb(132,40,40)" fill-opacity="1" d="M0 0 M753.581,654.707 C753.581,654.707 765.59,656.154 765.59,656.154 C778.832,657.75 790.973,648.223 792.569,634.981 C792.569,634.981 799.453,577.877 799.453,577.877 C801.049,564.635 791.5219999999999,552.494 778.28,550.898 C778.28,550.898 766.271,549.45 766.271,549.45 C753.029,547.854 740.888,557.3820000000001 739.292,570.624 C739.292,570.624 732.408,627.728 732.408,627.728 C730.812,640.9699999999999 740.339,653.111 753.581,654.707z"></path></g></g><g transform="matrix(0.9998,0.0192,-0.0192,0.9998,-341.1493,-223.6353)" opacity="1" style="-webkit-user-select: none;"><g opacity="1" transform="matrix(1,0,0,1,0,0)"><path fill="rgb(8,15,58)" fill-opacity="1" d="M0 0 M933.201,654.81 C933.201,654.81 888.892,645.203 888.892,645.203 C885.22,644.4069999999999 882.867,640.7520000000001 883.663,637.08 C883.663,637.08 883.663,637.08 883.663,637.08 C884.4590000000001,633.408 888.1139999999999,631.0559999999999 891.786,631.852 C891.786,631.852 936.096,641.458 936.096,641.458 C939.768,642.254 942.12,645.909 941.324,649.581 C941.324,649.581 941.324,649.581 941.324,649.581 C940.5279999999999,653.253 936.873,655.606 933.201,654.81z"></path></g></g><g transform="matrix(1,0,0,1,-432.4997,-115.0005)" opacity="1" style="-webkit-user-select: none;"><g opacity="1" transform="matrix(1,0,0,1,0,0)"><path fill="rgb(8,15,58)" fill-opacity="1" d="M0 0 M700.918,493.106 C700.918,493.106 665.657,521.607 665.657,521.607 C662.735,523.9689999999999 658.413,523.51 656.051,520.588 C656.051,520.588 656.051,520.588 656.051,520.588 C653.6890000000001,517.6659999999999 654.148,513.344 657.07,510.982 C657.07,510.982 692.33,482.481 692.33,482.481 C695.2520000000001,480.11899999999997 699.5740000000001,480.578 701.936,483.5 C701.936,483.5 701.936,483.5 701.936,483.5 C704.298,486.422 703.84,490.74399999999997 700.918,493.106z"></path></g></g><g transform="matrix(1,0,0,1,-430.4997,-119.0005)" opacity="1" style="-webkit-user-select: none;"><g opacity="1" transform="matrix(1,0,0,1,0,0)"><path stroke-linecap="round" stroke-linejoin="miter" fill-opacity="0" stroke-miterlimit="10" stroke="rgb(132,40,40)" stroke-opacity="1" stroke-width="8" d="M0 0 M682.994,514.5 C682.994,514.5 681.996,507.251 673.496,498.001"></path></g></g><g transform="matrix(1,0,0,1,-360.36,-210.2907)" opacity="1" style="-webkit-user-select: none;"><g opacity="1" transform="matrix(1,0,0,1,0,0)"><path stroke-linecap="round" stroke-linejoin="miter" fill-opacity="0" stroke-miterlimit="10" stroke="rgb(132,40,40)" stroke-opacity="1" stroke-width="8" d="M0 0 M913.494,655.001 C913.494,655.001 912.494,636.501 912.494,636.501"></path></g></g><g transform="matrix(0.9854,-0.1702,0.1702,0.9854,-475.6237,-96.6623)" opacity="1" style="-webkit-user-select: none;"><g opacity="1" transform="matrix(1,0,0,1,0,0)"><path fill="rgb(71,18,9)" fill-opacity="1" d="M0 0 M778.44,550.596 C778.44,550.596 766.187,549.119 766.187,549.119 C752.674,547.49 740.285,557.212 738.656,570.725 C738.656,570.725 737.811,577.734 737.811,577.734 C737.811,577.734 799.202,585.135 799.202,585.135 C799.202,585.135 800.047,578.127 800.047,578.127 C801.676,564.6139999999999 791.9530000000001,552.225 778.44,550.596z"></path></g></g><g transform="matrix(0.9854,-0.1702,0.1702,0.9854,-475.6237,-96.6623)" opacity="1" style="-webkit-user-select: none;"><g opacity="1" transform="matrix(1,0,0,1,0,0)"><path fill="rgb(48,51,51)" fill-opacity="1" d="M0 0 M720.583,606.147 C720.583,606.147 721.47,598.787 721.47,598.787 C721.47,598.787 714.11,597.9 714.11,597.9 C714.11,597.9 713.223,605.26 713.223,605.26 C713.223,605.26 720.583,606.147 720.583,606.147z"></path></g></g><g transform="matrix(0.9854,-0.1702,0.1702,0.9854,-475.6237,-96.6623)" opacity="1" style="-webkit-user-select: none;"><g opacity="1" transform="matrix(1,0,0,1,0,0)"><path fill="rgb(8,15,58)" fill-opacity="1" d="M0 0 M793.235,631.844 C793.235,631.844 732.495,624.521 732.495,624.521 C723.288,623.411 716.663,614.9689999999999 717.773,605.762 C717.773,605.762 718.453,600.12 718.453,600.12 C719.563,590.913 728.005,584.287 737.212,585.397 C737.212,585.397 797.952,592.72 797.952,592.72 C807.159,593.83 813.784,602.272 812.674,611.479 C812.674,611.479 811.994,617.121 811.994,617.121 C810.884,626.328 802.442,632.9540000000001 793.235,631.844z"></path></g></g><g transform="matrix(1,0,0,1,-333.5,-234)" opacity="1" style="-webkit-user-select: none;"><g opacity="1" transform="matrix(1,0,0,1,0,0)"><path stroke-linecap="butt" stroke-linejoin="miter" fill-opacity="0" stroke-miterlimit="10" stroke="rgb(56,48,84)" stroke-opacity="1" stroke-width="24.641" d="M0 0 M740.821,839.645 C740.821,839.645 747.9739999999999,923.5450000000001 752.997,965.642 C756.246,992.873 759.4150000000001,1056.317 759.821,1079.986"></path></g></g><g transform="matrix(1,0,0,1,-333.5,-234)" opacity="1" style="-webkit-user-select: none;"><g opacity="1" transform="matrix(1,0,0,1,0,0)"><path stroke-linecap="butt" stroke-linejoin="miter" fill-opacity="0" stroke-miterlimit="10" stroke="rgb(131,39,39)" stroke-opacity="1" stroke-width="24.641" d="M0 0 M758.722,1048.655 C759.301,1061.422 759.695,1072.627 759.821,1079.986"></path></g></g><g transform="matrix(1,0,0,1,-333.5,-234)" opacity="1" style="-webkit-user-select: none;"><g opacity="1" transform="matrix(1,0,0,1,0,0)"><path stroke-linecap="butt" stroke-linejoin="miter" fill-opacity="0" stroke-miterlimit="10" stroke="rgb(56,48,84)" stroke-opacity="1" stroke-width="24.641" d="M0 0 M810.684,827.647 C810.684,827.647 807.766,897.554 810.684,945.308 C812.353,972.616 849.9929999999999,1019.732 868.218,1034.521"></path></g></g><g transform="matrix(1,0,0,1,-333.5,-234)" opacity="1" style="-webkit-user-select: none;"><g opacity="1" transform="matrix(1,0,0,1,0,0)"><path stroke-linecap="butt" stroke-linejoin="miter" fill-opacity="0" stroke-miterlimit="10" stroke="rgb(131,39,39)" stroke-opacity="1" stroke-width="24.641" d="M0 0 M843.479,1008.298 C852.518,1019.619 861.635,1029.179 868.218,1034.521"></path></g></g><g transform="matrix(0.9854,-0.1702,0.1702,0.9854,-465.7696,-98.3644)" opacity="1" style="-webkit-user-select: none;"><g opacity="1" transform="matrix(1,0,0,1,0,0)"><path fill="rgb(229,208,14)" fill-opacity="1" d="M0 0 M783.83,687.447 C783.83,687.447 746.161,686.715 746.161,686.715 C746.161,686.715 737.903,804.947 737.903,804.947 C737.903,804.947 814.01,804.947 814.01,804.947 C814.01,804.947 783.83,687.447 783.83,687.447z"></path></g></g></g></svg>