<svg xmlns="http://www.w3.org/2000/svg" viewBox="0 0 886 724" width="886" height="724" preserveAspectRatio="xMidYMid meet" style="width: 100%; height: 100%;"><defs><clipPath id="animationMask_WRfMrLEKug"><rect width="886" height="724" x="0" y="0"></rect></clipPath></defs><g clip-path="url(#animationMask_WRfMrLEKug)"><g transform="matrix(1.0933,0,0,1.0166,756,1094)" opacity="1" style="-webkit-user-select: none;"><g opacity="1" transform="matrix(1,0,0,1,0,0)"><path fill="rgb(242,190,144)" fill-opacity="1" d="M0 0 M145.583,-360.798 C145.583,-360.798 -730.857,-360.798 -730.857,-360.798 C-730.857,-360.798 -730.857,-1080 -730.857,-1080 C-730.857,-1080 145.583,-1080 145.583,-1080 C145.583,-1080 145.583,-360.798 145.583,-360.798z"></path></g></g><g transform="matrix(1,0,0,1,443,362)" opacity="1" style="-webkit-user-select: none;"><g opacity="1" transform="matrix(1,0,0,1,0,0)"><path fill="rgb(255,255,255)" fill-opacity="1" d="M0 0 M136.736,-242 C105.19,-242 73.063,-242 40.734,-242"></path><path stroke-linecap="round" stroke-linejoin="miter" fill-opacity="0" stroke-miterlimit="4" stroke="rgb(47,162,129)" stroke-opacity="1" stroke-width="7" d="M0 0 M136.736,-242 C105.19,-242 73.063,-242 40.734,-242"></path></g></g><g transform="matrix(1,0,0,1,443,862)" opacity="1" style="-webkit-user-select: none;"><g opacity="1" transform="matrix(1,0,0,1,0,0)"><path fill="rgb(255,255,255)" fill-opacity="1" d="M0 0 M-163.272,-242 C-196.067,-242 -228.211,-242 -259.278,-242"></path><path stroke-linecap="butt" stroke-linejoin="round" fill-opacity="0" stroke="rgb(47,162,129)" stroke-opacity="1" stroke-width="7" d="M0 0 M-163.272,-242 C-196.067,-242 -228.211,-242 -259.278,-242"></path></g></g><g transform="matrix(1,0,0,1,443,662)" opacity="1" style="-webkit-user-select: none;"><g opacity="1" transform="matrix(1,0,0,1,0,0)"><path fill="rgb(255,255,255)" fill-opacity="1" d="M0 0 M333.414,-242 C288.704,-242 240.136,-242 189.408,-242"></path><path stroke-linecap="butt" stroke-linejoin="round" fill-opacity="0" stroke="rgb(47,162,129)" stroke-opacity="1" stroke-width="7" d="M0 0 M333.414,-242 C288.704,-242 240.136,-242 189.408,-242"></path></g></g><g transform="matrix(1,0,0,1,443,542)" opacity="1" style="-webkit-user-select: none;"><g opacity="1" transform="matrix(1,0,0,1,0,0)"><path fill="rgb(255,255,255)" fill-opacity="1" d="M0 0 M6.733,-242 C-41.531,-242 -89.948,-242 -137.268,-242"></path><path stroke-linecap="butt" stroke-linejoin="round" fill-opacity="0" stroke="rgb(47,162,129)" stroke-opacity="1" stroke-width="7" d="M0 0 M6.733,-242 C-41.531,-242 -89.948,-242 -137.268,-242"></path></g></g><g transform="matrix(1,0,0,1,443,762)" opacity="1" style="-webkit-user-select: none;"><g opacity="1" transform="matrix(1,0,0,1,0,0)"><path fill="rgb(255,255,255)" fill-opacity="1" d="M0 0 M-413.285,-242 C-472.829,-242 -522.573,-242 -557.271,-242"></path><path stroke-linecap="butt" stroke-linejoin="round" fill-opacity="0" stroke="rgb(47,162,129)" stroke-opacity="1" stroke-width="7" d="M0 0 M-413.285,-242 C-472.829,-242 -522.573,-242 -557.271,-242"></path></g></g><g transform="matrix(1,0,0,1,443,442)" opacity="1" style="-webkit-user-select: none;"><g opacity="1" transform="matrix(1,0,0,1,0,0)"><path fill="rgb(255,255,255)" fill-opacity="1" d="M0 0 M-234.61,-242 C-259.263,-242 -283.328,-242 -306.603,-242"></path><path stroke-linecap="butt" stroke-linejoin="round" fill-opacity="0" stroke="rgb(47,162,129)" stroke-opacity="1" stroke-width="7" d="M0 0 M-234.61,-242 C-259.263,-242 -283.328,-242 -306.603,-242"></path></g></g><g transform="matrix(1,0,0,1,443,802)" opacity="1" style="-webkit-user-select: none;"><g opacity="1" transform="matrix(1,0,0,1,0,0)"><path fill="rgb(255,255,255)" fill-opacity="1" d="M0 0 M122.072,-242 C98.311,-242 74.257,-242 50.069,-242"></path><path stroke-linecap="butt" stroke-linejoin="round" fill-opacity="0" stroke="rgb(47,162,129)" stroke-opacity="1" stroke-width="7" d="M0 0 M122.072,-242 C98.311,-242 74.257,-242 50.069,-242"></path></g></g><g transform="matrix(1,0,0,1,443,482)" opacity="1" style="-webkit-user-select: none;"><g opacity="1" transform="matrix(1,0,0,1,0,0)"><path fill="rgb(255,255,255)" fill-opacity="1" d="M0 0 M545.407,-242 C526.58,-242 502.215,-242 473.424,-242"></path><path stroke-linecap="butt" stroke-linejoin="round" fill-opacity="0" stroke="rgb(47,162,129)" stroke-opacity="1" stroke-width="7" d="M0 0 M545.407,-242 C526.58,-242 502.215,-242 473.424,-242"></path></g></g><g transform="matrix(1,0,0,1,443,622)" opacity="1" style="-webkit-user-select: none;"><g opacity="1" transform="matrix(1,0,0,1,0,0)"><path fill="rgb(255,255,255)" fill-opacity="1" d="M0 0 M-504.623,-242 C-570.599,-242 -611,-242 -611,-242 M589,-242 C589,-242 579.944,-242 563.407,-242"></path><path stroke-linecap="butt" stroke-linejoin="round" fill-opacity="0" stroke="rgb(47,162,129)" stroke-opacity="1" stroke-width="7" d="M0 0 M-504.623,-242 C-570.599,-242 -611,-242 -611,-242 M589,-242 C589,-242 579.944,-242 563.407,-242"></path></g></g><g transform="matrix(1,0,0,1,443,882)" opacity="1" style="-webkit-user-select: none;"><g opacity="1" transform="matrix(1,0,0,1,0,0)"><path fill="rgb(255,255,255)" fill-opacity="1" d="M0 0 M498.737,-242 C462.865,-242 417.887,-242 366.735,-242"></path><path stroke-linecap="butt" stroke-linejoin="round" fill-opacity="0" stroke="rgb(47,162,129)" stroke-opacity="1" stroke-width="7" d="M0 0 M498.737,-242 C462.865,-242 417.887,-242 366.735,-242"></path></g></g><g transform="matrix(0.9618,-0.2739,0.2739,0.9618,901.0469,957.3318)" opacity="1" style="-webkit-user-select: none;"><g opacity="1" transform="matrix(1,0,0,1,0,0)"><path fill="rgb(216,100,100)" fill-opacity="1" d="M0 0 M-266.005,-708.509 C-266.005,-708.509 -256.638,-703.778 -256.638,-703.778 C-254.70899999999997,-702.803 -252.333,-703.585 -251.358,-705.514 C-251.358,-705.514 -221.146,-765.326 -221.146,-765.326 C-220.171,-767.255 -220.953,-769.631 -222.882,-770.606 C-222.882,-770.606 -232.248,-775.338 -232.248,-775.338 C-234.177,-776.313 -236.553,-775.531 -237.528,-773.602 C-237.528,-773.602 -267.741,-713.789 -267.741,-713.789 C-268.716,-711.86 -267.93399999999997,-709.484 -266.005,-708.509z"></path></g></g><g transform="matrix(-0.8088,0.5881,-0.5881,-0.8088,-174.2935,-55.5527)" opacity="1" style="-webkit-user-select: none;"><g opacity="1" transform="matrix(1,0,0,1,0,0)"><path stroke-linecap="butt" stroke-linejoin="round" fill-opacity="0" stroke="rgb(221,102,102)" stroke-opacity="1" stroke-width="16" d="M0 0 M-274.27108214392734,-707.3380224304591 C-272.2518414103809,-701.6830685613414 -243.26317507778904,-668.7256822260681 -203.50372321470667,-665.5361011601823 C-162.37820056863924,-662.2371000805542 -151.36453897076024,-687.1733821060077 -133.77725044385278,-714.1980384842395"></path></g></g><g transform="matrix(1,0,0,1,736.0243,1069.9939)" opacity="1" style="-webkit-user-select: none;"><g opacity="1" transform="matrix(1,0,0,1,0,0)"><path stroke-linecap="butt" stroke-linejoin="round" fill-opacity="0" stroke="rgb(225,107,107)" stroke-opacity="1" stroke-width="17.273" d="M0 0 M-319.95853094914247,-591.3667004643019 C-319.95853094914247,-591.3667004643019 -340.45685471888675,-535.835842913002 -373.4122752601969,-512.4601480868408 C-403.62206365767236,-491.05176864373163 -455.0647473702687,-564.7422352645607 -468.155312613773,-587.1316839324884"></path></g></g><g transform="matrix(1,0,0,1,736.0243,1069.9939)" opacity="1" style="-webkit-user-select: none;"><g opacity="1" transform="matrix(1,0,0,1,0,0)"><path stroke-linecap="butt" stroke-linejoin="round" fill-opacity="0" stroke="rgb(226,222,177)" stroke-opacity="1" stroke-width="19" d="M0 0 M-457.076,-570.001 C-461.864,-576.879 -465.69,-582.915 -468.155,-587.132"></path></g></g><g transform="matrix(1,0,0,1,736.0243,1069.9939)" opacity="1" style="-webkit-user-select: none;"><g opacity="1" transform="matrix(1,0,0,1,0,0)"><path stroke-linecap="butt" stroke-linejoin="round" fill-opacity="0" stroke="rgb(225,221,176)" stroke-opacity="1" stroke-width="19" d="M0 0 M-319.959,-591.367 C-319.959,-591.367 -326.79,-572.86 -338.905,-552.718"></path></g></g><g transform="matrix(0.9659,-0.2588,0.2588,0.9659,878.7292,978.2919)" opacity="1" style="-webkit-user-select: none;"><g opacity="1" transform="matrix(1,0,0,1,0,0)"><path stroke-linecap="butt" stroke-linejoin="round" fill-opacity="0" stroke="rgb(234,120,120)" stroke-opacity="1" stroke-width="17.273" d="M0 0 M-277.64831475390804,-586.8671887662938 C-277.64831475390804,-586.8671887662938 -247.8715386190879,-560.7172876413443 -220.65331593509688,-511.51235110811064 C-204.3762213771081,-481.69274668888374 -236.90247917126578,-433.51154259774654 -270.65867553391246,-401.7354840442766"></path></g></g><g transform="matrix(0.9659,-0.2588,0.2588,0.9659,878.7292,978.2919)" opacity="1" style="-webkit-user-select: none;"><g opacity="1" transform="matrix(1,0,0,1,0,0)"><path stroke-linecap="butt" stroke-linejoin="round" fill-opacity="0" stroke="rgb(247,244,208)" stroke-opacity="1" stroke-width="19" d="M0 0 M-256.616,-416.025 C-261.184,-411.002 -265.909,-406.206 -270.659,-401.735"></path></g></g><g transform="matrix(0.9659,-0.2588,0.2588,0.9659,878.7292,978.2919)" opacity="1" style="-webkit-user-select: none;"><g opacity="1" transform="matrix(1,0,0,1,0,0)"><path stroke-linecap="butt" stroke-linejoin="round" fill-opacity="0" stroke="rgb(247,244,208)" stroke-opacity="1" stroke-width="19" d="M0 0 M-277.648,-586.867 C-277.648,-586.867 -262.574,-573.629 -244.073,-548.268"></path></g></g><g transform="matrix(0.9877,-0.1564,0.1564,0.9877,824.4322,1006.331)" opacity="1" style="-webkit-user-select: none;"><g opacity="1" transform="matrix(1,0,0,1,0,0)"><path fill="rgb(106,76,147)" fill-opacity="1" d="M0 0 M-307.818,-594.365 C-307.818,-594.365 -264.687,-601.347 -264.687,-601.347 C-264.687,-601.347 -260.11631324922354,-627.6158579374292 -260.115917444144,-627.623611925627 C-260.1155216390644,-627.6313659138248 -246.822,-704.002 -246.822,-704.002 C-246.822,-704.002 -265.00060275250604,-723.9699420140029 -271.81055974447384,-720.8396753113233 C-278.62280658812404,-717.7084807055712 -287.56863420759515,-704.1180284352122 -299.2406342075952,-680.6480284352122 C-309.4176342075952,-660.1850284352122 -316.316,-643.2049999999999 -323.911,-614.117 C-324.699,-611.0999999999999 -307.818,-594.365 -307.818,-594.365z"></path></g></g><g></g><g transform="matrix(0.9877,-0.1564,0.1564,0.9877,824.4322,1006.331)" opacity="1" style="-webkit-user-select: none;"><g opacity="1" transform="matrix(1,0,0,1,0,0)"><path fill="rgb(247,244,208)" fill-opacity="1" d="M0 0 M-324.458,-612.023 C-335.851,-587.2950000000001 -330.32,-581.873 -325.359,-576.778 C-320.39799999999997,-571.683 -291.8551621353809,-564.0341703474327 -277.91514079808405,-567.2010327780185 C-270.1478589913506,-568.9659790136456 -268.315790136455,-584.5790388844159 -268.315790136455,-584.5790388844159 C-268.315790136455,-584.5790388844159 -264.687,-600.52 -264.687,-600.52 C-264.687,-600.52 -324.458,-612.023 -324.458,-612.023z"></path></g></g><g transform="matrix(0.8663,-0.4995,0.4995,0.8663,1042.5605,832.817)" opacity="1" style="-webkit-user-select: none;"><g opacity="1" transform="matrix(1,0,0,1,0,0)"><path stroke-linecap="butt" stroke-linejoin="round" fill-opacity="0" stroke="rgb(234,120,120)" stroke-opacity="1" stroke-width="16" d="M0 0 M-264.827,-701.62 C-262.812,-695.964 -249.6085709985934,-642.3595646906483 -203.2133824898525,-633.0575340844133 C-173.00146770601387,-626.9981825427658 -158.49874089861,-657.6980513591993 -155.93102006902416,-682.3702492986641"></path></g></g><g transform="matrix(0.8663,-0.4995,0.4995,0.8663,1042.5605,832.817)" opacity="1" style="-webkit-user-select: none;"><g opacity="1" transform="matrix(1,0,0,1,0,0)"><path stroke-linecap="butt" stroke-linejoin="round" fill-opacity="0" stroke="rgb(61,37,56)" stroke-opacity="1" stroke-width="25" d="M0 0 M-167.834,-648.057 C-165.544,-651.333 -163.59,-654.956 -161.959,-658.759"></path></g></g><g transform="matrix(0.8663,-0.4995,0.4995,0.8663,1042.5605,832.817)" opacity="1" style="-webkit-user-select: none;"><g opacity="1" transform="matrix(1,0,0,1,0,0)"><path stroke-linecap="round" stroke-linejoin="round" fill-opacity="0" stroke="rgb(35,229,210)" stroke-opacity="1" stroke-width="15" d="M0 0 M-165,-652.578 C-164.715,-653.084 -164.437,-653.596 -164.166,-654.113"></path></g></g><g transform="matrix(0.8663,-0.4995,0.4995,0.8663,1042.5605,832.817)" opacity="1" style="-webkit-user-select: none;"><g opacity="1" transform="matrix(1,0,0,1,0,0)"><path fill="rgb(234,120,120)" fill-opacity="1" d="M0 0 M-257.551,-698.814 C-259.101,-694.795 -263.614,-692.794 -267.633,-694.343 C-271.652,-695.8919999999999 -273.654,-700.407 -272.104,-704.426 C-270.554,-708.445 -266.041,-710.4459999999999 -262.022,-708.896 C-258.003,-707.346 -256.001,-702.833 -257.551,-698.814z"></path></g></g><g transform="matrix(1,-0.0019,0.0019,1,705.0221,1051.5809)" opacity="1" style="-webkit-user-select: none;"><g opacity="1" transform="matrix(1,0,0,1,0,0)"><path fill="rgb(234,120,120)" fill-opacity="1" d="M0 0 M-186.569,-757.922 C-186.569,-740.159 -200.969,-725.759 -218.732,-725.759 C-236.495,-725.759 -250.895,-740.159 -250.895,-757.922 C-250.895,-775.6850000000001 -236.495,-790.085 -218.732,-790.085 C-200.969,-790.085 -186.569,-775.6850000000001 -186.569,-757.922z"></path></g></g><g transform="matrix(1,-0.0019,0.0019,1,704.3602,1051.8859)" opacity="1" style="-webkit-user-select: none;"><g opacity="1" transform="matrix(1,0,0,1,0,0)"><path fill="rgb(61,37,56)" fill-opacity="1" d="M0 0 M-231.786,-791.949 C-231.786,-784.0899999999999 -238.15699999999998,-777.719 -246.016,-777.719 C-253.875,-777.719 -260.246,-784.0899999999999 -260.246,-791.949 C-260.246,-799.808 -253.875,-806.18 -246.016,-806.18 C-238.15699999999998,-806.18 -231.786,-799.808 -231.786,-791.949z"></path></g></g><g transform="matrix(1,-0.0019,0.0019,1,704.2151,1052.0168)" opacity="1" style="-webkit-user-select: none;"><g opacity="1" transform="matrix(1,0,0,1,0,0)"><path fill="rgb(61,37,56)" fill-opacity="1" d="M0 0 M-240.258,-772.27 C-240.258,-764.411 -246.629,-758.04 -254.488,-758.04 C-262.347,-758.04 -268.718,-764.411 -268.718,-772.27 C-268.718,-780.129 -262.347,-786.501 -254.488,-786.501 C-246.629,-786.501 -240.258,-780.129 -240.258,-772.27z"></path></g></g><g transform="matrix(1,-0.0019,0.0019,1,704.452,1052.0788)" opacity="1" style="-webkit-user-select: none;"><g opacity="1" transform="matrix(1,0,0,1,0,0)"><path fill="rgb(61,37,56)" fill-opacity="1" d="M0 0 M-206.376,-798.664 C-206.376,-790.805 -212.74699999999999,-784.433 -220.606,-784.433 C-228.465,-784.433 -234.836,-790.805 -234.836,-798.664 C-234.836,-806.523 -228.465,-812.894 -220.606,-812.894 C-212.74699999999999,-812.894 -206.376,-806.523 -206.376,-798.664z"></path></g></g><g transform="matrix(1,-0.0019,0.0019,1,704.3793,1052.2837)" opacity="1" style="-webkit-user-select: none;"><g opacity="1" transform="matrix(1,0,0,1,0,0)"><path fill="rgb(61,37,56)" fill-opacity="1" d="M0 0 M-181.291,-793.044 C-181.291,-785.185 -187.66299999999998,-778.814 -195.522,-778.814 C-203.381,-778.814 -209.752,-785.185 -209.752,-793.044 C-209.752,-800.903 -203.381,-807.275 -195.522,-807.275 C-187.66299999999998,-807.275 -181.291,-800.903 -181.291,-793.044z"></path></g></g><g transform="matrix(1,-0.0019,0.0019,1,705.0221,1051.5809)" opacity="1" style="-webkit-user-select: none;"><g opacity="1" transform="matrix(1,0,0,1,0,0)"><path fill="rgb(61,37,56)" fill-opacity="1" d="M0 0 M-195.522,-785.397 C-201.708,-790.173 -209.441,-793.044 -217.861,-793.044 C-238.089,-793.044 -254.488,-776.646 -254.488,-756.418 C-254.488,-752.231 -253.101,-749.43 -249.004,-747.531 C-243.57999999999998,-761.637 -235.63600000000002,-767.526 -221.3,-767.006 C-203.888,-766.374 -197.715,-777.49 -195.522,-785.397z"></path></g></g><g transform="matrix(1,-0.0019,0.0019,1,705.0221,1051.5809)" opacity="1" style="-webkit-user-select: none;"><g opacity="1" transform="matrix(1,0,0,1,0,0)"><path fill="rgb(61,37,56)" fill-opacity="1" d="M0 0 M-195.522,-754.645 C-195.522,-754.645 -195.522,-754.645 -195.522,-754.645 C-196.29399999999998,-754.645 -196.926,-755.2769999999999 -196.926,-756.049 C-196.926,-756.049 -196.926,-759.795 -196.926,-759.795 C-196.926,-760.567 -196.29399999999998,-761.199 -195.522,-761.199 C-195.522,-761.199 -195.522,-761.199 -195.522,-761.199 C-194.75,-761.199 -194.117,-760.567 -194.117,-759.795 C-194.117,-759.795 -194.117,-756.049 -194.117,-756.049 C-194.117,-755.2769999999999 -194.75,-754.645 -195.522,-754.645z"></path></g></g></g></svg>