<svg xmlns="http://www.w3.org/2000/svg" width="886" height="724" style="width:100%;height:100%"><defs><clipPath id="a"><path d="M0 0h886v724H0z"/></clipPath></defs><g clip-path="url(#a)"><path fill="#F2BE90" d="M915.17 727.21H-43.05V-3.93h958.22v731.14z"/><g style="-webkit-user-select:none"><path fill="#FFF" d="M579.74 120h-96"/><path stroke-linecap="round" stroke="#2FA281" stroke-width="7" d="M579.74 120h-96" fill="none"/></g><g style="-webkit-user-select:none"><path fill="#FFF" d="M279.73 620h-96"/><path stroke-linejoin="round" stroke="#2FA281" stroke-width="7" d="M279.73 620h-96" fill="none"/></g><g style="-webkit-user-select:none"><path fill="#FFF" d="M776.41 420h-144"/><path stroke-linejoin="round" stroke="#2FA281" stroke-width="7" d="M776.41 420h-144" fill="none"/></g><g style="-webkit-user-select:none"><path fill="#FFF" d="M449.73 300h-144"/><path stroke-linejoin="round" stroke="#2FA281" stroke-width="7" d="M449.73 300h-144" fill="none"/></g><g style="-webkit-user-select:none"><path fill="#FFF" d="M29.71 520h-143.98"/><path stroke-linejoin="round" stroke="#2FA281" stroke-width="7" d="M29.71 520h-143.98" fill="none"/></g><g style="-webkit-user-select:none"><path fill="#FFF" d="M208.39 200h-72"/><path stroke-linejoin="round" stroke="#2FA281" stroke-width="7" d="M208.39 200h-72" fill="none"/></g><g style="-webkit-user-select:none"><path fill="#FFF" d="M565.07 560h-72"/><path stroke-linejoin="round" stroke="#2FA281" stroke-width="7" d="M565.07 560h-72" fill="none"/></g><g style="-webkit-user-select:none"><path fill="#FFF" d="M988.4 240h-71.98"/><path stroke-linejoin="round" stroke="#2FA281" stroke-width="7" d="M988.4 240h-71.98" fill="none"/></g><g style="-webkit-user-select:none"><path fill="#FFF" d="M-61.62 380H-168m1200 0h-25.6"/><path stroke-linejoin="round" stroke="#2FA281" stroke-width="7" d="M-61.62 380H-168m1200 0h-25.6" fill="none"/></g><g style="-webkit-user-select:none"><path fill="#FFF" d="M941.74 640h-132"/><path stroke-linejoin="round" stroke="#2FA281" stroke-width="7" d="M941.74 640h-132" fill="none"/></g><path fill="#D86464" d="M451.14 348.75l10.3 1.98c2.13.41 4.2-1 4.61-3.11l12.68-65.8c.4-2.13-1-4.2-3.12-4.61l-10.3-1.99c-2.13-.4-4.2 1-4.6 3.12l-12.68 65.8c-.41 2.13.99 4.2 3.11 4.6z"/><path stroke-linejoin="round" stroke="#D66" stroke-width="16" d="M463.52 355.24c-4.96-3.38-47.78-12.99-81.82 7.81-35.2 21.52-29.44 48.17-27.77 80.37" fill="none"/><path stroke-linejoin="round" stroke="#E16B6B" stroke-width="17.27" d="M416.07 478.63s-20.5 55.53-53.46 78.9c-30.2 21.41-81.65-52.28-94.74-74.67" fill="none"/><path stroke-linejoin="round" stroke="#E2DEB1" stroke-width="19" d="M278.95 500a270 270 0 0 1-11.08-17.14" fill="none"/><path stroke-linejoin="round" stroke="#E1DDB0" stroke-width="19" d="M416.07 478.63s-6.84 18.5-18.95 38.65" fill="none"/><path stroke-linejoin="round" stroke="#EA7878" stroke-width="17.27" d="M458.67 483.3s35.53 17.54 74.55 58.03c23.44 24.59 4.5 79.54-19.89 118.97" fill="none"/><path stroke-linejoin="round" stroke="#F7F4D0" stroke-width="19" d="M523.2 642.87a259.01 259.01 0 0 1-9.87 17.43m-54.66-177s17.98 8.88 42.42 28.59" fill="none"/><path fill="#6A4C93" d="M427.44 467.42l41.51-13.64.4-26.67 1.19-77.52s-21.08-16.88-27.31-12.72c-6.24 4.16-12.95 18.98-20.81 43.99-6.85 21.8-11.01 39.65-13.96 69.57-.3 3.1 18.98 16.99 18.98 16.99z"/><path fill="#F7F4D0" d="M408.24 452.58c-7.38 26.2-1.07 30.7 4.63 34.95 5.7 4.26 35.08 7.35 48.36 2.04 7.4-2.96 6.76-18.66 6.76-18.66l1.09-16.32-60.84-2z"/><path stroke-linejoin="round" stroke="#EA7878" stroke-width="16" d="M462.68 357.28c4.57 3.9 42.79 43.74 87.62 28.62 29.2-9.84 26.43-43.68 16.33-66.33" fill="none"/><path stroke-linejoin="round" stroke="#3D2538" stroke-width="25" d="M573.46 355.24c.35-3.98.23-8.1-.25-12.2" fill="none"/><path stroke-linecap="round" stroke-linejoin="round" stroke="#23E5D2" stroke-width="15" d="M573.66 349.9c0-.57-.02-1.16-.05-1.74" fill="none"/><path fill="#EA7878" d="M470.39 356.08a7.8 7.8 0 1 1-15.41 2.4 7.8 7.8 0 0 1 15.4-2.4zM517 294.01a32.16 32.16 0 1 1-64.32.13A32.16 32.16 0 0 1 517 294z"/><path fill="#3D2538" d="M471.07 260.38a14.23 14.23 0 1 1-28.46.05 14.23 14.23 0 0 1 28.46-.05z"/><path fill="#3D2538" d="M462.49 280.2a14.23 14.23 0 1 1-28.46.06 14.23 14.23 0 0 1 28.46-.06zm34.07-26.4a14.23 14.23 0 1 1-28.46.06 14.23 14.23 0 0 1 28.46-.05z"/><path fill="#3D2538" d="M521.58 259.58a14.23 14.23 0 1 1-28.46.06 14.23 14.23 0 0 1 28.46-.06z"/><path fill="#3D2538" d="M508 266.56a36.42 36.42 0 0 0-22.35-7.6 36.63 36.63 0 0 0-36.55 36.69c0 4.18 1.4 6.98 5.5 8.87 5.4-14.11 13.33-20.02 27.66-19.52 17.42.6 23.57-10.53 25.75-18.44zm.07 30.75a1.4 1.4 0 0 1-1.41-1.4v-3.75c0-.77.62-1.4 1.4-1.4.77 0 1.4.62 1.4 1.4v3.74c.01.77-.62 1.4-1.4 1.4z"/></g></svg>