<svg xmlns="http://www.w3.org/2000/svg" viewBox="0 0 1592 1284" width="1592" height="1284" preserveAspectRatio="xMidYMid meet" style="width: 100%; height: 100%;"><defs><clipPath id="animationMask_62PmlKsruy"><rect width="1592" height="1284" x="0" y="0"></rect></clipPath><linearGradient id="gr_XIBeYxuKbr" spreadMethod="pad" gradientUnits="userSpaceOnUse" x1="1126" y1="118" x2="1126" y2="-1056.205"><stop offset="0%" stop-color="rgb(209,38,112)"></stop><stop offset="50%" stop-color="rgb(184,19,114)"></stop><stop offset="100%" stop-color="rgb(158,0,116)"></stop></linearGradient><linearGradient id="gr_wZnOt3DPY1" spreadMethod="pad" gradientUnits="userSpaceOnUse" x1="1111" y1="253" x2="1611.975" y2="-258.474"><stop offset="0%" stop-color="rgb(232,239,182)"></stop><stop offset="50%" stop-color="rgb(232,239,182)"></stop><stop offset="100%" stop-color="rgb(232,239,182)"></stop></linearGradient><linearGradient id="op_JAEX725Boe" spreadMethod="pad" gradientUnits="userSpaceOnUse" x1="1111" y1="253" x2="1611.975" y2="-258.474"><stop stop-color="rgb(255,255,255)" offset="0%" stop-opacity="0"></stop><stop stop-color="rgb(255,255,255)" offset="50%" stop-opacity="0.5"></stop><stop stop-color="rgb(255,255,255)" offset="100%" stop-opacity="1"></stop></linearGradient><mask id="mk_KJbShsLVFW"><path fill="url(#op_JAEX725Boe)" d="M0 0 M1521.797,-348.099 C1521.797,-348.099 768.102,219.407 768.102,219.407 C768.102,219.407 1512.015,230 1512.015,230 C1512.015,230 1644.383,-265.812 1644.383,-265.812 C1644.383,-265.812 1644.383,-323.981 1644.383,-323.981 C1644.383,-323.981 1583.09,-356.679 1583.09,-356.679 C1583.09,-356.679 1521.797,-348.099 1521.797,-348.099"></path></mask></defs><g clip-path="url(#animationMask_62PmlKsruy)"><g transform="matrix(1,0,0,1.0607,-328,1080)" opacity="1" style="-webkit-user-select: none;"><g opacity="1" transform="matrix(1,0,0,1,0,0)"><path fill="url(#gr_XIBeYxuKbr)" fill-rule="evenodd" fill-opacity="1" d="M0 0 M1932,-1084.191 C1932,-1084.191 317.074,-1084.169 317.074,-1084.169 C317.074,-1084.169 317.074,197.809 317.074,197.809 C317.074,197.809 1932,197.786 1932,197.786 C1932,197.786 1932,-1084.191 1932,-1084.191z"></path></g></g><g transform="matrix(1,0,0,1,-328,1080)" opacity="0.42" style="-webkit-user-select: none;"><g opacity="1" transform="matrix(1,0,0,1,0,0)"><path fill="url(#gr_wZnOt3DPY1)" mask="url(#mk_KJbShsLVFW)" fill-opacity="1" d="M0 0 M1521.797,-348.099 C1521.797,-348.099 768.102,219.407 768.102,219.407 C768.102,219.407 1512.015,230 1512.015,230 C1512.015,230 1644.383,-265.812 1644.383,-265.812 C1644.383,-265.812 1644.383,-323.981 1644.383,-323.981 C1644.383,-323.981 1583.09,-356.679 1583.09,-356.679 C1583.09,-356.679 1521.797,-348.099 1521.797,-348.099"></path></g></g><g transform="matrix(1,0,0,1,-328,1080)" opacity="0.13" style="-webkit-user-select: none;"><g opacity="1" transform="matrix(1,0,0,1,0,0)"><path fill="rgb(255,255,182)" fill-opacity="1" d="M0 0 M1431.185,-810.287 C1431.185,-608.758 1267.814,-445.387 1066.285,-445.387 C864.7560000000001,-445.387 701.385,-608.758 701.385,-810.287 C701.385,-1011.816 864.7560000000001,-1175.188 1066.285,-1175.188 C1267.814,-1175.188 1431.185,-1011.816 1431.185,-810.287z"></path></g></g><g transform="matrix(1,0,0,1,-328,1087)" opacity="1" style="-webkit-user-select: none;"><g opacity="1" transform="matrix(1,0,0,1,0,0)"><path fill="rgb(65,7,79)" fill-opacity="1" d="M0 0 M1342.302,-434.829 C1342.302,-434.829 1342.302,-447.581 1342.302,-447.581 C1342.302,-447.581 1464.799,-447.581 1464.799,-447.581 C1464.799,-447.581 1464.799,-434.829 1464.799,-434.829 C1464.799,-434.829 1342.302,-434.829 1342.302,-434.829z"></path></g></g><g transform="matrix(1,0,0,1,-328,1087)" opacity="1" style="-webkit-user-select: none;"><g opacity="1" transform="matrix(1,0,0,1,0,0)"><path fill="rgb(204,212,237)" fill-opacity="1" d="M0 0 M1435.44,-410.431 C1435.44,-410.431 661.22,-410.431 661.22,-410.431 C645.072,-410.431 631.861,-423.642 631.861,-439.79 C631.861,-439.79 631.861,-496.911 631.861,-496.911 C631.861,-513.059 645.072,-526.271 661.22,-526.271 C661.22,-526.271 1435.44,-526.271 1435.44,-526.271 C1451.588,-526.271 1464.799,-513.059 1464.799,-496.911 C1464.799,-496.911 1464.799,-439.79 1464.799,-439.79 C1464.799,-423.642 1451.588,-410.431 1435.44,-410.431z"></path></g></g><g transform="matrix(1,0,0,1,-328,1087)" opacity="1" style="-webkit-user-select: none;"><g opacity="1" transform="matrix(1,0,0,1,0,0)"><path fill="rgb(102,6,93)" fill-opacity="1" d="M0 0 M1167.183,171.244 C1167.183,171.244 802.434,171.244 802.434,171.244 C774.934,171.244 752.434,148.744 752.434,121.244 C752.434,121.244 752.434,3.849 752.434,3.849 C752.434,-23.651 774.934,-46.151 802.434,-46.151 C802.434,-46.151 1167.183,-46.151 1167.183,-46.151 C1194.683,-46.151 1217.183,-23.651 1217.183,3.849 C1217.183,3.849 1217.183,121.244 1217.183,121.244 C1217.183,148.744 1194.683,171.244 1167.183,171.244z"></path></g></g><g transform="matrix(1,0,0,1,-328,1087)" opacity="1" style="-webkit-user-select: none;"><g opacity="1" transform="matrix(1,0,0,1,0,0)"><path fill="rgb(9,39,63)" fill-opacity="1" d="M0 0 M768.102,196.893 C768.102,196.893 737.569,196.893 737.569,196.893 C737.569,196.893 737.569,166.36 737.569,166.36 C737.569,166.36 768.102,166.36 768.102,166.36 C768.102,166.36 768.102,196.893 768.102,196.893z"></path></g></g><g transform="matrix(1,0,0,1,-328,1087)" opacity="1" style="-webkit-user-select: none;"><g opacity="1" transform="matrix(1,0,0,1,0,0)"><path fill="rgb(9,39,63)" fill-opacity="1" d="M0 0 M1232.048,196.893 C1232.048,196.893 1201.515,196.893 1201.515,196.893 C1201.515,196.893 1201.515,166.36 1201.515,166.36 C1201.515,166.36 1232.048,166.36 1232.048,166.36 C1232.048,166.36 1232.048,196.893 1232.048,196.893z"></path></g></g><g transform="matrix(1,0,0,1,-328,1087)" opacity="1" style="-webkit-user-select: none;"><g opacity="1" transform="matrix(1,0,0,1,0,0)"><path fill="rgb(127,11,111)" fill-opacity="1" d="M0 0 M932.458,97.36 C932.458,97.36 802.434,97.36 802.434,97.36 C774.934,97.36 752.434,74.86 752.434,47.36 C752.434,47.36 752.434,-2.119 752.434,-2.119 C752.434,-29.619 774.934,-52.119 802.434,-52.119 C802.434,-52.119 932.458,-52.119 932.458,-52.119 C959.958,-52.119 982.458,-29.619 982.458,-2.119 C982.458,-2.119 982.458,47.36 982.458,47.36 C982.458,74.86 959.958,97.36 932.458,97.36z"></path></g></g><g transform="matrix(1,0,0,1,-328,1087)" opacity="1" style="-webkit-user-select: none;"><g opacity="1" transform="matrix(1,0,0,1,0,0)"><path fill="rgb(127,11,111)" fill-opacity="1" d="M0 0 M1167.183,97.36 C1167.183,97.36 1037.159,97.36 1037.159,97.36 C1009.6590000000001,97.36 987.159,74.86 987.159,47.36 C987.159,47.36 987.159,-2.119 987.159,-2.119 C987.159,-29.619 1009.6590000000001,-52.119 1037.159,-52.119 C1037.159,-52.119 1167.183,-52.119 1167.183,-52.119 C1194.683,-52.119 1217.183,-29.619 1217.183,-2.119 C1217.183,-2.119 1217.183,47.36 1217.183,47.36 C1217.183,74.86 1194.683,97.36 1167.183,97.36z"></path></g></g><g transform="matrix(1,0,0,1,-328,1087)" opacity="0.64" style="-webkit-user-select: none;"><g opacity="1" transform="matrix(1,0,0,1,0,0)"><path fill="rgb(96,5,87)" fill-opacity="1" d="M0 0 M1216.782,19.512 C1216.782,19.512 1126.333,92.133 1126.333,92.133 C1126.333,92.133 1217.183,128.111 1217.183,128.111 C1217.183,128.111 1216.782,19.512 1216.782,19.512z"></path></g></g><g transform="matrix(1,0,0,1,-328,1087)" opacity="1" style="-webkit-user-select: none;"><g opacity="1" transform="matrix(1,0,0,1,0,0)"><path fill="rgb(153,20,140)" fill-opacity="1" d="M0 0 M750.297,142.568 C750.297,142.568 750.297,127.676 750.297,127.676 C750.297,108.12700000000001 766.2900000000001,92.133 785.839,92.133 C785.839,92.133 1181.64,92.133 1181.64,92.133 C1201.189,92.133 1217.183,108.12700000000001 1217.183,127.676 C1217.183,127.676 1217.183,142.568 1217.183,142.568 C1217.183,162.11700000000002 1201.189,178.111 1181.64,178.111 C1181.64,178.111 785.839,178.111 785.839,178.111 C766.2900000000001,178.111 750.297,162.11700000000002 750.297,142.568z"></path></g></g><g transform="matrix(1,0,0,1,-328,1087)" opacity="1" style="-webkit-user-select: none;"><g opacity="1" transform="matrix(1,0,0,1,0,0)"><path fill="rgb(153,20,140)" fill-opacity="1" d="M0 0 M702.434,178.111 C702.434,178.111 699.95,178.111 699.95,178.111 C672.45,178.111 649.95,155.611 649.95,128.111 C649.95,128.111 649.95,44.914 649.95,44.914 C649.95,17.414 672.45,-5.086 699.95,-5.086 C699.95,-5.086 702.434,-5.086 702.434,-5.086 C729.934,-5.086 752.434,17.414 752.434,44.914 C752.434,44.914 752.434,128.111 752.434,128.111 C752.434,155.611 729.934,178.111 702.434,178.111z"></path></g></g><g transform="matrix(1,0,0,1,-328,1087)" opacity="1" style="-webkit-user-select: none;"><g opacity="1" transform="matrix(1,0,0,1,0,0)"><path fill="rgb(153,20,140)" fill-opacity="1" d="M0 0 M1269.668,178.111 C1269.668,178.111 1267.183,178.111 1267.183,178.111 C1239.683,178.111 1217.183,155.611 1217.183,128.111 C1217.183,128.111 1217.183,44.914 1217.183,44.914 C1217.183,17.414 1239.683,-5.086 1267.183,-5.086 C1267.183,-5.086 1269.668,-5.086 1269.668,-5.086 C1297.168,-5.086 1319.668,17.414 1319.668,44.914 C1319.668,44.914 1319.668,128.111 1319.668,128.111 C1319.668,155.611 1297.168,178.111 1269.668,178.111z"></path></g></g><g transform="matrix(1,0,0,1,-328,1087)" opacity="1" style="-webkit-user-select: none;"><g opacity="1" transform="matrix(1,0,0,1,0,0)"><path fill="rgb(70,5,86)" fill-opacity="1" d="M0 0 M1464.799,-467.552 C1464.799,-467.552 1464.799,-382.678 1464.799,-382.678 C1464.799,-382.678 606.359,-382.678 606.359,-382.678 C606.359,-382.678 606.359,-467.552 606.359,-467.552 C606.359,-467.552 1464.799,-467.552 1464.799,-467.552z"></path></g></g><g transform="matrix(1,0,0,1,-328,1087)" opacity="1" style="-webkit-user-select: none;"><g opacity="1" transform="matrix(1,0,0,1,0,0)"><path fill="rgb(153,20,140)" fill-opacity="1" d="M0 0 M1268.425,112.793 C1268.425,112.793 701.192,112.793 701.192,112.793 C701.192,112.793 701.192,178.111 701.192,178.111 C701.192,178.111 1268.425,178.111 1268.425,178.111 C1268.425,178.111 1268.425,112.793 1268.425,112.793z"></path></g></g><g transform="matrix(1,0,0,1,-328,1087)" opacity="1" style="-webkit-user-select: none;"><g opacity="1" transform="matrix(1,0,0,1,0,0)"><path fill="rgb(204,212,237)" fill-opacity="1" d="M0 0 M628.366,-614.435 C615.241,-601.843 621.788,-524.395 705.083,-526.345 C705.083,-526.345 750.239,-522.173 756.878,-533.238 C765.1410000000001,-547.0100000000001 748.698,-554.995 727.002,-562.008 C672.228,-579.7130000000001 656.423,-641.352 628.366,-614.435z"></path></g></g><g transform="matrix(1,0,0,1,-328,1087)" opacity="1" style="-webkit-user-select: none;"><g opacity="1" transform="matrix(1,0,0,1,0,0)"><path fill="rgb(90,10,107)" fill-opacity="1" d="M0 0 M629.397,196.893 C629.397,196.893 603.894,196.893 603.894,196.893 C603.894,196.893 603.894,-588.907 603.894,-588.907 C603.894,-588.907 629.397,-588.907 629.397,-588.907 C629.397,-588.907 629.397,196.893 629.397,196.893z"></path></g></g><g transform="matrix(1,0,0,1,-328,1087)" opacity="1" style="-webkit-user-select: none;"><g opacity="1" transform="matrix(1,0,0,1,0,0)"><path fill="rgb(177,151,211)" fill-opacity="1" d="M0 0 M1080.82,-316.939 C1080.82,-316.939 816.451,-316.939 816.451,-316.939 C801.153,-316.939 788.636,-329.457 788.636,-344.755 C788.636,-344.755 788.636,-526.575 788.636,-526.575 C788.636,-541.873 801.153,-554.391 816.451,-554.391 C816.451,-554.391 1080.82,-554.391 1080.82,-554.391 C1096.118,-554.391 1108.636,-541.873 1108.636,-526.575 C1108.636,-526.575 1108.636,-344.755 1108.636,-344.755 C1108.636,-329.457 1096.118,-316.939 1080.82,-316.939z"></path></g></g><g transform="matrix(1,0,0,1,-328,1087)" opacity="1" style="-webkit-user-select: none;"><g opacity="1" transform="matrix(1,0,0,1,0,0)"><path fill="rgb(133,153,201)" fill-opacity="1" d="M0 0 M1208.958,-467.552 C1208.958,-467.552 1198.094,-518 1231.297,-528.5 C1231.297,-528.5 1207.258,-532.786 1207.258,-532.786 C1207.258,-532.786 1187.48,-514.894 1187.48,-514.894 C1187.48,-514.894 1191.811,-467.552 1191.811,-467.552 C1191.811,-467.552 1208.958,-467.552 1208.958,-467.552z"></path></g></g><g transform="matrix(1,0,0,1,-328,1087)" opacity="1" style="-webkit-user-select: none;"><g opacity="1" transform="matrix(1,0,0,1,0,0)"><path fill="rgb(133,153,201)" fill-opacity="1" d="M0 0 M1296.927,-526.271 C1296.927,-526.271 1312.5,-526.271 1312.5,-526.271 C1312.5,-526.271 1325.5,-512.104 1310.5,-467.552 C1310.5,-467.552 1292.259,-467.552 1292.259,-467.552 C1292.259,-467.552 1296.927,-526.271 1296.927,-526.271z"></path></g></g><g transform="matrix(1,0,0,1,-328,1087)" opacity="1" style="-webkit-user-select: none;"><g opacity="1" transform="matrix(1,0,0,1,0,0)"><path fill="rgb(65,7,79)" fill-opacity="1" d="M0 0 M1342.302,65.486 C1342.302,65.486 1342.302,52.734 1342.302,52.734 C1342.302,52.734 1464.799,52.734 1464.799,52.734 C1464.799,52.734 1464.799,65.486 1464.799,65.486 C1464.799,65.486 1342.302,65.486 1342.302,65.486z"></path></g></g><g transform="matrix(1,0,0,1,-328,1087)" opacity="1" style="-webkit-user-select: none;"><g opacity="1" transform="matrix(1,0,0,1,0,0)"><path fill="rgb(65,7,79)" fill-opacity="1" d="M0 0 M1342.302,-34.577 C1342.302,-34.577 1342.302,-47.329 1342.302,-47.329 C1342.302,-47.329 1464.799,-47.329 1464.799,-47.329 C1464.799,-47.329 1464.799,-34.577 1464.799,-34.577 C1464.799,-34.577 1342.302,-34.577 1342.302,-34.577z"></path></g></g><g transform="matrix(1,0,0,1,-328,1087)" opacity="1" style="-webkit-user-select: none;"><g opacity="1" transform="matrix(1,0,0,1,0,0)"><path fill="rgb(65,7,79)" fill-opacity="1" d="M0 0 M1342.302,165.549 C1342.302,165.549 1342.302,152.797 1342.302,152.797 C1342.302,152.797 1464.799,152.797 1464.799,152.797 C1464.799,152.797 1464.799,165.549 1464.799,165.549 C1464.799,165.549 1342.302,165.549 1342.302,165.549z"></path></g></g><g transform="matrix(1,0,0,1,-328,1087)" opacity="1" style="-webkit-user-select: none;"><g opacity="1" transform="matrix(1,0,0,1,0,0)"><path fill="rgb(65,7,79)" fill-opacity="1" d="M0 0 M1342.302,-134.64 C1342.302,-134.64 1342.302,-147.392 1342.302,-147.392 C1342.302,-147.392 1464.799,-147.392 1464.799,-147.392 C1464.799,-147.392 1464.799,-134.64 1464.799,-134.64 C1464.799,-134.64 1342.302,-134.64 1342.302,-134.64z"></path></g></g><g transform="matrix(1,0,0,1,-328,1087)" opacity="1" style="-webkit-user-select: none;"><g opacity="1" transform="matrix(1,0,0,1,0,0)"><path fill="rgb(65,7,79)" fill-opacity="1" d="M0 0 M1342.302,-234.703 C1342.302,-234.703 1342.302,-247.455 1342.302,-247.455 C1342.302,-247.455 1464.799,-247.455 1464.799,-247.455 C1464.799,-247.455 1464.799,-234.703 1464.799,-234.703 C1464.799,-234.703 1342.302,-234.703 1342.302,-234.703z"></path></g></g><g transform="matrix(1,0,0,1,-328,1087)" opacity="1" style="-webkit-user-select: none;"><g opacity="1" transform="matrix(1,0,0,1,0,0)"><path fill="rgb(65,7,79)" fill-opacity="1" d="M0 0 M1342.302,-334.766 C1342.302,-334.766 1342.302,-347.518 1342.302,-347.518 C1342.302,-347.518 1464.799,-347.518 1464.799,-347.518 C1464.799,-347.518 1464.799,-334.766 1464.799,-334.766 C1464.799,-334.766 1342.302,-334.766 1342.302,-334.766z"></path></g></g><g transform="matrix(1,0,0,1,-328,1087)" opacity="1" style="-webkit-user-select: none;"><g opacity="1" transform="matrix(1,0,0,1,0,0)"><path fill="rgb(90,10,107)" fill-opacity="1" d="M0 0 M1490.302,196.893 C1490.302,196.893 1464.799,196.893 1464.799,196.893 C1464.799,196.893 1464.799,-588.907 1464.799,-588.907 C1464.799,-588.907 1490.302,-588.907 1490.302,-588.907 C1490.302,-588.907 1490.302,196.893 1490.302,196.893z"></path></g></g><g transform="matrix(1,0,0,1,-328,1087)" opacity="1" style="-webkit-user-select: none;"><g opacity="1" transform="matrix(1,0,0,1,0,0)"><path fill="rgb(90,10,107)" fill-opacity="1" d="M0 0 M1362.314,196.893 C1362.314,196.893 1336.812,196.893 1336.812,196.893 C1336.812,196.893 1336.812,-467.552 1336.812,-467.552 C1336.812,-467.552 1362.314,-467.552 1362.314,-467.552 C1362.314,-467.552 1362.314,196.893 1362.314,196.893z"></path></g></g><g transform="matrix(1,0,0,1,-328,1087)" opacity="1" style="-webkit-user-select: none;"><g opacity="1" transform="matrix(1,0,0,1,0,0)"><path stroke-linecap="butt" stroke-linejoin="miter" fill-opacity="0" stroke-miterlimit="10" stroke="rgb(53,78,119)" stroke-opacity="1" stroke-width="12" d="M0 0 M1753.488,196.893 C1753.488,196.893 1753.488,-351.107 1753.488,-351.107 C1753.488,-378.607 1730.988,-401.107 1703.488,-401.107 C1703.488,-401.107 1675.488,-401.107 1675.488,-401.107 C1647.988,-401.107 1625.488,-378.607 1625.488,-351.107"></path></g></g><g transform="matrix(1,0,0,1,-328,1087)" opacity="1" style="-webkit-user-select: none;"><g opacity="1" transform="matrix(1,0,0,1,0,0)"><path fill="rgb(6,54,81)" fill-opacity="1" d="M0 0 M1706.539,206.229 C1706.539,206.229 1800.436,206.229 1800.436,206.229 C1805.781,206.229 1810.155,201.856 1810.155,196.511 C1810.155,196.511 1810.155,196.511 1810.155,196.511 C1810.155,191.166 1805.781,186.792 1800.436,186.792 C1800.436,186.792 1706.539,186.792 1706.539,186.792 C1701.194,186.792 1696.821,191.166 1696.821,196.511 C1696.821,196.511 1696.821,196.511 1696.821,196.511 C1696.821,201.856 1701.194,206.229 1706.539,206.229z"></path></g></g><g transform="matrix(1,0,0,1,-328,1087)" opacity="1" style="-webkit-user-select: none;"><g opacity="1" transform="matrix(1,0,0,1,0,0)"><path fill="rgb(6,54,81)" fill-opacity="1" d="M0 0 M1610.435,-365.702 C1610.435,-357.483 1617.097,-350.82 1625.316,-350.82 C1633.535,-350.82 1640.198,-357.483 1640.198,-365.702 C1640.198,-373.921 1633.535,-380.583 1625.316,-380.583 C1617.097,-380.583 1610.435,-373.921 1610.435,-365.702z"></path></g></g><g transform="matrix(1,0,0,1,-328,1087)" opacity="1" style="-webkit-user-select: none;"><g opacity="1" transform="matrix(1,0,0,1,0,0)"><path fill="rgb(6,54,81)" fill-opacity="1" d="M0 0 M1521.406,-348.295 C1544.279,-382.164 1590.278,-391.078 1624.147,-368.205 C1658.0159999999998,-345.332 1666.93,-299.33299999999997 1644.057,-265.464 C1644.057,-265.464 1580.99,-310.408 1580.99,-310.408 C1580.99,-310.408 1521.406,-348.295 1521.406,-348.295z"></path></g></g><g transform="matrix(1,0,0,1,-328,1087)" opacity="1" style="-webkit-user-select: none;"><g opacity="1" transform="matrix(1,0,0,1,0,0)"><path fill="rgb(232,239,182)" fill-opacity="1" d="M0 0 M1575.627,-295.838 C1609.478,-273.115 1640.261,-259.672 1644.383,-265.812 C1648.505,-271.952 1624.404,-295.351 1590.553,-318.074 C1556.7020000000002,-340.797 1525.919,-354.239 1521.797,-348.099 C1517.675,-341.959 1541.7759999999998,-318.56100000000004 1575.627,-295.838z"></path></g></g><g transform="matrix(1,0,0,1,-328,1087)" opacity="1" style="-webkit-user-select: none;"><g opacity="1" transform="matrix(1,0,0,1,0,0)"><path fill="rgb(12,81,47)" fill-opacity="1" d="M0 0 M327.09,-708.016 C327.09,-708.016 399.624,-708.016 399.624,-708.016 C399.624,-708.016 399.624,-645.591 399.624,-645.591 C399.624,-645.591 327.09,-645.591 327.09,-645.591 C327.09,-645.591 327.09,-708.016 327.09,-708.016z"></path></g></g><g transform="matrix(1,0,0,1,-328,1087)" opacity="1" style="-webkit-user-select: none;"><g opacity="1" transform="matrix(1,0,0,1,0,0)"><path fill="rgb(177,186,186)" fill-opacity="1" d="M0 0 M332.29,-728.736 C332.29,-728.736 391.138,-728.736 391.138,-728.736 C391.138,-728.736 391.138,-645.591 391.138,-645.591 C391.138,-645.591 332.29,-645.591 332.29,-645.591 C332.29,-645.591 332.29,-728.736 332.29,-728.736z"></path></g></g><g transform="matrix(1,0,0,1,-328,1087)" opacity="0.61" style="-webkit-user-select: none;"><g opacity="1" transform="matrix(1,0,0,1,0,0)"><path fill="rgb(14,69,99)" fill-opacity="1" d="M0 0 M339.939,-708.016 C339.939,-708.016 351.32,-707.038 351.32,-707.038 C351.32,-707.038 387.277,-651.863 387.277,-651.863 C387.277,-651.863 383.557,-638.26 383.557,-638.26 C383.557,-638.26 324.043,-638.26 324.043,-638.26 C324.043,-638.26 324.043,-713.857 324.043,-713.857 C324.043,-713.857 332.29,-713.857 332.29,-713.857 C332.29,-713.857 339.939,-708.016 339.939,-708.016z"></path></g></g><g transform="matrix(1,0,0,1,-328,1087)" opacity="1" style="-webkit-user-select: none;"><g opacity="1" transform="matrix(1,0,0,1,0,0)"><path fill="rgb(150,59,111)" fill-opacity="1" d="M0 0 M328.278,-717.121 C328.278,-717.121 343.762,-718.817 343.762,-718.817 C343.762,-718.817 351.599,-647.273 351.599,-647.273 C351.599,-647.273 336.116,-645.577 336.116,-645.577 C336.116,-645.577 328.278,-717.121 328.278,-717.121z"></path></g></g><g transform="matrix(1,0,0,1,-328,1087)" opacity="1" style="-webkit-user-select: none;"><g opacity="1" transform="matrix(1,0,0,1,0,0)"><path stroke-linecap="butt" stroke-linejoin="miter" fill-opacity="0" stroke-miterlimit="10" stroke="rgb(17,49,86)" stroke-opacity="1" stroke-width="5.579" d="M0 0 M379.313,-630.93 C379.313,-630.93 328.428,-552.243 328.428,-552.243"></path></g></g><g transform="matrix(1,0,0,1,-328,1087)" opacity="1" style="-webkit-user-select: none;"><g opacity="1" transform="matrix(1,0,0,1,0,0)"><path fill="rgb(49,49,66)" fill-opacity="1" d="M0 0 M412.488,-630.93 C412.488,-630.93 320.851,-630.93 320.851,-630.93 C320.851,-630.93 320.851,-645.591 320.851,-645.591 C320.851,-645.591 412.488,-645.591 412.488,-645.591 C412.488,-645.591 412.488,-630.93 412.488,-630.93z"></path></g></g><g transform="matrix(1,0,0,1,-328,1087)" opacity="1" style="-webkit-user-select: none;"><g opacity="1" transform="matrix(1,0,0,1,0,0)"><path fill="rgb(162,165,25)" fill-opacity="1" d="M0 0 M400.245,-655.052 C400.245,-655.052 386.424,-645.775 386.424,-645.775 C386.424,-645.775 344.273,-708.569 344.273,-708.569 C344.273,-708.569 358.094,-717.846 358.094,-717.846 C358.094,-717.846 400.245,-655.052 400.245,-655.052z"></path></g></g><g transform="matrix(1,0,0,1,-328,1087)" opacity="1" style="-webkit-user-select: none;"><g opacity="1" transform="matrix(1,0,0,1,0,0)"><path fill="rgb(12,73,79)" fill-opacity="1" d="M0 0 M327.09,-418.357 C327.09,-418.357 383.413,-418.357 383.413,-418.357 C383.413,-418.357 383.413,-355.932 383.413,-355.932 C383.413,-355.932 327.09,-355.932 327.09,-355.932 C327.09,-355.932 327.09,-418.357 327.09,-418.357z"></path></g></g><g transform="matrix(1,0,0,1,-328,1087)" opacity="1" style="-webkit-user-select: none;"><g opacity="1" transform="matrix(1,0,0,1,0,0)"><path fill="rgb(178,114,163)" fill-opacity="1" d="M0 0 M326.707,-355.932 C326.707,-355.932 326.707,-425.377 326.707,-425.377 C326.707,-425.377 376.878,-425.377 376.878,-425.377 C376.878,-425.377 376.878,-355.932 376.878,-355.932 C376.878,-355.932 326.707,-355.932 326.707,-355.932z"></path></g></g><g transform="matrix(1,0,0,1,-328,1087)" opacity="1" style="-webkit-user-select: none;"><g opacity="1" transform="matrix(1,0,0,1,0,0)"><path stroke-linecap="butt" stroke-linejoin="miter" fill-opacity="0" stroke-miterlimit="10" stroke="rgb(17,49,86)" stroke-opacity="1" stroke-width="5.579" d="M0 0 M379.313,-341.271 C379.313,-341.271 328.428,-262.584 328.428,-262.584"></path></g></g><g transform="matrix(1,0,0,1,-328,1087)" opacity="1" style="-webkit-user-select: none;"><g opacity="1" transform="matrix(1,0,0,1,0,0)"><path fill="rgb(49,49,66)" fill-opacity="1" d="M0 0 M412.488,-341.271 C412.488,-341.271 320.851,-341.271 320.851,-341.271 C320.851,-341.271 320.851,-355.932 320.851,-355.932 C320.851,-355.932 412.488,-355.932 412.488,-355.932 C412.488,-355.932 412.488,-341.271 412.488,-341.271z"></path></g></g><g transform="matrix(1,0,0,1,-328,1087)" opacity="1" style="-webkit-user-select: none;"><g opacity="1" transform="matrix(1,0,0,1,0,0)"><path fill="rgb(142,40,89)" fill-opacity="1" d="M0 0 M390.417,-364.999 C390.417,-360.404 394.14099999999996,-356.679 398.736,-356.679 C403.331,-356.679 407.056,-360.404 407.056,-364.999 C407.056,-369.59400000000005 403.331,-373.318 398.736,-373.318 C394.14099999999996,-373.318 390.417,-369.59400000000005 390.417,-364.999z"></path></g></g><g transform="matrix(1,0,0,1,-328,1077)" opacity="1" style="-webkit-user-select: none;"><g opacity="1" transform="matrix(1,0,0,1,0,0)"><path stroke-linecap="butt" stroke-linejoin="miter" fill-opacity="0" stroke-miterlimit="10" stroke="rgb(17,49,86)" stroke-opacity="1" stroke-width="6" d="M0 0 M1066.285,-830.047 C1066.285,-830.047 1066.285,-1080 1066.285,-1080"></path></g></g><g transform="matrix(1,0,0,1,-328,1087)" opacity="1" style="-webkit-user-select: none;"><g opacity="1" transform="matrix(1,0,0,1,0,0)"><path fill="rgb(255,255,182)" fill-opacity="1" d="M0 0 M1193.514,-870.073 C1193.514,-799.806 1136.5520000000001,-742.844 1066.285,-742.844 C996.018,-742.844 939.056,-799.806 939.056,-870.073 C939.056,-940.3399999999999 996.018,-997.302 1066.285,-997.302 C1136.5520000000001,-997.302 1193.514,-940.3399999999999 1193.514,-870.073z"></path></g></g><g transform="matrix(1,0,0,1,-328,1087)" opacity="1" style="-webkit-user-select: none;"><g opacity="1" transform="matrix(1,0,0,1,0,0)"><path fill="rgb(10,121,84)" fill-opacity="1" d="M0 0 M578.927,52.172 C578.927,52.172 561.768,82.52699999999999 607.22,101.362 C607.22,101.362 622.556,71.012 578.927,52.172z"></path></g></g><g transform="matrix(1,0,0,1,-328,1087)" opacity="1" style="-webkit-user-select: none;"><g opacity="1" transform="matrix(1,0,0,1,0,0)"><path fill="rgb(30,166,113)" fill-opacity="1" d="M0 0 M554.081,16.919 C554.081,16.919 573.2819999999999,-0.4259999999999984 593.049,10.742 C612.816,21.91 618.549,45.937 636.855,45.522 C636.855,45.522 598.974,69.523 579.148,55.738 C559.322,41.953 569.946,24.05 554.081,16.919z"></path></g></g><g transform="matrix(1,0,0,1,-328,1087)" opacity="1" style="-webkit-user-select: none;"><g opacity="1" transform="matrix(1,0,0,1,0,0)"><path fill="rgb(30,166,113)" fill-opacity="1" d="M0 0 M538.41,-87.612 C538.41,-87.612 553.282,-101.045 568.591,-92.396 C583.9,-83.747 594.297,-70.045 608.474,-70.366 C608.474,-70.366 573.1800000000001,-46.872 557.825,-57.548 C542.47,-68.224 550.697,-82.089 538.41,-87.612z"></path></g></g><g transform="matrix(1,0,0,1,-328,1087)" opacity="1" style="-webkit-user-select: none;"><g opacity="1" transform="matrix(1,0,0,1,0,0)"><path fill="rgb(10,121,84)" fill-opacity="1" d="M0 0 M530.553,20.646 C530.553,20.646 545.424,7.213000000000001 560.733,15.862 C576.0419999999999,24.511 580.483,43.12 594.66,42.799 C594.66,42.799 565.322,61.387 549.967,50.711 C534.612,40.035 542.84,26.169 530.553,20.646z"></path></g></g><g transform="matrix(1,0,0,1,-328,1087)" opacity="1" style="-webkit-user-select: none;"><g opacity="1" transform="matrix(1,0,0,1,0,0)"><path fill="rgb(30,166,113)" fill-opacity="1" d="M0 0 M561.74,46.158 C561.74,46.158 529.074,82.882 586.103,122.345 C586.103,122.345 616.256,85.086 561.74,46.158z"></path></g></g><g transform="matrix(1,0,0,1,-328,1087)" opacity="1" style="-webkit-user-select: none;"><g opacity="1" transform="matrix(1,0,0,1,0,0)"><path fill="rgb(30,166,113)" fill-opacity="1" d="M0 0 M543.205,-67.99 C543.205,-67.99 562.406,-85.33500000000001 582.173,-74.167 C601.94,-62.999 614.872,-41.087 622.091,-24.947 C622.091,-24.947 588.0980000000001,-15.387 568.272,-29.172 C548.446,-42.957 559.07,-60.858999999999995 543.205,-67.99z"></path></g></g><g transform="matrix(1,0,0,1,-328,1087)" opacity="1" style="-webkit-user-select: none;"><g opacity="1" transform="matrix(1,0,0,1,0,0)"><path fill="rgb(6,54,81)" fill-opacity="1" d="M0 0 M570.867,196.893 C570.867,196.893 452.88,196.893 452.88,196.893 C452.88,196.893 442.873,72.912 442.873,72.912 C442.873,72.912 580.873,72.912 580.873,72.912 C580.873,72.912 570.867,196.893 570.867,196.893z"></path></g></g><g transform="matrix(1,0,0,1,-328,1087)" opacity="1" style="-webkit-user-select: none;"><g opacity="1" transform="matrix(1,0,0,1,0,0)"><path fill="rgb(30,166,113)" fill-opacity="1" d="M0 0 M550.749,25.537 C550.749,25.537 579.292,17.707 585.37,59.024 C585.37,59.024 557.2090000000001,65.354 550.749,25.537z"></path></g></g><g transform="matrix(1,0,0,1,-328,1087)" opacity="1" style="-webkit-user-select: none;"><g opacity="1" transform="matrix(1,0,0,1,0,0)"><path fill="rgb(10,121,84)" fill-opacity="1" d="M0 0 M538.649,-7.31 C538.649,-7.31 505.98400000000004,29.415 563.013,68.878 C563.013,68.878 593.165,31.618 538.649,-7.31z"></path></g></g><g transform="matrix(1,0,0,1,-328,1087)" opacity="1" style="-webkit-user-select: none;"><g opacity="1" transform="matrix(1,0,0,1,0,0)"><path fill="rgb(46,181,127)" fill-opacity="1" d="M0 0 M535.591,-37.351 C535.591,-37.351 563.212,-54.715 585.332,-36.545 C607.452,-18.375 609.3449999999999,12.713 632.17,16.18 C632.17,16.18 579.904,37.747 558.279,16.314 C536.654,-5.119 553.743,-25.043 535.591,-37.351z"></path></g></g><g transform="matrix(1,0,0,1,-328,1087)" opacity="1" style="-webkit-user-select: none;"><g opacity="1" transform="matrix(1,0,0,1,0,0)"><path fill="rgb(30,166,113)" fill-opacity="1" d="M0 0 M516.625,-133.897 C516.625,-133.897 535.8259999999999,-151.241 555.593,-140.073 C575.36,-128.905 581.093,-104.87899999999999 599.399,-105.294 C599.399,-105.294 561.519,-81.293 541.693,-95.078 C521.867,-108.863 532.49,-126.76599999999999 516.625,-133.897z"></path></g></g><g transform="matrix(1,0,0,1,-328,1087)" opacity="1" style="-webkit-user-select: none;"><g opacity="1" transform="matrix(1,0,0,1,0,0)"><path fill="rgb(46,181,127)" fill-opacity="1" d="M0 0 M535.678,-125.974 C535.678,-125.974 554.8789999999999,-143.318 574.646,-132.15 C594.413,-120.982 600.1460000000001,-96.95599999999999 618.451,-97.371 C618.451,-97.371 580.571,-73.37 560.745,-87.155 C540.919,-100.94 551.543,-118.843 535.678,-125.974z"></path></g></g><g transform="matrix(1,0,0,1,-328,1087)" opacity="1" style="-webkit-user-select: none;"><g opacity="1" transform="matrix(1,0,0,1,0,0)"><path fill="rgb(40,166,10)" fill-opacity="1" d="M0 0 M506.793,-103.943 C506.793,-103.943 499.339,-61.650999999999996 559.847,-58.452 C559.847,-58.452 565.187,-99.989 506.793,-103.943z"></path></g></g><g transform="matrix(1,0,0,1,-328,1087)" opacity="1" style="-webkit-user-select: none;"><g opacity="1" transform="matrix(1,0,0,1,0,0)"><path fill="rgb(6,195,143)" fill-opacity="1" d="M0 0 M560.524,-90.72 C560.524,-90.72 543.365,-60.366 588.817,-41.531 C588.817,-41.531 604.153,-71.88 560.524,-90.72z"></path></g></g><g transform="matrix(1,0,0,1,-328,1087)" opacity="1" style="-webkit-user-select: none;"><g opacity="1" transform="matrix(1,0,0,1,0,0)"><path fill="rgb(38,177,121)" fill-opacity="1" d="M0 0 M510.76,-162.657 C510.76,-162.657 547.976,-159.5 555.558,-131.897 C563.14,-104.29399999999998 542.1129999999999,-79.212 558.755,-63.211 C558.755,-63.211 517.4540000000001,-73.46199999999999 512.158,-103.445 C506.862,-133.428 518.484,-142.131 510.76,-162.657z"></path></g></g><g transform="matrix(1,0,0,1,-328,1087)" opacity="1" style="-webkit-user-select: none;"><g opacity="1" transform="matrix(1,0,0,1,0,0)"><path fill="rgb(21,150,104)" fill-opacity="1" d="M0 0 M556.201,-107.504 C556.201,-107.504 528.1080000000001,-90.914 534.119,-62.926 C540.13,-34.938 566.891,-19.006 559.511,2.869 C559.511,2.869 602.635,-33.699 593.498,-62.742 C584.3610000000001,-91.785 558.82,-85.72900000000001 556.201,-107.504z"></path></g></g><g transform="matrix(1,0,0,1,-328,1087)" opacity="1" style="-webkit-user-select: none;"><g opacity="1" transform="matrix(1,0,0,1,0,0)"><path fill="rgb(38,144,13)" fill-opacity="1" d="M0 0 M533.339,-65.34 C533.339,-65.34 558.4269999999999,-44.483000000000004 548.031,-17.812 C537.635,8.858999999999998 508.67499999999995,20.321000000000005 512.473,43.093 C512.473,43.093 475.73,0.11700000000000088 489.382,-27.098 C503.034,-54.313 527.282,-44.261 533.339,-65.34z"></path></g></g><g transform="matrix(1,0,0,1,-328,1087)" opacity="1" style="-webkit-user-select: none;"><g opacity="1" transform="matrix(1,0,0,1,0,0)"><path fill="rgb(4,90,62)" fill-opacity="1" d="M0 0 M473.996,52.056 C473.996,52.056 445.51800000000003,36.137 424.363,55.422 C403.20799999999997,74.707 402.917,105.85 380.301,110.488 C380.301,110.488 433.608,129.336 454.101,106.818 C474.594,84.3 456.501,65.282 473.996,52.056z"></path></g></g><g transform="matrix(1,0,0,1,-328,1087)" opacity="1" style="-webkit-user-select: none;"><g opacity="1" transform="matrix(1,0,0,1,0,0)"><path fill="rgb(10,121,84)" fill-opacity="1" d="M0 0 M545.93,32.453 C545.93,32.453 514.3130000000001,40.503 512.238,69.054 C510.16300000000007,97.605 531.386,120.399 518.17,139.329 C518.17,139.329 569.8149999999999,116.314 569.185,85.874 C568.555,55.434 542.3409999999999,54.089 545.93,32.453z"></path></g></g><g transform="matrix(1,0,0,1,-328,1087)" opacity="1" style="-webkit-user-select: none;"><g opacity="1" transform="matrix(1,0,0,1,0,0)"><path fill="rgb(6,195,143)" fill-opacity="1" d="M0 0 M519.714,-34.127 C519.714,-34.127 504.584,-55.118 482.913,-48.351 C461.242,-41.583999999999996 450.59,-19.298 432.78,-23.548 C432.78,-23.548 464.774,7.8740000000000006 487.053,-1.439 C509.332,-10.752 502.70500000000004,-30.487000000000002 519.714,-34.127z"></path></g></g><g transform="matrix(1,0,0,1,-328,1087)" opacity="1" style="-webkit-user-select: none;"><g opacity="1" transform="matrix(1,0,0,1,0,0)"><path fill="rgb(4,90,62)" fill-opacity="1" d="M0 0 M487.228,39.415 C487.228,39.415 506.53700000000003,34.054 516.36,48.638 C526.183,63.221999999999994 521.8290000000001,81.851 534.653,87.906 C534.653,87.906 500.099,91.406 491.142,74.989 C482.185,58.572 495.747,49.851 487.228,39.415z"></path></g></g><g transform="matrix(1,0,0,1,-328,1087)" opacity="1" style="-webkit-user-select: none;"><g opacity="1" transform="matrix(1,0,0,1,0,0)"><path fill="rgb(10,121,84)" fill-opacity="1" d="M0 0 M485.21,49.124 C485.21,49.124 455.63100000000003,48.086999999999996 459.245,89.692 C459.245,89.692 488.106,89.358 485.21,49.124z"></path></g></g><g transform="matrix(1,0,0,1,-328,1087)" opacity="1" style="-webkit-user-select: none;"><g opacity="1" transform="matrix(1,0,0,1,0,0)"><path fill="rgb(10,121,84)" fill-opacity="1" d="M0 0 M481.78,50.504 C481.78,50.504 444.045,33.25300000000001 424.059,80.727 C424.059,80.727 461.67699999999996,96.088 481.78,50.504z"></path></g></g><g transform="matrix(1,0,0,1,-328,1087)" opacity="1" style="-webkit-user-select: none;"><g opacity="1" transform="matrix(1,0,0,1,0,0)"><path fill="rgb(8,174,97)" fill-opacity="1" d="M0 0 M494.898,-10.249 C494.898,-10.249 470.341,-26.766999999999996 451.41,10.457 C451.41,10.457 476.083,25.431999999999995 494.898,-10.249z"></path></g></g><g transform="matrix(1,0,0,1,-328,1087)" opacity="1" style="-webkit-user-select: none;"><g opacity="1" transform="matrix(1,0,0,1,0,0)"><path fill="rgb(6,195,143)" fill-opacity="1" d="M0 0 M546.539,36.738 C546.539,36.738 520.866,2.315000000000005 477.049,44.167 C477.049,44.167 503.62199999999996,76.53399999999999 546.539,36.738z"></path></g></g><g transform="matrix(1,0,0,1,-328,1087)" opacity="1" style="-webkit-user-select: none;"><g opacity="1" transform="matrix(1,0,0,1,0,0)"><path fill="rgb(4,90,62)" fill-opacity="1" d="M0 0 M508.208,41.192 C508.208,41.192 500.75399999999996,83.483 561.262,86.682 C561.262,86.682 566.602,45.146 508.208,41.192z"></path></g></g><g transform="matrix(1,0,0,1,-328,1087)" opacity="1" style="-webkit-user-select: none;"><g opacity="1" transform="matrix(1,0,0,1,0,0)"><path fill="rgb(4,111,77)" fill-opacity="1" d="M0 0 M504.129,-13.483 C504.129,-13.483 533.3499999999999,1.0279999999999987 529.382,29.378 C525.414,57.728 499.87699999999995,75.556 508.823,96.839 C508.823,96.839 463.16200000000003,63.491 470.172,33.862 C477.182,4.2330000000000005 503.094,8.424 504.129,-13.483z"></path></g></g><g transform="matrix(1,0,0,1,-328,1087)" opacity="1" style="-webkit-user-select: none;"><g opacity="1" transform="matrix(1,0,0,1,0,0)"><path fill="rgb(4,90,62)" fill-opacity="1" d="M0 0 M499.422,-30.383 C499.422,-30.383 484.292,-51.373000000000005 462.621,-44.606 C440.95,-37.839 430.298,-15.553 412.488,-19.803 C412.488,-19.803 444.482,11.618 466.761,2.305 C489.04,-7.008000000000001 482.413,-26.743 499.422,-30.383z"></path></g></g><g transform="matrix(1,0,0,1,-328,1087)" opacity="1" style="-webkit-user-select: none;"><g opacity="1" transform="matrix(1,0,0,1,0,0)"><path fill="rgb(8,174,97)" fill-opacity="1" d="M0 0 M524.881,-18.014 C524.881,-18.014 513.162,-34.271 496.378,-29.03 C479.594,-23.789 471.34499999999997,-6.5280000000000005 457.551,-9.82 C457.551,-9.82 482.33,14.516 499.585,7.303 C516.84,0.08999999999999986 511.70799999999997,-15.195 524.881,-18.014z"></path></g></g><g transform="matrix(1,0,0,1,-328,1087)" opacity="1" style="-webkit-user-select: none;"><g opacity="1" transform="matrix(1,0,0,1,0,0)"><path fill="rgb(10,121,84)" fill-opacity="1" d="M0 0 M560.06,5.653 C560.06,5.653 542.307,-3.6449999999999996 529.64,8.551 C516.973,20.747 517.317,39.875 503.508,43.101 C503.508,43.101 536.555,53.781 548.761,39.611 C560.967,25.440999999999995 549.539,14.067 560.06,5.653z"></path></g></g><g transform="matrix(1,0,0,1,-328,1087)" opacity="1" style="-webkit-user-select: none;"><g opacity="1" transform="matrix(1,0,0,1,0,0)"><path fill="rgb(10,121,84)" fill-opacity="1" d="M0 0 M539.888,-49.246 C539.888,-49.246 567.3679999999999,-60.238 578.058,-19.868 C578.058,-19.868 550.789,-10.408999999999999 539.888,-49.246z"></path></g></g><g transform="matrix(1,0,0,1,-328,1087)" opacity="1" style="-webkit-user-select: none;"><g opacity="1" transform="matrix(1,0,0,1,0,0)"><path fill="rgb(30,166,113)" fill-opacity="1" d="M0 0 M502.634,-9.421 C502.634,-9.421 534.965,-37.685 569.014,12.436 C569.014,12.436 536.235,38.501 502.634,-9.421z"></path></g></g><g transform="matrix(1,0,0,1,-328,1087)" opacity="1" style="-webkit-user-select: none;"><g opacity="1" transform="matrix(1,0,0,1,0,0)"><path fill="rgb(4,90,62)" fill-opacity="1" d="M0 0 M523.036,-2.776 C523.036,-2.776 521.442,40.137 461.611,30.556 C461.611,30.556 465.1139999999999,-11.174999999999999 523.036,-2.776z"></path></g></g><g transform="matrix(1,0,0,1,-328,1087)" opacity="1" style="-webkit-user-select: none;"><g opacity="1" transform="matrix(1,0,0,1,0,0)"><path fill="rgb(4,90,62)" fill-opacity="1" d="M0 0 M467.727,-1.134 C467.727,-1.134 478.127,32.147 429.733,41.016 C429.733,41.016 421.114,8.122 467.727,-1.134z"></path></g></g><g transform="matrix(1,0,0,1,-328,1087)" opacity="1" style="-webkit-user-select: none;"><g opacity="1" transform="matrix(1,0,0,1,0,0)"><path fill="rgb(10,121,84)" fill-opacity="1" d="M0 0 M502.893,15.858 C502.893,15.858 495.87199999999996,64.505 428.941,46.341 C428.941,46.341 437.991,-0.7289999999999992 502.893,15.858z"></path></g></g><g transform="matrix(1,0,0,1,-328,1087)" opacity="1" style="-webkit-user-select: none;"><g opacity="1" transform="matrix(1,0,0,1,0,0)"><path fill="rgb(4,90,62)" fill-opacity="1" d="M0 0 M551.366,-70.806 C551.366,-70.806 518.7919999999999,-68.969 511.28,-41.346 C503.768,-13.722999999999995 520.225,12.718 503.624,28.762 C503.624,28.762 558.7249999999999,16.08 563.944,-13.916 C569.163,-43.912 543.694,-50.26 551.366,-70.806z"></path></g></g><g transform="matrix(1,0,0,1,-328,1087)" opacity="1" style="-webkit-user-select: none;"><g opacity="1" transform="matrix(1,0,0,1,0,0)"><path fill="rgb(4,90,62)" fill-opacity="1" d="M0 0 M518.897,-73.352 C518.897,-73.352 486.323,-71.515 478.811,-43.892 C471.299,-16.269000000000002 487.756,10.171 471.155,26.215 C471.155,26.215 526.256,13.532999999999998 531.475,-16.463 C536.6940000000001,-46.459 511.225,-52.806000000000004 518.897,-73.352z"></path></g></g><g transform="matrix(1,0,0,1,-328,1087)" opacity="1" style="-webkit-user-select: none;"><g opacity="1" transform="matrix(1,0,0,1,0,0)"><path fill="rgb(4,111,77)" fill-opacity="1" d="M0 0 M477.01,-74.307 C477.01,-74.307 506.231,-59.79600000000001 502.263,-31.446 C498.29499999999996,-3.096 472.758,14.732 481.704,36.015 C481.704,36.015 436.043,2.6670000000000016 443.053,-26.962 C450.063,-56.591 475.97499999999997,-52.400000000000006 477.01,-74.307z"></path></g></g><g transform="matrix(1,0,0,1,-328,1087)" opacity="1" style="-webkit-user-select: none;"><g opacity="1" transform="matrix(1,0,0,1,0,0)"><path fill="rgb(4,90,62)" fill-opacity="1" d="M0 0 M472.303,-91.207 C472.303,-91.207 457.173,-112.198 435.502,-105.431 C413.831,-98.664 403.17900000000003,-76.378 385.369,-80.628 C385.369,-80.628 417.363,-49.205999999999996 439.642,-58.519 C461.921,-67.832 455.294,-87.567 472.303,-91.207z"></path></g></g><g transform="matrix(1,0,0,1,-328,1087)" opacity="1" style="-webkit-user-select: none;"><g opacity="1" transform="matrix(1,0,0,1,0,0)"><path fill="rgb(30,166,113)" fill-opacity="1" d="M0 0 M508.103,-163.192 C508.103,-163.192 507.617,-183.226 490.807,-188.383 C473.997,-193.54000000000002 457.43899999999996,-183.95800000000003 447.917,-194.467 C447.917,-194.467 454.616,-160.388 472.929,-156.592 C491.24199999999996,-152.79600000000002 495.64,-168.308 508.103,-163.192z"></path></g></g><g transform="matrix(1,0,0,1,-328,1087)" opacity="1" style="-webkit-user-select: none;"><g opacity="1" transform="matrix(1,0,0,1,0,0)"><path fill="rgb(10,121,84)" fill-opacity="1" d="M0 0 M497.762,-78.838 C497.762,-78.838 486.044,-95.095 469.26,-89.854 C452.476,-84.613 444.226,-67.352 430.432,-70.644 C430.432,-70.644 455.211,-46.308 472.466,-53.521 C489.721,-60.734 484.589,-76.01899999999999 497.762,-78.838z"></path></g></g><g transform="matrix(1,0,0,1,-328,1087)" opacity="1" style="-webkit-user-select: none;"><g opacity="1" transform="matrix(1,0,0,1,0,0)"><path fill="rgb(4,90,62)" fill-opacity="1" d="M0 0 M532.941,-55.171 C532.941,-55.171 515.188,-64.46900000000001 502.521,-52.273 C489.85400000000004,-40.077000000000005 490.19800000000004,-20.948999999999998 476.389,-17.723 C476.389,-17.723 509.437,-7.043000000000001 521.643,-21.213 C533.849,-35.383 522.4200000000001,-46.757 532.941,-55.171z"></path></g></g><g transform="matrix(1,0,0,1,-328,1087)" opacity="1" style="-webkit-user-select: none;"><g opacity="1" transform="matrix(1,0,0,1,0,0)"><path fill="rgb(30,166,113)" fill-opacity="1" d="M0 0 M535.873,-105.339 C535.873,-105.339 563.352,-116.33099999999999 574.042,-75.961 C574.042,-75.961 546.774,-66.502 535.873,-105.339z"></path></g></g><g transform="matrix(1,0,0,1,-328,1087)" opacity="1" style="-webkit-user-select: none;"><g opacity="1" transform="matrix(1,0,0,1,0,0)"><path fill="rgb(4,90,62)" fill-opacity="1" d="M0 0 M475.515,-70.246 C475.515,-70.246 507.846,-98.509 541.895,-48.388 C541.895,-48.388 509.116,-22.323999999999998 475.515,-70.246z"></path></g></g><g transform="matrix(1,0,0,1,-328,1087)" opacity="1" style="-webkit-user-select: none;"><g opacity="1" transform="matrix(1,0,0,1,0,0)"><path fill="rgb(4,90,62)" fill-opacity="1" d="M0 0 M440.608,-61.959 C440.608,-61.959 451.008,-28.678 402.614,-19.809 C402.614,-19.809 393.995,-52.703 440.608,-61.959z"></path></g></g><g transform="matrix(1,0,0,1,-328,1087)" opacity="1" style="-webkit-user-select: none;"><g opacity="1" transform="matrix(1,0,0,1,0,0)"><path fill="rgb(10,121,84)" fill-opacity="1" d="M0 0 M458.675,-64.229 C458.675,-64.229 482.899,-21.463 418.853,5.142 C418.853,5.142 397.19800000000004,-37.62 458.675,-64.229z"></path></g></g><g transform="matrix(1,0,0,1,-328,1087)" opacity="1" style="-webkit-user-select: none;"><g opacity="1" transform="matrix(1,0,0,1,0,0)"><path fill="rgb(4,90,62)" fill-opacity="1" d="M0 0 M502.387,-159.838 C502.387,-159.838 487.257,-180.829 465.586,-174.062 C443.915,-167.29500000000002 433.263,-145.008 415.453,-149.258 C415.453,-149.258 447.447,-117.837 469.726,-127.15 C492.005,-136.463 485.378,-156.198 502.387,-159.838z"></path></g></g><g transform="matrix(1,0,0,1,-328,1087)" opacity="1" style="-webkit-user-select: none;"><g opacity="1" transform="matrix(1,0,0,1,0,0)"><path fill="rgb(4,90,62)" fill-opacity="1" d="M0 0 M522.376,-135.112 C522.376,-135.112 510.384,-151.748 493.208,-146.385 C476.03200000000004,-141.022 467.591,-123.358 453.475,-126.727 C453.475,-126.727 478.832,-101.824 496.49,-109.205 C514.148,-116.586 508.895,-132.227 522.376,-135.112z"></path></g></g><g transform="matrix(1,0,0,1,-328,1087)" opacity="1" style="-webkit-user-select: none;"><g opacity="1" transform="matrix(1,0,0,1,0,0)"><path fill="rgb(30,166,113)" fill-opacity="1" d="M0 0 M524.751,-152.904 C524.751,-152.904 512.759,-169.54 495.583,-164.177 C478.40700000000004,-158.814 469.965,-141.149 455.849,-144.518 C455.849,-144.518 481.20599999999996,-119.615 498.864,-126.996 C516.5219999999999,-134.377 511.27,-150.019 524.751,-152.904z"></path></g></g><g transform="matrix(1,0,0,1,-328,1087)" opacity="1" style="-webkit-user-select: none;"><g opacity="1" transform="matrix(1,0,0,1,0,0)"><path fill="rgb(30,166,113)" fill-opacity="1" d="M0 0 M535.796,-148.444 C535.796,-148.444 540.846,-162.087 553.603,-161.671 C566.3599999999999,-161.255 575.4749999999999,-150.77700000000002 584.487,-155.751 C584.487,-155.751 571.8639999999999,-133.928 558.396,-135.632 C544.928,-137.336 545.558,-149.023 535.796,-148.444z"></path></g></g><g transform="matrix(1,0,0,1,-328,1087)" opacity="1" style="-webkit-user-select: none;"><g opacity="1" transform="matrix(1,0,0,1,0,0)"><path fill="rgb(30,166,113)" fill-opacity="1" d="M0 0 M506.896,-114.04 C506.896,-114.04 517.027,-131.331 534.231,-127.698 C551.435,-124.065 561.2779999999999,-107.66 574.699,-112.24 C574.699,-112.24 552.3280000000001,-85.67399999999999 534.469,-91.225 C516.61,-96.776 520.277,-112.477 506.896,-114.04z"></path></g></g><g transform="matrix(1,0,0,1,-328,1087)" opacity="1" style="-webkit-user-select: none;"><g opacity="1" transform="matrix(1,0,0,1,0,0)"><path fill="rgb(10,121,84)" fill-opacity="1" d="M0 0 M468.825,-103.477 C468.825,-103.477 488.134,-108.839 497.957,-94.255 C507.78,-79.67099999999999 503.426,-61.042 516.25,-54.987 C516.25,-54.987 481.69599999999997,-51.486999999999995 472.739,-67.904 C463.782,-84.321 477.344,-93.041 468.825,-103.477z"></path></g></g><g transform="matrix(1,0,0,1,-328,1087)" opacity="1" style="-webkit-user-select: none;"><g opacity="1" transform="matrix(1,0,0,1,0,0)"><path fill="rgb(10,121,84)" fill-opacity="1" d="M0 0 M474.156,-85.891 C474.156,-85.891 441.454,-102.888 423.248,-54.176 C423.248,-54.176 455.877,-39.104000000000006 474.156,-85.891z"></path></g></g><g transform="matrix(1,0,0,1,-328,1087)" opacity="1" style="-webkit-user-select: none;"><g opacity="1" transform="matrix(1,0,0,1,0,0)"><path fill="rgb(10,121,84)" fill-opacity="1" d="M0 0 M482.166,-118.248 C482.166,-118.248 464.68399999999997,-142.13 434.229,-113.556 C434.229,-113.556 452.344,-91.08600000000001 482.166,-118.248z"></path></g></g><g transform="matrix(1,0,0,1,-328,1087)" opacity="1" style="-webkit-user-select: none;"><g opacity="1" transform="matrix(1,0,0,1,0,0)"><path fill="rgb(4,111,77)" fill-opacity="1" d="M0 0 M520.389,-108.588 C520.389,-108.588 494.716,-143.011 450.899,-101.159 C450.899,-101.159 477.472,-68.792 520.389,-108.588z"></path></g></g><g transform="matrix(1,0,0,1,-328,1087)" opacity="1" style="-webkit-user-select: none;"><g opacity="1" transform="matrix(1,0,0,1,0,0)"><path fill="rgb(21,150,104)" fill-opacity="1" d="M0 0 M530.099,-90.188 C530.099,-90.188 526.746,-41.152 595.999,-44.853 C595.999,-44.853 597.037,-92.774 530.099,-90.188z"></path></g></g><g transform="matrix(1,0,0,1,-328,1087)" opacity="1" style="-webkit-user-select: none;"><g opacity="1" transform="matrix(1,0,0,1,0,0)"><path fill="rgb(4,111,77)" fill-opacity="1" d="M0 0 M531.68,-143.589 C531.68,-143.589 500.063,-135.539 497.988,-106.988 C495.913,-78.437 517.136,-55.644 503.92,-36.714 C503.92,-36.714 555.5649999999999,-59.72800000000001 554.935,-90.168 C554.305,-120.608 528.0909999999999,-121.953 531.68,-143.589z"></path></g></g><g transform="matrix(1,0,0,1,-328,1087)" opacity="0.48" style="-webkit-user-select: none;"><g opacity="1" transform="matrix(1,0,0,1,0,0)"><path fill="rgb(84,4,76)" fill-opacity="1" d="M0 0 M782.14,92.1 C782.14,92.1 1048.168,92.133 1048.168,92.133 C1048.168,92.133 1010.516,-49.342 1010.516,-49.342 C1010.516,-49.342 1005.318,-47.5 1005.318,-47.5 C1005.318,-47.5 991.037,-37.383 991.037,-37.383 C991.037,-37.383 948.636,-47.329 948.636,-47.329 C948.636,-47.329 895.624,-51.304 895.624,-51.304 C895.624,-51.304 871.59,-53.383 871.59,-53.383 C871.59,-53.383 849,-45.667 859.5,-46.151 C870,-46.635000000000005 874.334,-40.333999999999996 908.271,-34.733 C923.141,-32.278999999999996 942.236,-31.354 959,-31.089 C959,-31.089 891.89,-7.31 891.89,-7.31 C891.89,-7.31 782.14,92.1 782.14,92.1z"></path></g></g><g transform="matrix(1,0,0,1,-328,1087)" opacity="1" style="-webkit-user-select: none;"><g opacity="1" transform="matrix(1,0,0,1,0,0)"><path fill="rgb(127,11,122)" fill-opacity="1" d="M0 0 M1012.67,92.133 C1012.67,92.133 995.154,112.46799999999999 1002.077,178.111 C1002.077,178.111 1020.658,178.111 1020.658,178.111 C1020.658,178.111 1034.987,96.839 1034.987,96.839 C1034.987,96.839 1034.987,92.1 1034.987,92.1 C1034.987,92.1 1012.67,92.1 1012.67,92.1"></path></g></g><g transform="matrix(1,0,0,1,-328,1087)" opacity="1" style="-webkit-user-select: none;"><g opacity="1" transform="matrix(1,0,0,1,0,0)"><path fill="rgb(127,11,122)" fill-opacity="1" d="M0 0 M938.868,92.133 C938.868,92.133 922.9309999999999,112.79299999999999 941.185,178.111 C941.185,178.111 961.185,178.111 961.185,178.111 C961.185,178.111 961.185,96.839 961.185,96.839 C961.185,96.839 961.185,92.1 961.185,92.1 C961.185,92.1 938.868,92.1 938.868,92.1"></path></g></g><g transform="matrix(0.9947,0.1028,-0.1028,0.9947,-313.3869,979.4312)" opacity="1" style="-webkit-user-select: none;"><g opacity="1" transform="matrix(1,0,0,1,0,0)"><path fill="rgb(226,98,89)" fill-opacity="1" d="M0 0 M1058.744,-64.418 C1058.744,-64.418 995.387,-52.735 995.387,-52.735 C979.997,-49.897 965.083,-60.168000000000006 962.245,-75.558 C962.245,-75.558 959.748,-89.096 959.748,-89.096 C956.9100000000001,-104.486 967.181,-119.40100000000001 982.571,-122.239 C982.571,-122.239 1045.928,-133.921 1045.928,-133.921 C1061.3180000000002,-136.759 1076.232,-126.489 1079.07,-111.099 C1079.07,-111.099 1081.567,-97.56 1081.567,-97.56 C1084.405,-82.17 1074.134,-67.256 1058.744,-64.418z"></path></g></g><g transform="matrix(1,0.0052,-0.0052,1,-312.2794,1081.7214)" opacity="1" style="-webkit-user-select: none;"><g opacity="1" transform="matrix(1,0,0,1,0,0)"><path stroke-linecap="round" stroke-linejoin="miter" fill-opacity="0" stroke-miterlimit="10" stroke="rgb(255,171,171)" stroke-opacity="1" stroke-width="15" d="M0 0 M879.333,-53.382 C879.333,-53.382 859.5,-53.382 859.5,-53.382"></path></g></g><g transform="matrix(1,0.0052,-0.0052,1,-312.2794,1081.7214)" opacity="1" style="-webkit-user-select: none;"><g opacity="1" transform="matrix(1,0,0,1,0,0)"><path stroke-linecap="butt" stroke-linejoin="miter" fill-opacity="0" stroke-miterlimit="10" stroke="rgb(195,167,216)" stroke-opacity="1" stroke-width="16" d="M0 0 M1003.037,-53.382 C1003.037,-53.382 975.225,-50.329 948.62,-50.329 C922.015,-50.329 879.333,-53.382 879.333,-53.382"></path></g></g><g transform="matrix(0.9947,0.1028,-0.1028,0.9947,-313.3869,979.4312)" opacity="1" style="-webkit-user-select: none;"><g opacity="1" transform="matrix(1,0,0,1,0,0)"><path fill="rgb(230,213,239)" fill-opacity="1" d="M0 0 M1062.3,-42.795 C1056.964,-64.924 1043.59,-77.726 1022.285,-74.605 C1000.98,-71.48400000000001 995.035,-52.8 998.156,-31.495 C998.156,-31.495 1009.196,64.372 1009.196,64.372 C1009.196,64.372 1086.348,53.072 1086.348,53.072 C1086.348,53.072 1062.3,-42.795 1062.3,-42.795z"></path></g></g><g transform="matrix(0.9947,0.1028,-0.1028,0.9947,-313.3869,979.4312)" opacity="1" style="-webkit-user-select: none;"><g opacity="1" transform="matrix(1,0,0,1,0,0)"><path fill="rgb(247,159,159)" fill-opacity="1" d="M0 0 M1031.037,-67.04 C1031.037,-67.04 1020.777,-49.342 1020.777,-49.342 C1020.777,-49.342 1015.035,-64.648 1015.035,-64.648 C1015.035,-64.648 1010.516,-94.874 1010.516,-94.874 C1010.516,-94.874 1026.518,-97.266 1026.518,-97.266 C1026.518,-97.266 1031.037,-67.04 1031.037,-67.04z"></path></g></g><g transform="matrix(0.9947,0.1028,-0.1028,0.9947,-313.3869,979.4312)" opacity="1" style="-webkit-user-select: none;"><g opacity="1" transform="matrix(1,0,0,1,0,0)"><path fill="rgb(255,171,171)" fill-opacity="1" d="M0 0 M1013.727,-84.453 C1013.727,-84.453 1006.405,-83.103 1006.405,-83.103 C991.531,-80.36 977.1170000000001,-90.286 974.374,-105.16 C974.374,-105.16 970.29,-127.31 970.29,-127.31 C967.5469999999999,-142.184 977.473,-156.598 992.347,-159.341 C992.347,-159.341 999.669,-160.691 999.669,-160.691 C1014.543,-163.434 1028.957,-153.50799999999998 1031.7,-138.634 C1031.7,-138.634 1035.784,-116.484 1035.784,-116.484 C1038.527,-101.61 1028.6009999999999,-87.196 1013.727,-84.453z"></path></g></g><g transform="matrix(0.9947,0.1028,-0.1028,0.9947,-313.3869,979.4312)" opacity="1" style="-webkit-user-select: none;"><g opacity="1" transform="matrix(1,0,0,1,0,0)"><path fill="rgb(61,37,56)" fill-opacity="1" d="M0 0 M985.495,-106.61 C985.495,-106.61 985.495,-106.61 985.495,-106.61 C984.735,-106.47 983.999,-106.97699999999999 983.859,-107.737 C983.859,-107.737 983.18,-111.42 983.18,-111.42 C983.04,-112.18 983.547,-112.916 984.307,-113.056 C984.307,-113.056 984.307,-113.056 984.307,-113.056 C985.067,-113.196 985.803,-112.68900000000001 985.943,-111.929 C985.943,-111.929 986.622,-108.246 986.622,-108.246 C986.762,-107.48599999999999 986.255,-106.75 985.495,-106.61z"></path></g></g><g transform="matrix(0.9947,0.1028,-0.1028,0.9947,-313.3869,979.4312)" opacity="1" style="-webkit-user-select: none;"><g opacity="1" transform="matrix(1,0,0,1,0,0)"><path fill="rgb(61,37,56)" fill-opacity="1" d="M0 0 M1010.096,-111.146 C1010.096,-111.146 1010.096,-111.146 1010.096,-111.146 C1009.336,-111.006 1008.6,-111.51299999999999 1008.46,-112.273 C1008.46,-112.273 1007.781,-115.956 1007.781,-115.956 C1007.641,-116.71600000000001 1008.148,-117.452 1008.908,-117.592 C1008.908,-117.592 1008.908,-117.592 1008.908,-117.592 C1009.668,-117.732 1010.403,-117.226 1010.543,-116.466 C1010.543,-116.466 1011.223,-112.782 1011.223,-112.782 C1011.3629999999999,-112.02199999999999 1010.856,-111.286 1010.096,-111.146z"></path></g></g><g transform="matrix(0.9999,0.0157,-0.0157,0.9999,800.0018,647.5524)" opacity="0" style="-webkit-user-select: none; display: block;"><g opacity="1" transform="matrix(1,0,0,1,0,0)"><path fill="rgb(255,255,255)" fill-opacity="1" d="M0 0 M-98,319.5 C-98,319.5 -88.75,319 -88.75,319" style="display: block;"></path><path stroke-linecap="round" stroke-linejoin="miter" fill-opacity="0" stroke-miterlimit="4" stroke="rgb(220,76,73)" stroke-opacity="1" stroke-width="2" d="M0 0 M-98,319.5 C-98,319.5 -88.75,319 -88.75,319" style="display: block;"></path></g></g><g transform="matrix(0.9999,0.0157,-0.0157,0.9999,774.1465,645.7853)" opacity="0" style="-webkit-user-select: none; display: block;"><g opacity="1" transform="matrix(1,0,0,1,0,0)"><path fill="rgb(255,255,255)" fill-opacity="1" d="M0 0 M-98,319.5 C-98,319.5 -88.75,319 -88.75,319" style="display: block;"></path><path stroke-linecap="round" stroke-linejoin="miter" fill-opacity="0" stroke-miterlimit="4" stroke="rgb(220,76,73)" stroke-opacity="1" stroke-width="2" d="M0 0 M-98,319.5 C-98,319.5 -88.75,319 -88.75,319" style="display: block;"></path></g></g><g transform="matrix(0.9947,0.1028,-0.1028,0.9947,-313.3869,979.4312)" opacity="1" style="-webkit-user-select: none;"><g opacity="1" transform="matrix(1,0,0,1,0,0)"><path fill="rgb(234,94,94)" fill-opacity="1" d="M0 0 M988.952,-158.48 C976,-154.331 967.762,-141.02 970.29,-127.31 C970.29,-127.31 971.636,-120.008 971.636,-120.008 C992.25,-121.89699999999999 988.879,-155.702 988.952,-158.48z"></path></g></g><g transform="matrix(0.9947,0.1028,-0.1028,0.9947,-313.3869,979.4312)" opacity="1" style="-webkit-user-select: none;"><g opacity="1" transform="matrix(1,0,0,1,0,0)"><path fill="rgb(244,106,103)" fill-opacity="1" d="M0 0 M999.669,-160.691 C999.669,-160.691 992.347,-159.341 992.347,-159.341 C987.467,-158.441 983.126,-156.28 979.584,-153.264 C976.5949999999999,-136 994,-114.369 1027.048,-130.977 C1029.104,-132.01 1031.225,-131.893 1032.779,-132.783 C1032.779,-132.783 1031.7,-138.634 1031.7,-138.634 C1028.957,-153.50799999999998 1014.543,-163.434 999.669,-160.691z"></path></g></g><g transform="matrix(0.9947,0.1028,-0.1028,0.9947,-313.3869,979.4312)" opacity="1" style="-webkit-user-select: none;"><g opacity="1" transform="matrix(1,0,0,1,0,0)"><path stroke-linecap="round" stroke-linejoin="miter" fill-opacity="0" stroke-miterlimit="10" stroke="rgb(242,76,76)" stroke-opacity="1" stroke-width="2" d="M0 0 M1002.077,-99.221 C1001.051,-97.548 999.346,-96.3 997.264,-95.916 C994.886,-95.478 992.566,-96.268 990.957,-97.836"></path></g><g opacity="1" transform="matrix(1,0,0,1,998.735,-97.835)"><path fill="rgb(60,36,55)" fill-opacity="0" d="M0 0 M-1.7,-2.7295000000000003 C0.3031210499999999,-2.7295000000000003 1.9295000000000002,-1.10312105 1.9295000000000002,0.9 C1.9295000000000002,2.9031210499999998 0.3031210499999999,4.5295000000000005 -1.7,4.5295000000000005 C-3.70312105,4.5295000000000005 -5.3295,2.9031210499999998 -5.3295,0.9 C-5.3295,-1.10312105 -3.70312105,-2.7295000000000003 -1.7,-2.7295000000000003z"></path><path stroke-linecap="butt" stroke-linejoin="miter" fill-opacity="0" stroke-miterlimit="4" stroke="rgb(241,75,75)" stroke-opacity="1" stroke-width="2" d="M0 0 M-1.7,-2.7295000000000003 C0.3031210499999999,-2.7295000000000003 1.9295000000000002,-1.10312105 1.9295000000000002,0.9 C1.9295000000000002,2.9031210499999998 0.3031210499999999,4.5295000000000005 -1.7,4.5295000000000005 C-3.70312105,4.5295000000000005 -5.3295,2.9031210499999998 -5.3295,0.9 C-5.3295,-1.10312105 -3.70312105,-2.7295000000000003 -1.7,-2.7295000000000003z"></path></g></g><g transform="matrix(0.9947,0.1028,-0.1028,0.9947,-313.3869,979.4312)" opacity="1" style="-webkit-user-select: none;"><g opacity="1" transform="matrix(1,0,0,1,0,0)"><path fill="rgb(9,39,63)" fill-opacity="1" d="M0 0 M1073.29,90.647 C1073.29,90.647 1013.029,96.118 1013.029,96.118 C1013.029,96.118 1008.474,59.439 1008.474,59.439 C1008.474,59.439 1086.348,53.072 1086.348,53.072 C1086.348,53.072 1090.645,74.983 1090.645,74.983 C1090.645,84.455 1082.762,90.647 1073.29,90.647z"></path></g></g><g transform="matrix(0.9947,0.1028,-0.1028,0.9947,-313.3869,979.4312)" opacity="1" style="-webkit-user-select: none;"><g opacity="1" transform="matrix(1,0,0,1,0,0)"><path stroke-linecap="butt" stroke-linejoin="miter" fill-opacity="0" stroke-miterlimit="10" stroke="rgb(249,249,147)" stroke-opacity="1" stroke-width="1.582" d="M0 0 M1047.316,-118.48 C1048.022,-114.649 1045.4889999999998,-110.97 1041.658,-110.264 C1037.827,-109.55799999999999 1034.148,-112.091 1033.442,-115.922 C1032.736,-119.753 1035.269,-123.431 1039.1,-124.137 C1042.9309999999998,-124.843 1046.6100000000001,-122.311 1047.316,-118.48z"></path></g></g><g transform="matrix(0.9947,0.1028,-0.1028,0.9947,-313.3869,979.4312)" opacity="1" style="-webkit-user-select: none;"><g opacity="1" transform="matrix(1,0,0,1,0,0)"><path fill="rgb(255,171,171)" fill-opacity="1" d="M0 0 M1033.705,-115.97 C1033.705,-115.97 1033.179,-115.873 1033.179,-115.873 C1028.674,-115.042 1024.309,-118.048 1023.478,-122.553 C1023.478,-122.553 1023.478,-122.553 1023.478,-122.553 C1022.6469999999999,-127.05799999999999 1025.6529999999998,-131.423 1030.158,-132.254 C1030.158,-132.254 1030.685,-132.352 1030.685,-132.352 C1035.19,-133.183 1039.555,-130.17600000000002 1040.386,-125.671 C1040.386,-125.671 1040.386,-125.671 1040.386,-125.671 C1041.2169999999999,-121.16600000000001 1038.21,-116.801 1033.705,-115.97z"></path></g></g><g transform="matrix(0.9947,0.1028,-0.1028,0.9947,-313.3869,979.4312)" opacity="1" style="-webkit-user-select: none;"><g opacity="1" transform="matrix(1,0,0,1,0,0)"><path stroke-linecap="butt" stroke-linejoin="miter" fill-opacity="0" stroke-miterlimit="10" stroke="rgb(249,249,147)" stroke-opacity="1" stroke-width="1.582" d="M0 0 M1047.316,-118.48 C1048.022,-114.649 1045.4889999999998,-110.97 1041.658,-110.264 C1037.827,-109.55799999999999 1034.148,-112.091 1033.442,-115.922 C1033.051,-118.044 1033.653,-120.118 1034.919,-121.667"></path></g></g><g transform="matrix(1,0,0,1,-328,1087)" opacity="1" style="-webkit-user-select: none;"><g opacity="1" transform="matrix(1,0,0,1,0,0)"><path stroke-linecap="butt" stroke-linejoin="miter" fill-opacity="0" stroke-miterlimit="10" stroke="rgb(9,39,63)" stroke-opacity="1" stroke-width="17" d="M0 0 M1016.828,84.772 C1016.828,84.772 973.899,63.344 959.81,97.36 C953.688,112.14 957.893,145.06400000000002 962.217,168.961"></path></g></g><g transform="matrix(1,0,0,1,-328,1087)" opacity="1" style="-webkit-user-select: none;"><g opacity="1" transform="matrix(1,0,0,1,0,0)"><path stroke-linecap="butt" stroke-linejoin="miter" fill-opacity="0" stroke-miterlimit="10" stroke="rgb(255,245,245)" stroke-opacity="1" stroke-width="17" d="M0 0 M962.217,168.961 C965.082,184.79700000000003 968.001,196.669 968.001,196.669"></path></g></g><g transform="matrix(1,0,0,1,-328,1087)" opacity="1" style="-webkit-user-select: none;"><g opacity="1" transform="matrix(1,0,0,1,0,0)"><path stroke-linecap="butt" stroke-linejoin="miter" fill-opacity="0" stroke-miterlimit="10" stroke="rgb(17,58,86)" stroke-opacity="1" stroke-width="17" d="M0 0 M1056.964,83.771 C1056.964,83.771 1044.086,64.02 1034.987,96.839 C1030.582,112.727 1027.463,147.274 1025.729,171.244"></path></g></g><g transform="matrix(1,0,0,1,-328.5,1085)" opacity="1" style="-webkit-user-select: none;"><g opacity="1" transform="matrix(1,0,0,1,0,0)"><path fill="rgb(17,58,86)" fill-opacity="1" d="M0 0 M1065.293,83.771 C1065.293,88.371 1061.5639999999999,92.1 1056.964,92.1 C1052.364,92.1 1048.635,88.371 1048.635,83.771 C1048.635,79.171 1052.364,75.442 1056.964,75.442 C1061.5639999999999,75.442 1065.293,79.171 1065.293,83.771z"></path></g></g><g transform="matrix(1,0,0,1,-328,1087)" opacity="1" style="-webkit-user-select: none;"><g opacity="1" transform="matrix(1,0,0,1,0,0)"><path stroke-linecap="butt" stroke-linejoin="miter" fill-opacity="0" stroke-miterlimit="10" stroke="rgb(255,245,245)" stroke-opacity="1" stroke-width="17" d="M0 0 M1025.729,171.244 C1024.665,185.945 1024.122,196.669 1024.122,196.669"></path></g></g><g transform="matrix(1,0,0,1,-328,1087)" opacity="1" style="-webkit-user-select: none;"><g opacity="1" transform="matrix(1,0,0,1,0,0)"><path fill="rgb(255,153,153)" fill-opacity="1" d="M0 0 M943.92,8.664 C943.92,24.951999999999998 930.716,38.157 914.428,38.157 C898.14,38.157 884.935,24.951999999999998 884.935,8.664 C884.935,-7.6240000000000006 898.14,-20.828 914.428,-20.828 C930.716,-20.828 943.92,-7.6240000000000006 943.92,8.664z"></path></g></g><g transform="matrix(1,0,0,1,-328,1087)" opacity="1" style="-webkit-user-select: none;"><g opacity="1" transform="matrix(1,0,0,1,0,0)"><path fill="rgb(239,239,239)" fill-opacity="1" d="M0 0 M927.805,7.858 C927.805,10.55 925.624,12.731 922.932,12.731 C920.24,12.731 918.058,10.55 918.058,7.858 C918.058,5.1659999999999995 920.24,2.984 922.932,2.984 C925.624,2.984 927.805,5.1659999999999995 927.805,7.858z"></path></g></g><g transform="matrix(1,0,0,1,-328,1087)" opacity="1" style="-webkit-user-select: none;"><g opacity="1" transform="matrix(1,0,0,1,0,0)"><path fill="rgb(38,110,142)" fill-opacity="1" d="M0 0 M926.004,8.887 C926.004,10.76 924.485,12.279 922.612,12.279 C920.7389999999999,12.279 919.22,10.76 919.22,8.887 C919.22,7.014 920.7389999999999,5.495 922.612,5.495 C924.485,5.495 926.004,7.014 926.004,8.887z"></path></g></g><g transform="matrix(1,0,0,1,814,642)" opacity="1" style="-webkit-user-select: none;"><g opacity="1" transform="matrix(1,0,0,1,-219.562,442.645)"><path fill="rgb(255,152,152)" fill-opacity="1" d="M0 0 M6.545,-3.745 C6.545,-3.745 6.545,3.745 6.545,3.745 C6.545,3.745 -6.545,3.745 -6.545,3.745 C-6.545,3.745 -6.545,-3.745 -6.545,-3.745 C-6.545,-3.745 6.545,-3.745 6.545,-3.745z"></path><path stroke-linecap="butt" stroke-linejoin="miter" fill-opacity="0" stroke-miterlimit="4" stroke="rgb(255,255,255)" stroke-opacity="1" stroke-width="2" d="M0 0 M6.545,-3.745 C6.545,-3.745 6.545,3.745 6.545,3.745 C6.545,3.745 -6.545,3.745 -6.545,3.745 C-6.545,3.745 -6.545,-3.745 -6.545,-3.745 C-6.545,-3.745 6.545,-3.745 6.545,-3.745z"></path></g></g><g transform="matrix(1,0,0,1,814,662)" opacity="1" style="-webkit-user-select: none;"><g opacity="1" transform="matrix(1,0,0,1,-219.562,442.645)"><path fill="rgb(255,152,152)" fill-opacity="1" d="M0 0 M6.545,-3.745 C6.545,-3.745 6.545,3.745 6.545,3.745 C6.545,3.745 -6.545,3.745 -6.545,3.745 C-6.545,3.745 -6.545,-3.745 -6.545,-3.745 C-6.545,-3.745 6.545,-3.745 6.545,-3.745z"></path><path stroke-linecap="butt" stroke-linejoin="miter" fill-opacity="0" stroke-miterlimit="4" stroke="rgb(255,255,255)" stroke-opacity="1" stroke-width="2" d="M0 0 M6.545,-3.745 C6.545,-3.745 6.545,3.745 6.545,3.745 C6.545,3.745 -6.545,3.745 -6.545,3.745 C-6.545,3.745 -6.545,-3.745 -6.545,-3.745 C-6.545,-3.745 6.545,-3.745 6.545,-3.745z"></path></g></g><g transform="matrix(1,0,0,1,-328,1087)" opacity="1" style="-webkit-user-select: none;"><g opacity="1" transform="matrix(1,0,0,1,0,0)"><path fill="rgb(239,239,239)" fill-opacity="1" d="M0 0 M909.363,7.858 C909.363,10.55 907.181,12.731 904.489,12.731 C901.797,12.731 899.616,10.55 899.616,7.858 C899.616,5.1659999999999995 901.797,2.984 904.489,2.984 C907.181,2.984 909.363,5.1659999999999995 909.363,7.858z"></path></g></g><g transform="matrix(1,0,0,1,-328,1087)" opacity="1" style="-webkit-user-select: none;"><g opacity="1" transform="matrix(1,0,0,1,0,0)"><path fill="rgb(38,110,142)" fill-opacity="1" d="M0 0 M908.653,8.887 C908.653,10.76 907.134,12.279 905.261,12.279 C903.3879999999999,12.279 901.87,10.76 901.87,8.887 C901.87,7.014 903.3879999999999,5.495 905.261,5.495 C907.134,5.495 908.653,7.014 908.653,8.887z"></path></g></g><g transform="matrix(1,0,0,1,796,642)" opacity="1" style="-webkit-user-select: none;"><g opacity="1" transform="matrix(1,0,0,1,-219.562,442.645)"><path fill="rgb(255,152,152)" fill-opacity="1" d="M0 0 M6.545,-3.745 C6.545,-3.745 6.545,3.745 6.545,3.745 C6.545,3.745 -6.545,3.745 -6.545,3.745 C-6.545,3.745 -6.545,-3.745 -6.545,-3.745 C-6.545,-3.745 6.545,-3.745 6.545,-3.745z"></path><path stroke-linecap="butt" stroke-linejoin="miter" fill-opacity="0" stroke-miterlimit="4" stroke="rgb(255,255,255)" stroke-opacity="1" stroke-width="2" d="M0 0 M6.545,-3.745 C6.545,-3.745 6.545,3.745 6.545,3.745 C6.545,3.745 -6.545,3.745 -6.545,3.745 C-6.545,3.745 -6.545,-3.745 -6.545,-3.745 C-6.545,-3.745 6.545,-3.745 6.545,-3.745z"></path></g></g><g transform="matrix(1,0,0,1,796,662)" opacity="1" style="-webkit-user-select: none;"><g opacity="1" transform="matrix(1,0,0,1,-219.562,442.645)"><path fill="rgb(255,152,152)" fill-opacity="1" d="M0 0 M6.545,-3.745 C6.545,-3.745 6.545,3.745 6.545,3.745 C6.545,3.745 -6.545,3.745 -6.545,3.745 C-6.545,3.745 -6.545,-3.745 -6.545,-3.745 C-6.545,-3.745 6.545,-3.745 6.545,-3.745z"></path><path stroke-linecap="butt" stroke-linejoin="miter" fill-opacity="0" stroke-miterlimit="4" stroke="rgb(255,255,255)" stroke-opacity="1" stroke-width="2" d="M0 0 M6.545,-3.745 C6.545,-3.745 6.545,3.745 6.545,3.745 C6.545,3.745 -6.545,3.745 -6.545,3.745 C-6.545,3.745 -6.545,-3.745 -6.545,-3.745 C-6.545,-3.745 6.545,-3.745 6.545,-3.745z"></path></g></g><g transform="matrix(1,0,0,1,-328,1091.5)" opacity="1" style="-webkit-user-select: none;"><g opacity="1" transform="matrix(1,0,0,1,0,0)"><path stroke-linecap="round" stroke-linejoin="miter" fill-opacity="0" stroke-miterlimit="10" stroke="rgb(168,80,56)" stroke-opacity="1" stroke-width="4.253" d="M0 0 M918.835,-6.045 C918.835,-6.045 925.226,-4.721 925.226,-4.721"></path></g></g><g transform="matrix(1,0,0,1,-328,1088)" opacity="1" style="-webkit-user-select: none;"><g opacity="1" transform="matrix(1,0,0,1,0,0)"><path stroke-linecap="round" stroke-linejoin="miter" fill-opacity="0" stroke-miterlimit="10" stroke="rgb(168,80,56)" stroke-opacity="1" stroke-width="4.253" d="M0 0 M901.744,-2.546 C901.744,-2.546 908.271,-2.546 908.271,-2.546"></path></g></g><g transform="matrix(1,0,0,1,-328,1087)" opacity="1" style="-webkit-user-select: none;"><g opacity="1" transform="matrix(1,0,0,1,0,0)"><path fill="rgb(221,117,100)" fill-opacity="1" d="M0 0 M912.858,-20.828 C912.858,-20.828 925.465,-33.712 925.465,-33.712 C925.465,-33.712 908.6379999999999,-33.711 912.858,-20.828z"></path></g></g><g transform="matrix(1,0,0,1,-328,1087)" opacity="1" style="-webkit-user-select: none;"><g opacity="1" transform="matrix(1,0,0,1,0,0)"><path fill="rgb(230,213,239)" fill-opacity="1" d="M0 0 M888.628,61.519 C888.628,61.519 888.628,71.131 888.628,71.131 C888.628,71.131 894.22,92.1 903.075,92.1 C911.9300000000001,92.1 933.571,92.1 933.571,92.1 C933.571,92.1 934.4069999999999,76.729 933.732,70.388 C933.057,64.04700000000001 933.732,56.569 933.732,56.569 C933.732,56.569 888.628,61.519 888.628,61.519z"></path></g></g><g transform="matrix(1,0,0,1,-328,1087)" opacity="1" style="-webkit-user-select: none;"><g opacity="1" transform="matrix(1,0,0,1,0,0)"><path stroke-linecap="round" stroke-linejoin="miter" fill-opacity="0" stroke-miterlimit="10" stroke="rgb(255,153,153)" stroke-opacity="1" stroke-width="20.557" d="M0 0 M928.606,82.186 C928.606,82.186 948.636,82.186 948.636,82.186"></path></g></g><g transform="matrix(1,0,0,1,-328,1087)" opacity="1" style="-webkit-user-select: none;"><g opacity="1" transform="matrix(1,0,0,1,0,0)"><path stroke-linecap="round" stroke-linejoin="miter" fill-opacity="0" stroke-miterlimit="10" stroke="rgb(255,153,153)" stroke-opacity="1" stroke-width="20.557" d="M0 0 M891.89,82.186 C891.89,82.186 851.29,82.186 851.29,82.186"></path></g></g><g transform="matrix(1,0,0,1,-328,1087)" opacity="1" style="-webkit-user-select: none;"><g opacity="1" transform="matrix(1,0,0,1,0,0)"><path fill="rgb(8,15,58)" fill-opacity="1" d="M0 0 M947.389,71.85 C947.389,71.85 878.779,71.85 878.779,71.85 C873.279,71.85 868.779,67.35 868.779,61.85 C868.779,61.85 868.779,20.437 868.779,20.437 C868.779,14.937000000000001 873.279,10.437 878.779,10.437 C878.779,10.437 947.389,10.437 947.389,10.437 C952.889,10.437 957.389,14.937000000000001 957.389,20.437 C957.389,20.437 957.389,61.85 957.389,61.85 C957.389,67.35 952.889,71.85 947.389,71.85z"></path></g></g><g transform="matrix(1,0,0,1,-328,1087)" opacity="1" style="-webkit-user-select: none;"><g opacity="1" transform="matrix(1,0,0,1,0,0)"><path stroke-linecap="round" stroke-linejoin="miter" fill-opacity="0" stroke-miterlimit="10" stroke="rgb(242,129,129)" stroke-opacity="1" stroke-width="20.557" d="M0 0 M851.29,68.481 C851.29,68.481 851.29,82.128 851.29,82.128"></path></g></g><g transform="matrix(1,0,0,1,-328,1087)" opacity="1" style="-webkit-user-select: none;"><g opacity="1" transform="matrix(1,0,0,1,0,0)"><path stroke-linecap="round" stroke-linejoin="miter" fill-opacity="0" stroke-miterlimit="10" stroke="rgb(242,129,129)" stroke-opacity="1" stroke-width="20.557" d="M0 0 M949.943,68.481 C949.943,68.481 949.943,82.128 949.943,82.128"></path></g></g><g transform="matrix(1,0,0,1,-328,1087)" opacity="1" style="-webkit-user-select: none;"><g opacity="1" transform="matrix(1,0,0,1,0,0)"><path stroke-linecap="butt" stroke-linejoin="miter" fill-opacity="0" stroke-miterlimit="10" stroke="rgb(255,153,153)" stroke-opacity="1" stroke-width="14.545" d="M0 0 M862.635,28.171 C862.635,28.171 874.689,36.916 874.689,36.916"></path></g></g><g transform="matrix(1,0,0,1,-328,1087)" opacity="1" style="-webkit-user-select: none;"><g opacity="1" transform="matrix(1,0,0,1,0,0)"><path stroke-linecap="butt" stroke-linejoin="miter" fill-opacity="0" stroke-miterlimit="10" stroke="rgb(255,153,153)" stroke-opacity="1" stroke-width="14.545" d="M0 0 M963.416,35.265 C963.416,35.265 949.943,40.463 949.943,40.463"></path></g></g><g transform="matrix(0.8462,-0.5329,0.5329,0.8462,-124.2307,1689.1436)" opacity="1" style="-webkit-user-select: none;"><g opacity="1" transform="matrix(1,0,0,1,0,0)"><path stroke-linecap="round" stroke-linejoin="miter" fill-opacity="0" stroke-miterlimit="10" stroke="rgb(255,171,171)" stroke-opacity="1" stroke-width="7" d="M0 0 M968.166,-16.5 C968.166,-16.5 958.666,-11.167 958.666,-11.167"></path></g></g><g transform="matrix(0.8462,-0.5329,0.5329,0.8462,-130.2302,1696.643)" opacity="1" style="-webkit-user-select: none;"><g opacity="1" transform="matrix(1,0,0,1,0,0)"><path stroke-linecap="round" stroke-linejoin="miter" fill-opacity="0" stroke-miterlimit="10" stroke="rgb(255,171,171)" stroke-opacity="1" stroke-width="15" d="M0 0 M981.607,-17.867 C981.607,-17.867 971.583,-13.855 971.583,-13.855"></path></g></g><g transform="matrix(0.9947,0.1028,-0.1028,0.9947,-313.3869,979.4312)" opacity="1" style="-webkit-user-select: none;"><g opacity="1" transform="matrix(1,0,0,1,0,0)"><path stroke-linecap="butt" stroke-linejoin="miter" fill-opacity="0" stroke-miterlimit="10" stroke="rgb(195,167,216)" stroke-opacity="1" stroke-width="16" d="M0 0 M1047.434,-52.119 C1047.434,-52.119 1073.888,-1.828000000000003 1057.821,34.867 C1046.6709999999998,60.333 1030.731,66.97200000000001 1020.219,73.649"></path></g></g><g transform="matrix(0.9947,0.1028,-0.1028,0.9947,-313.3869,979.4312)" opacity="1" style="-webkit-user-select: none;"><g opacity="1" transform="matrix(1,0,0,1,0,0)"><path fill="rgb(195,167,216)" fill-opacity="1" d="M0 0 M1055.276,-52.119 C1055.276,-47.788 1051.7649999999999,-44.276 1047.434,-44.276 C1043.103,-44.276 1039.591,-47.788 1039.591,-52.119 C1039.591,-56.45 1043.103,-59.961 1047.434,-59.961 C1051.7649999999999,-59.961 1055.276,-56.45 1055.276,-52.119z"></path></g></g><g transform="matrix(1,0,0,1,-328,1087)" opacity="1" style="-webkit-user-select: none;"><g opacity="1" transform="matrix(1,0,0,1,0,0)"><path fill="rgb(188,75,49)" fill-opacity="1" d="M0 0 M1006.563,-582.9 C1006.563,-582.9 925.403,-582.9 925.403,-582.9 C919.947,-582.9 915.483,-578.436 915.483,-572.98 C915.483,-572.98 915.483,-569.153 915.483,-569.153 C915.483,-563.697 919.947,-559.233 925.403,-559.233 C925.403,-559.233 1006.563,-559.233 1006.563,-559.233 C1012.019,-559.233 1016.483,-563.697 1016.483,-569.153 C1016.483,-569.153 1016.483,-572.98 1016.483,-572.98 C1016.483,-578.436 1012.019,-582.9 1006.563,-582.9z"></path></g></g><g transform="matrix(1,0,0,1,-328,1087)" opacity="1" style="-webkit-user-select: none;"><g opacity="1" transform="matrix(1,0,0,1,0,0)"><path fill="rgb(188,75,49)" fill-opacity="1" d="M0 0 M976.917,-554.333 C976.917,-554.333 1052.522,-554.333 1052.522,-554.333 C1054.5739999999998,-554.333 1056.254,-556.013 1056.254,-558.065 C1056.254,-558.065 1056.254,-559.905 1056.254,-559.905 C1056.254,-561.957 1054.5739999999998,-563.636 1052.522,-563.636 C1052.522,-563.636 976.917,-563.636 976.917,-563.636 C974.865,-563.636 973.186,-561.957 973.186,-559.905 C973.186,-559.905 973.186,-558.065 973.186,-558.065 C973.186,-556.013 974.865,-554.333 976.917,-554.333z"></path></g></g><g transform="matrix(1,0,0,1,-328,1087)" opacity="1" style="-webkit-user-select: none;"><g opacity="1" transform="matrix(1,0,0,1,0,0)"><path stroke-linecap="round" stroke-linejoin="miter" fill-opacity="0" stroke-miterlimit="10" stroke="rgb(239,72,104)" stroke-opacity="1" stroke-width="13" d="M0 0 M1018.321,-567.121 C1018.321,-567.121 1018.321,-550.849 1018.321,-550.849"></path></g></g><g transform="matrix(1,0,0,1,-328,1087)" opacity="1" style="-webkit-user-select: none;"><g opacity="1" transform="matrix(1,0,0,1,0,0)"><path fill="rgb(211,100,66)" fill-opacity="1" d="M0 0 M1057.063,-587.303 C1057.063,-587.303 998.586,-587.303 998.586,-587.303 C993.13,-587.303 988.667,-582.839 988.667,-577.383 C988.667,-577.383 988.667,-573.556 988.667,-573.556 C988.667,-568.1 993.13,-563.636 998.586,-563.636 C998.586,-563.636 1057.063,-563.636 1057.063,-563.636 C1062.519,-563.636 1066.983,-568.1 1066.983,-573.556 C1066.983,-573.556 1066.983,-577.383 1066.983,-577.383 C1066.983,-582.839 1062.519,-587.303 1057.063,-587.303z"></path></g></g><g transform="matrix(1,0,0,1,-328,1087)" opacity="1" style="-webkit-user-select: none;"><g opacity="1" transform="matrix(1,0,0,1,0,0)"><path fill="rgb(214,93,73)" fill-opacity="1" d="M0 0 M978.999,-554.391 C978.999,-593.481 947.3100000000001,-625.17 908.22,-625.17 C869.13,-625.17 837.441,-593.481 837.441,-554.391 C837.441,-554.391 978.999,-554.391 978.999,-554.391z"></path></g></g><g transform="matrix(1,0,0,1,-328,1087)" opacity="1" style="-webkit-user-select: none;"><g opacity="1" transform="matrix(1,0,0,1,0,0)"><path stroke-linecap="round" stroke-linejoin="miter" fill-opacity="0" stroke-miterlimit="10" stroke="rgb(27,45,71)" stroke-opacity="1" stroke-width="7" d="M0 0 M845.797,-586.903 C845.797,-586.903 830,-561.5 816.451,-554.391"></path></g></g><g transform="matrix(1,0,0,1,-328,1087)" opacity="1" style="-webkit-user-select: none;"><g opacity="1" transform="matrix(1,0,0,1,0,0)"><path fill="rgb(211,100,66)" fill-opacity="1" d="M0 0 M1003.381,-614.997 C1003.381,-614.997 1019.664,-614.997 1019.664,-614.997 C1031.693,-614.997 1041.534,-605.155 1041.534,-593.126 C1041.534,-593.126 1041.534,-585.477 1041.534,-585.477 C1041.534,-573.448 1031.693,-563.606 1019.664,-563.606 C1019.664,-563.606 1003.381,-563.606 1003.381,-563.606 C991.352,-563.606 981.51,-573.448 981.51,-585.477 C981.51,-585.477 981.51,-593.126 981.51,-593.126 C981.51,-605.155 991.352,-614.997 1003.381,-614.997z"></path></g></g><g transform="matrix(1,0,0,1,-328,1087)" opacity="1" style="-webkit-user-select: none;"><g opacity="1" transform="matrix(1,0,0,1,0,0)"><path fill="rgb(6,54,81)" fill-opacity="1" d="M0 0 M1075.72,-581.688 C1075.72,-578.254 1072.936,-575.47 1069.502,-575.47 C1066.068,-575.47 1063.283,-578.254 1063.283,-581.688 C1063.283,-585.122 1066.068,-587.907 1069.502,-587.907 C1072.936,-587.907 1075.72,-585.122 1075.72,-581.688z"></path></g></g><g transform="matrix(1,0,0,1,-328,1087)" opacity="1" style="-webkit-user-select: none;"><g opacity="1" transform="matrix(1,0,0,1,0,0)"><path stroke-linecap="round" stroke-linejoin="miter" fill-opacity="0" stroke-miterlimit="10" stroke="rgb(27,45,71)" stroke-opacity="1" stroke-width="3" d="M0 0 M1020.787,-591.503 C1020.787,-591.503 1021.8700000000001,-595.455 1026.265,-595.455 C1030.66,-595.455 1031.743,-591.503 1031.743,-591.503"></path></g></g><g transform="matrix(1,0,0,1,-328,1087)" opacity="1" style="-webkit-user-select: none;"><g opacity="1" transform="matrix(1,0,0,1,0,0)"><path fill="rgb(27,45,71)" fill-opacity="1" d="M0 0 M992.476,-566.083 C992.476,-566.083 992.476,-566.083 992.476,-566.083 C1001.138,-566.083 1008.226,-573.1709999999999 1008.226,-581.833 C1008.226,-581.833 1008.226,-591.973 1008.226,-591.973 C1008.226,-600.635 1001.138,-607.723 992.476,-607.723 C992.476,-607.723 992.476,-607.723 992.476,-607.723 C983.814,-607.723 976.726,-600.635 976.726,-591.973 C976.726,-591.973 976.726,-581.833 976.726,-581.833 C976.726,-573.1709999999999 983.814,-566.083 992.476,-566.083z"></path></g></g><g transform="matrix(1,0,0,1,-328,1087)" opacity="1" style="-webkit-user-select: none;"><g opacity="1" transform="matrix(1,0,0,1,0,0)"><path fill="rgb(128,102,181)" fill-opacity="1" d="M0 0 M845.27,-546.308 C845.27,-546.308 845.27,-546.306 845.27,-546.306 C845.27,-546.306 845.27,-546.306 845.27,-546.306 C845.27,-546.306 845.27,-492.259 845.27,-492.259 C845.27,-492.259 845.27,-483.29 855.496,-483.29 C864.163,-483.29 864.479,-492.259 864.479,-492.259 C864.479,-492.259 864.479,-523.586 864.479,-523.586 C864.479,-523.586 885.479,-523.586 885.479,-523.586 C894.8290000000001,-523.586 902.479,-531.236 902.479,-540.586 C902.479,-540.586 902.479,-546.306 902.479,-546.306 C902.479,-546.306 902.479,-550.857 902.479,-550.857 C902.479,-552.068 902.345,-553.25 902.101,-554.391 C902.101,-554.391 845.364,-554.391 845.364,-554.391 C845.159,-552.1139999999999 845.27,-549.598 845.27,-546.308z"></path></g></g><g transform="matrix(1,0,0,1,-328,1087)" opacity="1" style="-webkit-user-select: none;"><g opacity="1" transform="matrix(1,0,0,1,0,0)"><path fill="rgb(188,75,49)" fill-opacity="1" d="M0 0 M891.22,-575.069 C891.22,-575.069 870.22,-575.069 870.22,-575.069 C870.22,-575.069 863.949,-575.069 863.949,-575.069 C863.949,-575.069 857.562,-575.069 854.364,-570.333 C850.432,-564.509 851.011,-561.036 851.011,-553.52 C851.011,-553.52 851.011,-553.518 851.011,-553.518 C851.011,-553.518 851.011,-553.518 851.011,-553.518 C851.011,-553.518 851.011,-499.471 851.011,-499.471 C851.011,-499.471 851.011,-490.502 861.237,-490.502 C869.904,-490.502 870.22,-499.471 870.22,-499.471 C870.22,-499.471 870.22,-530.798 870.22,-530.798 C870.22,-530.798 891.22,-530.798 891.22,-530.798 C900.57,-530.798 908.22,-538.448 908.22,-547.798 C908.22,-547.798 908.22,-553.518 908.22,-553.518 C908.22,-553.518 908.22,-558.069 908.22,-558.069 C908.22,-567.419 900.57,-575.069 891.22,-575.069z"></path></g></g><g transform="matrix(1,0,0,1,-328,1087)" opacity="1" style="-webkit-user-select: none;"><g opacity="1" transform="matrix(1,0,0,1,0,0)"><path fill="rgb(128,102,181)" fill-opacity="1" d="M0 0 M942.138,-554.391 C942.138,-554.391 942.138,-485.499 942.138,-485.499 C942.138,-480.252 946.3910000000001,-475.999 951.638,-475.999 C956.885,-475.999 961.138,-480.252 961.138,-485.499 C961.138,-485.499 961.138,-554.391 961.138,-554.391 C961.138,-554.391 942.138,-554.391 942.138,-554.391z"></path></g></g><g transform="matrix(1,0,0,1,-328,1087)" opacity="1" style="-webkit-user-select: none;"><g opacity="1" transform="matrix(1,0,0,1,0,0)"><path stroke-linecap="round" stroke-linejoin="miter" fill-opacity="0" stroke-miterlimit="10" stroke="rgb(188,75,49)" stroke-opacity="1" stroke-width="20" d="M0 0 M958.24,-568.609 C958.24,-568.609 958.24,-493.504 958.24,-493.504"></path></g></g><g transform="matrix(1,0,0,1,-328,1087)" opacity="1" style="-webkit-user-select: none;"><g opacity="1" transform="matrix(1,0,0,1,0,0)"><path fill="rgb(49,53,76)" fill-opacity="1" d="M0 0 M1282.331,-674.977 C1284.1909999999998,-657.293 1271.362,-641.4490000000001 1253.678,-639.589 C1235.9940000000001,-637.729 1220.149,-650.558 1218.289,-668.242 C1216.429,-685.9259999999999 1229.258,-701.77 1246.942,-703.63 C1264.626,-705.49 1280.471,-692.661 1282.331,-674.977z"></path></g></g><g transform="matrix(1,0,0,1,-328,1087)" opacity="1" style="-webkit-user-select: none;"><g opacity="1" transform="matrix(1,0,0,1,0,0)"><path fill="rgb(49,53,76)" fill-opacity="1" d="M0 0 M1296.314,-646.091 C1298.5240000000001,-625.075 1283.279,-606.246 1262.263,-604.036 C1241.2469999999998,-601.8259999999999 1222.419,-617.071 1220.209,-638.087 C1217.999,-659.103 1233.243,-677.9309999999999 1254.259,-680.141 C1275.275,-682.351 1294.104,-667.107 1296.314,-646.091z"></path></g></g><g transform="matrix(1,0,0,1,-328,1087)" opacity="1" style="-webkit-user-select: none;"><g opacity="1" transform="matrix(1,0,0,1,0,0)"><path fill="rgb(49,53,76)" fill-opacity="1" d="M0 0 M1292.971,-677.464 C1293.567,-671.8000000000001 1289.459,-666.727 1283.795,-666.131 C1278.131,-665.535 1273.058,-669.643 1272.462,-675.307 C1271.866,-680.971 1275.974,-686.045 1281.638,-686.641 C1287.302,-687.237 1292.375,-683.128 1292.971,-677.464z"></path></g></g><g transform="matrix(1,0,0,1,-328,1087)" opacity="1" style="-webkit-user-select: none;"><g opacity="1" transform="matrix(1,0,0,1,0,0)"><path fill="rgb(49,53,76)" fill-opacity="1" d="M0 0 M1295.411,-662.999 C1295.766,-659.6220000000001 1293.316,-656.596 1289.939,-656.241 C1286.5620000000001,-655.886 1283.536,-658.336 1283.181,-661.713 C1282.826,-665.0899999999999 1285.276,-668.116 1288.653,-668.471 C1292.03,-668.826 1295.056,-666.376 1295.411,-662.999z"></path></g></g><g transform="matrix(1,0,0,1,-328,1087)" opacity="1" style="-webkit-user-select: none;"><g opacity="1" transform="matrix(1,0,0,1,0,0)"><path fill="rgb(49,53,76)" fill-opacity="1" d="M0 0 M1298.374,-653.242 C1298.729,-649.865 1296.279,-646.839 1292.902,-646.484 C1289.525,-646.129 1286.499,-648.5790000000001 1286.144,-651.956 C1285.789,-655.333 1288.239,-658.359 1291.616,-658.714 C1294.993,-659.0690000000001 1298.019,-656.6189999999999 1298.374,-653.242z"></path></g></g><g transform="matrix(1,0,0,1,-328,1087)" opacity="1" style="-webkit-user-select: none;"><g opacity="1" transform="matrix(1,0,0,1,0,0)"><path fill="rgb(49,53,76)" fill-opacity="1" d="M0 0 M1301.56,-642.732 C1301.915,-639.355 1299.465,-636.3290000000001 1296.088,-635.974 C1292.711,-635.619 1289.685,-638.0690000000001 1289.33,-641.446 C1288.975,-644.823 1291.425,-647.8489999999999 1294.802,-648.204 C1298.1789999999999,-648.559 1301.205,-646.1089999999999 1301.56,-642.732z"></path></g></g><g transform="matrix(1,0,0,1,-328,1087)" opacity="1" style="-webkit-user-select: none;"><g opacity="1" transform="matrix(1,0,0,1,0,0)"><path fill="rgb(49,53,76)" fill-opacity="1" d="M0 0 M1300.975,-633.619 C1301.33,-630.2420000000001 1298.8799999999999,-627.215 1295.503,-626.86 C1292.126,-626.505 1289.099,-628.955 1288.744,-632.332 C1288.389,-635.709 1290.839,-638.736 1294.216,-639.091 C1297.5929999999998,-639.446 1300.62,-636.996 1300.975,-633.619z"></path></g></g><g transform="matrix(1,0,0,1,-328,1087)" opacity="1" style="-webkit-user-select: none;"><g opacity="1" transform="matrix(1,0,0,1,0,0)"><path fill="rgb(49,53,76)" fill-opacity="1" d="M0 0 M1296.892,-624.94 C1297.247,-621.5630000000001 1294.797,-618.537 1291.42,-618.182 C1288.0430000000001,-617.827 1285.017,-620.277 1284.662,-623.654 C1284.307,-627.031 1286.757,-630.057 1290.134,-630.412 C1293.511,-630.767 1296.537,-628.317 1296.892,-624.94z"></path></g></g><g transform="matrix(1,0,0,1,-328,1087)" opacity="1" style="-webkit-user-select: none;"><g opacity="1" transform="matrix(1,0,0,1,0,0)"><path fill="rgb(49,53,76)" fill-opacity="1" d="M0 0 M1290.743,-615.64 C1291.098,-612.263 1288.648,-609.237 1285.271,-608.882 C1281.894,-608.5269999999999 1278.868,-610.9770000000001 1278.513,-614.354 C1278.158,-617.731 1280.608,-620.757 1283.985,-621.112 C1287.3619999999999,-621.467 1290.388,-619.0169999999999 1290.743,-615.64z"></path></g></g><g transform="matrix(1,0,0,1,-328,1087)" opacity="1" style="-webkit-user-select: none;"><g opacity="1" transform="matrix(1,0,0,1,0,0)"><path fill="rgb(49,53,76)" fill-opacity="1" d="M0 0 M1282.682,-608.366 C1283.037,-604.989 1280.587,-601.962 1277.21,-601.607 C1273.833,-601.252 1270.807,-603.702 1270.452,-607.079 C1270.097,-610.4559999999999 1272.547,-613.483 1275.924,-613.838 C1279.301,-614.193 1282.327,-611.7429999999999 1282.682,-608.366z"></path></g></g><g transform="matrix(1,0,0,1,-328,1087)" opacity="1" style="-webkit-user-select: none;"><g opacity="1" transform="matrix(1,0,0,1,0,0)"><path fill="rgb(71,71,153)" fill-opacity="1" d="M0 0 M1271.079,-529.014 C1271.079,-529.014 1210.513,-538.913 1210.513,-538.913 C1210.513,-538.913 1231.013,-626.296 1231.013,-626.296 C1231.013,-626.296 1273,-626.296 1273,-626.296 C1273,-626.296 1271.079,-529.014 1271.079,-529.014z"></path></g></g><g transform="matrix(1,0,0,1,-328,1087)" opacity="1" style="-webkit-user-select: none;"><g opacity="1" transform="matrix(1,0,0,1,0,0)"><path fill="rgb(49,113,124)" fill-opacity="1" d="M0 0 M1211,-525.574 C1211,-525.574 1273,-525.574 1273,-525.574 C1273,-525.574 1273,-542.883 1273,-542.883 C1273,-542.883 1211,-542.883 1211,-542.883 C1211,-542.883 1211,-525.574 1211,-525.574z"></path></g></g><g transform="matrix(1,0,0,1,-328,1087)" opacity="1" style="-webkit-user-select: none;"><g opacity="1" transform="matrix(1,0,0,1,0,0)"><path stroke-linecap="butt" stroke-linejoin="miter" fill-opacity="0" stroke-miterlimit="10" stroke="rgb(49,113,124)" stroke-opacity="1" stroke-width="17" d="M0 0 M1261.146,-534.137 C1261.146,-534.137 1286.387,-537.003 1293.662,-514.894 C1297.372,-503.619 1287.7839999999999,-472.237 1282.109,-442.574"></path></g></g><g transform="matrix(1,0,0,1,-328,1087)" opacity="1" style="-webkit-user-select: none;"><g opacity="1" transform="matrix(1,0,0,1,0,0)"><path stroke-linecap="butt" stroke-linejoin="miter" fill-opacity="0" stroke-miterlimit="10" stroke="rgb(255,244,244)" stroke-opacity="1" stroke-width="17" d="M0 0 M1286.069,-461.408 C1284.683,-455.19 1283.309,-448.844 1282.109,-442.574"></path></g></g><g transform="matrix(1,0,0,1,-328,1087)" opacity="1" style="-webkit-user-select: none;"><g opacity="1" transform="matrix(1,0,0,1,0,0)"><path stroke-linecap="butt" stroke-linejoin="miter" fill-opacity="0" stroke-miterlimit="10" stroke="rgb(244,144,144)" stroke-opacity="1" stroke-width="14" d="M0 0 M1275.075,-610.321 C1284.968,-594.341 1299.226,-565.63 1287.333,-547.903 C1277.038,-532.558 1266.506,-530.503 1266.506,-530.503"></path></g></g><g transform="matrix(1,0,0,1,-328,1087)" opacity="1" style="-webkit-user-select: none;"><g opacity="1" transform="matrix(1,0,0,1,0,0)"><path stroke-linecap="butt" stroke-linejoin="miter" fill-opacity="0" stroke-miterlimit="10" stroke="rgb(70,70,152)" stroke-opacity="1" stroke-width="16" d="M0 0 M1267.152,-622.001 C1267.152,-622.001 1280.581,-604.564 1287.634,-585.083"></path></g></g><g transform="matrix(1,0,0,1,-328,1087)" opacity="1" style="-webkit-user-select: none;"><g opacity="1" transform="matrix(1,0,0,1,0,0)"><path fill="rgb(229,122,122)" fill-opacity="1" d="M0 0 M1241.948,-641.612 C1241.948,-641.612 1253.523,-644.778 1253.523,-644.778 C1253.523,-644.778 1258.905,-625.104 1258.905,-625.104 C1258.905,-625.104 1247.33,-621.937 1247.33,-621.937 C1247.33,-621.937 1241.948,-641.612 1241.948,-641.612z"></path></g></g><g transform="matrix(1,0,0,1,-328,1087)" opacity="1" style="-webkit-user-select: none;"><g opacity="1" transform="matrix(1,0,0,1,0,0)"><path fill="rgb(244,144,144)" fill-opacity="1" d="M0 0 M1270.79,-664.505 C1268.999,-681.532 1253.7450000000001,-693.884 1236.718,-692.093 C1219.691,-690.3019999999999 1207.3390000000002,-675.048 1209.13,-658.021 C1210.921,-640.9939999999999 1226.176,-628.6419999999999 1243.203,-630.433 C1260.23,-632.224 1272.581,-647.478 1270.79,-664.505z"></path></g></g><g transform="matrix(1,0,0,1,-328,1087)" opacity="1" style="-webkit-user-select: none;"><g opacity="1" transform="matrix(1,0,0,1,0,0)"><path stroke-linecap="butt" stroke-linejoin="miter" fill-opacity="0" stroke-miterlimit="10" stroke="rgb(71,71,153)" stroke-opacity="1" stroke-width="14" d="M0 0 M1235.004,-619.772 C1235.004,-619.772 1213,-602.5 1204.506,-577.955 C1195.643,-552.341 1198.5,-546 1201.854,-533"></path></g></g><g transform="matrix(1,0,0,1,-328,1087)" opacity="1" style="-webkit-user-select: none;"><g opacity="1" transform="matrix(1,0,0,1,0,0)"><path stroke-linecap="butt" stroke-linejoin="miter" fill-opacity="0" stroke-miterlimit="10" stroke="rgb(243,143,143)" stroke-opacity="1" stroke-width="14" d="M0 0 M1208.896,-588.05 C1207.224,-584.855 1205.726,-581.48 1204.506,-577.955 C1195.643,-552.341 1198.5,-546 1201.854,-533"></path></g></g><g transform="matrix(1,0,0,1,-328,1087)" opacity="1" style="-webkit-user-select: none;"><g opacity="1" transform="matrix(1,0,0,1,0,0)"><path fill="rgb(16,23,81)" fill-opacity="1" d="M0 0 M1191.664,-530.057 C1191.664,-530.057 1191.77,-531.527 1191.77,-531.527 C1191.094,-534.1560000000001 1189.0500000000002,-536.3009999999999 1184.122,-536.319 C1184.122,-536.319 1138.315,-536.485 1138.315,-536.485 C1133.387,-536.503 1130.1280000000002,-534.386 1130.804,-531.757 C1130.804,-531.757 1130.698,-530.288 1130.698,-530.288 C1131.374,-527.659 1133.231,-525.514 1138.159,-525.496 C1138.159,-525.496 1183.965,-525.33 1183.965,-525.33 C1188.893,-525.312 1192.34,-527.428 1191.664,-530.057z"></path></g></g><g transform="matrix(1,0,0,1,-328,1087)" opacity="1" style="-webkit-user-select: none;"><g opacity="1" transform="matrix(1,0,0,1,0,0)"><path stroke-linecap="butt" stroke-linejoin="miter" fill-opacity="0" stroke-miterlimit="10" stroke="rgb(49,113,124)" stroke-opacity="1" stroke-width="17" d="M0 0 M1219.996,-534.137 C1219.996,-534.137 1194.755,-537.003 1187.48,-514.894 C1183.989,-504.286 1181,-471 1187.067,-440.007"></path></g></g><g transform="matrix(1,0,0,1,-328,1087)" opacity="1" style="-webkit-user-select: none;"><g opacity="1" transform="matrix(1,0,0,1,0,0)"><path stroke-linecap="butt" stroke-linejoin="miter" fill-opacity="0" stroke-miterlimit="10" stroke="rgb(255,244,244)" stroke-opacity="1" stroke-width="17" d="M0 0 M1184.385,-459.359 C1184.94,-452.958 1185.809,-446.433 1187.067,-440.007"></path></g></g><g transform="matrix(1,0,0,1,-328,1087)" opacity="1" style="-webkit-user-select: none;"><g opacity="1" transform="matrix(1,0,0,1,0,0)"><path stroke-linecap="butt" stroke-linejoin="miter" fill-opacity="0" stroke-miterlimit="10" stroke="rgb(243,143,143)" stroke-opacity="1" stroke-width="14" d="M0 0 M1198.668,-553.314 C1198.226,-545.555 1199.961,-540.338 1201.854,-533"></path></g></g><g transform="matrix(1,0,0,1,-324.5,1087.001)" opacity="1" style="-webkit-user-select: none;"><g opacity="1" transform="matrix(1,0,0,1,-4.996,-0.276)"><path fill="rgb(16,23,81)" fill-opacity="1" d="M0 0 M1242.189,-653.594 C1242.352,-652.046 1241.229,-650.659 1239.681,-650.496 C1238.133,-650.333 1236.746,-651.456 1236.583,-653.004 C1236.42,-654.552 1237.543,-655.939 1239.091,-656.102 C1240.639,-656.265 1242.026,-655.142 1242.189,-653.594z"></path></g></g><g transform="matrix(1,0,0,1,-324.5,1087.001)" opacity="1" style="-webkit-user-select: none;"><g opacity="1" transform="matrix(1,0,0,1,-4.996,-0.276)"><path fill="rgb(16,23,81)" fill-opacity="1" d="M0 0 M1231.689,-653.099 C1231.852,-651.551 1230.729,-650.164 1229.181,-650.001 C1227.633,-649.838 1226.246,-650.961 1226.083,-652.509 C1225.92,-654.057 1227.043,-655.444 1228.591,-655.607 C1230.139,-655.77 1231.526,-654.647 1231.689,-653.099z"></path></g></g><g transform="matrix(1,0,0,1,-328,1087)" opacity="1" style="-webkit-user-select: none;"><g opacity="1" transform="matrix(1,0,0,1,0,0)"><path fill="rgb(49,53,76)" fill-opacity="1" d="M0 0 M1238.22,-693.773 C1239.0520000000001,-685.859 1233.311,-678.7669999999999 1225.397,-677.935 C1217.483,-677.103 1210.391,-682.844 1209.559,-690.758 C1208.7269999999999,-698.672 1214.468,-705.764 1222.382,-706.596 C1230.296,-707.428 1237.388,-701.687 1238.22,-693.773z"></path></g></g><g transform="matrix(1,0,0,1,-328,1087)" opacity="1" style="-webkit-user-select: none;"><g opacity="1" transform="matrix(1,0,0,1,0,0)"><path fill="rgb(49,53,76)" fill-opacity="1" d="M0 0 M1274.181,-680.103 C1274.6860000000001,-675.303 1271.204,-671.002 1266.403,-670.497 C1261.602,-669.992 1257.3010000000002,-673.475 1256.796,-678.275 C1256.291,-683.0749999999999 1259.7730000000001,-687.376 1264.574,-687.881 C1269.375,-688.386 1273.676,-684.9029999999999 1274.181,-680.103z"></path></g></g><g transform="matrix(1,0,0,1,-328,1087)" opacity="1" style="-webkit-user-select: none;"><g opacity="1" transform="matrix(1,0,0,1,0,0)"><path fill="rgb(49,53,76)" fill-opacity="1" d="M0 0 M1284.802,-691.272 C1285.5549999999998,-684.115 1280.3619999999999,-677.7030000000001 1273.205,-676.95 C1266.048,-676.197 1259.635,-681.389 1258.882,-688.546 C1258.1290000000001,-695.7030000000001 1263.3220000000001,-702.116 1270.479,-702.869 C1277.636,-703.6220000000001 1284.049,-698.4290000000001 1284.802,-691.272z"></path></g></g><g transform="matrix(1,0,0,1,-328,1087)" opacity="1" style="-webkit-user-select: none;"><g opacity="1" transform="matrix(1,0,0,1,0,0)"><path fill="rgb(49,53,76)" fill-opacity="1" d="M0 0 M1266.082,-696.487 C1267.1380000000001,-686.442 1259.852,-677.443 1249.807,-676.387 C1239.762,-675.3309999999999 1230.7630000000001,-682.6170000000001 1229.707,-692.662 C1228.651,-702.707 1235.937,-711.7059999999999 1245.982,-712.762 C1256.027,-713.818 1265.026,-706.5319999999999 1266.082,-696.487z"></path></g></g><g transform="matrix(1,0,0,1,-328,1087)" opacity="1" style="-webkit-user-select: none;"><g opacity="1" transform="matrix(1,0,0,1,0,0)"><path fill="rgb(49,53,76)" fill-opacity="1" d="M0 0 M1222.595,-683.466 C1223.291,-676.846 1218.4899999999998,-670.9150000000001 1211.87,-670.219 C1205.25,-669.523 1199.319,-674.325 1198.623,-680.945 C1197.9270000000001,-687.565 1202.728,-693.496 1209.348,-694.192 C1215.9679999999998,-694.888 1221.8990000000001,-690.086 1222.595,-683.466z"></path></g></g><g transform="matrix(1,0,0,1,-328,1087)" opacity="1" style="-webkit-user-select: none;"><g opacity="1" transform="matrix(1,0,0,1,0,0)"><path stroke-linecap="round" stroke-linejoin="miter" fill-opacity="0" stroke-miterlimit="10" stroke="rgb(158,86,67)" stroke-opacity="1" stroke-width="3" d="M0 0 M1239.061,-643.058 C1239.061,-643.058 1233.827,-641.988 1233.827,-641.988 C1233.827,-641.988 1229.116,-642.012 1229.116,-642.012"></path></g></g><g transform="matrix(1,0,0,1,-328,1087)" opacity="1" style="-webkit-user-select: none;"><g opacity="1" transform="matrix(1,0,0,1,0,0)"><path stroke-linecap="round" stroke-linejoin="miter" fill-opacity="0" stroke-miterlimit="10" stroke="rgb(49,53,76)" stroke-opacity="1" stroke-width="4" d="M0 0 M1236.925,-662.776 C1236.925,-662.776 1246.679,-664.983 1246.679,-664.983"></path></g></g><g transform="matrix(1,0,0,1,-328,1087)" opacity="1" style="-webkit-user-select: none;"><g opacity="1" transform="matrix(1,0,0,1,0,0)"><path stroke-linecap="round" stroke-linejoin="miter" fill-opacity="0" stroke-miterlimit="10" stroke="rgb(49,53,76)" stroke-opacity="1" stroke-width="4" d="M0 0 M1220.115,-662.475 C1220.115,-662.475 1229.666,-659.514 1229.666,-659.514"></path></g></g></g></svg>