<svg xmlns="http://www.w3.org/2000/svg" viewBox="0 0 2080 1424" width="2080" height="1424" preserveAspectRatio="xMidYMid meet" style="width: 100%; height: 100%;"><defs><clipPath id="animationMask_cq6Bbnx3fk"><rect width="2080" height="1424" x="0" y="0"></rect></clipPath><linearGradient id="gr_n7t6V4cMeA" spreadMethod="pad" gradientUnits="userSpaceOnUse" x1="-1367" y1="-1" x2="-1367" y2="-379.404"><stop offset="0%" stop-color="rgb(242,120,144)"></stop><stop offset="50%" stop-color="rgb(242,155,144)"></stop><stop offset="99%" stop-color="rgb(242,190,144)"></stop></linearGradient><linearGradient id="gr_LcZcMchL7m" spreadMethod="pad" gradientUnits="userSpaceOnUse" x1="-1084" y1="854" x2="-578.905" y2="781.844"><stop offset="0%" stop-color="rgb(209,38,112)"></stop><stop offset="50%" stop-color="rgb(209,38,112)"></stop><stop offset="100%" stop-color="rgb(209,38,112)"></stop></linearGradient><linearGradient id="op_clRAmIzj9k" spreadMethod="pad" gradientUnits="userSpaceOnUse" x1="-1084" y1="854" x2="-578.905" y2="781.844"><stop stop-color="rgb(255,255,255)" offset="0%" stop-opacity="0.1"></stop><stop stop-color="rgb(255,255,255)" offset="50%" stop-opacity="0.55"></stop><stop stop-color="rgb(255,255,255)" offset="100%" stop-opacity="1"></stop></linearGradient><mask id="mk_Mk3xVGIt64"><path fill="url(#op_clRAmIzj9k)" d="M0 0 M-801.261,413.86 C-801.261,413.86 -1293.34,1079.68 -1293.34,1079.68 C-1293.34,1079.68 166.583,1081.762 166.583,1081.762 C166.583,1081.762 166.583,415.432 166.583,415.432 C166.583,415.432 -801.261,413.86 -801.261,413.86z"></path></mask></defs><g clip-path="url(#animationMask_cq6Bbnx3fk)"><g transform="matrix(1,0,0,1,1922,343)" opacity="1" style="user-select: none;"><g opacity="1" transform="matrix(1,0,0,1,0,0)"><path fill="rgb(242,120,144)" fill-opacity="1" d="M0 0 M122.842,1089 C122.842,1089 -1926,1089 -1926,1089 C-1926,1089 -1932,-306.212 -1932,-306.212 C-1932,-306.212 -820.047,-312.212 -820.047,-312.212 C-820.047,-312.212 -796.047,421.908 -796.047,421.908 C-796.047,421.908 128.842,426.038 128.842,426.038 C128.842,426.038 122.842,1089 122.842,1089z"></path></g></g><g transform="matrix(1,0,0,1,1922,343)" opacity="1" style="user-select: none;"><g opacity="1" transform="matrix(1,0,0,1,0,0)"><path fill="url(#gr_n7t6V4cMeA)" fill-opacity="1" d="M0 0 M-1935,365.259 C-1935,365.259 -812.199,337.984 -812.199,337.984 C-812.199,337.984 -810.795,-349.937 -810.795,-349.937 C-810.795,-349.937 -1933.597,-350.875 -1933.597,-350.875 C-1933.597,-350.875 -1935,365.259 -1935,365.259z"></path></g></g><g transform="matrix(1,0,0,1,1922,343)" opacity="1" style="user-select: none;"><g opacity="1" transform="matrix(1,0,0,1,0,0)"><path fill="url(#gr_LcZcMchL7m)" mask="url(#mk_Mk3xVGIt64)" fill-opacity="1" d="M0 0 M-801.261,413.86 C-801.261,413.86 -1293.34,1079.68 -1293.34,1079.68 C-1293.34,1079.68 166.583,1081.762 166.583,1081.762 C166.583,1081.762 166.583,415.432 166.583,415.432 C166.583,415.432 -801.261,413.86 -801.261,413.86z"></path></g></g></g></svg>