<svg id="Layer_1" xmlns="http://www.w3.org/2000/svg" viewBox="0 0 392.7 2160"><style>.st0{fill:#a30c38}.st2{fill-opacity:0;stroke:#d84878;stroke-width:5;stroke-linecap:round;stroke-miterlimit:10}.st3{fill:#ba990f}.st4{fill:#a88516}.st5{fill:#749618}.st6{fill:#8fcc2f}.st7{fill:#7da820}</style><title>tree_fg2</title><path class="st0" d="M114.6 1873H243c3.1 0 5.7-2.5 5.7-5.7 0-3.1-2.5-5.7-5.7-5.7H114.6c-3.1 0-5.7 2.5-5.7 5.7.1 3.2 2.6 5.7 5.7 5.7z"/><path class="st0" d="M392.7 2160V0H205.2v2160h187.5z"/><path d="M257.2 1812.2c0 33.1-1.3 60-3 60s-3-26.9-3-60 1.3-60 3-60 3 26.9 3 60z" fill="#d84878"/><path class="st2" d="M218.6 1418V0"/><path class="st3" d="M96.1 1927.7l2.7-50.5 31.2-8.4-33.9 58.9z"/><path class="st4" d="M96.1 1927.7l33.9-58.8 8.4 31.2-42.3 27.6zm94.1-97.8l-11.9 35.7-24-.1 35.9-35.6z"/><path class="st3" d="M190.2 1829.9l-36 35.6.1-24 35.9-11.6zm-110 13.7l28.5 4 3.2 18.1-31.7-22.1z"/><path class="st4" d="M80.2 1843.6l31.7 22.1-18.1 3.2-13.6-25.3z"/><path class="st5" d="M65.1 125.1l46-20.9-3.6-32.1-42.4 53z"/><path class="st6" d="M65.1 125.1l42.4-53-32.1 3.6-10.3 49.4z"/><path class="st5" d="M158.2 494.2l66.9-30.4-5.1-46.7-61.8 77.1z"/><path class="st6" d="M158.2 494.2l61.8-77.1-46.7 5.2-15.1 71.9z"/><path class="st5" d="M147.1 420.2l71.8 15.9 23.9-40.4-95.7 24.5z"/><path class="st6" d="M147.1 420.2l95.7-24.5-40.4-23.9-55.3 48.4z"/><path class="st5" d="M14 120.9l84.7-38.5-6.5-59.1L14 120.9z"/><path class="st6" d="M14 120.9l78.2-97.6-59.1 6.5L14 120.9z"/><path class="st5" d="M147.3 196.2l60.8 11.5 19.1-34.6-79.9 23.1z"/><path class="st6" d="M147.3 196.2l79.9-23.1-34.6-19.1-45.3 42.2z"/><path class="st5" d="M0 27.2l90.9 20.1 30.3-51.2L0 27.2z"/><path class="st7" d="M0 27.2l121.2-31L70-34.1 0 27.2z"/><path class="st5" d="M133.2 132l16.6-91.6-52.3-28.2L133.2 132z"/><path class="st7" d="M133.2 132L97.5 12.2 69.2 64.5l64 67.5z"/><path class="st5" d="M131 169.3l85.2-37.5-5.8-59.2-79.4 96.7z"/><path class="st6" d="M131 169.3l79.3-96.7-59.2 5.8-20.1 90.9z"/><path class="st5" d="M184.1 195.1l38.9-43.3-18.6-32.2-20.3 75.5z"/><path class="st6" d="M184.1 195.1l20.2-75.5-32.2 18.6 12 56.9z"/><path class="st5" d="M161 93.4l64.6-67-27.8-52.5L161 93.4z"/><path class="st7" d="M161 93.4l36.8-119.5-52.5 27.8L161 93.4z"/><path class="st5" d="M77.9 58.9l92.5-10.6L182.3-10 77.9 58.9z"/><path class="st7" d="M77.9 58.9L182.3-10l-58.2-11.9-46.2 80.8z"/><path class="st5" d="M149.8 229l26.3 43.1 31.4-7.4-57.7-35.7z"/><path class="st6" d="M149.8 229l57.7 35.7-7.4-31.4-50.3-4.3z"/><path class="st5" d="M147.6 112.9l22.1-45.4L146.6 45l1 67.9z"/><path class="st6" d="M147.6 112.9l-1-67.9-22.5 23.2 23.5 44.7z"/><path class="st5" d="M154.7 63.3l41.2 29.3 26-19.2-67.2-10.1z"/><path class="st7" d="M154.7 63.3l67.1 10.1-19.2-26-47.9 15.9zm20.9 247.6l36.5-9.3 1.6-24-38.1 33.3z"/><path class="st6" d="M175.6 310.9l38.1-33.3-24-1.6-14.1 34.9z"/><path class="st7" d="M117 77.9l36.5-9.3 1.6-24L117 77.9z"/><path class="st0" d="M218.6 1489.3l-109 22.7h29c48 0 80 6.7 80 72.8v-95.5z"/><path class="st5" d="M117 77.9l38-33.3-24-1.6-14 34.9z"/><path class="st2" d="M109.6 1512h29c48 0 80 6.7 80 72.8v575.3M244.8.9v1692.8c0 31.5-8 60-8 121.5s8 76.5 8 114v230.9M265.5.9v1692.8c0 31.5 8 60 8 121.5s-8 76.5-8 114V2160"/></svg>