<svg id="Layer_1" data-name="Layer 1" xmlns="http://www.w3.org/2000/svg" width="2404.29" height="2160"><defs><style>.cls-1,.cls-13,.cls-3{fill-opacity:0;stroke-miterlimit:10}.cls-1{stroke:#a30c38}.cls-1,.cls-13,.cls-3{stroke-linecap:round}.cls-1{stroke-width:13px}.cls-3{stroke:#d84878;stroke-width:5px}.cls-5{fill:#b3ce11}.cls-6{fill:#bbe217}.cls-7{fill:#a88516}.cls-8{fill:#ba990f}.cls-10{fill:#749618}.cls-11{fill:#8fcc2f}.cls-12{fill:#7da820}.cls-13{stroke:#f9f5ca;stroke-width:6px}</style></defs><title>tree_fg</title><path class="cls-1" d="M583.16 1672.11H399.09"/><path d="M2404.29 1517.71L248.81 1512c-82.5 0-150-67.5-150-150V0" stroke-width="187" stroke="#a30c38" fill-opacity="0" stroke-miterlimit="10"/><path class="cls-3" d="M46.59 0v412.62c0 31.5-8 60-8 121.49s8 76.5 8 114V1348c0 102 64.27 216.52 214.27 216.52 184 0 2143.44 8.62 2143.44 8.62"/><path class="cls-3" d="M67.27 0v412.62c0 31.5 8 60 8 121.49s-8 76.5-8 114V1358c0 75.91 71.58 184 172.47 184 147.33 0 2112.55 7.67 2164.55 7.67"/><path d="M59 531.12c0 33.14-1.34 60-3 60s-3-26.86-3-60 1.34-60 3-60 3 26.88 3 60z" fill="#d84878"/><path class="cls-1" d="M474.47 1464.11v-54.54c0-33.49 13.93-45.21 45.21-45.21H581"/><path class="cls-5" d="M606.29 1410.92l-31.91-20 5.77-23.34z"/><path class="cls-6" d="M606.29 1410.92l-26.13-43.31 23.34 5.77zM574.8 1328.76l-.25 25.56-15.55 4.94z"/><path class="cls-5" d="M574.8 1328.76l-15.8 30.5-5-15.57z"/><path class="cls-1" d="M299.35 1572.67h54.53c33.49 0 45.21 13.93 45.21 45.21v61.28"/><path class="cls-7" d="M434.69 1673l-25.56-.25-4.93-15.57z"/><path class="cls-8" d="M434.69 1673l-30.49-15.82 15.57-4.93z"/><path class="cls-7" d="M694.52 1755.49l-22.72-11.72 2.59-16.12z"/><path class="cls-8" d="M694.52 1755.49l-20.13-27.84 16.12 2.59z"/><path class="cls-1" d="M399.09 1658.72v54.54c0 33.49 13.93 45.21 45.21 45.21h91.3M669.21 1735.72v-18.39c0-33.49-13.93-45.21-45.21-45.21h-61.28"/><path class="cls-8" d="M506.84 1791.34l17.33-18.79-8-14.26z"/><path class="cls-7" d="M506.84 1791.34l9.38-33-14.26 8zM352.53 1704.49l43.31-26.13-5.78 23.34z"/><path class="cls-8" d="M352.53 1704.49l43.31-26.13.43-1.29-23.46-5.27z"/><path class="cls-7" d="M569.1 1783.89l-42.6-27.27 5.15 23.48z"/><path class="cls-8" d="M569.1 1783.89l-42.6-27.27 23.64-5.14z"/><path class="cls-7" d="M677.17 1642.17l-42.83 26.92 23.44 5.35z"/><path class="cls-8" d="M677.17 1642.17l-42.83 26.92 5.43-23.57z"/><path class="cls-7" d="M716.64 1711.17l-46.64-19.6 9.09 22.26z"/><path class="cls-8" d="M716.64 1711.17l-46.64-19.6 22.42-9.1z"/><path class="cls-7" d="M651 1768.59l15.46-48.16-21.38 11z"/><path class="cls-8" d="M651 1768.59l15.46-48.16 11 21.54zM638 1701.57l25.3-3.67 7.26 14.62z"/><path class="cls-7" d="M638 1701.57l32.56 11-14.62 7.26z"/><path d="M294.2 398H165.88a5.7 5.7 0 0 1-5.68-5.68 5.7 5.7 0 0 1 5.68-5.68H294.2a5.7 5.7 0 0 1 5.68 5.68 5.7 5.7 0 0 1-5.68 5.68z" fill="#a30c38"/><path class="cls-10" d="M236.36 447.75l46-20.92-3.54-32.08z"/><path class="cls-11" d="M236.36 447.75l42.45-53-32.08 3.55z"/><path class="cls-10" d="M429 49.36l70.27-21.58.88-46.95z"/><path class="cls-12" d="M429 49.36l71.15-68.53-46.95-.88z"/><path class="cls-11" d="M409.57 95.6l36-47.07-21.4-31.22z"/><path class="cls-12" d="M409.57 95.6l14.6-78.29L393 38.72z"/><path class="cls-11" d="M614.15 48.25l13.6-37.6-20.12-15.73z"/><path class="cls-12" d="M614.15 48.25l-6.52-53.33L591.9 15z"/><path class="cls-10" d="M477 71.33l25.08-31.14-13.87-21.41z"/><path class="cls-12" d="M477 71.33l11.16-52.56-21.36 13.92z"/><path class="cls-10" d="M430.68 39.23l25.08-31.14-13.91-21.41z"/><path class="cls-12" d="M430.68 39.23l11.16-52.56L420.43.59z"/><path class="cls-10" d="M567.73 63.05L613.91 5.7l-25.62-39.45z"/><path class="cls-12" d="M567.73 63.05l20.56-96.81-39.45 25.64z"/><path class="cls-11" d="M320.71 432l-4.86-37.33-23.62-4.48z"/><path class="cls-10" d="M320.71 432l-28.48-41.8-4.48 23.62z"/><path class="cls-11" d="M309.07 141.15l-20.92-46-32.07 3.55z"/><path class="cls-12" d="M309.07 141.15l-53-42.45 3.54 32.08z"/><path class="cls-11" d="M304.89 192.21l-38.53-84.72-59.09 6.51z"/><path class="cls-12" d="M304.89 192.21L207.27 114l6.53 59.09z"/><path class="cls-11" d="M556.25 91.33l5.24-92.92-55.36-21.67z"/><path class="cls-12" d="M556.25 91.33L506.13-23.26 484.46 32.1z"/><path class="cls-11" d="M380.23 58.94l11.5-60.85L357.09-21z"/><path class="cls-12" d="M380.23 58.94L357.09-21 338 13.65z"/><path class="cls-11" d="M211.23 206.23l20.13-90.87-51.15-30.3z"/><path class="cls-12" d="M211.23 206.23l-31-121.16-30.3 51.15z"/><path class="cls-11" d="M240.63 240l-39.28-54.79-41.07 12.94z"/><path class="cls-12" d="M240.63 240l-80.35-41.85 12.94 41.07z"/><path class="cls-10" d="M445.47 30.09L406.19-24.7l-41.07 12.93z"/><path class="cls-12" d="M445.47 30.09l-80.35-41.86 12.94 41.07z"/><path class="cls-11" d="M316 73l-91.58-16.54-28.27 52.29z"/><path class="cls-12" d="M316 73l-119.85 35.75L248.44 137z"/><path class="cls-11" d="M353.3 75.22L315.78-9.95l-59.17 5.84z"/><path class="cls-12" d="M353.3 75.22L256.61-4.11 262.45 55z"/><path class="cls-10" d="M379.11 22.1l-43.33-38.82L303.6 1.85z"/><path class="cls-12" d="M379.11 22.1L303.6 1.85 322.17 34z"/><path class="cls-10" d="M277.43 45.27l-67-64.64-52.52 27.79z"/><path class="cls-12" d="M277.43 45.27L157.91 8.42 185.7 61z"/><path class="cls-10" d="M242.86 128.33l-10.64-92.45L174 23.93z"/><path class="cls-12" d="M242.86 128.33L174 23.93l-12 58.24z"/><path class="cls-10" d="M296.93 58.6l-45.42-22.13L229 59.63z"/><path class="cls-12" d="M296.93 58.6l-67.9 1 23.17 22.5z"/><path class="cls-10" d="M247.32 51.5l29.28-41.17-19.16-26z"/><path class="cls-12" d="M247.32 51.5l10.13-67.14-26 19.16z"/><path class="cls-12" d="M266 85.27l-9.33-36.47-24-1.59z"/><path class="cls-10" d="M266 85.27l-33.31-38.05-1.59 24z"/><path class="cls-11" d="M332.29 363.07l-62.9-7.76-17.23 36.63z"/><path class="cls-12" d="M332.29 363.07l-80.12 28.87 36.63 17.23z"/><path class="cls-13" d="M192.48 928L0 876.15M0 891.4L193 915"/></svg>