<svg xmlns="http://www.w3.org/2000/svg" width="3840" height="2160" style="width:100%;height:100%"><defs><clipPath id="a"><path d="M0 0h3840v2160H0z"/></clipPath></defs><g clip-path="url(#a)"><path fill="#7F052E" d="M0 766.063h1168.52v-46.861H0v46.861z"/><path fill="#7F052E" d="M1027.9479999999999 766.063h1168.52v-46.861h-1168.52v46.861zM2171 1323.753h1669v-46.86H2171v46.86z"/><path stroke-linecap="round" stroke-miterlimit="10" stroke="#A30C38" stroke-width="13" d="M1580.31 1672.112h-184.073" fill="none"/><path fill="#A30C38" d="M1975 1872.982h128.318c3.123 0 5.678-2.556 5.678-5.679s-2.555-5.679-5.678-5.679H1975c-3.123 0-5.679 2.556-5.679 5.679s2.556 5.679 5.679 5.679z"/><path fill="#A30C38" d="M2253.074 2160V0h-187.491v2160h187.491z"/><path stroke-miterlimit="10" stroke="#A30C38" stroke-width="187" d="M2109 1512.038h-863.044c-82.5 0-150-67.5-150-150V0" fill="none"/><path stroke-linecap="round" stroke-miterlimit="10" stroke="#D84878" stroke-width="5" d="M1095.9560000000001 0v1362.038c0 82.5 67.5 150 150 150H1999c48 0 80 6.702 80 72.832v575.32" fill="none"/><path stroke-linecap="round" stroke-miterlimit="10" stroke="#D84878" stroke-width="5" d="M1043.731 0v412.624c0 31.498-8.005 59.997-8.005 121.494s8.005 76.496 8.005 113.994V1348c0 102.027 64.269 216.518 214.267 216.518 184 0 821.002 2.951 821.002 2.951" fill="none"/><path stroke-linecap="round" stroke-miterlimit="10" stroke="#D84878" stroke-width="5" d="M1064.4160000000002 0v412.624c0 31.498 8.005 59.997 8.005 121.494s-8.005 76.496-8.005 113.994V1358c0 75.911 71.584 183.997 172.47 183.997 147.333 0 783.733 2.001 835.733 2.001" fill="none"/><path fill="#D84878" d="M1056.134 531.118c0 33.135-1.343 59.997-3 59.997s-3-26.862-3-59.997c0-33.135 1.343-59.997 3-59.997s3 26.862 3 59.997z"/><path stroke-linecap="round" stroke-miterlimit="10" stroke="#D84878" stroke-width="5" d="M2105.206.91599999999994v1692.842c0 31.499-8.005 59.997-8.005 121.494s8.005 76.497 8.005 113.995v230.944M2125.89.91599999999994v1692.842c0 31.498 8.005 59.997 8.005 121.494s-8.005 76.497-8.005 113.995V2160" fill="none"/><path fill="#D84878" d="M2117.608 1812.252c0 33.135-1.343 59.997-3 59.997s-2.999-26.862-2.999-59.997c0-33.135 1.342-59.997 2.999-59.997s3 26.862 3 59.997z"/><path stroke-linecap="round" stroke-miterlimit="10" stroke="#D84878" stroke-width="5" d="M2079 1417.984V0" fill="none"/><g style="user-select:none"><path fill="#BA990F" d="M1956.419 1927.737l2.7-50.455 31.163-8.4-33.863 58.855z"/><path fill="#A88516" d="M1956.419 1927.737l33.863-58.855 8.4 31.162-42.263 27.693z"/></g><g style="user-select:none"><path fill="#A88516" d="M2050.576 1829.882l-11.939 35.698-24.043-.143 35.982-35.555z"/><path fill="#BA990F" d="M2050.576 1829.882l-35.982 35.555.143-24.043 35.839-11.512z"/></g><g style="user-select:none"><path fill="#BA990F" d="M1940.579 1843.5810000000001l28.45 4.006 3.229 18.066-31.679-22.072z"/><path fill="#A88516" d="M1940.579 1843.5810000000001l31.679 22.072-18.066 3.229-13.613-25.301z"/></g><path stroke-linecap="round" stroke-miterlimit="10" stroke="#A30C38" stroke-width="13" d="M1471.613 1464.112v-54.535c0-33.487 13.926-45.212 45.211-45.212h61.284" fill="none"/><path fill="#B3CE11" d="M1603.431 1410.924l-31.906-19.973 5.775-23.34 26.131 43.313z"/><path fill="#BBE217" d="M1603.431 1410.924l-26.131-43.313 23.34 5.775 2.791 37.538z"/><g style="user-select:none"><path fill="#BBE217" d="M1571.943 1328.7649999999999l-.252 25.561-15.565 4.933 15.817-30.494z"/><path fill="#B3CE11" d="M1571.943 1328.7649999999999l-15.817 30.494-4.933-15.565 20.75-14.929z"/></g><path stroke-linecap="round" stroke-miterlimit="10" stroke="#A30C38" stroke-width="13" d="M1296.491 1572.6689999999999h54.535c33.487 0 45.211 13.926 45.211 45.211v61.283" fill="none"/><path fill="#A88516" d="M1431.838 1672.999l-25.561-.252-4.933-15.565 30.494 15.817z"/><path fill="#BA990F" d="M1431.838 1672.999l-30.494-15.817 15.565-4.933 14.929 20.75z"/><path fill="#A88516" d="M1691.669 1755.4940000000001l-22.719-11.715 2.59-16.121 20.129 27.836z"/><path fill="#BA990F" d="M1691.669 1755.4940000000001l-20.129-27.836 16.121 2.59 4.008 25.246z"/><path stroke-linecap="round" stroke-miterlimit="10" stroke="#A30C38" stroke-width="13" d="M1396.237 1658.717v54.535c0 33.487 13.926 45.211 45.211 45.211h91.303M1666.358 1735.717v-18.394c0-33.487-13.927-45.211-45.212-45.211h-61.283" fill="none"/><path fill="#BA990F" d="M1503.982 1791.337l17.334-18.787-7.955-14.26-9.379 33.047z"/><path fill="#A88516" d="M1503.982 1791.337l9.379-33.047-14.259 7.955 4.88 25.092zM1349.679 1704.487l43.313-26.131-5.775 23.34-37.538 2.791z"/><path fill="#BA990F" d="M1349.679 1704.487l43.313-26.131.43-1.286-23.458-5.274-20.285 32.691z"/><path fill="#A88516" d="M1566.243 1783.887l-42.604-27.271 5.153 23.485 37.451 3.786z"/><path fill="#BA990F" d="M1566.243 1783.887l-42.604-27.271 23.64-5.135 18.964 32.406z"/><path fill="#A88516" d="M1674.315 1642.1660000000002l-42.827 26.921 23.442 5.346 19.385-32.267z"/><path fill="#BA990F" d="M1674.315 1642.1660000000002l-42.827 26.921 5.43-23.575 37.397-3.346z"/><path fill="#A88516" d="M1713.785 1711.1680000000001l-46.635-19.595 9.088 22.26 37.547-2.665z"/><path fill="#BA990F" d="M1713.785 1711.1680000000001l-46.635-19.595 22.416-9.096 24.219 28.691z"/><path fill="#A88516" d="M1648.132 1768.594l15.462-48.164-21.384 10.991 5.922 37.173z"/><path fill="#BA990F" d="M1648.132 1768.594l15.462-48.164 11.013 21.539-26.475 26.625zM1635.101 1701.566l25.297-3.672 7.262 14.624-32.559-10.952z"/><path fill="#A88516" d="M1635.101 1701.566l32.559 10.952-14.624 7.262-17.935-18.214z"/><path fill="#A30C38" d="M1291.342 398.03999999999996h-128.318c-3.123 0-5.679-2.556-5.679-5.679s2.556-5.679 5.679-5.679h128.318c3.123 0 5.679 2.556 5.679 5.679s-2.556 5.679-5.679 5.679z"/><path fill="#749618" d="M1233.5030000000002 447.75300000000004l45.994-20.918-3.545-32.079-42.449 52.997z"/><path fill="#8FCC2F" d="M1233.5030000000002 447.75300000000004l42.449-52.997-32.079 3.545-10.37 49.452z"/><path fill="#749618" d="M1925.448 125.08799999999997l45.995-20.918-3.545-32.079-42.45 52.997z"/><path fill="#8FCC2F" d="M1925.448 125.08799999999997l42.45-52.997-32.079 3.545-10.371 49.452z"/><path fill="#749618" d="M2018.56 494.183l66.917-30.433-5.158-46.672-61.759 77.105z"/><path fill="#8FCC2F" d="M2018.56 494.183l61.759-77.105-46.672 5.158-15.087 71.947z"/><path fill="#749618" d="M2007.481 420.207l71.773 15.9 23.931-40.4-95.704 24.5z"/><path fill="#8FCC2F" d="M2007.481 420.207l95.704-24.5-40.401-23.931-55.303 48.431z"/><path fill="#749618" d="M1426.105 49.35799999999995l70.273-21.582.882-46.948-71.155 68.53z"/><path fill="#7DA820" d="M1426.105 49.35799999999995l71.155-68.53-46.948-.882-24.207 69.412z"/><path fill="#749618" d="M1874.391 120.899l84.719-38.529-6.53-59.087-78.189 97.616z"/><path fill="#8FCC2F" d="M1874.391 120.899l78.189-97.616-59.088 6.529-19.101 91.087zM1406.716 95.60199999999998l36.007-47.069-21.405-31.221-14.602 78.29z"/><path fill="#7DA820" d="M1406.716 95.60199999999998l14.602-78.29-31.22 21.405 16.618 56.885z"/><path fill="#8FCC2F" d="M1611.2939999999999 48.249000000000024l13.598-37.598-20.116-15.734 6.518 53.332z"/><path fill="#7DA820" d="M1611.2939999999999 48.249000000000024l-6.518-53.332-15.734 20.115 22.252 33.217z"/><path fill="#749618" d="M1474.194 71.332l25.075-31.141-13.913-21.416-11.162 52.557z"/><path fill="#7DA820" d="M1474.194 71.332l11.162-52.557-21.415 13.913 10.253 38.644z"/><path fill="#749618" d="M1427.8310000000001 39.2349999999999l25.075-31.141-13.912-21.416-11.163 52.557z"/><path fill="#7DA820" d="M1427.8310000000001 39.2349999999999l11.163-52.557L1417.578.591l10.253 38.644z"/><path fill="#749618" d="M1564.873 63.05499999999995l46.186-57.359-25.626-39.447-20.56 96.806z"/><path fill="#7DA820" d="M1564.873 63.05499999999995l20.56-96.806-39.446 25.626 18.886 71.18z"/><path fill="#749618" d="M2007.659 196.24599999999998l60.847 11.501 19.088-34.644-79.935 23.143z"/><path fill="#8FCC2F" d="M2007.659 196.24599999999998l79.935-23.143-34.644-19.087-45.291 42.23z"/><path fill="#749618" d="M1860.365 27.243999999999915l90.866 20.129 30.297-51.147-121.163 31.018z"/><path fill="#7DA820" d="M1860.365 27.243999999999915l121.163-31.018-51.148-30.298-70.015 61.316z"/><path fill="#749618" d="M1993.586 132.01800000000003l16.556-91.583-52.294-28.272 35.738 119.855z"/><path fill="#7DA820" d="M1993.586 132.01800000000003l-35.738-119.855-28.272 52.295 64.01 67.56z"/><path fill="#749618" d="M1991.382 169.31799999999998l85.166-37.528-5.833-59.161-79.333 96.689z"/><path fill="#8FCC2F" d="M1991.382 169.31799999999998l79.333-96.689-59.161 5.834-20.172 90.855z"/><path fill="#749618" d="M2044.498 195.12300000000005l38.822-43.325-18.572-32.184-20.25 75.509z"/><path fill="#8FCC2F" d="M2044.498 195.12300000000005l20.25-75.509-32.185 18.572 11.935 56.937z"/><path fill="#749618" d="M2021.325 93.44299999999998l64.635-66.962-27.784-52.555-36.851 119.517z"/><path fill="#7DA820" d="M2021.325 93.44299999999998l36.851-119.517-52.555 27.784 15.704 91.733z"/><path fill="#749618" d="M1938.265 58.870000000000005l92.459-10.632 11.943-58.236-104.402 68.868z"/><path fill="#7DA820" d="M1938.265 58.870000000000005l104.402-68.868-58.235-11.942-46.167 80.81z"/><path fill="#8FCC2F" d="M1317.858 432.009l-4.859-37.327-23.623-4.477 28.482 41.804z"/><path fill="#749618" d="M1317.858 432.009l-28.482-41.804-4.478 23.623 32.96 18.181zM2010.145 229.04700000000003l26.322 43.131 31.416-7.395-57.738-35.736z"/><path fill="#8FCC2F" d="M2010.145 229.04700000000003l57.738 35.736-7.395-31.416-50.343-4.32z"/><path fill="#749618" d="M2007.996 112.94799999999998l22.136-45.422-23.165-22.473 1.029 67.895z"/><path fill="#8FCC2F" d="M2007.996 112.94799999999998l-1.029-67.895-22.473 23.166 23.502 44.729z"/><path fill="#749618" d="M2015.095 63.33100000000002l41.174 29.288 25.969-19.163-67.143-10.125z"/><path fill="#7DA820" d="M2015.095 63.33100000000002l67.143 10.125-19.163-25.97-47.98 15.845zM2035.966 310.88300000000004l36.466-9.334 1.59-23.991-38.056 33.325z"/><path fill="#8FCC2F" d="M2035.966 310.88300000000004l38.056-33.325-23.991-1.59-14.065 34.915z"/><path fill="#7DA820" d="M1977.356 77.92899999999997l36.466-9.334 1.59-23.991-38.056 33.325z"/><path fill="#749618" d="M1977.356 77.92899999999997l38.056-33.325-23.991-1.59-14.065 34.915z"/><path fill="#8FCC2F" d="M1306.22 141.15099999999995l-20.918-45.995-32.079 3.545 52.997 42.45z"/><path fill="#7DA820" d="M1306.22 141.15099999999995l-52.997-42.45 3.545 32.079 49.452 10.371z"/><path fill="#8FCC2F" d="M1302.031 192.20799999999997l-38.529-84.719-59.088 6.53 97.617 78.189z"/><path fill="#7DA820" d="M1302.031 192.20799999999997l-97.617-78.189 6.53 59.088 91.087 19.101z"/><path fill="#8FCC2F" d="M1553.392 91.33000000000004l5.239-92.92-55.358-21.669 50.119 114.589z"/><path fill="#7DA820" d="M1553.392 91.33000000000004l-50.119-114.589-21.668 55.358 71.787 59.231z"/><path fill="#8FCC2F" d="M1377.3780000000002 58.940000000000055l11.501-60.847-34.644-19.088 23.143 79.935z"/><path fill="#7DA820" d="M1377.3780000000002 58.940000000000055l-23.143-79.935-19.088 34.644 42.231 45.291z"/><path fill="#8FCC2F" d="M1208.376 206.23400000000004l20.129-90.866-51.148-30.297 31.019 121.163z"/><path fill="#7DA820" d="M1208.376 206.23400000000004l-31.019-121.163-30.297 51.148 61.316 70.015z"/><path fill="#8FCC2F" d="M1237.7730000000001 240.01800000000003l-39.279-54.79-41.072 12.94 80.351 41.85z"/><path fill="#7DA820" d="M1237.7730000000001 240.01800000000003l-80.351-41.85 12.94 41.072 67.411.778z"/><path fill="#749618" d="M1442.613 30.086000000000013l-39.28-54.791-41.071 12.94 80.351 41.851z"/><path fill="#7DA820" d="M1442.613 30.086000000000013l-80.351-41.851 12.94 41.072 67.411.779z"/><path fill="#8FCC2F" d="M1313.15 73.01300000000003l-91.583-16.556-28.272 52.294 119.855-35.738z"/><path fill="#7DA820" d="M1313.15 73.01300000000003l-119.855 35.738 52.295 28.272 67.56-64.01z"/><path fill="#8FCC2F" d="M1350.45 75.21699999999998l-37.528-85.166-59.161 5.834 96.689 79.332z"/><path fill="#7DA820" d="M1350.45 75.21699999999998l-96.689-79.332 5.833 59.16 90.856 20.172z"/><path fill="#749618" d="M1376.255 22.10200000000009l-43.325-38.823-32.184 18.572 75.509 20.251z"/><path fill="#7DA820" d="M1376.255 22.10200000000009l-75.509-20.251 18.572 32.185 56.937-11.934z"/><path fill="#749618" d="M1274.575 45.27399999999989l-66.962-64.635-52.555 27.784 119.517 36.851z"/><path fill="#7DA820" d="M1274.575 45.27399999999989L1155.058 8.423l27.784 52.555 91.733-15.704z"/><path fill="#749618" d="M1240.002 128.33399999999995l-10.632-92.459-58.236-11.943 68.868 104.402z"/><path fill="#7DA820" d="M1240.002 128.33399999999995l-68.868-104.402-11.943 58.235 80.811 46.167z"/><path fill="#749618" d="M1294.08 58.60299999999995l-45.422-22.136-22.473 23.166 67.895-1.03z"/><path fill="#7DA820" d="M1294.08 58.60299999999995l-67.895 1.03 23.165 22.472 44.73-23.502z"/><path fill="#749618" d="M1244.463 51.503999999999905l29.288-41.174-19.163-25.969-10.125 67.143z"/><path fill="#7DA820" d="M1244.463 51.503999999999905l10.125-67.143-25.97 19.163 15.845 47.98z"/><path fill="#7DA820" d="M1263.161 85.274l-9.334-36.466-23.991-1.591 33.325 38.057z"/><path fill="#749618" d="M1263.161 85.274l-33.325-38.057-1.59 23.991 34.915 14.066z"/><path fill="#8FCC2F" d="M1329.438 363.071l-62.899-7.763-17.226 36.633 80.125-28.87z"/><path fill="#7DA820" d="M1329.438 363.071l-80.125 28.87 36.633 17.227 43.492-46.097z"/><path stroke-linecap="round" stroke-miterlimit="10" stroke="#F9F5CA" stroke-width="6" d="M1189.627 928.025l-192.481-51.872M997.146 891.4l192.982 23.599" fill="none"/></g></svg>