<?xml version="1.0" encoding="utf-8"?>
<!-- Generator: Adobe Illustrator 21.0.2, SVG Export Plug-In . SVG Version: 6.00 Build 0)  -->
<svg version="1.1" id="Lager_1" xmlns="http://www.w3.org/2000/svg" xmlns:xlink="http://www.w3.org/1999/xlink" x="0px" y="0px"
	 width="1440px" height="960px" viewBox="0 0 1440 960" style="enable-background:new 0 0 1440 960;" xml:space="preserve">
<style type="text/css">
	.st0{fill:#FFFFFF;}
	.st1{fill:#1B2B34;}
	.st2{fill:none;stroke:#CDCCCC;stroke-width:2;stroke-linecap:round;stroke-miterlimit:10;}
	.st3{opacity:0.59;}
	.st4{fill:#DDDDDD;}
	.st5{fill:none;stroke:#CDCCCC;stroke-width:2;stroke-miterlimit:10;}
</style>
<rect class="st0" width="1440" height="960"/>
<g>
	<path class="st1" d="M673.9,604.9h-31.6c-15.5,0-19.5-3.3-20.4-12.8l-3-21.9h-66l-10.6,21.9c-4.6,9.4-9.1,12.8-24.3,12.8h-33.5
		c-9.4,0-10.3-4.3-5.8-12.5l104-192.8c4.6-8.8,8.8-10.6,17.6-10.6h34.4c8.8,0,12.8,2.1,14.3,10l36.1,193.5
		C686.7,600.7,683.3,604.9,673.9,604.9z M609.4,444.4h-2.7c0,0-4,21.9-13.7,42.3l-17.3,35.8h37.7l-4.9-35.6
		C606.1,466.3,609.4,444.4,609.4,444.4z"/>
	<path class="st1" d="M896.8,448.7c-4,20.4-12.5,31.9-29.8,42.6l-0.3,1.2c17.9,8.5,25.5,28.3,21,54.7c-7,39.2-41,57.8-83.9,57.8
		h-91.3c-9.7,0-12.5-3.3-10.6-12.8l33.4-190.3c1.8-9.7,5.5-13.1,15.2-13.1h89.1C881.9,388.8,903.1,412.5,896.8,448.7z M809.8,520.1
		h-35l-6.4,35.6h35.3c12.8,0,20.4-5.2,22.5-17.9C828.6,525.6,822.9,520.1,809.8,520.1z M818.3,437.7h-29.2l-5.8,33.4h29.2
		c12.2,0,19.5-4.6,21.6-16.4C836.3,442.9,830.8,437.7,818.3,437.7z"/>
	<path class="st1" d="M1026.6,384.5c46.8,0,69.3,20.1,75.7,54.1c1.8,8.8-0.6,13.4-10.3,16.4l-31.3,10.6c-9.7,3-13.1,1.2-15.2-8.2
		c-2.7-13.7-10.6-19.8-27.7-19.8c-24,0-35.3,10.3-38.9,31.6l-10,55.3c-3.6,21.3,4,31.6,28,31.6c17,0,27.7-6.7,35-19.8
		c5.5-9.4,9.4-11.6,17.9-8.2l31.6,12.2c8.5,3,10,7.6,5.2,16.4c-18.5,34.1-51.4,52.6-98.2,52.6c-59.9,0-87.9-35.6-79.1-87.9l10-56.2
		C928.4,413.1,966.7,384.5,1026.6,384.5z"/>
	<line class="st2" x1="607.1" y1="444.5" x2="441.1" y2="354.5"/>
	<g>
		<circle class="st0" cx="441.1" cy="354.5" r="96"/>
	</g>
	<g>
		<path class="st1" d="M441.1,258.5c-53,0-96,43-96,96c0,36.3,20.1,67.8,49.8,84.2l11.4-23.6c20-41.9,28.2-87,28.2-87h5.6
			c0,0-6.9,45.1-1.9,87.6l4.8,34.8c52.1-1,94.1-43.6,94.1-96C537.1,301.5,494.2,258.5,441.1,258.5z"/>
	</g>
	<g class="st3">
		<path class="st4" d="M441.1,258.5c53,0,96,43,96,96s-43,96-96,96s-96-43-96-96S388.1,258.5,441.1,258.5 M441.1,250.5
			c-57.3,0-104,46.7-104,104s46.7,104,104,104s104-46.7,104-104S498.5,250.5,441.1,250.5L441.1,250.5z"/>
	</g>
	<circle class="st5" cx="441.1" cy="354.5" r="104"/>
</g>
</svg>
