<?xml version="1.0" encoding="UTF-8"?>
<svg width="56px" height="75px" viewBox="0 0 56 75" version="1.1" xmlns="http://www.w3.org/2000/svg" xmlns:xlink="http://www.w3.org/1999/xlink">
    <!-- Generator: Sketch 44 (41411) - http://www.bohemiancoding.com/sketch -->
    <title>Page 1</title>
    <desc>Created with Sketch.</desc>
    <defs></defs>
    <g id="Desktop" stroke="none" stroke-width="1" fill="none" fill-rule="evenodd">
        <g id="Contact" transform="translate(-774.000000, -4085.000000)" fill="#092A4F">
            <path d="M774,4112.61718 C774,4108.89321 774.729159,4105.31251 776.1875,4101.875 C777.515632,4098.61977 779.481758,4095.67709 782.085938,4093.04687 C784.61199,4090.52082 787.54165,4088.56771 790.875,4087.1875 C794.26043,4085.72916 797.84113,4085 801.61719,4085 C805.47137,4085 809.06509,4085.72916 812.39844,4087.1875 C815.70575,4088.56771 818.6354,4090.52082 821.1875,4093.04687 C823.79168,4095.65105 825.77083,4098.59373 827.125,4101.875 C828.58334,4105.31251 829.3125,4108.89321 829.3125,4112.61718 C829.3125,4116.34116 828.58334,4119.92186 827.125,4123.35937 C826.1875,4125.46876 825.22396,4127.21353 824.23438,4128.59375 L805.95312,4156.36719 C804.7552,4158.19011 803.32292,4159.10156 801.65625,4159.10156 C799.98958,4159.10156 798.54428,4158.19011 797.32031,4156.36719 L779.078125,4128.59375 C777.880202,4126.92707 776.91667,4125.1823 776.1875,4123.35937 C774.729159,4119.92186 774,4116.34116 774,4112.61718 Z M791.38281,4112.61718 C791.38281,4115.48178 792.37239,4117.90363 794.35156,4119.88281 C796.38282,4121.91407 798.80467,4122.92968 801.61719,4122.92968 C804.50783,4122.92968 806.9427,4121.91407 808.92188,4119.88281 C810.92709,4117.92968 811.92969,4115.50782 811.92969,4112.61718 C811.92969,4109.77863 810.92709,4107.35678 808.92188,4105.35156 C806.9427,4103.3203 804.50783,4102.30468 801.61719,4102.30468 C798.80467,4102.30468 796.38282,4103.3203 794.35156,4105.35156 C792.37239,4107.38282 791.38281,4109.80467 791.38281,4112.61718 Z" id="Page-1"></path>
        </g>
    </g>
</svg>