<?xml version="1.0" encoding="UTF-8"?>
<svg width="523px" height="343px" viewBox="0 0 523 343" version="1.1" xmlns="http://www.w3.org/2000/svg" xmlns:xlink="http://www.w3.org/1999/xlink">
    <!-- Generator: Sketch 46.1 (44463) - http://www.bohemiancoding.com/sketch -->
    <title>atioki-logo</title>
    <desc>Created with Sketch.</desc>
    <defs>
        <polygon id="path-1" points="0.0183526736 0.0610858726 296.908815 0.0610858726 296.908815 148.822584 0.0183526736 148.822584"></polygon>
        <polygon id="path-3" points="6.79068534e-15 146.9858 6.79068534e-15 0.206152669 119.882765 0.206152669 119.882765 146.9858"></polygon>
    </defs>
    <g id="Desktop" stroke="none" stroke-width="1" fill="none" fill-rule="evenodd">
        <g id="Curiosity---Opinionated-e-commerce" transform="translate(-121.000000, -1452.000000)">
            <g id="atioki-logo" transform="translate(121.000000, 1452.000000)">
                <g id="Group-3" transform="translate(114.000000, 0.000000)">
                    <mask id="mask-2" fill="white">
                        <use xlink:href="#path-1"></use>
                    </mask>
                    <g id="Clip-2"></g>
                    <path d="M264.236639,86.4538449 C256.746283,85.3076593 249.879295,81.3866066 243.154603,78.1247036 C236.069209,74.689036 228.603671,72.0466593 221.220864,69.3275125 C213.255638,66.3929141 205.214301,63.6659252 197.073688,61.255097 C189.024492,58.871097 180.841273,56.9749584 172.770567,54.6640139 C164.671733,52.3448144 156.593167,49.9616399 148.357002,48.1657978 C140.142759,46.3757341 131.752716,45.2786648 123.390801,44.4511163 C106.050634,42.7345208 88.5727216,42.8150055 71.1829166,43.6029307 C69.0873706,43.6978615 66.9930656,43.8097147 64.8983469,43.9256953 C64.7233734,43.9347756 64.5690823,43.9760499 64.4305099,44.0342465 C64.4780795,43.7692659 64.5318539,43.5046981 64.5740461,43.2393047 C64.6228567,42.9301607 64.6588442,42.6197784 64.7026909,42.3102216 C81.6337592,42.0060305 98.5400085,40.5940388 115.481418,41.0616759 C132.894387,41.5433463 150.14107,44.8518892 166.974931,49.1654598 C183.477872,53.3944183 199.504703,59.2726953 215.46411,65.181928 C231.69032,71.1902188 247.772167,77.5811219 263.767975,84.1734432 C263.945017,84.2460859 264.108822,84.2749778 264.261872,84.2749778 C264.258149,85.0009917 264.250703,85.727831 264.236639,86.4538449 M264.060425,91.1000859 C256.853418,88.669446 250.000495,85.3530609 242.97508,82.4535457 C235.246461,79.2630471 227.212156,76.6268615 219.24238,74.1078947 C202.949986,68.9572825 186.370933,64.2656399 169.781539,60.1695845 C137.113607,52.1025346 103.410312,48.1121413 69.782301,47.5611302 C67.7529389,47.5272853 65.7227494,47.5153158 63.6933873,47.5103629 C63.7922494,47.1054626 63.8857341,46.7001496 63.9771506,46.2931856 C64.1910071,46.5045097 64.4962801,46.6336981 64.8983469,46.6118227 C82.3046979,45.6472438 99.7532411,45.348831 117.153387,46.6048061 C134.622613,47.8661468 151.395254,51.308831 168.192713,56.1428698 C184.428851,60.8151136 200.744823,64.8327479 216.674447,70.5265291 C224.560666,73.3459723 232.585043,76.126205 240.175917,79.6712493 C246.83732,82.7825014 253.297691,86.432795 260.427759,88.4019889 C261.652988,88.7404377 262.899312,88.9591911 264.155151,89.1383213 C264.12785,89.792518 264.100549,90.4463019 264.060425,91.1000859 M263.593415,96.8512382 C249.102463,91.2379418 234.974694,84.740964 220.502355,79.0785512 C204.911924,72.9786316 188.93018,68.6254377 172.531064,65.2970831 C155.543326,61.8498587 138.347936,59.394867 121.189361,56.972482 C104.010931,54.5472078 86.7841032,52.2783629 69.4195308,51.840856 C67.1241923,51.7834848 64.8292675,51.7797701 62.5343428,51.7971053 C62.6890475,51.2642548 62.840443,50.7301662 62.9885294,50.1952521 C97.0024751,50.2493213 131.008975,53.925205 164.155912,61.5861163 C180.782949,65.4295734 197.271412,70.2648504 213.607653,75.1822632 C221.757366,77.6351911 229.757339,80.4719695 237.775098,83.3112244 C245.400717,86.011385 252.616411,89.7421634 260.180811,92.6028809 C261.391975,93.0618504 262.619272,93.475831 263.850705,93.8749529 C263.760943,94.8663601 263.678213,95.8585928 263.593415,96.8512382 M263.286074,100.598939 C262.218859,99.7012244 261.044096,98.9223795 259.800254,98.2413546 C260.984117,98.7114681 262.171703,99.1741524 263.360531,99.6335346 C263.334885,99.9550609 263.311307,100.277 263.286074,100.598939 M262.608103,110.203042 C255.51485,108.614809 248.849309,105.549784 242.260708,102.542543 C235.095893,99.2732105 227.844212,96.3881413 220.388188,93.8402825 C207.205194,89.3360249 193.732645,85.5008227 180.243964,81.9182188 C191.175053,84.414072 202.006039,87.2566288 212.738163,90.6518476 C220.798114,93.2021828 228.813805,95.8854211 236.888648,98.3862271 C244.217681,100.65631 251.388701,103.681299 258.806255,105.612521 C260.1411,105.960463 261.497042,106.184169 262.86167,106.357934 C262.773563,107.638673 262.688351,108.921064 262.608103,110.203042 M262.27677,115.910856 C260.246581,115.363972 258.304912,114.302399 256.496025,113.356806 C253.217029,111.643512 249.947134,110.056931 246.556039,108.56528 C238.842312,105.173363 231.111625,101.78805 223.311859,98.5975512 C215.902164,95.5659584 208.350588,92.883133 200.705527,90.4929418 C203.146056,91.2185429 205.58369,91.949097 208.016773,92.6879058 C216.170623,95.1643601 224.246706,97.8938255 232.179254,101.007554 C239.358546,103.825759 246.1821,107.469036 253.39738,110.217488 C256.343389,111.34056 259.359304,112.265928 262.443057,112.917235 C262.385146,113.915247 262.330545,114.912845 262.27677,115.910856 M261.673256,129.641557 C261.628996,129.742266 261.592181,129.85123 261.572326,129.978767 C261.331582,131.500961 261.175637,133.039665 261.082979,134.580845 C257.24018,133.403291 253.375043,132.296729 249.504116,131.240108 C233.573251,126.888978 217.28458,123.666698 200.89746,121.620734 C186.118607,119.77495 171.220624,118.902825 156.306922,118.78313 C156.12078,118.674166 155.897823,118.604825 155.62771,118.605651 C153.362155,118.614731 151.100322,118.680357 148.842212,118.79056 C132.612279,118.929654 116.382346,119.914044 100.282298,121.489482 C83.0418205,123.17636 65.8439486,125.652814 49.0051241,129.76538 C47.5871352,130.111258 46.1736965,130.478598 44.7614987,130.852543 C45.2458818,129.692737 45.6115475,128.461939 45.9267481,127.242285 C52.1728483,113.474025 53.2768776,98.1641717 55.7252662,83.3236066 C58.4392174,82.5786066 61.0452063,81.4889668 63.817482,80.9416704 C67.7355656,80.1681911 71.7930489,80.0191911 75.7752481,79.9428338 C83.6085196,79.7917701 91.4980475,80.3031579 99.3259416,80.6032216 C108.094474,80.9396066 116.856801,80.9379557 125.619542,80.9350665 C131.199667,81.2660859 136.778552,81.6148532 142.356609,81.9566039 C149.976851,82.9331524 157.6579,83.3652936 165.260769,84.5036371 C168.249797,84.9510499 171.223933,85.4888532 174.185247,86.0914571 C185.478692,88.738374 196.660453,91.8628338 207.637457,95.6002161 C215.768556,98.368892 223.68373,101.621715 231.57574,104.998773 C239.013976,108.181429 246.695853,111.106122 253.811029,114.966089 C256.369449,116.353729 259.189294,117.965075 262.13158,118.639496 C261.948747,122.309601 261.802315,125.976404 261.673256,129.641557 M246.407539,133.355825 C230.429518,129.725343 214.22399,127.099476 197.932837,125.353576 C167.290958,122.069798 136.826949,122.862676 106.365007,126.623997 C110.095294,126.101465 113.824754,125.570266 117.5538,125.022557 C127.844146,123.511507 138.155176,122.020269 148.541489,121.492784 C166.712677,121.345022 184.885933,122.254706 202.88918,124.558634 C219.359857,126.666097 235.718021,130.166565 251.701833,134.634914 C251.807727,134.664632 251.912794,134.696825 252.018688,134.726543 C250.153958,134.24446 248.284678,133.782188 246.407539,133.355825 M226.67524,132.954227 C209.482745,131.47826 192.448265,128.699679 175.180073,128.27538 C157.892439,127.85108 140.780606,128.026909 123.531442,129.296091 C109.806567,130.306072 96.1569765,131.147654 82.5251728,132.750745 C88.3485238,131.842299 94.1743567,130.952014 100.00929,130.127355 C133.931405,125.331288 167.875858,124.582986 201.934064,128.483402 C213.093488,129.761665 224.196241,131.535219 235.213369,133.733485 C232.367878,133.449931 229.520318,133.198158 226.67524,132.954227 M58.088443,130.430307 C72.6517843,127.320706 87.4637286,125.40682 102.277741,123.982446 C105.440502,123.678255 108.60988,123.407083 111.7805,123.153659 C101.107114,124.676679 90.4279375,126.116324 79.7243553,127.443704 C72.5045252,128.338529 65.2780767,129.279582 58.088443,130.430307 M71.9034932,131.715175 C63.5353734,133.034712 55.0911422,134.071108 46.7805196,135.712172 C38.6552118,137.315263 30.6573079,139.509402 22.5932202,141.382427 C21.7675767,141.574765 20.9419333,141.759673 20.1154625,141.943343 C22.606457,141.134368 25.1640489,140.503285 27.7088177,139.850327 C33.3402355,138.406967 38.9220155,136.858357 44.6088623,135.629211 C56.8723149,132.978579 69.3732021,131.406856 81.8165921,129.870629 C85.7934138,129.379465 89.7648581,128.866014 93.7358887,128.342244 C86.4502884,129.413723 79.1775113,130.568576 71.9034932,131.715175 M57.5349806,73.8016399 C57.7020948,73.8288809 57.8828595,73.8284681 58.0772745,73.7855429 C65.7934834,72.0734875 73.8186882,73.4173767 81.5489611,74.3584294 C89.8492425,75.3692355 98.2066074,75.3333269 106.551149,75.637518 C115.450394,75.9615208 124.386868,76.9388947 133.278667,78.2596704 C130.747963,78.2530665 128.216844,78.2518283 125.686967,78.2530665 C102.781152,76.8926676 79.8525865,75.8339834 56.9091297,76.8245651 C57.1130586,75.8166482 57.3273288,74.809144 57.5349806,73.8016399 M58.4532815,69.3712632 C58.6431464,69.4814654 58.8735489,69.5470914 59.1552439,69.5351219 C92.7774639,68.0789668 126.491514,71.9624598 159.257894,79.4120471 C166.398304,81.0361884 173.510171,82.8394598 180.593911,84.7595374 C178.460309,84.2658975 176.320089,83.8032133 174.172837,83.374374 C157.955727,79.6596925 141.607904,76.8043407 125.106617,74.6593186 C116.494858,73.5395485 107.952592,72.9575817 99.2729946,72.7367645 C91.1290726,72.5291551 83.1667425,71.8093324 75.0807313,70.8942825 C69.4340085,70.2549446 63.7062104,69.9330055 58.1074709,71.0420443 C58.2241199,70.4856676 58.3349779,69.9280526 58.4532815,69.3712632 M59.5887481,64.0984792 C59.8046728,64.3626343 60.1364194,64.5363989 60.5910196,64.5207147 C73.0828065,64.0881607 85.4835907,65.6091163 97.8277049,67.4264211 C89.5489333,66.848169 81.2540294,66.5460416 72.962021,66.5386122 C68.358521,66.5344848 63.7541937,66.6496399 59.1552439,66.8485817 C59.0965057,66.8514709 59.0439723,66.8638532 58.9893706,66.8725208 C59.1870948,65.9471524 59.3881283,65.0230222 59.5887481,64.0984792 M60.762684,58.722097 C61.0137689,58.8368393 61.3169737,58.8640803 61.6669208,58.7419086 C68.1206728,56.483795 75.4062731,57.5788006 82.0039751,58.5677313 C89.3230809,59.6648006 96.683138,60.521241 103.987766,61.6921911 C112.575947,63.0695125 120.986673,65.2335208 129.510325,66.9191607 C137.954969,68.5891163 146.438084,70.0580665 154.915407,71.5468283 C171.741408,74.5012382 188.565755,77.451108 204.959493,82.3264211 C219.283745,86.5855097 233.249777,91.9193795 247.524805,96.3254044 C252.611447,97.894651 258.757858,99.6739834 262.599417,103.626404 C255.282379,102.562355 248.595742,98.9273324 241.509521,96.9837285 C233.359394,94.7491413 225.352804,91.8847091 217.311053,89.2939252 C200.864781,83.9967895 184.280765,79.8412992 167.351351,76.3949003 C150.130315,72.8894792 132.780634,69.786482 115.374283,67.3446981 C99.1091896,65.0626454 82.889184,61.9918421 66.4164389,61.7557535 C64.473943,61.7280997 62.5314472,61.7668975 60.5910196,61.8345873 C60.3858497,61.8416039 60.2067397,61.887831 60.050794,61.9592355 C60.2869876,60.8799141 60.5244221,59.8014183 60.762684,58.722097 M61.5630948,55.1217452 C61.6247286,54.9100083 61.685535,54.699097 61.7475823,54.4877729 C79.3305614,54.3276288 96.8101283,56.3013629 114.204483,58.6882521 C131.412283,61.048313 148.62546,63.5243546 165.702546,66.7008199 C182.218724,69.7732742 198.502846,73.756651 214.274042,79.5709529 C226.644216,84.132169 238.690503,89.4974072 250.850957,94.5811551 C245.552113,92.774169 240.118006,91.4240886 234.843567,89.5337285 C218.803912,83.7854654 202.646368,78.1911551 185.948184,74.6523019 C169.142865,71.0911607 152.155127,68.4739612 135.275765,65.3016233 C126.773209,63.7026593 118.380684,61.6137701 109.881437,60.008615 C102.203284,58.5578255 94.4357829,57.8574017 86.7299152,56.6125706 C78.5880614,55.2975734 69.4290447,53.3713047 61.3628887,56.0227618 C61.4290726,55.7222853 61.4964974,55.4222216 61.5630948,55.1217452 M68.9037104,27.98641 C86.070145,28.1915429 103.226238,27.2570942 120.393086,27.5162964 C137.651351,27.7775623 154.88521,29.771108 171.78691,33.2509391 C188.285301,36.6469834 204.410581,41.4880388 220.078365,47.6440914 C227.891781,50.714482 235.591858,54.0642992 243.213341,57.5825152 C250.453854,60.924903 256.833563,65.8043435 264.074075,69.1421911 C264.052566,70.0650831 264.042638,70.9830222 264.05422,71.8935319 C263.401068,71.167518 262.04885,70.7671579 260.908833,70.4448061 C260.187015,70.1402022 259.451134,69.864903 258.694983,69.6271634 C258.548965,69.5817618 258.414116,69.5677285 258.28423,69.5660776 C254.627159,68.1743102 251.149198,66.3417341 247.724598,64.4654072 C240.333103,60.4151662 232.712447,56.9477175 224.962319,53.6371108 C209.646137,47.0947313 194.032127,41.7955319 177.783993,38.1002493 C146.117506,30.8978947 113.303969,27.9344044 80.8610628,29.4656787 C76.7311909,29.6604931 72.6066965,29.9535402 68.4884068,30.314277 C68.3308065,30.3278975 68.1930614,30.368759 68.0648302,30.4211773 C68.3403205,29.6084875 68.6211882,28.7974488 68.9037104,27.98641 M70.4524124,23.5915291 C87.0215377,22.7759501 103.596868,21.8489307 120.192053,22.3920997 C137.660038,22.9653989 155.087898,25.4794127 172.225791,28.8048781 C188.175684,31.8992078 203.890624,35.8276898 219.035556,41.7451773 C233.425578,47.3663158 247.416843,54.3309307 260.373158,62.7467479 C261.529307,63.4975263 262.670151,64.2722438 263.805617,65.0535651 C263.92723,65.1377645 264.047602,65.1893573 264.166733,65.2273296 C264.161769,65.5542216 264.155978,65.8811136 264.148946,66.2080055 C257.429631,62.9089557 251.374223,58.4199695 244.572178,55.262903 C237.056589,51.7748172 229.441724,48.4992936 221.744543,45.4297285 C205.779346,39.0627645 189.32811,34.1878643 172.502522,30.6601551 C155.731123,27.1444155 138.57172,25.2140194 121.442514,24.8487424 C104.24216,24.4822271 87.0455294,25.4699197 69.8443483,25.3077119 C70.0462091,24.7360637 70.2493107,24.16359 70.4524124,23.5915291 M72.1074221,18.9031884 C88.6004361,15.3160443 105.547223,15.1674571 122.347164,15.7312632 C139.161584,16.2958947 155.981794,17.3463241 172.565811,20.3106399 C189.286332,23.2997202 205.065387,28.9637839 220.396461,36.1772825 C227.499229,39.5204958 234.388967,43.2723241 241.427619,46.7401856 C247.733284,49.847723 254.199032,52.882205 259.617421,57.4331025 C260.21018,57.9316953 260.773983,58.4628947 261.320827,59.0097784 C262.042231,60.1369778 263.151224,60.9385235 264.114199,61.8671939 C264.116681,61.9225014 264.122472,61.9769834 264.125368,62.0327036 C238.795983,44.8456981 209.826074,34.0727091 180.025144,27.6636454 C163.439472,24.096313 146.542323,21.457651 129.615805,20.2029141 C112.379878,18.9267147 95.0748706,19.684097 77.8397703,20.5380609 C75.6999639,20.6441357 73.5609848,20.7506233 71.4215921,20.8562853 C71.6511673,20.2058033 71.8803288,19.5549086 72.1074221,18.9031884 M73.5394751,14.7150914 C73.6453692,14.7171551 73.7553999,14.7097258 73.8712216,14.6857867 C107.156318,7.82064266 141.610386,7.43431579 174.935192,14.2590111 C204.792793,20.3742022 234.736432,32.1047535 258.011222,52.1797175 C259.563646,53.5186537 261.056506,54.9219778 262.523719,56.350892 C262.472426,56.3360332 262.420307,56.3253019 262.366532,56.3166343 C258.131593,52.4298393 253.052811,49.5794404 247.938041,46.9725596 C241.293596,43.5855956 234.64212,40.1957424 227.966652,36.870277 C213.250674,29.5407978 198.063137,23.2468892 182.0119,19.5099197 C166.091376,15.8026676 149.656273,14.2788227 133.357674,13.5074072 C116.617298,12.7149418 99.7871603,12.1565014 83.1175182,14.2788227 C79.7648929,14.7051856 76.4337773,15.2702299 73.1241714,15.9487784 C73.2635712,15.5380997 73.4021436,15.1270083 73.5394751,14.7150914 M118.467137,5.95463435 C124.274769,5.37679501 130.198637,5.32520222 136.086517,5.39701939 C136.165524,5.41022715 136.245358,5.42095845 136.333052,5.42095845 C136.704508,5.41972022 137.076379,5.4155928 137.447836,5.4127036 C139.497053,5.44407202 141.54172,5.48658449 143.572737,5.5237313 C151.954093,5.67809695 160.329659,6.17586427 168.664273,7.07357895 C177.316983,8.00555125 185.960593,9.69820776 194.411029,12.1280222 C200.298082,14.5438033 206.076346,17.3178449 211.847577,19.8524958 C219.723454,24.2696648 228.072132,27.9760914 235.408612,33.2067756 C220.935446,25.1455042 205.160113,19.235446 189.352929,14.9321939 C163.449814,7.88172853 136.456733,5.47131302 109.708946,7.16438227 C112.611521,6.67610803 115.525678,6.24685596 118.467137,5.95463435 M66.8677299,34.0607396 C67.796372,33.726831 68.6625531,33.2228726 69.6536561,33.0689197 C69.8203567,33.0429169 69.9680294,32.9719252 70.0970879,32.8749307 C102.295528,30.2209972 134.889417,32.3738615 166.5861,38.4886399 C182.96412,41.6490083 198.859411,46.1033241 214.392346,52.1842576 C222.538749,55.3726925 230.591669,58.8624294 238.494433,62.6121939 C245.535567,65.9529307 251.998006,70.2929169 259.425901,72.8213767 C259.593429,72.8783352 259.835414,72.9451994 260.106354,73.0194931 C260.608524,73.2382465 261.102007,73.4722715 261.586804,73.7240443 C261.744818,73.92959 261.983493,74.0872576 262.332613,74.1442161 C262.346263,74.1462798 262.360327,74.149169 262.374805,74.1512327 C262.97046,74.4867922 263.555773,74.8434017 264.1324,75.21941 L264.138605,75.4699446 C248.857582,70.0200942 234.280591,62.8495208 219.369371,56.499892 C204.282763,50.0755568 188.74652,45.175892 172.757744,41.5334404 C156.377656,37.8014238 139.748552,35.6592909 123.051195,33.9492992 C114.402208,33.0639668 105.698619,32.3916094 96.9983386,32.4716814 C88.9582425,32.5463878 81.0256951,34.4115706 73.024482,35.0158255 C70.8615113,35.1792715 68.6948177,35.2085762 66.5322606,35.1037396 C66.6414639,34.7549723 66.7560447,34.4082687 66.8677299,34.0607396 M264.254013,81.488554 C248.333489,74.9300776 232.324444,68.5854017 216.180137,62.5915568 C199.89312,56.5440554 183.533301,50.6348227 166.688272,46.3187756 C150.286261,42.1154072 133.466878,39.0441911 116.520504,38.4098061 C99.4070169,37.7684044 82.3009751,39.2819307 65.1970015,39.6133629 C65.3707341,38.9876454 65.5481896,38.3631662 65.7314361,37.7411634 C73.3624333,38.2054986 80.9305558,36.7815374 88.4796506,35.8347064 C96.8461157,34.7855152 105.241123,35.1772078 113.62827,35.7926066 C130.870403,37.0572493 148.152245,39.2216704 165.099859,42.6350499 C181.393908,45.9159391 197.438527,50.4651856 212.856053,56.6810859 C228.089092,62.8226925 242.794315,70.193446 258.12332,76.1109335 C260.137791,76.8885402 262.168394,77.6248726 264.205616,78.3418061 C264.227539,79.3909972 264.243671,80.4397756 264.254013,81.488554 M296.050386,145.318338 C295.899404,144.820158 295.490305,144.407416 294.817298,144.395033 C287.230561,144.255114 280.019004,141.050169 272.989039,138.524186 C270.313971,137.562909 267.617807,136.65405 264.907992,135.783576 C265.925155,132.801512 266.090201,129.534244 266.404988,126.42877 C266.887716,121.662834 267.12391,116.966651 267.193816,112.173474 C267.352658,101.246119 269.851511,90.5441219 270.084809,79.6489612 C270.198149,74.3555402 269.416353,69.0691357 268.725559,63.8347368 C268.395467,61.3298033 268.050483,58.9854266 267.191334,56.7925263 C267.224013,56.4569668 267.141697,56.1028338 266.872825,55.7817202 C266.779754,55.671518 266.683373,55.5666814 266.590302,55.456892 C266.165898,54.6293435 265.650078,53.8224321 265.010163,53.0386343 C260.227139,47.1793435 254.472454,41.6919335 248.204431,37.2727008 C246.069174,35.3427175 243.744467,33.6331385 241.361848,31.9999169 C237.487198,28.4404266 232.882457,25.5900277 228.705843,22.4705208 C222.485389,17.823867 216.178068,13.813662 208.97313,10.862554 C195.332226,5.27608587 180.668781,2.17061219 166.029329,0.725601108 C150.459166,-0.811864266 134.924163,0.527484765 119.470236,2.60935734 C111.427658,3.69280609 103.381357,4.90255402 95.4194403,6.47262604 C95.2878999,6.49780332 95.1571868,6.53040997 95.0256464,6.55847645 C88.1388038,7.25766205 81.1535127,7.47311357 74.9483636,10.526169 C74.4006923,10.6780582 73.8559166,10.838615 73.3169319,11.0181579 C73.1601589,11.0354931 72.9992494,11.0747036 72.8350308,11.1564266 C72.7944932,11.176651 72.7585057,11.2014155 72.7192091,11.2224654 C72.2633678,11.3842604 71.8095948,11.5518338 71.3607857,11.7375679 C71.0968776,11.8469446 70.9045308,12.014518 70.7626492,12.2080942 C69.2933678,13.0455485 68.2815823,14.5334848 67.5407369,16.1629917 C65.2338163,19.8673546 64.2563636,24.5924294 63.6102439,28.7326482 C63.044372,32.3548753 62.7415809,36.0113601 62.3432369,39.6529861 C62.3345503,39.7351219 62.3208999,39.8147812 62.3113859,39.8965042 C62.0495461,40.8850222 61.7972202,41.8772548 61.5659904,42.8756787 C60.7812982,46.2564515 60.0429347,49.6479557 59.3182216,53.042349 C59.2975391,53.1195319 59.2752021,53.1963019 59.254106,53.273072 C55.8365377,65.6091163 53.4907341,78.0334875 50.945138,90.563108 C48.8442146,100.904781 46.5099932,111.197751 44.0252035,121.454399 C42.8959416,125.053925 41.6583038,128.616717 40.1981227,132.099438 C34.5038302,133.695925 28.8401478,135.417061 23.1657104,137.060601 C18.1551798,138.512629 12.4348274,139.399199 7.5938929,141.720463 C4.54860877,142.349482 -2.02303329,144.009119 0.639625487,147.382463 C1.82514359,148.884019 4.39679958,148.819219 6.1080656,148.822521 C6.72274805,148.824172 7.33494861,148.793216 7.94714916,148.750704 C10.1316297,148.794042 12.3649208,148.466737 14.3665684,148.141083 C19.830872,147.252449 25.1173065,145.494166 30.4492425,144.053283 C37.5846882,142.12495 45.1288191,141.332072 52.4090419,140.077335 C61.0203873,138.591875 69.6395921,137.154294 78.292716,135.930512 C95.6634932,133.473044 113.189802,132.679341 130.678469,131.468767 C147.889164,130.27718 165.223127,130.450945 182.454918,131.206676 C190.490878,131.558745 198.370478,132.676864 206.336117,133.689734 C214.109823,134.677839 221.935649,135.218945 229.739552,135.906986 C237.755242,136.613188 245.760178,137.493568 253.650534,139.106565 C259.794463,140.36254 265.856903,141.954488 272.038474,142.965706 C279.778674,145.103712 287.570995,147.010994 295.625155,147.887247 C297.189989,148.057709 297.314911,145.864809 296.050386,145.318338" id="Fill-1" fill="#1D1D1B" mask="url(#mask-2)"></path>
                </g>
                <g id="Group-6" transform="translate(0.000000, 193.000000)">
                    <mask id="mask-4" fill="white">
                        <use xlink:href="#path-3"></use>
                    </mask>
                    <g id="Clip-5"></g>
                    <path d="M104.833448,102.079897 C104.844621,102.001855 104.854552,101.923813 104.864483,101.845771 C105.201724,103.002363 105.538552,104.159782 105.875793,105.3172 C105.537724,104.235346 105.186828,103.156796 104.833448,102.079897 M65.7262759,74.7729952 C62.5044828,74.779189 59.2793793,74.542998 56.055931,74.5112031 C54.5248966,74.4963379 52.9930345,74.5000542 51.462,74.5132677 C52.2602069,71.7888126 53.0215862,69.0536216 53.691931,66.2928295 C54.7293103,62.0228098 55.3388276,57.6788772 56.1461379,53.3638492 C56.3050345,52.509102 56.4755172,51.6576581 56.6509655,50.8058014 C57.5228276,47.8914025 58.3123448,44.9514025 58.995931,41.9812593 C59.2992414,40.6615626 59.574,39.3356722 59.826,38.0060654 C59.864069,37.8689756 59.9004828,37.7335374 59.9397931,37.5968604 C60.2968966,39.1172368 60.6916552,40.6305935 61.0946897,42.1427115 C62.1883448,46.2421947 63.1471034,50.372234 64.1091724,54.5047508 C65.6658621,61.1982059 67.196069,67.8970289 68.646,74.6140205 C67.6802069,74.7106441 66.7094483,74.7717565 65.7262759,74.7729952 M67.2556552,1.92128174 C67.203931,1.95059916 67.1542759,1.98074242 67.1037931,2.01047275 C65.6882069,2.06580421 64.2676552,2.13806545 62.8367586,2.18761601 C62.3207586,2.20578455 61.8047586,2.20124242 61.29,2.1834868 C63.2795172,2.12278736 65.2682069,2.0307059 67.2556552,1.92128174 M41.8789655,9.05986601 C41.8508276,9.05036882 41.8235172,9.04045871 41.7949655,9.03385197 C41.8466897,8.86496713 41.9054483,8.69814691 41.9613103,8.53008792 C41.9348276,8.70681826 41.9066897,8.8835486 41.8789655,9.05986601 M36.2642069,32.2751301 C35.9923448,33.236411 35.7217241,34.1972789 35.4523448,35.1589728 C35.4366207,35.1593857 35.4213103,35.1581469 35.4055862,35.1581469 C35.7891724,33.6992958 36.1673793,32.2396188 36.5385517,30.7766385 C36.6192414,30.458689 36.6966207,30.1399138 36.776069,29.8223772 C36.6072414,30.6403744 36.4367586,31.4579587 36.2642069,32.2751301 M118.748069,143.312571 C118.663241,143.080509 118.576759,142.84886 118.498552,142.620928 C118.357448,142.206355 118.181586,141.827706 117.995379,141.45649 C113.626552,126.455883 109.258552,111.454863 104.88931,96.4538435 C103.515517,90.398352 101.694,84.4572396 99.9192414,78.5091076 C98.672069,74.3286919 97.5163448,70.0925317 96.1251724,65.9455626 C95.5984138,63.6732565 94.9073793,61.4430683 94.136069,59.2388941 C94.1658621,59.1984278 94.179931,59.1459868 94.1596552,59.0823969 C89.8433793,45.489852 85.755931,31.8258716 81.8948276,18.0974756 C81.6345517,17.0606301 81.363931,16.0250233 81.0746897,14.9931329 C80.1068276,10.7631666 79.0591034,6.54971713 77.9331724,2.35691376 C77.9033793,2.11163848 77.8682069,1.86718904 77.8446207,1.62026208 C77.8665517,0.988905337 77.9290345,0.400905337 77.1862759,0.323276124 C75.8766207,0.186599157 74.5057241,0.232846348 73.1522069,0.303042978 C73.1265517,0.299739607 73.1017241,0.295610393 73.076069,0.293132865 C71.7258621,0.139526124 70.3466897,0.221697472 68.9944138,0.293958708 C66.1806207,0.445087921 63.3701379,0.59786882 60.5526207,0.679214326 C56.7134483,0.789877247 52.8717931,0.811762079 49.0309655,0.808045787 C48.6411724,0.742391292 48.2397931,0.741978371 47.8537241,0.806807022 C46.4865517,0.804329494 45.1193793,0.798961517 43.7522069,0.793180618 C43.3756552,0.67136882 42.9291724,0.800200281 42.8191034,1.29818343 C42.3026897,3.64275084 41.2396552,5.82627893 40.4865517,8.09941096 C39.7210345,10.4097059 39.1557931,12.7831778 38.6203448,15.1541722 C38.3762069,16.2339615 38.1328966,17.3116862 37.8891724,18.3902368 C34.2842069,29.0588857 30.651931,39.7221666 27.2468276,50.4527537 C25.1248966,57.1358857 23.4382759,63.9049053 21.9022759,70.7424699 C21.5451724,72.3318042 21.1847586,73.9215514 20.8094483,75.5067565 C17.7295862,85.7645486 14.5181379,95.984352 11.3658621,106.219846 C7.386,119.141394 3.05565517,132.084414 0.0208965517,145.267341 C-0.0113793103,145.406908 -0.00393103448,145.532436 0.0266896552,145.646403 C0.0593793103,145.995321 0.298965517,146.300057 0.754137931,146.255462 C3.28862069,146.011838 5.82062069,145.956919 8.36296552,146.087403 C10.8312414,146.213756 13.2465517,146.709675 15.7011724,146.930175 C18.0916552,147.144481 20.564069,146.680771 22.9487586,146.532532 C24.4570345,146.439212 25.9677931,146.3909 27.4793793,146.374383 C27.8931724,146.442515 28.314,146.461096 28.7431034,146.405765 C28.8142759,146.396268 28.8854483,146.383467 28.9562069,146.369015 C29.7622759,146.372318 30.5691724,146.381403 31.3752414,146.40081 C31.8142759,146.411546 32.0571724,146.115894 32.1051724,145.781841 C32.1974483,145.694301 32.2711034,145.578683 32.31,145.421773 C34.4886207,136.68188 36.6684828,127.941161 38.8471034,119.200855 C40.3388276,113.216386 42.4355172,107.464391 44.6534483,101.740063 L49.4232414,101.835035 C52.6541379,101.89945 55.8854483,101.963866 59.115931,102.027869 C64.3905517,102.132751 69.6635172,102.220703 74.9389655,102.205838 C75.3949655,103.885189 75.5414483,105.614504 75.7802069,107.335973 C76.0694483,109.422877 76.9177241,111.2579 77.6749655,113.199869 C79.1203448,116.904599 79.7530345,120.883509 80.7068276,124.72822 C81.4582759,127.756998 82.4675172,130.713515 83.526,133.649386 C84.0709655,135.436509 84.728069,137.191838 85.2018621,139.003324 C85.7133103,140.963874 86.2301379,142.900476 87.1648966,144.706181 C87.1673793,144.782571 87.1797931,144.862265 87.212069,144.94774 C87.2894483,145.157091 87.3676552,145.366029 87.4450345,145.574967 C87.5977241,145.988301 87.9486207,146.193936 88.386,146.108049 C88.4294483,146.09979 88.4724828,146.094009 88.5155172,146.085751 C89.0542759,146.302947 89.7386897,146.374383 90.5691724,146.423108 C92.0964828,146.511473 93.644069,146.309141 95.166,146.208801 C96.9527586,146.091119 98.6993793,146.34011 100.481172,146.362821 C101.961724,146.380577 103.455103,146.030832 104.936897,145.959397 C106.678138,145.874335 108.432621,145.907782 110.175103,145.907782 C110.599655,145.908195 111.023793,145.917279 111.448345,145.922234 C111.456621,145.923886 111.46531,145.924712 111.472759,145.92595 C113.233448,146.174529 114.976759,146.324006 116.716345,146.144799 C117.605586,146.209627 118.492759,146.23399 119.37,146.037026 C119.41469,146.026703 119.444483,146.000276 119.466414,145.968894 C119.540897,145.970133 119.614966,145.974262 119.689448,145.973849 C119.807793,145.97261 119.914552,145.851212 119.874,145.731877 C119.580621,144.885388 119.204069,144.081844 118.748069,143.312571" id="Fill-4" fill="#1D1D1B" mask="url(#mask-4)"></path>
                </g>
                <path d="M153.085789,261.06486 C153.084133,261.256378 153.080408,261.447483 153.079167,261.639414 C153.063024,261.204784 153.044398,260.770566 153.025772,260.336349 C153.045226,260.533233 153.065507,260.729704 153.085789,260.926588 L153.085789,261.06486 Z M192.260733,193.740517 C177.349618,193.539919 162.435606,193.261722 147.522836,193.160185 C144.721078,193.141198 141.923873,193.164725 139.126254,193.218383 C137.973928,193.171329 136.824499,193.138722 135.67921,193.164312 C131.148963,192.747018 126.544212,193.227464 122.009412,193.470576 C115.728739,193.806971 109.4253,193.913049 103.175256,193.105288 C102.939741,193.075157 102.763002,193.142024 102.64214,193.26131 C102.142964,193.221685 101.802316,193.609261 101.741471,194.001378 C101.647928,194.114885 101.583358,194.258937 101.567629,194.436834 C100.789478,203.090639 102.114405,211.796864 101.003883,220.433334 C100.954214,220.81802 101.390476,221.235315 101.769617,221.196929 C106.874786,220.677684 112.060253,221.584505 117.192739,221.409497 C121.951051,221.247285 126.709362,221.068975 131.467674,220.897269 C131.986717,227.056801 131.71602,233.245225 131.444909,239.41879 C131.124128,246.703902 130.943249,253.993967 130.866262,261.285684 C130.723049,275.028749 130.955253,288.773052 131.209808,302.51364 C131.160966,305.650573 131.17297,308.785028 131.114608,311.885225 C131.032654,316.282709 130.9507,320.680605 130.867504,325.078089 C130.788447,329.340189 130.762785,333.594034 131.441183,337.811144 C131.259477,338.259395 131.483816,338.894211 132.117927,338.904943 C136.93998,338.986668 141.760792,338.914849 146.578293,338.689072 C151.449188,338.460407 156.219089,338.209865 161.076325,338.834775 C161.097849,338.837664 161.116061,338.8356 161.136342,338.836426 C161.256376,338.878939 161.37641,338.916913 161.495616,338.963554 C161.928153,339.130719 162.522114,338.694851 162.464994,338.226375 C160.952152,325.860671 162.001829,313.408701 161.743549,300.99553 C161.755138,300.93857 161.762588,300.879134 161.760933,300.813506 C161.123097,274.100052 161.409523,247.369262 162.613588,220.676446 C163.761361,220.669429 164.907064,220.728866 165.981989,220.750742 C168.945172,220.80894 171.903802,221.010777 174.86326,221.156066 C177.620316,221.292275 180.378199,221.362443 183.137739,221.26751 C186.007792,221.168449 189.079006,220.345004 191.884075,221.20766 C192.352207,221.351299 192.867526,220.958357 192.853039,220.470894 C192.602209,211.922341 192.632011,203.370073 192.942029,194.823997 C193.118355,194.375746 192.892774,193.74836 192.260733,193.740517 L192.260733,193.740517 Z" id="Fill-7" fill="#1D1D1B"></path>
                <path d="M238.895272,195.353116 C238.786018,194.937312 238.364671,194.763783 237.99527,194.832532 C237.908692,194.711601 237.782948,194.611791 237.604431,194.557538 C235.56943,193.938386 233.942171,193.840233 231.866767,194.236573 C229.3057,194.725268 226.568178,194.149188 223.986497,194.109015 C221.543753,194.070914 219.094826,194.146703 216.652082,194.174037 C215.293216,194.188946 213.933937,194.207583 212.575483,194.228704 C211.196828,194.25024 209.735304,194.427495 208.377263,194.132622 C208.081247,194.068429 207.838416,194.165754 207.670619,194.336383 C207.316885,194.366201 206.989537,194.609306 207.000256,195.070667 C207.851609,235.729657 208.695953,276.401072 208.014046,317.070001 C207.890775,324.388826 207.714321,331.706823 207.483445,339.023164 C207.480559,339.091912 207.487156,339.154035 207.499112,339.212844 C207.486743,339.60587 207.727513,339.985644 208.228843,339.940088 C213.044655,339.50399 217.771415,340.680584 222.55878,340.968003 C227.648345,341.272816 232.517753,339.269996 237.585054,340.438722 C238.305715,340.604795 238.71387,339.810045 238.462793,339.311825 C237.401179,319.110923 237.38881,298.876475 237.712448,278.655694 C237.875298,268.51155 238.123076,258.367821 238.363022,248.225748 C238.572871,239.383272 239.144287,230.442228 238.782308,221.585257 C238.946807,213.086524 238.996692,204.585306 238.92743,196.084502 C238.929903,196.079946 238.931552,196.074976 238.932789,196.071249 C239.04328,195.808265 239.008236,195.556049 238.895272,195.353116" id="Fill-9" fill="#1D1D1B"></path>
                <path d="M337.18699,283.409467 C335.310198,291.919408 332.248605,301.165115 326.659054,307.983254 C325.369094,309.557053 323.894796,310.923827 322.253066,312.072398 C322.171,312.112975 322.090584,312.156036 322.007281,312.195785 C319.567574,313.369199 316.923734,314.008076 314.220509,314.414671 C312.443928,314.194398 310.673532,313.902493 308.905611,313.574981 C306.710865,313.168385 304.496324,312.778351 302.337868,312.203652 C300.068066,311.599555 298.236637,310.360307 296.540472,308.765806 C290.442442,303.036615 286.296261,295.208611 284.244614,287.142115 C281.909655,277.963485 283.072186,268.170406 284.01285,258.868389 C284.892068,250.167985 286.749479,240.933872 290.583068,233.016848 C292.700697,228.642838 295.728061,224.811232 299.947648,222.338533 C303.224921,220.416519 306.983043,219.492777 310.751062,218.849759 C318.91847,219.173545 325.998403,224.292015 330.511201,230.914309 C335.512269,238.253321 337.686808,247.389304 338.676547,256.111239 C339.709588,265.213685 339.156983,274.473055 337.18699,283.409467 M365.380943,230.749103 C362.391106,222.88839 358.081205,215.604446 352.521346,209.533665 C350.454029,206.090436 347.905864,202.99211 344.486728,200.639071 C340.658087,198.003652 335.883422,196.450555 331.524858,194.962464 C330.040662,194.455669 328.542857,193.991106 327.03598,193.55884 C324.77855,192.656213 322.475757,191.855029 320.081001,191.54118 C319.424887,191.455472 318.773309,191.418622 318.12338,191.420278 C317.573662,191.313454 317.02312,191.208285 316.472578,191.109328 C316.301023,191.078688 316.138541,191.074962 315.986781,191.092766 C315.881621,191.078688 315.777286,191.063368 315.672539,191.051361 C314.356186,190.901889 313.051792,191.113882 311.74245,191.239339 C311.421197,191.173091 311.132111,191.204145 310.883439,191.303103 C310.38692,191.327531 309.888752,191.327117 309.388933,191.274947 C309.07098,191.24348 308.806225,191.29772 308.593431,191.411169 C307.055624,191.475347 305.505445,191.74158 303.953204,192.126231 C303.900418,192.139067 303.848869,192.153972 303.796496,192.166808 C296.601506,192.99946 289.505902,194.657311 283.044968,198.062447 C280.096783,199.615957 277.467789,201.578962 275.075919,203.809028 C273.305936,204.984512 271.548325,206.182355 269.962268,207.616205 C266.508491,210.73689 263.77475,214.656688 261.564745,218.73631 C259.274736,222.964989 257.604139,227.517039 256.143862,232.096003 C254.993703,234.673042 253.971797,237.305978 253.121034,240.003091 C250.283782,249.003266 249.865205,258.631967 250.031399,268.004373 C250.330383,284.929853 253.638585,302.487586 263.633712,316.486571 C264.77851,318.090181 266.007848,319.627958 267.288323,321.123088 C270.452189,325.305393 274.201238,329.073236 278.209681,332.391422 C279.52026,333.619904 280.899296,334.735765 282.559171,335.47567 C282.607833,335.504239 282.65732,335.531981 282.70557,335.560964 C283.53159,336.198599 284.428128,336.710777 285.419929,337.033321 C289.263416,338.932976 293.422381,340.262072 297.545881,341.153105 C298.046112,341.262 298.550054,341.358473 299.055646,341.449978 C302.558085,342.475991 306.268781,342.901218 309.9902,342.879274 C325.437139,344.014595 340.334773,337.039118 351.209942,326.309461 C363.168876,314.512387 369.274329,298.222885 371.2769,281.764865 C372.326024,273.140646 372.173027,264.388072 371.207619,255.764266 C370.252108,247.231138 368.435937,238.781647 365.380943,230.749103" id="Fill-11" fill="#1D1D1B"></path>
                <path d="M453.864509,287.135899 C452.252293,283.834348 450.544464,280.582575 448.741849,277.383485 C447.325802,274.544457 445.805077,271.765994 444.065927,269.110317 C442.820911,266.421455 441.59444,263.724711 440.377447,261.023819 C440.644089,260.621444 440.726513,260.104164 440.61895,259.651595 C446.074191,248.409562 452.574571,237.728781 459.553835,227.384003 C463.131454,222.080531 466.843837,216.86915 470.60279,211.695102 C472.558715,209.003336 474.531949,206.324014 476.515074,203.65216 C478.24598,201.320872 480.481323,198.960962 481.158025,196.052245 C481.923333,195.133004 481.574679,193.398228 480.087336,193.525577 C469.519325,194.42864 458.905569,192.419253 448.382891,194.193437 C448.23288,194.218741 448.101413,194.261468 447.983959,194.315809 C447.567717,194.451455 447.194748,194.748881 446.989511,195.242102 C444.988666,200.028293 441.088355,203.793198 438.54145,208.279475 C435.738205,213.21915 433.292268,218.381168 430.614308,223.391777 C426.146096,231.748738 421.498611,240.008216 416.69452,248.17353 C416.638884,237.357102 416.486399,226.54026 416.229236,215.725491 C416.20286,214.616678 416.168242,213.508279 416.138981,212.399466 C416.30589,209.681151 416.390375,206.959103 416.388726,204.232493 C416.388314,201.806626 416.299708,199.37993 416.159587,196.957797 C416.122496,196.321878 416.112606,195.627469 415.918909,195.072026 C415.861624,194.585027 415.618885,194.125407 415.203055,193.8985 C415.005237,193.69109 414.748074,193.557518 414.474426,193.484925 C414.370571,193.424776 414.248584,193.385783 414.10022,193.384539 C410.11048,193.345545 405.983916,193.016593 401.978515,193.321071 C400.367123,193.194136 398.752846,193.070935 397.14063,193.074668 C396.065407,193.077572 394.993069,193.269219 393.926501,193.38039 C392.597824,193.518525 391.258431,193.382464 389.934288,193.256359 C388.313005,193.101217 385.984523,192.488113 384.859021,193.981464 C384.428355,194.553086 384.653373,195.769753 384.677688,196.395716 C384.679337,196.426827 384.681397,196.457939 384.683046,196.48905 C384.665325,197.811911 384.64884,199.133942 384.631531,200.457632 C384.576307,202.601836 384.531386,204.750603 384.548695,206.895221 C384.076404,243.924115 383.700138,280.958402 384.338925,317.987296 C384.449373,324.407048 384.59444,330.824726 384.772064,337.241574 C384.397034,338.15003 384.844597,339.433483 386.11805,339.430579 C394.808851,339.404445 403.500064,339.378311 412.190865,339.351763 C413.012634,340.098439 414.752607,339.725101 414.821844,338.244609 C415.787442,317.609395 416.382957,296.958833 416.611272,276.303708 C421.382393,285.654992 426.198847,294.988854 430.781217,304.434302 C436.31641,315.845996 441.609276,327.382136 447.010942,338.858957 C447.402044,339.688597 448.176831,339.79728 448.812733,339.49778 C453.647321,339.114901 458.467897,339.674908 463.295066,339.926703 C465.873705,340.06069 468.433799,340.007178 471.006256,339.79728 C472.193576,339.699797 473.379247,339.598581 474.569452,339.538432 C475.160845,339.50898 475.751002,339.50898 476.342807,339.513543 C476.481692,339.514787 477.893205,339.624714 478.234441,339.517691 C478.252574,339.551291 478.274005,339.584062 478.294199,339.616833 C478.436792,339.611025 478.576089,339.613514 478.717034,339.611855 C479.33604,339.518935 479.945154,339.580329 480.635044,339.669515 C480.990292,339.579499 481.328643,339.455053 481.638558,339.276266 C481.89737,338.919106 482.03337,338.456997 481.992982,338.008991 C481.980206,337.87293 481.963309,337.73521 481.941879,337.597075 C471.949188,321.140342 464.01669,303.490172 453.864509,287.135899" id="Fill-13" fill="#1D1D1B"></path>
                <path d="M522.941222,337.24964 C520.457533,327.840833 520.793718,318.033045 520.888664,308.38037 C520.988093,298.203048 521.08793,288.024897 521.187766,277.84716 L521.788416,216.780741 C521.858505,209.656326 521.928187,202.53191 521.998276,195.40708 C522.001129,195.096439 521.929409,194.834738 521.805938,194.621146 C521.702842,193.960879 521.225256,193.386878 520.370737,193.419642 C511.197592,193.765951 502.024447,193.391855 492.859045,193.001584 C492.453586,192.984579 492.134924,193.105684 491.898984,193.308077 C491.437291,193.509641 491.110886,193.954658 491.185865,194.64686 C491.453183,197.114152 491.73028,199.579786 492.013898,202.04459 C491.501267,240.075896 490.789372,278.118816 491.101514,316.152611 C491.156118,322.739522 491.251065,329.32519 491.388391,335.910857 C491.260437,336.536701 491.139003,337.165448 491.030202,337.796683 C490.857016,338.804918 491.440143,339.687071 492.484148,339.739328 C502.022817,340.221672 511.577378,340.034624 521.090782,339.178184 C521.158019,339.172793 521.223219,339.161595 521.285566,339.148738 C522.222399,339.223391 523.259884,338.455706 522.941222,337.24964" id="Fill-15" fill="#1D1D1B"></path>
            </g>
        </g>
    </g>
</svg>