<?xml version="1.0" encoding="utf-8"?>
<!-- Generator: Adobe Illustrator 16.0.0, SVG Export Plug-In . SVG Version: 6.00 Build 0)  -->
<!DOCTYPE svg PUBLIC "-//W3C//DTD SVG 1.1//EN" "http://www.w3.org/Graphics/SVG/1.1/DTD/svg11.dtd">
<svg version="1.1" id="Layer_1" xmlns="http://www.w3.org/2000/svg" xmlns:xlink="http://www.w3.org/1999/xlink" x="0px" y="0px"
	 width="294.803px" height="288.739px" viewBox="0 0 294.803 288.739" enable-background="new 0 0 294.803 288.739"
	 xml:space="preserve">
<g>
	<circle fill="#232B40" cx="147.401" cy="144.37" r="142.919" stroke="#EFF1C9"/>
	<g>
		<g>
			<g>
				<path fill="#EFF1C9" d="M64.375,172.2c0,0,0,33.534,0,34.539c0,1.598-3.732,2.439-3.732,3.732c0,1.291,6.438,1.791,10.834,1.036
					c4.396-0.753,10.051-3.01,10.051-4.519c0-1.507-3.777-1.129-3.777-2.637c0-1.507,0-32.653,0-32.653s-2.538-1.257-6.477-1.257
					S64.375,172.2,64.375,172.2z"/>
				<path fill="#EFF1C9" d="M50.231,109.717c0,0,8.009-0.455,8.009,6.983c0,4.427-3.167,7.388-7.351,7.388
					c-4.215,0-7.185-2.481-7.185-7.731c0-14.672,16.21-27.476,37.275-27.476c17.674,0,29.186,8.809,29.186,24.668
					c0,15.356-15.57,26.352-15.57,26.352s26.133,11.003,26.133,35.507c0,36.92-29.458,47.104-43.179,47.104
					c-20.421,0-31.693-11.203-31.693-26.139c0-14.212,7.678-20.421,7.678-24.014c0-3.595-1.47-7.025-1.47-7.025s4.9,0.98,4.9,6.861
					c0,0,5.805-5.391,14.049-5.391c11.926,0,23.034,6.534,23.034,14.865c0,3.431-2.86,6.13-5.803,6.13
					c-2.45,0-5.448-1.74-5.448-4.845c0-6.12,4.404-6.769,6.583-6.021c0,0-4.807-7.597-17.468-7.597
					c-12.823,0-22.462,11.354-22.462,27.201c0,11.749,10.293,19.603,24.505,19.603c13.646,0,28.373-11.271,28.373-38.718
					c0-28.751-13.651-33.305-13.651-33.305l-10.893,8.803v12.487c0,0-2.451-0.602-6.045-0.602c-3.594,0-7,1.113-7,1.113
					s0.206-16.609,0.206-18.897c0-2.286-2.042-3.838-2.042-3.838s2.042-2.695,2.042-6.453c0-3.757-0.138-28.271-0.138-35.433
					c0-0.569-2.124,0.653-2.124-0.817c0-0.687,3.13-3.221,7.152-4.439c4.439-1.345,10.779-2.097,10.779-0.747
					c0,2.095-2.575,2.244-2.575,4.368s0,40.025,0,41.331c0,1.938,0.98,3.267,2.368,3.267c3.541,0,15.765-13.232,15.765-29.732
					c0-14.049-2.941-22.379-14.54-22.379C57.18,92.148,49.431,109.266,50.231,109.717z"/>
				<path fill="#EFF1C9" d="M147.875,104.458c-15.409,0-28.192,12.84-30.591,29.664c-0.267,1.866-3.156,5.732-3.156,5.732
					s2.889,3.856,3.153,5.717c2.394,16.832,15.18,29.681,30.594,29.681c15.415,0,28.202-12.849,30.594-29.681
					c0.264-1.86,3.152-5.717,3.152-5.717s-2.889-3.866-3.156-5.732C176.066,117.298,163.283,104.458,147.875,104.458z
					 M147.875,170.118c-8.767,0-13.865-10.566-15.453-24.546c-0.21-1.853,2.431-5.718,2.431-5.718s-2.64-3.877-2.429-5.732
					c1.592-13.972,6.689-24.529,15.451-24.529c8.762,0,13.86,10.557,15.45,24.529c0.213,1.857-2.428,5.732-2.428,5.732
					s2.641,3.865,2.43,5.718C161.74,159.552,156.641,170.118,147.875,170.118z"/>
				<path fill="#EFF1C9" d="M179.91,101.753c3.67,0,5.68,3.027,5.68,6.208c0,4.735-4.352,6.698-6.697,6.698
					c-3.49,0-6.531-2.512-6.531-6.698c0-5.927,10.697-17.08,31.418-17.08c17.248,0,35.275,9.021,35.275,27.644
					c0,19.674-20.205,29.139-20.205,29.139s30.912,9.544,30.912,33.322c0,31.314-23.711,39.762-38.393,39.762
					c-14.848,0-32.453-14.816-42.254-14.816c-5.357,0-11.051,1.514-11.051,1.514s4.102-5.929,7.785-5.929
					c-4.646-3.892-11.627-6.284-15.645-6.284c-6.154,0-7.966,3.17-7.966,7.271c0,4.104,4.772,9.462,4.772,9.462
					s-17.248-0.605-17.248-13.666c0-11.555,8.851-17.814,20.262-17.814c8.205,0,15.072,6.027,15.072,6.027s0.836-4.521,7.031-4.521
					c-2.512,2.513-3.287,6.335-2.512,7.847c0.873,1.699,15.072,21.794,38.014,21.794c9.998,0,21.936-7.368,21.936-30.979
					c0-14.737-7.031-31.058-21.266-31.058c-3.684,0-4.354,1.826-4.354,4.971c0,3.146,0,43.67,0,45.513
					c0,1.842,2.512,5.504,2.512,7.367c0,1.172-6.408,0.264-11.719-1.14c-4.955-1.308-9.381-3.383-9.381-5.056
					c0-1.676,1.316-1.533,2.57-2.789c1.256-1.255,1.949-2.739,1.949-6.256c0-3.516,0-42.298,0-45.681s-3.014-6.899-3.014-6.899
					s3.014-2.679,3.014-6.196c0-3.517,0.67-30.825,0-31.494c-0.67-0.67-2.596-0.754-2.596-1.674c0-0.921,4.271-3.002,9.463-3.002
					s10.215,1.172,10.215,2.512c0,1.34-3.014,0.524-3.014,2.199c0,1.674,0,38.158,0,40.167c0,2.009,2.111,1.878,5.191,2.68
					c4.225,1.101,16.074-3.686,16.074-26.793c0-13.062-12.391-22.941-25.621-22.941C186.363,95.081,179.91,101.753,179.91,101.753z"
					/>
			</g>
		</g>
		<g>
			<g>
				<g>
					<g>
						<g>
							<path fill="#EFF0C9" d="M124.3,81.087c-0.163,0-0.327-0.003-0.493-0.01c-6.424-0.246-10.576-5.343-10.576-12.986
								c0-5.248,2.174-10.114,5.674-12.699c2.16-1.596,4.601-2.089,6.873-1.391l-0.448,1.456c-2.306-0.709-4.275,0.239-5.521,1.16
								c-3.071,2.269-5.056,6.773-5.056,11.474c0,6.753,3.576,11.253,9.111,11.464c2.753,0.104,5.087-0.742,6.931-2.518
								c2.358-2.27,3.71-5.975,3.71-10.165c0-6.124-2.218-10.4-5.395-10.4c-3.459,0-3.903,1.558-3.903,2.916
								c0,1.077,0.448,2.236,1.432,2.236c1.039,0,1.659-0.607,1.659-1.625h1.523c0,1.854-1.308,3.148-3.182,3.148
								c-1.712,0-2.955-1.581-2.955-3.759c0-2.025,0.941-4.439,5.426-4.439c4.138,0,6.918,4.792,6.918,11.923
								c0,4.602-1.522,8.707-4.176,11.262C129.842,80.072,127.239,81.087,124.3,81.087z M140.5,79.193l-0.123-1.519
								c0.014-0.001,0.744-0.062,1.739-0.232L136.18,54.3c-1.15,0.214-2.059,0.36-2.138,0.373l-0.239-1.504
								c0.041-0.006,4.153-0.665,6.027-1.258l0.459,1.452c-0.697,0.221-1.655,0.445-2.612,0.644l5.529,21.558l3.973-10.16
								c-0.754,0.194-1.303,0.304-1.361,0.315l-0.295-1.494c0.964-0.191,3.734-0.866,4.955-1.692l0.854,1.261
								c-0.551,0.373-1.297,0.701-2.061,0.975l3.879,7.195l2.93-21.716c-1.084,0.4-1.963,0.567-2.041,0.582l-0.277-1.498
								c0.986-0.185,3.771-0.991,4.789-2.486l1.26,0.857c-0.514,0.754-1.281,1.344-2.092,1.799l-3.182,23.567
								c0.393-0.204,0.771-0.413,1.113-0.618l0.783,1.306c-1.93,1.159-4.877,2.379-5,2.43l-0.582-1.408
								c0.016-0.006,0.738-0.306,1.688-0.74l-4.116-7.636l-4.125,10.548c0.373-0.108,0.742-0.23,1.093-0.369l0.56,1.416
								C143.59,78.935,140.625,79.183,140.5,79.193z M165.762,71.198c-3.379,0-6.234-3.025-6.234-6.605
								c0-4.254,2.773-7.225,6.744-7.225c2.533,0,3.805,2.52,3.857,2.627l-1.363,0.677c-0.01-0.018-0.916-1.781-2.494-1.781
								c-3.605,0-5.221,2.864-5.221,5.702c0,3.04,2.436,5.082,4.711,5.082c5.777,0,13.232-9.034,13.232-18.63
								c0-7.381-4.709-11.364-9.139-11.364c-6.162,0-8.615,4.974-8.717,5.186l-1.377-0.653c0.117-0.247,2.945-6.056,10.094-6.056
								c2.684,0,5.348,1.238,7.312,3.396c1.527,1.677,3.35,4.686,3.35,9.492c0,4.637-1.717,9.634-4.709,13.71
								C172.848,68.79,169.092,71.198,165.762,71.198z M164.982,67.366l-1.492-0.305c0.164-0.796,0.283-3.354,0.305-6.516
								l1.523,0.011C165.309,61.812,165.26,66.015,164.982,67.366z M163.77,55.961c-0.102-6.024-0.418-12.487-0.422-12.552
								l1.521-0.075c0.002,0.064,0.322,6.552,0.422,12.601L163.77,55.961z"/>
						</g>
						<g>
							<path fill="#EFF0C9" d="M113.119,50.539h-1.523c0-2.556,2.217-5.595,6.325-6.19c0.384-0.056,1.005-0.047,2.036-0.034
								c4.821,0.065,17.632,0.239,36.802-6.399c5.996-2.077,12.619-4.914,15.385-6.215c2.873-1.352,6.303-2.991,9.949-4.909
								l0.709,1.348c-3.672,1.932-7.121,3.581-10.01,4.939c-2.795,1.314-9.482,4.18-15.535,6.276
								c-19.421,6.726-32.425,6.549-37.321,6.483c-0.854-0.011-1.531-0.021-1.796,0.018
								C114.481,46.386,113.119,49.01,113.119,50.539z"/>
						</g>
						<g>
							<path fill="#EFF0C9" d="M117.953,45.804c-0.105-0.001-10.488-0.244-10.488-9.823c0-3.811,1.768-6.063,3.252-7.281
								c1.715-1.409,3.977-2.217,6.205-2.217c5.7,0,7.723,3.524,7.723,6.542c0,2.522-1.861,4.188-3.454,4.848
								c-1.603,0.665-3.213,0.521-4.102-0.367l1.076-1.078c0.438,0.437,1.442,0.453,2.442,0.038
								c1.216-0.504,2.515-1.672,2.515-3.441c0-3.701-3.203-5.019-6.2-5.019c-3.189,0-7.934,2.124-7.934,7.975
								c0,3.37,1.477,5.784,4.39,7.174c2.257,1.078,4.572,1.125,4.595,1.126L117.953,45.804z"/>
						</g>
						<g>
							<path fill="#EFF0C9" d="M125.234,89.752c-4.027,0-8.298-0.255-12.836-0.82l0.188-1.511
								c33.826,4.214,52.831-9.129,63.04-16.298c3.777-2.652,6.273-4.404,8.199-4.404c2.98,0,3.768,2.079,3.768,3.179h-1.523
								c-0.006-0.27-0.145-1.656-2.244-1.656c-1.445,0-4.039,1.821-7.324,4.127C167.492,78.695,151.74,89.752,125.234,89.752z"/>
						</g>
					</g>
				</g>
				<path fill="none" stroke="#EFF0C9" stroke-linejoin="round" stroke-miterlimit="10" d="M117.016,50.19
					c0.914-0.913,2.436-1.666,5.056-1.666c3.4,0,12.027,1.583,34.465-6.237"/>
				<path fill="none" stroke="#EFF0C9" stroke-linejoin="round" stroke-miterlimit="10" d="M175.402,35.241
					c2.271-1.081,4.619-2.245,7.043-3.497"/>
				<path fill="none" stroke="#EFF0C9" stroke-linejoin="round" stroke-miterlimit="10" d="M113.316,84.272
					c20.855,3.946,38.28-2.375,51.649-9.975"/>
				<path fill="none" stroke="#EFF0C9" stroke-linejoin="round" stroke-miterlimit="10" d="M176.916,67.285
					c0.691-0.446,1.291-0.829,1.789-1.136c2.895-1.786,6.34-4.329,7.15-9.185"/>
				<path fill="none" stroke="#EFF0C9" stroke-linejoin="round" stroke-miterlimit="10" d="M180.455,64.991
					c5.629-4.909,15.531-1.303,15.531,6.88c0,5.486-4.393,8.967-8.23,8.967c-3.32,0-6.371-2.93-6.371-5.454"/>
			</g>
			<circle fill="#EFF1C9" cx="105.386" cy="67.284" r="2.15"/>
			<circle fill="#EFF1C9" cx="189.549" cy="46.244" r="2.149"/>
		</g>
	</g>
</g>
<g>
</g>
<g>
</g>
<g>
</g>
<g>
</g>
<g>
</g>
<g>
</g>
</svg>
